<svg width="77" height="33" viewBox="0 0 77 33" fill="none" xmlns="http://www.w3.org/2000/svg">
    <path d="M14.2892 10.2334L74.8295 5.99996L68.075 28.526L7.53464 32.7594L14.2892 10.2334Z" fill="#ADBBFF"/>
    <path d="M8.28915 4.23335L68.8295 -3.8934e-05L62.075 22.526L1.53464 26.7594L8.28915 4.23335Z" fill="#173BEC"/>
    <path d="M17.33 19C17.2367 19 17.1527 18.9673 17.078 18.902C17.0127 18.8273 16.98 18.7433 16.98 18.65V9.55C16.98 9.44733 17.0127 9.36333 17.078 9.298C17.1527 9.23267 17.2367 9.2 17.33 9.2H21.6C22.776 9.2 23.6487 9.44267 24.218 9.928C24.7967 10.404 25.086 11.0853 25.086 11.972C25.086 12.4387 24.9647 12.8353 24.722 13.162C24.4887 13.4793 24.2227 13.7127 23.924 13.862C24.3067 14.0393 24.6287 14.324 24.89 14.716C25.1513 15.108 25.282 15.5467 25.282 16.032C25.282 16.9653 24.974 17.6933 24.358 18.216C23.742 18.7387 22.8647 19 21.726 19H17.33ZM21.32 13.092C21.6933 13.092 21.978 12.9987 22.174 12.812C22.37 12.616 22.468 12.3593 22.468 12.042C22.468 11.734 22.37 11.4867 22.174 11.3C21.978 11.1133 21.6933 11.02 21.32 11.02H19.5V13.092H21.32ZM21.446 17.18C21.8287 17.18 22.1273 17.068 22.342 16.844C22.5567 16.62 22.664 16.3493 22.664 16.032C22.664 15.696 22.5567 15.4207 22.342 15.206C22.1273 14.982 21.8287 14.87 21.446 14.87H19.5V17.18H21.446ZM27.1874 19C27.0941 19 27.0101 18.9673 26.9354 18.902C26.8701 18.8273 26.8374 18.7433 26.8374 18.65V9.55C26.8374 9.44733 26.8701 9.36333 26.9354 9.298C27.0101 9.23267 27.0941 9.2 27.1874 9.2H33.7254C33.8281 9.2 33.9121 9.23267 33.9774 9.298C34.0428 9.36333 34.0754 9.44733 34.0754 9.55V10.866C34.0754 10.9593 34.0428 11.0433 33.9774 11.118C33.9121 11.1833 33.8281 11.216 33.7254 11.216H29.2594V13.106H33.4174C33.5201 13.106 33.6041 13.1433 33.6694 13.218C33.7348 13.2833 33.7674 13.3673 33.7674 13.47V14.688C33.7674 14.7813 33.7348 14.8653 33.6694 14.94C33.6041 15.0053 33.5201 15.038 33.4174 15.038H29.2594V16.984H33.8374C33.9401 16.984 34.0241 17.0167 34.0894 17.082C34.1548 17.1473 34.1874 17.2313 34.1874 17.334V18.65C34.1874 18.7433 34.1548 18.8273 34.0894 18.902C34.0241 18.9673 33.9401 19 33.8374 19H27.1874ZM38.2848 19C38.1915 19 38.1075 18.9673 38.0328 18.902C37.9675 18.8273 37.9348 18.7433 37.9348 18.65V11.398H35.4428C35.3495 11.398 35.2655 11.3653 35.1908 11.3C35.1255 11.2253 35.0928 11.1413 35.0928 11.048V9.55C35.0928 9.44733 35.1255 9.36333 35.1908 9.298C35.2655 9.23267 35.3495 9.2 35.4428 9.2H42.9748C43.0775 9.2 43.1615 9.23267 43.2268 9.298C43.2922 9.36333 43.3248 9.44733 43.3248 9.55V11.048C43.3248 11.1507 43.2922 11.2347 43.2268 11.3C43.1615 11.3653 43.0775 11.398 42.9748 11.398H40.4828V18.65C40.4828 18.7433 40.4502 18.8273 40.3848 18.902C40.3195 18.9673 40.2355 19 40.1328 19H38.2848ZM43.0391 19C42.9645 19 42.8945 18.972 42.8291 18.916C42.7731 18.8507 42.7451 18.7807 42.7451 18.706C42.7451 18.65 42.7498 18.608 42.7591 18.58L46.0491 9.592C46.0771 9.48 46.1378 9.38667 46.2311 9.312C46.3245 9.23733 46.4458 9.2 46.5951 9.2H48.6671C48.8165 9.2 48.9378 9.23733 49.0311 9.312C49.1245 9.38667 49.1851 9.48 49.2131 9.592L52.4891 18.58L52.5171 18.706C52.5171 18.7807 52.4845 18.8507 52.4191 18.916C52.3631 18.972 52.2931 19 52.2091 19H50.4871C50.2631 19 50.1138 18.902 50.0391 18.706L49.4931 17.278H45.7551L45.2231 18.706C45.1485 18.902 44.9945 19 44.7611 19H43.0391ZM48.9331 15.262L47.6311 11.566L46.3291 15.262H48.9331Z" fill="white"/>
</svg>
