<svg fill="none" height="200" viewBox="0 0 389 200" width="389" xmlns="http://www.w3.org/2000/svg" xmlns:xlink="http://www.w3.org/1999/xlink"><filter id="a" color-interpolation-filters="sRGB" filterUnits="userSpaceOnUse" height="198.531" width="388.001" x=".499512" y=".5"><feFlood flood-opacity="0" result="BackgroundImageFix"/><feColorMatrix in="SourceAlpha" type="matrix" values="0 0 0 0 0 0 0 0 0 0 0 0 0 0 0 0 0 0 127 0"/><feOffset dy="6"/><feGaussianBlur stdDeviation="4"/><feColorMatrix type="matrix" values="0 0 0 0 0.0863333 0 0 0 0 0 0 0 0 0 0.616667 0 0 0 0.25 0"/><feBlend in2="BackgroundImageFix" mode="normal" result="effect1_dropShadow"/><feBlend in="SourceGraphic" in2="effect1_dropShadow" mode="normal" result="shape"/></filter><filter id="b" color-interpolation-filters="sRGB" filterUnits="userSpaceOnUse" height="67.9134" width="67.9134" x="208.106" y="46.8853"><feFlood flood-opacity="0" result="BackgroundImageFix"/><feColorMatrix in="SourceAlpha" type="matrix" values="0 0 0 0 0 0 0 0 0 0 0 0 0 0 0 0 0 0 127 0"/><feOffset dy="2"/><feGaussianBlur stdDeviation="12"/><feColorMatrix type="matrix" values="0 0 0 0 0 0 0 0 0 0.305 0 0 0 0 0.7625 0 0 0 0.25 0"/><feBlend in2="BackgroundImageFix" mode="normal" result="effect1_dropShadow"/><feBlend in="SourceGraphic" in2="effect1_dropShadow" mode="normal" result="shape"/></filter><g filter="url(#a)"><path d="m11 165.864s15.8957-3.468 33.9681 4.863c34.3727 15.846 36.3336-13.171 49.0793-27.162 11.6606-12.8 21.3186-4.99 34.3016 10.664 9.576 11.545 19.938 24.303 37.985 27.805 41.283 8.011 26.308-83.2243 64.866-100.0093 27.545-11.991 44.91 19.4983 73.4 9.9679 40.083-13.4084 57.196-86.9926 73.4-86.9926" stroke="#173bef" stroke-linecap="round" stroke-linejoin="round" stroke-width="5"/></g><g filter="url(#b)"><rect fill="#173bef" height="19.9134" rx="9.95671" width="19.9134" x="232.106" y="68.8853"/><rect height="14.9134" rx="7.45671" stroke="#fff" stroke-width="5" width="14.9134" x="234.606" y="71.3853"/></g></svg>