<svg fill="none" height="38" viewBox="0 0 38 38" width="38" xmlns="http://www.w3.org/2000/svg" xmlns:xlink="http://www.w3.org/1999/xlink"><filter id="a" color-interpolation-filters="sRGB" filterUnits="userSpaceOnUse" height="27.268" width="10.697" x="24.798" y="3.976"><feFlood flood-opacity="0" result="BackgroundImageFix"/><feColorMatrix in="SourceAlpha" type="matrix" values="0 0 0 0 0 0 0 0 0 0 0 0 0 0 0 0 0 0 127 0"/><feOffset dy="1"/><feGaussianBlur stdDeviation="1"/><feColorMatrix type="matrix" values="0 0 0 0 0 0 0 0 0 0.066 0 0 0 0 0.4125 0 0 0 0.25 0"/><feBlend in2="BackgroundImageFix" mode="normal" result="effect1_dropShadow"/><feBlend in="SourceGraphic" in2="effect1_dropShadow" mode="normal" result="shape"/></filter><filter id="b" color-interpolation-filters="sRGB" filterUnits="userSpaceOnUse" height="17.844" width="10.697" x="15.781" y="13.399"><feFlood flood-opacity="0" result="BackgroundImageFix"/><feColorMatrix in="SourceAlpha" type="matrix" values="0 0 0 0 0 0 0 0 0 0 0 0 0 0 0 0 0 0 127 0"/><feOffset dy="1"/><feGaussianBlur stdDeviation="1"/><feColorMatrix type="matrix" values="0 0 0 0 0 0 0 0 0 0.066 0 0 0 0 0.4125 0 0 0 0.25 0"/><feBlend in2="BackgroundImageFix" mode="normal" result="effect1_dropShadow"/><feBlend in="SourceGraphic" in2="effect1_dropShadow" mode="normal" result="shape"/></filter><filter id="c" color-interpolation-filters="sRGB" filterUnits="userSpaceOnUse" height="12.646" width="10.697" x="6.775" y="18.597"><feFlood flood-opacity="0" result="BackgroundImageFix"/><feColorMatrix in="SourceAlpha" type="matrix" values="0 0 0 0 0 0 0 0 0 0 0 0 0 0 0 0 0 0 127 0"/><feOffset dy="1"/><feGaussianBlur stdDeviation="1"/><feColorMatrix type="matrix" values="0 0 0 0 0 0 0 0 0 0.066 0 0 0 0 0.4125 0 0 0 0.25 0"/><feBlend in2="BackgroundImageFix" mode="normal" result="effect1_dropShadow"/><feBlend in="SourceGraphic" in2="effect1_dropShadow" mode="normal" result="shape"/></filter><filter id="d" color-interpolation-filters="sRGB" filterUnits="userSpaceOnUse" height="38" width="38" x="0" y="0"><feFlood flood-opacity="0" result="BackgroundImageFix"/><feColorMatrix in="SourceAlpha" type="matrix" values="0 0 0 0 0 0 0 0 0 0 0 0 0 0 0 0 0 0 127 0"/><feOffset dy="1"/><feGaussianBlur stdDeviation="1"/><feColorMatrix type="matrix" values="0 0 0 0 0 0 0 0 0 0.128333 0 0 0 0 0.583333 0 0 0 0.15 0"/><feBlend in2="BackgroundImageFix" mode="normal" result="effect1_dropShadow"/><feBlend in="SourceGraphic" in2="effect1_dropShadow" mode="normal" result="shape"/></filter><linearGradient id="e" gradientUnits="userSpaceOnUse" x1="31" x2="31" y1="9.5" y2="28"><stop offset="0" stop-color="#96a7ff"/><stop offset="1" stop-color="#2944cb"/></linearGradient><linearGradient id="f"><stop offset="0" stop-color="#778dff"/><stop offset="1" stop-color="#2944cb"/></linearGradient><linearGradient id="g" gradientUnits="userSpaceOnUse" x1="22" x2="22" xlink:href="#f" y1="16" y2="28"/><linearGradient id="h" gradientUnits="userSpaceOnUse" x1="12" x2="12.5" xlink:href="#f" y1="16.5" y2="28.5"/><radialGradient id="i" cx="0" cy="0" gradientTransform="matrix(0 27 -27 0 19 18)" gradientUnits="userSpaceOnUse" r="1"><stop offset="0" stop-color="#3453f1"/><stop offset="1" stop-color="#b0bbf4"/></radialGradient><g filter="url(#a)"><path d="m33.4943 26.6575v-20.09516c0-.4207-.1672-.82418-.4648-1.12166s-.7013-.46461-1.1221-.46461h-3.5226c-.2084 0-.4147.04103-.6073.12075-.1925.07972-.3675.19656-.5148.34386-.1474.1473-.2643.32217-.344.51462-.0798.19246-.1208.39873-.1208.60704v20.09516c0 .2083.041.4146.1208.607.0797.1925.1966.3673.344.5146.1473.1473.3223.2642.5148.3439.1926.0797.3989.1207.6073.1207h3.5226c.4208 0 .8245-.1671 1.1221-.4646.2976-.2974.4648-.7009.4648-1.1216z" fill="url(#e)"/></g><g filter="url(#b)"><path d="m22.8868 14.3994h-3.519c-.4208 0-.8245.1671-1.1221.4646s-.4648.701-.4648 1.1217v10.6719c0 .4207.1672.8242.4648 1.1217.2976.2974.7013.4646 1.1221.4646h3.5226c.4209 0 .8245-.1672 1.1221-.4646.2977-.2975.4649-.701.4649-1.1217v-10.6719c0-.2086-.0412-.4152-.1212-.6079s-.1972-.3677-.3449-.5151c-.1478-.1473-.3232-.2641-.5161-.3436-.193-.0795-.3997-.1202-.6084-.1197z" fill="url(#g)"/></g><g filter="url(#c)"><path d="m13.8843 19.5974h-3.5226c-.42085 0-.8245.1671-1.12211.4646s-.46481.701-.46481 1.1217v5.4739c0 .4207.1672.8241.46481 1.1216s.70126.4646 1.12211.4646h3.5226c.4209 0 .8245-.1671 1.1221-.4646.2977-.2975.4649-.7009.4649-1.1216v-5.4703c0-.2095-.0416-.417-.1222-.6104-.0807-.1934-.1989-.3689-.3478-.5164s-.3256-.264-.5198-.3429-.4021-.1185-.6117-.1166z" fill="url(#h)"/></g><g filter="url(#d)"><path d="m5.51367 32.8828c.04627.2287.04627.4645 0 .6933-.02313.1131-.05718.2237-.10168.3303-.04435.1067-.09908.2089-.16342.3049-.06468.0967-.13889.1867-.22152.2686-.16431.1649-.35956.2957-.57456.3849-.21499.0893-.4455.1352-.6783.1352s-.46331-.0459-.67831-.1352c-.215-.0892-.41025-.22-.57456-.3849-.08331-.0853-.15754-.1789-.22152-.2795-.12874-.1926-.21878-.4083-.2651-.6352-.04627-.2288-.04627-.4645 0-.6933.04632-.227.13636-.4427.2651-.6353.0647-.0967.13891-.1866.22152-.2686.18497-.1852.4088-.3271.65531-.4154s.50956-.1208.77015-.0951.51222.109.73671.2437c.2245.1347.41627.3176.56145.5354.13066.1959.22193.4154.26873.6462zm-1.73585-24.26231c-.35032.0036-.69172.11091-.98105.30837-.28934.19746-.51363.47621-.64454.80103-.13091.32481-.16256.68111-.09096 1.02391s.24325.6567.49325.902c.25.2454.56713.4111.91134.4764.34421.0652.70004.027 1.02254-.1098.32249-.1368.59718-.3661.78937-.6589.19218-.2928.29323-.636.29037-.9861-.00189-.233-.04974-.46324-.14078-.67767-.09105-.21443-.22351-.4088-.38981-.57199s-.36316-.29199-.57932-.37903c-.21617-.08704-.44738-.13061-.68041-.12822zm0 7.62281c-.35032.0036-.69172.1109-.98105.3084-.28934.1974-.51363.4762-.64454.801s-.16256.6811-.09096 1.0239.24325.6567.49325.902c.25.2454.56713.4111.91134.4764.34421.0652.70004.027 1.02254-.1098.32249-.1368.59718-.3661.78937-.6589.19218-.2928.29323-.636.29037-.9861.00002-.2342-.04642-.466-.13661-.6821-.09019-.2162-.22236-.4122-.38885-.577-.16649-.1647-.364-.2948-.58111-.3827-.21711-.088-.4495-.132-.68375-.1296zm0 7.6228c-.35032.0036-.69172.1109-.98105.3083-.28934.1975-.51363.4763-.64454.8011s-.16256.6811-.09096 1.0239.24325.6567.49325.902c.25.2454.56713.4111.91134.4764.34421.0652.70004.027 1.02254-.1098.32249-.1368.59718-.3661.78937-.6589.19218-.2928.29323-.636.29037-.9862.00146-.235-.04391-.468-.13345-.6854-.08955-.2174-.22148-.4148-.38812-.5806-.16663-.1659-.36463-.297-.58246-.3856s-.45113-.133-.68629-.1306zm-1.47802-20.10242c.06464.09674.13886.18673.22152.26862.33233.33204.78298.51858 1.25287.51858.46988 0 .92053-.18654 1.25286-.51858.16334-.16447.29288-.35931.38131-.57353.04644-.10993.08172-.22424.10531-.34121.04588-.22761.04588-.46207 0-.68968-.06172-.31488-.20802-.60704-.42321-.84514-.21518-.2381-.49115-.41316-.7983-.50642-.30715-.093265-.63391-.101205-.94523-.02297-.31132.07823-.59547.23969-.82198.46705-.08445.08519-.1599.17886-.22515.27951-.06406.0962-.11878.1983-.16342.30491-.04445.10658-.0785.2172-.10168.33032-.04588.22761-.04588.46207 0 .68968.04579.22821.13585.44525.2651.63886zm32.9122 27.98292c-.193-.128-.4087-.218-.6355-.265-.2289-.0462-.4647-.0462-.6936 0-.3147.0622-.6066.2088-.8444.4241-.2377.2153-.4124.4912-.5053.7982-.0929.3069-.1005.6333-.0221.9443.0785.3109.2401.5947.4675.8208.0821.0825.1721.1567.2688.2214.0962.0641.1984.1188.305.1634.1066.0445.2173.0785.3305.1016.2288.0468.4648.0468.6936 0 .2265-.0441.4423-.1316.6355-.2577.0968-.0647.1868-.1388.2687-.2214.1854-.1849.3273-.4086.4157-.655.0883-.2464.1208-.5094.0951-.7699-.0258-.2604-.109-.5119-.2438-.7363s-.3178-.4161-.5357-.5612zm-16.2073-.3158c-.3505 0-.6932.1039-.9846.2985-.2914.1947-.5186.4713-.6527.795s-.1692.6799-.1009 1.0235c.0684.3436.2372.6592.4851.907.2478.2477.5636.4164.9073.4847.3438.0684.7001.0333 1.0239-.1008.3239-.134.6006-.3611.7954-.6524.1947-.2913.2986-.6338.2986-.9841 0-.4698-.1867-.9204-.519-1.2526-.3324-.3322-.7831-.5188-1.2531-.5188zm-7.6262 0c-.3505 0-.6931.1039-.9845.2985-.2915.1947-.51861.4713-.65274.795s-.16923.6799-.10085 1.0235.23717.6592.48499.907c.2479.2477.5636.4164.9074.4847.3438.0684.7001.0333 1.0239-.1008.3238-.134.6006-.3611.7953-.6524.1948-.2913.2987-.6338.2987-.9841 0-.4698-.1867-.9204-.5191-1.2526-.3323-.3322-.7831-.5188-1.2531-.5188zm15.2523 0c-.3505 0-.6931.1039-.9846.2985-.2914.1947-.5185.4713-.6527.795-.1341.3237-.1692.6799-.1008 1.0235s.2371.6592.485.907c.2478.2477.5636.4164.9074.4847.3437.0684.7001.0333 1.0239-.1008.3238-.134.6006-.3611.7953-.6524s.2987-.6338.2987-.9841c0-.4698-.1867-.9204-.5191-1.2526-.3323-.3322-.7831-.5188-1.2531-.5188z" fill="url(#i)"/></g></svg>