<svg fill="none" height="15" viewBox="0 0 15 15" width="15" xmlns="http://www.w3.org/2000/svg"><path clip-rule="evenodd" d="m7.5 0c-2.03688 0-2.29187.00875-3.09188.045-2.72374.125-4.237495 1.63625-4.362495 4.3625-.036875.80063-.045625 1.05562-.045625 3.0925 0 2.03687.00875 2.2925.045 3.0925.125 2.7237 1.63625 4.2375 4.3625 4.3625.80063.0363 1.05562.045 3.0925.045 2.03687 0 2.2925-.0087 3.0925-.045 2.7212-.125 4.2388-1.6363 4.3619-4.3625.0369-.8.0456-1.05563.0456-3.0925 0-2.03688-.0087-2.29187-.045-3.09188-.1225-2.72124-1.6356-4.237495-4.3619-4.362495-.8006-.036875-1.05623-.045625-3.0931-.045625zm0 3.64875c-2.12687 0-3.85125 1.72438-3.85125 3.85125 0 2.12688 1.72438 3.8519 3.85125 3.8519 2.12688 0 3.8513-1.7244 3.8513-3.8519 0-2.12687-1.72442-3.85125-3.8513-3.85125zm0 6.35125c-1.38062 0-2.5-1.11875-2.5-2.5 0-1.38063 1.11938-2.5 2.5-2.5 1.38063 0 2.5 1.11937 2.5 2.5 0 1.38125-1.11937 2.5-2.5 2.5zm4.0037-7.40312c-.4974 0-.9006.40312-.9006.9 0 .49687.4032.9.9006.9.4969 0 .8994-.40313.8994-.9 0-.49688-.4025-.9-.8994-.9z" fill="#fff" fill-rule="evenodd"/></svg>