<svg fill="none" height="13" viewBox="0 0 15 13" width="15" xmlns="http://www.w3.org/2000/svg"><path clip-rule="evenodd" d="m15 1.44313c-.5519.245-1.145.40999-1.7675.48437.6356-.38062 1.1237-.98375 1.3531-1.7025-.5943.3525-1.2531.60875-1.9543.746875-.5607-.598125-1.3613-.971875-2.2463-.971875-1.98688 0-3.44687 1.85375-2.99812 3.77812-2.55688-.12812-4.82438-1.35312-6.3425-3.214995-.806255 1.383125-.41813 3.192495.95187 4.108755-.50375-.01626-.97875-.15438-1.393125-.38501-.03375 1.42563.988125 2.75938 2.468125 3.05626-.43313.1175-.9075.14499-1.39.0525.39125 1.22249 1.5275 2.11187 2.875 2.13687-1.29375 1.0144-2.92375 1.4675-4.55625 1.275 1.36188.8731 2.98 1.3825 4.7175 1.3825 5.7137 0 8.9419-4.82562 8.7469-9.15375.6012-.43438 1.1231-.97625 1.5356-1.59312z" fill="#fff" fill-rule="evenodd"/></svg>