<svg width="1920" height="1054" viewBox="0 0 1920 1054" fill="none" xmlns="http://www.w3.org/2000/svg">
<g clip-path="url(#clip0)">
<g opacity="0.4">
<path d="M1455.78 542.891C1455.78 544.488 1454.49 545.783 1452.89 545.783C1451.29 545.783 1450 544.488 1450 542.891C1450 541.295 1451.29 540 1452.89 540C1454.49 540 1455.78 541.295 1455.78 542.891Z" fill="#767EA7"/>
<path d="M1483.25 542.891C1483.25 544.488 1481.96 545.783 1480.36 545.783C1478.76 545.783 1477.47 544.488 1477.47 542.891C1477.47 541.295 1478.76 540 1480.36 540C1481.96 540 1483.25 541.295 1483.25 542.891Z" fill="#767EA7"/>
<path d="M1510.72 542.891C1510.72 544.488 1509.43 545.783 1507.83 545.783C1506.23 545.783 1504.94 544.488 1504.94 542.891C1504.94 541.295 1506.23 540 1507.83 540C1509.43 540 1510.72 541.295 1510.72 542.891Z" fill="#767EA7"/>
<path d="M1538.19 542.891C1538.19 544.488 1536.89 545.783 1535.3 545.783C1533.7 545.783 1532.41 544.488 1532.41 542.891C1532.41 541.295 1533.7 540 1535.3 540C1536.89 540 1538.19 541.295 1538.19 542.891Z" fill="#767EA7"/>
<path d="M1565.66 542.891C1565.66 544.488 1564.36 545.783 1562.77 545.783C1561.17 545.783 1559.87 544.488 1559.87 542.891C1559.87 541.295 1561.17 540 1562.77 540C1564.36 540 1565.66 541.295 1565.66 542.891Z" fill="#767EA7"/>
<path d="M1593.13 542.891C1593.13 544.488 1591.83 545.783 1590.23 545.783C1588.64 545.783 1587.34 544.488 1587.34 542.891C1587.34 541.295 1588.64 540 1590.23 540C1591.83 540 1593.13 541.295 1593.13 542.891Z" fill="#767EA7"/>
<path d="M1620.59 542.891C1620.59 544.488 1619.3 545.783 1617.7 545.783C1616.11 545.783 1614.81 544.488 1614.81 542.891C1614.81 541.295 1616.11 540 1617.7 540C1619.3 540 1620.59 541.295 1620.59 542.891Z" fill="#767EA7"/>
<path d="M1648.06 542.891C1648.06 544.488 1646.77 545.783 1645.17 545.783C1643.57 545.783 1642.28 544.488 1642.28 542.891C1642.28 541.295 1643.57 540 1645.17 540C1646.77 540 1648.06 541.295 1648.06 542.891Z" fill="#767EA7"/>
<path d="M1675.53 542.891C1675.53 544.488 1674.24 545.783 1672.64 545.783C1671.04 545.783 1669.75 544.488 1669.75 542.891C1669.75 541.295 1671.04 540 1672.64 540C1674.24 540 1675.53 541.295 1675.53 542.891Z" fill="#767EA7"/>
<path d="M1703 542.891C1703 544.488 1701.71 545.783 1700.11 545.783C1698.51 545.783 1697.22 544.488 1697.22 542.891C1697.22 541.295 1698.51 540 1700.11 540C1701.71 540 1703 541.295 1703 542.891Z" fill="#767EA7"/>
<path d="M1455.78 570.36C1455.78 571.957 1454.49 573.251 1452.89 573.251C1451.29 573.251 1450 571.957 1450 570.36C1450 568.763 1451.29 567.469 1452.89 567.469C1454.49 567.469 1455.78 568.763 1455.78 570.36Z" fill="#767EA7"/>
<path d="M1483.25 570.36C1483.25 571.957 1481.96 573.251 1480.36 573.251C1478.76 573.251 1477.47 571.957 1477.47 570.36C1477.47 568.763 1478.76 567.469 1480.36 567.469C1481.96 567.469 1483.25 568.763 1483.25 570.36Z" fill="#767EA7"/>
<path d="M1510.72 570.36C1510.72 571.957 1509.43 573.251 1507.83 573.251C1506.23 573.251 1504.94 571.957 1504.94 570.36C1504.94 568.763 1506.23 567.469 1507.83 567.469C1509.43 567.469 1510.72 568.763 1510.72 570.36Z" fill="#767EA7"/>
<path d="M1538.19 570.36C1538.19 571.957 1536.89 573.251 1535.3 573.251C1533.7 573.251 1532.41 571.957 1532.41 570.36C1532.41 568.763 1533.7 567.469 1535.3 567.469C1536.89 567.469 1538.19 568.763 1538.19 570.36Z" fill="#767EA7"/>
<path d="M1565.66 570.36C1565.66 571.957 1564.36 573.251 1562.77 573.251C1561.17 573.251 1559.87 571.957 1559.87 570.36C1559.87 568.763 1561.17 567.469 1562.77 567.469C1564.36 567.469 1565.66 568.763 1565.66 570.36Z" fill="#767EA7"/>
<path d="M1593.13 570.36C1593.13 571.957 1591.83 573.251 1590.23 573.251C1588.64 573.251 1587.34 571.957 1587.34 570.36C1587.34 568.763 1588.64 567.469 1590.23 567.469C1591.83 567.469 1593.13 568.763 1593.13 570.36Z" fill="#767EA7"/>
<path d="M1620.59 570.36C1620.59 571.957 1619.3 573.251 1617.7 573.251C1616.11 573.251 1614.81 571.957 1614.81 570.36C1614.81 568.763 1616.11 567.469 1617.7 567.469C1619.3 567.469 1620.59 568.763 1620.59 570.36Z" fill="#767EA7"/>
<path d="M1648.06 570.36C1648.06 571.957 1646.77 573.251 1645.17 573.251C1643.57 573.251 1642.28 571.957 1642.28 570.36C1642.28 568.763 1643.57 567.469 1645.17 567.469C1646.77 567.469 1648.06 568.763 1648.06 570.36Z" fill="#767EA7"/>
<path d="M1675.53 570.36C1675.53 571.957 1674.24 573.251 1672.64 573.251C1671.04 573.251 1669.75 571.957 1669.75 570.36C1669.75 568.763 1671.04 567.469 1672.64 567.469C1674.24 567.469 1675.53 568.763 1675.53 570.36Z" fill="#767EA7"/>
<path d="M1703 570.36C1703 571.957 1701.71 573.251 1700.11 573.251C1698.51 573.251 1697.22 571.957 1697.22 570.36C1697.22 568.763 1698.51 567.469 1700.11 567.469C1701.71 567.469 1703 568.763 1703 570.36Z" fill="#767EA7"/>
<path d="M1455.78 597.829C1455.78 599.425 1454.49 600.72 1452.89 600.72C1451.29 600.72 1450 599.425 1450 597.829C1450 596.232 1451.29 594.937 1452.89 594.937C1454.49 594.937 1455.78 596.232 1455.78 597.829Z" fill="#767EA7"/>
<path d="M1483.25 597.829C1483.25 599.425 1481.96 600.72 1480.36 600.72C1478.76 600.72 1477.47 599.425 1477.47 597.829C1477.47 596.232 1478.76 594.937 1480.36 594.937C1481.96 594.937 1483.25 596.232 1483.25 597.829Z" fill="#767EA7"/>
<path d="M1510.72 597.829C1510.72 599.425 1509.43 600.72 1507.83 600.72C1506.23 600.72 1504.94 599.425 1504.94 597.829C1504.94 596.232 1506.23 594.937 1507.83 594.937C1509.43 594.937 1510.72 596.232 1510.72 597.829Z" fill="#767EA7"/>
<path d="M1538.19 597.829C1538.19 599.425 1536.89 600.72 1535.3 600.72C1533.7 600.72 1532.41 599.425 1532.41 597.829C1532.41 596.232 1533.7 594.937 1535.3 594.937C1536.89 594.937 1538.19 596.232 1538.19 597.829Z" fill="#767EA7"/>
<path d="M1565.66 597.829C1565.66 599.425 1564.36 600.72 1562.77 600.72C1561.17 600.72 1559.87 599.425 1559.87 597.829C1559.87 596.232 1561.17 594.937 1562.77 594.937C1564.36 594.937 1565.66 596.232 1565.66 597.829Z" fill="#767EA7"/>
<path d="M1593.13 597.829C1593.13 599.425 1591.83 600.72 1590.23 600.72C1588.64 600.72 1587.34 599.425 1587.34 597.829C1587.34 596.232 1588.64 594.937 1590.23 594.937C1591.83 594.937 1593.13 596.232 1593.13 597.829Z" fill="#767EA7"/>
<path d="M1620.59 597.829C1620.59 599.425 1619.3 600.72 1617.7 600.72C1616.11 600.72 1614.81 599.425 1614.81 597.829C1614.81 596.232 1616.11 594.937 1617.7 594.937C1619.3 594.937 1620.59 596.232 1620.59 597.829Z" fill="#767EA7"/>
<path d="M1648.06 597.829C1648.06 599.425 1646.77 600.72 1645.17 600.72C1643.57 600.72 1642.28 599.425 1642.28 597.829C1642.28 596.232 1643.57 594.937 1645.17 594.937C1646.77 594.937 1648.06 596.232 1648.06 597.829Z" fill="#767EA7"/>
<path d="M1675.53 597.829C1675.53 599.425 1674.24 600.72 1672.64 600.72C1671.04 600.72 1669.75 599.425 1669.75 597.829C1669.75 596.232 1671.04 594.937 1672.64 594.937C1674.24 594.937 1675.53 596.232 1675.53 597.829Z" fill="#767EA7"/>
<path d="M1703 597.829C1703 599.425 1701.71 600.72 1700.11 600.72C1698.51 600.72 1697.22 599.425 1697.22 597.829C1697.22 596.232 1698.51 594.937 1700.11 594.937C1701.71 594.937 1703 596.232 1703 597.829Z" fill="#767EA7"/>
<path d="M1455.78 625.297C1455.78 626.894 1454.49 628.189 1452.89 628.189C1451.29 628.189 1450 626.894 1450 625.297C1450 623.7 1451.29 622.406 1452.89 622.406C1454.49 622.406 1455.78 623.7 1455.78 625.297Z" fill="#767EA7"/>
<path d="M1483.25 625.297C1483.25 626.894 1481.96 628.189 1480.36 628.189C1478.76 628.189 1477.47 626.894 1477.47 625.297C1477.47 623.7 1478.76 622.406 1480.36 622.406C1481.96 622.406 1483.25 623.7 1483.25 625.297Z" fill="#767EA7"/>
<path d="M1510.72 625.297C1510.72 626.894 1509.43 628.189 1507.83 628.189C1506.23 628.189 1504.94 626.894 1504.94 625.297C1504.94 623.7 1506.23 622.406 1507.83 622.406C1509.43 622.406 1510.72 623.7 1510.72 625.297Z" fill="#767EA7"/>
<path d="M1538.19 625.297C1538.19 626.894 1536.89 628.189 1535.3 628.189C1533.7 628.189 1532.41 626.894 1532.41 625.297C1532.41 623.7 1533.7 622.406 1535.3 622.406C1536.89 622.406 1538.19 623.7 1538.19 625.297Z" fill="#767EA7"/>
<path d="M1565.66 625.297C1565.66 626.894 1564.36 628.189 1562.77 628.189C1561.17 628.189 1559.87 626.894 1559.87 625.297C1559.87 623.7 1561.17 622.406 1562.77 622.406C1564.36 622.406 1565.66 623.7 1565.66 625.297Z" fill="#767EA7"/>
<path d="M1593.13 625.297C1593.13 626.894 1591.83 628.189 1590.23 628.189C1588.64 628.189 1587.34 626.894 1587.34 625.297C1587.34 623.7 1588.64 622.406 1590.23 622.406C1591.83 622.406 1593.13 623.7 1593.13 625.297Z" fill="#767EA7"/>
<path d="M1620.59 625.297C1620.59 626.894 1619.3 628.189 1617.7 628.189C1616.11 628.189 1614.81 626.894 1614.81 625.297C1614.81 623.7 1616.11 622.406 1617.7 622.406C1619.3 622.406 1620.59 623.7 1620.59 625.297Z" fill="#767EA7"/>
<path d="M1648.06 625.297C1648.06 626.894 1646.77 628.189 1645.17 628.189C1643.57 628.189 1642.28 626.894 1642.28 625.297C1642.28 623.7 1643.57 622.406 1645.17 622.406C1646.77 622.406 1648.06 623.7 1648.06 625.297Z" fill="#767EA7"/>
<path d="M1675.53 625.297C1675.53 626.894 1674.24 628.189 1672.64 628.189C1671.04 628.189 1669.75 626.894 1669.75 625.297C1669.75 623.7 1671.04 622.406 1672.64 622.406C1674.24 622.406 1675.53 623.7 1675.53 625.297Z" fill="#767EA7"/>
<path d="M1703 625.297C1703 626.894 1701.71 628.189 1700.11 628.189C1698.51 628.189 1697.22 626.894 1697.22 625.297C1697.22 623.7 1698.51 622.406 1700.11 622.406C1701.71 622.406 1703 623.7 1703 625.297Z" fill="#767EA7"/>
<path d="M1455.78 652.766C1455.78 654.363 1454.49 655.657 1452.89 655.657C1451.29 655.657 1450 654.363 1450 652.766C1450 651.169 1451.29 649.874 1452.89 649.874C1454.49 649.874 1455.78 651.169 1455.78 652.766Z" fill="#767EA7"/>
<path d="M1483.25 652.766C1483.25 654.363 1481.96 655.657 1480.36 655.657C1478.76 655.657 1477.47 654.363 1477.47 652.766C1477.47 651.169 1478.76 649.874 1480.36 649.874C1481.96 649.874 1483.25 651.169 1483.25 652.766Z" fill="#767EA7"/>
<path d="M1510.72 652.766C1510.72 654.363 1509.43 655.657 1507.83 655.657C1506.23 655.657 1504.94 654.363 1504.94 652.766C1504.94 651.169 1506.23 649.874 1507.83 649.874C1509.43 649.874 1510.72 651.169 1510.72 652.766Z" fill="#767EA7"/>
<path d="M1538.19 652.766C1538.19 654.363 1536.89 655.657 1535.3 655.657C1533.7 655.657 1532.41 654.363 1532.41 652.766C1532.41 651.169 1533.7 649.874 1535.3 649.874C1536.89 649.874 1538.19 651.169 1538.19 652.766Z" fill="#767EA7"/>
<path d="M1565.66 652.766C1565.66 654.363 1564.36 655.657 1562.77 655.657C1561.17 655.657 1559.87 654.363 1559.87 652.766C1559.87 651.169 1561.17 649.874 1562.77 649.874C1564.36 649.874 1565.66 651.169 1565.66 652.766Z" fill="#767EA7"/>
<path d="M1593.13 652.766C1593.13 654.363 1591.83 655.657 1590.23 655.657C1588.64 655.657 1587.34 654.363 1587.34 652.766C1587.34 651.169 1588.64 649.874 1590.23 649.874C1591.83 649.874 1593.13 651.169 1593.13 652.766Z" fill="#767EA7"/>
<path d="M1620.59 652.766C1620.59 654.363 1619.3 655.657 1617.7 655.657C1616.11 655.657 1614.81 654.363 1614.81 652.766C1614.81 651.169 1616.11 649.874 1617.7 649.874C1619.3 649.874 1620.59 651.169 1620.59 652.766Z" fill="#767EA7"/>
<path d="M1648.06 652.766C1648.06 654.363 1646.77 655.657 1645.17 655.657C1643.57 655.657 1642.28 654.363 1642.28 652.766C1642.28 651.169 1643.57 649.874 1645.17 649.874C1646.77 649.874 1648.06 651.169 1648.06 652.766Z" fill="#767EA7"/>
<path d="M1675.53 652.766C1675.53 654.363 1674.24 655.657 1672.64 655.657C1671.04 655.657 1669.75 654.363 1669.75 652.766C1669.75 651.169 1671.04 649.874 1672.64 649.874C1674.24 649.874 1675.53 651.169 1675.53 652.766Z" fill="#767EA7"/>
<path d="M1703 652.766C1703 654.363 1701.71 655.657 1700.11 655.657C1698.51 655.657 1697.22 654.363 1697.22 652.766C1697.22 651.169 1698.51 649.874 1700.11 649.874C1701.71 649.874 1703 651.169 1703 652.766Z" fill="#767EA7"/>
<path d="M1455.78 680.234C1455.78 681.831 1454.49 683.126 1452.89 683.126C1451.29 683.126 1450 681.831 1450 680.234C1450 678.637 1451.29 677.343 1452.89 677.343C1454.49 677.343 1455.78 678.637 1455.78 680.234Z" fill="#767EA7"/>
<path d="M1483.25 680.234C1483.25 681.831 1481.96 683.126 1480.36 683.126C1478.76 683.126 1477.47 681.831 1477.47 680.234C1477.47 678.637 1478.76 677.343 1480.36 677.343C1481.96 677.343 1483.25 678.637 1483.25 680.234Z" fill="#767EA7"/>
<path d="M1510.72 680.234C1510.72 681.831 1509.43 683.126 1507.83 683.126C1506.23 683.126 1504.94 681.831 1504.94 680.234C1504.94 678.637 1506.23 677.343 1507.83 677.343C1509.43 677.343 1510.72 678.637 1510.72 680.234Z" fill="#767EA7"/>
<path d="M1538.19 680.234C1538.19 681.831 1536.89 683.126 1535.3 683.126C1533.7 683.126 1532.41 681.831 1532.41 680.234C1532.41 678.637 1533.7 677.343 1535.3 677.343C1536.89 677.343 1538.19 678.637 1538.19 680.234Z" fill="#767EA7"/>
<path d="M1565.66 680.234C1565.66 681.831 1564.36 683.126 1562.77 683.126C1561.17 683.126 1559.87 681.831 1559.87 680.234C1559.87 678.637 1561.17 677.343 1562.77 677.343C1564.36 677.343 1565.66 678.637 1565.66 680.234Z" fill="#767EA7"/>
<path d="M1593.13 680.234C1593.13 681.831 1591.83 683.126 1590.23 683.126C1588.64 683.126 1587.34 681.831 1587.34 680.234C1587.34 678.637 1588.64 677.343 1590.23 677.343C1591.83 677.343 1593.13 678.637 1593.13 680.234Z" fill="#767EA7"/>
<path d="M1620.59 680.234C1620.59 681.831 1619.3 683.126 1617.7 683.126C1616.11 683.126 1614.81 681.831 1614.81 680.234C1614.81 678.637 1616.11 677.343 1617.7 677.343C1619.3 677.343 1620.59 678.637 1620.59 680.234Z" fill="#767EA7"/>
<path d="M1648.06 680.234C1648.06 681.831 1646.77 683.126 1645.17 683.126C1643.57 683.126 1642.28 681.831 1642.28 680.234C1642.28 678.637 1643.57 677.343 1645.17 677.343C1646.77 677.343 1648.06 678.637 1648.06 680.234Z" fill="#767EA7"/>
<path d="M1675.53 680.234C1675.53 681.831 1674.24 683.126 1672.64 683.126C1671.04 683.126 1669.75 681.831 1669.75 680.234C1669.75 678.637 1671.04 677.343 1672.64 677.343C1674.24 677.343 1675.53 678.637 1675.53 680.234Z" fill="#767EA7"/>
<path d="M1703 680.234C1703 681.831 1701.71 683.126 1700.11 683.126C1698.51 683.126 1697.22 681.831 1697.22 680.234C1697.22 678.637 1698.51 677.343 1700.11 677.343C1701.71 677.343 1703 678.637 1703 680.234Z" fill="#767EA7"/>
<path d="M1455.78 707.703C1455.78 709.3 1454.49 710.594 1452.89 710.594C1451.29 710.594 1450 709.3 1450 707.703C1450 706.106 1451.29 704.811 1452.89 704.811C1454.49 704.811 1455.78 706.106 1455.78 707.703Z" fill="#767EA7"/>
<path d="M1483.25 707.703C1483.25 709.3 1481.96 710.594 1480.36 710.594C1478.76 710.594 1477.47 709.3 1477.47 707.703C1477.47 706.106 1478.76 704.811 1480.36 704.811C1481.96 704.811 1483.25 706.106 1483.25 707.703Z" fill="#767EA7"/>
<path d="M1510.72 707.703C1510.72 709.3 1509.43 710.594 1507.83 710.594C1506.23 710.594 1504.94 709.3 1504.94 707.703C1504.94 706.106 1506.23 704.811 1507.83 704.811C1509.43 704.811 1510.72 706.106 1510.72 707.703Z" fill="#767EA7"/>
<path d="M1538.19 707.703C1538.19 709.3 1536.89 710.594 1535.3 710.594C1533.7 710.594 1532.41 709.3 1532.41 707.703C1532.41 706.106 1533.7 704.811 1535.3 704.811C1536.89 704.811 1538.19 706.106 1538.19 707.703Z" fill="#767EA7"/>
<path d="M1565.66 707.703C1565.66 709.3 1564.36 710.594 1562.77 710.594C1561.17 710.594 1559.87 709.3 1559.87 707.703C1559.87 706.106 1561.17 704.811 1562.77 704.811C1564.36 704.811 1565.66 706.106 1565.66 707.703Z" fill="#767EA7"/>
<path d="M1593.13 707.703C1593.13 709.3 1591.83 710.594 1590.23 710.594C1588.64 710.594 1587.34 709.3 1587.34 707.703C1587.34 706.106 1588.64 704.811 1590.23 704.811C1591.83 704.811 1593.13 706.106 1593.13 707.703Z" fill="#767EA7"/>
<path d="M1620.59 707.703C1620.59 709.3 1619.3 710.594 1617.7 710.594C1616.11 710.594 1614.81 709.3 1614.81 707.703C1614.81 706.106 1616.11 704.811 1617.7 704.811C1619.3 704.811 1620.59 706.106 1620.59 707.703Z" fill="#767EA7"/>
<path d="M1648.06 707.703C1648.06 709.3 1646.77 710.594 1645.17 710.594C1643.57 710.594 1642.28 709.3 1642.28 707.703C1642.28 706.106 1643.57 704.811 1645.17 704.811C1646.77 704.811 1648.06 706.106 1648.06 707.703Z" fill="#767EA7"/>
<path d="M1675.53 707.703C1675.53 709.3 1674.24 710.594 1672.64 710.594C1671.04 710.594 1669.75 709.3 1669.75 707.703C1669.75 706.106 1671.04 704.811 1672.64 704.811C1674.24 704.811 1675.53 706.106 1675.53 707.703Z" fill="#767EA7"/>
<path d="M1703 707.703C1703 709.3 1701.71 710.594 1700.11 710.594C1698.51 710.594 1697.22 709.3 1697.22 707.703C1697.22 706.106 1698.51 704.811 1700.11 704.811C1701.71 704.811 1703 706.106 1703 707.703Z" fill="#767EA7"/>
<path d="M1455.78 735.171C1455.78 736.768 1454.49 738.063 1452.89 738.063C1451.29 738.063 1450 736.768 1450 735.171C1450 733.575 1451.29 732.28 1452.89 732.28C1454.49 732.28 1455.78 733.575 1455.78 735.171Z" fill="#767EA7"/>
<path d="M1483.25 735.171C1483.25 736.768 1481.96 738.063 1480.36 738.063C1478.76 738.063 1477.47 736.768 1477.47 735.171C1477.47 733.575 1478.76 732.28 1480.36 732.28C1481.96 732.28 1483.25 733.575 1483.25 735.171Z" fill="#767EA7"/>
<path d="M1510.72 735.171C1510.72 736.768 1509.43 738.063 1507.83 738.063C1506.23 738.063 1504.94 736.768 1504.94 735.171C1504.94 733.575 1506.23 732.28 1507.83 732.28C1509.43 732.28 1510.72 733.575 1510.72 735.171Z" fill="#767EA7"/>
<path d="M1538.19 735.171C1538.19 736.768 1536.89 738.063 1535.3 738.063C1533.7 738.063 1532.41 736.768 1532.41 735.171C1532.41 733.575 1533.7 732.28 1535.3 732.28C1536.89 732.28 1538.19 733.575 1538.19 735.171Z" fill="#767EA7"/>
<path d="M1565.66 735.171C1565.66 736.768 1564.36 738.063 1562.77 738.063C1561.17 738.063 1559.87 736.768 1559.87 735.171C1559.87 733.575 1561.17 732.28 1562.77 732.28C1564.36 732.28 1565.66 733.575 1565.66 735.171Z" fill="#767EA7"/>
<path d="M1593.13 735.171C1593.13 736.768 1591.83 738.063 1590.23 738.063C1588.64 738.063 1587.34 736.768 1587.34 735.171C1587.34 733.575 1588.64 732.28 1590.23 732.28C1591.83 732.28 1593.13 733.575 1593.13 735.171Z" fill="#767EA7"/>
<path d="M1620.59 735.171C1620.59 736.768 1619.3 738.063 1617.7 738.063C1616.11 738.063 1614.81 736.768 1614.81 735.171C1614.81 733.575 1616.11 732.28 1617.7 732.28C1619.3 732.28 1620.59 733.575 1620.59 735.171Z" fill="#767EA7"/>
<path d="M1648.06 735.171C1648.06 736.768 1646.77 738.063 1645.17 738.063C1643.57 738.063 1642.28 736.768 1642.28 735.171C1642.28 733.575 1643.57 732.28 1645.17 732.28C1646.77 732.28 1648.06 733.575 1648.06 735.171Z" fill="#767EA7"/>
<path d="M1675.53 735.171C1675.53 736.768 1674.24 738.063 1672.64 738.063C1671.04 738.063 1669.75 736.768 1669.75 735.171C1669.75 733.575 1671.04 732.28 1672.64 732.28C1674.24 732.28 1675.53 733.575 1675.53 735.171Z" fill="#767EA7"/>
<path d="M1703 735.171C1703 736.768 1701.71 738.063 1700.11 738.063C1698.51 738.063 1697.22 736.768 1697.22 735.171C1697.22 733.575 1698.51 732.28 1700.11 732.28C1701.71 732.28 1703 733.575 1703 735.171Z" fill="#767EA7"/>
<path d="M1455.78 762.64C1455.78 764.237 1454.49 765.531 1452.89 765.531C1451.29 765.531 1450 764.237 1450 762.64C1450 761.043 1451.29 759.749 1452.89 759.749C1454.49 759.749 1455.78 761.043 1455.78 762.64Z" fill="#767EA7"/>
<path d="M1483.25 762.64C1483.25 764.237 1481.96 765.531 1480.36 765.531C1478.76 765.531 1477.47 764.237 1477.47 762.64C1477.47 761.043 1478.76 759.749 1480.36 759.749C1481.96 759.749 1483.25 761.043 1483.25 762.64Z" fill="#767EA7"/>
<path d="M1510.72 762.64C1510.72 764.237 1509.43 765.531 1507.83 765.531C1506.23 765.531 1504.94 764.237 1504.94 762.64C1504.94 761.043 1506.23 759.749 1507.83 759.749C1509.43 759.749 1510.72 761.043 1510.72 762.64Z" fill="#767EA7"/>
<path d="M1538.19 762.64C1538.19 764.237 1536.89 765.531 1535.3 765.531C1533.7 765.531 1532.41 764.237 1532.41 762.64C1532.41 761.043 1533.7 759.749 1535.3 759.749C1536.89 759.749 1538.19 761.043 1538.19 762.64Z" fill="#767EA7"/>
<path d="M1565.66 762.64C1565.66 764.237 1564.36 765.531 1562.77 765.531C1561.17 765.531 1559.87 764.237 1559.87 762.64C1559.87 761.043 1561.17 759.749 1562.77 759.749C1564.36 759.749 1565.66 761.043 1565.66 762.64Z" fill="#767EA7"/>
<path d="M1593.13 762.64C1593.13 764.237 1591.83 765.531 1590.23 765.531C1588.64 765.531 1587.34 764.237 1587.34 762.64C1587.34 761.043 1588.64 759.749 1590.23 759.749C1591.83 759.749 1593.13 761.043 1593.13 762.64Z" fill="#767EA7"/>
<path d="M1620.59 762.64C1620.59 764.237 1619.3 765.531 1617.7 765.531C1616.11 765.531 1614.81 764.237 1614.81 762.64C1614.81 761.043 1616.11 759.749 1617.7 759.749C1619.3 759.749 1620.59 761.043 1620.59 762.64Z" fill="#767EA7"/>
<path d="M1648.06 762.64C1648.06 764.237 1646.77 765.531 1645.17 765.531C1643.57 765.531 1642.28 764.237 1642.28 762.64C1642.28 761.043 1643.57 759.749 1645.17 759.749C1646.77 759.749 1648.06 761.043 1648.06 762.64Z" fill="#767EA7"/>
<path d="M1675.53 762.64C1675.53 764.237 1674.24 765.531 1672.64 765.531C1671.04 765.531 1669.75 764.237 1669.75 762.64C1669.75 761.043 1671.04 759.749 1672.64 759.749C1674.24 759.749 1675.53 761.043 1675.53 762.64Z" fill="#767EA7"/>
<path d="M1703 762.64C1703 764.237 1701.71 765.531 1700.11 765.531C1698.51 765.531 1697.22 764.237 1697.22 762.64C1697.22 761.043 1698.51 759.749 1700.11 759.749C1701.71 759.749 1703 761.043 1703 762.64Z" fill="#767EA7"/>
<path d="M1455.78 790.109C1455.78 791.705 1454.49 793 1452.89 793C1451.29 793 1450 791.705 1450 790.109C1450 788.512 1451.29 787.217 1452.89 787.217C1454.49 787.217 1455.78 788.512 1455.78 790.109Z" fill="#767EA7"/>
<path d="M1483.25 790.109C1483.25 791.705 1481.96 793 1480.36 793C1478.76 793 1477.47 791.705 1477.47 790.109C1477.47 788.512 1478.76 787.217 1480.36 787.217C1481.96 787.217 1483.25 788.512 1483.25 790.109Z" fill="#767EA7"/>
<path d="M1510.72 790.109C1510.72 791.705 1509.43 793 1507.83 793C1506.23 793 1504.94 791.705 1504.94 790.109C1504.94 788.512 1506.23 787.217 1507.83 787.217C1509.43 787.217 1510.72 788.512 1510.72 790.109Z" fill="#767EA7"/>
<path d="M1538.19 790.109C1538.19 791.705 1536.89 793 1535.3 793C1533.7 793 1532.41 791.705 1532.41 790.109C1532.41 788.512 1533.7 787.217 1535.3 787.217C1536.89 787.217 1538.19 788.512 1538.19 790.109Z" fill="#767EA7"/>
<path d="M1565.66 790.109C1565.66 791.705 1564.36 793 1562.77 793C1561.17 793 1559.87 791.705 1559.87 790.109C1559.87 788.512 1561.17 787.217 1562.77 787.217C1564.36 787.217 1565.66 788.512 1565.66 790.109Z" fill="#767EA7"/>
<path d="M1593.13 790.109C1593.13 791.705 1591.83 793 1590.23 793C1588.64 793 1587.34 791.705 1587.34 790.109C1587.34 788.512 1588.64 787.217 1590.23 787.217C1591.83 787.217 1593.13 788.512 1593.13 790.109Z" fill="#767EA7"/>
<path d="M1620.59 790.109C1620.59 791.705 1619.3 793 1617.7 793C1616.11 793 1614.81 791.705 1614.81 790.109C1614.81 788.512 1616.11 787.217 1617.7 787.217C1619.3 787.217 1620.59 788.512 1620.59 790.109Z" fill="#767EA7"/>
<path d="M1648.06 790.109C1648.06 791.705 1646.77 793 1645.17 793C1643.57 793 1642.28 791.705 1642.28 790.109C1642.28 788.512 1643.57 787.217 1645.17 787.217C1646.77 787.217 1648.06 788.512 1648.06 790.109Z" fill="#767EA7"/>
<path d="M1675.53 790.109C1675.53 791.705 1674.24 793 1672.64 793C1671.04 793 1669.75 791.705 1669.75 790.109C1669.75 788.512 1671.04 787.217 1672.64 787.217C1674.24 787.217 1675.53 788.512 1675.53 790.109Z" fill="#767EA7"/>
<path d="M1703 790.109C1703 791.705 1701.71 793 1700.11 793C1698.51 793 1697.22 791.705 1697.22 790.109C1697.22 788.512 1698.51 787.217 1700.11 787.217C1701.71 787.217 1703 788.512 1703 790.109Z" fill="#767EA7"/>
</g>
<g opacity="0.4" filter="url(#filter0_d)">
<rect x="265.5" y="994.5" width="54" height="54" rx="5.5" fill="#F2F2F2" stroke="#767EA7"/>
<path fill-rule="evenodd" clip-rule="evenodd" d="M298.213 1011.73L287.844 1021.99C287.367 1022.46 286.591 1022.46 286.114 1021.99C285.638 1021.52 285.638 1020.75 286.114 1020.28L296.484 1010.02C296.961 1009.55 297.737 1009.55 298.213 1010.02C298.452 1010.25 298.574 1010.56 298.574 1010.87C298.574 1011.18 298.452 1011.49 298.213 1011.73ZM302.106 1010.45L299.509 1007.88C298.318 1006.71 296.381 1006.71 295.189 1007.88L284.055 1018.91C283.707 1019.25 283.45 1019.67 283.298 1020.14L281.061 1027.18C280.762 1028.11 281.648 1028.99 282.589 1028.7L289.726 1026.48C290.191 1026.33 290.618 1026.08 290.967 1025.74L302.106 1014.71C303.298 1013.53 303.298 1011.62 302.106 1010.45V1010.45Z" fill="#767EA7"/>
<path fill-rule="evenodd" clip-rule="evenodd" d="M301.471 1036H282.528C281.684 1036 281 1035.32 281 1034.49C281 1033.66 281.684 1032.98 282.528 1032.98H301.471C302.315 1032.98 302.998 1033.66 302.998 1034.49C302.998 1035.32 302.315 1036 301.471 1036" fill="#767EA7"/>
<rect x="180.5" y="1022.5" width="54" height="54" rx="5.5" fill="#F2F2F2" stroke="#767EA7"/>
<path d="M213.933 1039H200.067C197.793 1039 196 1040.88 196 1043.14V1055.86C196 1058.13 197.801 1060 200.067 1060H213.933C216.207 1060 218 1058.12 218 1055.86V1043.14C218 1040.87 216.199 1039 213.933 1039V1039ZM213.933 1041.64C214.748 1041.64 215.411 1042.31 215.411 1043.14C215.411 1043.97 214.748 1044.65 213.933 1044.65C213.117 1044.65 212.454 1043.97 212.454 1043.14C212.454 1042.31 213.117 1041.64 213.933 1041.64V1041.64ZM200.067 1041.64H210.144C209.965 1042.1 209.865 1042.61 209.865 1043.14C209.865 1045.43 211.69 1047.29 213.933 1047.29C214.454 1047.29 214.953 1047.19 215.411 1047V1051.26L213.461 1049.27C212.956 1048.76 212.136 1048.76 211.631 1049.27L208.387 1052.58L203.756 1047.86C203.25 1047.35 202.431 1047.35 201.925 1047.86L198.589 1051.26V1043.14C198.589 1042.32 199.242 1041.64 200.067 1041.64V1041.64ZM213.933 1057.36H200.067C199.26 1057.36 198.589 1056.7 198.589 1055.86V1054.99L202.841 1050.66L207.471 1055.38C207.977 1055.89 208.797 1055.89 209.302 1055.38L212.546 1052.07L215.411 1054.99V1055.86C215.411 1056.68 214.758 1057.36 213.933 1057.36V1057.36Z" fill="#767EA7"/>
<rect x="350.5" y="967.5" width="54" height="54" rx="5.5" fill="#F2F2F2" stroke="#767EA7"/>
<path fill-rule="evenodd" clip-rule="evenodd" d="M368 985C366.895 985 366 985.895 366 987V1001.86C366 1002.96 366.895 1003.86 368 1003.86H386C387.105 1003.86 388 1002.96 388 1001.86V987C388 985.895 387.105 985 386 985H368ZM386.428 988.143V988.761H385.408V999.155H386.428V999.773H383.771V999.155H384.791V988.761H383.771V988.143H386.428ZM367.687 997.258L370.796 990.238C371.012 989.754 371.407 989.461 371.942 989.461H372.057C372.592 989.461 372.974 989.754 373.191 990.238L376.299 997.258C376.363 997.398 376.401 997.526 376.401 997.653C376.401 998.176 375.994 998.596 375.471 998.596C375.013 998.596 374.707 998.328 374.529 997.921L373.93 996.519H370.006L369.381 997.984C369.216 998.367 368.885 998.596 368.477 998.596C367.967 998.596 367.572 998.188 367.572 997.679C367.572 997.538 367.623 997.398 367.687 997.258ZM373.204 994.787L371.968 991.843L370.732 994.787H373.204ZM377.33 996.533V996.558C377.33 997.909 378.388 998.648 379.674 998.647C380.617 998.647 381.267 998.303 381.738 997.781V997.794C381.738 998.202 382.108 998.597 382.668 998.597C383.191 998.597 383.611 998.189 383.611 997.666V994.558C383.611 993.641 383.382 992.889 382.872 992.379C382.388 991.895 381.624 991.615 380.566 991.615C379.662 991.615 378.999 991.742 378.388 991.971C378.082 992.086 377.865 992.379 377.865 992.723C377.865 993.169 378.222 993.513 378.668 993.513C378.757 993.513 378.834 993.5 378.948 993.462C379.318 993.347 379.751 993.271 380.286 993.271C381.254 993.271 381.751 993.717 381.751 994.52V994.634C381.267 994.469 380.77 994.354 380.082 994.354C378.464 994.354 377.33 995.042 377.33 996.533ZM381.777 995.768V996.112C381.777 996.813 381.165 997.31 380.26 997.31C379.636 997.31 379.203 997.004 379.203 996.482V996.456C379.203 995.845 379.713 995.513 380.541 995.513C381.012 995.513 381.445 995.615 381.777 995.768Z" fill="#767EA7"/>
</g>
<g opacity="0.4">
<path d="M-74.2171 272.891C-74.2171 274.488 -75.5117 275.783 -77.1086 275.783C-78.7055 275.783 -80 274.488 -80 272.891C-80 271.295 -78.7055 270 -77.1086 270C-75.5117 270 -74.2171 271.295 -74.2171 272.891Z" fill="#767EA7"/>
<path d="M-46.7486 272.891C-46.7486 274.488 -48.0431 275.783 -49.64 275.783C-51.2369 275.783 -52.5314 274.488 -52.5314 272.891C-52.5314 271.295 -51.2369 270 -49.64 270C-48.0431 270 -46.7486 271.295 -46.7486 272.891Z" fill="#767EA7"/>
<path d="M-19.28 272.891C-19.28 274.488 -20.5745 275.783 -22.1714 275.783C-23.7683 275.783 -25.0629 274.488 -25.0629 272.891C-25.0629 271.295 -23.7683 270 -22.1714 270C-20.5745 270 -19.28 271.295 -19.28 272.891Z" fill="#767EA7"/>
<path d="M8.18857 272.891C8.18857 274.488 6.89403 275.783 5.29714 275.783C3.70025 275.783 2.40571 274.488 2.40571 272.891C2.40571 271.295 3.70025 270 5.29714 270C6.89403 270 8.18857 271.295 8.18857 272.891Z" fill="#767EA7"/>
<path d="M35.6571 272.891C35.6571 274.488 34.3626 275.783 32.7657 275.783C31.1688 275.783 29.8743 274.488 29.8743 272.891C29.8743 271.295 31.1688 270 32.7657 270C34.3626 270 35.6571 271.295 35.6571 272.891Z" fill="#767EA7"/>
<path d="M63.1257 272.891C63.1257 274.488 61.8312 275.783 60.2343 275.783C58.6374 275.783 57.3429 274.488 57.3429 272.891C57.3429 271.295 58.6374 270 60.2343 270C61.8312 270 63.1257 271.295 63.1257 272.891Z" fill="#767EA7"/>
<path d="M90.5943 272.891C90.5943 274.488 89.2997 275.783 87.7029 275.783C86.106 275.783 84.8114 274.488 84.8114 272.891C84.8114 271.295 86.106 270 87.7029 270C89.2997 270 90.5943 271.295 90.5943 272.891Z" fill="#767EA7"/>
<path d="M118.063 272.891C118.063 274.488 116.768 275.783 115.171 275.783C113.575 275.783 112.28 274.488 112.28 272.891C112.28 271.295 113.575 270 115.171 270C116.768 270 118.063 271.295 118.063 272.891Z" fill="#767EA7"/>
<path d="M145.531 272.891C145.531 274.488 144.237 275.783 142.64 275.783C141.043 275.783 139.749 274.488 139.749 272.891C139.749 271.295 141.043 270 142.64 270C144.237 270 145.531 271.295 145.531 272.891Z" fill="#767EA7"/>
<path d="M173 272.891C173 274.488 171.705 275.783 170.109 275.783C168.512 275.783 167.217 274.488 167.217 272.891C167.217 271.295 168.512 270 170.109 270C171.705 270 173 271.295 173 272.891Z" fill="#767EA7"/>
<path d="M-74.2171 300.36C-74.2171 301.957 -75.5117 303.251 -77.1086 303.251C-78.7055 303.251 -80 301.957 -80 300.36C-80 298.763 -78.7055 297.469 -77.1086 297.469C-75.5117 297.469 -74.2171 298.763 -74.2171 300.36Z" fill="#767EA7"/>
<path d="M-46.7486 300.36C-46.7486 301.957 -48.0431 303.251 -49.64 303.251C-51.2369 303.251 -52.5314 301.957 -52.5314 300.36C-52.5314 298.763 -51.2369 297.469 -49.64 297.469C-48.0431 297.469 -46.7486 298.763 -46.7486 300.36Z" fill="#767EA7"/>
<path d="M-19.28 300.36C-19.28 301.957 -20.5745 303.251 -22.1714 303.251C-23.7683 303.251 -25.0629 301.957 -25.0629 300.36C-25.0629 298.763 -23.7683 297.469 -22.1714 297.469C-20.5745 297.469 -19.28 298.763 -19.28 300.36Z" fill="#767EA7"/>
<path d="M8.18857 300.36C8.18857 301.957 6.89403 303.251 5.29714 303.251C3.70025 303.251 2.40571 301.957 2.40571 300.36C2.40571 298.763 3.70025 297.469 5.29714 297.469C6.89403 297.469 8.18857 298.763 8.18857 300.36Z" fill="#767EA7"/>
<path d="M35.6571 300.36C35.6571 301.957 34.3626 303.251 32.7657 303.251C31.1688 303.251 29.8743 301.957 29.8743 300.36C29.8743 298.763 31.1688 297.469 32.7657 297.469C34.3626 297.469 35.6571 298.763 35.6571 300.36Z" fill="#767EA7"/>
<path d="M63.1257 300.36C63.1257 301.957 61.8312 303.251 60.2343 303.251C58.6374 303.251 57.3429 301.957 57.3429 300.36C57.3429 298.763 58.6374 297.469 60.2343 297.469C61.8312 297.469 63.1257 298.763 63.1257 300.36Z" fill="#767EA7"/>
<path d="M90.5943 300.36C90.5943 301.957 89.2997 303.251 87.7029 303.251C86.106 303.251 84.8114 301.957 84.8114 300.36C84.8114 298.763 86.106 297.469 87.7029 297.469C89.2997 297.469 90.5943 298.763 90.5943 300.36Z" fill="#767EA7"/>
<path d="M118.063 300.36C118.063 301.957 116.768 303.251 115.171 303.251C113.575 303.251 112.28 301.957 112.28 300.36C112.28 298.763 113.575 297.469 115.171 297.469C116.768 297.469 118.063 298.763 118.063 300.36Z" fill="#767EA7"/>
<path d="M145.531 300.36C145.531 301.957 144.237 303.251 142.64 303.251C141.043 303.251 139.749 301.957 139.749 300.36C139.749 298.763 141.043 297.469 142.64 297.469C144.237 297.469 145.531 298.763 145.531 300.36Z" fill="#767EA7"/>
<path d="M173 300.36C173 301.957 171.705 303.251 170.109 303.251C168.512 303.251 167.217 301.957 167.217 300.36C167.217 298.763 168.512 297.469 170.109 297.469C171.705 297.469 173 298.763 173 300.36Z" fill="#767EA7"/>
<path d="M-74.2171 327.829C-74.2171 329.425 -75.5117 330.72 -77.1086 330.72C-78.7055 330.72 -80 329.425 -80 327.829C-80 326.232 -78.7055 324.937 -77.1086 324.937C-75.5117 324.937 -74.2171 326.232 -74.2171 327.829Z" fill="#767EA7"/>
<path d="M-46.7486 327.829C-46.7486 329.425 -48.0431 330.72 -49.64 330.72C-51.2369 330.72 -52.5314 329.425 -52.5314 327.829C-52.5314 326.232 -51.2369 324.937 -49.64 324.937C-48.0431 324.937 -46.7486 326.232 -46.7486 327.829Z" fill="#767EA7"/>
<path d="M-19.28 327.829C-19.28 329.425 -20.5745 330.72 -22.1714 330.72C-23.7683 330.72 -25.0629 329.425 -25.0629 327.829C-25.0629 326.232 -23.7683 324.937 -22.1714 324.937C-20.5745 324.937 -19.28 326.232 -19.28 327.829Z" fill="#767EA7"/>
<path d="M8.18857 327.829C8.18857 329.425 6.89403 330.72 5.29714 330.72C3.70025 330.72 2.40571 329.425 2.40571 327.829C2.40571 326.232 3.70025 324.937 5.29714 324.937C6.89403 324.937 8.18857 326.232 8.18857 327.829Z" fill="#767EA7"/>
<path d="M35.6571 327.829C35.6571 329.425 34.3626 330.72 32.7657 330.72C31.1688 330.72 29.8743 329.425 29.8743 327.829C29.8743 326.232 31.1688 324.937 32.7657 324.937C34.3626 324.937 35.6571 326.232 35.6571 327.829Z" fill="#767EA7"/>
<path d="M63.1257 327.829C63.1257 329.425 61.8312 330.72 60.2343 330.72C58.6374 330.72 57.3429 329.425 57.3429 327.829C57.3429 326.232 58.6374 324.937 60.2343 324.937C61.8312 324.937 63.1257 326.232 63.1257 327.829Z" fill="#767EA7"/>
<path d="M90.5943 327.829C90.5943 329.425 89.2997 330.72 87.7029 330.72C86.106 330.72 84.8114 329.425 84.8114 327.829C84.8114 326.232 86.106 324.937 87.7029 324.937C89.2997 324.937 90.5943 326.232 90.5943 327.829Z" fill="#767EA7"/>
<path d="M118.063 327.829C118.063 329.425 116.768 330.72 115.171 330.72C113.575 330.72 112.28 329.425 112.28 327.829C112.28 326.232 113.575 324.937 115.171 324.937C116.768 324.937 118.063 326.232 118.063 327.829Z" fill="#767EA7"/>
<path d="M145.531 327.829C145.531 329.425 144.237 330.72 142.64 330.72C141.043 330.72 139.749 329.425 139.749 327.829C139.749 326.232 141.043 324.937 142.64 324.937C144.237 324.937 145.531 326.232 145.531 327.829Z" fill="#767EA7"/>
<path d="M173 327.829C173 329.425 171.705 330.72 170.109 330.72C168.512 330.72 167.217 329.425 167.217 327.829C167.217 326.232 168.512 324.937 170.109 324.937C171.705 324.937 173 326.232 173 327.829Z" fill="#767EA7"/>
<path d="M-74.2171 355.297C-74.2171 356.894 -75.5117 358.189 -77.1086 358.189C-78.7055 358.189 -80 356.894 -80 355.297C-80 353.7 -78.7055 352.406 -77.1086 352.406C-75.5117 352.406 -74.2171 353.7 -74.2171 355.297Z" fill="#767EA7"/>
<path d="M-46.7486 355.297C-46.7486 356.894 -48.0431 358.189 -49.64 358.189C-51.2369 358.189 -52.5314 356.894 -52.5314 355.297C-52.5314 353.7 -51.2369 352.406 -49.64 352.406C-48.0431 352.406 -46.7486 353.7 -46.7486 355.297Z" fill="#767EA7"/>
<path d="M-19.28 355.297C-19.28 356.894 -20.5745 358.189 -22.1714 358.189C-23.7683 358.189 -25.0629 356.894 -25.0629 355.297C-25.0629 353.7 -23.7683 352.406 -22.1714 352.406C-20.5745 352.406 -19.28 353.7 -19.28 355.297Z" fill="#767EA7"/>
<path d="M8.18857 355.297C8.18857 356.894 6.89403 358.189 5.29714 358.189C3.70025 358.189 2.40571 356.894 2.40571 355.297C2.40571 353.7 3.70025 352.406 5.29714 352.406C6.89403 352.406 8.18857 353.7 8.18857 355.297Z" fill="#767EA7"/>
<path d="M35.6571 355.297C35.6571 356.894 34.3626 358.189 32.7657 358.189C31.1688 358.189 29.8743 356.894 29.8743 355.297C29.8743 353.7 31.1688 352.406 32.7657 352.406C34.3626 352.406 35.6571 353.7 35.6571 355.297Z" fill="#767EA7"/>
<path d="M63.1257 355.297C63.1257 356.894 61.8312 358.189 60.2343 358.189C58.6374 358.189 57.3429 356.894 57.3429 355.297C57.3429 353.7 58.6374 352.406 60.2343 352.406C61.8312 352.406 63.1257 353.7 63.1257 355.297Z" fill="#767EA7"/>
<path d="M90.5943 355.297C90.5943 356.894 89.2997 358.189 87.7029 358.189C86.106 358.189 84.8114 356.894 84.8114 355.297C84.8114 353.7 86.106 352.406 87.7029 352.406C89.2997 352.406 90.5943 353.7 90.5943 355.297Z" fill="#767EA7"/>
<path d="M118.063 355.297C118.063 356.894 116.768 358.189 115.171 358.189C113.575 358.189 112.28 356.894 112.28 355.297C112.28 353.7 113.575 352.406 115.171 352.406C116.768 352.406 118.063 353.7 118.063 355.297Z" fill="#767EA7"/>
<path d="M145.531 355.297C145.531 356.894 144.237 358.189 142.64 358.189C141.043 358.189 139.749 356.894 139.749 355.297C139.749 353.7 141.043 352.406 142.64 352.406C144.237 352.406 145.531 353.7 145.531 355.297Z" fill="#767EA7"/>
<path d="M173 355.297C173 356.894 171.705 358.189 170.109 358.189C168.512 358.189 167.217 356.894 167.217 355.297C167.217 353.7 168.512 352.406 170.109 352.406C171.705 352.406 173 353.7 173 355.297Z" fill="#767EA7"/>
<path d="M-74.2171 382.766C-74.2171 384.363 -75.5117 385.657 -77.1086 385.657C-78.7055 385.657 -80 384.363 -80 382.766C-80 381.169 -78.7055 379.874 -77.1086 379.874C-75.5117 379.874 -74.2171 381.169 -74.2171 382.766Z" fill="#767EA7"/>
<path d="M-46.7486 382.766C-46.7486 384.363 -48.0431 385.657 -49.64 385.657C-51.2369 385.657 -52.5314 384.363 -52.5314 382.766C-52.5314 381.169 -51.2369 379.874 -49.64 379.874C-48.0431 379.874 -46.7486 381.169 -46.7486 382.766Z" fill="#767EA7"/>
<path d="M-19.28 382.766C-19.28 384.363 -20.5745 385.657 -22.1714 385.657C-23.7683 385.657 -25.0629 384.363 -25.0629 382.766C-25.0629 381.169 -23.7683 379.874 -22.1714 379.874C-20.5745 379.874 -19.28 381.169 -19.28 382.766Z" fill="#767EA7"/>
<path d="M8.18857 382.766C8.18857 384.363 6.89403 385.657 5.29714 385.657C3.70025 385.657 2.40571 384.363 2.40571 382.766C2.40571 381.169 3.70025 379.874 5.29714 379.874C6.89403 379.874 8.18857 381.169 8.18857 382.766Z" fill="#767EA7"/>
<path d="M35.6571 382.766C35.6571 384.363 34.3626 385.657 32.7657 385.657C31.1688 385.657 29.8743 384.363 29.8743 382.766C29.8743 381.169 31.1688 379.874 32.7657 379.874C34.3626 379.874 35.6571 381.169 35.6571 382.766Z" fill="#767EA7"/>
<path d="M63.1257 382.766C63.1257 384.363 61.8312 385.657 60.2343 385.657C58.6374 385.657 57.3429 384.363 57.3429 382.766C57.3429 381.169 58.6374 379.874 60.2343 379.874C61.8312 379.874 63.1257 381.169 63.1257 382.766Z" fill="#767EA7"/>
<path d="M90.5943 382.766C90.5943 384.363 89.2997 385.657 87.7029 385.657C86.106 385.657 84.8114 384.363 84.8114 382.766C84.8114 381.169 86.106 379.874 87.7029 379.874C89.2997 379.874 90.5943 381.169 90.5943 382.766Z" fill="#767EA7"/>
<path d="M118.063 382.766C118.063 384.363 116.768 385.657 115.171 385.657C113.575 385.657 112.28 384.363 112.28 382.766C112.28 381.169 113.575 379.874 115.171 379.874C116.768 379.874 118.063 381.169 118.063 382.766Z" fill="#767EA7"/>
<path d="M145.531 382.766C145.531 384.363 144.237 385.657 142.64 385.657C141.043 385.657 139.749 384.363 139.749 382.766C139.749 381.169 141.043 379.874 142.64 379.874C144.237 379.874 145.531 381.169 145.531 382.766Z" fill="#767EA7"/>
<path d="M173 382.766C173 384.363 171.705 385.657 170.109 385.657C168.512 385.657 167.217 384.363 167.217 382.766C167.217 381.169 168.512 379.874 170.109 379.874C171.705 379.874 173 381.169 173 382.766Z" fill="#767EA7"/>
<path d="M-74.2171 410.234C-74.2171 411.831 -75.5117 413.126 -77.1086 413.126C-78.7055 413.126 -80 411.831 -80 410.234C-80 408.637 -78.7055 407.343 -77.1086 407.343C-75.5117 407.343 -74.2171 408.637 -74.2171 410.234Z" fill="#767EA7"/>
<path d="M-46.7486 410.234C-46.7486 411.831 -48.0431 413.126 -49.64 413.126C-51.2369 413.126 -52.5314 411.831 -52.5314 410.234C-52.5314 408.637 -51.2369 407.343 -49.64 407.343C-48.0431 407.343 -46.7486 408.637 -46.7486 410.234Z" fill="#767EA7"/>
<path d="M-19.28 410.234C-19.28 411.831 -20.5745 413.126 -22.1714 413.126C-23.7683 413.126 -25.0629 411.831 -25.0629 410.234C-25.0629 408.637 -23.7683 407.343 -22.1714 407.343C-20.5745 407.343 -19.28 408.637 -19.28 410.234Z" fill="#767EA7"/>
<path d="M8.18857 410.234C8.18857 411.831 6.89403 413.126 5.29714 413.126C3.70025 413.126 2.40571 411.831 2.40571 410.234C2.40571 408.637 3.70025 407.343 5.29714 407.343C6.89403 407.343 8.18857 408.637 8.18857 410.234Z" fill="#767EA7"/>
<path d="M35.6571 410.234C35.6571 411.831 34.3626 413.126 32.7657 413.126C31.1688 413.126 29.8743 411.831 29.8743 410.234C29.8743 408.637 31.1688 407.343 32.7657 407.343C34.3626 407.343 35.6571 408.637 35.6571 410.234Z" fill="#767EA7"/>
<path d="M63.1257 410.234C63.1257 411.831 61.8312 413.126 60.2343 413.126C58.6374 413.126 57.3429 411.831 57.3429 410.234C57.3429 408.637 58.6374 407.343 60.2343 407.343C61.8312 407.343 63.1257 408.637 63.1257 410.234Z" fill="#767EA7"/>
<path d="M90.5943 410.234C90.5943 411.831 89.2997 413.126 87.7029 413.126C86.106 413.126 84.8114 411.831 84.8114 410.234C84.8114 408.637 86.106 407.343 87.7029 407.343C89.2997 407.343 90.5943 408.637 90.5943 410.234Z" fill="#767EA7"/>
<path d="M118.063 410.234C118.063 411.831 116.768 413.126 115.171 413.126C113.575 413.126 112.28 411.831 112.28 410.234C112.28 408.637 113.575 407.343 115.171 407.343C116.768 407.343 118.063 408.637 118.063 410.234Z" fill="#767EA7"/>
<path d="M145.531 410.234C145.531 411.831 144.237 413.126 142.64 413.126C141.043 413.126 139.749 411.831 139.749 410.234C139.749 408.637 141.043 407.343 142.64 407.343C144.237 407.343 145.531 408.637 145.531 410.234Z" fill="#767EA7"/>
<path d="M173 410.234C173 411.831 171.705 413.126 170.109 413.126C168.512 413.126 167.217 411.831 167.217 410.234C167.217 408.637 168.512 407.343 170.109 407.343C171.705 407.343 173 408.637 173 410.234Z" fill="#767EA7"/>
<path d="M-74.2171 437.703C-74.2171 439.3 -75.5117 440.594 -77.1086 440.594C-78.7055 440.594 -80 439.3 -80 437.703C-80 436.106 -78.7055 434.811 -77.1086 434.811C-75.5117 434.811 -74.2171 436.106 -74.2171 437.703Z" fill="#767EA7"/>
<path d="M-46.7486 437.703C-46.7486 439.3 -48.0431 440.594 -49.64 440.594C-51.2369 440.594 -52.5314 439.3 -52.5314 437.703C-52.5314 436.106 -51.2369 434.811 -49.64 434.811C-48.0431 434.811 -46.7486 436.106 -46.7486 437.703Z" fill="#767EA7"/>
<path d="M-19.28 437.703C-19.28 439.3 -20.5745 440.594 -22.1714 440.594C-23.7683 440.594 -25.0629 439.3 -25.0629 437.703C-25.0629 436.106 -23.7683 434.811 -22.1714 434.811C-20.5745 434.811 -19.28 436.106 -19.28 437.703Z" fill="#767EA7"/>
<path d="M8.18857 437.703C8.18857 439.3 6.89403 440.594 5.29714 440.594C3.70025 440.594 2.40571 439.3 2.40571 437.703C2.40571 436.106 3.70025 434.811 5.29714 434.811C6.89403 434.811 8.18857 436.106 8.18857 437.703Z" fill="#767EA7"/>
<path d="M35.6571 437.703C35.6571 439.3 34.3626 440.594 32.7657 440.594C31.1688 440.594 29.8743 439.3 29.8743 437.703C29.8743 436.106 31.1688 434.811 32.7657 434.811C34.3626 434.811 35.6571 436.106 35.6571 437.703Z" fill="#767EA7"/>
<path d="M63.1257 437.703C63.1257 439.3 61.8312 440.594 60.2343 440.594C58.6374 440.594 57.3429 439.3 57.3429 437.703C57.3429 436.106 58.6374 434.811 60.2343 434.811C61.8312 434.811 63.1257 436.106 63.1257 437.703Z" fill="#767EA7"/>
<path d="M90.5943 437.703C90.5943 439.3 89.2997 440.594 87.7029 440.594C86.106 440.594 84.8114 439.3 84.8114 437.703C84.8114 436.106 86.106 434.811 87.7029 434.811C89.2997 434.811 90.5943 436.106 90.5943 437.703Z" fill="#767EA7"/>
<path d="M118.063 437.703C118.063 439.3 116.768 440.594 115.171 440.594C113.575 440.594 112.28 439.3 112.28 437.703C112.28 436.106 113.575 434.811 115.171 434.811C116.768 434.811 118.063 436.106 118.063 437.703Z" fill="#767EA7"/>
<path d="M145.531 437.703C145.531 439.3 144.237 440.594 142.64 440.594C141.043 440.594 139.749 439.3 139.749 437.703C139.749 436.106 141.043 434.811 142.64 434.811C144.237 434.811 145.531 436.106 145.531 437.703Z" fill="#767EA7"/>
<path d="M173 437.703C173 439.3 171.705 440.594 170.109 440.594C168.512 440.594 167.217 439.3 167.217 437.703C167.217 436.106 168.512 434.811 170.109 434.811C171.705 434.811 173 436.106 173 437.703Z" fill="#767EA7"/>
<path d="M-74.2171 465.171C-74.2171 466.768 -75.5117 468.063 -77.1086 468.063C-78.7055 468.063 -80 466.768 -80 465.171C-80 463.575 -78.7055 462.28 -77.1086 462.28C-75.5117 462.28 -74.2171 463.575 -74.2171 465.171Z" fill="#767EA7"/>
<path d="M-46.7486 465.171C-46.7486 466.768 -48.0431 468.063 -49.64 468.063C-51.2369 468.063 -52.5314 466.768 -52.5314 465.171C-52.5314 463.575 -51.2369 462.28 -49.64 462.28C-48.0431 462.28 -46.7486 463.575 -46.7486 465.171Z" fill="#767EA7"/>
<path d="M-19.28 465.171C-19.28 466.768 -20.5745 468.063 -22.1714 468.063C-23.7683 468.063 -25.0629 466.768 -25.0629 465.171C-25.0629 463.575 -23.7683 462.28 -22.1714 462.28C-20.5745 462.28 -19.28 463.575 -19.28 465.171Z" fill="#767EA7"/>
<path d="M8.18857 465.171C8.18857 466.768 6.89403 468.063 5.29714 468.063C3.70025 468.063 2.40571 466.768 2.40571 465.171C2.40571 463.575 3.70025 462.28 5.29714 462.28C6.89403 462.28 8.18857 463.575 8.18857 465.171Z" fill="#767EA7"/>
<path d="M35.6571 465.171C35.6571 466.768 34.3626 468.063 32.7657 468.063C31.1688 468.063 29.8743 466.768 29.8743 465.171C29.8743 463.575 31.1688 462.28 32.7657 462.28C34.3626 462.28 35.6571 463.575 35.6571 465.171Z" fill="#767EA7"/>
<path d="M63.1257 465.171C63.1257 466.768 61.8312 468.063 60.2343 468.063C58.6374 468.063 57.3429 466.768 57.3429 465.171C57.3429 463.575 58.6374 462.28 60.2343 462.28C61.8312 462.28 63.1257 463.575 63.1257 465.171Z" fill="#767EA7"/>
<path d="M90.5943 465.171C90.5943 466.768 89.2997 468.063 87.7029 468.063C86.106 468.063 84.8114 466.768 84.8114 465.171C84.8114 463.575 86.106 462.28 87.7029 462.28C89.2997 462.28 90.5943 463.575 90.5943 465.171Z" fill="#767EA7"/>
<path d="M118.063 465.171C118.063 466.768 116.768 468.063 115.171 468.063C113.575 468.063 112.28 466.768 112.28 465.171C112.28 463.575 113.575 462.28 115.171 462.28C116.768 462.28 118.063 463.575 118.063 465.171Z" fill="#767EA7"/>
<path d="M145.531 465.171C145.531 466.768 144.237 468.063 142.64 468.063C141.043 468.063 139.749 466.768 139.749 465.171C139.749 463.575 141.043 462.28 142.64 462.28C144.237 462.28 145.531 463.575 145.531 465.171Z" fill="#767EA7"/>
<path d="M173 465.171C173 466.768 171.705 468.063 170.109 468.063C168.512 468.063 167.217 466.768 167.217 465.171C167.217 463.575 168.512 462.28 170.109 462.28C171.705 462.28 173 463.575 173 465.171Z" fill="#767EA7"/>
<path d="M-74.2171 492.64C-74.2171 494.237 -75.5117 495.531 -77.1086 495.531C-78.7055 495.531 -80 494.237 -80 492.64C-80 491.043 -78.7055 489.749 -77.1086 489.749C-75.5117 489.749 -74.2171 491.043 -74.2171 492.64Z" fill="#767EA7"/>
<path d="M-46.7486 492.64C-46.7486 494.237 -48.0431 495.531 -49.64 495.531C-51.2369 495.531 -52.5314 494.237 -52.5314 492.64C-52.5314 491.043 -51.2369 489.749 -49.64 489.749C-48.0431 489.749 -46.7486 491.043 -46.7486 492.64Z" fill="#767EA7"/>
<path d="M-19.28 492.64C-19.28 494.237 -20.5745 495.531 -22.1714 495.531C-23.7683 495.531 -25.0629 494.237 -25.0629 492.64C-25.0629 491.043 -23.7683 489.749 -22.1714 489.749C-20.5745 489.749 -19.28 491.043 -19.28 492.64Z" fill="#767EA7"/>
<path d="M8.18857 492.64C8.18857 494.237 6.89403 495.531 5.29714 495.531C3.70025 495.531 2.40571 494.237 2.40571 492.64C2.40571 491.043 3.70025 489.749 5.29714 489.749C6.89403 489.749 8.18857 491.043 8.18857 492.64Z" fill="#767EA7"/>
<path d="M35.6571 492.64C35.6571 494.237 34.3626 495.531 32.7657 495.531C31.1688 495.531 29.8743 494.237 29.8743 492.64C29.8743 491.043 31.1688 489.749 32.7657 489.749C34.3626 489.749 35.6571 491.043 35.6571 492.64Z" fill="#767EA7"/>
<path d="M63.1257 492.64C63.1257 494.237 61.8312 495.531 60.2343 495.531C58.6374 495.531 57.3429 494.237 57.3429 492.64C57.3429 491.043 58.6374 489.749 60.2343 489.749C61.8312 489.749 63.1257 491.043 63.1257 492.64Z" fill="#767EA7"/>
<path d="M90.5943 492.64C90.5943 494.237 89.2997 495.531 87.7029 495.531C86.106 495.531 84.8114 494.237 84.8114 492.64C84.8114 491.043 86.106 489.749 87.7029 489.749C89.2997 489.749 90.5943 491.043 90.5943 492.64Z" fill="#767EA7"/>
<path d="M118.063 492.64C118.063 494.237 116.768 495.531 115.171 495.531C113.575 495.531 112.28 494.237 112.28 492.64C112.28 491.043 113.575 489.749 115.171 489.749C116.768 489.749 118.063 491.043 118.063 492.64Z" fill="#767EA7"/>
<path d="M145.531 492.64C145.531 494.237 144.237 495.531 142.64 495.531C141.043 495.531 139.749 494.237 139.749 492.64C139.749 491.043 141.043 489.749 142.64 489.749C144.237 489.749 145.531 491.043 145.531 492.64Z" fill="#767EA7"/>
<path d="M173 492.64C173 494.237 171.705 495.531 170.109 495.531C168.512 495.531 167.217 494.237 167.217 492.64C167.217 491.043 168.512 489.749 170.109 489.749C171.705 489.749 173 491.043 173 492.64Z" fill="#767EA7"/>
<path d="M-74.2171 520.109C-74.2171 521.705 -75.5117 523 -77.1086 523C-78.7055 523 -80 521.705 -80 520.109C-80 518.512 -78.7055 517.217 -77.1086 517.217C-75.5117 517.217 -74.2171 518.512 -74.2171 520.109Z" fill="#767EA7"/>
<path d="M-46.7486 520.109C-46.7486 521.705 -48.0431 523 -49.64 523C-51.2369 523 -52.5314 521.705 -52.5314 520.109C-52.5314 518.512 -51.2369 517.217 -49.64 517.217C-48.0431 517.217 -46.7486 518.512 -46.7486 520.109Z" fill="#767EA7"/>
<path d="M-19.28 520.109C-19.28 521.705 -20.5745 523 -22.1714 523C-23.7683 523 -25.0629 521.705 -25.0629 520.109C-25.0629 518.512 -23.7683 517.217 -22.1714 517.217C-20.5745 517.217 -19.28 518.512 -19.28 520.109Z" fill="#767EA7"/>
<path d="M8.18857 520.109C8.18857 521.705 6.89403 523 5.29714 523C3.70025 523 2.40571 521.705 2.40571 520.109C2.40571 518.512 3.70025 517.217 5.29714 517.217C6.89403 517.217 8.18857 518.512 8.18857 520.109Z" fill="#767EA7"/>
<path d="M35.6571 520.109C35.6571 521.705 34.3626 523 32.7657 523C31.1688 523 29.8743 521.705 29.8743 520.109C29.8743 518.512 31.1688 517.217 32.7657 517.217C34.3626 517.217 35.6571 518.512 35.6571 520.109Z" fill="#767EA7"/>
<path d="M63.1257 520.109C63.1257 521.705 61.8312 523 60.2343 523C58.6374 523 57.3429 521.705 57.3429 520.109C57.3429 518.512 58.6374 517.217 60.2343 517.217C61.8312 517.217 63.1257 518.512 63.1257 520.109Z" fill="#767EA7"/>
<path d="M90.5943 520.109C90.5943 521.705 89.2997 523 87.7029 523C86.106 523 84.8114 521.705 84.8114 520.109C84.8114 518.512 86.106 517.217 87.7029 517.217C89.2997 517.217 90.5943 518.512 90.5943 520.109Z" fill="#767EA7"/>
<path d="M118.063 520.109C118.063 521.705 116.768 523 115.171 523C113.575 523 112.28 521.705 112.28 520.109C112.28 518.512 113.575 517.217 115.171 517.217C116.768 517.217 118.063 518.512 118.063 520.109Z" fill="#767EA7"/>
<path d="M145.531 520.109C145.531 521.705 144.237 523 142.64 523C141.043 523 139.749 521.705 139.749 520.109C139.749 518.512 141.043 517.217 142.64 517.217C144.237 517.217 145.531 518.512 145.531 520.109Z" fill="#767EA7"/>
<path d="M173 520.109C173 521.705 171.705 523 170.109 523C168.512 523 167.217 521.705 167.217 520.109C167.217 518.512 168.512 517.217 170.109 517.217C171.705 517.217 173 518.512 173 520.109Z" fill="#767EA7"/>
</g>
<g opacity="0.4" filter="url(#filter1_d)">
<rect x="1258" y="370" width="22" height="22" rx="4" fill="#F2F2F2"/>
<rect x="1258.5" y="370.5" width="21" height="21" rx="3.5" stroke="#767EA7"/>
</g>
<g opacity="0.4" filter="url(#filter2_d)">
<rect x="260" y="260" width="36" height="22" rx="4" fill="#F2F2F2"/>
<rect x="260.5" y="260.5" width="35" height="21" rx="3.5" stroke="#767EA7"/>
</g>
<g opacity="0.4" filter="url(#filter3_d)">
<rect x="260" y="300" width="78" height="22" rx="4" fill="#F2F2F2"/>
<rect x="260.5" y="300.5" width="77" height="21" rx="3.5" stroke="#767EA7"/>
</g>
<g opacity="0.4">
<path d="M896.894 780C944.884 780 983.788 740.943 983.788 692.764C983.788 644.585 944.884 605.528 896.894 605.528C848.904 605.528 810 644.585 810 692.764C810 740.943 848.904 780 896.894 780Z" stroke="#173BEF"/>
<path fill-rule="evenodd" clip-rule="evenodd" d="M1003 530L1110 693.75H895.994L1003 530Z" stroke="#ADBBFF"/>
</g>
</g>
<defs>
<filter id="filter0_d" x="165" y="962" width="255" height="140" filterUnits="userSpaceOnUse" color-interpolation-filters="sRGB">
<feFlood flood-opacity="0" result="BackgroundImageFix"/>
<feColorMatrix in="SourceAlpha" type="matrix" values="0 0 0 0 0 0 0 0 0 0 0 0 0 0 0 0 0 0 127 0"/>
<feOffset dy="10"/>
<feGaussianBlur stdDeviation="7.5"/>
<feColorMatrix type="matrix" values="0 0 0 0 0.741176 0 0 0 0 0.741176 0 0 0 0 0.741176 0 0 0 0.15 0"/>
<feBlend mode="normal" in2="BackgroundImageFix" result="effect1_dropShadow"/>
<feBlend mode="normal" in="SourceGraphic" in2="effect1_dropShadow" result="shape"/>
</filter>
<filter id="filter1_d" x="1243" y="365" width="52" height="52" filterUnits="userSpaceOnUse" color-interpolation-filters="sRGB">
<feFlood flood-opacity="0" result="BackgroundImageFix"/>
<feColorMatrix in="SourceAlpha" type="matrix" values="0 0 0 0 0 0 0 0 0 0 0 0 0 0 0 0 0 0 127 0"/>
<feOffset dy="10"/>
<feGaussianBlur stdDeviation="7.5"/>
<feColorMatrix type="matrix" values="0 0 0 0 0.741176 0 0 0 0 0.741176 0 0 0 0 0.741176 0 0 0 0.15 0"/>
<feBlend mode="normal" in2="BackgroundImageFix" result="effect1_dropShadow"/>
<feBlend mode="normal" in="SourceGraphic" in2="effect1_dropShadow" result="shape"/>
</filter>
<filter id="filter2_d" x="245" y="255" width="66" height="52" filterUnits="userSpaceOnUse" color-interpolation-filters="sRGB">
<feFlood flood-opacity="0" result="BackgroundImageFix"/>
<feColorMatrix in="SourceAlpha" type="matrix" values="0 0 0 0 0 0 0 0 0 0 0 0 0 0 0 0 0 0 127 0"/>
<feOffset dy="10"/>
<feGaussianBlur stdDeviation="7.5"/>
<feColorMatrix type="matrix" values="0 0 0 0 0.741176 0 0 0 0 0.741176 0 0 0 0 0.741176 0 0 0 0.15 0"/>
<feBlend mode="normal" in2="BackgroundImageFix" result="effect1_dropShadow"/>
<feBlend mode="normal" in="SourceGraphic" in2="effect1_dropShadow" result="shape"/>
</filter>
<filter id="filter3_d" x="245" y="295" width="108" height="52" filterUnits="userSpaceOnUse" color-interpolation-filters="sRGB">
<feFlood flood-opacity="0" result="BackgroundImageFix"/>
<feColorMatrix in="SourceAlpha" type="matrix" values="0 0 0 0 0 0 0 0 0 0 0 0 0 0 0 0 0 0 127 0"/>
<feOffset dy="10"/>
<feGaussianBlur stdDeviation="7.5"/>
<feColorMatrix type="matrix" values="0 0 0 0 0.741176 0 0 0 0 0.741176 0 0 0 0 0.741176 0 0 0 0.15 0"/>
<feBlend mode="normal" in2="BackgroundImageFix" result="effect1_dropShadow"/>
<feBlend mode="normal" in="SourceGraphic" in2="effect1_dropShadow" result="shape"/>
</filter>
<clipPath id="clip0">
<rect width="1920" height="1054" fill="white"/>
</clipPath>
</defs>
</svg>
