<svg width="7" height="10" viewBox="0 0 7 10" fill="none" xmlns="http://www.w3.org/2000/svg">
<path d="M0 7.09804C0 6.29918 0.338416 5.87743 0.997206 5.69608C0.892923 5.43464 0.840782 5.24183 0.840782 5.11765C0.840782 4.65794 1.42007 4.08824 1.85754 4.08824C1.96834 4.08824 2.0987 4.11765 2.2486 4.17647C1.93575 3.28105 1.71089 2.60131 1.57402 2.13726C1.39532 1.53245 1.15611 0.745973 1.57402 0.27451C1.73696 0.0915042 1.95531 0 2.22905 0C2.69832 0 3.2621 0.964052 3.92039 2.89216L4.08659 3.37255C4.33596 2.74738 5.1012 0.186273 5.96369 0.186273C6.22439 0.186273 6.4297 0.274508 6.57961 0.450979C7.00103 0.926404 6.75268 1.63042 6.57961 2.2451C6.44274 2.72222 6.22765 3.37581 5.93436 4.20588C6.30586 4.29738 6.57309 4.47385 6.73603 4.73529C6.91201 5.01634 7 5.45098 7 6.03921C7 7.20261 6.65456 8.15359 5.96369 8.89216C5.25977 9.63072 4.36685 10 3.28491 10C1.94874 10 0.775238 9.21297 0.254192 8.14706C0.0847313 7.79412 0 7.44444 0 7.09804ZM0.635476 7.04902C0.635476 7.45855 0.908099 7.95286 1.15363 8.28431C1.72874 9.02983 2.48077 9.35294 3.36313 9.35294C4.20391 9.35294 4.91108 9.03595 5.48463 8.40196C6.05167 7.77451 6.33519 6.98039 6.33519 6.01961C6.33519 5.69102 6.33431 5.19952 6.09078 4.99019C5.9148 4.83987 5.56937 4.70915 5.05447 4.59804C4.53957 4.48039 3.99208 4.42157 3.41201 4.42157C3.18783 4.42157 3.06983 4.45551 3.06983 4.67647C3.06983 4.94444 3.21974 5.13399 3.51955 5.2451C3.84544 5.38235 4.38315 5.45098 5.13268 5.45098H5.40642C5.55965 5.45098 5.69571 5.53125 5.73883 5.86274C5.45778 6.14458 4.99483 6.18241 4.68296 6.42157C4.42225 6.61111 4.21369 6.8366 4.05726 7.09804C3.90736 7.35294 3.83241 7.59477 3.83241 7.82353C3.83241 7.96078 3.86499 8.12745 3.93017 8.32353C4.00187 8.53921 4.0377 8.67974 4.0377 8.7451C4.03598 8.80577 4.01816 8.84804 3.94485 8.87745C3.64178 8.94608 3.50326 8.79738 3.37291 8.54902C3.26211 8.33987 3.20019 8.07189 3.18716 7.7451C3.14769 7.75829 3.00479 7.7549 2.9623 7.7549C2.96881 7.78758 2.97207 7.8268 2.97207 7.87255C2.97207 8.06863 2.89712 8.23529 2.74721 8.37255C2.59731 8.5098 2.42133 8.57843 2.21928 8.57843C1.91295 8.57843 1.60336 8.43137 1.29051 8.13725C0.977661 7.8366 0.821236 7.54248 0.821236 7.2549C0.821236 7.08426 0.89403 6.99563 1.00699 6.88235C1.16993 7.08497 1.28073 7.22549 1.33939 7.30392C1.61314 7.68954 1.86081 7.88235 2.08241 7.88235C2.20684 7.88235 2.30727 7.78991 2.30727 7.72549C2.30727 7.6732 2.26816 7.57843 2.18995 7.44118C2.07559 7.22615 1.62443 6.6264 1.38827 6.43138C1.29051 6.33987 1.21881 6.29412 1.17319 6.29412C0.953194 6.29412 0.635476 6.57727 0.635476 7.04902ZM1.51536 5.17647C1.51536 5.26144 1.5675 5.4085 1.67179 5.61765C1.86401 5.9894 2.31594 6.58923 2.65922 6.89216C2.81564 7.02288 2.93296 7.08824 3.01117 7.08824C3.11149 7.08824 3.21648 6.9686 3.21648 6.86275C3.21648 6.78432 3.15782 6.59478 3.0405 6.29412C2.87902 5.90085 2.53555 5.18104 2.2095 4.91177C2.10521 4.81373 2.00419 4.76471 1.90642 4.76471C1.76694 4.76471 1.51536 5.02098 1.51536 5.17647ZM1.95531 0.941177C1.95531 1.1634 2.03352 1.51307 2.18994 1.9902C2.33333 2.45425 2.54842 3.07516 2.83519 3.85294C2.98282 3.76412 3.34029 3.8063 3.52933 3.82353L2.85475 1.86274C2.67225 1.33987 2.52886 1 2.42458 0.843138C2.33985 0.705883 2.25512 0.637254 2.17039 0.637254C2.0286 0.637254 1.95531 0.797825 1.95531 0.941177ZM3.57821 5.94118C3.63687 6.0915 3.69879 6.2549 3.76396 6.43137C3.89432 6.28105 4.02467 6.15686 4.15502 6.05882C3.95616 6.01894 3.79609 6.01401 3.57821 5.94118ZM4.60475 3.94118L5.25977 4.05883C5.55307 3.24837 5.77793 2.59804 5.93435 2.10784C6.02448 1.81502 6.28559 1.14754 6.11033 0.921569C6.05108 0.8176 5.86852 0.78651 5.66061 1.11765C5.53677 1.30719 5.39664 1.63726 5.24022 2.10784L4.60475 3.94118Z" class="social_change_color"/>
</svg>
