<svg width="12" height="9" viewBox="0 0 12 9" fill="none" xmlns="http://www.w3.org/2000/svg">
<path fill-rule="evenodd" clip-rule="evenodd" d="M10.8369 1.21296H7.8301V0.355598H10.8371V1.21296H10.8369ZM5.82843 4.72875C6.02244 5.07371 6.11939 5.49256 6.11939 5.98431C6.11939 6.49283 6.01008 6.94903 5.7877 7.35199C5.64623 7.61865 5.47057 7.8439 5.25952 8.02524C5.02182 8.23495 4.7404 8.37875 4.41688 8.45559C4.09234 8.53255 3.74106 8.57143 3.36267 8.57143H0V0H3.60594C4.51487 0.0169744 5.15925 0.319279 5.53976 0.912966C5.76809 1.27708 5.88122 1.714 5.88122 2.22185C5.88122 2.74588 5.76672 3.16518 5.53616 3.48375C5.40791 3.66237 5.21845 3.82484 4.96764 3.9715C5.34754 4.13115 5.63579 4.38256 5.82843 4.72875ZM1.72198 3.37928H3.30196C3.62665 3.37928 3.88912 3.30844 4.09128 3.16681C4.29329 3.02541 4.39409 2.77406 4.39409 2.41318C4.39409 2.01448 4.26062 1.74984 3.99304 1.62246C3.76304 1.53397 3.46877 1.4884 3.11169 1.4884H1.72198V3.37928ZM4.54622 5.86187C4.54622 5.41662 4.3877 5.10881 4.0713 4.94365C3.89436 4.84978 3.64472 4.8018 3.32464 4.79837H1.72198V7.08261H3.29984C3.624 7.08261 3.87489 7.0339 4.05596 6.93228C4.38248 6.74543 4.54622 6.38983 4.54622 5.86187ZM11.9525 4.46744C11.9888 4.74787 12.0052 5.15474 11.9985 5.68655H8.10446C8.12594 6.30358 8.3115 6.73509 8.66342 6.98202C8.87565 7.13687 9.13296 7.21248 9.43427 7.21248C9.75198 7.21248 10.0109 7.12028 10.2103 6.93074C10.3189 6.83027 10.4147 6.68846 10.4975 6.50952H11.9248C11.8875 6.87396 11.7156 7.24358 11.4068 7.6192C10.9283 8.21622 10.2572 8.51557 9.39532 8.51557C8.68334 8.51557 8.05586 8.2631 7.51122 7.75999C6.96839 7.25511 6.69576 6.43631 6.69576 5.30046C6.69576 4.23533 6.94052 3.42008 7.43168 2.85263C7.92465 2.28411 8.56086 2.00115 9.34507 2.00115C9.8099 2.00115 10.2289 2.09653 10.6027 2.28828C10.9754 2.48022 11.2834 2.7823 11.5259 3.19746C11.7454 3.56309 11.8866 3.98584 11.9525 4.46744ZM10.5475 4.62738C10.5214 4.20071 10.3973 3.87778 10.1738 3.65708C9.95224 3.43578 9.6754 3.32468 9.34507 3.32468C8.98557 3.32468 8.70797 3.44343 8.51073 3.67685C8.31214 3.90978 8.18858 4.22646 8.13794 4.62741H10.5475V4.62738Z" class="social_change_color"/>
</svg>
