<svg width="11" height="10" viewBox="0 0 11 10" fill="none" xmlns="http://www.w3.org/2000/svg">
<path d="M3.16949 7.62623L5.38158 5.7827L2.18628 3.80981L0 5.56283L3.16949 7.62623Z" class="social_change_color"/>
<path d="M5.38159 5.78255L7.6002 7.62607L10.7632 5.56267L8.57695 3.80981L5.38159 5.78255Z" class="social_change_color"/>
<path d="M5.39455 6.18372V6.17072L5.38812 6.17722L5.38159 6.17072V6.18372L3.1695 8.02074L2.21863 7.3998V8.09827L5.38159 9.99359V10L5.38812 9.99359L5.39455 10V9.99359L8.56399 8.09827V7.3998L7.6131 8.02074L5.39455 6.18372Z" class="social_change_color"/>
<path d="M0 2.06335L2.18628 3.80983L5.38158 1.84348L3.16949 0L0 2.06335Z" class="social_change_color"/>
<path d="M7.6002 0L5.38159 1.84348L8.57695 3.80983L10.7632 2.06335L7.6002 0Z" class="social_change_color"/>
</svg>
