<svg width="14" height="10" viewBox="0 0 14 10" fill="none" xmlns="http://www.w3.org/2000/svg">
<path d="M11.5362 0H1.60685C0.7205 0 0 0.7205 0 1.60685V8.39315C0 9.2795 0.7205 10 1.60685 10H11.5334C12.4198 10 13.1403 9.2795 13.1403 8.39315V1.60957C13.143 0.723219 12.4225 0 11.5362 0ZM12.4089 8.39315C12.4089 8.87439 12.0174 9.26591 11.5362 9.26591H1.60685C1.12561 9.26591 0.734095 8.87439 0.734095 8.39315V1.60957C0.734095 1.12833 1.12561 0.736813 1.60685 0.736813H11.5334C12.0147 0.736813 12.4062 1.12833 12.4062 1.60957V8.39315H12.4089Z" class="social_change_color"/>
<path d="M8.28709 4.9157L11.5008 2.0337C11.6503 1.89775 11.6639 1.66665 11.528 1.51439C11.392 1.36485 11.1609 1.35126 11.0087 1.4872L6.57692 5.46491L5.71232 4.69275C5.7096 4.69003 5.70688 4.68731 5.70688 4.68459C5.68785 4.66556 5.66882 4.64925 5.64707 4.63293L2.12885 1.48448C1.97659 1.34854 1.74549 1.36213 1.60954 1.51439C1.4736 1.66665 1.4872 1.89775 1.63945 2.0337L4.89122 4.94017L1.65305 7.97171C1.50623 8.11037 1.49807 8.34147 1.63673 8.49101C1.71014 8.56714 1.80802 8.60792 1.9059 8.60792C1.99562 8.60792 2.08535 8.57529 2.15604 8.51004L5.44315 5.435L6.33494 6.23163C6.40563 6.29416 6.49263 6.32407 6.57964 6.32407C6.66664 6.32407 6.75636 6.29144 6.82434 6.22891L7.74059 5.40781L11.0087 8.51276C11.0794 8.58073 11.1718 8.61336 11.2615 8.61336C11.3594 8.61336 11.4546 8.57529 11.528 8.49917C11.6666 8.35235 11.6612 8.11852 11.5144 7.97986L8.28709 4.9157Z" class="social_change_color"/>
</svg>
