<svg width="8" height="10" viewBox="0 0 8 10" fill="none" xmlns="http://www.w3.org/2000/svg">
<path fill-rule="evenodd" clip-rule="evenodd" d="M6.81204 0.754051C6.37481 0.226247 5.58474 0 4.57369 0H1.63995C1.43314 0 1.2573 0.159368 1.22485 0.375303L0.00314822 8.58205C-0.021044 8.74392 0.0972715 8.89048 0.25216 8.89048H2.06331L2.51824 5.83429L2.50408 5.92991C2.53653 5.71397 2.71119 5.55461 2.91771 5.55461H3.77829C5.46937 5.55461 6.79315 4.82711 7.17993 2.72277C7.19144 2.66027 7.21002 2.54059 7.21002 2.54059C7.31977 1.76185 7.20914 1.23342 6.81204 0.754051ZM7.6685 2.93917C7.24779 5.01102 5.9066 6.10756 3.77829 6.10756H3.00651L2.43092 10H3.6827C3.86355 10 4.01726 9.86063 4.04558 9.67157L4.06034 9.58907L4.34828 7.65723L4.36687 7.55066C4.3949 7.3616 4.5489 7.22223 4.72946 7.22223H4.9581C6.43706 7.22223 7.59532 6.58567 7.93372 4.74508C8.06943 4.00634 8.00424 3.38698 7.6685 2.93917Z" class="social_change_color"/>
</svg>
