<svg width="10" height="10" viewBox="0 0 10 10" fill="none" xmlns="http://www.w3.org/2000/svg">
<path fill-rule="evenodd" clip-rule="evenodd" d="M5.66657 6H4.25V7.5H3.24999V2.5H5.66657C6.63313 2.5 7.41656 3.28344 7.41656 4.25C7.41656 5.21656 6.63313 6 5.66657 6ZM5 0C2.23844 0 0 2.23844 0 5C0 7.76156 2.23844 10 5 10C7.76125 10 10 7.76156 10 5C10 2.23844 7.76125 0 5 0ZM5.66657 3.5H4.25V5H5.66657C6.08094 5 6.41656 4.66406 6.41656 4.25C6.41656 3.83594 6.08094 3.5 5.66657 3.5Z" class="social_change_color"/>
</svg>
