<svg width="12" height="10" viewBox="0 0 12 10" fill="none" xmlns="http://www.w3.org/2000/svg">
<path fill-rule="evenodd" clip-rule="evenodd" d="M7.785 6.58145C7.3365 6.58145 6.95963 6.22102 6.95963 5.77661C6.95963 5.3322 7.3365 4.95987 7.785 4.95987C8.2335 4.95987 8.59724 5.3322 8.59724 5.77661C8.59724 6.22102 8.2335 6.58145 7.785 6.58145ZM7.97549 8.14359C7.55774 8.55716 6.9135 8.75818 6.006 8.75818C6.00412 8.75818 6.00187 8.7578 5.99962 8.7578C5.99774 8.7578 5.99551 8.75818 5.99326 8.75818C5.08576 8.75818 4.44188 8.55716 4.02451 8.14359C3.89626 8.0165 3.89626 7.81102 4.02451 7.68431C4.15238 7.5576 4.35976 7.5576 4.48801 7.68431C4.77601 7.96969 5.26838 8.10866 5.99326 8.10866C5.99551 8.10866 5.99774 8.10902 5.99962 8.10902C6.00187 8.10902 6.00412 8.10866 6.006 8.10866C6.73087 8.10866 7.22362 7.96969 7.51199 7.68431C7.64024 7.55723 7.84762 7.5576 7.97549 7.68431C8.10337 7.81139 8.10337 8.01688 7.97549 8.14359ZM3.40276 5.77661C3.40276 5.33257 3.77888 4.95987 4.22701 4.95987C4.67551 4.95987 5.03925 5.33257 5.03925 5.77661C5.03925 6.22102 4.67551 6.58145 4.22701 6.58145C3.77888 6.58145 3.40276 6.22102 3.40276 5.77661ZM9.99899 0.649521C10.3027 0.649521 10.5499 0.894398 10.5499 1.19501C10.5499 1.49599 10.3027 1.74086 9.99899 1.74086C9.69524 1.74086 9.44812 1.49599 9.44812 1.19501C9.44812 0.894398 9.69524 0.649521 9.99899 0.649521ZM12 4.89261C12 4.10448 11.3531 3.46352 10.5578 3.46352C10.2135 3.46352 9.89737 3.5839 9.64912 3.78418C8.76975 3.23647 7.65375 2.90651 6.4575 2.83665L7.0815 0.88176L8.79637 1.28195C8.84137 1.90063 9.36337 2.39038 9.99899 2.39038C10.6639 2.39038 11.205 1.85419 11.205 1.19501C11.205 0.536193 10.6639 0 9.99899 0C9.53399 0 9.12975 0.262331 8.92838 0.645432L6.93562 0.180588C6.76875 0.141572 6.6 0.236703 6.54825 0.398712L5.7735 2.82513C4.48462 2.85635 3.27301 3.18742 2.32913 3.76709C2.08426 3.57721 1.77637 3.46352 1.44225 3.46352C0.64687 3.46352 0 4.10448 0 4.89261C0 5.37975 0.247499 5.81042 0.624374 6.0683C0.608624 6.18163 0.600372 6.29571 0.600372 6.41127C0.600372 7.39633 1.17824 8.31264 2.22749 8.99115C3.23324 9.64179 4.56451 10 5.97563 10C7.38676 10 8.71801 9.64179 9.72375 8.99115C10.773 8.31264 11.3509 7.39633 11.3509 6.41127C11.3509 6.30611 11.3438 6.20169 11.3306 6.09802C11.7326 5.84423 12 5.3987 12 4.89261Z" class="social_change_color"/>
</svg>
