<svg width="10" height="10" viewBox="0 0 10 10" fill="none" xmlns="http://www.w3.org/2000/svg">
<path fill-rule="evenodd" clip-rule="evenodd" d="M9.58139 3.62549C8.55076 0.189231 7.0617 -0.612329 3.62544 0.418611C0.189494 1.44924 -0.612377 2.9383 0.418562 6.37456C1.4495 9.8105 2.93857 10.6124 6.37451 9.58144C9.81077 8.5505 10.6123 7.06143 9.58139 3.62549ZM7.84358 5.85612L7.19577 6.073L7.42014 6.74362C7.51107 7.01487 7.36483 7.30862 7.09327 7.39956C7.0342 7.41956 6.9742 7.428 6.91545 7.42643C6.70358 7.42081 6.50827 7.28518 6.43733 7.07268L6.21263 6.40237L4.8767 6.84987L5.10107 7.52019C5.192 7.79175 5.04576 8.0855 4.7742 8.17643C4.71513 8.19612 4.65513 8.20456 4.59638 8.203C4.38451 8.19769 4.1892 8.06175 4.11826 7.84956L3.89357 7.17894L3.24575 7.39612C3.18669 7.41581 3.12638 7.42424 3.06763 7.42268C2.85607 7.41737 2.66076 7.28143 2.58951 7.06893C2.49857 6.79768 2.64481 6.50393 2.91638 6.413L3.56451 6.19581L3.13357 4.90986L2.48576 5.12705C2.4267 5.14674 2.36669 5.15518 2.30763 5.15362C2.09606 5.1483 1.90075 5.01237 1.8295 4.79987C1.73857 4.52862 1.88512 4.23487 2.15637 4.14393L2.8045 3.92674L2.57982 3.25643C2.48888 2.98487 2.63512 2.69112 2.90669 2.60049C3.17825 2.50955 3.472 2.6558 3.56294 2.92737L3.78732 3.59768L5.12357 3.15018L4.89889 2.47986C4.80795 2.2083 4.9545 1.91455 5.22576 1.82361C5.49732 1.73267 5.79107 1.87924 5.88201 2.15049L6.10639 2.82111L6.75451 2.60392C7.02607 2.51299 7.31951 2.65955 7.41045 2.9308C7.50138 3.20236 7.35514 3.49612 7.08358 3.58705L6.43577 3.80393L6.86639 5.09018L7.51451 4.873C7.78576 4.78237 8.07951 4.92862 8.17045 5.19987C8.26139 5.47143 8.11514 5.76518 7.84358 5.85612ZM4.11661 4.58071L4.54722 5.86665L5.88347 5.41915L5.45286 4.13321L4.11661 4.58071Z" class="social_change_color"/>
</svg>
