<svg width="11" height="10" viewBox="0 0 11 10" fill="none" xmlns="http://www.w3.org/2000/svg">
<path fill-rule="evenodd" clip-rule="evenodd" d="M10.9945 2.31203C10.9466 3.43903 10.1976 4.97962 8.75276 6.93449C7.25742 8.97862 5.9904 10 4.95492 10C4.31461 10 3.77197 9.37859 3.32893 8.13167C3.03206 6.98764 2.73714 5.84361 2.44092 4.70298C2.11106 3.45538 1.75792 2.83192 1.38021 2.83192C1.29807 2.83192 1.01155 3.01385 0.517415 3.37839L0 2.67589C0.541994 2.17507 1.07623 1.67222 1.60335 1.17073C2.32515 0.512519 2.86779 0.167055 3.22998 0.130943C4.08372 0.0437264 4.61019 0.65901 4.80874 1.97475C5.02024 3.39542 5.169 4.27848 5.25114 4.62462C5.49821 5.80204 5.76856 6.38938 6.06478 6.38938C6.29438 6.38938 6.63976 6.00918 7.10026 5.24808C7.56076 4.48562 7.80589 3.90645 7.83952 3.50716C7.90549 2.84895 7.65907 2.5219 7.10026 2.5219C6.83702 2.5219 6.56538 2.58049 6.28662 2.70314C6.82991 0.85048 7.86474 -0.0503003 9.39371 0.0021658C10.5262 0.0355531 11.0611 0.806874 10.9945 2.31203Z" class="social_change_color"/>
</svg>
