<svg width="10" height="10" viewBox="0 0 10 10" fill="none" xmlns="http://www.w3.org/2000/svg">
<path fill-rule="evenodd" clip-rule="evenodd" d="M4.99855 0C2.24214 0 0 2.24276 0 4.99996C0 6.09342 0.352634 7.10751 0.952085 7.93062L0.329081 9.78829L2.25093 9.17407C3.04137 9.69729 3.98467 10 5.00145 10C7.75786 10 10 7.75715 10 5.00004C10 2.24285 7.75786 8.26518e-05 5.00145 8.26518e-05H4.99855V0ZM3.60268 2.53976C3.50573 2.30756 3.43225 2.29876 3.28537 2.29279C3.23536 2.28989 3.17963 2.28699 3.11784 2.28699C2.92676 2.28699 2.72697 2.34282 2.60647 2.46626C2.45959 2.61616 2.09517 2.96591 2.09517 3.68317C2.09517 4.40042 2.61824 5.09411 2.68874 5.19117C2.76222 5.28807 3.7085 6.78132 5.17776 7.38989C6.32674 7.86607 6.66769 7.82194 6.92918 7.76611C7.31118 7.68381 7.79021 7.40151 7.91072 7.06064C8.03122 6.7196 8.03122 6.42858 7.99588 6.36686C7.96064 6.30514 7.8636 6.26996 7.71673 6.19638C7.56985 6.12288 6.8557 5.77014 6.72052 5.7231C6.58824 5.67316 6.46193 5.69083 6.36208 5.83194C6.221 6.02888 6.08292 6.22882 5.97121 6.34927C5.88305 6.44335 5.73899 6.45512 5.61857 6.4051C5.45693 6.33757 5.00444 6.17871 4.44604 5.68195C4.01404 5.29695 3.7202 4.81786 3.63503 4.67385C3.54977 4.52693 3.62622 4.44157 3.69373 4.36226C3.76721 4.27109 3.83772 4.20646 3.9112 4.12118C3.98468 4.03598 4.02581 3.99185 4.07284 3.89189C4.12285 3.79491 4.08751 3.69495 4.05226 3.62144C4.01702 3.54794 3.72318 2.83069 3.60268 2.53976Z" class="social_change_color"/>
</svg>
