<svg width="10" height="10" viewBox="0 0 10 10" fill="none" xmlns="http://www.w3.org/2000/svg">
<path d="M6.4,3.7C6,3.7,5.7,4.1,5.6,4.5c0,0.5,0.4,1,1,1c0.4,0,0.8-0.4,0.8-0.8C7.4,4.1,7,3.6,6.4,3.7z" class="social_change_color"/>
<path d="M3.4,3.7C3,3.7,2.6,4.1,2.6,4.5c0,0.5,0.4,1,1,1c0.4,0,0.8-0.4,0.8-0.8C4.4,4.1,3.9,3.6,3.4,3.7z" class="social_change_color"/>
<path d="M5,0C2.2,0,0,2.2,0,5s2.2,5,5,5s5-2.2,5-5S7.8,0,5,0z M8.7,7.2L8.7,7.2C7.8,7.9,6.7,8.2,6,8.3l-0.1,0
	c0,0-0.1,0-0.1,0L5.4,7.1c0,0,0-0.1,0-0.1l0.1,0c0.5-0.1,1.1-0.3,1.7-0.8c0,0,0,0,0,0c0,0-0.1,0-0.1,0.1C7,6.3,6.9,6.3,6.8,6.4
	C6.2,6.5,5.6,6.6,5,6.6l0,0h0v0c-0.6,0-1.2-0.1-1.8-0.2c-0.1,0-0.2-0.1-0.3-0.1c-0.1,0-0.1,0-0.1-0.1c0,0,0,0,0,0
	C3.2,6.7,3.9,6.9,4.4,7l0.1,0c0,0,0.1,0,0,0.1L4.1,8.3c0,0,0,0-0.1,0l-0.1,0c-0.7-0.1-1.8-0.4-2.6-1l-0.1,0l0-0.1
	c-0.2-1.4,0-3.6,0.5-4.9l0-0.1c0,0,0,0,0,0l0.1,0c0.5-0.2,1.2-0.3,1.8-0.3h0.8c0,0,0,0,0,0L3,2.5c0,0,0,0,0,0
	c0.7-0.2,1.3-0.3,2-0.3c0.7,0,1.3,0.1,2,0.3c0,0,0,0,0,0L5.5,1.8c0,0,0,0,0,0h0.7c0.6,0,1.3,0.1,1.8,0.3l0.1,0c0,0,0,0,0,0l0,0.1
	C8.7,3.5,8.8,5.8,8.7,7.2L8.7,7.2z" class="social_change_color"/>
</svg>
