<svg width="10" height="10" viewBox="0 0 10 10" fill="none" xmlns="http://www.w3.org/2000/svg">
<path d="M5 0C2.23857 0 0 2.23867 0 5C0 7.76133 2.23857 10 5 10C7.76143 10 10 7.76133 10 5C10 2.23867 7.76143 0 5 0ZM8.05412 6.97146C7.99724 7.44184 7.93821 7.91182 7.88542 8.38271C7.86598 8.55795 7.87263 8.55693 7.69299 8.55488C6.32164 8.5378 4.95038 8.5156 3.57903 8.50793C3.08767 8.50506 2.59621 8.53749 2.10465 8.55294C2.03959 8.55509 1.97463 8.55335 1.89729 8.55335C1.89729 8.41668 1.89729 8.2844 1.89729 8.13095C2.07253 8.09637 2.25831 8.06199 2.44297 8.0222C2.51887 8.00583 2.59417 7.9821 2.66609 7.95325C2.77463 7.90956 2.84276 7.82885 2.85841 7.70977C2.86568 7.65381 2.87673 7.59765 2.87724 7.54159C2.88665 6.51836 2.89954 5.49524 2.90097 4.47212C2.90189 3.83652 2.88563 3.20102 2.87519 2.56563C2.86936 2.20583 2.77412 2.09391 2.42332 2.02691C2.27427 1.99857 2.12358 1.97606 1.97606 1.94169C1.94046 1.9332 1.88982 1.88992 1.88696 1.85882C1.87632 1.74292 1.88276 1.62568 1.88276 1.49913C3.84982 1.53187 5.80573 1.61473 7.78005 1.4443C7.73872 2.11202 7.69729 2.78097 7.65514 3.46189C7.53555 3.46189 7.42609 3.47141 7.3199 3.45688C7.28235 3.45156 7.23519 3.39345 7.2222 3.35049C7.16205 3.1512 7.11755 2.94711 7.05719 2.74772C7.02179 2.63192 6.97412 2.51847 6.91949 2.41023C6.79601 2.16522 6.61064 2.03366 6.31714 2.03867C5.61166 2.05105 4.90598 2.04246 4.20051 2.04286C4.02107 2.04307 4.01575 2.049 4.01555 2.22476C4.01453 3.01739 4.01391 3.81013 4.0133 4.60266C4.01309 4.64593 4.0133 4.68921 4.0133 4.74363C4.32522 4.74363 4.62015 4.74854 4.91489 4.74179C5.10588 4.7376 5.29657 4.71877 5.48726 4.70302C5.74803 4.68143 5.84072 4.60532 5.90629 4.35366C5.9554 4.16481 5.99939 3.97463 6.04194 3.78414C6.05872 3.70905 6.09289 3.67448 6.17524 3.68031C6.27898 3.68767 6.38363 3.68215 6.50251 3.68215C6.50251 3.75141 6.50312 3.8135 6.50251 3.87591C6.49616 4.61974 6.48808 5.36358 6.48573 6.10742C6.48532 6.20634 6.4624 6.24573 6.35622 6.24624C6.04368 6.24849 6.04389 6.25269 5.97023 5.94752C5.94363 5.83785 5.91693 5.72798 5.88808 5.61903C5.82189 5.36788 5.63448 5.2754 5.39877 5.26762C4.95529 5.25269 4.5112 5.24839 4.06731 5.2399C4.05524 5.23969 4.04307 5.24634 4.01923 5.25269C4.01708 5.30189 4.01279 5.35284 4.01269 5.40368C4.01166 6.06578 4.01105 6.72767 4.01084 7.38967C4.01054 7.80102 4.16552 8.00061 4.57821 8.01228C5.21289 8.03049 5.8491 8.01729 6.48399 7.99785C6.86803 7.98629 7.13105 7.76133 7.29575 7.42701C7.42997 7.15427 7.55274 6.8754 7.66619 6.59366C7.71632 6.46875 7.78169 6.41084 7.91693 6.43161C7.97555 6.44082 8.03703 6.43315 8.11949 6.43315C8.09627 6.62353 8.07509 6.79744 8.05412 6.97146Z" class="social_change_color"/>
</svg>
