<svg width="6" height="10" viewBox="0 0 6 10" fill="none" xmlns="http://www.w3.org/2000/svg">
<path fill-rule="evenodd" clip-rule="evenodd" d="M1.49621 3.04201C0.694229 3.04201 0.0380877 2.35751 0.0380877 1.52087C0.0380877 0.6845 0.694229 0 1.49621 0H4.40062C5.20234 0 5.85848 0.6845 5.85848 1.52087C5.85848 2.35751 5.20234 3.04201 4.40062 3.04201H1.49621Z" class="social_change_color"/>
<path fill-rule="evenodd" clip-rule="evenodd" d="M1.45759 6.5241H2.94199V3.48127H1.45759C1.05739 3.48127 0.692666 3.65233 0.428318 3.9281C0.16397 4.20388 0 4.58464 0 5.00351C0 5.8396 0.655878 6.5241 1.45759 6.5241Z" class="social_change_color"/>
<path fill-rule="evenodd" clip-rule="evenodd" d="M4.54188 3.51242C3.73675 3.51242 3.08376 4.19336 3.08376 5.03356C3.08376 5.87349 3.73675 6.55443 4.54188 6.55443C5.34701 6.55443 6 5.87349 6 5.03356C6 4.19336 5.34701 3.51242 4.54188 3.51242Z" class="social_change_color"/>
<path fill-rule="evenodd" clip-rule="evenodd" d="M2.93953 6.95801H1.42912V6.96102C0.64974 6.99145 0.0264449 7.65841 0.0264449 8.47915C0.0264449 9.31908 0.67917 10 1.4843 10C2.26447 10 2.89985 9.3602 2.93874 8.55645L2.93953 8.53918C2.94032 8.51917 2.94242 8.49943 2.94242 8.47915C2.94242 8.45886 2.94032 8.43913 2.93953 8.41884V6.95801Z" class="social_change_color"/>
</svg>
