<svg width="10" height="10" viewBox="0 0 10 10" fill="none" xmlns="http://www.w3.org/2000/svg">
<path fill-rule="evenodd" clip-rule="evenodd" d="M5.00001 0C3.64208 0 3.47182 0.0057553 2.93851 0.0300884C2.40632 0.0543618 2.04285 0.138892 1.72481 0.262502C1.39601 0.390261 1.11718 0.561227 0.839195 0.839192C0.56123 1.11718 0.390261 1.39601 0.262502 1.72481C0.138892 2.04285 0.0543649 2.40631 0.0300916 2.93851C0.00575848 3.47181 0 3.64208 0 5.00001C0 6.35792 0.00575848 6.52819 0.0300916 7.06149C0.0543649 7.59369 0.138892 7.95715 0.262502 8.27519C0.390261 8.60398 0.56123 8.88282 0.839195 9.16081C1.11718 9.43877 1.39601 9.60974 1.72481 9.73752C2.04285 9.86111 2.40632 9.94564 2.93851 9.96991C3.47182 9.99424 3.64208 10 5.00001 10C6.35792 10 6.52818 9.99424 7.06149 9.96991C7.59368 9.94564 7.95715 9.86111 8.27518 9.73752C8.60398 9.60974 8.88282 9.43877 9.1608 9.16081C9.43877 8.88282 9.60973 8.60398 9.73751 8.27519C9.8611 7.95715 9.94564 7.59369 9.96991 7.06149C9.99425 6.52819 10 6.35792 10 5.00001C10 3.64208 9.99425 3.47181 9.96991 2.93851C9.94564 2.40631 9.8611 2.04285 9.73751 1.72481C9.60973 1.39601 9.43877 1.11718 9.1608 0.839192C8.88282 0.561227 8.60398 0.390261 8.27518 0.262502C7.95715 0.138892 7.59368 0.0543618 7.06149 0.0300884C6.52818 0.0057553 6.35792 0 5.00001 0ZM5.00001 0.900898C6.33506 0.900898 6.4932 0.906 7.02043 0.930055C7.50792 0.952284 7.77268 1.03374 7.94886 1.10221C8.18225 1.19292 8.34881 1.30126 8.52376 1.47624C8.69874 1.6512 8.80708 1.81776 8.89778 2.05114C8.96626 2.22733 9.04771 2.49208 9.06994 2.97957C9.09399 3.5068 9.0991 3.66495 9.0991 5.00001C9.0991 6.33505 9.09399 6.4932 9.06994 7.02043C9.04771 7.50792 8.96626 7.77267 8.89778 7.94886C8.80708 8.18224 8.69874 8.3488 8.52376 8.52376C8.34881 8.69874 8.18225 8.80708 7.94886 8.89779C7.77268 8.96626 7.50792 9.04772 7.02043 9.06994C6.49328 9.094 6.33516 9.0991 5.00001 9.0991C3.66485 9.0991 3.50674 9.094 2.97957 9.06994C2.49208 9.04772 2.22733 8.96626 2.05114 8.89779C1.81776 8.80708 1.65119 8.69874 1.47624 8.52376C1.30128 8.3488 1.19292 8.18224 1.10221 7.94886C1.03374 7.77267 0.952284 7.50792 0.930055 7.02043C0.906 6.4932 0.900898 6.33505 0.900898 5.00001C0.900898 3.66495 0.906 3.5068 0.930055 2.97957C0.952284 2.49208 1.03374 2.22733 1.10221 2.05114C1.19292 1.81776 1.30126 1.6512 1.47624 1.47624C1.65119 1.30126 1.81776 1.19292 2.05114 1.10221C2.22733 1.03374 2.49208 0.952284 2.97957 0.930055C3.5068 0.906 3.66495 0.900898 5.00001 0.900898ZM5.00001 2.43244C3.58197 2.43244 2.43244 3.58196 2.43244 5.00001C2.43244 6.41804 3.58197 7.56756 5.00001 7.56756C6.41804 7.56756 7.56757 6.41804 7.56757 5.00001C7.56757 3.58196 6.41804 2.43244 5.00001 2.43244ZM5.00001 6.66667C4.07952 6.66667 3.33333 5.92048 3.33333 5.00001C3.33333 4.07952 4.07952 3.33333 5.00001 3.33333C5.92048 3.33333 6.66667 4.07952 6.66667 5.00001C6.66667 5.92048 5.92048 6.66667 5.00001 6.66667ZM8.26902 2.33099C8.26902 2.66237 8.00038 2.93098 7.669 2.93098C7.33765 2.93098 7.06902 2.66237 7.06902 2.33099C7.06902 1.99962 7.33765 1.73098 7.669 1.73098C8.00038 1.73098 8.26902 1.99962 8.26902 2.33099Z" class="social_change_color"/>
</svg>
