<svg width="12" height="9" viewBox="0 0 12 9" fill="none" xmlns="http://www.w3.org/2000/svg">
<path fill-rule="evenodd" clip-rule="evenodd" d="M1.34436 1.83609C1.35853 1.69674 1.30515 1.55928 1.20123 1.46575L0.143127 0.190364V0H3.42985L5.97024 5.57156L8.20359 0H11.3368V0.190364L10.4317 1.0581C10.3538 1.11762 10.3151 1.2154 10.3311 1.31223V7.68824C10.3151 7.7846 10.3538 7.88238 10.4317 7.9419L11.3155 8.80964V9H6.86963V8.80964L7.78555 7.92064C7.8753 7.83089 7.8753 7.80444 7.8753 7.66698V2.51346L5.32971 8.97922H4.98583L2.02173 2.51346V6.84695C1.99717 7.02881 2.05763 7.21257 2.18564 7.34388L3.37648 8.78838V8.97922H0V8.78838L1.19084 7.34388C1.31838 7.21209 1.37506 7.0274 1.34436 6.84695V1.83609Z" class="social_change_color"/>
</svg>
