<svg width="11" height="10" viewBox="0 0 11 10" fill="none" xmlns="http://www.w3.org/2000/svg">
<path fill-rule="evenodd" clip-rule="evenodd" d="M5.60576 1.56279e-09C5.59627 1.56279e-09 5.58687 -1.71371e-06 5.57837 0.000108509C5.51064 0.000770064 5.39929 0.00181578 5.38928 0.001926C5.14509 0.001926 4.65651 0.0352812 4.13169 0.259257C3.83163 0.387231 3.56172 0.560271 3.32951 0.77358C3.05264 1.02774 2.8271 1.3411 2.65925 1.70509C2.41343 2.23805 2.47179 3.13574 2.51865 3.85714L2.51882 3.85828C2.52384 3.93553 2.52912 4.01621 2.53393 4.09482C2.49787 4.11084 2.4394 4.12773 2.35323 4.12773C2.21457 4.12773 2.04968 4.08487 1.86327 4.00042C1.80843 3.97572 1.74583 3.96324 1.67675 3.96324C1.56578 3.96324 1.44878 3.99482 1.3473 4.05251C1.21962 4.125 1.13712 4.22746 1.11471 4.34104C1.09994 4.41618 1.10065 4.56469 1.27127 4.71529C1.36511 4.7982 1.50297 4.87466 1.68092 4.94265C1.72761 4.96043 1.78303 4.97741 1.84172 4.99541C2.04541 5.058 2.35368 5.15258 2.43407 5.33551C2.47481 5.42826 2.45727 5.55031 2.3821 5.69782C2.38014 5.70185 2.37817 5.70579 2.37637 5.70992C2.35759 5.75234 2.18232 6.13618 1.82282 6.541C1.61854 6.7712 1.39354 6.96359 1.15442 7.11298C0.862564 7.29537 0.546764 7.41461 0.215883 7.46731C0.0859481 7.48792 -0.00684484 7.59985 0.000396139 7.72706C0.00261951 7.76372 0.0115144 7.80026 0.0269369 7.83563C0.0268228 7.83543 0.0270508 7.83585 0.0269369 7.83563C0.0794754 7.95445 0.201658 8.05602 0.399696 8.14505C0.641693 8.25373 1.00362 8.34515 1.47532 8.41668C1.49916 8.46051 1.5239 8.57065 1.54103 8.64606C1.55896 8.72621 1.57766 8.80863 1.60432 8.89617C1.63308 8.99101 1.70768 9.10434 1.89934 9.10434C1.97197 9.10434 2.0555 9.08852 2.15222 9.07039C2.29387 9.04351 2.48758 9.00686 2.72935 9.00686C2.86339 9.00686 3.0023 9.01827 3.14213 9.04073C3.41166 9.08411 3.64402 9.24282 3.91287 9.42661C4.30638 9.69557 4.75181 10 5.43236 10C5.45092 10 5.46953 9.99942 5.48792 9.99818C5.51041 9.9992 5.53829 10 5.56771 10C6.24846 10 6.69376 9.69545 7.08685 9.42672C7.35575 9.24315 7.58849 9.08411 7.85793 9.04073C7.9977 9.01829 8.13659 9.00686 8.27069 9.00686C8.50165 9.00686 8.68453 9.03533 8.84781 9.06611C8.95437 9.0864 9.03718 9.09616 9.10073 9.09616L9.10695 9.09627H9.11339C9.25355 9.09627 9.35655 9.02188 9.39586 8.8917C9.42197 8.806 9.44062 8.72552 9.45901 8.64402C9.47503 8.57335 9.50062 8.46006 9.52446 8.41577C9.99648 8.34411 10.3583 8.25287 10.6003 8.14422C10.7979 8.0556 10.9195 7.95478 10.9724 7.83645C10.9882 7.80098 10.9975 7.76421 10.9996 7.72678C11.007 7.5998 10.9141 7.48764 10.7841 7.46703C9.31353 7.23269 8.65106 5.77175 8.62366 5.70968C8.62189 5.7056 8.6199 5.70155 8.61782 5.6976C8.54265 5.55003 8.52529 5.42812 8.56605 5.33521C8.64627 5.15244 8.95434 5.05787 9.15817 4.9953C9.21718 4.97733 9.2728 4.96024 9.31912 4.94255C9.51978 4.86592 9.6632 4.78279 9.75782 4.68839C9.87082 4.57585 9.89282 4.46802 9.89146 4.39746C9.88801 4.22674 9.75303 4.07503 9.53831 4.00075C9.46579 3.97176 9.38309 3.95645 9.29888 3.95645C9.24155 3.95645 9.15666 3.96407 9.0763 4.00034C8.90426 4.07818 8.75015 4.12073 8.61785 4.1268C8.54749 4.12335 8.49815 4.1086 8.46619 4.09452C8.47021 4.02792 8.47466 3.95952 8.47925 3.88818L8.48116 3.85765C8.52828 3.13577 8.58683 2.23739 8.3409 1.70405C8.17234 1.33876 7.94599 1.02459 7.66802 0.769884C7.43489 0.556437 7.16407 0.383426 6.86293 0.255534C6.33885 0.0332119 5.8503 1.56279e-09 5.60576 1.56279e-09Z" class="social_change_color"/>
</svg>
