<svg width="10" height="10" viewBox="0 0 10 10" fill="none" xmlns="http://www.w3.org/2000/svg">
<path fill-rule="evenodd" clip-rule="evenodd" d="M1.25 1.875V7.5C1.25 7.84531 1.52969 8.125 1.875 8.125H3.75C4.09531 8.125 4.375 7.84531 4.375 7.5V1.875C4.375 1.52969 4.09531 1.25 3.75 1.25H1.875C1.52969 1.25 1.25 1.52969 1.25 1.875ZM5.625 1.875V5C5.625 5.34531 5.90469 5.625 6.25 5.625H8.125C8.47031 5.625 8.75 5.34531 8.75 5V1.875C8.75 1.52969 8.47031 1.25 8.125 1.25H6.25C5.90469 1.25 5.625 1.52969 5.625 1.875ZM1.25 0C0.559687 0 0 0.56 0 1.25V8.75C0 9.44031 0.56 10 1.25 10H8.75C9.44031 10 10 9.44 10 8.75V1.25C10 0.559687 9.44 0 8.75 0H1.25Z" class="social_change_color"/>
</svg>
