<svg width="12" height="10" viewBox="0 0 12 10" fill="none" xmlns="http://www.w3.org/2000/svg">
<path fill-rule="evenodd" clip-rule="evenodd" d="M4.761 6.8151L4.76062 3.39102L8.00288 5.10896L4.761 6.8151ZM11.88 2.79768C11.88 2.79768 11.7626 1.95794 11.403 1.58815C10.9466 1.10259 10.4351 1.1003 10.2007 1.07212C8.5215 0.948729 6.00262 0.94873 6.00262 0.94873H5.99738C5.99738 0.94873 3.4785 0.948729 1.79925 1.07212C1.5645 1.1003 1.05338 1.10259 0.596626 1.58815C0.237001 1.95794 0.119999 2.79768 0.119999 2.79768C0.119999 2.79768 0 3.78404 0 4.77002V5.69469C0 6.68105 0.119999 7.66702 0.119999 7.66702C0.119999 7.66702 0.237001 8.50676 0.596626 8.87655C1.05338 9.36211 1.653 9.34688 1.92 9.39753C2.88 9.49122 6 9.52016 6 9.52016C6 9.52016 8.5215 9.51635 10.2007 9.39296C10.4351 9.3644 10.9466 9.36211 11.403 8.87655C11.7626 8.50676 11.88 7.66702 11.88 7.66702C11.88 7.66702 12 6.68105 12 5.69469V4.77002C12 3.78404 11.88 2.79768 11.88 2.79768Z" class="social_change_color"/>
</svg>
