<svg width="18" height="15" viewBox="0 0 18 15" fill="none" xmlns="http://www.w3.org/2000/svg">
<path fill-rule="evenodd" clip-rule="evenodd" d="M15.8786 2.8616C16.6465 2.42419 17.2241 1.72887 17.5029 0.906193C16.7762 1.31831 15.9834 1.60808 15.1577 1.7633C14.8094 1.40929 14.3908 1.12784 13.9275 0.936037C13.4641 0.744231 12.9655 0.64606 12.462 0.647476C10.422 0.647476 8.76943 2.22983 8.76943 4.1819C8.76943 4.45897 8.802 4.72854 8.86457 4.98726C7.40208 4.9199 5.97002 4.55675 4.65958 3.92093C3.34914 3.28512 2.18903 2.39058 1.25314 1.29427C0.925133 1.83216 0.752477 2.44635 0.753428 3.07191C0.753428 4.2979 1.40486 5.37951 2.39571 6.01295C1.81033 5.99549 1.23742 5.84396 0.723428 5.57063V5.61569C0.723428 7.32824 1.99629 8.75619 3.68571 9.08084C3.14144 9.22265 2.57137 9.24347 2.01771 9.14177C2.48743 10.5455 3.852 11.5679 5.46771 11.5962C4.15306 12.5811 2.53988 13.1133 0.881143 13.1093C0.582857 13.1093 0.289714 13.0926 0 13.0593C1.6945 14.0995 3.65738 14.6502 5.66057 14.6474C12.4534 14.6474 16.1683 9.26195 16.1683 4.59167C16.1683 4.43811 16.164 4.28622 16.1571 4.13432C16.8782 3.63605 17.5023 3.01656 18 2.30494C17.3248 2.5911 16.61 2.77868 15.8786 2.8616Z" fill="white"/>
</svg>
