<svg width="12" height="12" viewBox="0 0 12 12" fill="none" xmlns="http://www.w3.org/2000/svg">
<path fill-rule="evenodd" clip-rule="evenodd" d="M1 4.97925C1 2.78525 2.785 1 4.979 1C7.17325 1 8.95825 2.78525 8.95825 4.97925C8.95825 7.1735 7.17325 8.9585 4.979 8.9585C2.785 8.9585 1 7.1735 1 4.97925ZM11.8533 11.1465L8.835 8.12825C9.53575 7.27 9.95825 6.17425 9.95825 4.97925C9.95825 2.22925 7.729 0 4.979 0C2.22925 0 0 2.22925 0 4.97925C0 7.72925 2.22925 9.9585 4.979 9.9585C6.174 9.9585 7.27 9.53675 8.128 8.83525L11.1458 11.8538C11.2433 11.9513 11.3733 12 11.5008 12C11.6283 12 11.7557 11.9513 11.8533 11.8538C12.0483 11.6585 12.0483 11.3418 11.8533 11.1465Z" fill="#333333"/>
</svg>
