<svg width="10" height="12" viewBox="0 0 10 12" fill="none" xmlns="http://www.w3.org/2000/svg">
<path fill-rule="evenodd" clip-rule="evenodd" d="M1.08108 11H8.91892V5.99988H1.08108V11ZM9.45946 4.99985H8.51351V3.24982C8.51351 1.40353 6.84162 -0.0875038 4.82405 0.00399814C2.93649 0.0892499 1.48649 1.59553 1.48649 3.34382V3.43732C1.48649 3.71358 1.72865 3.93733 2.02703 3.93733C2.32541 3.93733 2.56757 3.71358 2.56757 3.43732V3.33007C2.56757 2.13329 3.54108 1.08602 4.83189 1.00502C6.24811 0.916517 7.43243 1.95829 7.43243 3.24982V4.99985H0.540541C0.242162 4.99985 0 5.22386 0 5.49986V11.5C0 11.7762 0.242162 12 0.540541 12H9.45946C9.75784 12 10 11.7762 10 11.5V5.49986C10 5.22386 9.75784 4.99985 9.45946 4.99985Z" fill="#333333"/>
<path fill-rule="evenodd" clip-rule="evenodd" d="M5 9.37495C4.77595 9.37495 4.59459 9.2072 4.59459 8.99994V7.99992C4.59459 7.79292 4.77595 7.62492 5 7.62492C5.22405 7.62492 5.40541 7.79292 5.40541 7.99992V8.99994C5.40541 9.2072 5.22405 9.37495 5 9.37495Z" fill="#333333"/>
</svg>
