<svg width="14" height="14" viewBox="0 0 14 14" fill="none" xmlns="http://www.w3.org/2000/svg">
<path fill-rule="evenodd" clip-rule="evenodd" d="M13.9995 7.15943C13.9995 6.66243 13.9542 6.18565 13.8693 5.72754H7.14233V8.43498H10.9868C10.9072 8.86323 10.7399 9.27122 10.4949 9.6343C10.2499 9.99738 9.93233 10.308 9.56138 10.5474V12.3044H11.8693C13.2201 11.0856 13.9995 9.29054 13.9995 7.15943Z" fill="white"/>
<path fill-rule="evenodd" clip-rule="evenodd" d="M7.14334 14.0001C9.07191 14.0001 10.6886 13.3732 11.8703 12.3045L9.56239 10.5475C8.92271 10.9675 8.10445 11.2164 7.14334 11.2164C5.28302 11.2164 3.70842 9.98441 3.14652 8.33008H0.76001V10.1439C1.35449 11.3035 2.26631 12.2782 3.39357 12.9592C4.52083 13.6402 5.81912 14.0006 7.14334 14.0001Z" fill="white"/>
<path fill-rule="evenodd" clip-rule="evenodd" d="M3.14603 8.32973C2.99898 7.90107 2.92341 7.45197 2.92222 6.99973C2.92222 6.53851 3.00318 6.08974 3.14603 5.66974V3.85596H0.759525C0.259569 4.83147 -0.000539412 5.90809 8.39869e-07 6.99973C8.39869e-07 8.12907 0.276192 9.19851 0.759525 10.1435L3.14603 8.32973Z" fill="white"/>
<path fill-rule="evenodd" clip-rule="evenodd" d="M7.14334 2.78445C8.19175 2.78445 9.13382 3.13756 9.8735 3.83056L11.9227 1.82389C10.6854 0.693 9.06874 5.49955e-07 7.14334 5.49955e-07C5.81912 -0.000513864 4.52083 0.359858 3.39357 1.04084C2.26631 1.72183 1.35449 2.6966 0.76001 3.85622L3.14652 5.67C3.70842 4.01567 5.28302 2.78445 7.14334 2.78445Z" fill="white"/>
</svg>
