<svg width="44" height="44" viewBox="0 0 44 44" fill="none" xmlns="http://www.w3.org/2000/svg">
    <rect width="44" height="44" rx="16" fill="#2F80F3"/>
    <path fill-rule="evenodd" clip-rule="evenodd" d="M21.769 14C18.0368 14 15 17.0391 15 20.7728C15 22.3001 15.4981 23.7429 16.4405 24.944C16.5054 25.0246 16.5526 25.1205 16.579 25.2241C16.9194 26.5288 16.8688 27.7913 16.4298 29C17.3097 28.67 18.0084 28.1404 18.546 27.3998C18.7471 27.1197 19.1082 27.0084 19.4305 27.1274C20.1827 27.4037 20.9697 27.5418 21.769 27.5418C25.5038 27.5418 28.5418 24.5065 28.5418 20.7728C28.5418 17.0391 25.5038 14 21.769 14Z" fill="white"/>
</svg>
