<svg width="13" height="12" viewBox="0 0 13 12" fill="none" xmlns="http://www.w3.org/2000/svg">
<path fill-rule="evenodd" clip-rule="evenodd" d="M1.95975 8.57018L4.77235 7.27564C4.78563 7.26982 4.797 7.25818 4.80946 7.25236C5.28233 7.63055 5.86598 7.85455 6.5 7.85455C7.13402 7.85455 7.71767 7.63055 8.19054 7.25236C8.203 7.25818 8.21438 7.26982 8.22765 7.27564L11.04 8.57018C11.2894 8.68364 11.4682 8.92218 11.5183 9.21018L11.8045 10.8364H1.19546L1.48173 9.21018C1.53183 8.92218 1.71058 8.68364 1.95975 8.57018ZM4.73958 3.05455C4.73958 2.01309 5.52933 1.16364 6.5 1.16364C7.47067 1.16364 8.26042 2.01309 8.26042 3.05455V4.8C8.26042 5.84436 7.47067 6.69091 6.5 6.69091C5.52933 6.69091 4.73958 5.84436 4.73958 4.8V3.05455ZM12.8765 11.7847C12.8865 11.7702 12.8976 11.7585 12.9063 11.744C12.9171 11.7295 12.9253 11.7091 12.9342 11.6916C12.9415 11.6771 12.9502 11.6625 12.9564 11.648C12.9624 11.6335 12.9656 11.616 12.9702 11.6015C12.9767 11.5811 12.984 11.5607 12.9881 11.5375C12.9905 11.5258 12.9905 11.5142 12.9924 11.4996C12.9957 11.4735 12.9995 11.4502 12.9995 11.424C12.9995 11.4211 13 11.4211 13 11.4182C13 11.4007 12.9965 11.3833 12.9951 11.3658C12.9935 11.3484 12.9938 11.328 12.9905 11.3105L12.9892 11.3018L12.5829 8.992C12.4654 8.32582 12.0483 7.76727 11.4668 7.49964L8.95185 6.34182C9.1994 5.888 9.34375 5.36436 9.34375 4.8V3.05455C9.34375 1.36727 8.07056 0 6.5 0C4.92944 0 3.65625 1.36727 3.65625 3.05455V4.8C3.65625 5.36436 3.8006 5.888 4.04815 6.34182L1.53319 7.49964C0.951708 7.76727 0.534625 8.32582 0.417083 8.992L0.0111042 11.3018C0.0108333 11.3018 0.0108333 11.3018 0.0108333 11.3018L0.00947917 11.3105C0.00595833 11.328 0.0065 11.3484 0.004875 11.3658C0.00352083 11.3833 0 11.4007 0 11.4182C0 11.4211 0.000270833 11.4211 0.000270833 11.424C0.000541667 11.4502 0.00433333 11.4735 0.00758333 11.4996C0.00947917 11.5142 0.00947917 11.5258 0.0116458 11.5375C0.0159792 11.5607 0.0232917 11.5811 0.0297917 11.6015C0.0343958 11.616 0.0376458 11.6335 0.0436042 11.648C0.0498333 11.6625 0.0585 11.6771 0.0658125 11.6916C0.07475 11.7091 0.082875 11.7295 0.0937083 11.744C0.102375 11.7585 0.113479 11.7702 0.1235 11.7847C0.135417 11.7993 0.14625 11.8167 0.159792 11.8313C0.171708 11.8429 0.185792 11.8545 0.198521 11.8662C0.212333 11.8778 0.225333 11.8924 0.240229 11.9011C0.251333 11.9098 0.263792 11.9156 0.275438 11.9215C0.294667 11.9331 0.313354 11.9476 0.333938 11.9564C0.343417 11.9593 0.353708 11.9622 0.363458 11.9651C0.387833 11.9738 0.411938 11.9825 0.437937 11.9884C0.439021 11.9884 0.439833 11.9913 0.440917 11.9913C0.471792 11.9971 0.502125 12 0.532458 12C0.535708 12 0.538417 12 0.541667 12H12.4583C12.4616 12 12.4643 12 12.4675 12C12.4976 12 12.5282 11.9971 12.5591 11.9913C12.5602 11.9913 12.561 11.9884 12.5621 11.9884C12.5881 11.9825 12.6122 11.9738 12.6365 11.9651C12.6463 11.9622 12.6566 11.9593 12.6661 11.9564C12.6866 11.9476 12.7053 11.9331 12.7246 11.9215C12.7362 11.9156 12.7487 11.9098 12.7598 11.9011C12.7747 11.8924 12.7877 11.8778 12.8015 11.8662C12.8142 11.8545 12.8283 11.8429 12.8402 11.8313C12.8538 11.8167 12.8646 11.7993 12.8765 11.7847Z" fill="black"/>
</svg>
