<?xml version="1.0" encoding="UTF-8"?>
<svg width="47px" height="19px" viewBox="0 0 47 19" version="1.1" xmlns="http://www.w3.org/2000/svg" xmlns:xlink="http://www.w3.org/1999/xlink">
    <!-- Generator: Sketch 49.3 (51167) - http://www.bohemiancoding.com/sketch -->
    <title>pug logo</title>
    <desc>Created with Sketch.</desc>
    <defs></defs>
    <g id="Page-1" stroke="none" stroke-width="1" fill="none" fill-rule="evenodd">
        <g id="Desktop-HD" transform="translate(-877.000000, -4260.000000)" fill="#FFFFFF">
            <g id="Welly-coded" transform="translate(1.000000, 3357.000000)">
                <g id="Logos" transform="translate(728.000000, 881.000000)">
                    <g id="pug-logo" transform="translate(148.000000, 22.000000)">
                        <path d="M1.39453125,0.859375 L6.69140625,0.859375 L6.69140625,1.03515625 C7.06640813,0.87109293 7.4492168,0.740234863 7.83984375,0.642578125 C8.2304707,0.544921387 8.63281043,0.49609375 9.046875,0.49609375 C9.93750445,0.49609375 10.7656212,0.66406082 11.53125,1 C12.2968788,1.33593918 12.9609347,1.79296586 13.5234375,2.37109375 C14.0859403,2.94922164 14.525389,3.62499613 14.8417969,4.3984375 C15.1582047,5.17187887 15.3164063,5.99218316 15.3164063,6.859375 C15.3164063,7.73437937 15.1621109,8.55858988 14.8535156,9.33203125 C14.5449203,10.1054726 14.113284,10.779294 13.5585938,11.3535156 C13.0039035,11.9277372 12.3418007,12.3808577 11.5722656,12.7128906 C10.8027305,13.0449235 9.96094207,13.2109375 9.046875,13.2109375 C8.53124742,13.2109375 8.05078348,13.1621099 7.60546875,13.0644531 C7.16015402,12.9667964 6.73047082,12.8281259 6.31640625,12.6484375 L6.31640625,15.3085938 L8.63671875,15.3085938 L8.63671875,18.5195312 L0.71484375,18.5195312 L0.71484375,15.3085938 L2.70703125,15.3085938 L2.70703125,4.0703125 L1.39453125,4.0703125 L1.39453125,0.859375 Z M8.7890625,3.73046875 C8.29687254,3.73046875 7.83593965,3.85937371 7.40625,4.1171875 C6.97656035,4.37500129 6.61328273,4.73827891 6.31640625,5.20703125 L6.31640625,8.62890625 C6.5664075,9.02734574 6.90624785,9.35156125 7.3359375,9.6015625 C7.76562715,9.85156375 8.2499973,9.9765625 8.7890625,9.9765625 C9.18750199,9.9765625 9.56640445,9.90039139 9.92578125,9.74804688 C10.285158,9.59570236 10.5976549,9.38086076 10.8632812,9.10351562 C11.1289076,8.82617049 11.339843,8.49804877 11.4960938,8.11914062 C11.6523445,7.74023248 11.7304688,7.32812723 11.7304688,6.8828125 C11.7304688,6.39062254 11.6542976,5.9492207 11.5019531,5.55859375 C11.3496086,5.1679668 11.1406263,4.83789197 10.875,4.56835938 C10.6093737,4.29882678 10.2968768,4.0917976 9.9375,3.94726562 C9.5781232,3.80273365 9.19531453,3.73046875 8.7890625,3.73046875 Z M24.5039062,0.859375 L30.2460938,0.859375 L30.2460938,9.7890625 L31.7109375,9.7890625 L31.7109375,13 L26.5664062,13 L26.5664062,11.96875 C26.1523417,12.3437519 25.6679715,12.6328115 25.1132812,12.8359375 C24.558591,13.0390635 23.9179724,13.140625 23.1914062,13.140625 C22.5195279,13.140625 21.8867217,13.0351573 21.2929688,12.8242188 C20.6992158,12.6132802 20.1816428,12.294924 19.7402344,11.8691406 C19.2988259,11.4433572 18.9511731,10.9101595 18.6972656,10.2695312 C18.4433581,9.62890305 18.3164062,8.87500434 18.3164062,8.0078125 L18.3164062,4.0703125 L16.734375,4.0703125 L16.734375,0.859375 L22.1015625,0.859375 L22.1015625,8.0078125 C22.1015625,8.82031656 22.3085917,9.42773236 22.7226562,9.83007812 C23.1367208,10.2324239 23.6757779,10.4335938 24.3398438,10.4335938 C24.8085961,10.4335938 25.2343731,10.2890639 25.6171875,10 C26.0000019,9.71093605 26.2773429,9.32031496 26.4492188,8.828125 L26.4492188,4.0703125 L24.5039062,4.0703125 L24.5039062,0.859375 Z M42.5039062,12.3671875 C42.0664041,12.6171887 41.6289084,12.7968745 41.1914062,12.90625 C40.7539041,13.0156255 40.308596,13.0703125 39.8554688,13.0703125 C38.9179641,13.0703125 38.0546914,12.9101579 37.265625,12.5898438 C36.4765586,12.2695296 35.7949247,11.8261747 35.2207031,11.2597656 C34.6464815,10.6933565 34.1992204,10.0234414 33.8789062,9.25 C33.5585921,8.47655863 33.3984375,7.63672328 33.3984375,6.73046875 C33.3984375,5.87890199 33.5527328,5.07617564 33.8613281,4.32226562 C34.1699234,3.56835561 34.6015597,2.90820596 35.15625,2.34179688 C35.7109403,1.77538779 36.3749961,1.32812664 37.1484375,1 C37.9218789,0.671873359 38.7617142,0.503906289 39.6679688,0.49609375 C40.222659,0.503906289 40.7324196,0.562499453 41.1972656,0.671875 C41.6621117,0.781250547 42.0976542,0.929686562 42.5039062,1.1171875 L42.5039062,0.859375 L46.0546875,0.859375 L46.0546875,12.4960938 C46.0546875,13.5195364 45.878908,14.4042931 45.5273438,15.1503906 C45.1757795,15.8964881 44.7050811,16.5136694 44.1152344,17.0019531 C43.5253877,17.4902368 42.8398477,17.8535144 42.0585938,18.0917969 C41.2773398,18.3300793 40.4570355,18.4492188 39.5976562,18.4492188 C38.5351509,18.4492188 37.5527389,18.3046889 36.6503906,18.015625 C35.7480424,17.7265611 34.945316,17.33594 34.2421875,16.84375 L35.7070312,14.2421875 C36.2460964,14.5859392 36.8320281,14.8574209 37.4648438,15.0566406 C38.0976594,15.2558604 38.8007774,15.3554688 39.5742188,15.3554688 C39.9960959,15.3554688 40.3847638,15.3085942 40.7402344,15.2148438 C41.0957049,15.1210933 41.4042956,14.9628917 41.6660156,14.7402344 C41.9277357,14.517577 42.1328118,14.2187519 42.28125,13.84375 C42.4296882,13.4687481 42.5039062,12.9960966 42.5039062,12.4257812 L42.5039062,12.3671875 Z M39.9726562,9.82421875 C40.519534,9.82421875 41.0136697,9.68554826 41.4550781,9.40820312 C41.8964866,9.13085799 42.2460925,8.76562727 42.5039062,8.3125 L42.5273438,5.359375 C42.2617174,4.86718504 41.8984398,4.47656395 41.4375,4.1875 C40.9765602,3.89843605 40.4765652,3.75000004 39.9375,3.7421875 C39.5546856,3.75000004 39.1796893,3.82617115 38.8125,3.97070312 C38.4453107,4.1152351 38.1269545,4.32031117 37.8574219,4.5859375 C37.5878893,4.85156383 37.3750008,5.16601381 37.21875,5.52929688 C37.0624992,5.89257994 36.984375,6.29687277 36.984375,6.7421875 C36.984375,7.21093984 37.0624992,7.63671684 37.21875,8.01953125 C37.3750008,8.40234566 37.5859362,8.72656117 37.8515625,8.9921875 C38.1171888,9.25781383 38.4316388,9.4628899 38.7949219,9.60742188 C39.1582049,9.75195385 39.5507791,9.82421875 39.9726562,9.82421875 Z" id="pug"></path>
                    </g>
                </g>
            </g>
        </g>
    </g>
</svg>