<?xml version="1.0" encoding="UTF-8"?>
<svg width="50px" height="42px" viewBox="0 0 50 42" version="1.1" xmlns="http://www.w3.org/2000/svg" xmlns:xlink="http://www.w3.org/1999/xlink">
    <!-- Generator: Sketch 49.3 (51167) - http://www.bohemiancoding.com/sketch -->
    <title>sass</title>
    <desc>Created with Sketch.</desc>
    <defs></defs>
    <g id="Page-1" stroke="none" stroke-width="1" fill="none" fill-rule="evenodd">
        <g id="Desktop-HD" transform="translate(-796.000000, -4248.000000)" fill="#FFFFFF" fill-rule="nonzero">
            <g id="Welly-coded" transform="translate(1.000000, 3357.000000)">
                <g id="Logos" transform="translate(728.000000, 881.000000)">
                    <g id="sass" transform="translate(66.000000, 10.000000)">
                        <path d="M44.0368215,25.1714097 C43.2500742,25.4689226 43.2818927,25.4741919 42.8657192,24.7161218 C42.3342291,23.7505223 42.0515108,22.7350671 42.0270896,21.6307431 C42.0069244,20.6830795 42.2663362,19.8021942 42.5925262,18.9381301 C42.8529513,18.2509929 42.514196,18.0085037 41.9190689,17.9459814 C41.4859729,17.9014963 41.0391969,17.9057523 40.6050875,17.9502374 C39.4763424,18.0656553 39.3651804,18.1630361 39.0655395,19.2589494 C38.8877006,19.9091002 38.7457335,20.5645202 38.4503486,21.1817378 C37.7218676,22.7011206 36.893878,24.1644665 36.0447098,25.6171723 C35.892204,25.8787121 35.7662475,26.1603157 35.5513208,26.3837544 C34.9361298,25.4625386 34.7042806,24.4450568 34.6523982,23.3777192 C34.6005159,22.3241629 34.9234632,21.3447822 35.2781278,20.37594 C35.3978017,20.0498513 35.298293,19.8475912 35.016588,19.7067387 C34.8916448,19.6443178 34.7519069,19.5860515 34.6153104,19.5754115 C33.8910855,19.5182599 33.1689885,19.5266705 32.4626994,19.7246746 C32.1450214,19.8125301 31.937492,19.9904704 31.8665591,20.3472629 C31.7289492,21.04504 31.5140225,21.7226519 31.2238056,22.3749306 C30.4191225,24.1812877 29.6197086,25.9907861 28.8160388,27.7982578 C28.1172484,29.3685097 27.4289966,30.9429161 26.6010069,32.450747 C26.5427406,32.557653 26.4941009,32.7429906 26.3479791,32.7059028 C26.1997293,32.668815 26.2516117,32.4867201 26.2452277,32.3617769 C26.1976013,31.4723796 26.4400905,30.6242247 26.6465053,29.7750565 C26.9737086,28.4313847 27.3315145,27.0940967 27.678883,25.7546808 C27.7783918,25.3703258 27.6110915,25.1119274 27.2924,24.9277045 C26.8339708,24.6640368 26.3775682,24.6513702 25.8810379,25.0208293 C25.9488295,24.4744432 25.9784187,23.9948355 25.9551121,23.5152277 C25.9022165,22.4458635 25.4065981,21.7502144 24.54375,21.5891967 C23.9137645,21.4716507 23.3176241,21.6548603 22.7543155,21.9216693 C21.4413474,22.5432443 20.3857645,23.4802679 19.4983938,24.6174237 C19.3946291,24.7497642 19.2898511,24.8715662 19.1394733,24.9530377 C17.4739688,25.8604722 15.8094775,26.7679067 14.1482289,27.6837518 C13.966134,27.7853886 13.848588,27.7568127 13.7172608,27.6159602 C12.8807592,26.7191657 11.9098904,25.9790315 10.9484455,25.2283587 C9.60477367,24.178045 8.21459007,23.1827551 7.05514108,21.9164 C6.37752918,21.1752525 5.8120926,20.3630708 5.52937431,19.3826767 C5.06770244,17.7795931 5.41294301,16.2866581 6.18165303,14.8678987 C7.09121553,13.1896261 8.44015671,11.893682 9.92772105,10.7395023 C12.2899894,8.90771071 14.8808644,7.45287684 17.6115786,6.25542808 C20.6694961,4.91601218 23.8417169,4.05306273 27.2203525,4.18327528 C28.5587551,4.23515763 29.8578405,4.46700689 31.0501213,5.12242693 C31.8940202,5.58622679 32.4530728,6.25644141 32.6108479,7.24007812 C32.7961854,8.39202849 32.5197498,9.45622472 32.0084249,10.465296 C30.8659998,12.7195437 29.0501174,14.3162433 26.9037891,15.5666891 C25.1164825,16.6074775 23.1884249,17.2682682 21.1479892,17.6144207 C20.0203587,17.8060409 18.8884722,17.9214589 17.7544577,17.7488892 C16.4531429,17.5508851 15.2503235,17.1157624 14.3599129,16.0674754 C14.2571615,15.9467881 14.126949,15.8630873 13.9522514,15.9478015 C13.7732978,16.0346436 13.787079,16.193432 13.8040016,16.3459377 C13.8166682,16.4507158 13.8453454,16.5566085 13.8823318,16.6562185 C14.120565,17.298972 14.5663277,17.783849 15.0882925,18.2074198 C16.4457456,19.3117438 18.0540986,19.6358058 19.7429097,19.6686376 C21.3957477,19.7014694 23.0231512,19.491812 24.6336321,19.1064437 C28.2664102,18.238225 31.3095331,16.4561877 33.530949,13.4025262 C34.8587116,11.5771186 35.6994692,9.56536006 35.6252937,7.26348598 C35.5776673,5.80338281 35.0863049,4.51372128 34.02221,3.46553562 C32.7568683,2.22137247 31.1867178,1.59564292 29.5020614,1.21979986 C27.6257847,0.802613051 25.7305588,0.74333341 23.8161811,0.97204136 C22.1506765,1.17105882 20.523273,1.51204343 18.9392399,2.0573148 C16.5155639,2.89270175 14.1745754,3.91869554 11.9341089,5.166 C9.6386188,6.44289361 7.47536788,7.9052261 5.57801402,9.73691636 C3.89872817,11.3579359 2.45554756,13.1463571 1.64235248,15.3666583 C1.29508525,16.3174632 1.04519876,17.2948173 1.27816268,18.3229391 C1.57679021,19.6464458 2.2289676,20.7921135 3.08664775,21.8255046 C4.38370657,23.3904871 5.97513695,24.6228957 7.61632169,25.8002806 C8.93455905,26.7468295 10.314204,27.6087656 11.5805591,28.6262475 C11.9394795,28.9142351 11.9373516,28.9142351 11.5148955,29.1355457 C11.0215064,29.3928295 10.5227468,29.640588 10.0378697,29.9147943 C8.08235087,31.0203343 6.1923943,32.2188977 4.64960363,33.8845037 C3.89041889,34.705096 3.37473667,35.6263118 3.13447679,36.649063 C4.39019187,38.5253396 5.8842415,40.227932 7.57305262,41.7133683 C10.4541445,41.4889164 12.6596512,39.9895974 14.2891827,37.5098844 C15.0759299,36.3123343 15.4443757,34.9571105 15.5831002,33.5276098 C15.7049021,32.2676388 15.5767162,31.0477955 15.2061425,29.8449761 C15.1415935,29.6331907 14.9012323,29.42252 14.9954717,29.2361691 C15.0833272,29.0646128 15.3481096,28.9777707 15.5428711,28.8655954 C16.3285037,28.4091928 17.1162642,27.9592755 17.9252034,27.4944623 C17.9601631,27.6681466 17.8923716,27.7697833 17.8627824,27.8798307 C17.3989825,29.5814097 17.0760352,31.2966687 17.428673,33.0649246 C17.6478557,34.1661073 18.0131602,35.2026397 18.7076946,36.1143302 C19.4223943,37.0524685 21.0180807,36.9454612 21.6660021,36.0888957 C22.281193,35.2757006 22.6888545,34.3587408 23.1134386,33.446037 C23.3464026,32.946264 23.5602146,32.4380804 23.7826399,31.9329368 C23.7412962,32.5407305 23.7434242,33.1336282 23.7657174,33.7244993 C23.7879092,34.3068585 23.8811353,34.8818203 24.1839175,35.3963879 C24.5481073,36.0147201 25.2332178,36.1947884 25.8695873,35.8643424 C26.5409166,35.5159605 26.9983325,34.9421133 27.3540103,34.319525 C28.8797771,31.6418079 30.2953952,28.9068378 31.4675108,26.0511804 C31.7173973,25.4445014 31.9736677,24.8388357 32.256386,24.1643651 C32.2997564,24.3856758 32.3284336,24.5211576 32.3548814,24.6567408 C32.6153065,26.0173352 33.0791064,27.3048688 33.7504357,28.5150855 C33.8944295,28.7744972 33.8785202,28.9534508 33.6964253,29.2022227 C33.0780931,30.0439936 32.4003798,30.8360101 31.7322932,31.6364373 C31.1711126,32.3098945 30.5707162,32.9536613 30.0963778,33.6948088 C29.6707803,34.3618821 29.9152962,35.0447633 30.6237132,35.1962557 C30.8417813,35.2428688 31.0716039,35.25665 31.2950425,35.2534074 C32.5328217,35.2386128 33.6752468,34.8690524 34.739443,34.2633867 C36.1719837,33.4470503 37.0212532,32.2505136 36.9820375,30.5469079 C36.9640002,29.7718139 36.7543428,29.027525 36.4420354,28.31698 C36.3732305,28.159205 36.3699878,28.0449017 36.4727392,27.8966519 C37.4648879,26.4756631 38.3415172,24.9859708 39.147315,23.4528068 C39.2902955,23.1828564 39.3908176,22.8831142 39.6216535,22.6195478 C39.6523573,22.7264538 39.6766772,22.7932321 39.6904584,22.862037 C39.9467289,24.132648 40.2918681,25.3745818 40.9398909,26.5085963 C41.1177298,26.8188771 41.028861,26.9765508 40.7832305,27.1840802 C39.9372036,27.9030358 39.2236186,28.7415641 38.6634513,29.7019956 C38.2272139,30.4495271 37.9285864,31.2478263 37.931829,32.1235437 C37.9349704,33.0976551 38.6803739,33.6715023 39.6301654,33.4427943 C40.6201861,33.2055744 41.5381592,32.8021689 42.3618929,32.1997459 C44.1565967,30.8857645 44.6828176,29.4997355 44.1206236,27.5652939 C43.9004276,26.8039812 43.9045823,26.8167491 44.668023,26.5859131 C46.3377835,26.0818842 48.031864,26.0607057 49.7344563,26.3381546 C49.9271912,26.3698718 50.117798,26.4059462 50.3061756,26.4471886 C50.4056843,25.8426376 50.4840145,25.230588 50.5391395,24.6111411 C48.361094,24.078739 46.1861898,24.3550733 44.0368215,25.1714097 Z M8.75469347,38.793162 C8.27082973,38.9647183 7.76791544,39.0377792 7.25324655,38.9975501 C6.61262109,38.9466811 6.20607422,38.4946358 6.16473047,37.8147946 C6.11811742,37.03129 6.35006801,36.3239876 6.69307927,35.6357358 C7.31668084,34.3863033 8.36385317,33.5382498 9.43230538,32.7060041 C10.4709658,31.8960517 11.5870443,31.2045572 12.7156882,30.5322146 C13.0576861,30.3289412 13.0629554,30.3310692 13.1412856,30.7387307 C13.2429223,31.2618102 13.3340205,31.785903 13.300074,32.2613562 C13.3891455,35.1126562 11.3181073,37.8857275 8.75469347,38.793162 Z M24.2960928,24.4153663 C24.1161259,25.6171723 23.723259,26.7617254 23.3050588,27.8924972 C22.7353663,29.4363012 22.1805696,30.9874012 21.463742,32.4719256 C21.299583,32.8139235 21.1270133,33.1537934 20.8613189,33.4322557 C20.6104191,33.6959235 20.3879938,33.6652197 20.2144108,33.3432856 C19.8755542,32.7143134 19.9179113,32.0145097 19.8628876,31.5062247 C19.8787969,28.9565921 20.734349,26.8727861 22.1435832,24.9997521 C22.5374635,24.4777872 23.0403778,24.0532031 23.7064377,23.8826602 C24.158483,23.7674449 24.3670257,23.9495398 24.2960928,24.4153663 Z M34.1643798,31.963742 C33.6815294,32.7981156 32.9858803,33.4047946 32.1324561,33.836776 C32.041358,33.8822744 31.9239134,33.9627325 31.8413272,33.8558265 C31.762997,33.7552031 31.8889536,33.6885262 31.9461052,33.6249906 C32.7942601,32.6985055 33.631775,31.7646232 34.3867038,30.7598079 C34.3983571,30.7438987 34.4269329,30.7417707 34.4914818,30.7143095 C34.4840846,31.179224 34.3824478,31.5878989 34.1643798,31.963742 Z M40.0207017,31.9277688 C39.8947452,31.9870485 39.7486234,32.0982105 39.6258081,32.0029577 C39.4903263,31.8981797 39.5442353,31.7128421 39.585579,31.5709763 C39.7783139,30.9240682 40.0377256,30.3046213 40.3955315,29.7275315 C40.6961857,29.2415398 41.0689887,28.8169557 41.4786769,28.4209474 C41.6438493,28.262159 41.7179235,28.2812096 41.7740618,28.5099175 C41.8323281,28.7438948 41.8375974,28.977872 41.8418534,29.2161052 C41.8313148,30.519548 41.1695108,31.3867534 40.0207017,31.9277688 Z" id="Shape"></path>
                    </g>
                </g>
            </g>
        </g>
    </g>
</svg>