<?xml version="1.0" encoding="UTF-8"?>
<svg width="25px" height="54px" viewBox="0 0 25 54" version="1.1" xmlns="http://www.w3.org/2000/svg" xmlns:xlink="http://www.w3.org/1999/xlink">
    <!-- Generator: Sketch 49.3 (51167) - http://www.bohemiancoding.com/sketch -->
    <title>gulp-logo</title>
    <desc>Created with Sketch.</desc>
    <defs></defs>
    <g id="Page-1" stroke="none" stroke-width="1" fill="none" fill-rule="evenodd">
        <g id="Desktop-HD" transform="translate(-951.000000, -4238.000000)" fill="#FFFFFF" fill-rule="nonzero">
            <g id="Welly-coded" transform="translate(-43.000000, 3357.000000)">
                <g id="Logos" transform="translate(772.000000, 881.000000)">
                    <g id="gulp-logo" transform="translate(222.000000, 0.000000)">
                        <path d="M18.8952893,52.3541449 L19.4150822,43.7265477 L20.8503311,41.286053 C20.8503311,41.286053 17.5836911,42.6171625 12.1148036,42.6171625 C6.64582035,42.6171625 3.42869813,41.3106678 3.42869813,41.3106678 L5.03721135,43.9728869 L5.60623464,52.3541449 C5.60623464,53.252682 8.58103589,53.9810141 12.2508099,53.9810141 C15.9203923,53.9810141 18.8952893,53.252682 18.8952893,52.3541449" id="Shape"></path>
                        <path d="M17.2556479,12.0645159 L18.346667,7.76884452 L24.3885047,1.43615194 L22.7960823,0.0851024735 L16.3995748,6.831 L15.1328012,11.9631943 C14.2149507,11.9322827 13.2570645,11.9157774 12.2715939,11.9157774 C5.53487925,11.9157774 0.0736540829,12.6805548 0.0736540829,13.623742 C0.0736540829,14.5670247 5.53487925,15.3317067 12.2715939,15.3317067 C19.0082128,15.3317067 24.4693422,14.5670247 24.4693422,13.623742 C24.4693422,12.9291837 21.5074711,12.3313675 17.2556479,12.0645159" id="Shape"></path>
                        <path d="M16.621016,14.4701873 C16.621016,14.4701873 16.3847291,14.522947 15.6896606,14.5259046 C14.9944005,14.5287668 14.5007553,14.5214205 14.304121,14.3430106 C14.2512509,14.2951166 14.2223257,14.1999965 14.222613,14.1355972 C14.2231877,14.013 14.3105382,13.9407774 14.4218334,13.8955548 L14.5270946,14.0600353 C14.4813122,14.0757774 14.4551645,14.0943816 14.4550687,14.1142261 C14.4546856,14.2073428 15.1659408,14.2710742 15.7099657,14.2642049 C16.2540865,14.2575265 16.9115138,14.2128763 16.9120885,14.1210954 C16.9120885,14.0933322 16.8623792,14.0671908 16.7758907,14.046583 L16.880673,13.8832473 C17.0216597,13.9268481 17.1447358,14.0110919 17.1444484,14.1568728 C17.1431075,14.4047385 16.826462,14.442424 16.621016,14.4701873" id="Shape"></path>
                        <path d="M24.3766281,1.44865018 C24.5285336,1.27386572 24.2979935,0.826791519 23.86172,0.450222615 C23.4252549,0.073844523 22.9482752,-0.0896819788 22.7960823,0.0851024735 C22.644081,0.259886926 22.8747169,0.706961131 23.311182,1.08333922 C23.7474556,1.45981272 24.2246267,1.62353004 24.3766281,1.44865018" id="Shape"></path>
                        <path d="M18.6046957,31.2804064 C18.461506,29.9080813 21.6180959,27.920576 20.8079968,27.8569399 C19.064052,27.956258 18.1961023,29.8927208 17.3186705,31.9208693 C16.9971403,32.6641802 15.8969264,35.8337703 15.1753271,35.4435583 C14.4539194,35.0535371 16.1106095,32.4471307 16.5749463,30.899258 C16.0391583,31.2906148 14.0742513,32.8112968 13.5678675,31.3871661 C12.7537456,32.0759046 11.0141109,32.4490389 11.2103621,30.6398481 C10.7772493,31.404053 9.80518782,32.4709823 8.63840753,32.027629 C7.10613443,31.4455548 9.52627925,26.5835512 10.128059,26.828841 C10.7299345,27.0740353 10.0066111,28.1816078 9.8171602,28.6116996 C9.40052137,29.5582261 8.91923168,30.7481343 9.24076193,30.9917067 C9.79158719,31.4090141 11.2905292,29.4130177 11.3238603,29.3691307 C11.6042056,29.0001943 12.402907,26.5865088 13.0466379,26.8636643 C13.6903689,27.1408198 11.4409981,30.3276784 12.2820338,30.9601272 C12.4516585,31.0877809 13.1456734,30.881417 13.5678675,30.426424 C13.8410293,30.1320954 13.7470701,29.4801837 14.6576414,27.3171307 C15.5682127,25.1541731 16.3797486,22.46047 17.0042279,22.665689 C17.6287073,22.8708127 17.1139907,24.2533463 16.8899635,24.7687314 C15.8386928,27.1876643 14.0208066,31.1839505 14.8781248,30.881417 C15.735443,30.5789788 16.1818691,30.5612332 17.0213724,29.5826502 C17.8608757,28.6040671 17.8221809,26.9921767 18.3817221,27.0264276 C18.9414548,27.0607739 18.8474956,27.5775901 18.7117767,27.9711413 C19.2625062,27.3433675 21.3223302,26.0212261 21.819615,27.3306784 C22.4086561,28.8809364 18.8725897,31.1202191 19.7542358,31.0060177 C20.6138527,30.8946784 22.0064799,30.0160813 22.6010762,29.2172438 L24.2377485,14.5603463 C24.2377485,14.5603463 22.5908278,15.9179788 12.1131754,15.9179788 C1.63542713,15.9179788 0.15889743,14.5885866 0.15889743,14.5885866 L1.55229093,27.9668481 C2.29189668,25.8729647 4.04819697,21.6376855 6.81659438,21.779841 C8.07589722,21.8445265 9.75701096,24.2599293 8.31697307,24.341788 C7.70743525,24.3763251 7.64556199,23.1361378 6.92377113,22.9540071 C6.4029247,22.8225371 5.67778158,23.2443286 5.20913473,23.7013251 C4.27452284,24.6124558 2.2644081,28.2072721 2.53000338,29.9994806 C2.86839074,32.2843675 5.69530915,29.2055088 6.17362968,28.2914205 C6.51048457,27.647523 6.73805557,25.7397774 7.47478796,25.9399399 C8.21161612,26.1401025 7.41052022,28.1089081 6.87645629,29.8495972 C6.27649637,31.8041873 5.96109599,33.8660141 5.20913473,33.6288339 C4.4570777,33.3918445 5.68209164,30.8685371 5.63774594,30.426424 C4.93089662,31.0760459 3.62868477,32.7206608 1.96270412,31.9066537 L2.82806776,40.2144488 C2.82806776,40.2144488 5.12800988,42.0245936 12.0563784,42.0245936 C18.9847469,42.0245936 21.3698366,40.242689 21.3698366,40.242689 L22.4443817,30.6202898 C21.5652259,31.4730318 18.7828447,32.9873216 18.6046957,31.2804064" id="Shape"></path>
                    </g>
                </g>
            </g>
        </g>
    </g>
</svg>