<?xml version="1.0" encoding="UTF-8"?>
<svg width="37px" height="42px" viewBox="0 0 37 42" version="1.1" xmlns="http://www.w3.org/2000/svg" xmlns:xlink="http://www.w3.org/1999/xlink">
    <!-- Generator: Sketch 49.3 (51167) - http://www.bohemiancoding.com/sketch -->
    <title>html5</title>
    <desc>Created with Sketch.</desc>
    <defs></defs>
    <g id="Page-1" stroke="none" stroke-width="1" fill="none" fill-rule="evenodd">
        <g id="Desktop-HD" transform="translate(-729.000000, -4250.000000)" fill="#FFFFFF" fill-rule="nonzero">
            <g id="Welly-coded" transform="translate(1.000000, 3357.000000)">
                <g id="Logos" transform="translate(728.000000, 881.000000)">
                    <g id="html5" transform="translate(0.000000, 12.000000)">
                        <path d="M0.64046078,0 C0.25546078,0 -0.03139922,0.31374 0.00276078003,0.6972 L3.24852078,37.10378 C3.28268078,37.48724 3.61406078,37.88526 3.98520078,37.9883 L17.7585408,41.81254 C18.1295408,41.91558 18.7365808,41.91558 19.1077208,41.81282 L32.9229208,37.98228 C33.2939208,37.87938 33.6257208,37.48136 33.6598808,37.09804 L36.9109608,0.6972 C36.9454008,0.31374 36.6582608,0 36.2732608,0 L0.64046078,0 Z M29.9987408,8.34974 C29.9680808,8.69176 29.9150208,9.2855 29.8808608,9.66896 L29.7953208,10.62418 C29.7608808,11.0075 29.7118808,11.55574 29.6859808,11.84232 C29.6602208,12.12904 29.6357208,12.36354 29.6312408,12.36354 C29.6269008,12.36354 29.3082608,12.36354 28.9232608,12.36354 L19.1568608,12.36354 C18.7718608,12.36354 18.4536408,12.36354 18.4494408,12.36354 C18.4452408,12.36354 18.1267408,12.36354 17.7417408,12.36354 L12.5981408,12.36354 C12.2131408,12.36354 11.9262808,12.67728 11.9604408,13.06074 L12.2604608,16.41444 C12.2946208,16.79776 12.6377608,17.11164 13.0227608,17.11164 L17.7418808,17.11164 C18.1268808,17.11164 18.4453808,17.11164 18.4495808,17.11164 C18.4537808,17.11164 18.7720008,17.11164 19.1570008,17.11164 L27.2684608,17.11164 C27.6534608,17.11164 28.2493008,17.11164 28.5924408,17.11164 C28.9353008,17.11164 29.1906608,17.3915 29.1595808,17.73352 C29.1283608,18.07554 29.0750208,18.66942 29.0408608,19.05274 L28.0761208,29.86466 C28.0416808,30.24812 27.9981408,30.73798 27.9793808,30.9533 C27.9602008,31.16848 27.6411408,31.42874 27.2701408,31.53164 L19.1315208,33.7883 C18.7605208,33.89106 18.4522408,33.97618 18.4465008,33.97744 C18.4407608,33.9787 18.1326208,33.8954 17.7614808,33.7925 L9.61418078,31.53178 C9.24318078,31.42888 8.91166078,31.03086 8.87750078,30.6474 L8.35306078,24.7611 C8.31890078,24.37764 8.60604078,24.0639 8.99104078,24.0639 L9.73458078,24.0639 C10.1195808,24.0639 10.7495808,24.0639 11.1345808,24.0639 L12.2433808,24.0639 C12.6283808,24.0639 12.9712408,24.37764 13.0056808,24.7611 L13.2113408,27.06536 C13.2455008,27.44882 13.5774408,27.8446 13.9492808,27.94498 L17.7602208,28.97412 C18.1317808,29.0745 18.4372608,29.15668 18.4389408,29.15668 C18.4406208,29.15668 18.7459608,29.07436 19.1176608,28.97398 L22.9354608,27.94232 C23.3070208,27.84194 23.6392408,27.44602 23.6736808,27.0627 L24.0876608,22.44606 C24.1221008,22.0626 23.8352408,21.74886 23.4502408,21.74886 L19.1570008,21.74886 C18.7720008,21.74886 18.4537808,21.74886 18.4495808,21.74886 C18.4453808,21.74886 18.1268808,21.74886 17.7418808,21.74886 L8.78342078,21.74886 C8.39842078,21.74886 8.05556078,21.43498 8.02140078,21.05166 L7.00556078,9.66882 C6.97140078,9.28536 6.91834078,8.69176 6.88768078,8.3496 C6.85730078,8.00758 7.14724078,7.72772 7.53224078,7.72772 L17.7418808,7.72772 C18.1268808,7.72772 18.4453808,7.72772 18.4495808,7.72772 C18.4537808,7.72772 18.7720008,7.72772 19.1570008,7.72772 L29.3543208,7.72772 C29.7391808,7.72772 30.0292608,8.00758 29.9987408,8.34974 Z"></path>
                    </g>
                </g>
            </g>
        </g>
    </g>
</svg>