<svg width="12" height="12" viewBox="0 0 12 12" fill="none" xmlns="http://www.w3.org/2000/svg">
<path fill-rule="evenodd" clip-rule="evenodd" d="M6.16295 0.0586444L11.9111 4.77906C12.0889 4.92566 11.9704 5.21885 11.7333 5.21885H10.4V10.9361C10.4 11.0827 10.2815 11.2 10.1333 11.2H7.34814C7.19999 11.2 7.08147 11.0827 7.08147 10.9361V7.62304C7.08147 7.47645 6.99258 7.35917 6.84444 7.35917H5.15555C5.0074 7.35917 4.88888 7.47645 4.88888 7.62304V10.9361C4.88888 11.0827 4.79999 11.2 4.65184 11.2H1.86666C1.71851 11.2 1.59999 11.0827 1.59999 10.9361V5.21885H0.23703C0.0296222 5.21885 -0.0888963 4.92566 0.0888814 4.77906L5.83703 0.0586444C5.92592 -0.0293138 6.07407 -0.0293138 6.16295 0.0586444Z" fill="black"/>
</svg>
