<svg width="950px" height="950px" viewBox="0 0 950 950" version="1.1" xmlns="http://www.w3.org/2000/svg" xmlns:xlink="http://www.w3.org/1999/xlink">
    <!-- Generator: Sketch 47.1 (45422) - http://www.bohemiancoding.com/sketch -->
    <title>floating_bar</title>
    <desc>Created with Sketch.</desc>
    <defs>
        <filter x="-21.4%" y="-21.4%" width="142.7%" height="142.7%" filterUnits="objectBoundingBox" id="filter-1">
            <feGaussianBlur stdDeviation="50" in="SourceGraphic"></feGaussianBlur>
        </filter>
        <filter x="-3.6%" y="-6.3%" width="107.2%" height="112.5%" filterUnits="objectBoundingBox" id="filter-2">
            <feGaussianBlur stdDeviation="6.11787684" in="SourceGraphic"></feGaussianBlur>
        </filter>
        <linearGradient x1="0%" y1="9.88478669%" x2="100%" y2="90.9367638%" id="linearGradient-3">
            <stop stop-color="#2A33FC" offset="0%"></stop>
            <stop stop-color="#59A3FF" offset="100%"></stop>
        </linearGradient>
        <linearGradient x1="100%" y1="87.243914%" x2="0%" y2="10.4814188%" id="linearGradient-4">
            <stop stop-color="#2931FC" offset="0%"></stop>
            <stop stop-color="#59A2FF" offset="100%"></stop>
        </linearGradient>
    </defs>
    <g id="Page-1" stroke="none" stroke-width="1" fill="none" fill-rule="evenodd">
        <g id="floating_bar" transform="translate(124.000000, 124.000000)">
            <circle id="blur" fill="#D9E9FF" filter="url(#filter-1)" cx="351" cy="351" r="351"></circle>
            <g id="shadow">
            <path d="M107.047421,500.330528 L313.454867,619.892044 L313.454867,619.892044 C317.798463,622.408072 323.156659,622.406079 327.498382,619.886821 L613.430718,453.976372 L400.042148,330.434216 L107.047421,500.330528 Z" id="shadows" fill="#3D61FE" opacity="0.100000001" filter="url(#filter-2)" transform="translate(360.239069, 477.197245) scale(-1, 1) translate(-360.239069, -477.197245) "></path>
            </g>
            <g id="grid" transform="translate(98.000000, 225.000000)" stroke="#5495FF" stroke-linecap="square">
                <path d="M6.01967004,173.789954 L206.454867,289.892044 L206.454867,289.892044 C210.798463,292.408072 216.156659,292.406079 220.498382,289.886821 L500.461486,127.439981 L500.461486,127.439981 C502.372258,126.331268 503.022455,123.883491 501.913742,121.972719 C501.563645,121.369357 501.061845,120.868042 500.458145,120.518527 L298.557912,3.6275896 L298.557912,3.6275896 C295.146376,1.65246745 290.938748,1.65389662 287.528554,3.63133584 L6.01808634,166.86837 L6.01808634,166.86837 C4.1069972,167.976537 3.45609995,170.424127 4.56426664,172.335216 C4.91423479,172.938754 5.4159723,173.440262 6.01967004,173.789954 Z" id="Line-2-Copy-2" transform="translate(253.239069, 147.197245) scale(-1, 1) translate(-253.239069, -147.197245) "></path>
                <path d="M319.036875,278.951923 L26.0676959,109 L319.036875,278.951923 Z" id="Line-2-Copy-7" fill="#D8D8D8"></path>
                <path d="M245.036875,142.562372 L31.9943468,18 L245.036875,142.562372 Z" id="Line-2-Copy-13" fill="#D8D8D8" transform="translate(138.515611, 80.281186) scale(-1, 1) translate(-138.515611, -80.281186) "></path>
                <path d="M277.036875,159.562372 L63.9943468,35 L277.036875,159.562372 Z" id="Line-2-Copy-15" fill="#D8D8D8" transform="translate(170.515611, 97.281186) scale(-1, 1) translate(-170.515611, -97.281186) "></path>
                <path d="M307.036875,178.562372 L93.9943468,54 L307.036875,178.562372 Z" id="Line-2-Copy-16" fill="#D8D8D8" transform="translate(200.515611, 116.281186) scale(-1, 1) translate(-200.515611, -116.281186) "></path>
                <path d="M341.036875,197.562372 L127.994347,73 L341.036875,197.562372 Z" id="Line-2-Copy-17" fill="#D8D8D8" transform="translate(234.515611, 135.281186) scale(-1, 1) translate(-234.515611, -135.281186) "></path>
                <path d="M373.036875,216.562372 L159.994347,92 L373.036875,216.562372 Z" id="Line-2-Copy-21" fill="#D8D8D8" transform="translate(266.515611, 154.281186) scale(-1, 1) translate(-266.515611, -154.281186) "></path>
                <path d="M405.036875,233.562372 L191.994347,109 L405.036875,233.562372 Z" id="Line-2-Copy-20" fill="#D8D8D8" transform="translate(298.515611, 171.281186) scale(-1, 1) translate(-298.515611, -171.281186) "></path>
                <path d="M435.036875,252.562372 L221.994347,128 L435.036875,252.562372 Z" id="Line-2-Copy-19" fill="#D8D8D8" transform="translate(328.515611, 190.281186) scale(-1, 1) translate(-328.515611, -190.281186) "></path>
                <path d="M469.036875,271.562372 L255.994347,147 L469.036875,271.562372 Z" id="Line-2-Copy-18" fill="#D8D8D8" transform="translate(362.515611, 209.281186) scale(-1, 1) translate(-362.515611, -209.281186) "></path>
                <path d="M345.036875,263.951923 L52.0676959,94 L345.036875,263.951923 Z" id="Line-2-Copy-8" fill="#D8D8D8"></path>
                <path d="M372.036875,247.951923 L79.0676959,78 L372.036875,247.951923 Z" id="Line-2-Copy-10" fill="#D8D8D8"></path>
                <path d="M398.036875,232.951923 L105.067696,63 L398.036875,232.951923 Z" id="Line-2-Copy-9" fill="#D8D8D8"></path>
                <path d="M427.036875,215.951923 L134.067696,46 L427.036875,215.951923 Z" id="Line-2-Copy-12" fill="#D8D8D8"></path>
                <path d="M453.036875,200.951923 L160.067696,31 L453.036875,200.951923 Z" id="Line-2-Copy-11" fill="#D8D8D8"></path>
                <path d="M481.036875,185.951923 L188.067696,16 L481.036875,185.951923 Z" id="Line-2-Copy-14" fill="#D8D8D8"></path>
            </g>
            <g id="bar">
                <g id="" transform="translate(106.000000, 106.000000)">
                <g id="Group-4">
                    <path d="M-1.36424205e-12,207.896312 L206.407447,327.457828 L206.407447,327.457828 C210.751043,329.973856 216.109238,329.971863 220.450962,327.452605 L506.383298,161.542156 L292.994727,38 L-1.36424205e-12,207.896312 Z" id="Line-2-Copy-5" fill="#0B47A3" transform="translate(253.191649, 184.763029) scale(-1, 1) translate(-253.191649, -184.763029) "></path>
                    <g id="Group-3">
                        <path d="M3.04664023,163.734267 L285.517754,327.661898 L285.517754,327.661898 C287.906125,329.047952 290.965901,328.235412 292.351954,325.847041 C292.794396,325.08465 293.027425,324.218843 293.027425,323.337369 L293.027425,292.008223 L6.06538189,125.54105 L6.06538189,125.54105 C4.15449211,124.432539 1.70678462,125.082996 0.598274183,126.993886 C0.244545298,127.603656 0.0582461932,128.296079 0.0582461932,129.001022 L0.0582461932,158.544833 L0.0582461932,158.544833 C0.0582461932,160.683636 1.19677699,162.660728 3.04664023,163.734267 Z" id="Line-2" fill="url(#linearGradient-3)"></path>
                        <path d="M298.478902,210.84615 L499.529823,327.517776 L499.529823,327.517776 C501.91822,328.903785 504.977981,328.091188 506.363989,325.70279 C506.8064,324.940418 507.039413,324.074641 507.039413,323.1932 L507.039413,291.951923 L300.520735,171.394227 L300.520735,171.394227 C298.13592,170.002064 295.074074,170.806767 293.681911,173.191581 C293.23533,173.956587 293,174.826501 293,175.712317 L293,201.332083 L293,201.332083 C293,205.253296 295.087385,208.878023 298.478902,210.84615 Z" id="Line-2-Copy" fill="url(#linearGradient-4)" transform="translate(400.019706, 249.452765) scale(-1, 1) translate(-400.019706, -249.452765) "></path>
                        <path d="M0.0474205095,170.330528 L206.454867,289.892044 L206.454867,289.892044 C210.798463,292.408072 216.156659,292.406079 220.498382,289.886821 L506.430718,123.976372 L298.557912,3.6275896 L298.557912,3.6275896 C295.146376,1.65246745 290.938748,1.65389662 287.528554,3.63133584 L0.0474205095,170.330528 Z" id="Line-2-Copy-2" fill="#FFFFFF" transform="translate(253.239069, 147.197245) scale(-1, 1) translate(-253.239069, -147.197245) "></path>
                        <path d="M138.123873,176.016749 L148.062747,181.582737 L148.062747,181.582737 C150.529228,182.96402 153.541584,182.941034 155.986698,181.522272 L217.677927,145.726322 L217.677927,145.726322 C219.588699,144.617608 220.238896,142.169832 219.130182,140.25906 C218.769945,139.638222 218.249289,139.125757 217.622817,138.775409 L207.695753,133.223796 L207.695753,133.223796 C205.230646,131.845209 202.221283,131.868638 199.777939,133.285439 L138.071832,169.066424 L138.071832,169.066424 C136.160743,170.174591 135.509845,172.622181 136.618012,174.533271 C136.977861,175.153848 137.497977,175.666233 138.123873,176.016749 Z" id="bar-input" transform="translate(177.875467, 157.405591) scale(-1, 1) translate(-177.875467, -157.405591) "></path>
                        <path d="M217.356446,196.516015 L228.060089,202.712229 L228.060089,202.712229 C230.553492,204.155631 233.630424,204.146843 236.115541,202.689222 L253.085782,192.735492 L253.085782,192.735492 C254.991324,191.617815 255.630015,189.167011 254.512338,187.261468 C254.152414,186.64783 253.635348,186.141283 253.014442,185.794048 L243.168978,180.288069 L243.168978,180.288069 C240.642297,178.875048 237.549361,178.937305 235.081588,180.45086 L217.290964,191.36235 L217.290964,191.36235 C215.878595,192.228595 215.435875,194.075777 216.30212,195.488146 C216.562717,195.913035 216.925073,196.266298 217.356446,196.516015 Z" id="bar-submit"  transform="translate(236.054615, 191.523857) scale(-1, 1) translate(-236.054615, -191.523857) "></path>
                    </g>
                </g>
                <g id="Group-2" transform="translate(203.000000, 85.000000)">
                    <ellipse id="bar-circle" cx="48.5" cy="30.5" rx="48.5" ry="30.5"></ellipse>
                    <polygon id="bar-triangle" points="141 17 141 78 52 32.6427357"></polygon>
                </g>
            </g>
            </g>
        </g>
    </g>
</svg>