<svg width="100" height="20" viewBox="0 0 100 20" fill="none" xmlns="http://www.w3.org/2000/svg">
<path d="M44.659 5.11819V15.5601H40.9398V14.1418C40.6333 14.6352 40.1876 15.0257 39.6026 15.3135C39.0175 15.5875 38.3768 15.7246 37.6803 15.7246C36.7749 15.7246 35.967 15.5053 35.2566 15.0668C34.5462 14.6283 33.989 14.0048 33.585 13.1963C33.195 12.3741 33 11.4286 33 10.3597C33 9.27715 33.202 8.31792 33.6059 7.48202C34.0099 6.64611 34.5671 5.9952 35.2775 5.52929C35.9879 5.06338 36.7888 4.83042 37.6803 4.83042C38.3768 4.83042 39.0106 4.98116 39.5817 5.28263C40.1667 5.5704 40.6194 5.96095 40.9398 6.45427V5.11819H44.659ZM38.8504 12.9496C39.519 12.9496 40.0344 12.7235 40.3965 12.2713C40.7587 11.8191 40.9398 11.1682 40.9398 10.3186C40.9398 9.45529 40.7587 8.79753 40.3965 8.34532C40.0344 7.87941 39.519 7.64646 38.8504 7.64646C38.1957 7.64646 37.6803 7.88626 37.3042 8.36588C36.9281 8.83179 36.7401 9.4964 36.7401 10.3597C36.7401 11.1956 36.9211 11.8397 37.2833 12.2919C37.6455 12.7304 38.1678 12.9496 38.8504 12.9496Z" fill="black"/>
<path d="M47.5335 15.5601V5.11819H51.3154V15.5601H47.5335ZM47.4291 0H51.3781V3.35046H47.4291V0Z" fill="black"/>
<path d="M60.9071 4.87153C61.4225 4.87153 61.8195 4.9469 62.0981 5.09764V8.48921C61.4991 8.21514 60.9211 8.07811 60.3639 8.07811C58.7759 8.07811 57.9819 8.82494 57.9819 10.3186V15.5601H54.2001V8.11922C54.2001 6.99555 54.1444 5.9952 54.0329 5.11819H57.585L57.8148 6.86537C58.0655 6.22131 58.4695 5.72799 59.0267 5.38541C59.5838 5.04282 60.2107 4.87153 60.9071 4.87153Z" fill="black"/>
<path d="M71.1954 12.7235C71.4461 12.7235 71.7804 12.6824 72.1983 12.6002V15.4162C71.6829 15.6218 71.0282 15.7246 70.2343 15.7246C68.7995 15.7246 67.7061 15.3272 66.9539 14.5324C66.2156 13.7376 65.8465 12.6345 65.8465 11.223V7.85201H63.8615V5.11819H65.8465V2.75437L69.6283 1.56218V5.11819H72.1774V7.85201H69.6283V11.223C69.6283 11.7163 69.7746 12.0932 70.0671 12.3535C70.3736 12.6002 70.7497 12.7235 71.1954 12.7235Z" fill="black"/>
<path d="M85.4247 5.11819V15.5601H81.7055V14.1418C81.3991 14.6352 80.9533 15.0257 80.3683 15.3135C79.7832 15.5875 79.1425 15.7246 78.446 15.7246C77.5406 15.7246 76.7327 15.5053 76.0223 15.0668C75.3119 14.6283 74.7547 14.0048 74.3507 13.1963C73.9607 12.3741 73.7657 11.4286 73.7657 10.3597C73.7657 9.27715 73.9677 8.31792 74.3716 7.48202C74.7756 6.64611 75.3328 5.9952 76.0432 5.52929C76.7536 5.06338 77.5545 4.83042 78.446 4.83042C79.1425 4.83042 79.7763 4.98116 80.3474 5.28263C80.9324 5.5704 81.3851 5.96095 81.7055 6.45427V5.11819H85.4247ZM79.6161 12.9496C80.2847 12.9496 80.8001 12.7235 81.1623 12.2713C81.5244 11.8191 81.7055 11.1682 81.7055 10.3186C81.7055 9.45529 81.5244 8.79753 81.1623 8.34532C80.8001 7.87941 80.2847 7.64646 79.6161 7.64646C78.9614 7.64646 78.446 7.88626 78.0699 8.36588C77.6938 8.83179 77.5058 9.4964 77.5058 10.3597C77.5058 11.1956 77.6869 11.8397 78.049 12.2919C78.4112 12.7304 78.9335 12.9496 79.6161 12.9496Z" fill="black"/>
<path d="M95.2988 4.83042C96.2042 4.83042 97.0121 5.06338 97.7225 5.52929C98.4329 5.9952 98.9901 6.64611 99.3941 7.48202C99.798 8.31792 100 9.27715 100 10.3597C100 11.4286 99.798 12.3741 99.3941 13.1963C99.004 14.0048 98.4538 14.6283 97.7434 15.0668C97.033 15.5053 96.2181 15.7246 95.2988 15.7246C94.6023 15.7246 93.9685 15.5944 93.3974 15.334C92.8263 15.06 92.3875 14.6831 92.0811 14.2035V20H88.2992V8.11922C88.2992 6.99555 88.2435 5.9952 88.1321 5.11819H91.6841L91.8931 6.74204C92.1577 6.1665 92.5965 5.70743 93.2094 5.36485C93.8223 5.00856 94.5188 4.83042 95.2988 4.83042ZM94.1496 12.9496C94.8322 12.9496 95.3476 12.7304 95.6958 12.2919C96.044 11.8534 96.2182 11.2093 96.2182 10.3597C96.2182 9.4964 96.0371 8.83179 95.6749 8.36588C95.3267 7.88626 94.8182 7.64646 94.1496 7.64646C93.4671 7.64646 92.9447 7.87256 92.5826 8.32477C92.2204 8.77698 92.0393 9.44159 92.0393 10.3186C92.0393 11.1682 92.2204 11.8191 92.5826 12.2713C92.9447 12.7235 93.4671 12.9496 94.1496 12.9496Z" fill="black"/>
<path d="M7.5 20C11.6421 20 15 16.6421 15 12.5C15 8.35786 11.6421 5 7.5 5C3.35786 5 0 8.35786 0 12.5C0 16.6421 3.35786 20 7.5 20Z" fill="#173BEF"/>
<path fill-rule="evenodd" clip-rule="evenodd" d="M14.5006 0L23 13H6L14.5006 0Z" fill="#ADBBFF"/>
</svg>
