<svg width="62" height="16" viewBox="0 0 62 16" fill="none" xmlns="http://www.w3.org/2000/svg">
<path d="M1.05895 9.04186C0.474108 8.45702 0.474108 7.5088 1.05895 6.92396L6.9239 1.05901C7.50874 0.47417 8.45696 0.47417 9.0418 1.05901L14.9067 6.92396C15.4916 7.5088 15.4916 8.45702 14.9067 9.04186L9.0418 14.9068C8.45696 15.4917 7.50874 15.4917 6.9239 14.9068L1.05895 9.04186Z" fill="url(#paint0_linear)"/>
<mask id="mask0" mask-type="alpha" maskUnits="userSpaceOnUse" x="0" y="0" width="16" height="17">
<path d="M1.05895 9.07653C0.474108 8.49169 0.474108 7.54347 1.05895 6.95863L6.9239 1.09368C7.50874 0.508838 8.45696 0.508838 9.0418 1.09368L14.9067 6.95863C15.4916 7.54347 15.4916 8.49169 14.9067 9.07653L9.0418 14.9415C8.45696 15.5263 7.50874 15.5263 6.9239 14.9415L1.05895 9.07653Z" fill="url(#paint1_linear)"/>
</mask>
<g mask="url(#mask0)">
<path d="M3.45584 7.23486C2.36145 7.23486 1.49747 7.46526 0.633476 7.98365C-0.0769143 8.34845 -1.52074 9.07804 -1.61289 9.07804C-1.70505 9.07804 3.91663 15.5292 6.739 18.7547L17.4525 9.59643L15.2637 7.58046C14.4573 7.86846 12.8977 8.93581 11.0013 9.07804C8.69737 9.25084 6.04781 7.23486 3.45584 7.23486Z" fill="url(#paint2_linear)"/>
</g>
<path d="M20.3619 5.06559V12.3262H22.9608V5.06559H20.3619ZM20.1995 2.04439C20.1995 2.85654 20.8492 3.50626 21.6613 3.50626C22.4735 3.50626 23.1232 2.85654 23.1232 2.04439C23.1232 1.23224 22.4735 0.58252 21.6613 0.58252C20.8492 0.58252 20.1995 1.23224 20.1995 2.04439Z" fill="#333435"/>
<path d="M29.0771 7.19342V5.06559H27.599V2.67787H25.0002V5.06559H24.1718V7.19342H25.0002V12.3262H27.599V7.19342H29.0771Z" fill="#333435"/>
<path d="M30.0538 12.3262H32.6526V8.7365C32.6526 8.2817 32.6526 7.58325 33.1074 7.14469C33.3186 6.93353 33.546 6.8848 33.8221 6.8848C34.082 6.8848 34.3744 6.93353 34.6018 7.17717C34.8942 7.48579 34.9429 8.03805 34.9429 8.7365V12.3262H37.5418V8.60656C37.5418 8.24921 37.5743 7.64822 38.0128 7.2259C38.2402 7.01474 38.4839 6.93353 38.7762 6.93353C39.1173 6.93353 39.3123 7.04723 39.4584 7.17717C39.7508 7.4533 39.832 7.97308 39.832 8.7365V12.3262H42.4309V7.59949C42.4309 7.09596 42.3984 6.23508 41.7487 5.6016C41.1477 5.01686 40.2706 4.93564 39.7346 4.93564C39.2473 4.93564 38.7438 5.00061 38.224 5.29299C37.8991 5.47166 37.5255 5.78028 37.2332 6.30005C37.0545 5.94271 36.7621 5.53663 36.2261 5.2605C35.8363 5.04934 35.349 4.93564 34.8292 4.93564C34.1145 4.93564 33.2699 5.19553 32.6526 5.94271V5.06559H30.0538V12.3262Z" fill="#333435"/>
<path d="M51.9338 8.89893C51.9338 8.08678 51.8039 6.81983 50.7806 5.84525C49.9197 5.0331 48.8314 4.85443 47.9868 4.85443C46.5574 4.85443 45.6153 5.32547 45.0143 5.91022C44.3808 6.52745 43.926 7.50203 43.926 8.72026C43.926 10.1009 44.527 10.9943 44.9981 11.4653C45.8914 12.3587 47.0447 12.5698 48.003 12.5698C49.5786 12.5698 50.4232 12.0826 50.9592 11.5628C51.4953 11.043 51.7227 10.4745 51.8364 10.0684H49.3512C49.2375 10.2958 49.0588 10.4583 48.8964 10.5557C48.5715 10.7344 48.1167 10.7506 48.0517 10.7506C47.467 10.7506 47.1421 10.5557 46.9797 10.3933C46.6711 10.0847 46.5249 9.56489 46.5249 9.17506H51.9338V8.89893ZM46.6061 7.68071C46.6549 7.35585 46.8173 7.09596 46.996 6.90104C47.2721 6.62491 47.6132 6.51121 48.0517 6.51121C48.3116 6.51121 48.7827 6.55994 49.1238 6.90104C49.3187 7.09596 49.4811 7.40457 49.5461 7.68071H46.6061Z" fill="#333435"/>
<path d="M57.5118 7.03099C57.9178 7.03099 58.3726 7.2259 58.665 7.50203C58.9899 7.82689 59.1685 8.29794 59.1685 8.68777C59.1685 9.11009 58.9899 9.53241 58.665 9.84102C58.3564 10.1496 57.9341 10.3283 57.5118 10.3283C57.0732 10.3283 56.6509 10.1496 56.3423 9.84102C56.0499 9.54865 55.8387 9.12633 55.8387 8.68777C55.8387 8.26545 56.0174 7.81065 56.3423 7.50203C56.6346 7.2259 57.0894 7.03099 57.5118 7.03099ZM61.8649 8.68777C61.8649 7.38833 61.2801 6.5437 60.7441 6.02392C60.1431 5.45542 59.1036 4.82194 57.4955 4.82194C55.92 4.82194 54.8642 5.43917 54.2632 6.02392C53.7271 6.5437 53.1424 7.38833 53.1424 8.68777C53.1424 9.66235 53.4673 10.5882 54.2632 11.3679C55.2702 12.3587 56.4397 12.5698 57.4955 12.5698C58.665 12.5698 59.7858 12.31 60.7441 11.3679C61.54 10.5882 61.8649 9.66235 61.8649 8.68777Z" fill="#333435"/>
<defs>
<linearGradient id="paint0_linear" x1="7.96038" y1="13.3851" x2="7.96038" y2="3.26194" gradientUnits="userSpaceOnUse">
<stop stop-color="#009EFD"/>
<stop offset="1" stop-color="#2AF598"/>
</linearGradient>
<linearGradient id="paint1_linear" x1="7.96038" y1="13.4198" x2="7.96038" y2="3.29661" gradientUnits="userSpaceOnUse">
<stop stop-color="#009EFD"/>
<stop offset="1" stop-color="#2AF598"/>
</linearGradient>
<linearGradient id="paint2_linear" x1="15.4941" y1="14.3196" x2="-2.47688" y2="9.07804" gradientUnits="userSpaceOnUse">
<stop stop-color="#00C1FF"/>
<stop offset="1" stop-color="#0024FF"/>
</linearGradient>
</defs>
</svg>
