<svg fill="none" height="56" viewBox="0 0 140 56" width="140" xmlns="http://www.w3.org/2000/svg" xmlns:xlink="http://www.w3.org/1999/xlink"><filter id="a" color-interpolation-filters="sRGB" filterUnits="userSpaceOnUse" height="4.969" width="6.049" x="73.827" y="12.531"><feFlood flood-opacity="0" result="BackgroundImageFix"/><feColorMatrix in="SourceAlpha" type="matrix" values="0 0 0 0 0 0 0 0 0 0 0 0 0 0 0 0 0 0 127 0"/><feOffset dy=".648"/><feColorMatrix type="matrix" values="0 0 0 0 0 0 0 0 0 0 0 0 0 0 0 0 0 0 0.06 0"/><feBlend in2="BackgroundImageFix" mode="normal" result="effect1_dropShadow"/><feBlend in="SourceGraphic" in2="effect1_dropShadow" mode="normal" result="shape"/></filter><linearGradient id="b" gradientUnits="userSpaceOnUse" x1="73.827" x2="73.827" y1="12.531" y2="16.852"><stop offset="0" stop-color="#fff"/><stop offset="1" stop-color="#f0f0f0"/></linearGradient><mask id="c" height="14" maskUnits="userSpaceOnUse" width="20" x="72" y="11"><rect fill="#fff" height="12.963" rx="1.296" width="18.148" x="72.963" y="11.667"/></mask><rect fill="#fff" height="55.093" rx="2.593" width="140"/><path d="m110.495 12.505c-.273-.2733-.717-.2733-.99 0l-4.455 4.4548c-.273.2734-.273.7166 0 .9899.274.2734.717.2734.99 0l3.96-3.9598 3.96 3.9598c.273.2734.716.2734.99 0 .273-.2733.273-.7165 0-.9899zm.205 13.495v-13h-1.4v13z" fill="#23e662"/><rect fill="#fff" height="12.963" rx="1.296" width="18.148" x="72.963" y="11.667"/><g mask="url(#c)"><path clip-rule="evenodd" d="m91.1112 11.6667h-18.1481v.8642h18.1481zm0 1.7285h-18.1482v.8642h18.1482zm-18.1482 1.7283h18.1482v.8642h-18.1482zm18.1482 1.7284h-18.1482v.8642h18.1482zm-18.1482 1.7285h18.1482v.8642h-18.1482zm18.1482 1.7283h-18.1482v.8642h18.1482zm-18.1482 1.7284h18.1482v.8642h-18.1482zm18.1482 1.7285h-18.1482v.8642h18.1482z" fill="#d02f44" fill-rule="evenodd"/><path d="m72.963 11.6667h7.77778v6.04938h-7.77778z" fill="#46467f"/><g filter="url(#a)"><path clip-rule="evenodd" d="m76.4198 12.9629c0 .2386-.1935.4321-.4321.4321-.2387 0-.4321-.1935-.4321-.4321 0-.2387.1934-.4321.4321-.4321.2386 0 .4321.1934.4321.4321zm-1.7285.0002c0 .2386-.1934.4321-.4321.4321-.2386 0-.4321-.1935-.4321-.4321 0-.2387.1935-.4321.4321-.4321.2387 0 .4321.1934.4321.4321zm3.0248.4319c.2386 0 .4321-.1935.4321-.4321 0-.2387-.1935-.4321-.4321-.4321s-.4321.1934-.4321.4321c0 .2386.1935.4321.4321.4321zm2.1605-.4321c0 .2386-.1935.4321-.4321.4321-.2387 0-.4321-.1935-.4321-.4321 0-.2387.1934-.4321.4321-.4321.2386 0 .4321.1934.4321.4321zm-4.7531 1.2962c.2387 0 .4321-.1935.4321-.4321s-.1934-.4321-.4321-.4321c-.2386 0-.4321.1935-.4321.4321s.1935.4321.4321.4321zm2.1605-.4321c0 .2386-.1935.4321-.4321.4321-.2387 0-.4321-.1935-.4321-.4321s.1934-.4321.4321-.4321c.2386 0 .4321.1935.4321.4321zm1.2962.4321c.2387 0 .4321-.1935.4321-.4321s-.1934-.4321-.4321-.4321c-.2386 0-.4321.1935-.4321.4321s.1935.4321.4321.4321zm1.2964.4322c0 .2386-.1935.4321-.4321.4321-.2387 0-.4321-.1935-.4321-.4321s.1934-.4321.4321-.4321c.2386 0 .4321.1935.4321.4321zm-2.1605.4321c.2386 0 .4321-.1935.4321-.4321s-.1935-.4321-.4321-.4321-.4321.1935-.4321.4321.1935.4321.4321.4321zm-1.2963-.4321c0 .2386-.1935.4321-.4321.4321-.2387 0-.4321-.1935-.4321-.4321s.1934-.4321.4321-.4321c.2386 0 .4321.1935.4321.4321zm-2.1605.4321c.2386 0 .4321-.1935.4321-.4321s-.1935-.4321-.4321-.4321c-.2387 0-.4321.1935-.4321.4321s.1934.4321.4321.4321zm1.2963.4321c0 .2386-.1934.4321-.4321.4321-.2386 0-.4321-.1935-.4321-.4321 0-.2387.1935-.4321.4321-.4321.2387 0 .4321.1934.4321.4321zm1.2963.4321c.2386 0 .4321-.1935.4321-.4321 0-.2387-.1935-.4321-.4321-.4321-.2387 0-.4321.1934-.4321.4321 0 .2386.1934.4321.4321.4321zm2.1604-.4321c0 .2386-.1934.4321-.4321.4321-.2386 0-.4321-.1935-.4321-.4321 0-.2387.1935-.4321.4321-.4321.2387 0 .4321.1934.4321.4321zm.4322 1.2962c.2386 0 .4321-.1935.4321-.4321s-.1935-.4321-.4321-.4321c-.2387 0-.4321.1935-.4321.4321s.1934.4321.4321.4321zm-1.2963-.4321c0 .2386-.1935.4321-.4321.4321s-.4321-.1935-.4321-.4321.1935-.4321.4321-.4321.4321.1935.4321.4321zm-2.1605.4321c.2386 0 .4321-.1935.4321-.4321s-.1935-.4321-.4321-.4321c-.2387 0-.4321.1935-.4321.4321s.1934.4321.4321.4321zm-1.2963-.4321c0 .2386-.1935.4321-.4321.4321-.2387 0-.4321-.1935-.4321-.4321s.1934-.4321.4321-.4321c.2386 0 .4321.1935.4321.4321z" fill="url(#b)" fill-rule="evenodd"/></g></g><path d="m25.7289 20.4041c0 .7139-.1452 1.3551-.4355 1.9237-.2904.5566-.6836 1.0284-1.1797 1.4156-.496.3871-1.0707.6896-1.7241.9074-.6533.2057-1.3429.3085-2.0688.3085-.726 0-1.4156-.1028-2.0689-.3085-.6534-.2178-1.2341-.5203-1.7423-.9074-.496-.3872-.8892-.859-1.1796-1.4156-.2904-.5686-.4355-1.2098-.4355-1.9237 0-.375.0423-.7138.127-1.0163.0968-.3145.2117-.6049.3448-.8711s.2783-.5142.4356-.7441c.1573-.2298.3085-.4476.4537-.6533l3.4663-4.6822c.0605-.0605.127-.1331.1996-.2178.0726-.0968.1936-.1452.363-.1452h2.8855c.1089 0 .1936.0424.2541.1271.0726.0726.1089.1633.1089.2722 0 .0605-.0121.1089-.0363.1452-.0121.0363-.0303.0665-.0545.0907l-2.3592 3.1941c.6412.0726 1.2401.2299 1.7966.4718.5687.2299 1.0647.5384 1.4882.9256.4235.3751.7562.8288.9981 1.3611.242.5203.363 1.101.363 1.7422zm-7.477 0c0 .2662.0605.5021.1815.7078.1209.2057.2782.3811.4718.5263.1936.1331.4114.2359.6533.3085.2541.0726.5082.1089.7623.1089.254 0 .5021-.0363.744-.1089.2541-.0726.4719-.1754.6534-.3085.1935-.1452.3508-.3206.4718-.5263s.1815-.4416.1815-.7078c0-.2661-.0605-.5021-.1815-.7077-.121-.2057-.2783-.3751-.4718-.5082-.1815-.1452-.3993-.2541-.6534-.3267-.2419-.0726-.49-.1089-.744-.1089-.2541 0-.5082.0363-.7623.1089-.2419.0726-.4597.1815-.6533.3267-.1936.1331-.3509.3025-.4718.5082-.121.2056-.1815.4416-.1815.7077zm9.1702 1.7241c.0242-.1694.0968-.3267.2178-.4718.1331-.1573.3206-.236.5626-.236h2.2322c.1089 0 .1996.0424.2722.1271.0847.0726.1271.1633.1271.2722 0 .0484-.0061.0907-.0182.127l-1.4155 3.6115c-.0484.121-.1331.248-.2541.3811-.1089.1331-.2843.1996-.5263.1996h-1.3611c-.1089 0-.2057-.0423-.2904-.127-.0726-.0726-.1089-.1633-.1089-.2722v-.0363zm10.263-10.2356c.9074 0 1.6878.1331 2.3411.3993s1.1917.6231 1.6152 1.0707c.4355.4477.7562.974.9618 1.5789.2178.5929.3448 1.216.3811 1.8693.0242.5202.0363 1.0647.0363 1.6333 0 .5687-.0121 1.101-.0363 1.5971-.0363.6533-.1633 1.2824-.3811 1.8874-.2056.5928-.5263 1.1131-.9618 1.5607-.4235.4477-.9619.8046-1.6152 1.0708-.6533.2661-1.4337.3992-2.3411.3992s-1.6878-.1331-2.3411-.3992c-.6534-.2662-1.1978-.6231-1.6334-1.0708-.4234-.4476-.744-.9679-.9618-1.5607-.2057-.605-.3267-1.2341-.363-1.8874-.0242-.4961-.0363-1.0284-.0363-1.5971 0-.5686.0121-1.1131.0363-1.6333.0363-.6533.1573-1.2764.363-1.8693.2178-.6049.5384-1.1312.9618-1.5789.4356-.4476.98-.8045 1.6334-1.0707.6533-.2662 1.4337-.3993 2.3411-.3993zm1.9418 8.0578c.0484-1.0284.0484-2.0447 0-3.0489-.0242-.3024-.0726-.5807-.1451-.8348-.0605-.2541-.1634-.4718-.3086-.6533-.1452-.1936-.3387-.3448-.5807-.4537s-.5445-.1633-.9074-.1633c-.363 0-.6654.0544-.9074.1633s-.4356.2601-.5808.4537c-.1451.1815-.254.3992-.3266.6533s-.115.5324-.1271.8348c-.0605 1.0042-.0605 2.0205 0 3.0489.0121.3025.0484.5808.1089.8348.0726.2541.1815.4779.3267.6715.1573.1815.3569.3267.5989.4356s.5444.1633.9074.1633c.3629 0 .6654-.0544.9074-.1633s.4355-.2541.5807-.4356c.1573-.1936.2662-.4174.3267-.6715.0726-.254.1149-.5323.127-.8348zm4.7665-3.7929c-.0847-.1089-.1149-.2299-.0907-.363s.0907-.242.1996-.3267l3.9019-2.9944c.0968-.0726.2117-.1573.3448-.2541.1452-.0968.3085-.1452.49-.1452h2.2141c.133 0 .248.0484.3448.1452s.1452.2117.1452.3448v11.7237c0 .1331-.0484.2481-.1452.3448-.0968.0968-.2118.1452-.3448.1452h-2.3775c-.133 0-.248-.0484-.3448-.1452-.0968-.0967-.1452-.2117-.1452-.3448v-7.9307l-2.1596 1.6333c-.1089.0847-.2299.121-.3629.1089-.1331-.0242-.242-.0907-.3267-.1996zm19.1662-4.0834c.1331 0 .248.0484.3448.1452s.1452.2117.1452.3448v1.9237c0 .1331-.0423.2541-.127.363s-.1634.1996-.2359.2722l-2.196 2.2141c.9437.242 1.712.6533 2.3048 1.2341.5929.5686.8893 1.3248.8893 2.2685 0 1.3671-.4718 2.3955-1.4156 3.0852-.9437.6896-2.2624 1.0344-3.9562 1.0344-.8712 0-1.6455-.1028-2.323-.3085-.6654-.2057-1.228-.4779-1.6878-.8167-.4597-.3387-.8167-.7198-1.0707-1.1433-.242-.4356-.369-.8772-.3811-1.3248 0-.1089.0363-.1996.1088-.2722.0847-.0847.1815-.1271.2904-.1271h2.2867c.2541 0 .4476.0605.5807.1815.1331.1089.2783.2299.4356.363.1694.1331.3811.2601.6352.3811.2661.1089.6412.1633 1.1252.1633.5807 0 1.0586-.0968 1.4337-.2904.3871-.1935.5807-.5021.5807-.9255 0-.4235-.1936-.732-.5807-.9256-.3751-.1936-.853-.2903-1.4337-.2903h-1.5063c-.1331 0-.2481-.0484-.3449-.1452-.0967-.0968-.1451-.2118-.1451-.3448v-1.5608c0-.1331.0423-.2541.127-.3629.0847-.1089.1694-.2057.2541-.2904l1.9237-1.9419h-4.7367c-.1331 0-.248-.0484-.3448-.1452-.0968-.0967-.1452-.2117-.1452-.3448v-1.9237c0-.1331.0484-.248.1452-.3448s.2117-.1452.3448-.1452z" fill="#171725"/><g fill="#696974"><path d="m19.6221 38.9445c.0665 0 .124.0242.1724.0726s.0726.1059.0726.1724v3.6296c0 .3751-.0484.7199-.1452 1.0345-.0907.3085-.2359.5777-.4356.8076-.1935.2298-.4446.4083-.7531.5353-.3085.1271-.6775.1906-1.107.1906-.4356 0-.8076-.0635-1.1162-.1906-.3085-.127-.5625-.3055-.7622-.5353-.1936-.2299-.3357-.4991-.4265-.8076-.0907-.3146-.1361-.6594-.1361-1.0345v-3.6296c0-.0665.0242-.124.0726-.1724s.1059-.0726.1724-.0726h.3721c.0665 0 .124.0242.1724.0726s.0726.1059.0726.1724v3.675c0 .5928.1391 1.0345.4174 1.3248.2782.2843.6654.4265 1.1615.4265.496 0 .8832-.1422 1.1614-.4265.2844-.2903.4265-.732.4265-1.3248v-3.675c0-.0665.0242-.124.0726-.1724s.1059-.0726.1724-.0726z"/><path d="m24.0265 43.9897c0-.1149-.0333-.2087-.0998-.2813-.0605-.0786-.1543-.1452-.2813-.1996-.127-.0545-.2904-.1059-.49-.1543-.1936-.0484-.4204-.0998-.6806-.1543-.49-.1028-.8348-.2722-1.0344-.5081-.1936-.242-.2904-.5233-.2904-.8439 0-.1815.0363-.3539.1089-.5172s.1815-.3085.3267-.4356c.1452-.127.3266-.2268.5444-.2994.2238-.0726.484-.1089.7804-.1089s.5535.0333.7713.0998c.2238.0666.4113.1512.5626.2541.1512.1028.2662.2147.3448.3357.0786.115.121.2269.127.3358.0061.0665-.0181.124-.0726.1724-.0484.0484-.1058.0726-.1724.0726h-.2994c-.0363 0-.0817-.0061-.1361-.0182-.0484-.0181-.0938-.0544-.1361-.1089-.0787-.1028-.1966-.1875-.3539-.254-.1513-.0726-.363-.1089-.6352-.1089-.2783 0-.5051.0514-.6806.1542-.1693.1029-.254.245-.254.4265 0 .1149.0242.2087.0726.2813.0483.0665.127.127.2359.1815.1089.0484.251.0938.4265.1361.1814.0423.4053.0938.6714.1543.2783.0605.5112.1391.6987.2359.1876.0907.3388.1966.4537.3176.115.1149.1967.245.245.3902.0484.1391.0726.2873.0726.4446 0 .1815-.0453.3569-.1361.5263-.0847.1694-.2087.3176-.372.4446-.1633.1271-.363.2299-.5989.3085-.2299.0787-.493.118-.7894.118-.2965 0-.5596-.0363-.7895-.1089s-.4265-.1603-.5898-.2631c-.1633-.1089-.2904-.2239-.3811-.3449-.0847-.127-.1301-.245-.1361-.3538-.0061-.0666.0151-.1241.0635-.1725.0484-.0483.1089-.0725.1815-.0725h.3266c.0363 0 .0787.006.1271.0181.0484.0061.0937.0393.1361.0998.0968.1331.2299.2359.3993.3085.1693.0726.3901.1089.6624.1089.133 0 .2631-.0151.3901-.0453.1331-.0303.2481-.0726.3449-.1271.1028-.0544.1845-.1179.245-.1905.0605-.0787.0907-.1634.0907-.2541z"/><path d="m25.7778 42.4834c.0242-.2783.0908-.5384.1996-.7804.1089-.242.2511-.4537.4265-.6352.1755-.1814.3842-.3236.6261-.4264.2481-.1029.5233-.1543.8258-.1543.3266 0 .617.0544.8711.1633.2601.1029.4809.2541.6624.4537.1815.1997.3206.4416.4174.726.0968.2843.1452.6019.1452.9527v.245c0 .0666-.0242.1241-.0726.1724-.0484.0484-.1059.0726-.1724.0726h-3.1215v.0545c.0121.4113.1361.7289.372.9528.242.2177.5415.3266.8984.3266.3327 0 .5807-.0453.7441-.1361.1693-.0968.3054-.2026.4083-.3176.0484-.0484.0907-.0816.127-.0998.0363-.0181.0908-.0272.1634-.0272h.2722c.0665 0 .127.0242.1815.0726.0544.0484.0756.1058.0635.1724-.0182.1089-.0696.2299-.1543.3629-.0847.1271-.2087.2481-.372.363-.1573.1089-.3569.2027-.5989.2813-.2359.0726-.5142.1089-.8348.1089-.3025 0-.5747-.0514-.8167-.1543-.242-.1088-.4537-.254-.6352-.4355-.1754-.1875-.3176-.4053-.4265-.6534-.1088-.254-.1754-.5293-.1996-.8257-.0302-.2783-.0302-.5565 0-.8348zm.8076.0272h2.5498v-.0272c0-.369-.1179-.6624-.3539-.8802-.2298-.2238-.5384-.3357-.9255-.3357-.1755 0-.3388.0302-.49.0907-.1513.0545-.2843.1361-.3993.245-.1149.1028-.2057.2299-.2722.3811-.0665.1513-.1028.3176-.1089.4991z"/><path d="m33.507 40.5778c.0665 0 .124.0242.1724.0726s.0726.1059.0726.1724v.2904c0 .0666-.0242.124-.0726.1724s-.1059.0726-.1724.0726h-.5263c-.6957 0-1.0436.3478-1.0436 1.0435v2.6497c0 .0665-.0241.124-.0725.1724s-.1059.0726-.1724.0726h-.3358c-.0665 0-.124-.0242-.1724-.0726s-.0726-.1059-.0726-.1724v-4.2286c0-.0665.0242-.124.0726-.1724s.1059-.0726.1724-.0726h.3358c.0665 0 .124.0242.1724.0726s.0725.1059.0725.1724v.2813c.121-.1814.2662-.3145.4356-.3992s.3902-.1271.6624-.1271z"/><path d="m37.2915 43.9897c0-.1149-.0333-.2087-.0998-.2813-.0605-.0786-.1543-.1452-.2813-.1996-.127-.0545-.2904-.1059-.49-.1543-.1936-.0484-.4204-.0998-.6806-.1543-.49-.1028-.8348-.2722-1.0344-.5081-.1936-.242-.2904-.5233-.2904-.8439 0-.1815.0363-.3539.1089-.5172s.1815-.3085.3267-.4356c.1452-.127.3267-.2268.5444-.2994.2239-.0726.484-.1089.7804-.1089s.5535.0333.7713.0998c.2238.0666.4114.1512.5626.2541.1512.1028.2662.2147.3448.3357.0786.115.121.2269.127.3358.0061.0665-.0181.124-.0726.1724-.0483.0484-.1058.0726-.1724.0726h-.2994c-.0363 0-.0817-.0061-.1361-.0182-.0484-.0181-.0938-.0544-.1361-.1089-.0787-.1028-.1966-.1875-.3539-.254-.1512-.0726-.363-.1089-.6352-.1089-.2783 0-.5051.0514-.6806.1542-.1693.1029-.254.245-.254.4265 0 .1149.0242.2087.0726.2813.0484.0665.127.127.2359.1815.1089.0484.251.0938.4265.1361.1815.0423.4053.0938.6715.1543.2782.0605.5111.1391.6987.2359.1875.0907.3387.1966.4537.3176.1149.1149.1966.245.245.3902.0484.1391.0726.2873.0726.4446 0 .1815-.0454.3569-.1362.5263-.0847.1694-.2087.3176-.372.4446-.1633.1271-.363.2299-.5989.3085-.2299.0787-.493.118-.7894.118s-.5596-.0363-.7895-.1089-.4265-.1603-.5898-.2631c-.1633-.1089-.2904-.2239-.3811-.3449-.0847-.127-.1301-.245-.1361-.3538-.0061-.0666.0151-.1241.0635-.1725.0484-.0483.1089-.0725.1815-.0725h.3267c.0363 0 .0786.006.127.0181.0484.0061.0938.0393.1361.0998.0968.1331.2299.2359.3993.3085.1693.0726.3901.1089.6624.1089.1331 0 .2631-.0151.3902-.0453.133-.0303.248-.0726.3448-.1271.1028-.0544.1845-.1179.245-.1905.0605-.0787.0907-.1634.0907-.2541z"/><path d="m42.6884 40.5778h1.1524c.0665 0 .124.0242.1724.0726s.0726.1059.0726.1724v.2904c0 .0666-.0242.124-.0726.1724s-.1059.0726-.1724.0726h-1.1524v3.6932c0 .0665-.0242.124-.0726.1724s-.1059.0726-.1724.0726h-.3358c-.0665 0-.124-.0242-.1724-.0726s-.0726-.1059-.0726-.1724v-3.6932h-.7622c-.0665 0-.124-.0242-.1724-.0726s-.0726-.1058-.0726-.1724v-.2904c0-.0665.0242-.124.0726-.1724s.1059-.0726.1724-.0726h.7622v-.4537c0-.5142.118-.8983.3539-1.1524.2359-.2601.617-.3902 1.1433-.3902h.5717c.0665 0 .124.0242.1724.0726s.0726.1059.0726.1724v.2904c0 .0666-.0242.124-.0726.1724s-.1059.0726-.1724.0726h-.4809c-.1573 0-.2874.0212-.3902.0635-.0968.0363-.1724.0908-.2269.1634-.0544.0726-.0937.1603-.1179.2631-.0182.0968-.0272.2027-.0272.3176z"/><path d="m47.3596 40.5778c.0666 0 .124.0242.1724.0726s.0726.1059.0726.1724v.2904c0 .0666-.0242.124-.0726.1724s-.1058.0726-.1724.0726h-.5263c-.6957 0-1.0435.3478-1.0435 1.0435v2.6497c0 .0665-.0242.124-.0726.1724s-.1059.0726-.1724.0726h-.3357c-.0666 0-.1241-.0242-.1725-.0726-.0483-.0484-.0725-.1059-.0725-.1724v-4.2286c0-.0665.0242-.124.0725-.1724.0484-.0484.1059-.0726.1725-.0726h.3357c.0665 0 .124.0242.1724.0726s.0726.1059.0726.1724v.2813c.121-.1814.2662-.3145.4356-.3992.1693-.0847.3901-.1271.6624-.1271z"/><path d="m50.2935 40.4871c.3267 0 .6171.0514.8711.1543.2541.0967.4719.2329.6534.4083s.3236.3902.4265.6443c.1088.248.1754.5202.1996.8166.006.0545.0091.121.0091.1996v.236.2359c0 .0726-.0031.1331-.0091.1815-.0303.3024-.0968.5777-.1996.8257-.1029.248-.245.4598-.4265.6352s-.3993.3146-.6534.4174c-.254.0968-.5444.1452-.8711.1452-.3266 0-.617-.0484-.8711-.1452-.254-.1028-.4718-.242-.6533-.4174s-.3267-.3872-.4356-.6352c-.1028-.248-.1663-.5233-.1905-.8257-.0061-.0484-.0121-.1089-.0182-.1815 0-.0786 0-.1573 0-.2359 0-.0847 0-.1634 0-.236.0061-.0786.0121-.1451.0182-.1996.0242-.2964.0877-.5686.1905-.8166.1089-.2541.2541-.4689.4356-.6443s.3993-.3116.6533-.4083c.2541-.1029.5445-.1543.8711-.1543zm1.3249 2.8311c.012-.1028.0181-.2268.0181-.372 0-.1513-.0061-.2813-.0181-.3902-.0182-.1815-.0575-.3509-.118-.5082-.0605-.1572-.1452-.2934-.2541-.4083s-.242-.2057-.3992-.2722c-.1573-.0666-.3418-.0998-.5536-.0998-.2117 0-.3962.0332-.5535.0998-.1573.0665-.2904.1573-.3992.2722-.1089.1149-.1936.2511-.2541.4083-.0605.1573-.0998.3267-.118.5082-.0121.1089-.0181.2389-.0181.3902 0 .1452.006.2692.0181.372.0182.1815.0575.3509.118.5082.0605.1572.1452.2934.2541.4083.1088.1149.2419.2057.3992.2722.1573.0666.3418.0998.5535.0998.2118 0 .3963-.0332.5536-.0998.1572-.0665.2903-.1573.3992-.2722s.1936-.2511.2541-.4083c.0605-.1573.0998-.3267.118-.5082z"/><path d="m54.4884 41.1041c.0544-.0726.118-.1452.1906-.2177.0726-.0787.1542-.1452.245-.1997.0967-.0605.2087-.1089.3357-.1452s.2752-.0544.4446-.0544c.369 0 .6745.0696.9165.2087.242.1331.4325.3267.5717.5807.0786-.1088.1603-.2117.245-.3085.0907-.0968.1936-.1815.3085-.254.121-.0726.2541-.1271.3993-.1634.1512-.0423.3266-.0635.5263-.0635.6109 0 1.0556.1845 1.3338.5535.2783.363.4174.8621.4174 1.4972v2.5136c0 .0665-.0242.124-.0725.1724-.0484.0484-.1059.0726-.1725.0726h-.3357c-.0665 0-.124-.0242-.1724-.0726s-.0726-.1059-.0726-.1724v-2.4228c0-.4658-.0907-.8076-.2722-1.0254-.1815-.2238-.4477-.3357-.7985-.3357-.3207 0-.5808.1058-.7804.3176-.1936.2117-.2904.5384-.2904.98v2.4863c0 .0665-.0242.124-.0726.1724s-.1058.0726-.1724.0726h-.3357c-.0666 0-.124-.0242-.1724-.0726s-.0726-.1059-.0726-.1724v-2.4228c0-.4658-.0908-.8076-.2722-1.0254-.1815-.2238-.4477-.3357-.7986-.3357-.3206 0-.5807.1058-.7803.3176-.1936.2117-.2904.5384-.2904.98v2.4863c0 .0665-.0242.124-.0726.1724s-.1059.0726-.1724.0726h-.3357c-.0666 0-.1241-.0242-.1724-.0726-.0484-.0484-.0726-.1059-.0726-.1724v-4.2286c0-.0665.0242-.124.0726-.1724.0483-.0484.1058-.0726.1724-.0726h.3357c.0665 0 .124.0242.1724.0726s.0726.1059.0726.1724z"/><path d="m69.2435 38.9445c.0666 0 .124.0242.1724.0726s.0726.1059.0726.1724v3.6206c0 .4174-.0665.7864-.1996 1.107s-.3237.5898-.5717.8076c-.242.2178-.5323.3841-.8711.4991-.3388.1089-.7108.1633-1.1161.1633-.4114 0-.7864-.0544-1.1252-.1633-.3387-.115-.6291-.2813-.8711-.4991s-.4295-.487-.5626-.8076-.1996-.6896-.1996-1.107v-3.6206c0-.0665.0242-.124.0726-.1724s.1058-.0726.1724-.0726h1.1887c.0665 0 .124.0242.1724.0726s.0726.1059.0726.1724v3.5843c0 .3629.0877.6472.2631.8529.1815.2057.4537.3085.8167.3085s.6322-.1028.8076-.3085c.1815-.2057.2722-.49.2722-.8529v-3.5843c0-.0665.0242-.124.0726-.1724s.1059-.0726.1724-.0726z"/><path d="m73.1229 38.8538c.3871 0 .741.0574 1.0616.1724.3267.1089.608.251.8439.4265.2359.1754.4204.369.5535.5807s.2027.4144.2087.608c0 .0544-.0211.1028-.0635.1451-.0363.0363-.0786.0545-.127.0545h-1.1887c-.0847 0-.1543-.0121-.2087-.0363-.0484-.0242-.0999-.0605-.1543-.1089-.0181-.0181-.0484-.0484-.0907-.0907-.0363-.0424-.0908-.0847-.1634-.1271-.0726-.0484-.1633-.0877-.2722-.1179-.1089-.0363-.242-.0545-.3992-.0545-.115 0-.2269.0091-.3358.0272-.1028.0121-.1966.0363-.2813.0726-.0786.0303-.1452.0756-.1996.1361-.0484.0605-.0726.1362-.0726.2269s.0272.1664.0817.2268c.0605.0605.1572.118.2903.1725.1392.0483.3206.0967.5445.1451.2238.0484.5021.1059.8348.1724.3327.0666.6231.1513.8711.2541.248.1029.4537.2329.617.3902.1694.1512.2934.3327.3721.5445.0847.2056.127.4506.127.735 0 .3085-.0696.5837-.2087.8257s-.3357.4507-.5898.6261c-.248.1694-.5445.2994-.8893.3902-.3387.0907-.7108.1361-1.1161.1361-.4113 0-.7864-.0544-1.1252-.1633-.3387-.1089-.6321-.2511-.8802-.4265-.2419-.1815-.4325-.3842-.5716-.608-.1392-.2238-.2117-.4507-.2178-.6805 0-.0545.0182-.0998.0545-.1361.0423-.0424.0877-.0636.1361-.0636h1.1887c.0847 0 .1512.0121.1996.0363.0484.0182.0968.0484.1452.0908.0242.0242.0605.0635.1089.1179.0484.0545.1119.1119.1905.1724.0847.0545.1876.1029.3085.1452.1271.0424.2813.0635.4628.0635.3206 0 .5868-.0332.7985-.0998.2178-.0726.3267-.1996.3267-.3811 0-.0907-.0393-.1663-.118-.2268-.0786-.0605-.1966-.115-.3538-.1634-.1573-.0544-.36-.1058-.608-.1542-.242-.0484-.5293-.1089-.862-.1815-.6231-.1331-1.0799-.3539-1.3702-.6624-.2844-.3146-.4265-.732-.4265-1.2522 0-.2602.0575-.5082.1724-.7441.121-.2359.2934-.4446.5172-.6261s.493-.3237.8076-.4265c.3206-.1089.6775-.1633 1.0708-.1633z"/></g></svg>