<svg width="15" height="15" viewBox="0 0 15 15" fill="none" xmlns="http://www.w3.org/2000/svg">
<path d="M7.04314 7.95708C6.88693 7.80087 6.63367 7.80087 6.47746 7.95708C6.32125 8.11329 6.32125 8.36655 6.47746 8.52276L7.04314 7.95708ZM7.95727 7.04295C8.11348 7.19916 8.36675 7.19916 8.52296 7.04295C8.67917 6.88674 8.67917 6.63348 8.52296 6.47727L7.95727 7.04295ZM5.81012 12.4052L5.52728 12.1224L5.81012 12.4052ZM6.63149 4.58792C6.47528 4.74413 6.47528 4.9974 6.63149 5.15361C6.7877 5.30981 7.04097 5.30981 7.19718 5.15361L6.63149 4.58792ZM8.36892 10.4121C8.52513 10.2559 8.52513 10.0026 8.36892 9.84642C8.21271 9.69022 7.95945 9.69022 7.80324 9.84642L8.36892 10.4121ZM12.1226 5.52709L9.69258 7.95708L10.2583 8.52276L12.6883 6.09278L12.1226 5.52709ZM9.69258 7.95708C8.96096 8.6887 7.77477 8.6887 7.04314 7.95708L6.47746 8.52276C7.5215 9.56681 9.21423 9.56681 10.2583 8.52276L9.69258 7.95708ZM12.1226 2.87765C12.8542 3.60927 12.8542 4.79547 12.1226 5.52709L12.6883 6.09278C13.7323 5.04873 13.7323 3.35601 12.6883 2.31196L12.1226 2.87765ZM12.6883 2.31196C11.6442 1.26792 9.95149 1.26792 8.90745 2.31196L9.47313 2.87765C10.2048 2.14603 11.3909 2.14603 12.1226 2.87765L12.6883 2.31196ZM2.87784 9.47294L5.30783 7.04295L4.74214 6.47726L2.31216 8.90725L2.87784 9.47294ZM5.30783 7.04295C6.03945 6.31133 7.22565 6.31133 7.95727 7.04295L8.52296 6.47727C7.47891 5.43322 5.78619 5.43322 4.74214 6.47726L5.30783 7.04295ZM2.87784 12.1224C2.14622 11.3908 2.14622 10.2046 2.87784 9.47294L2.31216 8.90725C1.26811 9.9513 1.26811 11.644 2.31216 12.6881L2.87784 12.1224ZM2.31216 12.6881C3.3562 13.7321 5.04893 13.7321 6.09297 12.6881L5.52728 12.1224C4.79566 12.854 3.60946 12.854 2.87784 12.1224L2.31216 12.6881ZM7.19718 5.15361L9.47313 2.87765L8.90745 2.31196L6.63149 4.58792L7.19718 5.15361ZM7.80324 9.84642L5.52728 12.1224L6.09297 12.6881L8.36892 10.4121L7.80324 9.84642Z" fill="#949CAD"/>
</svg>
