<svg width="16" height="16" viewBox="0 0 16 16" fill="none" xmlns="http://www.w3.org/2000/svg">
<path d="M2.01268 11L2 13.4684C2 13.6076 2.05074 13.7468 2.15222 13.8481C2.2537 13.9494 2.38055 14 2.52008 14L4.98097 13.9873C5.12051 13.9873 5.24736 13.9367 5.34884 13.8354L13.8478 5.35443C14.0507 5.1519 14.0507 4.82278 13.8478 4.60759L11.4123 2.1519C11.2093 1.94937 10.8795 1.94937 10.6638 2.1519L8.96406 3.86076L2.1649 10.6329C2.07611 10.7342 2.01268 10.8608 2.01268 11ZM11.0444 3.26582L12.7569 4.97468L11.7928 5.93671L10.0803 4.22785L11.0444 3.26582ZM3.06554 11.2278L9.33192 4.97468L11.0444 6.68354L4.77801 12.9241L3.05285 12.9367L3.06554 11.2278Z" fill="white"/>
</svg>
