<svg width="44" height="44" viewBox="0 0 44 44" fill="none" xmlns="http://www.w3.org/2000/svg">
<path d="M37.7966 21.349C37.5107 20.94 30.6993 11.3334 21.9998 11.3334C13.3004 11.3334 6.48863 20.94 6.20306 21.3486C5.93231 21.7367 5.93231 22.263 6.20306 22.6511C6.48863 23.0601 13.3004 32.6667 21.9998 32.6667C30.6993 32.6667 37.5107 23.06 37.7966 22.6514C38.0677 22.2634 38.0677 21.7367 37.7966 21.349ZM21.9998 30.4598C15.5918 30.4598 10.0417 24.0837 8.39875 21.9993C10.0396 19.913 15.578 13.5403 21.9998 13.5403C28.4076 13.5403 33.9573 19.9152 35.6009 22.0008C33.9601 24.087 28.4217 30.4598 21.9998 30.4598Z" fill="black"/>
<path d="M21.9996 15.3789C18.5095 15.3789 15.6699 18.349 15.6699 21.9996C15.6699 25.6502 18.5095 28.6203 21.9996 28.6203C25.4897 28.6203 28.3293 25.6502 28.3293 21.9996C28.3293 18.349 25.4897 15.3789 21.9996 15.3789ZM21.9996 26.4134C19.6727 26.4134 17.7798 24.4334 17.7798 21.9996C17.7798 19.5658 19.6728 17.5858 21.9996 17.5858C24.3264 17.5858 26.2193 19.5658 26.2193 21.9996C26.2193 24.4334 24.3265 26.4134 21.9996 26.4134Z" fill="black"/>
</svg>
