<svg width="201" height="233" viewBox="0 0 201 233" fill="none" xmlns="http://www.w3.org/2000/svg">
<rect width="201" height="233" fill="white"/>
<path d="M0.417806 222.11C1.16781 220 39.8778 171 42.4678 170.09C42.7678 169.97 59.3578 182.31 59.3578 182.31C60.0378 183.25 92.1878 177.15 92.1878 177.15L91.7078 215.78L33.4178 213.33C33.4178 213.33 25.4478 217.8 18.1578 221.42C18.1478 221.42 18.1378 221.43 18.1378 221.42C13.6578 223.66 9.68781 225.55 8.56781 225.82C5.62781 226.5 -0.342194 224.21 0.417806 222.11Z" fill="white"/>
<path d="M8.558 225.81C9.688 225.55 13.648 223.66 18.128 221.41C18.138 221.42 18.148 221.41 18.158 221.41C25.438 217.79 33.408 213.32 33.408 213.32L46.378 213.87L67.378 181.5C62.898 182.2 59.568 182.6 59.348 182.3C59.348 182.3 42.758 169.96 42.458 170.09C39.868 170.99 1.158 219.99 0.398004 222.1C-0.341996 224.21 5.618 226.51 8.558 225.81Z" fill="white"/>
<path d="M0.0680592 222.16C0.858059 219.99 39.7381 171.03 42.3981 170.1C43.4081 169.74 51.5381 175 59.3581 182.3L34.2481 213.84C34.2481 213.84 11.4481 225.31 8.41806 226.02C5.40806 226.72 -0.711941 224.33 0.0680592 222.16Z" fill="#173BEF"/>
<path d="M2.58813 223.02C9.30813 214.97 35.6481 181.88 41.6781 173.41C41.7281 173.34 41.6781 173.31 41.6281 173.37C34.7981 181.2 8.71813 214.51 2.44813 222.91C2.31813 223.09 2.44813 223.19 2.58813 223.02Z" fill="#333333"/>
<path d="M12.6885 224.28C14.3185 222.4 14.8985 219.76 14.5785 217.78C14.2785 215.88 13.3985 213.76 11.6485 212.47C11.5985 212.43 11.5285 212.52 11.5685 212.57C14.4085 215.59 14.9085 220.75 12.5785 224.21C12.5385 224.26 12.6385 224.34 12.6885 224.28Z" fill="#333333"/>
<path d="M31.3878 215.77C34.0378 212.52 35.9078 207.79 34.8378 203.62C34.7978 203.46 34.5678 203.52 34.5378 203.66C33.7078 207.85 32.6078 211.57 30.9278 215.51C30.8178 215.78 31.1978 216 31.3878 215.77Z" fill="#333333"/>
<path d="M28.3782 217.52C31.0282 214.27 32.8982 209.54 31.8282 205.37C31.7882 205.21 31.5582 205.27 31.5282 205.41C30.6982 209.6 29.5982 213.32 27.9182 217.26C27.8182 217.53 28.1882 217.75 28.3782 217.52Z" fill="#333333"/>
<path d="M25.3781 219.27C28.0281 216.02 29.8981 211.29 28.8281 207.12C28.7881 206.96 28.5581 207.02 28.5281 207.16C27.6981 211.35 26.5981 215.07 24.9181 219.01C24.8081 219.28 25.1881 219.5 25.3781 219.27Z" fill="#333333"/>
<path d="M22.3781 221.02C25.0281 217.77 26.8981 213.04 25.8281 208.87C25.7881 208.71 25.5581 208.77 25.5281 208.91C24.6981 213.1 23.5981 216.82 21.9181 220.76C21.8081 221.03 22.1881 221.25 22.3781 221.02Z" fill="#333333"/>
<path d="M47.8179 181.69C50.7379 178 44.9979 173.46 42.0779 177.16C39.1579 180.85 44.8979 185.39 47.8179 181.69Z" fill="#333333"/>
<path d="M37.3279 226.28C40.0279 225.71 40.3478 222.55 39.7278 220.38C38.7278 216.88 36.3878 213.16 33.6978 210.72C33.6278 210.66 33.5579 210.69 33.5179 210.75C33.2279 210.63 32.8078 210.75 32.7878 211.13C32.5478 214.75 31.8478 218.6 32.7178 222.19C33.2378 224.29 34.7779 226.81 37.3279 226.28ZM33.5479 216.7C33.6179 214.91 33.7878 213.14 33.7878 211.36C34.9578 213.25 36.2079 215.07 37.1879 217.08C37.6579 218.04 38.1178 219.03 38.4478 220.04C38.9678 221.62 39.1478 227.02 35.3178 224.51C33.2078 223.12 33.4579 218.83 33.5479 216.7Z" fill="#333333"/>
<path d="M38.9679 201.6C36.2579 204.11 34.7279 207.71 32.9279 210.87C32.7379 211.2 33.0279 211.53 33.3279 211.59C33.3279 211.66 33.3679 211.72 33.4579 211.71C37.0379 211.16 41.0479 209.34 43.8079 206.97C45.5179 205.5 46.9979 202.69 45.0579 200.73C43.2279 198.87 40.5479 200.13 38.9679 201.6ZM42.4079 201.1C46.9879 201.11 43.8579 205.52 42.5579 206.55C41.7179 207.21 40.7879 207.78 39.8779 208.32C37.9579 209.45 35.9079 210.29 33.8979 211.22C34.8779 209.72 35.7179 208.16 36.6379 206.63C37.7279 204.81 39.8779 201.09 42.4079 201.1Z" fill="#333333"/>
<path d="M94.088 167.96L120.378 165.89C120.378 165.89 158.348 154.88 180.288 160.65C205.448 167.26 208.998 196.65 183.418 208.43C158.118 220.08 46.708 215.79 46.708 215.79L70.588 180.42C70.588 180.42 107.268 171.8 139.378 173.55L93.918 178.79L94.088 167.96Z" fill="black"/>
<path d="M94.3484 175.44C98.2584 174.8 102.218 174.48 106.158 174.11C110.138 173.74 114.128 173.45 118.108 173.2C126.058 172.7 134.058 172.53 142.018 172.84C142.768 172.87 143.508 172.91 144.258 172.96C144.418 172.91 144.588 172.89 144.748 172.85C145.128 172.77 145.518 172.68 145.898 172.61C146.618 172.49 147.348 172.4 148.068 172.3C149.578 172.1 151.098 171.97 152.598 171.72C152.688 171.7 152.718 171.84 152.628 171.86C151.108 172.16 149.618 172.57 148.108 172.87C147.668 172.96 147.238 173.04 146.798 173.12C149.718 173.33 152.628 173.62 155.538 173.95C155.628 173.96 155.628 174.1 155.538 174.1C151.578 173.78 147.578 173.67 143.598 173.66C139.648 173.64 135.708 173.65 131.758 173.79C123.778 174.08 115.798 174.63 107.838 175.3C103.378 175.67 98.8984 176.13 94.4184 176.23C94.0084 176.22 93.9084 175.51 94.3484 175.44Z" fill="#333333"/>
<path d="M58.1177 214.97C59.5877 212.72 60.8577 210.31 62.2077 207.98C63.5677 205.65 64.9277 203.32 66.2877 200.99C69.0077 196.34 78.7377 180.72 79.6977 179.63C79.7577 179.56 79.8777 179.64 79.8477 179.73C79.3777 180.94 73.2877 191.29 71.8877 193.6C69.0877 198.21 66.1477 202.73 63.2577 207.28C62.4277 208.58 61.5777 209.86 60.7377 211.16C59.8977 212.45 59.0077 213.72 58.2377 215.05C58.1977 215.13 58.0677 215.05 58.1177 214.97Z" fill="#333333"/>
<path d="M149.359 175.28C151.909 176.31 188.259 227.08 188.909 229.23C189.569 231.37 183.499 233.38 180.599 232.54C179.497 232.226 175.737 230.209 171.458 227.813L149.359 175.28ZM149.359 175.28C149.069 175.15 131.909 186.68 131.909 186.68L149.359 175.28ZM188.669 229.303L188.67 229.304C188.792 229.702 188.62 230.134 188.128 230.584C187.639 231.03 186.885 231.442 186.002 231.768C185.122 232.094 184.132 232.328 183.187 232.43C182.238 232.532 181.35 232.498 180.668 232.3L180.667 232.3C180.409 232.226 179.974 232.044 179.385 231.766C178.801 231.49 178.079 231.125 177.253 230.692C175.603 229.828 173.545 228.697 171.361 227.472L170.989 227.263V227.275C167.545 225.349 163.983 223.239 161.251 221.591C159.839 220.739 158.649 220.011 157.812 219.495C157.393 219.238 157.063 219.033 156.837 218.893L156.579 218.733L156.513 218.692L156.497 218.682L156.492 218.679L156.491 218.678L156.491 218.678L156.359 218.89L156.491 218.678L156.431 218.641L156.36 218.64L98.2773 218.332L99.5978 180.284L99.6582 180.299C99.8916 180.354 100.234 180.436 100.67 180.539C101.542 180.746 102.788 181.04 104.286 181.39C107.282 182.09 111.284 183.015 115.309 183.91C119.334 184.806 123.383 185.674 126.472 186.261C128.016 186.555 129.324 186.779 130.271 186.901C130.744 186.962 131.133 186.999 131.419 187.005C131.561 187.008 131.687 187.004 131.789 186.988C131.84 186.98 131.893 186.969 131.942 186.95C131.978 186.936 132.026 186.913 132.069 186.874L132.097 186.855L132.241 186.758L132.786 186.393C133.255 186.078 133.927 185.628 134.733 185.088C136.346 184.01 138.5 182.573 140.663 181.14C142.826 179.707 144.997 178.278 146.645 177.217C147.469 176.686 148.161 176.247 148.656 175.946C148.903 175.795 149.098 175.681 149.235 175.606C149.275 175.584 149.309 175.566 149.336 175.553C149.382 175.584 149.446 175.633 149.529 175.707C149.665 175.826 149.834 175.992 150.034 176.204C150.435 176.627 150.953 177.222 151.571 177.966C152.807 179.453 154.436 181.526 156.324 183.994C160.099 188.93 164.9 195.438 169.644 201.982C174.387 208.526 179.07 215.105 182.608 220.181C184.377 222.72 185.859 224.882 186.919 226.475C187.449 227.272 187.872 227.926 188.173 228.413C188.323 228.656 188.441 228.856 188.526 229.01C188.615 229.171 188.658 229.264 188.669 229.303Z" fill="white" stroke="black" stroke-width="0.5"/>
<path d="M180.677 232.31L180.677 232.31C180.147 232.158 178.928 231.576 177.268 230.706C175.62 229.843 173.565 228.712 171.381 227.482L171.216 227.389L171.205 227.401C167.702 225.444 164.055 223.28 161.27 221.596C159.859 220.743 158.669 220.013 157.832 219.497C157.413 219.239 157.083 219.034 156.857 218.894L156.6 218.733L156.533 218.692L156.517 218.682L156.512 218.679L156.511 218.678L156.511 218.678L156.378 218.89L156.511 218.678L156.451 218.641L156.38 218.64L143.532 218.571L124.436 185.857C126.429 186.261 128.169 186.587 129.469 186.787C130.177 186.896 130.76 186.969 131.183 186.996C131.394 187.009 131.574 187.011 131.714 186.999C131.783 186.993 131.852 186.983 131.913 186.964C131.957 186.95 132.023 186.925 132.079 186.874L132.107 186.855L132.251 186.758L132.795 186.392C133.265 186.077 133.936 185.627 134.742 185.087C136.354 184.007 138.507 182.57 140.669 181.136C142.831 179.702 145.002 178.274 146.651 177.213C147.475 176.682 148.168 176.244 148.662 175.944C148.91 175.793 149.105 175.679 149.242 175.605C149.283 175.583 149.317 175.565 149.344 175.552C149.39 175.583 149.455 175.633 149.539 175.707C149.675 175.826 149.844 175.992 150.044 176.204C150.445 176.627 150.963 177.222 151.581 177.966C152.817 179.453 154.446 181.526 156.334 183.994C160.109 188.93 164.91 195.438 169.654 201.982C174.397 208.526 179.08 215.105 182.618 220.181C184.387 222.72 185.869 224.882 186.929 226.475C187.459 227.273 187.882 227.926 188.182 228.413C188.333 228.656 188.451 228.856 188.536 229.01C188.625 229.171 188.668 229.264 188.679 229.303L188.679 229.303C188.8 229.701 188.626 230.134 188.132 230.584C187.642 231.03 186.887 231.442 186.004 231.77C185.124 232.096 184.135 232.331 183.19 232.434C182.243 232.537 181.357 232.505 180.677 232.31Z" fill="white" stroke="black" stroke-width="0.5"/>
<path d="M189.259 229.31C188.579 227.11 152.059 176.36 149.439 175.3C148.449 174.89 140.079 179.76 131.919 186.69L155.509 219.38C155.509 219.38 177.739 231.92 180.729 232.77C183.709 233.61 189.939 231.51 189.259 229.31Z" fill="#173BEF"/>
<path d="M186.699 230.04C180.369 221.68 155.619 187.38 149.999 178.64C149.949 178.57 149.999 178.54 150.049 178.6C156.509 186.75 180.969 221.25 186.839 229.94C186.959 230.12 186.829 230.22 186.699 230.04Z" fill="#333333"/>
<path d="M176.549 230.82C175.019 228.86 174.559 226.2 174.969 224.24C175.359 222.35 176.339 220.28 178.139 219.07C178.189 219.04 178.259 219.13 178.209 219.17C175.229 222.05 174.489 227.18 176.649 230.75C176.699 230.81 176.599 230.88 176.549 230.82Z" fill="#333333"/>
<path d="M158.279 221.43C155.779 218.06 154.139 213.25 155.409 209.13C155.459 208.97 155.679 209.04 155.709 209.18C156.339 213.4 157.259 217.18 158.749 221.19C158.839 221.47 158.459 221.67 158.279 221.43Z" fill="#333333"/>
<path d="M161.189 223.32C158.689 219.95 157.049 215.14 158.319 211.02C158.369 210.86 158.599 210.93 158.619 211.07C159.249 215.29 160.169 219.07 161.659 223.08C161.759 223.36 161.369 223.56 161.189 223.32Z" fill="#333333"/>
<path d="M164.109 225.21C161.609 221.84 159.969 217.03 161.239 212.91C161.289 212.75 161.519 212.82 161.539 212.96C162.169 217.18 163.089 220.96 164.579 224.97C164.679 225.25 164.289 225.46 164.109 225.21Z" fill="#333333"/>
<path d="M167.029 227.11C164.529 223.74 162.889 218.93 164.159 214.81C164.209 214.65 164.429 214.72 164.459 214.86C165.089 219.08 166.009 222.86 167.499 226.87C167.589 227.15 167.209 227.35 167.029 227.11Z" fill="#333333"/>
<path d="M143.479 186.62C140.739 182.79 146.689 178.53 149.429 182.36C152.169 186.19 146.219 190.45 143.479 186.62Z" fill="#333333"/>
<path d="M156.629 227.79C157.679 224.25 157.159 220.37 157.089 216.74C157.079 216.36 156.669 216.22 156.369 216.33C156.329 216.27 156.269 216.24 156.199 216.29C153.399 218.59 150.879 222.2 149.719 225.65C148.999 227.78 149.169 230.96 151.839 231.65C154.359 232.31 156.019 229.86 156.629 227.79ZM153.929 229.98C149.979 232.31 150.419 226.92 151.009 225.37C151.389 224.37 151.899 223.41 152.409 222.47C153.479 220.51 154.819 218.75 156.069 216.92C155.989 218.71 156.069 220.48 156.059 222.27C156.059 224.39 156.099 228.69 153.929 229.98Z" fill="#333333"/>
<path d="M145.329 205.76C143.299 207.63 144.639 210.51 146.279 212.05C148.929 214.55 152.839 216.55 156.399 217.27C156.489 217.29 156.529 217.23 156.539 217.16C156.849 217.11 157.149 216.79 156.979 216.46C155.339 213.22 153.979 209.56 151.389 206.92C149.869 205.38 147.249 203.99 145.329 205.76ZM153.469 212.06C154.319 213.63 155.079 215.24 155.989 216.78C154.019 215.76 152.019 214.82 150.149 213.6C149.259 213.02 148.359 212.4 147.549 211.7C146.299 210.61 143.379 206.06 147.959 206.26C150.479 206.37 152.459 210.19 153.469 212.06Z" fill="#333333"/>
<path d="M97.9184 168.09L71.7484 167.4C71.7484 167.4 44.7184 153.51 22.5284 158.23C-2.91165 163.64 -6.99165 195.3 11.6084 207.03C35.1684 221.89 141.778 221.96 141.778 221.96L119.778 182.31C119.778 182.31 84.5484 173.91 52.3884 174.14L97.5484 181.52L97.9184 168.09Z" fill="black"/>
<path d="M121.249 184.88C121.219 184.83 121.219 184.73 121.209 184.68C121.199 184.63 121.189 184.57 121.169 184.52C121.139 184.39 121.109 184.27 121.079 184.14C121.009 183.88 120.929 183.62 120.829 183.37C120.739 183.11 120.639 182.87 120.529 182.62C120.419 182.36 120.259 182.16 120.119 181.92C120.109 181.9 120.079 181.89 120.059 181.88C120.049 181.87 120.029 181.86 120.019 181.85C119.999 181.84 119.979 181.83 119.959 181.82C119.939 181.81 119.929 181.8 119.899 181.79C116.019 180.96 89.6487 176.47 85.7287 175.92C81.7687 175.36 77.7987 174.89 73.8287 174.45C65.9087 173.57 57.9287 173.03 49.9587 172.96C49.2087 172.95 48.4687 172.96 47.7187 172.97C47.5587 172.91 47.3887 172.88 47.2287 172.84C46.8487 172.74 46.4687 172.63 46.0887 172.55C45.3787 172.39 44.6487 172.27 43.9287 172.14C42.4287 171.87 40.9187 171.67 39.4287 171.35C39.3387 171.33 39.2987 171.47 39.3887 171.49C40.8887 171.86 42.3587 172.34 43.8587 172.71C44.2887 172.82 44.7287 172.92 45.1587 173.02C42.2287 173.1 39.3087 173.24 36.3887 173.43C36.2987 173.44 36.2887 173.58 36.3887 173.58C40.3587 173.45 44.3587 173.53 48.3287 173.7C52.2787 173.87 56.2187 174.06 60.1487 174.39C68.1087 175.06 76.0587 175.98 83.9687 177.03C88.4087 177.61 115.299 182.27 119.769 182.58C119.789 182.58 119.809 182.57 119.829 182.57C119.859 182.67 119.899 182.78 119.949 182.88C120.069 183.13 120.179 183.37 120.309 183.61C120.429 183.84 120.549 184.07 120.689 184.29C120.759 184.4 120.829 184.51 120.899 184.62C120.939 184.67 120.969 184.73 121.009 184.78C121.039 184.83 121.109 184.9 121.119 184.95C121.149 185.03 121.299 184.97 121.249 184.88Z" fill="#333333"/>
<path d="M133.538 219.37C132.168 217.05 131.018 214.58 129.778 212.2C128.528 209.81 127.288 207.41 126.028 205.02C123.528 200.25 114.548 184.19 113.648 183.05C113.588 182.98 113.468 183.06 113.498 183.14C113.908 184.38 119.498 195 120.788 197.37C123.368 202.11 126.088 206.76 128.758 211.45C129.518 212.79 130.318 214.11 131.088 215.44C131.858 216.77 132.688 218.08 133.398 219.44C133.448 219.53 133.578 219.45 133.538 219.37Z" fill="#333333"/>
<path d="M48.3882 59.8301L52.3982 89.9001C52.6082 90.7901 52.0982 91.4401 51.2582 91.3401L36.1782 89.6101C35.3382 89.5101 34.4782 88.7101 34.2682 87.8201L30.2582 57.7501C30.0482 56.8501 30.5582 56.2101 31.3982 56.3101L46.4782 58.0401C47.3182 58.1301 48.1682 58.9301 48.3882 59.8301Z" fill="black"/>
<path d="M46.5981 59.6101L50.6081 89.6801C50.8181 90.5701 50.3081 91.2201 49.4681 91.1201L34.3881 89.3901C33.5481 89.2901 32.6881 88.4901 32.4781 87.6001L28.4681 57.5301C28.2581 56.6301 28.7681 55.9901 29.6081 56.0901L44.6881 57.8201C45.5281 57.9101 46.3781 58.7101 46.5981 59.6101Z" fill="black"/>
<path d="M42.308 60.4701C42.238 61.1801 42.768 61.8101 43.478 61.8701C44.188 61.9401 44.818 61.4101 44.878 60.7001C44.948 59.9901 44.418 59.3601 43.708 59.3001C42.998 59.2401 42.378 59.7601 42.308 60.4701Z" fill="#333333"/>
<path d="M36.8909 142.62L36.8909 142.62C32.0125 137.344 27.7938 129.955 24.7004 122.559C21.6067 115.161 19.6491 107.781 19.2767 102.532L19.2767 102.532C19.2505 102.168 19.455 101.729 19.9316 101.226C20.4018 100.73 21.1011 100.21 21.9714 99.6924C23.71 98.6577 26.0873 97.6546 28.5532 96.8683C31.0191 96.082 33.5584 95.5173 35.6186 95.3518C36.6496 95.269 37.5489 95.2872 38.2546 95.4216C38.9675 95.5575 39.4379 95.8033 39.6735 96.1349C42.3898 99.9606 45.1838 105.502 47.4428 110.109C47.6982 110.63 47.9467 111.139 48.1875 111.632C49.0098 113.315 49.7419 114.814 50.3461 115.969C50.7363 116.715 51.0771 117.326 51.3574 117.754C51.4969 117.967 51.627 118.143 51.7455 118.269C51.8047 118.332 51.867 118.389 51.9318 118.432C51.9941 118.474 52.0786 118.516 52.1782 118.52L52.18 118.52C52.7405 118.536 53.495 118.355 54.3886 118.033C55.2892 117.709 56.3569 117.231 57.5538 116.633C59.948 115.436 62.8769 113.746 66.0504 111.801C72.3983 107.91 79.7426 102.987 85.7771 98.9174L85.6373 98.7101C100.297 88.8201 96.0873 102.77 91.9173 109.66L91.7035 109.531C91.7035 109.531 91.7034 109.531 91.7034 109.531C86.4815 118.154 78.4584 127.858 70.7485 135.313C66.8937 139.04 63.1234 142.2 59.8266 144.38C58.1781 145.47 56.6534 146.312 55.2999 146.858C53.943 147.405 52.7776 147.647 51.8403 147.561C51.3563 147.516 50.8272 147.48 50.2628 147.442C48.5944 147.329 46.6174 147.195 44.5823 146.747C41.8684 146.15 39.0896 145 36.8909 142.62Z" fill="white" stroke="black" stroke-width="0.5"/>
<path d="M24.3652 67.3267C24.206 66.144 24.2598 65.1166 24.4671 64.3066C24.6753 63.493 25.0323 62.9202 25.4609 62.6117C25.8774 62.3121 26.3898 62.2408 26.9816 62.4826C27.5854 62.7292 28.2759 63.3056 28.9937 64.3149C31.3534 67.6333 32.1727 71.7965 32.2062 75.5635C32.2386 79.213 31.5334 82.4545 30.8113 84.1445L20.9555 83.2313C21.5233 81.7149 22.0497 80.456 22.5176 79.337C22.5659 79.2214 22.6136 79.1074 22.6606 78.9947C23.1927 77.7203 23.645 76.6145 23.9817 75.5039C24.6593 73.2685 24.8638 71.0287 24.3652 67.3267ZM24.3652 67.3267L24.1174 67.3601M24.3652 67.3267L24.1174 67.3601M24.1174 67.3601C24.8818 73.0349 23.977 75.1986 22.2868 79.2407C21.8124 80.3752 21.2762 81.6577 20.6976 83.2074L30.9674 84.4101C32.4974 81.0501 33.9974 70.9201 29.1974 64.1701C26.2674 60.0501 23.4674 62.5301 24.1174 67.3601Z" fill="white" stroke="black" stroke-width="0.5"/>
<path d="M19.5677 105.86C19.5677 105.86 17.3277 95.0801 19.4277 87.0301C20.8777 81.4701 25.3877 69.7102 41.8877 65.0102C45.7977 63.8902 52.1677 65.0802 46.4377 69.2201C42.3677 72.1602 38.8977 72.8002 36.8377 74.9502C36.8377 74.9502 44.7577 77.4202 45.7277 81.3802C46.1577 83.1502 47.2277 88.0201 47.5077 91.9201C47.5077 91.9201 46.6777 92.2101 45.5677 92.4301C45.5677 92.4301 46.3577 96.1701 43.1277 101.02L31.3477 103.44L19.5677 105.86Z" fill="white"/>
<path d="M19.5677 105.86C19.5677 105.86 17.3277 95.0801 19.4277 87.0301C20.8777 81.4701 25.3877 69.7102 41.8877 65.0102C45.7977 63.8902 52.1677 65.0802 46.4377 69.2201C42.3677 72.1602 38.8977 72.8002 36.8377 74.9502C36.8377 74.9502 44.7577 77.4202 45.7277 81.3802C46.1577 83.1502 47.2277 88.0201 47.5077 91.9201C47.5077 91.9201 46.6777 92.2101 45.5677 92.4301C45.5677 92.4301 46.3577 96.1701 43.1277 101.02" stroke="black" stroke-width="0.5"/>
<path d="M21.668 81.94C24.158 80.24 29.498 76.74 34.868 75.39C40.828 73.89 52.718 72.61 53.778 77.02C54.558 80.25 50.058 81.14 50.058 81.14C50.058 81.14 55.078 81.65 55.148 84.72C55.208 87.52 51.688 88 51.688 88C51.688 88 54.688 88.8301 54.218 91.5401C53.658 94.8001 47.478 92.52 44.058 95.34C43.278 95.97 21.668 81.94 21.668 81.94Z" fill="white"/>
<path d="M34.8682 75.39C40.8282 73.89 52.7182 72.61 53.7782 77.02C54.5582 80.25 50.0582 81.14 50.0582 81.14C50.0582 81.14 55.0782 81.65 55.1482 84.72C55.2082 87.52 51.6882 88 51.6882 88C51.6882 88 54.6882 88.8301 54.2182 91.5401C53.6582 94.8001 47.4782 92.52 44.0582 95.34" stroke="black" stroke-width="0.5"/>
<path d="M35.398 81.9502C37.998 80.7402 44.618 79.5001 49.968 81.0501C50.088 81.0801 50.128 81.2001 50.008 81.1901C43.758 80.7401 37.888 81.5301 35.408 82.0101C35.378 82.0101 35.368 81.9602 35.398 81.9502Z" fill="#333333"/>
<path d="M37.0777 87.9201C39.4277 87.1101 46.3077 86.1401 51.6777 87.8901C51.7977 87.9301 51.8277 88.0401 51.7077 88.0301C45.1977 87.2901 39.5877 87.6501 37.0877 87.9801C37.0577 87.9801 37.0477 87.9301 37.0777 87.9201Z" fill="#333333"/>
<path d="M18.0576 110.13C18.0576 110.13 29.7076 140.7 37.8976 144.96C46.0676 149.22 51.2776 149.01 54.5076 148.87C55.4576 148.83 56.6476 148.38 58.0376 147.6C67.2976 142.36 85.0076 122.24 92.5576 110.67C98.2176 101.97 98.5776 93.6002 91.1776 95.5302C89.3376 96.0002 87.0176 97.1202 84.1676 99.0402C69.9276 108.63 53.6276 117.48 52.9476 117.02C52.2676 116.58 45.9876 103.85 45.9876 103.85L18.0576 110.13Z" fill="#BDC2C7"/>
<path d="M51.4175 123.22C51.4875 123.91 51.4075 124.58 51.2975 125.23C51.1575 125.88 50.9875 126.53 50.6575 127.14C50.5875 126.45 50.6675 125.78 50.7775 125.13C50.9175 124.49 51.0875 123.84 51.4175 123.22ZM33.2475 131.68C33.1275 132.34 33.0475 133 33.1275 133.69C33.4575 133.07 33.6275 132.43 33.7675 131.78C33.8875 131.12 33.9675 130.46 33.8875 129.77C33.5575 130.38 33.3775 131.02 33.2475 131.68ZM63.1475 140.41C63.0275 141.07 62.9475 141.73 63.0275 142.42C63.3575 141.8 63.5275 141.16 63.6675 140.51C63.7875 139.85 63.8675 139.19 63.7875 138.5C63.4575 139.12 63.2875 139.76 63.1475 140.41ZM72.9275 111.44C72.8075 112.1 72.7275 112.76 72.8075 113.45C73.1375 112.83 73.3075 112.19 73.4475 111.54C73.5675 110.88 73.6475 110.22 73.5675 109.53C73.2375 110.14 73.0675 110.79 72.9275 111.44ZM73.7375 121.07C73.0775 120.95 72.4175 120.87 71.7275 120.95C72.3475 121.28 72.9875 121.45 73.6375 121.59C74.2975 121.71 74.9575 121.79 75.6475 121.71C75.0275 121.38 74.3876 121.21 73.7375 121.07ZM38.5175 122.79C37.8575 122.67 37.1975 122.59 36.5075 122.67C37.1275 123 37.7675 123.17 38.4175 123.31C39.0775 123.43 39.7375 123.51 40.4275 123.43C39.8175 123.1 39.1775 122.93 38.5175 122.79ZM55.7975 134.19C55.1375 134.07 54.4775 133.99 53.7875 134.07C54.4075 134.4 55.0475 134.57 55.6975 134.71C56.3575 134.83 57.0175 134.91 57.7075 134.83C57.0875 134.5 56.4475 134.33 55.7975 134.19ZM22.9875 111.67C22.3275 111.55 21.6675 111.47 20.9775 111.55C21.5975 111.88 22.2375 112.05 22.8875 112.19C23.5475 112.31 24.2075 112.39 24.8975 112.31C24.2875 111.98 23.6475 111.8 22.9875 111.67ZM38.7875 143.16C38.1275 143.04 37.4675 142.96 36.7775 143.04C37.3975 143.37 38.0375 143.54 38.6875 143.68C39.3475 143.8 40.0075 143.88 40.6975 143.8C40.0875 143.47 39.4475 143.3 38.7875 143.16ZM94.6975 96.7002C95.2475 96.9902 95.8175 97.1602 96.3975 97.2902C96.3175 97.0902 96.2275 96.9102 96.1075 96.7302C95.6475 96.6702 95.1775 96.6402 94.6975 96.7002ZM61.2275 118.11C61.6075 118.66 62.0175 119.18 62.5675 119.62C62.3675 118.95 62.0275 118.37 61.6675 117.82C61.2875 117.27 60.8775 116.75 60.3275 116.31C60.5275 116.98 60.8675 117.55 61.2275 118.11ZM43.9175 134.01C44.2975 134.56 44.7075 135.08 45.2575 135.52C45.0575 134.85 44.7175 134.27 44.3575 133.72C43.9775 133.17 43.5675 132.65 43.0175 132.21C43.2275 132.87 43.5575 133.45 43.9175 134.01ZM35.6775 111.37C36.0575 111.92 36.4675 112.44 37.0175 112.88C36.8175 112.21 36.4775 111.63 36.1175 111.08C35.7375 110.53 35.3275 110.01 34.7775 109.57C34.9775 110.23 35.3075 110.81 35.6775 111.37ZM70.8875 133.27C71.2675 133.82 71.6775 134.34 72.2275 134.78C72.0275 134.11 71.6875 133.53 71.3275 132.98C70.9475 132.43 70.5375 131.91 69.9875 131.47C70.1975 132.13 70.5275 132.71 70.8875 133.27ZM84.7075 105.76C85.0875 106.31 85.4975 106.83 86.0475 107.27C85.8475 106.6 85.5075 106.02 85.1475 105.47C84.7675 104.92 84.3575 104.4 83.8075 103.96C84.0075 104.62 84.3375 105.2 84.7075 105.76ZM85.7175 116.85C86.2675 116.47 86.7875 116.06 87.2275 115.51C86.5575 115.71 85.9775 116.05 85.4275 116.41C84.8775 116.79 84.3575 117.2 83.9175 117.75C84.5775 117.55 85.1575 117.21 85.7175 116.85ZM27.1875 120.51C27.7375 120.13 28.2575 119.72 28.6975 119.17C28.0275 119.37 27.4475 119.71 26.8975 120.07C26.3475 120.45 25.8275 120.86 25.3875 121.41C26.0475 121.21 26.6275 120.88 27.1875 120.51ZM45.3575 116.02C45.9075 115.64 46.4275 115.23 46.8675 114.68C46.1975 114.88 45.6175 115.22 45.0675 115.58C44.5175 115.96 43.9975 116.37 43.5575 116.92C44.2275 116.72 44.8075 116.39 45.3575 116.02ZM64.5275 128.06C65.0775 127.68 65.5975 127.27 66.0375 126.72C65.3675 126.92 64.7875 127.26 64.2375 127.62C63.6875 128 63.1675 128.41 62.7275 128.96C63.3875 128.76 63.9675 128.42 64.5275 128.06ZM51.8375 143.94C52.3875 143.56 52.9075 143.15 53.3475 142.6C52.6775 142.8 52.0975 143.14 51.5475 143.5C50.9975 143.88 50.4775 144.29 50.0375 144.84C50.6975 144.63 51.2775 144.3 51.8375 143.94Z" fill="white"/>
<path d="M58.0381 147.6C67.2981 142.36 85.0081 122.24 92.5581 110.67C98.2181 101.97 98.5781 93.6002 91.1781 95.5302C86.7781 102.36 67.5681 132.28 58.0381 147.6Z" fill="#333333"/>
<path d="M21.1372 115.8C22.1672 115.36 31.7572 112.75 33.8572 112.22C35.9572 111.7 44.5071 109.47 46.7071 109.11C46.8071 109.09 46.8472 109.23 46.7472 109.26C44.6472 110.02 36.0272 112.29 33.9072 112.87C31.7772 113.45 22.2371 115.83 21.1571 115.94C21.0671 115.95 21.0672 115.83 21.1372 115.8Z" fill="#333333"/>
<path d="M66.5572 167.82C67.4572 168.89 128.447 173.94 128.777 173.57C129.677 172.57 124.107 133.34 118.607 118.15C111.557 98.6702 107.067 96.6902 104.387 95.3902C100.967 93.7302 94.5672 93.6902 92.9972 94.2402C91.2072 94.8502 83.1172 102.9 80.4372 109.64C75.0372 123.18 65.7672 166.88 66.5572 167.82Z" fill="#BDC2C7"/>
<path d="M96.6375 105.97C96.7075 106.66 96.6275 107.33 96.5175 107.98C96.3775 108.63 96.2075 109.28 95.8775 109.89C95.8075 109.2 95.8875 108.53 95.9975 107.88C96.1375 107.23 96.3075 106.58 96.6375 105.97ZM94.0175 137.01C93.8975 137.67 93.8175 138.33 93.8975 139.02C94.2275 138.4 94.3975 137.76 94.5375 137.11C94.6575 136.45 94.7375 135.79 94.6575 135.1C94.3275 135.72 94.1575 136.36 94.0175 137.01ZM127.218 169.27C127.098 169.93 127.018 170.59 127.098 171.28C127.428 170.66 127.598 170.02 127.738 169.37C127.858 168.71 127.938 168.05 127.858 167.36C127.528 167.97 127.358 168.62 127.218 169.27ZM102.128 169.21C102.008 169.87 101.928 170.53 102.008 171.22C102.338 170.6 102.508 169.96 102.648 169.31C102.768 168.65 102.848 167.99 102.768 167.3C102.438 167.91 102.268 168.56 102.128 169.21ZM82.1975 154.68C82.0775 155.34 81.9975 156 82.0775 156.69C82.4075 156.07 82.5775 155.43 82.7175 154.78C82.8375 154.12 82.9175 153.46 82.8375 152.77C82.5075 153.38 82.3375 154.03 82.1975 154.68ZM113.088 126.23C112.968 126.89 112.888 127.55 112.968 128.24C113.298 127.62 113.468 126.98 113.608 126.33C113.728 125.67 113.808 125.01 113.728 124.32C113.398 124.93 113.228 125.58 113.088 126.23ZM114.758 152.06C114.638 152.72 114.558 153.38 114.638 154.07C114.968 153.45 115.138 152.81 115.278 152.16C115.398 151.5 115.478 150.84 115.398 150.15C115.068 150.76 114.898 151.4 114.758 152.06ZM79.0775 129.86C78.9575 130.52 78.8775 131.18 78.9575 131.87C79.2875 131.25 79.4575 130.61 79.5975 129.96C79.7175 129.3 79.7975 128.64 79.7175 127.95C79.3875 128.56 79.2075 129.21 79.0775 129.86ZM100.018 117.96C99.3575 117.84 98.6975 117.76 98.0075 117.84C98.6275 118.17 99.2675 118.34 99.9175 118.48C100.578 118.6 101.238 118.68 101.928 118.6C101.318 118.27 100.668 118.09 100.018 117.96ZM113.778 137.93C113.118 137.81 112.458 137.73 111.768 137.81C112.388 138.14 113.028 138.31 113.678 138.45C114.338 138.57 114.998 138.65 115.688 138.57C115.078 138.24 114.428 138.07 113.778 137.93ZM89.9075 147.67C89.2475 147.55 88.5875 147.47 87.8975 147.55C88.5175 147.88 89.1575 148.05 89.8075 148.19C90.4675 148.31 91.1275 148.39 91.8175 148.31C91.2075 147.98 90.5675 147.81 89.9075 147.67ZM106.598 160.91C105.938 160.79 105.278 160.71 104.588 160.79C105.208 161.12 105.848 161.29 106.498 161.43C107.158 161.55 107.818 161.63 108.508 161.55C107.898 161.22 107.248 161.04 106.598 160.91ZM72.4875 158.85C71.8275 158.73 71.1675 158.65 70.4775 158.73C71.0975 159.06 71.7375 159.23 72.3875 159.37C73.0475 159.49 73.7075 159.57 74.3975 159.49C73.7875 159.16 73.1375 158.99 72.4875 158.85ZM96.7175 96.8202C96.0575 96.7002 95.3975 96.6202 94.7075 96.7002C95.3275 97.0302 95.9675 97.2002 96.6175 97.3402C97.2775 97.4602 97.9375 97.5402 98.6275 97.4602C98.0075 97.1302 97.3675 96.9602 96.7175 96.8202ZM105.418 104.71C105.798 105.26 106.208 105.78 106.758 106.22C106.558 105.55 106.218 104.97 105.858 104.42C105.478 103.87 105.068 103.35 104.518 102.91C104.718 103.58 105.048 104.15 105.418 104.71ZM90.0775 125.8C90.4575 126.35 90.8675 126.87 91.4175 127.31C91.2175 126.64 90.8775 126.06 90.5175 125.51C90.1375 124.96 89.7275 124.44 89.1775 124C89.3775 124.66 89.7075 125.24 90.0775 125.8ZM74.8175 146.99C75.1975 147.54 75.6075 148.06 76.1575 148.5C75.9575 147.83 75.6175 147.25 75.2575 146.7C74.8775 146.15 74.4675 145.63 73.9175 145.19C74.1175 145.85 74.4575 146.43 74.8175 146.99ZM89.7275 164.42C90.1075 164.97 90.5175 165.49 91.0675 165.93C90.8675 165.26 90.5275 164.68 90.1675 164.13C89.7875 163.58 89.3775 163.06 88.8275 162.62C89.0275 163.28 89.3675 163.86 89.7275 164.42ZM122.578 160.87C122.958 161.42 123.368 161.94 123.918 162.38C123.718 161.71 123.378 161.13 123.018 160.58C122.638 160.03 122.228 159.51 121.678 159.07C121.878 159.73 122.218 160.31 122.578 160.87ZM104.618 144.47C104.998 145.02 105.408 145.54 105.958 145.98C105.758 145.31 105.418 144.73 105.058 144.18C104.678 143.63 104.268 143.11 103.718 142.67C103.928 143.33 104.258 143.91 104.618 144.47ZM84.7075 105.76C85.0875 106.31 85.4975 106.83 86.0475 107.27C85.8475 106.6 85.5075 106.02 85.1475 105.47C84.7675 104.92 84.3575 104.4 83.8075 103.96C84.0075 104.62 84.3375 105.2 84.7075 105.76ZM85.7175 116.85C86.2675 116.47 86.7875 116.06 87.2275 115.51C86.5575 115.71 85.9775 116.05 85.4275 116.41C84.8775 116.79 84.3575 117.2 83.9175 117.75C84.5775 117.55 85.1575 117.21 85.7175 116.85ZM122.838 143.45C123.478 143.25 124.038 142.94 124.568 142.6C124.538 142.42 124.508 142.23 124.478 142.04C124.438 142.07 124.408 142.09 124.368 142.11C123.808 142.49 123.278 142.91 122.838 143.45ZM82.4975 139.96C83.0475 139.58 83.5675 139.17 84.0075 138.62C83.3375 138.82 82.7575 139.16 82.2075 139.52C81.6575 139.9 81.1375 140.31 80.6975 140.86C81.3575 140.66 81.9375 140.32 82.4975 139.96ZM78.7375 168.28C79.2875 167.9 79.8075 167.49 80.2475 166.94C79.5775 167.14 78.9975 167.48 78.4475 167.84C77.8975 168.22 77.3775 168.63 76.9375 169.18C77.5975 168.98 78.1775 168.65 78.7375 168.28ZM112.678 113.69C113.228 113.31 113.748 112.9 114.188 112.35C113.518 112.55 112.938 112.89 112.388 113.25C111.838 113.63 111.318 114.04 110.878 114.59C111.538 114.38 112.118 114.05 112.678 113.69ZM98.2975 154.53C98.8475 154.15 99.3675 153.74 99.8075 153.19C99.1375 153.39 98.5575 153.73 98.0075 154.09C97.4575 154.47 96.9375 154.88 96.4975 155.43C97.1575 155.23 97.7375 154.89 98.2975 154.53ZM115.468 168.92C116.018 168.54 116.538 168.13 116.978 167.58C116.308 167.78 115.728 168.12 115.178 168.48C114.628 168.86 114.108 169.27 113.668 169.82C114.328 169.62 114.908 169.29 115.468 168.92ZM103.238 129.22C103.788 128.84 104.308 128.43 104.748 127.88C104.078 128.08 103.498 128.42 102.948 128.78C102.398 129.16 101.878 129.57 101.438 130.12C102.098 129.92 102.678 129.59 103.238 129.22Z" fill="white"/>
<path d="M114.197 101.14C139.347 122.51 160.477 151.33 157.777 159.9C154.917 168.96 136.097 178.16 119.897 179.3C116.577 179.53 107.837 154.78 111.277 153.87C113.957 153.16 126.107 150.48 127.637 148.93C128.697 147.85 111.717 120.66 106.497 106.68C101.027 92.0402 107.467 95.4202 114.197 101.14Z" fill="white"/>
<path d="M79.7575 173.58C79.5899 173.395 79.5899 173.395 79.5898 173.395L79.5895 173.395L79.5885 173.396L79.5853 173.399L79.5732 173.41C79.5628 173.42 79.5476 173.434 79.5282 173.452C79.4893 173.488 79.4332 173.542 79.3634 173.611C79.2897 173.683 79.2006 173.773 79.1002 173.877C79.0311 173.941 78.9554 174.01 78.8737 174.081C78.4345 174.467 77.8278 174.944 77.1493 175.318C76.4679 175.693 75.7356 175.953 75.0394 175.933C74.358 175.914 73.6875 175.628 73.107 174.86C72.8202 174.479 72.7463 173.979 72.8854 173.349C73.0252 172.716 73.3758 171.979 73.8997 171.167C74.9464 169.546 76.6457 167.688 78.5648 165.863C82.4026 162.213 87.0637 158.75 88.981 157.658C90.245 156.943 92.4267 156.302 94.7749 155.798C97.115 155.297 99.5898 154.938 101.419 154.779L101.419 154.779C104.715 154.49 108.889 154.242 112.241 154.067C113.916 153.98 115.385 153.911 116.436 153.863C116.961 153.839 117.382 153.821 117.671 153.809L117.939 153.798L117.98 153.905C118.049 154.085 118.151 154.348 118.279 154.683C118.536 155.354 118.902 156.312 119.337 157.462C120.208 159.763 121.357 162.834 122.47 165.912C123.583 168.99 124.66 172.073 125.387 174.401C125.75 175.565 126.024 176.535 126.172 177.217C126.246 177.561 126.286 177.819 126.292 177.99C126.293 178.026 126.293 178.055 126.291 178.078C120.208 179.382 114.912 179.641 106.45 178.184L106.336 178.164L106.248 178.238L106.407 178.43L106.248 178.238L106.248 178.238L106.246 178.239L106.24 178.244L106.216 178.264C106.195 178.281 106.163 178.307 106.121 178.341C106.038 178.409 105.915 178.508 105.757 178.634C105.441 178.884 104.985 179.24 104.426 179.659C103.309 180.496 101.781 181.584 100.141 182.587C98.4978 183.592 96.753 184.505 95.1982 185.001C93.625 185.503 92.332 185.552 91.5145 184.958C91.1275 184.677 90.9024 184.381 90.788 184.087C90.6739 183.794 90.6625 183.483 90.7353 183.155C90.825 182.751 91.0409 182.331 91.3363 181.914C92.324 181.182 93.2054 180.407 93.8505 179.804C94.1932 179.483 94.4698 179.211 94.6611 179.018C94.7567 178.922 94.8311 178.846 94.8816 178.793C94.8883 178.786 94.8946 178.78 94.9005 178.774C94.9168 178.757 94.9298 178.743 94.9394 178.733L94.9544 178.717L94.9583 178.713L94.9594 178.712L94.9596 178.711C94.9597 178.711 94.9598 178.711 94.7775 178.54M79.7575 173.58C79.9417 173.749 79.9416 173.749 79.9415 173.749L79.9412 173.75L79.9404 173.751L79.9376 173.754L79.9274 173.765C79.9185 173.774 79.9055 173.788 79.8886 173.806C79.8548 173.841 79.8054 173.892 79.742 173.955C79.6649 174.031 79.5669 174.126 79.4507 174.234C79.3668 174.322 79.2747 174.42 79.1771 174.528C78.7458 175.005 78.2108 175.662 77.7846 176.391C77.3561 177.125 77.0514 177.908 77.0501 178.643C77.0489 179.361 77.3357 180.054 78.1438 180.638C78.9473 181.217 79.8406 181.275 80.7568 181.017C81.6811 180.756 82.6144 180.176 83.4564 179.502C83.6174 179.374 83.7745 179.242 83.927 179.109C84.4306 178.368 85.0554 177.706 85.5518 177.231C85.8022 176.992 86.0216 176.798 86.1786 176.664C86.2572 176.597 86.3203 176.545 86.364 176.509C86.3858 176.491 86.4029 176.478 86.4146 176.468L86.4281 176.458L86.4317 176.455L86.4328 176.454L86.4331 176.454C86.4332 176.454 86.4332 176.454 86.5875 176.65M79.7575 173.58L79.5899 173.395L79.9417 173.749L79.7575 173.58ZM86.5875 176.65C86.7871 176.801 86.7871 176.801 86.787 176.801L86.7868 176.801L86.7859 176.802L86.7828 176.806L86.7712 176.822C86.7611 176.835 86.7462 176.854 86.7267 176.879C86.6878 176.929 86.6306 177.001 86.5568 177.092C86.4091 177.274 86.1946 177.53 85.9264 177.829C85.5044 178.3 84.9472 178.879 84.3054 179.443C83.8387 180.142 83.5174 180.875 83.5215 181.551C83.5256 182.214 83.843 182.867 84.7742 183.415L84.7742 183.415C85.5454 183.869 86.5232 183.827 87.6045 183.455C88.6821 183.085 89.8174 182.401 90.8593 181.644C90.8984 181.616 90.9373 181.587 90.976 181.559C91.1762 181.284 91.402 181.019 91.6378 180.768C92.287 180.077 93.0393 179.467 93.626 179.032C93.92 178.814 94.174 178.639 94.3548 178.517C94.4452 178.457 94.5174 178.41 94.5672 178.378C94.5822 178.368 94.5951 178.36 94.606 178.353C94.6132 178.348 94.6194 178.344 94.6247 178.341L94.6399 178.331L94.644 178.329L94.6451 178.328L94.6454 178.328C94.6455 178.328 94.6456 178.328 94.7775 178.54M86.5875 176.65L86.4332 176.454L86.7871 176.801L86.5875 176.65ZM94.7775 178.54L94.6456 178.328L94.9598 178.711L94.7775 178.54Z" fill="white" stroke="black" stroke-width="0.5"/>
<path d="M84.9774 178.24C85.3974 177.73 85.8274 177.23 86.2574 176.72C87.0874 175.72 87.8974 174.75 88.8474 173.85C89.7574 172.98 90.7074 172.16 91.6774 171.36C92.7074 170.52 93.8274 169.77 94.8274 168.91C94.9074 168.84 95.0074 168.96 94.9174 169.02C93.8974 169.82 92.9874 170.82 92.0674 171.73C91.1574 172.63 90.2474 173.55 89.3474 174.47C88.4674 175.37 87.5274 176.2 86.6274 177.07C86.1774 177.5 85.7474 177.96 85.3074 178.41C84.8974 178.83 84.5174 179.33 84.0474 179.68C83.9974 179.71 83.9474 179.65 83.9674 179.61C84.2074 179.1 84.6174 178.67 84.9774 178.24Z" fill="#333333"/>
<path d="M78.6771 174.59C79.2171 173.61 82.4671 170.02 83.3571 169.15C85.0671 167.47 86.9371 165.94 88.9471 164.63C89.0171 164.58 89.0971 164.68 89.0371 164.74C87.3271 166.43 85.5971 168.1 83.8671 169.77C83.0171 170.59 79.2971 174.41 78.8571 174.76C78.7571 174.84 78.6271 174.69 78.6771 174.59Z" fill="#333333"/>
<path d="M90.7969 181.83C91.3569 180.92 94.4368 177.58 95.2868 176.8C96.0868 176.06 99.7569 173.42 100.937 172.84C101.007 172.8 101.097 172.9 101.027 172.95C99.2469 174.41 97.4569 175.83 95.7469 177.37C94.9169 178.12 91.7769 181.31 90.9169 181.96C90.8569 182.02 90.7469 181.91 90.7969 181.83Z" fill="#333333"/>
<path d="M110.218 152.81L122.948 180.43C122.948 180.43 155.108 173.64 158.558 159.41C162.018 145.18 127.328 110.31 116.498 101.93C105.668 93.5502 98.8877 92.1602 106.838 110.39C114.788 128.62 127.568 147.61 126.408 148.47C125.428 149.2 110.218 152.81 110.218 152.81Z" fill="#BDC2C7"/>
<path d="M133.548 134.28C133.618 134.97 133.538 135.64 133.428 136.29C133.288 136.94 133.118 137.59 132.788 138.2C132.718 137.51 132.798 136.84 132.908 136.19C133.048 135.54 133.218 134.89 133.548 134.28ZM127.218 169.27C127.098 169.93 127.018 170.59 127.098 171.28C127.428 170.66 127.598 170.02 127.738 169.37C127.858 168.71 127.938 168.05 127.858 167.36C127.528 167.97 127.358 168.62 127.218 169.27ZM144.408 153.89C144.288 154.55 144.208 155.21 144.288 155.9C144.618 155.28 144.788 154.64 144.928 153.99C145.048 153.33 145.128 152.67 145.048 151.98C144.718 152.59 144.548 153.24 144.408 153.89ZM113.678 124.41C113.698 124.44 113.718 124.48 113.728 124.51C113.728 124.44 113.728 124.38 113.718 124.31C113.708 124.35 113.688 124.38 113.678 124.41ZM121.538 109.02C121.418 109.68 121.338 110.34 121.418 111.03C121.748 110.41 121.918 109.77 122.058 109.12C122.178 108.46 122.258 107.8 122.178 107.11C121.848 107.72 121.678 108.37 121.538 109.02ZM114.638 154.07C114.958 153.46 115.128 152.81 115.278 152.16C115.318 151.96 115.348 151.76 115.368 151.56C115.198 151.6 115.028 151.64 114.848 151.68C114.808 151.8 114.788 151.93 114.758 152.05C114.638 152.72 114.558 153.37 114.638 154.07ZM113.398 100.48C112.738 100.36 112.078 100.28 111.388 100.36C112.008 100.69 112.648 100.86 113.298 101C113.958 101.12 114.618 101.2 115.308 101.12C114.698 100.79 114.058 100.62 113.398 100.48ZM144.718 136.22C144.058 136.1 143.398 136.02 142.708 136.1C143.328 136.43 143.968 136.6 144.618 136.74C145.278 136.86 145.938 136.94 146.628 136.86C146.018 136.53 145.368 136.36 144.718 136.22ZM129.898 152.6C129.238 152.48 128.578 152.4 127.888 152.48C128.508 152.81 129.148 152.98 129.798 153.12C130.458 153.24 131.118 153.32 131.808 153.24C131.198 152.91 130.548 152.73 129.898 152.6ZM137.198 172.68C136.538 172.56 135.878 172.48 135.188 172.56C135.808 172.89 136.448 173.06 137.098 173.2C137.758 173.32 138.418 173.4 139.108 173.32C138.498 172.99 137.848 172.82 137.198 172.68ZM153.038 159.77C152.378 159.65 151.718 159.57 151.028 159.65C151.648 159.98 152.288 160.15 152.938 160.29C153.598 160.41 154.258 160.49 154.948 160.41C154.328 160.08 153.688 159.91 153.038 159.77ZM125.758 117.93C125.098 117.81 124.438 117.73 123.748 117.81C124.368 118.14 125.008 118.31 125.658 118.45C126.318 118.57 126.978 118.65 127.668 118.57C127.058 118.24 126.418 118.07 125.758 117.93ZM105.418 104.71C105.798 105.26 106.208 105.78 106.758 106.22C106.558 105.55 106.218 104.97 105.858 104.42C105.478 103.87 105.068 103.35 104.518 102.91C104.718 103.58 105.048 104.15 105.418 104.71ZM124.178 128.97C124.558 129.52 124.968 130.04 125.518 130.48C125.318 129.81 124.978 129.23 124.618 128.68C124.238 128.13 123.828 127.61 123.278 127.17C123.488 127.83 123.818 128.41 124.178 128.97ZM122.578 160.87C122.958 161.42 123.368 161.94 123.918 162.38C123.718 161.71 123.378 161.13 123.018 160.58C122.638 160.03 122.228 159.51 121.678 159.07C121.878 159.73 122.218 160.31 122.578 160.87ZM143.148 166.21C143.528 166.76 143.938 167.28 144.488 167.72C144.288 167.05 143.948 166.47 143.588 165.92C143.208 165.37 142.798 164.85 142.248 164.41C142.448 165.07 142.788 165.65 143.148 166.21ZM139.098 145.55C139.478 146.1 139.888 146.62 140.438 147.06C140.238 146.39 139.898 145.81 139.538 145.26C139.158 144.71 138.748 144.19 138.198 143.75C138.398 144.42 138.728 145 139.098 145.55ZM122.938 177.71C123.318 178.26 123.728 178.78 124.278 179.22C124.078 178.55 123.738 177.97 123.378 177.42C122.998 176.87 122.588 176.35 122.038 175.91C122.238 176.58 122.568 177.16 122.938 177.71ZM123.778 142.54V142.55C123.848 142.68 123.928 142.82 123.988 142.94C124.218 142.82 124.428 142.68 124.648 142.54C125.198 142.16 125.718 141.74 126.158 141.2C125.498 141.41 124.918 141.74 124.358 142.1C124.158 142.25 123.958 142.39 123.778 142.54ZM152.788 147.9C153.338 147.52 153.858 147.11 154.298 146.56C153.628 146.76 153.048 147.1 152.498 147.46C151.948 147.84 151.428 148.25 150.988 148.8C151.648 148.59 152.228 148.26 152.788 147.9ZM134.708 162.1C135.258 161.72 135.778 161.31 136.218 160.76C135.548 160.96 134.968 161.3 134.418 161.66C133.868 162.04 133.348 162.45 132.908 163C133.578 162.79 134.158 162.46 134.708 162.1ZM112.678 113.69C113.228 113.31 113.748 112.9 114.188 112.35C113.518 112.55 112.938 112.89 112.388 113.25C111.838 113.63 111.318 114.04 110.878 114.59C111.538 114.38 112.118 114.05 112.678 113.69ZM135.818 125.97C136.368 125.59 136.888 125.18 137.328 124.63C136.658 124.83 136.078 125.17 135.528 125.53C134.978 125.91 134.458 126.32 134.018 126.87C134.678 126.67 135.258 126.33 135.818 125.97Z" fill="white"/>
<path d="M127.637 176.92C127.007 175.99 122.577 167.09 121.657 165.14C120.737 163.18 116.897 155.23 116.107 153.14C116.077 153.05 116.197 152.98 116.247 153.07C117.407 154.98 121.307 162.99 122.277 164.97C123.257 166.94 127.447 175.84 127.767 176.88C127.807 176.96 127.677 176.98 127.637 176.92Z" fill="#333333"/>
<path d="M110.058 152.71C110.058 152.71 110.518 153.58 110.668 153.84C110.688 153.87 110.758 153.96 110.708 153.82C110.628 153.61 110.298 152.86 110.298 152.86C114.638 152.1 118.968 151.22 123.258 150.13C123.798 149.99 124.338 149.84 124.878 149.67C125.418 149.48 125.918 149.36 126.538 148.98C126.578 148.94 126.598 148.94 126.668 148.88C126.728 148.8 126.798 148.73 126.828 148.64C126.868 148.5 126.858 148.27 126.818 148.17C126.778 148.03 126.728 147.86 126.668 147.73C126.568 147.46 126.458 147.2 126.348 146.94C126.128 146.43 125.878 145.93 125.648 145.42C124.688 143.41 123.688 141.44 122.648 139.47C120.548 135.56 118.468 131.65 116.288 127.81C114.228 124.16 112.098 120.05 109.928 116.47C109.798 116.26 109.448 116.05 109.838 116.83C111.798 120.8 113.588 124.23 115.618 128.16L121.778 139.92C122.798 141.88 123.848 143.83 124.818 145.81C125.068 146.3 125.308 146.8 125.538 147.3C125.658 147.55 125.758 147.79 125.858 148.04C125.888 148.14 125.918 148.22 125.948 148.31C125.978 148.29 125.998 148.28 126.018 148.26C126.018 148.26 126.038 148.26 126.038 148.25C126.028 148.27 126.018 148.29 126.018 148.32C125.978 148.33 125.988 148.41 125.978 148.38C125.968 148.36 125.958 148.33 125.948 148.31C125.618 148.5 125.078 148.69 124.618 148.85L123.048 149.34C120.948 149.99 118.798 150.55 116.648 151.09L110.058 152.71Z" fill="#333333"/>
<path d="M125.928 148.32C125.938 148.34 125.948 148.37 125.958 148.39C125.968 148.42 125.958 148.34 125.998 148.33C125.998 148.3 126.008 148.28 126.018 148.26C126.018 148.27 125.998 148.27 125.998 148.27C125.978 148.29 125.958 148.3 125.928 148.32Z" fill="#333333"/>
<path d="M110.258 121.53C109.968 121.28 109.988 121.47 110.118 121.66C110.838 122.66 111.968 123.8 112.778 124.72C113.748 125.8 114.738 126.85 115.848 127.81C115.028 126.6 114.108 125.48 113.148 124.39C112.178 123.31 111.368 122.48 110.258 121.53Z" fill="#333333"/>
<path d="M93.7878 104.92C97.1678 106.07 103.618 101.36 106.378 97.3102C106.503 97.1251 106.48 95.6904 106.448 93.6356C106.431 92.5819 106.411 91.3651 106.408 90.0702C106.418 87.7502 106.478 85.1702 106.708 82.8102L93.7878 104.92ZM93.7878 104.92C90.5178 103.81 91.4478 97.0602 91.9278 95.2602L93.7878 104.92ZM93.8684 104.683L93.8682 104.683C93.1358 104.435 92.6247 103.868 92.2784 103.094C91.9306 102.315 91.7585 101.345 91.7012 100.335C91.5867 98.3139 91.9351 96.2031 92.1694 95.3246L92.1725 95.3131L92.1744 95.3013C92.1774 95.2836 92.1823 95.2631 92.189 95.2385L92.1994 95.2015C92.2023 95.1911 92.2057 95.179 92.2088 95.1669C92.3032 94.8511 92.3651 94.5179 92.4061 94.1694L92.4062 94.1694L92.4066 94.1656C92.6192 92.0902 92.4796 89.7778 92.2889 87.9911C92.1934 87.0963 92.0847 86.3303 91.9998 85.7878C91.9593 85.5288 91.9242 85.3206 91.8986 85.1735C92.0029 85.1554 92.1383 85.1321 92.3011 85.104C92.7151 85.0328 93.3064 84.9316 94.0159 84.8117C95.435 84.5717 97.3263 84.2569 99.2158 83.9571C101.106 83.6572 102.992 83.3727 104.401 83.1932C105.107 83.1033 105.688 83.0404 106.089 83.0147C106.234 83.0054 106.351 83.0013 106.438 83.0019C106.224 85.3141 106.168 87.8171 106.158 90.0691L106.158 90.0708C106.161 91.3674 106.181 92.5876 106.198 93.6422C106.206 94.1421 106.213 94.6047 106.218 95.0206C106.225 95.6693 106.227 96.2026 106.214 96.59C106.208 96.7843 106.199 96.9366 106.186 97.0463C106.179 97.1013 106.173 97.1407 106.166 97.1669C106.165 97.1739 106.163 97.1791 106.162 97.1826C104.803 99.1727 102.53 101.334 100.18 102.855C99.0024 103.617 97.8143 104.212 96.7198 104.547C95.6215 104.882 94.6434 104.947 93.8684 104.683ZM106.459 82.7843L106.459 82.7859L106.459 82.7843Z" fill="white" stroke="black" stroke-width="0.5"/>
<path d="M105.797 82.7902C104.727 86.7002 101.327 96.0701 93.4274 95.4901C92.8774 95.4501 92.3774 95.3702 91.9274 95.2602C91.9274 95.1902 91.9474 95.1502 91.9574 95.1002C92.0474 94.8002 92.1174 94.4901 92.1574 94.1501C92.5774 90.0401 91.6074 84.9702 91.6074 84.9702C91.6074 84.9702 102.537 83.0602 105.797 82.7902Z" fill="black"/>
<path d="M109.143 65.5316L109.143 65.532C109.419 66.8349 109.38 68.7398 109.094 70.9305C108.808 73.1152 108.278 75.562 107.588 77.9379C106.897 80.3141 106.046 82.6131 105.121 84.5037C104.192 86.4035 103.202 87.858 102.247 88.5807L102.247 88.5808C99.3804 90.7489 95.7665 91.7542 92.4369 91.378C89.1132 91.0024 86.0763 89.2523 84.3292 85.9045C83.4925 84.301 83.1954 81.9016 83.3096 79.1282C83.4234 76.3633 83.9442 73.2612 84.7122 70.2775C85.4802 67.2938 86.4932 64.4373 87.5869 62.1632C88.1339 61.0261 88.6989 60.0391 89.2607 59.2561C89.825 58.4699 90.3751 57.9049 90.8873 57.5938L90.8875 57.5938C94.0689 55.6596 98.2217 55.6892 101.798 57.1943C105.373 58.6988 108.328 61.6592 109.143 65.5316Z" fill="white" stroke="black" stroke-width="0.5"/>
<path d="M93.4777 74.6202C93.4977 74.5802 93.5477 74.6902 93.5277 74.7302C93.2277 75.7302 93.0477 76.9202 93.8677 77.4902C93.8977 77.5102 93.8777 77.5602 93.8477 77.5402C92.7777 77.0902 93.0377 75.5202 93.4777 74.6202Z" fill="#333333"/>
<path d="M94.6576 73.8201C96.3076 74.1301 95.5576 77.4101 94.0276 77.1201C92.5276 76.8201 93.2776 73.5501 94.6576 73.8201Z" fill="#333333"/>
<path d="M87.7974 73.3501C87.7974 73.3101 87.7074 73.3801 87.6974 73.4201C87.4974 74.4401 87.0974 75.5801 86.1074 75.7001C86.0774 75.7001 86.0674 75.7601 86.1074 75.7601C87.2574 75.8601 87.7774 74.3501 87.7974 73.3501Z" fill="#333333"/>
<path d="M87.1375 72.0901C85.5375 71.5901 84.6575 74.8301 86.1475 75.2901C87.6075 75.7401 88.4775 72.5001 87.1375 72.0901Z" fill="#333333"/>
<path d="M96.7571 71.5701C96.3071 71.4301 95.9171 71.2301 95.4771 71.0501C94.9871 70.8401 94.5771 70.7301 94.2771 70.2701C94.1171 70.0201 94.2071 69.6001 94.4371 69.4201C94.9571 69.0001 95.6171 69.1001 96.2171 69.3201C96.8671 69.5601 97.3071 69.9101 97.6471 70.5101C97.9971 71.0901 97.3571 71.7501 96.7571 71.5701Z" fill="#333333"/>
<path d="M86.188 69.3602C86.658 69.3902 87.098 69.3402 87.568 69.3202C88.098 69.3002 88.518 69.3402 88.968 69.0102C89.208 68.8402 89.268 68.4102 89.118 68.1602C88.778 67.5802 88.118 67.4502 87.488 67.4502C86.798 67.4502 86.268 67.6302 85.728 68.0602C85.198 68.4702 85.558 69.3202 86.188 69.3602Z" fill="#333333"/>
<path d="M93.0171 84.4302C92.7171 84.6102 92.4071 84.8802 92.0271 84.8302C91.6671 84.7802 91.2871 84.5302 90.9971 84.3302C90.9671 84.3102 90.9271 84.3402 90.9371 84.3702C91.1071 84.8202 91.6071 85.1902 92.0971 85.2102C92.5771 85.2302 92.8871 84.8902 93.0971 84.5002C93.1271 84.4402 93.0571 84.4002 93.0171 84.4302Z" fill="#333333"/>
<path d="M92.648 81.1501C91.878 81.9001 90.938 82.1901 89.998 82.1601C89.578 82.1501 89.148 82.0701 88.748 81.9301C88.668 81.9101 88.588 81.8801 88.518 81.8501C88.448 81.8201 88.378 81.8001 88.308 81.7601C88.198 81.7201 88.148 81.6001 88.158 81.4901V81.4801C88.168 81.4401 88.178 81.4101 88.188 81.3801C88.188 81.3801 88.188 81.3801 88.188 81.3701L88.208 81.2801C88.368 80.4901 88.708 79.3301 88.708 79.3301C88.388 79.4101 86.788 79.7301 86.898 79.3301C87.868 76.0001 88.958 72.3001 90.628 69.1901C90.678 69.0801 90.838 69.1501 90.808 69.2601C89.998 72.5001 88.628 75.5701 87.758 78.8101C88.258 78.7401 89.098 78.5901 89.498 78.6901C89.598 78.7501 88.788 80.9401 88.748 81.3001C88.748 81.3001 88.748 81.3101 88.748 81.3401C90.018 81.8101 91.098 81.6401 92.578 81.0501C92.658 80.9901 92.728 81.0801 92.648 81.1501Z" fill="#333333"/>
<path d="M89.2871 81.6401C89.2871 81.6401 89.7671 82.7301 90.6371 83.2901C90.9571 83.5001 91.3171 83.6301 91.7371 83.6201C92.5971 83.5901 92.7871 82.8501 92.7871 82.1801C92.7871 81.6301 92.6471 81.1201 92.6471 81.1201C92.6471 81.1201 91.2071 81.9601 89.2871 81.6401Z" fill="#333333"/>
<path d="M90.6367 83.2802C90.9567 83.4902 91.3167 83.6202 91.7367 83.6102C92.5967 83.5802 92.7867 82.8402 92.7867 82.1702C91.8967 82.0702 90.9067 82.4602 90.6367 83.2802Z" fill="#F46363"/>
<path d="M107.417 77.1602C104.727 76.8602 105.327 70.2802 105.327 70.2802C105.327 70.2802 101.247 69.3302 99.5269 63.5802C99.5269 63.5802 94.0669 66.6302 89.6569 65.6002C82.7569 63.9802 83.4069 54.9502 86.1069 53.2402C89.9269 50.8202 96.3169 54.9602 96.3169 54.9602C96.3169 54.9602 106.417 52.7002 109.027 59.5802C109.027 59.5802 113.457 60.0002 113.507 64.9202C113.567 69.8302 109.427 77.3802 107.417 77.1602Z" fill="black"/>
<path d="M106.257 71.1101C104.297 70.6201 102.467 69.6101 101.197 68.0001C99.8974 66.3401 99.2174 63.8601 99.9274 61.8301C99.9674 61.7201 99.7774 61.6701 99.7474 61.7801C99.1374 64.0501 99.1474 66.4201 100.517 68.4401C101.767 70.2901 103.977 71.5101 106.227 71.3101C106.337 71.3001 106.367 71.1401 106.257 71.1101Z" fill="#333333"/>
<path d="M114.017 62.0602C112.737 60.2502 110.657 59.8702 108.587 59.8402C108.467 59.8402 108.467 60.0302 108.587 60.0202C110.637 59.8902 112.617 61.3502 113.587 63.0802C114.547 64.7702 114.207 66.8102 113.687 68.5902C112.707 72.0102 110.507 75.0302 107.477 76.9102C107.427 76.9402 107.467 77.0202 107.527 76.9902C110.957 75.0502 113.557 71.7402 114.487 67.8902C114.937 66.0102 115.197 63.7302 114.017 62.0602Z" fill="#333333"/>
<path d="M96.5773 55.3002C95.7073 53.8302 94.5073 52.7302 92.9073 52.1802C91.0573 51.5402 88.8872 51.6802 87.0972 52.4702C85.5872 53.1402 84.6773 54.6102 84.4873 56.2602C84.2673 58.1402 85.0573 59.9602 86.0473 61.4902C86.0773 61.5302 86.1472 61.4902 86.1172 61.4502C85.3272 60.0102 84.7473 58.3902 84.9373 56.7102C85.1273 55.0402 86.0772 53.6902 87.6172 53.1002C90.5372 51.9802 94.7072 52.4002 96.4272 55.4002C96.4772 55.4902 96.6373 55.4002 96.5773 55.3002Z" fill="#333333"/>
<path d="M84.8074 77.5201C83.3374 77.1101 82.6374 74.9701 83.2574 72.7501C83.8674 70.5301 85.5674 69.0502 87.0374 69.4502C88.5074 69.8602 89.2074 72.0002 88.5874 74.2202C87.9774 76.4402 86.2774 77.9201 84.8074 77.5201ZM86.8874 69.9901C85.7174 69.6701 84.3274 70.9701 83.7974 72.9001C83.2674 74.8301 83.7874 76.6602 84.9574 76.9802C86.1274 77.3002 87.5174 76.0001 88.0474 74.0801C88.5774 72.1401 88.0574 70.3101 86.8874 69.9901Z" fill="#173BEF"/>
<path d="M93.8474 80.0201C91.7674 79.4501 90.5774 77.1701 91.1974 74.9501C91.8074 72.7301 94.0074 71.3801 96.0774 71.9601C98.1574 72.5301 99.3474 74.8101 98.7274 77.0401C98.1174 79.2501 95.9274 80.5901 93.8474 80.0201ZM95.9274 72.4901C94.1474 72.0001 92.2674 73.1601 91.7374 75.0901C91.2074 77.0201 92.2174 78.9801 93.9974 79.4701C95.7774 79.9601 97.6574 78.8001 98.1874 76.8701C98.7174 74.9501 97.7074 72.9801 95.9274 72.4901Z" fill="#173BEF"/>
<path d="M91.4771 74.6301C89.6571 73.3601 88.5571 73.7701 88.5471 73.7801L88.3271 73.2601C88.3771 73.2401 89.6871 72.7101 91.7871 74.1701L91.4771 74.6301Z" fill="#173BEF"/>
<path d="M98.5576 76.6002L98.6076 76.0402C98.9776 76.0702 107.628 76.8302 108.538 77.0302C109.498 77.2302 111.358 79.0802 111.568 79.2902L111.168 79.6902C110.638 79.1602 109.158 77.7901 108.458 77.5901C108.448 77.5901 108.428 77.5801 108.418 77.5801C107.718 77.4201 101.658 76.8702 98.5576 76.6002Z" fill="#173BEF"/>
<path d="M105.067 77.5201C105.067 77.5201 109.007 73.0101 111.097 74.4701C113.177 75.9301 109.847 82.7301 107.137 83.4101C104.427 84.1001 103.747 81.6001 103.747 81.6001L104.407 79.5601L105.067 77.5201Z" fill="white"/>
<path d="M105.067 77.5201C105.067 77.5201 109.007 73.0101 111.097 74.4701C113.177 75.9301 109.847 82.7301 107.137 83.4101C104.427 84.1001 103.747 81.6001 103.747 81.6001" stroke="black" stroke-width="0.5"/>
<path d="M110.087 76.4C110.127 76.4 110.127 76.4601 110.097 76.4701C108.197 77.0101 107.047 78.6001 106.187 80.2801C106.807 79.6601 107.577 79.37 108.417 80.12C108.457 80.16 108.407 80.23 108.357 80.21C107.627 79.97 107.077 80.04 106.507 80.58C106.107 80.96 105.797 81.4701 105.497 81.9401C105.397 82.0901 105.107 81.9701 105.187 81.7901C105.197 81.7801 105.197 81.7601 105.207 81.7501C105.407 79.4201 107.567 76.36 110.087 76.4Z" fill="#333333"/>
<path d="M108.098 98.5101C106.298 100.37 104.578 102.29 102.588 103.93C100.718 105.47 98.5176 106.83 96.0776 106.93C93.7176 107.03 91.4076 106.43 90.6876 103.52C90.1176 101.21 90.3476 98.8701 90.8976 95.9801C90.9176 95.8501 90.7476 95.8101 90.7276 95.9401C90.0076 99.6701 89.1476 105.45 92.4976 106.92C96.2376 108.56 100.078 106.79 102.898 104.29C104.808 102.6 106.668 100.66 108.168 98.5601C108.198 98.5301 108.138 98.4801 108.098 98.5101Z" fill="#333333"/>
<path d="M59.6981 0H13.3281V34.67H59.6981V0Z" fill="#173BEF"/>
<path d="M27.668 34.6799H45.348L36.508 44.2299L27.668 34.6799Z" fill="#173BEF"/>
<path d="M45.5077 19.64C41.4077 25.07 36.5077 27.4499 36.5077 27.4499C36.5077 27.4499 31.6077 25.07 27.5077 19.64C24.3377 15.45 24.4977 8.87994 29.0277 7.45994C34.0377 5.88994 36.5077 13.4299 36.5077 13.4299C36.5077 13.4299 39.0077 5.83994 43.9877 7.45994C48.5077 8.92994 48.6777 15.44 45.5077 19.64Z" fill="white"/>
</svg>
