<svg width="12" height="14" viewBox="0 0 12 14" fill="none" xmlns="http://www.w3.org/2000/svg">
<path fill-rule="evenodd" clip-rule="evenodd" d="M8.55253 0.449778C8.31217 0.209794 7.92277 0.210098 7.68279 0.450458C7.4428 0.690819 7.44311 1.08021 7.68347 1.3202L9.38592 3.01999H0.872303C0.532648 3.01999 0.257303 3.29533 0.257303 3.63499C0.257303 3.97464 0.532648 4.24999 0.872303 4.24999H9.38592L7.68347 5.94978C7.44311 6.18976 7.4428 6.57916 7.68279 6.81952C7.92277 7.05988 8.31217 7.06018 8.55253 6.8202L11.7427 3.63499L8.55253 0.449778ZM3.44749 13.5502C3.68785 13.7902 4.07724 13.7899 4.31723 13.5495C4.55721 13.3092 4.55691 12.9198 4.31655 12.6798L2.6141 10.98L11.1277 10.98C11.4674 10.98 11.7427 10.7047 11.7427 10.365C11.7427 10.0254 11.4674 9.75001 11.1277 9.75001H2.6141L4.31655 8.05022C4.55691 7.81024 4.55721 7.42084 4.31723 7.18048C4.07725 6.94012 3.68785 6.93982 3.44749 7.1798L0.257294 10.365L3.44749 13.5502Z" fill="#ffffff"/>
</svg>
