<svg width="12" height="8" viewBox="0 0 12 8" fill="none" xmlns="http://www.w3.org/2000/svg">
<path d="M11.9237 3.75587C11.8165 3.60247 9.26223 0 5.99994 0C2.73765 0 0.183235 3.60247 0.0761486 3.75572C-0.0253829 3.90124 -0.0253829 4.09861 0.0761486 4.24413C0.183235 4.39753 2.73765 8 5.99994 8C9.26223 8 11.8165 4.3975 11.9237 4.24426C12.0254 4.09876 12.0254 3.90124 11.9237 3.75587ZM5.99994 7.17242C3.59691 7.17242 1.51564 4.78138 0.899533 3.99972C1.51484 3.21737 3.59176 0.827582 5.99994 0.827582C8.40285 0.827582 10.484 3.2182 11.1003 4.00028C10.485 4.78261 8.40812 7.17242 5.99994 7.17242Z" fill="#BDC2C7"/>
<path d="M5.99985 1.51707C4.69105 1.51707 3.62622 2.63087 3.62622 3.99984C3.62622 5.36881 4.69105 6.48261 5.99985 6.48261C7.30864 6.48261 8.37348 5.36881 8.37348 3.99984C8.37348 2.63087 7.30864 1.51707 5.99985 1.51707ZM5.99985 5.655C5.12727 5.655 4.41744 4.91251 4.41744 3.99984C4.41744 3.08717 5.12729 2.34468 5.99985 2.34468C6.8724 2.34468 7.58225 3.08717 7.58225 3.99984C7.58225 4.91251 6.87242 5.655 5.99985 5.655Z" fill="#BDC2C7"/>
</svg>
