<svg width="13" height="12" viewBox="0 0 13 12" fill="none" xmlns="http://www.w3.org/2000/svg">
<path d="M5.06138 9.52066L4.45418 10.1237C3.92783 10.6454 3.07178 10.6458 2.54573 10.1237C2.29283 9.87271 2.15393 9.53941 2.15393 9.18511C2.15393 8.83081 2.29298 8.49736 2.54558 8.24641L4.78058 6.02897C5.24377 5.56967 6.11512 4.89332 6.75022 5.52317C7.04167 5.81267 7.51237 5.81072 7.80172 5.51942C8.09122 5.22812 8.08942 4.75727 7.79797 4.46807C6.71842 3.39677 5.12287 3.59477 3.73328 4.97357L1.49813 7.19116C0.961886 7.72351 0.666687 8.43151 0.666687 9.18511C0.666687 9.93871 0.961886 10.6466 1.49828 11.1789C2.05013 11.7264 2.77478 12 3.49973 12C4.22483 12 4.94978 11.7264 5.50192 11.1786L6.10957 10.5755C6.40087 10.2863 6.40252 9.81556 6.11302 9.52411C5.82397 9.23296 5.35282 9.23131 5.06138 9.52066ZM11.8348 0.906631C10.6753 -0.243866 9.05406 -0.306266 7.98067 0.758731L7.22377 1.51008C6.93232 1.79943 6.93052 2.26998 7.22002 2.56143C7.50952 2.85288 7.98022 2.85453 8.27167 2.56518L9.02826 1.81428C9.58431 1.26213 10.3124 1.49103 10.7873 1.96218C11.0405 2.21313 11.1796 2.54658 11.1796 2.90088C11.1796 3.25532 11.0404 3.58877 10.7876 3.83972L8.40307 6.20522C7.31272 7.28701 6.80122 6.77926 6.58297 6.56266C6.29152 6.27332 5.82097 6.27512 5.53147 6.56642C5.24197 6.85771 5.24377 7.32856 5.53522 7.61776C6.03577 8.11456 6.60712 8.36086 7.20607 8.36086C7.93942 8.36086 8.71402 7.99156 9.45051 7.26031L11.8351 4.89482C12.3712 4.36247 12.6667 3.65432 12.6667 2.90073C12.6667 2.14743 12.3712 1.43928 11.8348 0.906631Z" fill="#030104"/>
</svg>
