<svg width="13" height="12" viewBox="0 0 13 12" fill="none" xmlns="http://www.w3.org/2000/svg">
<path fill-rule="evenodd" clip-rule="evenodd" d="M0.666504 4.5121C0.666504 4.96566 1.03419 5.33334 1.48774 5.33334H5.17851C5.63207 5.33334 5.99975 4.96566 5.99975 4.5121V0.821239C5.99975 0.367681 5.63207 0 5.17851 0H1.48774C1.03419 0 0.666504 0.367681 0.666504 0.821239V4.5121Z" fill="#272226"/>
<path fill-rule="evenodd" clip-rule="evenodd" d="M7.33306 1.33331C7.33306 1.70149 7.63153 1.99997 7.99971 1.99997H11.9996C12.3678 1.99997 12.6663 1.70149 12.6663 1.33331C12.6663 0.965127 12.3678 0.666656 11.9996 0.666656H7.99971C7.63153 0.666656 7.33306 0.965127 7.33306 1.33331Z" fill="#272226"/>
<path fill-rule="evenodd" clip-rule="evenodd" d="M0.666504 11.1788C0.666504 11.6323 1.03419 12 1.48774 12H5.17851C5.63207 12 5.99975 11.6323 5.99975 11.1788V7.4879C5.99975 7.03434 5.63207 6.66666 5.17851 6.66666H1.48774C1.03419 6.66666 0.666504 7.03434 0.666504 7.4879V11.1788Z" fill="#272226"/>
<path fill-rule="evenodd" clip-rule="evenodd" d="M7.33306 3.99993C7.33306 4.36812 7.63153 4.66659 7.99971 4.66659H11.9996C12.3678 4.66659 12.6663 4.36812 12.6663 3.99993C12.6663 3.63175 12.3678 3.33328 11.9996 3.33328H7.99971C7.63153 3.33328 7.33306 3.63175 7.33306 3.99993Z" fill="#272226"/>
<path fill-rule="evenodd" clip-rule="evenodd" d="M7.33306 7.99997C7.33306 8.36815 7.63153 8.66662 7.99971 8.66662H11.9996C12.3678 8.66662 12.6663 8.36815 12.6663 7.99997C12.6663 7.63178 12.3678 7.33331 11.9996 7.33331H7.99971C7.63153 7.33331 7.33306 7.63178 7.33306 7.99997Z" fill="#272226"/>
<path fill-rule="evenodd" clip-rule="evenodd" d="M7.33306 10.6666C7.33306 11.0349 7.63155 11.3333 7.99976 11.3333H11.9996C12.3678 11.3333 12.6663 11.0349 12.6663 10.6666C12.6663 10.2984 12.3678 9.99993 11.9996 9.99993H7.99976C7.63155 9.99993 7.33306 10.2984 7.33306 10.6666Z" fill="#272226"/>
</svg>
