<svg width="19" height="12" viewBox="0 0 19 12" fill="none" xmlns="http://www.w3.org/2000/svg">
<path d="M18.548 5.6338C18.3813 5.40371 14.4079 0 9.33325 0C4.25856 0 0.285032 5.40371 0.118453 5.63358C-0.0394845 5.85186 -0.0394845 6.14792 0.118453 6.3662C0.285032 6.59629 4.25856 12 9.33325 12C14.4079 12 18.3813 6.59625 18.548 6.36639C18.7062 6.14814 18.7062 5.85186 18.548 5.6338ZM9.33325 10.7586C5.5952 10.7586 2.35766 7.17207 1.39927 5.99958C2.35642 4.82605 5.58718 1.24137 9.33325 1.24137C13.0711 1.24137 16.3084 4.8273 17.2672 6.00042C16.3101 7.17391 13.0793 10.7586 9.33325 10.7586Z" fill="black"/>
<path d="M9.33311 2.27561C7.2972 2.27561 5.64079 3.9463 5.64079 5.99976C5.64079 8.05322 7.2972 9.72392 9.33311 9.72392C11.369 9.72392 13.0254 8.05322 13.0254 5.99976C13.0254 3.9463 11.369 2.27561 9.33311 2.27561ZM9.33311 8.48251C7.97576 8.48251 6.87158 7.36877 6.87158 5.99976C6.87158 4.63075 7.9758 3.51701 9.33311 3.51701C10.6904 3.51701 11.7946 4.63075 11.7946 5.99976C11.7946 7.36877 10.6904 8.48251 9.33311 8.48251Z" fill="black"/>
</svg>
