<svg width="15" height="14" viewBox="0 0 15 14" fill="none" xmlns="http://www.w3.org/2000/svg">
<path d="M7.66582 0C3.80051 0.000875 0.667135 3.13425 0.66626 6.99956C0.667135 10.8662 3.80051 13.9996 7.66582 14C11.5324 13.9991 14.6658 10.8662 14.6663 6.99956C14.6658 3.13425 11.5324 0.000875 7.66582 0ZM5.71107 1.20138C5.23945 1.74563 4.73326 2.50338 4.34826 3.50044H2.64682C3.38926 2.43819 4.45895 1.62444 5.71107 1.20138ZM2.14107 4.375H4.06126C3.88888 5.01944 3.77732 5.74963 3.74626 6.5625H1.56401C1.62045 5.78331 1.82126 5.04612 2.14107 4.375ZM1.56401 7.43794H3.74626C3.77732 8.25081 3.88888 8.98056 4.06126 9.625H2.14195C1.82213 8.95387 1.62088 8.21756 1.56401 7.43794ZM2.64813 10.5H4.3487C4.73326 11.4953 5.23857 12.2531 5.7102 12.7969C4.45895 12.3743 3.39013 11.5614 2.64813 10.5ZM7.22876 13.0327C6.81751 12.7247 5.9202 11.9394 5.28932 10.5H7.22876V13.0327ZM7.22876 9.62456H4.96688C4.77963 8.99588 4.65451 8.26656 4.61907 7.4375H7.22876V9.62456ZM7.22876 6.5625H4.62126C4.6567 5.7295 4.78488 5.00369 4.97345 4.375H7.22876V6.5625ZM7.22876 3.50044H5.28714C5.51814 2.97413 5.78457 2.53444 6.0497 2.1735C6.40845 1.68613 6.76632 1.34181 7.03013 1.12175C7.10626 1.05875 7.17101 1.00888 7.22876 0.966V3.50044ZM13.7672 6.5625H11.5863C11.5552 5.74919 11.4436 5.01944 11.2704 4.375H13.1906C13.5099 5.04612 13.7116 5.78331 13.7672 6.5625ZM12.6857 3.50044H10.9843C10.5988 2.50294 10.0931 1.74519 9.62101 1.20138C10.874 1.62444 11.9437 2.43819 12.6857 3.50044ZM8.10376 3.50087V0.96775C8.51545 1.27619 9.41232 2.06194 10.0436 3.50131L8.10376 3.50087ZM8.10376 4.375H10.3652C10.5529 5.00369 10.6776 5.73344 10.713 6.5625H8.10376V4.375ZM8.10376 7.4375H10.7108C10.6754 8.26962 10.5472 8.99588 10.3586 9.62456H8.10376V7.4375ZM8.30195 12.8783C8.22582 12.9413 8.16107 12.9903 8.10376 13.0336V10.5004H10.0454C9.81482 11.0263 9.54751 11.4656 9.28238 11.8265C8.92407 12.3134 8.5662 12.6586 8.30195 12.8783ZM9.62232 12.7969C10.0935 12.2531 10.5988 11.4953 10.9838 10.5H12.6848C11.9419 11.5614 10.8736 12.3743 9.62232 12.7969ZM13.1901 9.62456H11.2713C11.4432 8.98056 11.5548 8.25081 11.5863 7.4375H13.7672C13.7108 8.21669 13.5099 8.95344 13.1901 9.62456Z" fill="#010002"/>
</svg>
