<svg width="9" height="12" viewBox="0 0 9 12" fill="none" xmlns="http://www.w3.org/2000/svg">
<path d="M0 7.48889C0 9.97632 1.94489 12 4.33514 12H5.8697C6.124 12 6.33007 11.7856 6.33007 11.521V11.3613C6.33007 11.0966 6.12402 10.8822 5.8697 10.8822H4.33514C2.53713 10.8822 1.07419 9.35989 1.07419 7.48889C1.07419 5.61789 2.53713 4.09556 4.33514 4.09556H7.16632L5.21648 6.12454C5.00706 6.34239 5.00706 6.69703 5.21648 6.91487C5.41969 7.12617 5.77335 7.12586 5.97611 6.91487L8.84265 3.93188C8.94409 3.82633 9 3.68597 9 3.53664C9 3.38742 8.94409 3.24698 8.84265 3.14148L5.97596 0.158357C5.7732 -0.0527857 5.41924 -0.0527857 5.21646 0.158357C5.00704 0.376148 5.00704 0.730841 5.21646 0.948606L7.16629 2.97774H4.33514C1.94489 2.97774 0 5.0015 0 7.48889Z" fill="black"/>
</svg>
