<svg width="15" height="12" viewBox="0 0 15 12" fill="none" xmlns="http://www.w3.org/2000/svg">
<path d="M2.29359 6C2.29359 6.24783 2.07961 6.45652 1.82551 6.45652C1.55803 6.45652 1.35742 6.24783 1.35742 6C1.35742 4.34348 2.03949 2.84348 3.14952 1.74783C4.27293 0.665217 5.81093 0 7.50941 0C8.33859 0 9.12765 0.156522 9.84984 0.443478C10.6122 0.756522 11.2808 1.2 11.8559 1.74783C12.0298 1.93043 12.0298 2.21739 11.8559 2.38696C11.6687 2.56957 11.3745 2.56957 11.1872 2.38696C10.7058 1.93043 10.1307 1.55217 9.50212 1.2913C8.88692 1.04348 8.21823 0.913043 7.50941 0.913043C6.06503 0.913043 4.75439 1.47391 3.81822 2.4C2.86867 3.31304 2.29359 4.5913 2.29359 6ZM12.7252 6C12.7252 5.73913 12.9258 5.54348 13.1933 5.54348C13.4474 5.54348 13.6614 5.73913 13.6614 6C13.6614 7.65652 12.966 9.15652 11.8559 10.2391C10.7459 11.3217 9.20789 12 7.50941 12C6.68023 12 5.8778 11.8435 5.15561 11.5435C4.40667 11.2435 3.7246 10.8 3.1629 10.2391C2.97566 10.0696 2.97566 9.78261 3.1629 9.6C3.33676 9.41739 3.63098 9.41739 3.81822 9.6C4.29968 10.0696 4.87475 10.4478 5.5167 10.6957C6.11853 10.9435 6.80059 11.087 7.50941 11.087C8.94042 11.087 10.2511 10.513 11.2006 9.6C12.1368 8.67391 12.7252 7.39565 12.7252 6Z" fill="black"/>
<path d="M0.130395 5.55669C-0.0434651 5.37408 -0.0434651 5.08713 0.130395 4.90452C0.31763 4.73495 0.611855 4.73495 0.79909 4.90452L2.21672 6.30017C2.40396 6.46974 2.40396 6.76974 2.21672 6.9393C2.02949 7.12191 1.73526 7.12191 1.5614 6.9393L0.130395 5.55669Z" fill="black"/>
<path d="M2.99165 4.90452C3.17889 4.73495 3.47311 4.73495 3.64697 4.90452C3.83421 5.08713 3.83421 5.37408 3.64697 5.55669L2.22934 6.9393C2.04211 7.12191 1.74788 7.12191 1.57402 6.9393C1.38679 6.76974 1.38679 6.46974 1.57402 6.30017L2.99165 4.90452Z" fill="black"/>
<path d="M14.8593 6.4307C15.0465 6.61331 15.0465 6.90026 14.8593 7.08287C14.6721 7.26548 14.3778 7.26548 14.204 7.08287L12.773 5.70026C12.5991 5.51765 12.5991 5.2307 12.773 5.04809C12.9602 4.86548 13.2544 4.86548 13.4417 5.04809L14.8593 6.4307Z" fill="black"/>
<path d="M12.0181 7.08287C11.8309 7.26548 11.5366 7.26548 11.3494 7.08287C11.1622 6.90026 11.1622 6.61331 11.3494 6.4307L12.767 5.04809C12.9543 4.86548 13.2485 4.86548 13.4357 5.04809C13.623 5.2307 13.623 5.51765 13.4357 5.70026L12.0181 7.08287Z" fill="black"/>
</svg>
