<svg width="13" height="12" viewBox="0 0 13 12" fill="none" xmlns="http://www.w3.org/2000/svg">
<path d="M12.5103 3.31237C12.4061 3.06249 12.281 2.86451 12.1351 2.71871L9.94764 0.531188C9.80193 0.385475 9.60395 0.260422 9.35395 0.156193C9.10409 0.0520735 8.87487 0 8.66657 0H1.41656C1.20829 0 1.03117 0.0728701 0.885318 0.21872C0.739469 0.364487 0.666626 0.541586 0.666626 0.749962V11.25C0.666626 11.4584 0.739469 11.6355 0.885318 11.7813C1.03117 11.927 1.20829 12 1.41656 12H11.9166C12.125 12 12.3021 11.927 12.4479 11.7813C12.5936 11.6355 12.6665 11.4584 12.6665 11.25V4C12.6665 3.7916 12.6144 3.56245 12.5103 3.31237ZM5.66661 1.2499C5.66661 1.1822 5.69138 1.12373 5.74088 1.07414C5.79032 1.02478 5.84894 1.00004 5.91664 1.00004H7.4167C7.48423 1.00004 7.54282 1.02472 7.59229 1.07414C7.6419 1.12373 7.66664 1.1822 7.66664 1.2499V3.74992C7.66664 3.81773 7.64174 3.87629 7.59229 3.92579C7.54282 3.97513 7.48423 3.99989 7.4167 3.99989H5.91664C5.84894 3.99989 5.7903 3.97521 5.74088 3.92579C5.69138 3.87621 5.66661 3.81773 5.66661 3.74992V1.2499ZM9.66669 11H3.66653V7.99997H9.66669V11ZM11.6668 11H10.6666H10.6664V7.74995C10.6664 7.54152 10.5936 7.36453 10.4478 7.21862C10.302 7.07283 10.1249 6.99988 9.91664 6.99988H3.41656C3.20821 6.99988 3.03109 7.07283 2.88524 7.21862C2.73947 7.36442 2.66654 7.54152 2.66654 7.74995V11H1.66653V0.999932H2.66652V4.24997C2.66652 4.45835 2.73936 4.63536 2.88521 4.78121C3.03106 4.92698 3.20818 4.99993 3.41653 4.99993H7.91669C8.12493 4.99993 8.30222 4.92698 8.44782 4.78121C8.59354 4.63544 8.66657 4.45835 8.66657 4.24997V0.999932C8.74467 0.999932 8.84616 1.02593 8.9713 1.078C9.0964 1.13005 9.1849 1.18212 9.23697 1.23419L11.4324 3.4296C11.4845 3.48167 11.5366 3.57162 11.5886 3.69916C11.6409 3.82681 11.6668 3.9271 11.6668 4V11H11.6668Z" fill="black"/>
</svg>
