<svg width="13" height="12" viewBox="0 0 13 12" fill="none" xmlns="http://www.w3.org/2000/svg">
<path fill-rule="evenodd" clip-rule="evenodd" d="M6.66626 4.1875C6.14926 4.1875 5.72876 3.767 5.72876 3.25C5.72876 2.73325 6.14926 2.3125 6.66626 2.3125C7.18326 2.3125 7.60376 2.73325 7.60376 3.25C7.60376 3.767 7.18326 4.1875 6.66626 4.1875ZM8.35376 3.25C8.35376 2.4935 7.85326 1.85175 7.16626 1.63825V0.5C7.16626 0.224 6.94226 0 6.66626 0C6.39001 0 6.16626 0.224 6.16626 0.5V1.63825C5.47926 1.85175 4.97876 2.4935 4.97876 3.25C4.97876 4.00675 5.47926 4.6485 6.16626 4.862V11.5C6.16626 11.7762 6.39001 12 6.66626 12C6.94226 12 7.16626 11.7762 7.16626 11.5V4.862C7.85326 4.6485 8.35376 4.00675 8.35376 3.25Z" fill="black"/>
<path fill-rule="evenodd" clip-rule="evenodd" d="M2.35376 9.1875C1.83676 9.1875 1.41626 8.767 1.41626 8.25C1.41626 7.73325 1.83676 7.3125 2.35376 7.3125C2.87076 7.3125 3.29126 7.73325 3.29126 8.25C3.29126 8.767 2.87076 9.1875 2.35376 9.1875ZM4.04126 8.25C4.04126 7.49375 3.54076 6.85175 2.85376 6.63825V0.5C2.85376 0.224 2.62976 0 2.35376 0C2.07776 0 1.85376 0.224 1.85376 0.5V6.63825C1.16651 6.85175 0.66626 7.49375 0.66626 8.25C0.66626 9.00675 1.16651 9.6485 1.85376 9.862V11.5C1.85376 11.7762 2.07776 12 2.35376 12C2.62976 12 2.85376 11.7762 2.85376 11.5V9.862C3.54076 9.6485 4.04126 9.00675 4.04126 8.25Z" fill="black"/>
<path fill-rule="evenodd" clip-rule="evenodd" d="M10.9788 6.9375C10.4618 6.9375 10.0413 6.517 10.0413 6C10.0413 5.48325 10.4618 5.0625 10.9788 5.0625C11.4958 5.0625 11.9163 5.48325 11.9163 6C11.9163 6.517 11.4958 6.9375 10.9788 6.9375ZM12.6663 6C12.6663 5.24375 12.1658 4.60175 11.4788 4.38825V0.5C11.4788 0.224 11.2548 0 10.9788 0C10.7025 0 10.4788 0.224 10.4788 0.5V4.38825C9.79176 4.60175 9.29126 5.24375 9.29126 6C9.29126 6.75675 9.79176 7.3985 10.4788 7.612V11.5C10.4788 11.7762 10.7025 12 10.9788 12C11.2548 12 11.4788 11.7762 11.4788 11.5V7.612C12.1658 7.3985 12.6663 6.75675 12.6663 6Z" fill="black"/>
</svg>
