<svg width="9" height="12" viewBox="0 0 9 12" fill="none" xmlns="http://www.w3.org/2000/svg">
<path d="M9 7.48889C9 9.97632 7.05511 12 4.66486 12H3.1303C2.876 12 2.66993 11.7856 2.66993 11.521V11.3613C2.66993 11.0966 2.87598 10.8822 3.1303 10.8822H4.66486C6.46287 10.8822 7.92581 9.35989 7.92581 7.48889C7.92581 5.61789 6.46287 4.09556 4.66486 4.09556H1.83368L3.78352 6.12454C3.99294 6.34239 3.99294 6.69703 3.78352 6.91487C3.58031 7.12617 3.22665 7.12586 3.02389 6.91487L0.157345 3.93188C0.0559051 3.82633 0 3.68597 0 3.53664C0 3.38742 0.0559051 3.24698 0.157345 3.14148L3.02404 0.158357C3.2268 -0.0527857 3.58076 -0.0527857 3.78354 0.158357C3.99296 0.376148 3.99296 0.730841 3.78354 0.948606L1.83371 2.97774H4.66486C7.05511 2.97774 9 5.0015 9 7.48889Z" fill="black"/>
</svg>
