<svg fill="none" height="47" viewBox="0 0 59 47" width="59" xmlns="http://www.w3.org/2000/svg" xmlns:xlink="http://www.w3.org/1999/xlink"><filter id="a" color-interpolation-filters="sRGB" filterUnits="userSpaceOnUse" height="26.5612" width="35.6747" x="0" y="20.4065"><feFlood flood-opacity="0" result="BackgroundImageFix"/><feColorMatrix in="SourceAlpha" type="matrix" values="0 0 0 0 0 0 0 0 0 0 0 0 0 0 0 0 0 0 127 0"/><feOffset dy="1"/><feGaussianBlur stdDeviation="1"/><feColorMatrix type="matrix" values="0 0 0 0 0 0 0 0 0 0.128333 0 0 0 0 0.583333 0 0 0 0.15 0"/><feBlend in2="BackgroundImageFix" mode="normal" result="effect1_dropShadow"/><feBlend in="SourceGraphic" in2="effect1_dropShadow" mode="normal" result="shape"/></filter><filter id="b" color-interpolation-filters="sRGB" filterUnits="userSpaceOnUse" height="29.8157" width="31.8807" x="1.91846" y="8.81812"><feFlood flood-opacity="0" result="BackgroundImageFix"/><feColorMatrix in="SourceAlpha" type="matrix" values="0 0 0 0 0 0 0 0 0 0 0 0 0 0 0 0 0 0 127 0"/><feOffset dy="1"/><feGaussianBlur stdDeviation="2"/><feColorMatrix type="matrix" values="0 0 0 0 0.0982292 0 0 0 0 0.1173 0 0 0 0 0.575 0 0 0 0.31 0"/><feBlend in2="BackgroundImageFix" mode="normal" result="effect1_dropShadow"/><feBlend in="SourceGraphic" in2="effect1_dropShadow" mode="normal" result="shape"/></filter><filter id="c" color-interpolation-filters="sRGB" filterUnits="userSpaceOnUse" height="21.1151" width="26.5342" x="32" y="0"><feFlood flood-opacity="0" result="BackgroundImageFix"/><feColorMatrix in="SourceAlpha" type="matrix" values="0 0 0 0 0 0 0 0 0 0 0 0 0 0 0 0 0 0 127 0"/><feOffset dy="1"/><feGaussianBlur stdDeviation="1"/><feColorMatrix type="matrix" values="0 0 0 0 0 0 0 0 0 0.066 0 0 0 0 0.4125 0 0 0 0.25 0"/><feBlend in2="BackgroundImageFix" mode="normal" result="effect1_dropShadow"/><feBlend in="SourceGraphic" in2="effect1_dropShadow" mode="normal" result="shape"/></filter><radialGradient id="d" cx="0" cy="0" gradientTransform="matrix(0 35.5 -49.8401 0 18 17)" gradientUnits="userSpaceOnUse" r="1"><stop offset="0" stop-color="#3453f1"/><stop offset="1" stop-color="#b0bbf4"/></radialGradient><g fill="url(#d)" filter="url(#a)"><path d="m3.67742 23.5552v17.6741c0 .5854.50113 1.061 1.11758 1.061h26.0843c.6164 0 1.1176-.476 1.1176-1.061v-17.6288l-14.2245 9.8833c-.2974.2064-.6945.2001-.9847-.0197z"/><path clip-rule="evenodd" d="m30.8793 43.9677h-26.0843c-1.54113 0-2.795-1.2287-2.795-2.7384v-17.7311c0-.666.25371-1.3118.715-1.8179.29187-.3204.78042-.3653 1.12597-.1045l13.47383 10.1832 14.5978-10.1425c.3564-.2482.842-.182 1.1209.1497.4198.5003.6412 1.0991.6412 1.7315v17.7308c-.0004 1.5105-1.2543 2.7392-2.7954 2.7392zm-27.20188-2.7384v-17.6741l13.11028 9.9089c.2902.2198.6873.2261.9847.0197l14.2245-9.8833v17.6288c0 .585-.5012 1.061-1.1176 1.061h-26.0843c-.61645 0-1.11758-.4756-1.11758-1.061z" fill-rule="evenodd"/></g><g fill="#3d57d8"><path clip-rule="evenodd" d="m30.8793 43.9677h-26.0843c-1.54113 0-2.795-1.2287-2.795-2.7384v-17.7311c0-.666.25371-1.3118.715-1.8179.29187-.3204.78042-.3653 1.12597-.1045l13.47383 10.1832 14.5978-10.1425c.3564-.2482.842-.182 1.1209.1497.4198.5003.6412 1.0991.6412 1.7315v17.7308c-.0004 1.5105-1.2543 2.7392-2.7954 2.7392zm-27.20188-2.7384v-17.6741l13.11028 9.9089c.2902.2198.6873.2261.9847.0197l14.2245-9.8833v17.6288c0 .585-.5012 1.061-1.1176 1.061h-26.0843c-.61645 0-1.11758-.4756-1.11758-1.061z" fill-rule="evenodd"/><path d="m22.2557 13.4953c-.2072 0-.4147-.0763-.577-.2302l-3.7692-3.5704-3.8157 3.5733c-.3376.3175-.8681.3007-1.1851-.0386-.317-.338-.2998-.8684.0386-1.1851l4.3923-4.11467c.3242-.30319.8282-.30193 1.1499.00336l4.3432 4.11471c.3364.3187.3506.8492.0315 1.1855-.1648.1745-.3867.2621-.6085.2621z"/><path d="m32.3081 23.0473c-.2202 0-.4399-.0864-.6043-.2575-.0679-.0692-.5968-.5796-3.3637-3.2068-.3359-.3192-.3497-.8497-.0306-1.1856.3187-.3363.8496-.3493 1.1856-.0306 3.2558 3.0915 3.3745 3.2156 3.4194 3.2622.3204.3346.3082.8651-.0265 1.1859-.1622.1552-.3711.2324-.5799.2324z"/><path d="m3.33649 23.0777c-.20465 0-.40971-.0742-.56991-.224-.33548-.3132-.36064-.8338-.05158-1.1734.05871-.0642.16774-.1836 3.46765-3.2872.33716-.3171.86806-.3016 1.18551.0364.31745.3376.3011.8681-.03648 1.1856-2.77152 2.6067-3.30913 3.125-3.38252 3.2017-.16606.1728-.38916.2609-.61267.2609z"/><path clip-rule="evenodd" d="m30.8793 43.9677h-26.0843c-1.54113 0-2.795-1.2287-2.795-2.7384v-17.7311c0-.666.25371-1.3118.715-1.8179.29187-.3204.78042-.3653 1.12597-.1045l13.47383 10.1832 14.5978-10.1425c.3564-.2482.842-.182 1.1209.1497.4198.5003.6412 1.0991.6412 1.7315v17.7308c-.0004 1.5105-1.2543 2.7392-2.7954 2.7392zm-27.20188-2.7384v-17.6741l13.11028 9.9089c.2902.2198.6873.2261.9847.0197l14.2245-9.8833v17.6288c0 .585-.5012 1.061-1.1176 1.061h-26.0843c-.61645 0-1.11758-.4756-1.11758-1.061z" fill-rule="evenodd"/><path d="m3.81751 43.3979c-.22687 0-.45249-.0914-.61813-.2713-.31326-.3409-.29061-.8714.05032-1.1847l8.7545-8.0419c.3409-.3141.8714-.2906 1.1846.0503.3133.3409.2906.8714-.0503 1.1847l-8.75403 8.0415c-.16103.1485-.36441.2214-.56696.2214z"/><path d="m32.0527 43.398c-.2026 0-.406-.073-.567-.221l-8.754-8.042c-.341-.3132-.3636-.8437-.0504-1.1846.3133-.341.8442-.364 1.1847-.0504l8.7545 8.042c.3409.3133.3636.8438.0503 1.1847-.1657.1799-.3913.2713-.6181.2713z"/></g><g fill="#fff" filter="url(#b)"><path d="m17.2939 33.6338c-.1791 0-.3577-.057-.507-.1707l-10.53673-7.9992c-.20884-.1585-.33171-.4059-.33171-.668v-12.1391c0-.4629.37574-.8387.83871-.8387h22.16043c.4633 0 .8387.3758.8387.8387v8.8132l.0427 3.2085c.0038.2784-.1312.5409-.3598.6999l-11.6668 8.1057c-.1439.0998-.3116.1497-.4785.1497zm-9.69802-9.2543 9.71982 7.3794 10.8-7.504-.0369-2.774v-7.9854h-20.48292z"/><path d="m7.59588 24.3795 9.71982 7.3794 10.8-7.504-.0369-2.774v-7.9854h-20.48292z"/></g><g fill="#3d57d8"><path d="m23.4891 19.6777h-11.1523c-.463 0-.8388-.3758-.8388-.8387 0-.463.3758-.8388.8388-.8388h11.1523c.4629 0 .8387.3758.8387.8388 0 .4629-.3753.8387-.8387.8387z"/><path d="m21.1134 24.9509h-6.401c-.463 0-.8387-.3758-.8387-.8388 0-.4629.3757-.8387.8387-.8387h6.401c.463 0 .8387.3758.8387.8387 0 .463-.3753.8388-.8387.8388z"/><path clip-rule="evenodd" d="m30.8793 43.9677h-26.0843c-1.54113 0-2.795-1.2287-2.795-2.7384v-17.7311c0-.666.25371-1.3118.715-1.8179.29187-.3204.78042-.3653 1.12597-.1045l13.47383 10.1832 14.5978-10.1425c.3564-.2482.842-.182 1.1209.1497.4198.5003.6412 1.0991.6412 1.7315v17.7308c-.0004 1.5105-1.2543 2.7392-2.7954 2.7392zm-27.20188-2.7384v-17.6741l13.11028 9.9089c.2902.2198.6873.2261.9847.0197l14.2245-9.8833v17.6288c0 .585-.5012 1.061-1.1176 1.061h-26.0843c-.61645 0-1.11758-.4756-1.11758-1.061z" fill-rule="evenodd"/><path clip-rule="evenodd" d="m30.8793 43.9677h-26.0843c-1.54113 0-2.795-1.2287-2.795-2.7384v-17.7311c0-.666.25371-1.3118.715-1.8179.29187-.3204.78042-.3653 1.12597-.1045l13.47383 10.1832 14.5978-10.1425c.3564-.2482.842-.182 1.1209.1497.4198.5003.6412 1.0991.6412 1.7315v17.7308c-.0004 1.5105-1.2543 2.7392-2.7954 2.7392zm-27.20188-2.7384v-17.6741l13.11028 9.9089c.2902.2198.6873.2261.9847.0197l14.2245-9.8833v17.6288c0 .585-.5012 1.061-1.1176 1.061h-26.0843c-.61645 0-1.11758-.4756-1.11758-1.061z" fill-rule="evenodd"/><path d="m3.81751 43.3979c-.22687 0-.45249-.0914-.61813-.2713-.31326-.3409-.29061-.8714.05032-1.1847l8.7545-8.0419c.3409-.3141.8714-.2906 1.1846.0503.3133.3409.2906.8714-.0503 1.1847l-8.75403 8.0415c-.16103.1485-.36441.2214-.56696.2214z"/><path d="m32.0527 43.398c-.2026 0-.406-.073-.567-.221l-8.754-8.042c-.341-.3132-.3636-.8437-.0504-1.1846.3133-.341.8442-.364 1.1847-.0504l8.7545 8.042c.3409.3133.3636.8438.0503 1.1847-.1657.1799-.3913.2713-.6181.2713z"/></g><g filter="url(#c)"><path d="m35.4562 18.1151c-.1288 0-.2445-.0063-.3452-.0188-.7707-.0965-1.0031-.5385-1.0727-.7939-.1845-.673.3233-1.1385.967-1.7277.5867-.5372 1.3588-1.2438 1.7953-2.1262-1.3478-1.331-2.0829-2.951-2.0829-4.61789.0004-4.31767 4.8938-7.83061 10.9082-7.83061s10.9083 3.51294 10.9083 7.83103c0 4.31767-4.8935 7.83057-10.9083 7.83057-1.6099 0-3.2047-.2553-4.6519-.7422-1.3511 1.477-4.1495 2.1957-5.5178 2.1957zm10.1697-15.43768c-5.0901 0-9.2308 2.76061-9.2308 6.15361 0 1.72477 1.058 2.99547 1.9462 3.75747.2558.2197.3556.5711.2525.8928-.38 1.1838-1.1709 2.0988-1.8716 2.7836 1.2031-.2914 2.7455-.9167 3.2252-1.76.2064-.3623.6475-.5179 1.0359-.3661 1.4077.5531 3.0134.8458 4.6426.8458 5.0902 0 9.2309-2.7601 9.2309-6.15315 0-3.393-4.1407-6.15403-9.2309-6.15403z" fill="#3d57d8"/><path d="m45.6259 2.67742c-5.0901 0-9.2308 2.76061-9.2308 6.15361 0 1.72477 1.058 2.99547 1.9462 3.75747.2558.2197.3556.5711.2525.8928-.38 1.1838-1.1709 2.0988-1.8716 2.7836 1.2031-.2914 2.7455-.9167 3.2252-1.76.2064-.3623.6475-.5179 1.0359-.3661 1.4077.5531 3.0134.8458 4.6426.8458 5.0902 0 9.2309-2.7601 9.2309-6.15315 0-3.393-4.1407-6.15403-9.2309-6.15403z" fill="#3d57d8"/><path d="m45.6259 2.67742c-5.0901 0-9.2308 2.76061-9.2308 6.15361 0 1.72477 1.058 2.99547 1.9462 3.75747.2558.2197.3556.5711.2525.8928-.38 1.1838-1.1709 2.0988-1.8716 2.7836 1.2031-.2914 2.7455-.9167 3.2252-1.76.2064-.3623.6475-.5179 1.0359-.3661 1.4077.5531 3.0134.8458 4.6426.8458 5.0902 0 9.2309-2.7601 9.2309-6.15315 0-3.393-4.1407-6.15403-9.2309-6.15403z" fill="#fff"/></g><path d="m51.2314 8.03435h-10.7895c-.463 0-.8388-.37574-.8388-.83871 0-.46296.3758-.83871.8388-.83871h10.7895c.463 0 .8388.37575.8388.83871 0 .46297-.3754.83871-.8388.83871z" fill="#3d57d8"/><path d="m51.2314 11.438h-10.7895c-.463 0-.8388-.3757-.8388-.8387s.3758-.83872.8388-.83872h10.7895c.463 0 .8388.37572.8388.83872s-.3754.8387-.8388.8387z" fill="#3d57d8"/></svg>