<svg fill="none" height="15" viewBox="0 0 15 15" width="15" xmlns="http://www.w3.org/2000/svg"><path clip-rule="evenodd" d="m14.1716 0h-13.343719c-.4575 0-.82812514.370625-.82812514.828125v13.344375c0 .4569.37062514.8275.82812514.8275h7.184379v-5.80875h-1.955v-2.26375h1.955v-1.66938c0-1.93749 1.18312-2.9925 2.91184-2.9925.8282 0 1.5394.06188 1.7469.08938v2.025l-1.1987.00062c-.94 0-1.1219.44688-1.1219 1.10188v1.44563h2.2419l-.2919 2.26375h-1.95v5.80812h3.8225c.4562 0 .8269-.3706.8269-.8281v-13.343775c0-.4575-.3707-.828125-.8282-.828125z" fill="#fff" fill-rule="evenodd"/></svg>