<svg width="16" height="16" viewBox="0 0 16 16" fill="none" xmlns="http://www.w3.org/2000/svg">
<path d="M13.6468 14.3539C13.8422 14.549 14.1588 14.5487 14.3539 14.3532C14.549 14.1578 14.5487 13.8412 14.3532 13.6461L13.6468 14.3539ZM11.0581 11.0635L10.7048 10.7097L11.0581 11.0635ZM7.30769 12.1154C4.65248 12.1154 2.5 9.96291 2.5 7.30769H1.5C1.5 10.5152 4.10019 13.1154 7.30769 13.1154V12.1154ZM2.5 7.30769C2.5 4.65248 4.65248 2.5 7.30769 2.5V1.5C4.10019 1.5 1.5 4.10019 1.5 7.30769H2.5ZM7.30769 2.5C9.96291 2.5 12.1154 4.65248 12.1154 7.30769H13.1154C13.1154 4.10019 10.5152 1.5 7.30769 1.5V2.5ZM12.1154 7.30769C12.1154 8.63668 11.5768 9.83893 10.7048 10.7097L11.4114 11.4173C12.4636 10.3666 13.1154 8.91281 13.1154 7.30769H12.1154ZM10.7048 10.7097C9.83442 11.5788 8.63419 12.1154 7.30769 12.1154V13.1154C8.9098 13.1154 10.3612 12.466 11.4114 11.4173L10.7048 10.7097ZM10.7049 11.4174L13.6468 14.3539L14.3532 13.6461L11.4113 10.7096L10.7049 11.4174Z" fill="black"/>
</svg>
