<svg width="12" height="12" viewBox="0 0 12 12" fill="none" xmlns="http://www.w3.org/2000/svg">
<path fill-rule="evenodd" clip-rule="evenodd" d="M6.00002 0C4.3705 0 4.16618 0.00690636 3.52621 0.0361061C2.88758 0.0652341 2.45142 0.16667 2.06977 0.315002C1.67522 0.468313 1.34062 0.673473 1.00703 1.00703C0.673477 1.34061 0.468313 1.67522 0.315002 2.06977C0.16667 2.45142 0.0652379 2.88758 0.0361099 3.52621C0.00691018 4.16617 0 4.3705 0 6.00001C0 7.6295 0.00691018 7.83383 0.0361099 8.47379C0.0652379 9.11242 0.16667 9.54858 0.315002 9.93023C0.468313 10.3248 0.673477 10.6594 1.00703 10.993C1.34062 11.3265 1.67522 11.5317 2.06977 11.685C2.45142 11.8333 2.88758 11.9348 3.52621 11.9639C4.16618 11.9931 4.3705 12 6.00002 12C7.62951 12 7.83382 11.9931 8.47379 11.9639C9.11242 11.9348 9.54858 11.8333 9.93022 11.685C10.3248 11.5317 10.6594 11.3265 10.993 10.993C11.3265 10.6594 11.5317 10.3248 11.685 9.93023C11.8333 9.54858 11.9348 9.11242 11.9639 8.47379C11.9931 7.83383 12 7.6295 12 6.00001C12 4.3705 11.9931 4.16617 11.9639 3.52621C11.9348 2.88758 11.8333 2.45142 11.685 2.06977C11.5317 1.67522 11.3265 1.34061 10.993 1.00703C10.6594 0.673473 10.3248 0.468313 9.93022 0.315002C9.54858 0.16667 9.11242 0.0652341 8.47379 0.0361061C7.83382 0.00690636 7.62951 0 6.00002 0ZM6.00002 1.08108C7.60207 1.08108 7.79184 1.0872 8.42451 1.11607C9.00951 1.14274 9.32721 1.24049 9.53864 1.32265C9.8187 1.4315 10.0186 1.56152 10.2285 1.77149C10.4385 1.98144 10.5685 2.18131 10.6773 2.46137C10.7595 2.6728 10.8573 2.99049 10.8839 3.57549C10.9128 4.20816 10.9189 4.39793 10.9189 6.00001C10.9189 7.60206 10.9128 7.79184 10.8839 8.42451C10.8573 9.00951 10.7595 9.3272 10.6773 9.53863C10.5685 9.81869 10.4385 10.0186 10.2285 10.2285C10.0186 10.4385 9.8187 10.5685 9.53864 10.6773C9.32721 10.7595 9.00951 10.8573 8.42451 10.8839C7.79193 10.9128 7.60219 10.9189 6.00002 10.9189C4.39782 10.9189 4.20809 10.9128 3.57549 10.8839C2.99049 10.8573 2.6728 10.7595 2.46137 10.6773C2.18131 10.5685 1.98143 10.4385 1.77148 10.2285C1.56154 10.0186 1.4315 9.81869 1.32265 9.53863C1.24049 9.3272 1.14274 9.00951 1.11607 8.42451C1.0872 7.79184 1.08108 7.60206 1.08108 6.00001C1.08108 4.39793 1.0872 4.20816 1.11607 3.57549C1.14274 2.99049 1.24049 2.6728 1.32265 2.46137C1.4315 2.18131 1.56151 1.98144 1.77148 1.77149C1.98143 1.56152 2.18131 1.4315 2.46137 1.32265C2.6728 1.24049 2.99049 1.14274 3.57549 1.11607C4.20816 1.0872 4.39794 1.08108 6.00002 1.08108ZM6.00002 2.91892C4.29836 2.91892 2.91892 4.29836 2.91892 6.00001C2.91892 7.70164 4.29836 9.08108 6.00002 9.08108C7.70165 9.08108 9.08109 7.70164 9.08109 6.00001C9.08109 4.29836 7.70165 2.91892 6.00002 2.91892ZM6.00002 8C4.89543 8 4 7.10457 4 6.00001C4 4.89542 4.89543 4 6.00002 4C7.10458 4 8 4.89542 8 6.00001C8 7.10457 7.10458 8 6.00002 8ZM9.92282 2.79719C9.92282 3.19484 9.60045 3.51718 9.2028 3.51718C8.80518 3.51718 8.48282 3.19484 8.48282 2.79719C8.48282 2.39954 8.80518 2.07718 9.2028 2.07718C9.60045 2.07718 9.92282 2.39954 9.92282 2.79719Z" fill="black"/>
</svg>
