<svg width="14" height="12" viewBox="0 0 14 12" fill="none" xmlns="http://www.w3.org/2000/svg">
<path fill-rule="evenodd" clip-rule="evenodd" d="M14 1.42612C13.481 1.67024 12.925 1.82441 12.3442 1.9015C12.9373 1.52891 13.3945 0.925054 13.6169 0.231263C13.0609 0.578158 12.4431 0.82227 11.7882 0.963597C11.2692 0.372591 10.5154 0 9.68756 0C8.10591 0 6.82083 1.36188 6.82083 3.03212C6.82083 3.26338 6.84554 3.49465 6.89497 3.72591C4.51015 3.59743 2.38482 2.38972 0.976169 0.552463C0.729038 1.00214 0.580759 1.52891 0.580759 2.08137C0.580759 3.1349 1.08738 4.05996 1.86584 4.59957C1.39629 4.58672 0.951456 4.4454 0.556046 4.22698V4.25268C0.556046 5.73019 1.54457 6.95075 2.86673 7.23341C2.61959 7.29764 2.37246 7.33619 2.11297 7.33619C1.92763 7.33619 1.74228 7.31049 1.56929 7.2848C1.92763 8.47966 2.99029 9.35332 4.25066 9.37902C3.26214 10.1884 2.02648 10.6767 0.679612 10.6767C0.457193 10.6767 0.222418 10.6638 0 10.6381C1.27273 11.4989 2.78023 12 4.39894 12C9.68756 12 12.579 7.38758 12.579 3.37902C12.579 3.25054 12.5666 3.12206 12.5666 2.99358C13.1227 2.56959 13.6169 2.02998 14 1.42612Z" fill="black"/>
</svg>
