<svg width="13" height="12" viewBox="0 0 13 12" fill="none" xmlns="http://www.w3.org/2000/svg">
<path fill-rule="evenodd" clip-rule="evenodd" d="M12.9935 2.77444C12.9369 4.12684 12.0518 5.97554 10.3442 8.32138C8.57695 10.7743 7.07956 12 5.85581 12C5.09909 12 4.45778 11.2543 3.93419 9.758C3.58335 8.38517 3.2348 7.01233 2.88472 5.64358C2.49489 4.14646 2.07755 3.3983 1.63116 3.3983C1.53408 3.3983 1.19547 3.61662 0.611491 4.05406L0 3.21106C0.640539 2.61009 1.27191 2.00667 1.89487 1.40487C2.7479 0.615023 3.3892 0.200467 3.81725 0.157131C4.82621 0.0524717 5.4484 0.790812 5.68306 2.3697C5.93301 4.0745 6.10882 5.13418 6.20589 5.54954C6.49788 6.96244 6.81738 7.66726 7.16746 7.66726C7.43881 7.66726 7.84698 7.21101 8.39121 6.29769C8.93544 5.38274 9.22513 4.68774 9.26488 4.20859C9.34285 3.41874 9.05162 3.02628 8.39121 3.02628C8.08011 3.02628 7.75908 3.09659 7.42964 3.24377C8.07171 1.02058 9.29469 -0.0603603 11.1017 0.00259896C12.4401 0.0426637 13.0722 0.968248 12.9935 2.77444Z" fill="black"/>
</svg>
