<svg width="38" height="16" viewBox="0 0 38 16" fill="none" xmlns="http://www.w3.org/2000/svg">
<path d="M6.89618 2.3922C7.32599 1.87646 7.61743 1.18382 7.54059 0.476196C6.91179 0.506171 6.14431 0.874384 5.70011 1.3907C5.30122 1.83268 4.94824 2.55412 5.04008 3.23206C5.74603 3.29084 6.45136 2.89353 6.89618 2.3922Z" fill="#1A1919"/>
<path d="M7.5317 3.36271C6.50677 3.30394 5.63521 3.92105 5.1457 3.92105C4.65589 3.92105 3.90617 3.3921 3.09523 3.4065C2.03999 3.42119 1.06098 3.99393 0.525244 4.90492C-0.576221 6.72747 0.234724 9.43073 1.30588 10.9148C1.826 11.6491 2.45296 12.4575 3.27891 12.4287C4.05924 12.3994 4.36537 11.9436 5.31377 11.9436C6.26186 11.9436 6.53738 12.4287 7.36363 12.4141C8.22019 12.3994 8.75592 11.6794 9.27604 10.9441C9.87269 10.1072 10.117 9.29908 10.1326 9.25471C10.117 9.23972 8.4804 8.6373 8.4654 6.83003C8.44979 5.31662 9.75024 4.59694 9.81147 4.55228C9.07705 3.50964 7.92967 3.3921 7.5317 3.36271Z" fill="#1A1919"/>
<path fill-rule="evenodd" clip-rule="evenodd" d="M21.5347 4.9359C21.5347 2.78951 19.9829 1.31519 17.7548 1.31519H13.45V12.3378H15.2323V8.57189H17.6991C19.951 8.57189 21.5347 7.08993 21.5347 4.9359ZM17.2773 7.13744H15.2324V2.76061H17.2853C18.8291 2.76061 19.7123 3.55522 19.7123 4.9452C19.7123 6.33548 18.8291 7.13744 17.2773 7.13744Z" fill="#1A1919"/>
<path fill-rule="evenodd" clip-rule="evenodd" d="M25.1672 7.70972C23.0984 7.83197 21.9764 8.64157 21.9764 10.0548C21.9764 11.4756 23.1302 12.4224 24.7852 12.4224C25.9071 12.4224 26.9419 11.8803 27.4112 11.0172H27.451V12.3387H29.0982V6.85428C29.0982 5.26535 27.7693 4.24182 25.7323 4.24182C23.8383 4.24182 22.4381 5.28063 22.39 6.70911H23.9975C24.1328 6.02911 24.7852 5.58625 25.6846 5.58625C26.7747 5.58625 27.3873 6.07495 27.3873 6.96889V7.57984L25.1672 7.70972ZM27.386 8.72514V9.34402C27.386 10.3749 26.471 11.116 25.2614 11.116C24.3145 11.116 23.7099 10.6805 23.7099 10.0084C23.7099 9.31316 24.2907 8.91615 25.4047 8.84739L27.386 8.72514Z" fill="#1A1919"/>
<path d="M30.6081 15.2872V13.966C30.7195 13.981 30.9898 13.9962 31.1331 13.9962C31.9208 13.9962 32.3665 13.6756 32.6371 12.8505L32.7963 12.3618L29.7803 4.34131H31.6422L33.7432 10.8492H33.783L35.8837 4.34131H37.6981L34.5707 12.7667C33.8546 14.6992 33.0348 15.3333 31.3002 15.3333C31.1649 15.3333 30.7271 15.3181 30.6081 15.2872Z" fill="#1A1919"/>
</svg>
