<svg width="20" height="14" viewBox="0 0 20 14" fill="none" xmlns="http://www.w3.org/2000/svg">
<path fill-rule="evenodd" clip-rule="evenodd" d="M17.339 1.94074H12.5282V0.568956H17.3394V1.94074H17.339ZM9.32549 7.56599C9.63591 8.11794 9.79103 8.7881 9.79103 9.57489C9.79103 10.3885 9.61614 11.1184 9.26032 11.7632C9.03396 12.1898 8.75292 12.5502 8.41523 12.8404C8.03491 13.1759 7.58464 13.406 7.06702 13.5289C6.54774 13.6521 5.9857 13.7143 5.38026 13.7143H0V0H5.76951C7.22379 0.027159 8.2548 0.510846 8.86362 1.46075C9.22894 2.04333 9.40995 2.7424 9.40995 3.55496C9.40995 4.39341 9.22675 5.06429 8.85786 5.57401C8.65266 5.85979 8.34952 6.11975 7.94822 6.35439C8.55606 6.60984 9.01727 7.0121 9.32549 7.56599ZM2.75517 5.40685H5.28313C5.80263 5.40685 6.22259 5.2935 6.54604 5.0669C6.86927 4.84066 7.03055 4.4385 7.03055 3.86109C7.03055 3.22316 6.817 2.79974 6.38887 2.59594C6.02087 2.45436 5.55002 2.38144 4.9787 2.38144H2.75517V5.40685ZM7.27396 9.37899C7.27396 8.6666 7.02032 8.1741 6.51408 7.90984C6.23098 7.75964 5.83156 7.68288 5.31942 7.6774H2.75517V11.3322H5.27974C5.79839 11.3322 6.19983 11.2542 6.48953 11.0916C7.01198 10.7927 7.27396 10.2237 7.27396 9.37899ZM19.1239 7.1479C19.1821 7.59658 19.2083 8.24758 19.1977 9.09848H12.9671C13.0015 10.0857 13.2984 10.7761 13.8615 11.1712C14.201 11.419 14.6127 11.54 15.0948 11.54C15.6032 11.54 16.0175 11.3924 16.3364 11.0892C16.5102 10.9284 16.6635 10.7015 16.796 10.4152H19.0797C19.0199 10.9983 18.745 11.5897 18.2508 12.1907C17.4852 13.1459 16.4115 13.6249 15.0325 13.6249C13.8933 13.6249 12.8894 13.221 12.0179 12.416C11.1494 11.6082 10.7132 10.2981 10.7132 8.48074C10.7132 6.77654 11.1048 5.47213 11.8907 4.5642C12.6794 3.65458 13.6974 3.20184 14.9521 3.20184C15.6958 3.20184 16.3663 3.35445 16.9644 3.66124C17.5606 3.96834 18.0534 4.45167 18.4415 5.11594C18.7927 5.70094 19.0185 6.37735 19.1239 7.1479ZM16.8761 7.40381C16.8342 6.72114 16.6357 6.20445 16.2781 5.85134C15.9236 5.49724 15.4806 5.31948 14.9521 5.31948C14.3769 5.31948 13.9328 5.50949 13.6172 5.88295C13.2994 6.25565 13.1017 6.76234 13.0207 7.40386H16.8761V7.40381Z" fill="#000"/>
</svg>
