<svg width="10" height="10" viewBox="0 0 10 10" fill="none" xmlns="http://www.w3.org/2000/svg">
<path fill-rule="evenodd" clip-rule="evenodd" d="M9.99625 3.42063C9.99531 3.41406 9.99375 3.40812 9.99282 3.40187C9.99063 3.38969 9.98844 3.3775 9.98531 3.36594C9.98344 3.35875 9.98062 3.35188 9.97843 3.345C9.975 3.33438 9.97156 3.32406 9.9675 3.31375C9.96469 3.30656 9.96125 3.29937 9.95781 3.29281C9.95343 3.28281 9.94875 3.27344 9.94312 3.26438C9.93937 3.2575 9.935 3.25094 9.93094 3.24437C9.92531 3.23531 9.91937 3.22656 9.91281 3.21813C9.90812 3.21188 9.90312 3.20563 9.89812 3.19969C9.89125 3.19156 9.88406 3.18375 9.87656 3.17625C9.87093 3.17063 9.86562 3.16469 9.85968 3.15969C9.85156 3.1525 9.84343 3.14563 9.83531 3.13906C9.82874 3.13406 9.8225 3.12906 9.81594 3.12437C9.81344 3.12281 9.81124 3.12062 9.80874 3.11906L5.23843 0.0721875C5.09406 -0.0240625 4.90626 -0.0240625 4.76157 0.0721875L0.191561 3.11906C0.189061 3.12062 0.186877 3.12281 0.184377 3.12437C0.177502 3.12906 0.171248 3.13406 0.164998 3.13906C0.156561 3.14563 0.148435 3.1525 0.140622 3.15969C0.134685 3.16469 0.129069 3.17063 0.123444 3.17625C0.115944 3.18375 0.108746 3.19156 0.102183 3.19969C0.0968705 3.20563 0.0918788 3.21188 0.0871913 3.21813C0.0809413 3.22656 0.0750016 3.23531 0.0693766 3.24437C0.0650016 3.25094 0.0609396 3.2575 0.0568771 3.26438C0.0515646 3.27344 0.046878 3.28281 0.0421905 3.29281C0.0390655 3.29937 0.0356189 3.30656 0.0328064 3.31375C0.0284314 3.32406 0.0250033 3.33438 0.0215658 3.345C0.0193783 3.35188 0.0168795 3.35875 0.0150045 3.36594C0.0118795 3.3775 0.00968974 3.38969 0.00750224 3.40187C0.00625224 3.40812 0.00468129 3.41406 0.00405629 3.42063C0.00155629 3.43875 0 3.4575 0 3.47656V6.52344C0 6.54219 0.00155629 6.56094 0.00405629 6.57969C0.00468129 6.58563 0.00625224 6.59188 0.00750224 6.59813C0.00968974 6.61031 0.0118795 6.62219 0.0150045 6.63406C0.0168795 6.64125 0.0193783 6.64813 0.0215658 6.655C0.0250033 6.66531 0.0284314 6.67594 0.0328064 6.68656C0.0356189 6.69344 0.0390655 6.70031 0.0421905 6.70719C0.046878 6.71688 0.0515646 6.72625 0.0568771 6.73594C0.0609396 6.7425 0.0650016 6.74906 0.0693766 6.75563C0.0750016 6.76469 0.0809413 6.77312 0.0871913 6.78156C0.0918788 6.78813 0.0968705 6.79437 0.102183 6.80031C0.108746 6.80812 0.115944 6.81625 0.123444 6.82344C0.129069 6.82938 0.134685 6.835 0.140622 6.84031C0.148435 6.8475 0.156561 6.85437 0.164998 6.86094C0.171248 6.86594 0.177502 6.87094 0.184377 6.87563C0.186877 6.87719 0.189061 6.87938 0.191561 6.88094L4.76157 9.92781C4.83376 9.97594 4.91687 10 5 10C5.08312 10 5.16624 9.97594 5.23843 9.92781L9.80874 6.88094C9.81124 6.87938 9.81344 6.87719 9.81594 6.87563C9.8225 6.87094 9.82874 6.86594 9.83531 6.86094C9.84343 6.85437 9.85156 6.8475 9.85968 6.84031C9.86562 6.835 9.87093 6.82938 9.87656 6.82344C9.88406 6.81625 9.89125 6.80812 9.89812 6.80031C9.90312 6.79437 9.90812 6.78813 9.91281 6.78156C9.91937 6.77312 9.92531 6.76469 9.93094 6.75563C9.935 6.74906 9.93937 6.7425 9.94312 6.73594C9.94875 6.72625 9.95343 6.71688 9.95781 6.70719C9.96125 6.70031 9.96469 6.69344 9.9675 6.68656C9.97156 6.67594 9.975 6.66531 9.97843 6.655C9.98062 6.64813 9.98344 6.64125 9.98531 6.63406C9.98844 6.62219 9.99063 6.61031 9.99282 6.59813C9.99375 6.59188 9.99531 6.58563 9.99625 6.57969C9.99875 6.56094 10 6.54219 10 6.52344V3.47656C10 3.4575 9.99875 3.43875 9.99625 3.42063ZM5.42969 1.23281L8.79656 3.47719L7.29281 4.48312L5.42969 3.23688V1.23281ZM4.57031 1.23281V3.23688L2.70749 4.48312L1.20344 3.47719L4.57031 1.23281ZM0.859375 4.28094L1.93469 5L0.859375 5.71906V4.28094ZM4.57031 8.76719L1.20344 6.52281L2.70749 5.51719L4.57031 6.76312V8.76719ZM5 6.01656L3.48031 5L5 3.98344L6.52 5L5 6.01656ZM5.42969 8.76719V6.76312L7.29281 5.51719L8.79656 6.52281L5.42969 8.76719ZM9.14062 5.71906L8.06563 5L9.14062 4.28094V5.71906Z" class="social_change_color"/>
</svg>
