<svg width="11" height="10" viewBox="0 0 11 10" fill="none" xmlns="http://www.w3.org/2000/svg">
<path d="M10.3607 4.49952C9.10211 3.20172 7.84351 1.90393 6.5849 0.60613C6.40183 0.417359 6.21876 0.204993 5.98992 0.110608C5.7382 -0.00737385 5.4636 -0.0309701 5.21188 0.0398187C4.98304 0.0870113 4.77709 0.228589 4.6169 0.393763C3.19811 1.83314 1.77932 3.29611 0.38341 4.73548C0.223223 4.90066 0.0859211 5.11302 0.0401536 5.34898C-0.074265 5.77372 0.0630374 6.24564 0.360526 6.5288C1.36741 7.56704 2.35141 8.58168 3.35829 9.61991C3.58713 9.85588 3.88462 9.99745 4.20499 9.99745C5.02881 9.99745 5.82974 9.99745 6.65355 9.99745C7.01969 10.0211 7.38583 9.87947 7.66044 9.61991C8.5529 8.69966 9.46825 7.75581 10.3607 6.83555C10.498 6.67038 10.6582 6.5288 10.7955 6.36363C11.0243 6.03328 11.0472 5.60854 10.9328 5.231C10.7955 4.92425 10.5667 4.71188 10.3607 4.49952ZM3.28964 6.15126C3.12946 6.34003 2.87774 6.29284 2.6489 6.24564C2.46583 6.10407 2.30564 5.9153 2.14546 5.72653C2.05392 5.63214 2.16834 5.51416 2.23699 5.44337C3.17522 4.49952 4.09057 3.53207 5.02881 2.56462C5.14323 2.44664 5.25764 2.30506 5.39495 2.18708C5.50937 2.11629 5.6009 2.25787 5.69243 2.32866C5.85262 2.51743 6.05857 2.6826 6.21876 2.89497C6.3103 2.98936 6.21876 3.10734 6.15011 3.17813C5.21188 4.19277 4.25076 5.16021 3.28964 6.15126ZM6.21876 8.4165C6.08146 8.58168 5.92127 8.74685 5.7382 8.91202C5.57802 8.95922 5.41783 8.93562 5.25764 8.91202C5.09746 8.84124 5.00592 8.67606 4.86862 8.55808C4.77709 8.4637 4.63978 8.32212 4.7542 8.20414C4.96016 7.96817 5.16611 7.75581 5.37206 7.56704C5.4636 7.49625 5.57802 7.51984 5.64667 7.61423C5.82974 7.803 6.01281 7.99177 6.19588 8.18054C6.26453 8.20414 6.3103 8.34571 6.21876 8.4165ZM6.17299 5.84451C5.64667 6.38722 5.12034 6.92994 4.59402 7.47265C4.45671 7.66142 4.18211 7.59063 3.97616 7.59063C3.7702 7.47265 3.6329 7.26028 3.47271 7.09511C3.35829 7.00073 3.47271 6.85915 3.54136 6.78836C4.06769 6.24564 4.59402 5.70293 5.12034 5.16021C5.21188 5.06583 5.30341 4.94785 5.41783 4.87706C5.53225 4.82987 5.62378 4.94785 5.69243 5.01864C5.8755 5.20741 6.05857 5.39618 6.21876 5.58495C6.3103 5.65574 6.24164 5.77372 6.17299 5.84451Z" class="social_change_color"/>
</svg>
