<svg viewBox="0 0 10 10" fill="currentColor" xmlns="http://www.w3.org/2000/svg">
<path fill-rule="evenodd" clip-rule="evenodd" d="M4.99968 0C2.23874 0 0 2.29512 0 5.12694C0 7.39163 1.4325 9.31316 3.41969 9.99116C3.66969 10.0383 3.76094 9.87996 3.76094 9.74411C3.76094 9.62235 3.75656 9.30002 3.75406 8.87226C2.36312 9.18211 2.06969 8.18498 2.06969 8.18498C1.8425 7.59286 1.51469 7.43521 1.51469 7.43521C1.06063 7.11704 1.54906 7.12344 1.54906 7.12344C2.05062 7.15965 2.31468 7.65181 2.31468 7.65181C2.76093 8.43522 3.485 8.20901 3.77 8.07764C3.81531 7.74633 3.94469 7.52045 4.0875 7.39228C2.97719 7.26283 1.81 6.82322 1.81 4.85876C1.81 4.299 2.00469 3.84144 2.32469 3.4829C2.27313 3.35313 2.10157 2.83214 2.37344 2.12627C2.37344 2.12627 2.79344 1.98849 3.74844 2.65174C4.1475 2.538 4.57501 2.48128 5.00032 2.47904C5.42501 2.48128 5.85281 2.538 6.25219 2.65174C7.20656 1.98849 7.62563 2.12627 7.62563 2.12627C7.89844 2.83214 7.72687 3.35313 7.67531 3.4829C7.99594 3.84144 8.18938 4.299 8.18938 4.85876C8.18938 6.82803 7.02031 7.26154 5.90656 7.38842C6.08594 7.54671 6.24594 7.85944 6.24594 8.33782C6.24594 9.02318 6.23969 9.57589 6.23969 9.74411C6.23969 9.88124 6.32969 10.0408 6.58344 9.99051C8.56876 9.31123 10 7.39099 10 5.12694C10 2.29512 7.76124 0 4.99968 0Z" class="social_change_color"/>
</svg>
