<svg width="16" height="16" viewBox="0 0 16 16" fill="none" xmlns="http://www.w3.org/2000/svg">
<path fill-rule="evenodd" clip-rule="evenodd" d="M8.00002 0C5.82733 0 5.5549 0.00920848 4.70162 0.0481415C3.85011 0.0869788 3.26855 0.222227 2.75969 0.420003C2.23362 0.624417 1.78749 0.897964 1.34271 1.34271C0.897969 1.78748 0.624417 2.23362 0.420003 2.75969C0.222227 3.26855 0.0869839 3.8501 0.0481466 4.70161C0.00921357 5.55489 0 5.82733 0 8.00002C0 10.1727 0.00921357 10.4451 0.0481466 11.2984C0.0869839 12.1499 0.222227 12.7314 0.420003 13.2403C0.624417 13.7664 0.897969 14.2125 1.34271 14.6573C1.78749 15.102 2.23362 15.3756 2.75969 15.58C3.26855 15.7778 3.85011 15.913 4.70162 15.9519C5.5549 15.9908 5.82733 16 8.00002 16C10.1727 16 10.4451 15.9908 11.2984 15.9519C12.1499 15.913 12.7314 15.7778 13.2403 15.58C13.7664 15.3756 14.2125 15.102 14.6573 14.6573C15.102 14.2125 15.3756 13.7664 15.58 13.2403C15.7778 12.7314 15.913 12.1499 15.9519 11.2984C15.9908 10.4451 16 10.1727 16 8.00002C16 5.82733 15.9908 5.55489 15.9519 4.70161C15.913 3.8501 15.7778 3.26855 15.58 2.75969C15.3756 2.23362 15.102 1.78748 14.6573 1.34271C14.2125 0.897964 13.7664 0.624417 13.2403 0.420003C12.7314 0.222227 12.1499 0.0869788 11.2984 0.0481415C10.4451 0.00920848 10.1727 0 8.00002 0ZM8.00002 1.44144C10.1361 1.44144 10.3891 1.4496 11.2327 1.48809C12.0127 1.52365 12.4363 1.65398 12.7182 1.76354C13.0916 1.90867 13.3581 2.08202 13.638 2.36198C13.918 2.64191 14.0913 2.90841 14.2365 3.28183C14.346 3.56373 14.4763 3.98732 14.5119 4.76731C14.5504 5.61088 14.5586 5.86391 14.5586 8.00002C14.5586 10.1361 14.5504 10.3891 14.5119 11.2327C14.4763 12.0127 14.346 12.4363 14.2365 12.7182C14.0913 13.0916 13.918 13.3581 13.638 13.638C13.3581 13.918 13.0916 14.0913 12.7182 14.2365C12.4363 14.346 12.0127 14.4763 11.2327 14.5119C10.3892 14.5504 10.1362 14.5586 8.00002 14.5586C5.86376 14.5586 5.61079 14.5504 4.76731 14.5119C3.98732 14.4763 3.56373 14.346 3.28183 14.2365C2.90841 14.0913 2.64191 13.918 2.36198 13.638C2.08205 13.3581 1.90867 13.0916 1.76354 12.7182C1.65398 12.4363 1.52365 12.0127 1.48809 11.2327C1.4496 10.3891 1.44144 10.1361 1.44144 8.00002C1.44144 5.86391 1.4496 5.61088 1.48809 4.76731C1.52365 3.98732 1.65398 3.56373 1.76354 3.28183C1.90867 2.90841 2.08202 2.64191 2.36198 2.36198C2.64191 2.08202 2.90841 1.90867 3.28183 1.76354C3.56373 1.65398 3.98732 1.52365 4.76731 1.48809C5.61088 1.4496 5.86392 1.44144 8.00002 1.44144ZM8.00002 3.8919C5.73115 3.8919 3.8919 5.73114 3.8919 8.00002C3.8919 10.2689 5.73115 12.1081 8.00002 12.1081C10.2689 12.1081 12.1081 10.2689 12.1081 8.00002C12.1081 5.73114 10.2689 3.8919 8.00002 3.8919ZM8.00002 10.6667C6.52724 10.6667 5.33333 9.47277 5.33333 8.00002C5.33333 6.52723 6.52724 5.33333 8.00002 5.33333C9.47277 5.33333 10.6667 6.52723 10.6667 8.00002C10.6667 9.47277 9.47277 10.6667 8.00002 10.6667ZM13.2304 3.72959C13.2304 4.25979 12.8006 4.68958 12.2704 4.68958C11.7402 4.68958 11.3104 4.25979 11.3104 3.72959C11.3104 3.19939 11.7402 2.76957 12.2704 2.76957C12.8006 2.76957 13.2304 3.19939 13.2304 3.72959Z" fill="#000"/>
</svg>
