<svg width="12" height="9" viewBox="0 0 12 9" fill="none" xmlns="http://www.w3.org/2000/svg">
<path d="M10.5,0H1.5C0.7,0,0,0.6,0,1.4v6.1C0,8.4,0.7,9,1.5,9h9.1C11.3,9,12,8.4,12,7.6V1.4C12,0.7,11.3,0,10.5,0z
	 M11.3,7.6c0,0.4-0.4,0.8-0.8,0.8H1.5C1,8.3,0.7,8,0.7,7.6V1.4C0.7,1,1,0.7,1.5,0.7h9.1c0.4,0,0.8,0.4,0.8,0.8L11.3,7.6L11.3,7.6z" class="social_change_color"/>
<path d="M7.6,4.4l2.9-2.6c0.1-0.1,0.1-0.3,0-0.5c-0.1-0.1-0.3-0.1-0.5,0L6,4.9L5.2,4.2c0,0,0,0,0,0c0,0,0,0-0.1,0
	L1.9,1.3c-0.1-0.1-0.4-0.1-0.5,0c-0.1,0.1-0.1,0.3,0,0.5l3,2.6l-3,2.7c-0.1,0.1-0.1,0.3,0,0.5c0.1,0.1,0.2,0.1,0.2,0.1
	c0.1,0,0.2,0,0.2-0.1l3-2.8l0.8,0.7C5.8,5.7,5.9,5.7,6,5.7c0.1,0,0.2,0,0.2-0.1l0.8-0.7l3,2.8c0.1,0.1,0.1,0.1,0.2,0.1
	c0.1,0,0.2,0,0.2-0.1c0.1-0.1,0.1-0.3,0-0.5L7.6,4.4z" class="social_change_color"/>
</svg>
