<svg width="10" height="10" viewBox="0 0 10 10" fill="none" xmlns="http://www.w3.org/2000/svg">
<path fill-rule="evenodd" clip-rule="evenodd" d="M9.71249 6.06155C9.7848 5.73581 9.82244 5.39849 9.82244 5.05188C9.82244 2.45523 7.68756 0.349503 5.05292 0.349503C4.7754 0.349503 4.50317 0.373263 4.23742 0.418472C3.81115 0.153591 3.30668 0 2.76634 0C1.23824 0 0 1.22065 0 2.72764C0 3.23074 0.13876 3.70138 0.379823 4.10711C0.316912 4.41198 0.283394 4.72846 0.283394 5.05188C0.283394 7.64969 2.41886 9.75483 5.05292 9.75483C5.3516 9.75483 5.64323 9.72758 5.92662 9.67599C6.31644 9.88233 6.76094 10 7.23424 10C8.76176 10 10 8.77876 10 7.27294C10 6.83765 9.89652 6.42671 9.71249 6.06155ZM7.49941 7.2996C7.27893 7.60795 6.9532 7.85139 6.52987 8.02411C6.11183 8.19568 5.61089 8.2832 5.03998 8.2832C4.35501 8.2832 3.78057 8.16438 3.33196 7.92964C3.01152 7.75923 2.74753 7.52854 2.54704 7.24222C2.34419 6.95473 2.24188 6.66899 2.24188 6.39252C2.24188 6.22095 2.30892 6.07141 2.44062 5.94911C2.57114 5.82739 2.73871 5.76654 2.93862 5.76654C3.10207 5.76654 3.24377 5.81464 3.35842 5.91028C3.46837 6.00243 3.56244 6.13865 3.63829 6.31311C3.72295 6.50438 3.81467 6.6655 3.91169 6.79128C4.00576 6.91416 4.14041 7.01675 4.31209 7.09732C4.48495 7.17731 4.71837 7.21903 5.0047 7.21903C5.39922 7.21903 5.7226 7.13557 5.96543 6.97212C6.20355 6.81273 6.31879 6.6203 6.31879 6.38498C6.31879 6.20008 6.25823 6.05402 6.13476 5.93925C6.00423 5.81986 5.83313 5.72712 5.62558 5.66221C5.40863 5.59613 5.11465 5.52368 4.7507 5.44833C4.25505 5.344 3.83466 5.22055 3.5007 5.0797C3.15851 4.93654 2.88276 4.73772 2.68109 4.48907C2.47648 4.23578 2.37241 3.91874 2.37241 3.54605C2.37241 3.19133 2.48119 2.8708 2.69638 2.59491C2.90922 2.32075 3.22084 2.1063 3.62241 1.96082C4.01811 1.8165 4.48848 1.74347 5.02176 1.74347C5.44744 1.74347 5.82196 1.79215 6.13476 1.88836C6.44932 1.98458 6.7139 2.11442 6.92204 2.27497C7.13194 2.43726 7.28833 2.6094 7.38593 2.78908C7.48471 2.9705 7.53528 3.15076 7.53528 3.32522C7.53528 3.49331 7.46943 3.64632 7.33949 3.77906C7.20896 3.91352 7.04374 3.98134 6.84971 3.98134C6.67333 3.98134 6.53457 3.93844 6.43932 3.85498C6.34995 3.77673 6.25705 3.65501 6.15416 3.48113C6.03539 3.25856 5.89134 3.08294 5.72613 2.95891C5.56561 2.83835 5.2981 2.77807 4.92945 2.77807C4.58843 2.77807 4.30974 2.8453 4.10336 2.97919C3.90463 3.10728 3.80762 3.25508 3.80762 3.43012C3.80762 3.53677 3.83878 3.62662 3.90346 3.70313C3.97049 3.78543 4.06632 3.85614 4.18744 3.91642C4.31268 3.97844 4.44203 4.02828 4.57138 4.06306C4.70367 4.09958 4.92592 4.15348 5.23107 4.22303C5.61736 4.30418 5.9719 4.39634 6.28528 4.49546C6.60336 4.59515 6.87735 4.71802 7.10195 4.86234C7.33008 5.00898 7.51058 5.19678 7.63934 5.42166C7.76811 5.64829 7.83337 5.92651 7.83337 6.25051C7.83337 6.63769 7.72049 6.99067 7.49941 7.2996Z" class="social_change_color"/>
</svg>
