<svg width="24" height="24" viewBox="0 0 24 24" fill="none" xmlns="http://www.w3.org/2000/svg">
<g clip-path="url(#clip0)">
<path fill-rule="evenodd" clip-rule="evenodd" d="M23.9 7.10059C23.8 5.80078 23.6 5.00098 23.3 4.20117C23.1952 3.78223 23.0353 3.38965 22.8062 3.01074C22.5981 2.66699 22.333 2.33398 22 2.00098C21.3 1.30078 20.7 0.901367 19.9 0.600586C19.1 0.300781 18.3 0.100586 17 0.000976562H12C8.69995 0.000976562 8.30005 0.000976562 7.09998 0.100586C5.80005 0.100586 4.90002 0.300781 4.09998 0.600586C3.40002 0.901367 2.69995 1.30078 2 2.00098C1.62842 2.37305 1.34131 2.71582 1.10889 3.07617C0.903442 3.39453 0.740723 3.72559 0.599976 4.10059C0.300049 4.90039 0.0999756 5.80078 0.0999756 7.10059C0.0817871 7.31934 0.0668945 7.51172 0.0546875 7.7002C0.0311279 8.0625 0.0177002 8.41016 0.0101318 8.90332C0 9.55566 0 10.4639 0 12.001C0 15.3008 0 15.7002 0.0999756 16.9004C0.199951 18.2002 0.400024 19.001 0.699951 19.8008C0.900024 20.6006 1.30005 21.3008 2 22.001C2.69995 22.7002 3.30005 23.1006 4.09998 23.4004C4.90002 23.7002 5.69995 23.9004 7 24.001H12C13.6152 24.001 14.5356 24.001 15.1952 23.9893C15.8832 23.9775 16.2874 23.9521 16.9 23.9004C17.6245 23.8447 18.1937 23.7578 18.6942 23.6406C19.0918 23.5469 19.4459 23.4336 19.8 23.3008C19.9005 23.2637 19.9994 23.2236 20.0967 23.1826C20.1793 23.1475 20.2609 23.1113 20.3413 23.0732C20.9198 22.7988 21.4395 22.4375 21.9 21.9004C22.6 21.2002 23 20.6006 23.3 19.8008C23.6 19.001 23.8 18.2002 23.9 16.9004C24 15.7002 24 15.3008 24 12.001C24 8.70117 24 8.30078 23.9 7.10059ZM7.7998 11.999C7.7998 14.2949 9.70435 16.1992 11.9999 16.1992C14.2953 16.1992 16.1998 14.2949 16.1998 11.999C16.1998 9.7041 14.2953 7.79883 11.9999 7.79883C9.70435 7.79883 7.7998 9.7041 7.7998 11.999ZM5.7998 11.999C5.7998 15.3994 8.59985 18.2002 11.9999 18.2002C15.3998 18.2002 18.1998 15.3994 18.1998 11.999C18.1998 8.59863 15.3998 5.79883 11.9999 5.79883C8.59985 5.79883 5.7998 8.59863 5.7998 11.999ZM17 5.59961C17 6.40039 17.6 7.00098 18.4 7.00098C19.2001 7.00098 19.8 6.40039 19.8 5.59961C19.8 4.7998 19.2001 4.19922 18.4 4.19922C17.6 4.19922 17 4.7998 17 5.59961Z" fill="white"/>
</g>
<defs>
<clipPath id="clip0">
<rect width="24" height="24" fill="white"/>
</clipPath>
</defs>
</svg>
