<svg width="10" height="10" viewBox="0 0 10 10" fill="none" xmlns="http://www.w3.org/2000/svg">
<path d="M5,0L5,0L5,0C2.2,0,0,2.2,0,5c0,1.1,0.4,2.1,1,2.9L0.3,9.8l1.9-0.6C3,9.7,4,10,5,10c2.8,0,5-2.2,5-5
	C10,2.2,7.8,0,5,0z M7.9,7.1c-0.1,0.3-0.6,0.6-1,0.7C6.7,7.8,6.3,7.9,5.2,7.4C3.7,6.8,2.8,5.3,2.7,5.2C2.6,5.1,2.1,4.4,2.1,3.7
	c0-0.7,0.4-1.1,0.5-1.2c0.1-0.1,0.3-0.2,0.5-0.2c0.1,0,0.1,0,0.2,0c0.1,0,0.2,0,0.3,0.2c0.1,0.3,0.4,1,0.4,1.1c0,0.1,0.1,0.2,0,0.3
	C4,4,4,4,3.9,4.1C3.8,4.2,3.8,4.3,3.7,4.4C3.6,4.4,3.5,4.5,3.6,4.7c0.1,0.1,0.4,0.6,0.8,1c0.6,0.5,1,0.7,1.2,0.7
	c0.1,0.1,0.3,0,0.4-0.1C6.1,6.2,6.2,6,6.4,5.8c0.1-0.1,0.2-0.2,0.4-0.1c0.1,0,0.8,0.4,1,0.5C7.9,6.3,8,6.3,8,6.4
	C8,6.4,8,6.7,7.9,7.1z" class="social_change_color"/>
</svg>
