<svg width="13" height="15" viewBox="0 0 13 15" fill="none" xmlns="http://www.w3.org/2000/svg" id="appleLogoWhite">
<path d="M12.3508 5.11423C12.2617 5.18173 10.6894 6.04723 10.6894 7.97173C10.6894 10.1977 12.6901 10.9852 12.75 11.0047C12.7408 11.0527 12.4322 12.0832 11.6952 13.1332C11.038 14.0572 10.3516 14.9797 9.30755 14.9797C8.26345 14.9797 7.99475 14.3872 6.78943 14.3872C5.61482 14.3872 5.19718 14.9992 4.24214 14.9992C3.2871 14.9992 2.62072 14.1442 1.85453 13.0942C0.96705 11.8612 0.25 9.94573 0.25 8.12773C0.25 5.21173 2.19079 3.66523 4.10088 3.66523C5.1158 3.66523 5.96183 4.31623 6.59904 4.31623C7.20553 4.31623 8.15136 3.62623 9.30601 3.62623C9.74361 3.62623 11.3159 3.66523 12.3508 5.11423ZM8.75786 2.39173C9.23538 1.83823 9.57318 1.07023 9.57318 0.302232C9.57318 0.195732 9.56397 0.0877324 9.54401 0.000732422C8.76707 0.0292324 7.84274 0.506233 7.28538 1.13773C6.84778 1.62373 6.43935 2.39173 6.43935 3.17023C6.43935 3.28723 6.45931 3.40423 6.46852 3.44173C6.51766 3.45073 6.5975 3.46123 6.67734 3.46123C7.37443 3.46123 8.25117 3.00523 8.75786 2.39173Z" fill="white"/>
</svg>
