<svg width="12" height="10" viewBox="0 0 12 10" xmlns="http://www.w3.org/2000/svg" id="icon-password">
  <g stroke="null" id="svg_7">
   <path stroke="null" d="m9.87827,8.95988c-0.0493,0.0001 -0.0981,-0.00945 -0.1436,-0.02795c-0.0455,-0.01861 -0.0868,-0.04588 -0.1215,-0.08024l-8.25002,-8.12183c-0.06736,-0.0698 -0.10435,-0.16273 -0.1031,-0.259c0.00125,-0.09627 0.04065,-0.18824 0.1098,-0.25633c0.06915,-0.06807 0.16258,-0.10686 0.26037,-0.10809c0.09778,-0.00123 0.19219,0.03519 0.26309,0.1015l8.24996,8.12179c0.0524,0.05168 0.0881,0.11745 0.1026,0.18902c0.0144,0.07157 0.007,0.14579 -0.0213,0.21323c-0.0284,0.06744 -0.0765,0.12513 -0.1381,0.16569c-0.0616,0.04056 -0.1341,0.06221 -0.2082,0.06221z" fill="currentColor" id="svg_1"/>
   <path stroke="null" d="m5.74527,7.48319c-0.9724,0 -1.91016,-0.283328 -2.78719,-0.842208c-0.79851,-0.507589 -1.51734,-1.234615 -2.07891,-2.099663l0,-0.001772c0.46735,-0.659295 0.97922,-1.216698 1.52907,-1.666204c0.00497,-0.004036 0.00903,-0.009156 0.01191,-0.014865c0.00289,-0.00571 0.00454,-0.011912 0.00484,-0.018311c0.00031,-0.006399 -0.00073,-0.0127 -0.00305,-0.018705c-0.00231,-0.006005 -0.00586,-0.01142 -0.01042,-0.015948l-0.46688,-0.458858c-0.00829,-0.008269 -0.01943,-0.013093 -0.0312,-0.013684c-0.01177,-0.000492 -0.02331,0.003347 -0.03231,0.010829c-0.58406,0.484553 -1.12617,1.078972 -1.61906,1.774889c-0.0848,0.119809 -0.13151,0.26167 -0.13418,0.407765c-0.00267,0.145996 0.03881,0.289432 0.11918,0.412195c0.61898,0.953649 1.41562,1.756873 2.30343,2.322348c0.99961,0.637538 2.07537,0.960541 3.19477,0.960541c0.6042,-0.00187 1.2041,-0.099825 1.7766,-0.29022c0.0075,-0.00256 0.0143,-0.006891 0.0196,-0.0127c0.0054,-0.005907 0.0092,-0.012896 0.011,-0.020575c0.0018,-0.007679 0.0016,-0.015653 -0.0006,-0.023135c-0.0022,-0.00758 -0.0063,-0.014472 -0.012,-0.019985l-0.5058,-0.497941c-0.0116,-0.011223 -0.026,-0.019197 -0.0418,-0.023233c-0.0157,-0.004036 -0.0322,-0.003938 -0.0479,0.000197c-0.3917,0.099234 -0.7946,0.149441 -1.1991,0.149245z" fill="currentColor" id="svg_2"/>
   <path stroke="null" d="m11.25727,4.128337c-0.6201,-0.944199 -1.4247,-1.746241 -2.3266,-2.319562c-0.9977,-0.634979 -2.0993,-0.9707 -3.1854,-0.9707c-0.5978,0.001044 -1.1912,0.101124 -1.75524,0.296038c-0.00751,0.002569 -0.01424,0.00699 -0.01954,0.012828c-0.0053,0.005838 -0.00901,0.012916 -0.01077,0.020556c-0.00176,0.007639 -0.00151,0.015594 0.00072,0.023115c0.00222,0.007521 0.00636,0.014353 0.01201,0.019866l0.50512,0.497233c0.0117,0.01138 0.0263,0.019502 0.0423,0.023558c0.016,0.004046 0.0327,0.003879 0.0486,-0.000482c0.3837,-0.102177 0.7793,-0.154078 1.1768,-0.154364c0.9537,0 1.8886,0.286804 2.7785,0.853717c0.8135,0.516843 1.5408,1.24318 2.1038,2.099663l0.0006,0.00187l-0.0006,0.00187c-0.4087,0.633305 -0.9158,1.199568 -1.5028,1.678116c-0.0051,0.004036 -0.0092,0.009156 -0.0121,0.014865c-0.0029,0.00571 -0.0046,0.01201 -0.005,0.018409c-0.0003,0.006399 0.0007,0.012798 0.0031,0.018803c0.0023,0.005907 0.0059,0.01142 0.0104,0.015948l0.4664,0.458957c0.0083,0.008171 0.0194,0.013093 0.0311,0.013586c0.0117,0.000591 0.0232,-0.003249 0.0322,-0.010632c0.6267,-0.519501 1.1692,-1.130065 1.6088,-1.810723c0.0777,-0.120006 0.1187,-0.259406 0.1183,-0.401661c-0.0004,-0.142255 -0.0423,-0.28136 -0.1207,-0.400873z" fill="currentColor" id="svg_3"/>
   <path stroke="null" d="m5.75327,2.314759c-0.1686,-0.000098 -0.3366,0.018508 -0.5009,0.055425c-0.0083,0.001674 -0.016,0.005513 -0.0222,0.011223c-0.0062,0.005611 -0.0108,0.012798 -0.0132,0.020871c-0.0024,0.007974 -0.0026,0.016441 -0.0005,0.024513c0.0021,0.008073 0.0064,0.015456 0.0125,0.021363l2.6388,2.597112c0.006,0.005907 0.0134,0.01014 0.0217,0.012207c0.0082,0.002166 0.0168,0.001969 0.0249,-0.000394c0.0081,-0.002363 0.0155,-0.006891 0.0212,-0.012995c0.0058,-0.006202 0.0097,-0.013684 0.0114,-0.021855c0.0751,-0.324479 0.0751,-0.661362 -0.0002,-0.985743c-0.0753,-0.324282 -0.2238,-0.627792 -0.4345,-0.887986c-0.2108,-0.260095 -0.4784,-0.470081 -0.7829,-0.614403c-0.3045,-0.144421 -0.6382,-0.219338 -0.9761,-0.219338z" fill="currentColor" id="svg_4"/>
   <path stroke="null" d="m3.6387,4.014336c-0.00596,-0.005907 -0.01344,-0.01014 -0.02165,-0.012207c-0.00821,-0.002067 -0.01684,-0.001969 -0.02497,0.000394c-0.00813,0.002363 -0.01545,0.006891 -0.02119,0.012995c-0.00574,0.006202 -0.00969,0.013782 -0.01141,0.021954c-0.085,0.365531 -0.07432,0.746321 0.03102,1.106733c0.10534,0.360412 0.30191,0.688533 0.57127,0.953748c0.2694,0.265116 0.6027,0.458661 0.9688,0.562325c0.3661,0.103762 0.7529,0.114296 1.1242,0.030617c0.0083,-0.001772 0.016,-0.005611 0.0222,-0.011223c0.0063,-0.00571 0.0108,-0.012896 0.0132,-0.020871c0.0025,-0.008073 0.0026,-0.016539 0.0005,-0.024612c-0.0021,-0.008073 -0.0064,-0.015456 -0.0124,-0.021363l-2.63957,-2.59849z" fill="currentColor" id="svg_5"/>
  </g>
</svg>