<svg width="48" height="17" viewBox="0 0 48 17" fill="none" xmlns="http://www.w3.org/2000/svg">
<path d="M9.99756 16.5714V9.60486H17.7042L18.531 10.6365L19.3852 9.60486H47.3582V16.0909C47.3582 16.0909 46.6267 16.5644 45.7806 16.5714H30.2914L29.3591 15.4732V16.5714H26.3043V14.6967C26.3043 14.6967 25.887 14.9584 24.9848 14.9584H23.9451V16.5714H19.3198L18.4941 15.5176L17.6558 16.5714H9.99756Z" fill="white"/>
<path d="M0.997803 4.35409L2.73567 0.476196H5.74113L6.72739 2.64844V0.476196H10.4634L11.0506 2.04622L11.6198 0.476196H28.3908V1.2655C28.3908 1.2655 29.2724 0.476196 30.7214 0.476196L36.163 0.494398L37.1322 2.63821V0.476196H40.2587L41.1192 1.70764V0.476196H44.2744V7.44268H41.1192L40.2946 6.20725V7.44268H35.701L35.2391 6.34451H34.0042L33.5497 7.44268H30.4345C29.1878 7.44268 28.3908 6.66949 28.3908 6.66949V7.44268H23.6938L22.7616 6.34451V7.44268H5.29589L4.83426 6.34451H3.60329L3.14492 7.44268H0.997803V4.35409Z" fill="white"/>
<path d="M3.35084 1.33521L1.00684 6.55149H2.53291L2.96541 5.50695H5.47972L5.90998 6.55149H7.46967L5.1279 1.33521H3.35084ZM4.21808 2.54919L4.98448 4.37447H3.44944L4.21808 2.54919Z" fill="#016FD0"/>
<path d="M7.63013 6.55003V1.33374L9.79875 1.34145L11.0601 4.70458L12.2912 1.33374H14.4425V6.55003H13.08V2.70645L11.6358 6.55003H10.4409L8.9926 2.70645V6.55003H7.63013Z" fill="#016FD0"/>
<path d="M15.376 6.55003V1.33374H19.8219V2.50055H16.7528V3.3928H19.7502V4.49097H16.7528V5.41755H19.8219V6.55003H15.376Z" fill="#016FD0"/>
<path d="M20.6107 1.33521V6.55149H21.9732V4.69834H22.5469L24.1805 6.55149H25.8455L24.0528 4.62971C24.7885 4.57028 25.5475 3.96587 25.5475 3.0275C25.5475 1.92981 24.6473 1.33521 23.6427 1.33521H20.6107ZM21.9732 2.502H23.5306C23.9042 2.502 24.176 2.78173 24.176 3.05109C24.176 3.39764 23.8239 3.60017 23.5508 3.60017H21.9732V2.502Z" fill="#016FD0"/>
<path d="M27.4947 6.55003H26.1035V1.33374H27.4947V6.55003Z" fill="#016FD0"/>
<path d="M30.7925 6.55003H30.4922C29.0394 6.55003 28.1572 5.45444 28.1572 3.96333C28.1572 2.43539 29.0295 1.33374 30.8642 1.33374H32.3701V2.56918H30.8092C30.0644 2.56918 29.5376 3.12552 29.5376 3.9762C29.5376 4.9864 30.1399 5.41069 31.0077 5.41069H31.3662L30.7925 6.55003Z" fill="#016FD0"/>
<path d="M33.7568 1.33521L31.4128 6.55149H32.9389L33.3714 5.50695H35.8857L36.316 6.55149H37.8756L35.5339 1.33521H33.7568ZM34.6241 2.54919L35.3905 4.37447H33.8554L34.6241 2.54919Z" fill="#016FD0"/>
<path d="M38.035 6.55003V1.33374H39.7673L41.9791 4.61108V1.33374H43.3416V6.55003H41.6653L39.3975 3.1869V6.55003H38.035Z" fill="#016FD0"/>
<path d="M10.9302 15.6788V10.4625H15.3762V11.6293H12.307V12.5216H15.3045V13.6198H12.307V14.5463H15.3762V15.6788H10.9302Z" fill="#016FD0"/>
<path d="M32.7144 15.6788V10.4625H37.1603V11.6293H34.0912V12.5216H37.0743V13.6198H34.0912V14.5463H37.1603V15.6788H32.7144Z" fill="#016FD0"/>
<path d="M15.5474 15.6788L17.7121 13.1028L15.4958 10.4625H17.2124L18.5323 12.0948L19.8566 10.4625H21.506L19.3188 13.0707L21.4875 15.6788H19.7713L18.4897 14.0723L17.2393 15.6788H15.5474Z" fill="#016FD0"/>
<path d="M21.65 10.4636V15.6799H23.0484V14.0327H24.4826C25.6961 14.0327 26.6159 13.4165 26.6159 12.2181C26.6159 11.2254 25.8945 10.4636 24.6596 10.4636H21.65ZM23.0484 11.6433H24.5588C24.9508 11.6433 25.231 11.8733 25.231 12.2439C25.231 12.592 24.9522 12.8444 24.5543 12.8444H23.0484V11.6433Z" fill="#016FD0"/>
<path d="M27.2079 10.4625V15.6788H28.5704V13.8257H29.1441L30.7777 15.6788H32.4427L30.65 13.757C31.3857 13.6976 32.1447 13.0932 32.1447 12.1548C32.1447 11.0571 31.2445 10.4625 30.2399 10.4625H27.2079ZM28.5704 11.6293H30.1278C30.5014 11.6293 30.7732 11.909 30.7732 12.1784C30.7732 12.525 30.4211 12.7275 30.148 12.7275H28.5704V11.6293Z" fill="#016FD0"/>
<path d="M37.7921 15.6788V14.5463H40.5189C40.9224 14.5463 41.0971 14.3377 41.0971 14.1088C41.0971 13.8895 40.9229 13.6678 40.5189 13.6678H39.2867C38.2156 13.6678 37.6191 13.0432 37.6191 12.1055C37.6191 11.2691 38.1654 10.4625 39.757 10.4625H42.4103L41.8366 11.6362H39.5419C39.1032 11.6362 38.9682 11.8565 38.9682 12.0669C38.9682 12.2831 39.1351 12.5216 39.4702 12.5216H40.7609C41.9549 12.5216 42.473 13.1698 42.473 14.0187C42.473 14.9313 41.8957 15.6788 40.6959 15.6788H37.7921Z" fill="#016FD0"/>
<path d="M42.793 15.6788V14.5463H45.5197C45.9232 14.5463 46.0979 14.3377 46.0979 14.1088C46.0979 13.8895 45.9237 13.6678 45.5197 13.6678H44.2875C43.2165 13.6678 42.62 13.0432 42.62 12.1055C42.62 11.2691 43.1662 10.4625 44.7578 10.4625H47.411L46.8373 11.6362H44.5427C44.104 11.6362 43.969 11.8565 43.969 12.0669C43.969 12.2831 44.1359 12.5216 44.471 12.5216H45.7617C46.9557 12.5216 47.4738 13.1698 47.4738 14.0187C47.4738 14.9313 46.8964 15.6788 45.6967 15.6788H42.793Z" fill="#016FD0"/>
</svg>
