<svg width="44" height="18" viewBox="0 0 44 18" fill="none" xmlns="http://www.w3.org/2000/svg">
<path fill-rule="evenodd" clip-rule="evenodd" d="M41.6902 4.33333V7.58332C42.9551 7.58332 43.981 8.55345 43.9809 9.74984V15.1665C43.9809 16.3632 42.9551 17.3332 41.6902 17.3332H32.5278C31.2626 17.3332 30.2371 16.3632 30.2371 15.1665V9.74984C30.2371 8.55348 31.2626 7.58332 32.5278 7.58332V4.33333C32.5278 1.94454 34.583 0 37.109 0C39.6357 0 41.6902 1.94454 41.6902 4.33333ZM34.8184 7.58332H39.3995V4.33333C39.3995 3.13786 38.3718 2.16663 37.109 2.16663C35.8457 2.16663 34.8184 3.13786 34.8184 4.33333V7.58332ZM35.9967 13.5634L39.0459 10.708C39.3478 10.4252 39.8372 10.4252 40.1391 10.708C40.4407 10.9905 40.4407 11.4488 40.1391 11.7315L36.5432 15.0987C36.3922 15.2401 36.1945 15.3106 35.9967 15.3106C35.7989 15.3106 35.6012 15.2401 35.4502 15.0987L34.0759 13.8118C33.7743 13.5293 33.7743 13.0711 34.0759 12.7884C34.3778 12.5057 34.8672 12.5057 35.1691 12.7884L35.9967 13.5634Z" fill="#28CE4F"/>
<path d="M1.54297 17.3332C0.897163 17.3332 0.382841 17.1612 0 16.8173L0.179819 16.4561C0.384775 16.6281 0.593597 16.7504 0.806287 16.823C1.01898 16.8956 1.26647 16.9319 1.54877 16.9319C1.88134 16.9319 2.13656 16.8689 2.31445 16.7428C2.4962 16.6128 2.58708 16.4313 2.58708 16.1982C2.58708 16.0606 2.54261 15.9498 2.45366 15.8657C2.36859 15.7778 2.25451 15.709 2.11143 15.6593C1.97221 15.6097 1.78466 15.5581 1.54877 15.5046C1.23167 15.4358 0.970638 15.3613 0.765682 15.281C0.560727 15.2008 0.394442 15.0861 0.266829 14.9371C0.139215 14.7842 0.0754082 14.5855 0.0754082 14.3409C0.0754082 14.1078 0.137281 13.9033 0.261028 13.7275C0.384775 13.5479 0.558793 13.4084 0.783084 13.3091C1.01124 13.2097 1.27614 13.16 1.57777 13.16C1.86393 13.16 2.13076 13.204 2.37826 13.2919C2.62575 13.3798 2.83457 13.5078 3.00472 13.6759L2.8191 14.0371C2.62575 13.8728 2.42853 13.7524 2.22744 13.6759C2.03022 13.5995 1.81366 13.5613 1.57777 13.5613C1.2568 13.5613 1.00544 13.6301 0.823689 13.7677C0.641936 13.9014 0.551059 14.0868 0.551059 14.3237C0.551059 14.5301 0.630334 14.6848 0.788885 14.788C0.947435 14.8912 1.19106 14.981 1.51976 15.0574C1.87553 15.1415 2.15396 15.2199 2.35505 15.2925C2.56001 15.3613 2.73016 15.4683 2.86551 15.6135C3.00086 15.7549 3.06853 15.9441 3.06853 16.181C3.06853 16.4103 3.00666 16.6128 2.88291 16.7886C2.75916 16.9606 2.58128 17.0943 2.34925 17.1899C2.12109 17.2854 1.85233 17.3332 1.54297 17.3332Z" fill="black"/>
<path d="M4.31013 17.2873V13.2059H6.92041V13.5957H4.77998V15.0173H6.8044V15.4129H4.77998V16.8975H6.92041V17.2873H4.31013Z" fill="black"/>
<path d="M9.92505 17.3332C9.53447 17.3332 9.19417 17.2491 8.90414 17.081C8.61797 16.9128 8.39755 16.6721 8.24287 16.3587C8.08818 16.0415 8.01084 15.6689 8.01084 15.2409C8.01084 14.8129 8.08818 14.4441 8.24287 14.1345C8.39755 13.8212 8.61797 13.5804 8.90414 13.4123C9.19417 13.2441 9.53447 13.16 9.92505 13.16C10.2112 13.16 10.4722 13.204 10.7081 13.2919C10.9479 13.376 11.1548 13.504 11.3288 13.6759L11.149 14.0371C10.9518 13.8689 10.7565 13.7486 10.5631 13.6759C10.3736 13.6033 10.1629 13.567 9.93085 13.567C9.4784 13.567 9.12649 13.7123 8.87513 14.0027C8.62764 14.2931 8.50389 14.7059 8.50389 15.2409C8.50389 15.7797 8.62764 16.1963 8.87513 16.4905C9.12263 16.781 9.47453 16.9262 9.93085 16.9262C10.1629 16.9262 10.3736 16.8899 10.5631 16.8173C10.7565 16.7447 10.9518 16.6243 11.149 16.4561L11.3288 16.8173C11.1548 16.9893 10.9479 17.1192 10.7081 17.2071C10.4722 17.2912 10.2112 17.3332 9.92505 17.3332Z" fill="black"/>
<path d="M14.2036 17.3332C13.6622 17.3332 13.2522 17.1956 12.9738 16.9205C12.6993 16.6415 12.562 16.2307 12.562 15.688V13.2059H13.0318V15.7281C13.0318 16.1256 13.1304 16.4256 13.3277 16.6281C13.5249 16.8307 13.8168 16.9319 14.2036 16.9319C14.5864 16.9319 14.8745 16.8307 15.0678 16.6281C15.2651 16.4256 15.3637 16.1256 15.3637 15.7281V13.2059H15.8393V15.688C15.8393 16.2268 15.7001 16.6358 15.4217 16.9147C15.1433 17.1937 14.7372 17.3332 14.2036 17.3332Z" fill="black"/>
<path d="M20.5404 17.2873H20.0358L19.5253 15.9288C19.4634 15.7606 19.3764 15.6479 19.2643 15.5906C19.156 15.5332 19.0013 15.5046 18.8002 15.5046H17.7677V17.2873H17.2979V13.2059H18.9394C19.3842 13.2059 19.7245 13.3033 19.9604 13.4982C20.2001 13.6931 20.32 13.974 20.32 14.3409C20.32 14.6084 20.2484 14.8339 20.1054 15.0173C19.9662 15.1969 19.7631 15.325 19.4963 15.4014C19.6162 15.4205 19.7187 15.4721 19.8037 15.5562C19.8888 15.6364 19.9604 15.753 20.0184 15.9058L20.5404 17.2873ZM18.8988 15.1148C19.533 15.1148 19.8501 14.8587 19.8501 14.3466C19.8501 14.0944 19.7728 13.9072 19.6181 13.7849C19.4634 13.6588 19.2237 13.5957 18.8988 13.5957H17.7677V15.1148H18.8988Z" fill="black"/>
<path d="M21.7838 17.2873V13.2059H24.3941V13.5957H22.2537V15.0173H24.2781V15.4129H22.2537V16.8975H24.3941V17.2873H21.7838Z" fill="black"/>
<path d="M4.01766 9.76413C3.28678 9.76413 2.58297 9.6705 1.90623 9.48325C1.23852 9.28707 0.683591 9.0151 0.241455 8.66734L0.918194 7.16928C1.84758 7.81131 2.88525 8.13232 4.0312 8.13232C4.64477 8.13232 5.11398 8.03869 5.43881 7.85143C5.77267 7.65526 5.9396 7.38329 5.9396 7.03552C5.9396 6.73235 5.78621 6.49605 5.47942 6.32662C5.18165 6.14828 4.6538 5.97886 3.89585 5.81835C3.04767 5.64893 2.37093 5.44384 1.86563 5.20308C1.36935 4.9534 1.00391 4.65468 0.769312 4.30692C0.543732 3.95024 0.430942 3.50885 0.430942 2.98274C0.430942 2.41205 0.588848 1.89932 0.90466 1.44456C1.22949 0.989788 1.68065 0.637566 2.25814 0.38789C2.83562 0.129297 3.50334 0 4.26129 0C4.94705 0 5.60574 0.0980872 6.23737 0.294261C6.86899 0.490436 7.37429 0.757946 7.75326 1.09679L7.07652 2.59485C6.22834 1.95283 5.29444 1.63181 4.27482 1.63181C3.73343 1.63181 3.30032 1.73882 2.97548 1.95283C2.65065 2.16683 2.48823 2.45664 2.48823 2.82223C2.48823 3.03624 2.54688 3.21458 2.66418 3.35726C2.79051 3.49993 2.99804 3.62923 3.28678 3.74515C3.57552 3.85215 3.98608 3.95915 4.51845 4.06616C5.75462 4.33367 6.64341 4.68143 7.1848 5.10945C7.73522 5.53747 8.01042 6.12153 8.01042 6.86164C8.01042 7.75335 7.65852 8.46225 6.95471 8.98835C6.2509 9.50554 5.27188 9.76413 4.01766 9.76413Z" fill="black"/>
<path d="M12.9131 9.76413C12.1822 9.76413 11.4784 9.6705 10.8017 9.48325C10.1339 9.28707 9.57901 9.0151 9.13688 8.66734L9.81361 7.16928C10.743 7.81131 11.7807 8.13232 12.9266 8.13232C13.5402 8.13232 14.0094 8.03869 14.3342 7.85143C14.6681 7.65526 14.835 7.38329 14.835 7.03552C14.835 6.73235 14.6816 6.49605 14.3748 6.32662C14.0771 6.14828 13.5492 5.97886 12.7913 5.81835C11.9431 5.64893 11.2663 5.44384 10.761 5.20308C10.2648 4.9534 9.89933 4.65468 9.66473 4.30692C9.43915 3.95024 9.32636 3.50885 9.32636 2.98274C9.32636 2.41205 9.48427 1.89932 9.80008 1.44456C10.1249 0.989788 10.5761 0.637566 11.1536 0.38789C11.731 0.129297 12.3988 0 13.1567 0C13.8425 0 14.5012 0.0980872 15.1328 0.294261C15.7644 0.490436 16.2697 0.757946 16.6487 1.09679L15.9719 2.59485C15.1238 1.95283 14.1899 1.63181 13.1702 1.63181C12.6288 1.63181 12.1957 1.73882 11.8709 1.95283C11.5461 2.16683 11.3837 2.45664 11.3837 2.82223C11.3837 3.03624 11.4423 3.21458 11.5596 3.35726C11.6859 3.49993 11.8935 3.62923 12.1822 3.74515C12.4709 3.85215 12.8815 3.95915 13.4139 4.06616C14.65 4.33367 15.5388 4.68143 16.0802 5.10945C16.6306 5.53747 16.9058 6.12153 16.9058 6.86164C16.9058 7.75335 16.5539 8.46225 15.8501 8.98835C15.1463 9.50554 14.1673 9.76413 12.9131 9.76413Z" fill="black"/>
<path d="M18.4383 9.64375V0.12038H20.5498V7.94506H24.8538V9.64375H18.4383Z" fill="black"/>
</svg>
