<svg width="92" height="88" viewBox="0 0 92 88" fill="none" xmlns="http://www.w3.org/2000/svg" id="additive-state">
<g filter="url(#filter0_d_3342_35028)">
<rect width="41.9932" height="48.6843" rx="3.61393" transform="matrix(0.969715 0.244241 -0.24413 0.969743 44.2786 24.5322)" fill="white"/>
<rect x="0.383842" y="0.64221" width="40.9352" height="47.6263" rx="3.08492" transform="matrix(0.969715 0.244241 -0.24413 0.969743 44.447 24.4579)" stroke="#EBEBEB" stroke-width="1.05802"/>
</g>
<rect width="36.2669" height="32.4562" rx="3.61393" transform="matrix(0.969715 0.244241 -0.24413 0.969743 46.3572 28.0085)" fill="#EBEBEB"/>
<rect width="35.0531" height="2.86378" rx="1.43189" transform="matrix(0.969715 0.244241 -0.24413 0.969743 37.7344 62.26)" fill="#EBEBEB"/>
<g filter="url(#filter1_d_3342_35028)">
<rect width="53.1287" height="61.5958" rx="3.61393" transform="matrix(0.997382 -0.0723095 0.0722746 0.997385 1 7.84167)" fill="white"/>
<rect x="0.565859" y="0.489374" width="52.0707" height="60.5377" rx="3.08492" transform="matrix(0.997382 -0.0723095 0.0722746 0.997385 0.966112 7.88387)" stroke="#EBEBEB" stroke-width="1.05802"/>
</g>
<rect width="45.8839" height="41.0638" rx="3.61393" transform="matrix(0.997382 -0.0723095 0.0722746 0.997385 4.87439 11.1936)" fill="#EBEBEB"/>
<rect width="30.1868" height="3.62328" rx="1.81164" transform="matrix(0.997382 -0.0723095 0.0722746 0.997385 8.10449 55.7639)" fill="#EBEBEB"/>
<ellipse cx="43.4198" cy="44.3089" rx="12.726" ry="12.7291" fill="#318BF5"/>
<path d="M43.1545 39.0055C42.8617 39.0055 42.6243 39.243 42.6243 39.5359V43.5137H38.6474C38.3545 43.5137 38.1171 43.7512 38.1171 44.0441V44.5745C38.1171 44.8674 38.3545 45.1049 38.6474 45.1049H42.6243V49.0827C42.6243 49.3756 42.8617 49.6131 43.1545 49.6131H43.6848C43.9776 49.6131 44.215 49.3756 44.215 49.0827V45.1049H48.1919C48.4847 45.1049 48.7221 44.8674 48.7221 44.5745V44.0441C48.7221 43.7512 48.4847 43.5137 48.1919 43.5137H44.215V39.5359C44.215 39.243 43.9776 39.0055 43.6848 39.0055H43.1545Z" fill="white"/>
<defs>
<filter id="filter0_d_3342_35028" x="30.7561" y="21.6906" width="60.6997" height="65.5602" filterUnits="userSpaceOnUse" color-interpolation-filters="sRGB">
<feFlood flood-opacity="0" result="BackgroundImageFix"/>
<feColorMatrix in="SourceAlpha" type="matrix" values="0 0 0 0 0 0 0 0 0 0 0 0 0 0 0 0 0 0 127 0" result="hardAlpha"/>
<feOffset dx="2.40929" dy="1.20464"/>
<feGaussianBlur stdDeviation="2.40929"/>
<feComposite in2="hardAlpha" operator="out"/>
<feColorMatrix type="matrix" values="0 0 0 0 0 0 0 0 0 0 0 0 0 0 0 0 0 0 0.05 0"/>
<feBlend mode="normal" in2="BackgroundImageFix" result="effect1_dropShadow_3342_35028"/>
<feBlend mode="normal" in="SourceGraphic" in2="effect1_dropShadow_3342_35028" result="shape"/>
</filter>
<filter id="filter1_d_3342_35028" x="0.0469439" y="0.637718" width="66.5754" height="74.4102" filterUnits="userSpaceOnUse" color-interpolation-filters="sRGB">
<feFlood flood-opacity="0" result="BackgroundImageFix"/>
<feColorMatrix in="SourceAlpha" type="matrix" values="0 0 0 0 0 0 0 0 0 0 0 0 0 0 0 0 0 0 127 0" result="hardAlpha"/>
<feOffset dx="3.61393" dy="1.20464"/>
<feGaussianBlur stdDeviation="2.40929"/>
<feComposite in2="hardAlpha" operator="out"/>
<feColorMatrix type="matrix" values="0 0 0 0 0 0 0 0 0 0 0 0 0 0 0 0 0 0 0.05 0"/>
<feBlend mode="normal" in2="BackgroundImageFix" result="effect1_dropShadow_3342_35028"/>
<feBlend mode="normal" in="SourceGraphic" in2="effect1_dropShadow_3342_35028" result="shape"/>
</filter>
</defs>
</svg>
