<svg width="12" height="10" viewBox="0 0 12 10" fill="none" xmlns="http://www.w3.org/2000/svg" id="Behance">
<g clip-path="url(#clip0_2041_2640)">
<path d="M4.84295 4.37654C4.84295 4.37654 5.97855 4.2878 5.97855 2.88601C5.97855 1.48413 5.04948 0.799988 3.87261 0.799988H0V8.6339H3.87261C3.87261 8.6339 6.2367 8.71251 6.2367 6.32169C6.2367 6.32171 6.33977 4.37654 4.84295 4.37654ZM3.59387 2.19238H3.87261C3.87261 2.19238 4.39902 2.19238 4.39902 3.00746C4.39902 3.82245 4.08944 3.94061 3.73829 3.94061H1.70632V2.19238H3.59387ZM3.76318 7.24156H1.70632V5.14804H3.87261C3.87261 5.14804 4.65719 5.13722 4.65719 6.2239C4.65719 7.14021 4.07119 7.23464 3.76318 7.24156ZM9.38963 2.79317C6.52764 2.79317 6.53018 5.80319 6.53018 5.80319C6.53018 5.80319 6.33381 8.79777 9.38963 8.79777C9.38963 8.79777 11.9361 8.9509 11.9361 6.71461H10.6265C10.6265 6.71461 10.6702 7.55676 9.4333 7.55676C9.4333 7.55676 8.12347 7.64916 8.12347 6.19384H11.9798C11.9798 6.19381 12.4017 2.79317 9.38963 2.79317ZM8.10908 5.14804C8.10908 5.14804 8.269 3.94058 9.41872 3.94058C10.5682 3.94058 10.5538 5.14804 10.5538 5.14804H8.10908ZM10.8589 2.22619H7.78846V1.26151H10.8589V2.22619Z" fill="black"/>
</g>
<defs>
<clipPath id="clip0_2041_2640">
<rect width="12" height="9.6" fill="white"/>
</clipPath>
</defs>
</svg>
