<svg width="20" height="20" viewBox="0 0 20 20" fill="none" xmlns="http://www.w3.org/2000/svg" id="branding-icon">
<path fill-rule="evenodd" clip-rule="evenodd" d="M6.09091 15.7273C8.19963 15.7273 9.90909 14.0178 9.90909 11.9091C9.90909 9.80037 8.19963 8.09091 6.09091 8.09091C3.98219 8.09091 2.27273 9.80037 2.27273 11.9091C2.27273 14.0178 3.98219 15.7273 6.09091 15.7273ZM11.1818 11.9091C11.1818 14.7207 8.90254 17 6.09091 17C3.27928 17 1 14.7207 1 11.9091C1 9.09746 3.27928 6.81818 6.09091 6.81818C8.90254 6.81818 11.1818 9.09746 11.1818 11.9091Z" fill="currentColor"/>
<path fill-rule="evenodd" clip-rule="evenodd" d="M12.455 3L6.09091 13.1818H18.8182L12.455 3ZM12.4549 5.40138L8.3873 11.9091H16.5219L12.4549 5.40138Z" fill="currentColor"/>
</svg>
