<svg width="24" height="24" viewBox="0 0 24 24" fill="none" xmlns="http://www.w3.org/2000/svg" id="burger">
<rect width="24" height="24" rx="4" fill="white"/>
<path d="M6.56803 10H17.432C17.5826 10 17.7271 9.94732 17.8336 9.85355C17.9402 9.75979 18 9.63261 18 9.5C18 9.36739 17.9402 9.24021 17.8336 9.14645C17.7271 9.05268 17.5826 9 17.432 9H6.56803C6.41738 9 6.2729 9.05268 6.16637 9.14645C6.05985 9.24021 6 9.36739 6 9.5C6 9.63261 6.05985 9.75979 6.16637 9.85355C6.2729 9.94732 6.41738 10 6.56803 10Z" fill="black"/>
<path d="M6.56803 12.5H17.432C17.5826 12.5 17.7271 12.4473 17.8336 12.3536C17.9402 12.2598 18 12.1326 18 12C18 11.8674 17.9402 11.7402 17.8336 11.6464C17.7271 11.5527 17.5826 11.5 17.432 11.5H6.56803C6.41738 11.5 6.2729 11.5527 6.16637 11.6464C6.05985 11.7402 6 11.8674 6 12C6 12.1326 6.05985 12.2598 6.16637 12.3536C6.2729 12.4473 6.41738 12.5 6.56803 12.5Z" fill="black"/>
<path d="M6.56803 15H17.432C17.5826 15 17.7271 14.9473 17.8336 14.8536C17.9402 14.7598 18 14.6326 18 14.5C18 14.3674 17.9402 14.2402 17.8336 14.1464C17.7271 14.0527 17.5826 14 17.432 14H6.56803C6.41738 14 6.2729 14.0527 6.16637 14.1464C6.05985 14.2402 6 14.3674 6 14.5C6 14.6326 6.05985 14.7598 6.16637 14.8536C6.2729 14.9473 6.41738 15 6.56803 15Z" fill="black"/>
</svg>
