<svg width="8" height="8" viewBox="0 0 8 8" fill="none" xmlns="http://www.w3.org/2000/svg" id="close">
<path d="M7.74148 1.14999C7.73213 0.923128 7.64775 0.698128 7.47396 0.524991C7.30086 0.351853 7.07582 0.266886 6.84896 0.257474C6.59648 0.246854 6.34086 0.331853 6.14837 0.524991L3.99961 2.67437L1.85086 0.524991C1.65775 0.331853 1.40275 0.247474 1.15024 0.257474C0.923372 0.266854 0.698372 0.351232 0.525235 0.524991C0.352131 0.698128 0.26713 0.923128 0.257719 1.14999C0.247098 1.40251 0.332098 1.65747 0.525235 1.85061L2.67399 3.99999L0.525235 6.14875C0.332098 6.34185 0.247719 6.59689 0.257719 6.84934C0.267098 7.0762 0.351477 7.30123 0.525235 7.47434C0.698372 7.64747 0.923372 7.73247 1.15024 7.74185C1.40275 7.75247 1.65775 7.66751 1.85086 7.47434L3.99961 5.32561L6.14899 7.47499C6.34213 7.6681 6.59713 7.75247 6.84961 7.74251C7.07648 7.73313 7.30148 7.64875 7.47461 7.47499C7.64775 7.30185 7.73272 7.07685 7.74213 6.84999C7.75275 6.59747 7.66775 6.34251 7.47461 6.14937L5.32524 3.99999L7.47396 1.85123C7.66713 1.65813 7.7521 1.40313 7.74148 1.14999Z" fill="currentColor"/>
</svg>
