<svg width="12" height="14" viewBox="0 0 12 14" fill="none" xmlns="http://www.w3.org/2000/svg" id="deleteImage">
<path d="M7.89004 4.99999C7.69032 4.99999 7.59046 5.19999 7.59046 5.39999V11.6C7.59046 11.8 7.69032 11.9 7.89004 11.9C7.9899 11.9 8.18962 11.8 8.18962 11.6V5.39999C8.18962 5.19999 7.9899 5.09999 7.89004 5.09999V4.99999Z" fill="currentColor"/>
<path d="M4.09533 4.99999C3.99546 4.99999 3.79574 5.19999 3.79574 5.39999V11.6C3.79574 11.8 3.99546 11.9 4.09533 11.9C4.29505 11.9 4.39491 11.8 4.39491 11.6V5.39999C4.39491 5.19999 4.29505 5.09999 4.09533 5.09999V4.99999Z" fill="currentColor"/>
<path d="M5.69282 5.39999C5.69282 5.19999 5.79268 4.99999 5.9924 4.99999V5.09999C6.19212 5.09999 6.29198 5.19999 6.29198 5.39999V11.6C6.29198 11.8 6.19212 11.9 5.9924 11.9C5.79268 11.9 5.69282 11.8 5.69282 11.6V5.39999Z" fill="currentColor"/>
<path fill-rule="evenodd" clip-rule="evenodd" d="M1.39875 4.2V12.2C1.39875 12.7 1.59847 13.2 1.89805 13.5C2.19764 13.8 2.59708 14 2.99652 14H8.98818C9.38763 14 9.78707 13.8 10.0867 13.5C10.3862 13.2 10.586 12.7 10.586 12.2V4.2C11.1851 4 11.5846 3.4 11.4847 2.8C11.4847 2.2 10.8855 1.8 10.2864 1.7H8.6886V1.3C8.6886 1 8.48888 0.6 8.28916 0.3C8.08943 0.1 7.68999 0 7.39041 0H4.5943C4.29472 0 3.89527 0.1 3.69555 0.4C3.49583 0.6 3.29611 1 3.29611 1.3V1.7H1.69833C1.09917 1.7 0.599861 2.2 0.5 2.8C0.5 3.4 0.799583 4 1.49861 4.2H1.39875ZM8.98818 13.3H2.99652C2.49722 13.3 1.99791 12.9 1.99791 12.3V4.1H9.98679V12.1C9.98679 12.8 9.48749 13.2 8.98818 13.2V13.3ZM3.99513 1.3C3.99513 1.1 3.99513 1 4.19486 0.8L4.49444 0.7H7.29055L7.68999 0.8C7.88971 1 7.88971 1.1 7.88971 1.3V1.7H3.89527V1.3H3.99513ZM1.69833 2.3H10.2864C10.586 2.3 10.8855 2.6 10.8855 3C10.8855 3.3 10.586 3.5 10.2864 3.5H1.69833C1.5553 3.502 1.41627 3.45269 1.30638 3.36099C1.19649 3.26929 1.12299 3.14124 1.09917 3C1.09917 2.6 1.39875 2.4 1.69833 2.4V2.3Z" fill="currentColor"/>
</svg>
