<svg width="24" height="24" viewBox="0 0 24 24" fill="none" xmlns="http://www.w3.org/2000/svg" id="discover">
<path d="M5.45067 1.5H18.5705C20.7451 1.5 22.5212 3.27584 22.5212 5.45067V18.5705C22.5212 20.7451 20.7453 22.5211 18.5705 22.5211H5.45067C3.276 22.5211 1.5 20.7453 1.5 18.5705V5.45067C1.5 3.276 3.27584 1.5 5.45067 1.5V1.5ZM5.43414 16.1133H8.46246V18.0062H5.43414V16.1133ZM11.0585 16.1133H18.5869V18.0062H11.0585V16.1133ZM5.43414 11.0637H8.46246V12.9566H5.43414V11.0637ZM11.0585 11.0637H18.5869V12.9566H11.0585V11.0637ZM5.43414 6.01405H8.46246V7.90695H5.43414V6.01405ZM11.0585 6.01405H18.5869V7.90695H11.0585V6.01405ZM18.5704 3.39251H5.4506C4.32119 3.39251 3.39315 4.32055 3.39315 5.44997V18.5698C3.39315 19.7 4.32119 20.6272 5.4506 20.6272H18.5704C19.7006 20.6272 20.6279 19.6998 20.6279 18.5698V5.44997C20.6279 4.32055 19.7004 3.39251 18.5704 3.39251V3.39251Z" fill="currentColor"/>
</svg>
