<svg width="20" height="20" viewBox="0 0 20 20" fill="none" xmlns="http://www.w3.org/2000/svg" id="domain-icon">
<path d="M9.99956 3C6.13425 3.00088 3.00088 6.13425 3 9.99956C3.00088 13.8662 6.13425 16.9996 9.99956 17C13.8662 16.9991 16.9996 13.8662 17 9.99956C16.9996 6.13425 13.8662 3.00088 9.99956 3ZM8.04481 4.20138C7.57319 4.74563 7.067 5.50338 6.682 6.50044H4.98056C5.723 5.43819 6.79269 4.62444 8.04481 4.20138ZM4.47481 7.375H6.395C6.22263 8.01944 6.11106 8.74963 6.08 9.5625H3.89775C3.95419 8.78331 4.155 8.04612 4.47481 7.375ZM3.89775 10.4379H6.08C6.11106 11.2508 6.22263 11.9806 6.395 12.625H4.47569C4.15587 11.9539 3.95463 11.2176 3.89775 10.4379ZM4.98188 13.5H6.68244C7.067 14.4953 7.57231 15.2531 8.04394 15.7969C6.79269 15.3743 5.72388 14.5614 4.98188 13.5ZM9.5625 16.0327C9.15125 15.7247 8.25394 14.9394 7.62306 13.5H9.5625V16.0327ZM9.5625 12.6246H7.30062C7.11338 11.9959 6.98825 11.2666 6.95281 10.4375H9.5625V12.6246ZM9.5625 9.5625H6.955C6.99044 8.7295 7.11863 8.00369 7.30719 7.375H9.5625V9.5625ZM9.5625 6.50044H7.62088C7.85188 5.97413 8.11831 5.53444 8.38344 5.1735C8.74219 4.68613 9.10006 4.34181 9.36387 4.12175C9.44 4.05875 9.50475 4.00888 9.5625 3.966V6.50044ZM16.1009 9.5625H13.92C13.8889 8.74919 13.7774 8.01944 13.6041 7.375H15.5243C15.8437 8.04612 16.0454 8.78331 16.1009 9.5625ZM15.0194 6.50044H13.318C12.9326 5.50294 12.4268 4.74519 11.9548 4.20138C13.2078 4.62444 14.2774 5.43819 15.0194 6.50044ZM10.4375 6.50087V3.96775C10.8492 4.27619 11.7461 5.06194 12.3774 6.50131L10.4375 6.50087ZM10.4375 7.375H12.6989C12.8866 8.00369 13.0113 8.73344 13.0468 9.5625H10.4375V7.375ZM10.4375 10.4375H13.0446C13.0091 11.2696 12.8809 11.9959 12.6924 12.6246H10.4375V10.4375ZM10.6357 15.8783C10.5596 15.9413 10.4948 15.9903 10.4375 16.0336V13.5004H12.3791C12.1486 14.0263 11.8813 14.4656 11.6161 14.8265C11.2578 15.3134 10.8999 15.6586 10.6357 15.8783ZM11.9561 15.7969C12.4272 15.2531 12.9326 14.4953 13.3176 13.5H15.0186C14.2757 14.5614 13.2073 15.3743 11.9561 15.7969ZM15.5239 12.6246H13.605C13.7769 11.9806 13.8885 11.2508 13.92 10.4375H16.1009C16.0445 11.2167 15.8437 11.9534 15.5239 12.6246Z" fill="currentColor"/>
</svg>
