<svg width="16" height="16" viewBox="0 0 16 16" fill="none" xmlns="http://www.w3.org/2000/svg" id="drafts">
<path d="M14.9999 3.92101C14.9999 3.67023 14.8967 3.44888 14.7347 3.27188L12.7305 1.26556C12.3768 0.911479 11.7873 0.911479 11.4336 1.26556L7.73471 4.9684L4.41896 1.64912C4.03583 1.26559 3.41691 1.26559 3.0485 1.64912L1.64854 3.05057C1.47163 3.24238 1.36841 3.47834 1.36841 3.74393C1.36841 4.00942 1.47162 4.24548 1.64843 4.43729L4.96419 7.75657L1.26528 11.4447C0.911573 11.7987 0.911573 12.3888 1.26528 12.7429L3.25478 14.7345C3.43159 14.8968 3.66741 15 3.90322 15C4.15373 15 4.37485 14.8967 4.55166 14.7345L8.25057 11.0317L11.2421 14.0409C11.3895 14.1885 11.5663 14.2769 11.7726 14.3064L13.4526 14.5868C13.5115 14.6015 13.5558 14.6015 13.6147 14.6015C13.8652 14.6015 14.1157 14.4982 14.3074 14.3212C14.5284 14.1 14.6316 13.7901 14.5726 13.4803L14.2925 11.7985C14.263 11.592 14.1599 11.415 14.0273 11.2674L11.0358 8.25793L14.7347 4.55509C14.8968 4.39281 15 4.15675 15 3.92068L14.9999 3.92101ZM12.5684 11.0021L10.9915 12.5807L3.6821 5.26353L5.25897 3.68497L12.5684 11.0021ZM2.20848 3.74398C2.20848 3.71445 2.20848 3.68502 2.23798 3.65548L3.63794 2.25404C3.66744 2.2245 3.69684 2.2245 3.72634 2.2245C3.75585 2.2245 3.78525 2.23922 3.81475 2.25404L4.65479 3.09497L3.09263 4.67342L2.25269 3.83249C2.22318 3.80295 2.20849 3.7587 2.20849 3.74399L2.20848 3.74398ZM3.91786 14.1591C3.90316 14.1591 3.88835 14.1444 3.87365 14.1296L1.86947 12.1528C1.83996 12.1233 1.83996 12.079 1.86947 12.0643L2.59159 11.3414L3.31371 12.0643C3.40212 12.1528 3.50532 12.1971 3.60842 12.1971C3.71163 12.1971 3.82943 12.1528 3.91794 12.0643C4.08005 11.8873 4.08005 11.6366 3.91794 11.4594L3.19582 10.7366L4.21268 9.70392L4.9348 10.4268C5.0232 10.5153 5.12641 10.5596 5.24432 10.5596C5.34753 10.5596 5.45063 10.5153 5.53903 10.4268C5.71584 10.2645 5.71584 9.99904 5.53903 9.83677L4.81691 9.11388L5.56845 8.36153L7.64635 10.4416L3.91786 14.1591ZM13.6883 13.7018C13.6736 13.7166 13.6294 13.7461 13.5851 13.7314L11.8462 13.4215L11.5809 13.1707L13.1578 11.607L13.423 11.8725C13.4377 11.8872 13.4525 11.9168 13.4525 11.9463L13.7177 13.6133C13.7325 13.6576 13.7178 13.6871 13.6883 13.7018V13.7018ZM14.1304 3.96529L10.4315 7.66813L8.33889 5.5733L9.09043 4.82096L9.81255 5.54385C9.90096 5.63235 10.0042 5.6766 10.1073 5.6766C10.2105 5.6766 10.3283 5.63235 10.4168 5.54385C10.5789 5.38157 10.5789 5.11608 10.4168 4.93898L9.69466 4.21608L10.7262 3.19815L11.4483 3.92104C11.5367 4.00954 11.6399 4.03907 11.7578 4.03907C11.8611 4.03907 11.9642 4.00954 12.0526 3.92104C12.2147 3.75876 12.2147 3.49327 12.0526 3.31616L11.3304 2.59327L12.0526 1.87038C12.0673 1.85567 12.0821 1.85567 12.0968 1.85567C12.1115 1.85567 12.1263 1.85567 12.141 1.87038L14.1305 3.862L14.1304 3.96529Z" fill="currentColor"/>
</svg>
