<svg width="16" height="16" viewBox="0 0 16 16" fill="none" xmlns="http://www.w3.org/2000/svg">
<path fill-rule="evenodd" clip-rule="evenodd" d="M2.85755 4.85053L7.99479 2.32861L7.99998 2.33918L8.00516 2.32861L13.1424 4.85053C13.5756 5.03544 14.0875 5.58773 14.0875 6.50585V11.6933V11.7086L14.0868 11.7239C14.0717 12.0437 13.9635 12.5067 13.6695 12.9078C13.3539 13.3382 12.8386 13.6715 12.1094 13.6715H8.28123H7.71873H3.8906C3.16137 13.6715 2.64605 13.3382 2.33046 12.9078C2.03642 12.5067 1.92824 12.0437 1.91319 11.7239L1.91248 11.7086V11.6933V6.50585C1.91248 5.58773 2.42435 5.03544 2.85755 4.85053ZM3.41141 6.02683L7.99998 3.77426L12.5885 6.02683L12.6135 6.03908L12.6237 6.04305L12.6251 6.04415C12.6311 6.04876 12.6499 6.06314 12.6731 6.09257L8.22416 7.58633C8.01346 7.65708 7.78521 7.65561 7.57544 7.58218L3.32548 6.09432C3.34933 6.06371 3.3687 6.04885 3.37483 6.04415L3.37626 6.04305L3.38647 6.03908L3.41141 6.02683Z" fill="black"/>
</svg>
