<svg width="20" height="20" viewBox="0 0 20 20" fill="none" xmlns="http://www.w3.org/2000/svg" id="File">
<path d="M3.75002 7L7.91876 2.5H15.5542C15.9375 2.5 16.25 2.84125 16.25 3.244V16.756C16.2498 16.9534 16.1771 17.1426 16.0478 17.2821C15.9185 17.4216 15.7432 17.5 15.5604 17.5H4.4396C4.3484 17.4993 4.25823 17.4792 4.17421 17.4409C4.0902 17.4026 4.01401 17.3468 3.94997 17.2766C3.88594 17.2065 3.83532 17.1234 3.80101 17.0322C3.76671 16.9409 3.74938 16.8432 3.75002 16.7448V7ZM8.61112 4V7.75H5.1389V16H14.8611V4H8.61112Z" fill="currentColor"/>
</svg>
