<svg width="12" height="12" viewBox="0 0 12 12" fill="none" xmlns="http://www.w3.org/2000/svg" id="Flickr">
<g clip-path="url(#clip0_2041_2714)">
<path d="M6.00002 12C5.21178 12.0021 4.43092 11.8479 3.70268 11.5462C2.97444 11.2446 2.31332 10.8014 1.7575 10.2425C1.19862 9.68666 0.755522 9.02547 0.453857 8.29724C0.152191 7.56901 -0.00207552 6.7882 2.17109e-05 5.99996C-0.00210563 5.21172 0.152123 4.43089 0.45379 3.70265C0.755458 2.97442 1.1986 2.31324 1.7575 1.75741C2.31334 1.1985 2.97445 0.755397 3.70268 0.453729C4.43091 0.152062 5.21178 -0.00216667 6.00002 -3.93242e-05C6.78826 -0.00216667 7.56913 0.152062 8.29736 0.453729C9.0256 0.755397 9.68671 1.1985 10.2425 1.75741C10.8014 2.31324 11.2446 2.97442 11.5463 3.70265C11.8479 4.43089 12.0021 5.21172 12 5.99996C12.0021 6.7882 11.8479 7.56901 11.5462 8.29724C11.2445 9.02547 10.8014 9.68666 10.2425 10.2425C9.68673 10.8014 9.0256 11.2446 8.29736 11.5462C7.56913 11.8479 6.78827 12.0021 6.00002 12ZM8.08256 4.3636C7.62247 4.36403 7.18134 4.54695 6.85596 4.87223C6.53057 5.19751 6.3475 5.63861 6.34692 6.0987C6.3475 6.55885 6.53059 6.99998 6.85596 7.32535C7.18133 7.65071 7.62242 7.83373 8.08256 7.83431C8.54271 7.83373 8.98387 7.65071 9.30924 7.32535C9.63461 6.99998 9.81763 6.55885 9.8182 6.0987C9.81748 5.63866 9.63439 5.19765 9.30904 4.8724C8.98368 4.54715 8.54261 4.36417 8.08256 4.3636ZM3.91695 4.3636C3.45695 4.36417 3.01594 4.54716 2.69067 4.87243C2.36541 5.1977 2.18242 5.63871 2.18184 6.0987C2.18242 6.55875 2.36542 6.99979 2.69067 7.32515C3.01593 7.6505 3.4569 7.83359 3.91695 7.83431C4.37709 7.83373 4.81818 7.65071 5.14355 7.32535C5.46892 6.99998 5.65201 6.55885 5.65259 6.0987C5.65187 5.63866 5.46871 5.19765 5.14335 4.8724C4.818 4.54715 4.377 4.36417 3.91695 4.3636Z" fill="black"/>
</g>
<defs>
<clipPath id="clip0_2041_2714">
<rect width="12" height="12" fill="white"/>
</clipPath>
</defs>
</svg>
