<svg width="20" height="20" viewBox="0 0 20 20" fill="none" xmlns="http://www.w3.org/2000/svg">
<path fill-rule="evenodd" clip-rule="evenodd" d="M16.3694 8.47533H3.63061C3.32127 8.47533 3.03907 8.60485 2.83285 8.81578L2.83104 8.81763C2.62663 9.02857 2.5 9.31722 2.5 9.63362V11.2711C2.5 11.5894 2.62663 11.878 2.83104 12.0871L2.83285 12.089C3.03907 12.2981 3.32127 12.4276 3.63061 12.4276H16.3694C16.6805 12.4276 16.9627 12.2981 17.1671 12.089L17.169 12.0871C17.3734 11.878 17.5 11.5875 17.5 11.2711V9.63362C17.5 9.31537 17.3734 9.02672 17.169 8.81763L17.1671 8.81578C16.9609 8.60485 16.6787 8.47533 16.3694 8.47533ZM3.63061 9.47819H16.3694C16.411 9.47819 16.449 9.49484 16.4761 9.5226C16.5033 9.55035 16.5195 9.58921 16.5195 9.63177V11.2693C16.5195 11.3118 16.5033 11.3507 16.4761 11.3785C16.449 11.4062 16.411 11.4229 16.3694 11.4229H3.63061C3.589 11.4229 3.55101 11.4062 3.52388 11.3785C3.49674 11.3507 3.48046 11.3118 3.48046 11.2693V9.63177C3.48046 9.58921 3.49674 9.55035 3.52388 9.5226C3.55101 9.49484 3.589 9.47819 3.63061 9.47819ZM16.3694 3.33331H3.63061C3.32127 3.33331 3.03907 3.46284 2.83285 3.67192L2.83104 3.67377C2.62663 3.88471 2.5 4.17335 2.5 4.48976V6.12728C2.5 6.44553 2.62663 6.73418 2.83104 6.94327L2.83285 6.94512C3.03907 7.1542 3.32127 7.28372 3.63061 7.28372H16.3694C16.6805 7.28372 16.9627 7.1542 17.1671 6.94512L17.169 6.94327C17.3734 6.73418 17.5 6.44368 17.5 6.12728V4.48976C17.5 4.1715 17.3734 3.88286 17.169 3.67377L17.1671 3.67192C16.9609 3.46284 16.6787 3.33331 16.3694 3.33331ZM3.63061 4.33618H16.3694C16.411 4.33618 16.449 4.35283 16.4761 4.38059C16.5033 4.40834 16.5195 4.4472 16.5195 4.48976V6.12728C16.5195 6.16984 16.5033 6.20869 16.4761 6.23645C16.449 6.2642 16.411 6.28086 16.3694 6.28086H3.63061C3.589 6.28086 3.55101 6.2642 3.52388 6.23645C3.49674 6.20869 3.48046 6.16984 3.48046 6.12728V4.48976C3.48046 4.4472 3.49674 4.40834 3.52388 4.38059C3.55101 4.35283 3.589 4.33618 3.63061 4.33618ZM3.14038 14.1188H8.65593C9.00868 14.1188 9.29631 14.4167 9.29631 14.7738V16.0116C9.29631 16.3706 9.00507 16.6666 8.65593 16.6666H3.14038C2.79124 16.6666 2.5 16.3724 2.5 16.0116V14.7738C2.5 14.413 2.78763 14.1188 3.14038 14.1188Z" fill="currentColor"/>
</svg>
