<svg width="20" height="20" viewBox="0 0 20 20" fill="none" xmlns="http://www.w3.org/2000/svg" id="general-icon">
<path fill-rule="evenodd" clip-rule="evenodd" d="M13.9356 12.3659C13.8765 12.1101 13.9593 11.8543 14.1605 11.6799L17.2735 8.99394C17.7233 8.58698 17.4629 7.8312 16.8474 7.77306L12.7166 7.38935C12.4562 7.3661 12.2312 7.20332 12.1248 6.95914L10.6453 3.43603C10.4085 2.85466 9.56803 2.85466 9.33131 3.43603L7.8636 6.95914C7.76891 7.20332 7.53219 7.3661 7.27179 7.38935L3.14091 7.77306C2.52542 7.8312 2.27686 8.58698 2.73848 8.99394L5.85143 11.6799C6.05265 11.8543 6.1355 12.1101 6.07632 12.3659L5.14125 16.1331C4.99922 16.7262 5.65021 17.2144 6.19468 16.9006L9.63905 14.9122C9.86394 14.7843 10.1362 14.7843 10.3611 14.9122L13.8056 16.9006C14.35 17.2144 15.001 16.7378 14.8589 16.1331L13.9356 12.3659ZM13.4169 15.2906L12.7683 12.644L12.7665 12.6364C12.6066 11.9453 12.8391 11.2372 13.3745 10.7731L13.3766 10.7713L15.5901 8.86144L12.6099 8.5846C12.6089 8.58451 12.608 8.58443 12.6071 8.58434C11.9043 8.52055 11.3035 8.07816 11.0247 7.43854L11.0215 7.43118L9.99009 4.97514L8.97563 7.41027C8.69647 8.10965 8.04453 8.52416 7.38121 8.58436L4.41953 8.85946L6.63741 10.7731C7.17287 11.2372 7.40531 11.9453 7.24544 12.6364L7.24328 12.6457L6.58735 15.2883L9.0458 13.8691C9.63852 13.532 10.3616 13.532 10.9543 13.8691L10.961 13.8729L13.4169 15.2906Z" fill="currentColor"/>
</svg>
