<svg width="16" height="15" viewBox="0 0 16 15" fill="none" xmlns="http://www.w3.org/2000/svg" id="googleLogo">
<g clip-path="url(#clip0_2558_18572)">
<path d="M15.3414 7.66875C15.3414 7.175 15.2977 6.70625 15.2227 6.25H8.16016V9.06875H12.2039C12.0227 9.99375 11.4914 10.775 10.7039 11.3063V13.1813H13.1164C14.5289 11.875 15.3414 9.95 15.3414 7.66875Z" fill="#4285F4"/>
<path d="M8.1586 15C10.1836 15 11.8773 14.325 13.1148 13.1813L10.7023 11.3063C10.0273 11.7563 9.17109 12.0313 8.1586 12.0313C6.20234 12.0313 4.54609 10.7125 3.95234 8.93127H1.46484V10.8625C2.69609 13.3125 5.22734 15 8.1586 15Z" fill="#34A853"/>
<path d="M3.95391 8.9312C3.79766 8.4812 3.71641 7.99995 3.71641 7.49995C3.71641 6.99995 3.80391 6.5187 3.95391 6.0687V4.13745H1.46641C0.953906 5.14995 0.660156 6.28745 0.660156 7.49995C0.660156 8.71245 0.953906 9.84995 1.46641 10.8624L3.95391 8.9312Z" fill="#FBBC05"/>
<path d="M8.15859 2.96875C9.26484 2.96875 10.2523 3.35 11.0336 4.09375L13.1711 1.95625C11.8773 0.743751 10.1836 0 8.15859 0C5.22734 0 2.69609 1.6875 1.46484 4.1375L3.95234 6.06875C4.54609 4.2875 6.20234 2.96875 8.15859 2.96875Z" fill="#EA4335"/>
</g>
<defs>
<clipPath id="clip0_2558_18572">
<rect width="15" height="15" fill="white" transform="translate(0.5)"/>
</clipPath>
</defs>
</svg>
