<svg width="24" height="24" viewBox="0 0 24 24" fill="none" xmlns="http://www.w3.org/2000/svg" id="help">
<path fill-rule="evenodd" clip-rule="evenodd" d="M1.5 12C1.5 6.20292 6.20292 1.5 12 1.5C17.7971 1.5 22.5 6.20292 22.5 12C22.5 17.7971 17.7971 22.5 12 22.5C6.20292 22.5 1.5 17.7971 1.5 12ZM2.88208 12C2.88208 17.0292 6.97076 21.1179 12 21.1179C17.0292 21.1179 21.1179 17.0292 21.1179 12C21.1179 6.97076 17.0292 2.88208 12 2.88208C6.97076 2.88208 2.88208 6.97076 2.88208 12ZM10.8098 8.35282L10.8101 8.35336C10.8484 8.42995 10.8867 8.50651 10.925 8.56396C10.9442 8.59277 10.9682 8.62157 10.9922 8.65038C11.0162 8.67917 11.0402 8.70795 11.0594 8.73673L11.0594 8.73674C11.117 8.79432 11.1746 8.8519 11.2513 8.90949L11.2705 8.9224C11.3256 8.95977 11.396 9.00753 11.4817 9.02466C11.5585 9.06306 11.6353 9.08224 11.7312 9.10144C11.8272 9.12064 11.904 9.12064 11.9808 9.12064C12.0576 9.12064 12.1535 9.12064 12.2303 9.10144L12.2304 9.10141C12.3072 9.08222 12.3839 9.06304 12.4415 9.02466H12.4607C12.5374 8.98627 12.6142 8.94789 12.691 8.89029C12.7486 8.8519 12.8062 8.79432 12.8638 8.73673L12.883 8.71753C12.9405 8.66 12.9789 8.60246 13.0172 8.54492L13.0173 8.54478L13.0174 8.54475C13.0557 8.48717 13.0941 8.42958 13.1133 8.35282C13.1133 8.34466 13.1133 8.33997 13.1148 8.3358C13.1168 8.33016 13.1215 8.32546 13.1325 8.31442C13.1647 8.2501 13.1834 8.17232 13.1999 8.10364L13.1999 8.10363L13.2093 8.06488C13.2285 7.9881 13.2285 7.89213 13.2285 7.81534C13.2285 7.73856 13.2285 7.64257 13.2093 7.5658L13.2093 7.56579C13.1901 7.48901 13.1709 7.41223 13.1325 7.31625C13.0749 7.18188 12.9981 7.06671 12.9022 6.97074L12.8638 6.93234C12.8182 6.88678 12.7727 6.85324 12.7176 6.81269L12.7176 6.81268L12.6718 6.77878C12.6334 6.75958 12.5998 6.74039 12.5663 6.7212L12.5662 6.72119C12.5326 6.70199 12.4991 6.6828 12.4607 6.6636C12.3839 6.62521 12.3071 6.60601 12.2303 6.58683C12.1343 6.56763 12.0576 6.56763 11.9808 6.56763C11.904 6.56763 11.808 6.56763 11.7312 6.58683C11.6544 6.60601 11.5777 6.62521 11.5009 6.6636H11.4817L11.4813 6.66377L11.4813 6.66378C11.4047 6.70212 11.328 6.74044 11.2705 6.77878L11.2247 6.81277C11.1696 6.85328 11.1241 6.88681 11.0786 6.93234C11.021 6.98992 10.9634 7.04752 10.925 7.10511C10.8867 7.16255 10.8484 7.23911 10.8101 7.3157L10.8101 7.3157L10.8098 7.31625C10.7715 7.39303 10.7523 7.46982 10.7331 7.5466C10.7139 7.64257 10.7139 7.71935 10.7139 7.79613V7.79614V7.79615C10.7139 7.87293 10.7139 7.9689 10.7331 8.04568C10.7464 8.15273 10.7691 8.22247 10.7882 8.2809L10.7882 8.28091L10.7882 8.28093C10.7965 8.30632 10.804 8.32957 10.8098 8.35282ZM13.4777 15.3783H13.0362V10.6753C13.0362 10.4066 12.825 10.1763 12.5371 10.1763H10.5215C10.2528 10.1763 10.0225 10.3874 10.0225 10.6753V11.7119C10.0225 11.9806 10.2336 12.211 10.5215 12.211H10.9247V15.3975H10.5215C10.2528 15.3975 10.0225 15.6086 10.0225 15.8966V16.9331C10.0225 17.2018 10.2336 17.4323 10.5215 17.4323H13.4777C13.7464 17.4323 13.9768 17.221 13.9768 16.9331V15.8966C13.9768 15.6086 13.7464 15.3783 13.4777 15.3783Z" fill="currentColor"/>
</svg>
