<svg width="20" height="20" viewBox="0 0 20 20" fill="none" xmlns="http://www.w3.org/2000/svg" id="home-page-icon">
<path d="M15.834 17.5001H4.16732C3.9463 17.5001 3.73434 17.4123 3.57806 17.256C3.42178 17.0997 3.33398 16.8878 3.33398 16.6668V9.16676H0.833984L9.43982 1.34343C9.59324 1.20383 9.79322 1.12646 10.0007 1.12646C10.2081 1.12646 10.4081 1.20383 10.5615 1.34343L19.1673 9.16676H16.6673V16.6668C16.6673 16.8878 16.5795 17.0997 16.4232 17.256C16.267 17.4123 16.055 17.5001 15.834 17.5001ZM10.834 15.8334H15.0006V7.63093L10.0007 3.08593L5.00065 7.63093V15.8334H9.16732V10.8334H10.834V15.8334Z" fill="currentColor"/>
</svg>
