<svg width="12" height="12" viewBox="0 0 12 12"  xmlns="http://www.w3.org/2000/svg" id="info-i">
<path fill="currentColor" fill-rule="evenodd" clip-rule="evenodd" d="M0.75 6C0.75 3.10146 3.10146 0.75 6 0.75C8.89853 0.75 11.25 3.10146 11.25 6C11.25 8.89853 8.89853 11.25 6 11.25C3.10146 11.25 0.75 8.89853 0.75 6ZM1.44104 6C1.44104 8.5146 3.48538 10.559 6 10.559C8.5146 10.559 10.559 8.5146 10.559 6C10.559 3.48538 8.5146 1.44104 6 1.44104C3.48538 1.44104 1.44104 3.48538 1.44104 6ZM5.40492 4.17641L5.40505 4.17668C5.42421 4.21498 5.44336 4.25326 5.46251 4.28198C5.47211 4.29638 5.48411 4.31079 5.49612 4.32519C5.50811 4.33958 5.5201 4.35398 5.5297 4.36837L5.5297 4.36837C5.55849 4.39716 5.58728 4.42595 5.62567 4.45474L5.63525 4.4612C5.66279 4.47989 5.69799 4.50376 5.74084 4.51233C5.77924 4.53153 5.81763 4.54112 5.86561 4.55072C5.91361 4.56032 5.952 4.56032 5.99038 4.56032C6.02878 4.56032 6.07677 4.56032 6.11516 4.55072L6.11522 4.55071C6.15359 4.54111 6.19195 4.53152 6.22073 4.51233H6.23033C6.26872 4.49314 6.30712 4.47394 6.34551 4.44514C6.3743 4.42595 6.40309 4.39716 6.43189 4.36837L6.44149 4.35877C6.47025 4.33 6.48944 4.30123 6.50862 4.27246L6.50867 4.27239L6.50868 4.27237C6.52787 4.24359 6.54707 4.21479 6.55666 4.17641C6.55666 4.17233 6.55666 4.16999 6.55739 4.1679C6.55839 4.16508 6.56074 4.16273 6.56626 4.15721C6.58233 4.12505 6.59168 4.08616 6.59993 4.05182L6.59993 4.05181L6.60465 4.03244C6.61424 3.99405 6.61424 3.94606 6.61424 3.90767C6.61424 3.86928 6.61424 3.82129 6.60465 3.7829L6.60465 3.7829C6.59505 3.7445 6.58545 3.70611 6.56626 3.65812C6.53746 3.59094 6.49907 3.53335 6.45108 3.48537L6.43189 3.46617C6.40911 3.44339 6.38632 3.42662 6.35879 3.40635L6.35878 3.40634L6.33591 3.38939C6.31671 3.37979 6.29992 3.3702 6.28313 3.3606L6.28312 3.36059C6.26632 3.351 6.24953 3.3414 6.23033 3.3318C6.19194 3.31261 6.15355 3.30301 6.11516 3.29341C6.06717 3.28381 6.02878 3.28381 5.99038 3.28381C5.952 3.28381 5.90401 3.28381 5.86561 3.29341C5.82722 3.30301 5.78884 3.31261 5.75044 3.3318H5.74084L5.74067 3.33189L5.74066 3.33189C5.70233 3.35106 5.66401 3.37022 5.63527 3.38939L5.61233 3.40639C5.58482 3.42664 5.56205 3.4434 5.53929 3.46617C5.5105 3.49496 5.4817 3.52376 5.46251 3.55255C5.44336 3.58128 5.42421 3.61955 5.40506 3.65785L5.40505 3.65785L5.40492 3.65812C5.38573 3.69652 5.37613 3.73491 5.36653 3.7733C5.35693 3.82128 5.35693 3.85968 5.35693 3.89807V3.89807V3.89808C5.35693 3.93647 5.35693 3.98445 5.36653 4.02284C5.37322 4.07636 5.38457 4.11123 5.39409 4.14045L5.39409 4.14046L5.39409 4.14047C5.39823 4.15316 5.40201 4.16479 5.40492 4.17641ZM6.73883 7.68914H6.51809V5.33767C6.51809 5.2033 6.41251 5.08813 6.26855 5.08813H5.26077C5.12641 5.08813 5.01123 5.19371 5.01123 5.33767V5.85596C5.01123 5.99032 5.11681 6.1055 5.26077 6.1055H5.46233V7.69874H5.26077C5.12641 7.69874 5.01123 7.80431 5.01123 7.94828V8.46653C5.01123 8.60092 5.11681 8.71613 5.26077 8.71613H6.73883C6.8732 8.71613 6.98838 8.61052 6.98838 8.46653V7.94828C6.98838 7.80431 6.8732 7.68914 6.73883 7.68914Z"/>
</svg>
