<svg width="20" height="20" viewBox="0 0 20 20" fill="none" xmlns="http://www.w3.org/2000/svg">
    <g clip-path="url(#clip0)">
        <path d="M17.4536 15.9976C17.4596 17.0962 16.5737 17.9906 15.4759 17.9966C15.3943 17.9972 15.312 17.9926 15.231 17.9827C14.2122 17.832 13.4658 16.9454 13.4908 15.916V4.0804C13.4665 3.04967 14.2148 2.16309 15.2343 2.01368C16.3249 1.88599 17.3128 2.66661 17.4405 3.75723C17.4497 3.83753 17.4543 3.91783 17.4536 3.99879V15.9976Z" fill="#F9AB00"/>
        <path d="M4.98182 14.0365C6.07639 14.0365 6.96364 14.9238 6.96364 16.0184C6.96364 17.113 6.07639 18.0002 4.98182 18.0002C3.88724 18.0002 3 17.113 3 16.0184C3 14.9238 3.88724 14.0365 4.98182 14.0365ZM10.196 8.03044C9.09618 8.091 8.24316 9.01314 8.26883 10.1143V15.4372C8.26883 16.8819 8.90464 17.7586 9.83599 17.9456C10.9108 18.1634 11.958 17.469 12.1759 16.3942C12.2028 16.2626 12.216 16.1289 12.2154 15.9947V10.0222C12.2173 8.92362 11.3288 8.03176 10.2302 8.02979C10.2191 8.02979 10.2072 8.02979 10.196 8.03044Z" fill="#E37400"/>
    </g>
    <defs>
        <clipPath id="clip0">
            <rect width="14.4532" height="16" fill="white" transform="translate(3 2)"/>
        </clipPath>
    </defs>
</svg>
