<svg width="20" height="20" viewBox="0 0 20 20" fill="none" xmlns="http://www.w3.org/2000/svg" id="integrations-icon">
<path fill-rule="evenodd" clip-rule="evenodd" d="M13.1438 15.7731C12.1719 15.7731 11.3125 15.3316 10.7438 14.6461C11.0407 14.0677 11.2125 13.4156 11.2125 12.7234C11.2125 12.2754 11.1375 11.8415 11.0032 11.4349C12.0657 11.1882 12.9782 10.5622 13.5813 9.70703C15.0875 9.91753 16.25 11.1882 16.25 12.7234C16.25 14.4049 14.8563 15.7731 13.1438 15.7731ZM6.85627 15.7731C5.14377 15.7731 3.75002 14.4049 3.75002 12.7234C3.75002 11.1882 4.91252 9.91753 6.41564 9.70703C7.15314 10.7509 8.35002 11.4536 9.71564 11.5401C9.87502 11.9041 9.96252 12.303 9.96252 12.7234C9.96252 14.4049 8.56877 15.7731 6.85627 15.7731ZM10 4.22754C11.7125 4.22754 13.1032 5.59547 13.1032 7.27701C13.1032 8.95823 11.7125 10.3262 10 10.3262C8.28753 10.3262 6.89378 8.95823 6.89378 7.27701C6.89378 5.59547 8.28753 4.22754 10 4.22754ZM14.1531 8.56318C14.2844 8.15722 14.3531 7.72517 14.3531 7.27687C14.3531 4.91505 12.4031 3 10 3C7.59375 3 5.64375 4.91505 5.64375 7.27687C5.64375 7.72548 5.71563 8.15783 5.84375 8.5641C3.925 9.01118 2.5 10.7041 2.5 12.7228C2.5 15.0853 4.45 17 6.85625 17C8.09062 17 9.20312 16.4925 9.99687 15.6809C10.7906 16.4931 11.9062 17 13.1438 17C15.55 17 17.5 15.0853 17.5 12.7228C17.5 10.7041 16.0719 9.00995 14.1531 8.56318Z" fill="currentColor"/>
</svg>
