<svg width="24" height="24" viewBox="0 0 24 24" fill="none" xmlns="http://www.w3.org/2000/svg" id="logout">
<path fill-rule="evenodd" clip-rule="evenodd" d="M14.3924 19.0001C14.3924 18.5187 14.8003 18.1249 15.3038 18.1249C15.8069 18.1249 16.2152 18.5187 16.2152 19.0001V21.6251C16.2152 22.1106 15.8069 22.5 15.3038 22.5H3.91139C3.40785 22.5 3 22.1106 3 21.6251V2.375C3 1.89375 3.40785 1.5 3.91139 1.5H15.3038C15.8069 1.5 16.2152 1.89375 16.2152 2.375V4.99999C16.2152 5.48562 15.8069 5.87501 15.3038 5.87501C14.8003 5.87501 14.3924 5.48562 14.3924 4.99999V3.25H4.82279V20.7499H14.3924V19.0001ZM20.9493 12.2464C20.949 12.2472 20.9486 12.2481 20.9481 12.2494C20.9134 12.3325 20.8629 12.4025 20.7994 12.4638L17.255 15.8675C17.1215 15.9944 16.9465 16.06 16.772 16.06C16.597 16.06 16.422 15.9944 16.2885 15.8675C16.0215 15.6094 16.0215 15.1981 16.2885 14.94L18.6664 12.6563H10.2911C9.91332 12.6563 9.60754 12.3631 9.60754 12C9.60754 11.6369 9.91332 11.3438 10.2911 11.3438H18.6664L16.2885 9.06001C16.0215 8.80626 16.0215 8.39064 16.2885 8.13252C16.5555 7.87876 16.988 7.87876 17.255 8.13252L20.7994 11.5363C20.8629 11.5975 20.9134 11.6719 20.9481 11.7506C20.9499 11.755 20.9503 11.7594 20.9512 11.7594C20.9817 11.8338 21 11.9169 21 12C21 12.0831 20.9817 12.1663 20.9512 12.2406C20.9506 12.2437 20.9502 12.2446 20.9493 12.2464Z" fill="currentColor"/>
</svg>
