<svg width="12" height="12" viewBox="0 0 12 12" fill="none" xmlns="http://www.w3.org/2000/svg" id="Medium">
<path fill-rule="evenodd" clip-rule="evenodd" d="M6 0.0117188C9.30727 0.0117188 11.9883 2.69273 11.9883 6C11.9883 9.30727 9.30727 11.9883 6 11.9883C2.69273 11.9883 0.0117188 9.30727 0.0117188 6C0.0117188 2.69273 2.69273 0.0117188 6 0.0117188ZM4.24102 3.73992C5.4893 3.73992 6.50109 4.75195 6.50109 6C6.50109 7.24805 5.4893 8.26008 4.24102 8.26008C2.99297 8.26008 1.98117 7.24805 1.98117 6C1.98117 4.75195 2.99297 3.73992 4.24102 3.73992ZM7.85719 3.91852C8.48883 3.91852 9.0007 4.85039 9.0007 6C9.0007 7.14961 8.48883 8.08148 7.85719 8.08148C7.22555 8.08148 6.71367 7.14961 6.71367 6C6.71367 4.85039 7.22555 3.91852 7.85719 3.91852ZM9.62063 4.09688C9.84047 4.09688 10.0188 4.94883 10.0188 6C10.0188 7.05117 9.84047 7.90313 9.62063 7.90313C9.40055 7.90313 9.22219 7.05117 9.22219 6C9.22219 4.94883 9.40055 4.09688 9.62063 4.09688Z" fill="black"/>
</svg>
