<svg width="16" height="16" viewBox="0 0 16 16" fill="none" xmlns="http://www.w3.org/2000/svg">
<path d="M11.3559 10.3077V10.5684L11.5464 10.7463L12.3938 11.5374C12.392 11.5392 12.3899 11.5411 12.3872 11.5428C12.3839 11.545 12.3791 11.5475 12.3722 11.5496C12.3654 11.5516 12.3545 11.5538 12.3382 11.5538H3.65685C3.64057 11.5538 3.62987 11.5516 3.62355 11.5497C3.61713 11.5478 3.61295 11.5456 3.61021 11.5437C3.60828 11.5425 3.60664 11.5411 3.60528 11.5397L4.45521 10.7463L4.64577 10.5684V10.3077V7.23077C4.64577 5.57494 5.56352 4.27645 7.14163 3.92738L7.61205 3.82332V3.34154V2.92308C7.61205 2.78186 7.74555 2.6 8.00081 2.6C8.25607 2.6 8.38957 2.78186 8.38957 2.92308V3.34154V3.82296L8.85956 3.92728C10.4319 4.27629 11.3559 5.58159 11.3559 7.23077V10.3077ZM8.22419 13.3692C8.15532 13.389 8.08058 13.4 8.00081 13.4C7.91999 13.4 7.84453 13.389 7.77521 13.3692H8.22419Z" stroke="currentColor" stroke-width="1.2"/>
</svg>
