<svg width="24" height="24" viewBox="0 0 24 24" xmlns="http://www.w3.org/2000/svg" id="open-link">
<path d="M16.9024 12.2104C16.9024 12.5902 16.9024 12.9687 16.9024 13.3485C16.9024 13.9216 16.9024 14.4948 16.9024 15.0679C16.9024 15.2585 16.9079 15.4491 16.8832 15.6383C16.8901 15.5903 16.8969 15.5409 16.9024 15.4929C16.8764 15.6767 16.8284 15.8536 16.7571 16.025C16.7749 15.9811 16.7941 15.9372 16.8119 15.8933C16.7406 16.0592 16.6501 16.2155 16.5404 16.3581C16.5692 16.3211 16.598 16.2841 16.6268 16.2471C16.5171 16.3883 16.3896 16.5158 16.2483 16.6255C16.2853 16.5967 16.3224 16.5679 16.3594 16.5391C16.2154 16.6488 16.0605 16.7407 15.8945 16.8106C15.9384 16.7928 15.9823 16.7736 16.0262 16.7558C15.8561 16.8271 15.6779 16.8751 15.4941 16.9011C15.5421 16.8943 15.5915 16.8874 15.6395 16.8819C15.3529 16.9189 15.0539 16.9011 14.7659 16.9011C14.2188 16.9011 13.673 16.9011 13.1259 16.9011C12.4553 16.9011 11.7834 16.9011 11.1128 16.9011C10.541 16.9011 9.96778 16.9011 9.39594 16.9011C9.14637 16.9011 8.89679 16.9025 8.64859 16.9011C8.5526 16.9011 8.45798 16.8943 8.36336 16.8819C8.41135 16.8888 8.46072 16.8956 8.50871 16.9011C8.32496 16.8751 8.14806 16.8271 7.97665 16.7558C8.02053 16.7736 8.06441 16.7928 8.1083 16.8106C7.94237 16.7393 7.78604 16.6488 7.64342 16.5391C7.68045 16.5679 7.71747 16.5967 7.7545 16.6255C7.61326 16.5158 7.48573 16.3883 7.37602 16.2471C7.40482 16.2841 7.43362 16.3211 7.46241 16.3581C7.35271 16.2142 7.26083 16.0592 7.1909 15.8933C7.20872 15.9372 7.22792 15.9811 7.24575 16.025C7.17444 15.8549 7.12645 15.6767 7.10039 15.4929C7.10725 15.5409 7.1141 15.5903 7.11959 15.6383C7.08256 15.3517 7.10039 15.0528 7.10039 14.7649C7.10039 14.2178 7.10039 13.6721 7.10039 13.125C7.10039 12.4545 7.10039 11.7826 7.10039 11.1122C7.10039 10.5404 7.10039 9.96726 7.10039 9.39549C7.10039 9.14594 7.09902 8.8964 7.10039 8.64822C7.10039 8.55224 7.10725 8.45763 7.11959 8.36302C7.11273 8.41101 7.10588 8.46037 7.10039 8.50836C7.12645 8.32463 7.17444 8.14775 7.24575 7.97636C7.22792 8.02024 7.20872 8.06411 7.1909 8.10799C7.2622 7.94208 7.35271 7.78577 7.46241 7.64317C7.43362 7.68019 7.40482 7.71721 7.37602 7.75424C7.48573 7.61301 7.61326 7.48549 7.7545 7.3758C7.71747 7.4046 7.68045 7.43339 7.64342 7.46218C7.78741 7.35249 7.94237 7.26063 8.1083 7.1907C8.06441 7.20852 8.02053 7.22772 7.97665 7.24554C8.14669 7.17424 8.32496 7.12625 8.50871 7.1002C8.46072 7.10706 8.41135 7.11391 8.36336 7.1194C8.52928 7.09746 8.69658 7.1002 8.86388 7.1002C9.1066 7.1002 9.34932 7.1002 9.59204 7.1002C10.1844 7.1002 10.7782 7.1002 11.3706 7.1002C11.5105 7.1002 11.6517 7.1002 11.7916 7.1002C12.0782 7.1002 12.3538 6.84791 12.3401 6.55175C12.3264 6.25421 12.0988 6.00329 11.7916 6.00329C11.4447 6.00329 11.0977 6.00329 10.7522 6.00329C10.1913 6.00329 9.63044 6.00329 9.06958 6.00329C8.93382 6.00329 8.79669 6.00329 8.66093 6.00329C8.23583 6.00329 7.82855 6.10475 7.4487 6.29123C6.56421 6.72177 6.00472 7.6706 6.00061 8.64548C5.99924 8.83744 6.00061 9.0294 6.00061 9.22273C6.00061 9.6944 6.00061 10.1661 6.00061 10.6377C6.00061 11.2314 6.00061 11.8238 6.00061 12.4175C6.00061 12.9742 6.00061 13.5308 6.00061 14.0875C6.00061 14.4495 6.00061 14.8129 6.00061 15.1748C6.00061 15.2338 6.00061 15.2928 6.00061 15.3531C6.00198 15.8138 6.12265 16.2731 6.35303 16.6735C6.82065 17.488 7.71199 17.9953 8.64859 17.9994C8.86114 18.0008 9.07369 17.9994 9.28624 17.9994C9.76894 17.9994 10.2516 17.9994 10.7343 17.9994C11.3295 17.9994 11.9246 17.9994 12.5198 17.9994C13.0697 17.9994 13.6195 17.9994 14.1694 17.9994C14.5164 17.9994 14.8633 17.9994 15.2102 17.9994C15.2706 17.9994 15.3323 18.0008 15.3926 17.9994C15.8822 17.9898 16.38 17.8486 16.7886 17.5771C17.1863 17.3138 17.5291 16.9491 17.7307 16.5144C17.9035 16.1415 17.9995 15.7507 17.9995 15.338C17.9995 14.9308 17.9995 14.5249 17.9995 14.1177C17.9995 13.5775 17.9995 13.0386 17.9995 12.4984C17.9995 12.4024 17.9995 12.3078 17.9995 12.2118C17.9995 11.9252 17.7472 11.6496 17.451 11.6634C17.1534 11.6757 16.9024 11.9033 16.9024 12.2104Z" fill="currentColor" />
<path d="M14.4067 7.0974C14.7496 7.0974 15.0938 7.0974 15.4366 7.0974C15.9837 7.0974 16.5295 7.0974 17.0766 7.0974C17.2014 7.0974 17.3262 7.0974 17.451 7.0974C17.7376 7.0974 18.0132 6.84511 17.9995 6.54894C17.9858 6.25141 17.7582 6.00049 17.451 6.00049C17.1082 6.00049 16.764 6.00049 16.4212 6.00049C15.874 6.00049 15.3282 6.00049 14.7811 6.00049C14.6563 6.00049 14.5315 6.00049 14.4067 6.00049C14.1201 6.00049 13.8445 6.25278 13.8582 6.54894C13.8719 6.84648 14.0996 7.0974 14.4067 7.0974Z" fill="currentColor" />
<path d="M17.9995 9.59297C17.9995 9.25019 17.9995 8.90603 17.9995 8.56324C17.9995 8.01616 17.9995 7.47044 17.9995 6.92336C17.9995 6.79858 17.9995 6.67372 17.9995 6.54894C17.9995 6.26237 17.7472 5.98678 17.451 6.00049C17.1534 6.0142 16.9024 6.2419 16.9024 6.54903C16.9024 6.89182 16.9024 7.23598 16.9024 7.57876C16.9024 8.12585 16.9024 8.67156 16.9024 9.21865C16.9024 9.34342 16.9024 9.4682 16.9024 9.59297C16.9024 9.87954 17.1548 10.1551 17.451 10.1414C17.7485 10.1277 17.9995 9.90011 17.9995 9.59297Z" fill="currentColor" />
<path d="M12.3991 12.3762C12.5801 12.1952 12.7625 12.0129 12.9435 11.8319C13.3755 11.4 13.8088 10.9667 14.2408 10.5348C14.7632 10.0124 15.2857 9.48999 15.8095 8.96622C16.2634 8.51238 16.7159 8.05991 17.1698 7.60607C17.3892 7.38669 17.6128 7.16868 17.8294 6.94656C17.8322 6.94381 17.8349 6.94107 17.839 6.93696C18.042 6.73403 18.0571 6.36109 17.839 6.1609C17.6196 5.95935 17.2795 5.94427 17.0629 6.1609C16.8819 6.34189 16.6995 6.52425 16.5185 6.70524C16.0865 7.13714 15.6532 7.57042 15.2212 8.00232C14.6988 8.52472 14.1763 9.04712 13.6525 9.57089C13.1986 10.0247 12.7461 10.4772 12.2922 10.931C12.0728 11.1504 11.8492 11.3684 11.6326 11.5906C11.6298 11.5933 11.6271 11.596 11.623 11.6001C11.42 11.8031 11.4049 12.176 11.623 12.3762C11.8424 12.5764 12.1825 12.5928 12.3991 12.3762Z" fill="currentColor" />
</svg>
