<svg width="16" height="16" viewBox="0 0 16 16" xmlns="http://www.w3.org/2000/svg" id="page">
<path d="M4.1875 3.10938C4.46364 3.10938 4.6875 3.33323 4.6875 3.60938C4.6875 3.88552 4.46364 4.10938 4.1875 4.10938H3.6875C3.41136 4.10938 3.1875 3.88552 3.1875 3.60938C3.1875 3.33323 3.41136 3.10938 3.6875 3.10938H4.1875Z" fill="currentColor" />
<path d="M7.1875 3.60938C7.1875 3.33323 6.96364 3.10938 6.6875 3.10938H6.1875C5.91136 3.10938 5.6875 3.33323 5.6875 3.60938C5.6875 3.88552 5.91136 4.10938 6.1875 4.10938H6.6875C6.96364 4.10938 7.1875 3.88552 7.1875 3.60938Z" fill="currentColor" />
<path d="M9.1875 3.10938C9.46364 3.10938 9.6875 3.33323 9.6875 3.60938C9.6875 3.88552 9.46364 4.10938 9.1875 4.10938H8.6875C8.41136 4.10938 8.1875 3.88552 8.1875 3.60938C8.1875 3.33323 8.41136 3.10938 8.6875 3.10938H9.1875Z" fill="currentColor"/>
<path fill-rule="evenodd" clip-rule="evenodd" d="M1 12C1 13.6569 2.34315 15 4 15H12C13.6569 15 15 13.6569 15 12V4C15 2.34315 13.6569 1 12 1H4C2.34315 1 1 2.34315 1 4V12ZM12 2.2H4C3.00589 2.2 2.2 3.00589 2.2 4V5H13.8V4C13.8 3.00589 12.9941 2.2 12 2.2ZM13.8 12V6H2.2V12C2.2 12.9941 3.00589 13.8 4 13.8H12C12.9941 13.8 13.8 12.9941 13.8 12Z" fill="currentColor" />
</svg>
