<svg width="16" height="16" viewBox="0 0 16 16" fill="none" xmlns="http://www.w3.org/2000/svg" id="plan">
<path fill-rule="evenodd" clip-rule="evenodd" d="M1.33334 6.68L9.04466 14.3899L14.3903 9.04666L6.67934 1.33334H1.33334V6.68ZM9.04466 16C8.874 16 8.70334 15.9367 8.57334 15.8066L0.195334 7.42666C0.0703334 7.30334 0 7.13334 0 6.95666V0.666666C0 0.3 0.298666 0 0.666666 0H6.95534C7.132 0 7.30167 0.07 7.42666 0.196666L15.8047 8.57334C16.065 8.83334 16.065 9.25666 15.8047 9.51666L9.516 15.8066C9.386 15.9367 9.21534 16 9.04466 16Z" fill="currentColor"/>
<path fill-rule="evenodd" clip-rule="evenodd" d="M4.27584 2.66699C3.38718 2.66699 2.6665 3.38699 2.6665 4.27699C2.6665 5.16699 3.38718 5.88699 4.27584 5.88699C5.16484 5.88699 5.88518 5.16699 5.88518 4.27699C5.88518 3.38699 5.16484 2.66699 4.27584 2.66699ZM4.27621 3.6668C4.61221 3.6668 4.88554 3.94014 4.88554 4.2768C4.88554 4.61347 4.61221 4.8868 4.27621 4.8868C3.94021 4.8868 3.66688 4.61347 3.66688 4.2768C3.66688 3.94014 3.94021 3.6668 4.27621 3.6668Z" fill="currentColor"/>
</svg>
