<svg width="16" height="16" viewBox="0 0 16 16" fill="none" xmlns="http://www.w3.org/2000/svg" id="projects">
<path fill-rule="evenodd" clip-rule="evenodd" d="M2.16667 2.16673V6.29501H6.29495V2.16673H2.16667ZM7.39934 1.62671C7.26095 1.26049 6.9071 1.00006 6.49242 1.00006H1.96919C1.43392 1.00006 1 1.43398 1 1.96925V6.49248C1 6.90679 1.25996 7.26038 1.62567 7.39903C1.73244 7.43951 1.84823 7.46167 1.96919 7.46167H6.49242C6.61338 7.46167 6.72917 7.43951 6.83595 7.39903C7.09522 7.30073 7.30134 7.0944 7.39936 6.83499C7.4396 6.7285 7.46161 6.61306 7.46161 6.49248V1.96925C7.46161 1.96927 7.46161 1.96923 7.46161 1.96925C7.46161 1.84868 7.43958 1.7332 7.39934 1.62671ZM6.83595 8.60086C6.72917 8.56038 6.61338 8.53822 6.49242 8.53822H1.96919C1.84823 8.53822 1.73244 8.56038 1.62567 8.60086C1.25996 8.73952 1 9.0931 1 9.50741V14.0306C1 14.5659 1.43392 14.9998 1.96919 14.9998H6.49242C6.90709 14.9998 7.26093 14.7394 7.39933 14.3732C7.43956 14.2667 7.46159 14.1513 7.46161 14.0308C7.46161 14.0307 7.46161 14.0309 7.46161 14.0308V9.50758C7.46161 9.38701 7.4396 9.27142 7.39937 9.16494C7.30136 8.90551 7.09523 8.69917 6.83595 8.60086ZM8.60094 14.3733C8.73932 14.7395 9.09319 15 9.50789 15H14.0311C14.5664 15 15.0003 14.5661 15.0003 14.0308V9.50758C15.0003 9.09311 14.7401 8.73941 14.3742 8.60087C14.2676 8.56049 14.1519 8.53839 14.0311 8.53839H9.50789C9.38709 8.53839 9.27145 8.56049 9.16479 8.60087C8.90534 8.6991 8.69906 8.90548 8.60098 9.165C8.56075 9.27147 8.53872 9.38687 8.5387 9.50741C8.5387 9.50735 8.5387 9.50747 8.5387 9.50741V14.0306C8.5387 14.1512 8.56072 14.2668 8.60094 14.3733ZM9.16479 7.39913C9.27145 7.43951 9.38709 7.46161 9.50789 7.46161H14.0311C14.1519 7.46161 14.2676 7.43951 14.3742 7.39913C14.7401 7.26059 15.0003 6.90689 15.0003 6.49242V1.96919C15.0003 1.43392 14.5664 1 14.0311 1H9.50789C9.0932 1 8.73934 1.26044 8.60096 1.62669C8.56072 1.73318 8.5387 1.84861 8.5387 1.96919V6.49242C8.5387 6.4924 8.5387 6.49244 8.5387 6.49242C8.53871 6.61299 8.56073 6.72848 8.60097 6.83496C8.69905 7.0945 8.90533 7.3009 9.16479 7.39913ZM9.70537 2.16667V6.29495H13.8336V2.16667H9.70537ZM2.16667 9.70488V13.8332H6.29495V9.70488H2.16667ZM9.70537 9.70505V13.8333H13.8336V9.70505H9.70537Z" fill="currentColor"/>
</svg>
