<svg width="12" height="12" viewBox="0 0 12 12" fill="none" xmlns="http://www.w3.org/2000/svg" id="question-hover">
<path d="M12 6C12 9.31371 9.31371 12 6 12C2.68629 12 0 9.31371 0 6C0 2.68629 2.68629 0 6 0C9.31371 0 12 2.68629 12 6Z" fill="black"/>
<path d="M5.2951 7.56072V7.49325C5.29984 7.05291 5.34364 6.70253 5.4265 6.44211C5.51172 6.1817 5.63246 5.971 5.78871 5.81001C5.94496 5.64903 6.13317 5.50225 6.35334 5.36967C6.49539 5.27971 6.62323 5.17909 6.73687 5.06782C6.8505 4.95656 6.94046 4.82871 7.00675 4.6843C7.07304 4.53989 7.10618 4.38009 7.10618 4.2049C7.10618 3.9942 7.05647 3.81191 6.95704 3.65802C6.8576 3.50414 6.72503 3.38577 6.55931 3.30291C6.39596 3.21768 6.21367 3.17507 6.01243 3.17507C5.83014 3.17507 5.65614 3.21295 5.49042 3.2887C5.3247 3.36446 5.18739 3.48283 5.07849 3.64382C4.96958 3.80244 4.90685 4.00722 4.89028 4.25816H3.81073C3.8273 3.83203 3.93502 3.47218 4.13388 3.17862C4.33275 2.88269 4.59553 2.65897 4.92224 2.50745C5.25131 2.35594 5.61471 2.28018 6.01243 2.28018C6.44804 2.28018 6.8292 2.36186 7.1559 2.52521C7.4826 2.6862 7.73592 2.91228 7.91584 3.20348C8.09814 3.4923 8.18928 3.82966 8.18928 4.21555C8.18928 4.4807 8.14785 4.71981 8.06499 4.93288C7.98213 5.14358 7.86376 5.33179 7.70988 5.49751C7.55836 5.66323 7.37607 5.81001 7.163 5.93785C6.96177 6.06333 6.79842 6.19353 6.67295 6.32848C6.54984 6.46342 6.45988 6.62322 6.40306 6.80788C6.34624 6.99254 6.31546 7.221 6.31073 7.49325V7.56072H5.2951ZM5.83133 9.71981C5.6372 9.71981 5.47029 9.65116 5.33062 9.51385C5.19094 9.37417 5.1211 9.20608 5.1211 9.00959C5.1211 8.81546 5.19094 8.64974 5.33062 8.51243C5.47029 8.37275 5.6372 8.30291 5.83133 8.30291C6.02309 8.30291 6.18881 8.37275 6.32849 8.51243C6.47053 8.64974 6.54155 8.81546 6.54155 9.00959C6.54155 9.13979 6.50841 9.25935 6.44212 9.36825C6.3782 9.47478 6.29297 9.56001 6.18644 9.62393C6.07991 9.68785 5.96153 9.71981 5.83133 9.71981Z" fill="currentColor"/>
</svg>
