<svg width="14" height="14" viewBox="0 0 14 14" fill="none" xmlns="http://www.w3.org/2000/svg" id="question">
<path d="M6.99996 12.8332C3.77821 12.8332 1.16663 10.2216 1.16663 6.99984C1.16663 3.77809 3.77821 1.1665 6.99996 1.1665C10.2217 1.1665 12.8333 3.77809 12.8333 6.99984C12.8333 10.2216 10.2217 12.8332 6.99996 12.8332ZM6.99996 11.6665C8.23764 11.6665 9.42462 11.1748 10.2998 10.2997C11.175 9.4245 11.6666 8.23751 11.6666 6.99984C11.6666 5.76216 11.175 4.57518 10.2998 3.70001C9.42462 2.82484 8.23764 2.33317 6.99996 2.33317C5.76228 2.33317 4.5753 2.82484 3.70013 3.70001C2.82496 4.57518 2.33329 5.76216 2.33329 6.99984C2.33329 8.23751 2.82496 9.4245 3.70013 10.2997C4.5753 11.1748 5.76228 11.6665 6.99996 11.6665ZM6.41663 8.74984H7.58329V9.9165H6.41663V8.74984ZM7.58329 7.79025V8.1665H6.41663V7.2915C6.41663 7.13679 6.47808 6.98842 6.58748 6.87902C6.69688 6.76963 6.84525 6.70817 6.99996 6.70817C7.16567 6.70816 7.32797 6.66109 7.46798 6.57245C7.60799 6.4838 7.71995 6.35722 7.79083 6.20743C7.8617 6.05764 7.88859 5.8908 7.86836 5.72633C7.84812 5.56186 7.7816 5.40651 7.67653 5.27837C7.57146 5.15023 7.43216 5.05455 7.27484 5.00249C7.11752 4.95042 6.94865 4.94409 6.78787 4.98425C6.6271 5.0244 6.48103 5.10939 6.36667 5.22931C6.25231 5.34924 6.17436 5.49917 6.14188 5.66167L4.99738 5.43242C5.06833 5.0778 5.23217 4.74839 5.47216 4.47785C5.71215 4.2073 6.01968 4.00534 6.3633 3.89261C6.70693 3.77987 7.07433 3.7604 7.42794 3.8362C7.78155 3.91199 8.1087 4.08032 8.37594 4.32398C8.64317 4.56765 8.84091 4.87791 8.94894 5.22304C9.05697 5.56817 9.07141 5.9358 8.9908 6.28835C8.91018 6.6409 8.73739 6.96571 8.4901 7.22959C8.2428 7.49347 7.92987 7.68695 7.58329 7.79025Z" fill="currentColor"/>
</svg>
