<svg width="20" height="21" viewBox="0 0 20 21" fill="none" xmlns="http://www.w3.org/2000/svg">
    <g clip-path="url(#clip0_0_466)">
        <path fill-rule="evenodd" clip-rule="evenodd"
              d="M10.0013 20.25C11.1013 20.25 12.0013 19.35 12.0013 18.25H8.00127C8.00127 19.35 8.89127 20.25 10.0013 20.25ZM16.0013 14.25V9.25C16.0013 6.18 14.3613 3.61 11.5013 2.93V2.25C11.5013 1.42 10.8313 0.75 10.0013 0.75C9.17127 0.75 8.50127 1.42 8.50127 2.25V2.93C5.63127 3.61 4.00127 6.17 4.00127 9.25V14.25L2.71127 15.54C2.08127 16.17 2.52127 17.25 3.41127 17.25H16.5813C17.4713 17.25 17.9213 16.17 17.2913 15.54L16.0013 14.25Z"
              fill="currentColor"/>
    </g>
    <defs>
        <clipPath id="clip0_0_466">
            <rect width="20" height="20" fill="white" transform="translate(0 0.5)"/>
        </clipPath>
    </defs>
</svg>
