<svg width="16" height="17" viewBox="0 0 16 17" fill="none" xmlns="http://www.w3.org/2000/svg" id="search">
<path d="M13.6468 14.8539C13.8422 15.049 14.1588 15.0487 14.3539 14.8532C14.549 14.6578 14.5487 14.3412 14.3532 14.1461L13.6468 14.8539ZM11.0581 11.5635L10.7048 11.2097L11.0581 11.5635ZM7.30769 12.6154C4.65248 12.6154 2.5 10.4629 2.5 7.80769H1.5C1.5 11.0152 4.10019 13.6154 7.30769 13.6154V12.6154ZM2.5 7.80769C2.5 5.15248 4.65248 3 7.30769 3V2C4.10019 2 1.5 4.60019 1.5 7.80769H2.5ZM7.30769 3C9.96291 3 12.1154 5.15248 12.1154 7.80769H13.1154C13.1154 4.60019 10.5152 2 7.30769 2V3ZM12.1154 7.80769C12.1154 9.13668 11.5768 10.3389 10.7048 11.2097L11.4114 11.9173C12.4636 10.8666 13.1154 9.41281 13.1154 7.80769H12.1154ZM10.7048 11.2097C9.83442 12.0788 8.63419 12.6154 7.30769 12.6154V13.6154C8.9098 13.6154 10.3612 12.966 11.4114 11.9173L10.7048 11.2097ZM10.7049 11.9174L13.6468 14.8539L14.3532 14.1461L11.4113 11.2096L10.7049 11.9174Z" fill="currentColor"/>
</svg>
