<svg width="20" height="20" viewBox="0 0 20 20" fill="none" xmlns="http://www.w3.org/2000/svg" id="seo-icon">
<path fill-rule="evenodd" clip-rule="evenodd" d="M14.7777 15.833H6.83329C6.49626 15.833 6.22218 15.5717 6.22218 15.2497V6.20801H7.74996V9.17951C7.74996 9.4073 7.88899 9.61438 8.10562 9.70947C8.32287 9.80484 8.5774 9.77072 8.7589 9.62255L9.43051 9.07276L10.1021 9.62255C10.2152 9.71472 10.357 9.76284 10.5 9.76284C10.5867 9.76284 10.6735 9.74534 10.7554 9.70947C10.972 9.61438 11.1111 9.4073 11.1111 9.17951V6.20801H14.7777V15.833ZM6.22218 4.75033C6.22218 4.42862 6.49626 4.16699 6.83329 4.16699H13.5555V5.04199H6.22218V4.75033ZM15.3889 5.04167H14.7778V3.58333C14.7778 3.26133 14.504 3 14.1667 3H6.83333C5.82225 3 5 3.78517 5 4.75V15.25C5 16.2151 5.82225 17 6.83333 17H15.3889C15.7262 17 16 16.739 16 16.4167V5.625C16 5.303 15.7262 5.04167 15.3889 5.04167Z" fill="currentColor"/>
</svg>
