<svg width="16" height="16" viewBox="0 0 16 16" fill="none" xmlns="http://www.w3.org/2000/svg" id="settings">
<path fill-rule="evenodd" clip-rule="evenodd" d="M8.92357 13.765C8.3199 13.856 7.68286 13.856 7.0792 13.765V12.7697C7.0792 12.5136 6.90325 12.2876 6.64844 12.212C6.0023 12.0207 5.38953 11.6783 4.88294 11.2226C4.68576 11.0482 4.39758 11.0164 4.16703 11.1439L3.26304 11.6424C3.078 11.4186 2.90812 11.183 2.75948 10.9385C2.75797 10.9352 2.75569 10.9317 2.75341 10.9283C2.75239 10.9268 2.75136 10.9252 2.7504 10.9237C2.74924 10.9218 2.74818 10.9199 2.74735 10.9181L2.65938 10.7699C2.53804 10.5503 2.43186 10.3283 2.34086 10.1063L3.24484 9.60785C3.47539 9.48038 3.59066 9.22311 3.53303 8.97372C3.45719 8.64441 3.41775 8.31655 3.41775 7.99948C3.41775 7.67542 3.45719 7.33939 3.53909 7.00074C3.59976 6.75164 3.48449 6.49379 3.25394 6.36486L2.35603 5.86024C2.4804 5.55368 2.63207 5.25762 2.81409 4.97555C2.95666 4.75037 3.1144 4.53365 3.28731 4.3283L4.18523 4.83263C4.41578 4.96155 4.70699 4.93122 4.90417 4.75795C5.4138 4.30526 6.0023 3.97856 6.64844 3.78693C6.90325 3.71138 7.0792 3.48532 7.0792 3.22922V2.23427C7.68286 2.14326 8.3199 2.14326 8.92357 2.23427V3.22922C8.92357 3.48532 9.09648 3.71138 9.35129 3.78693C9.99743 3.97856 10.6102 4.32101 11.1198 4.77662C11.314 4.95105 11.6052 4.98285 11.8357 4.85538L12.7367 4.35688C12.9248 4.58061 13.0916 4.81629 13.2402 5.06073C13.2443 5.06785 13.2512 5.07887 13.2572 5.08832C13.26 5.09279 13.2625 5.09691 13.2645 5.1001C13.2661 5.10221 13.2701 5.10938 13.274 5.11637C13.2777 5.12293 13.2812 5.12934 13.2827 5.13132C13.4283 5.37633 13.5557 5.63127 13.6589 5.89291L12.7579 6.39141C12.5274 6.51888 12.4091 6.77614 12.4667 7.02554C12.5456 7.35485 12.585 7.68271 12.585 7.99948C12.585 8.32384 12.5425 8.65986 12.4606 8.99851C12.4 9.24762 12.5183 9.50547 12.7458 9.63439L13.6467 10.139C13.5497 10.3765 13.4344 10.6075 13.307 10.8286C13.2645 10.8954 13.2251 10.9619 13.1887 11.0237C13.0461 11.2492 12.8884 11.4656 12.7124 11.671L11.8145 11.1666C11.584 11.0377 11.2927 11.068 11.0986 11.2413C10.5859 11.694 9.99743 12.0207 9.35129 12.212C9.09648 12.2876 8.92357 12.5136 8.92357 12.7697V13.765ZM6.32685 14.8098C6.86985 14.9361 7.43105 15 8.00135 15C8.56861 15 9.13284 14.9361 9.67281 14.8098C9.94582 14.7462 10.1369 14.5123 10.1369 14.2431V13.1825C10.6526 12.9859 11.1319 12.7181 11.5748 12.383L12.5334 12.9206C12.7761 13.0568 13.0855 13.0148 13.2796 12.8188C13.6376 12.4556 13.9561 12.0548 14.2261 11.6258C14.2716 11.556 14.3141 11.4837 14.3596 11.4055C14.6144 10.9727 14.8176 10.515 14.9632 10.0445C15.0451 9.78637 14.9299 9.50868 14.6872 9.37276L13.7286 8.83488C13.7741 8.5534 13.7984 8.27397 13.7984 7.99949C13.7984 7.73551 13.7771 7.46687 13.7347 7.19676L14.6963 6.66589C14.939 6.53142 15.0542 6.25461 14.9754 5.99589C14.8237 5.49477 14.6083 5.0091 14.3323 4.54532C14.3171 4.51732 14.2989 4.48903 14.2807 4.46161C14.0107 4.01591 13.6831 3.59588 13.31 3.2126C13.1158 3.01542 12.8095 2.97108 12.5637 3.10613L11.6021 3.63788C11.1562 3.29602 10.6587 3.01833 10.1369 2.81736V1.7562C10.1369 1.48697 9.94582 1.25304 9.67281 1.18945C8.59288 0.93685 7.40981 0.93685 6.32685 1.18945C6.05687 1.25304 5.86576 1.48697 5.86576 1.7562V2.81678C5.35006 3.01338 4.86773 3.28115 4.42787 3.61629L3.46625 3.07842C3.22357 2.94191 2.91719 2.9845 2.72304 3.18022C2.36206 3.54396 2.04354 3.94444 1.77659 4.36856C1.4611 4.86297 1.21236 5.39647 1.03641 5.95388C0.957541 6.21232 1.06978 6.49059 1.31246 6.62651L2.27105 7.16439C2.22555 7.44587 2.20431 7.7253 2.20431 7.99949C2.20431 8.26376 2.22555 8.5324 2.26498 8.80251L1.30639 9.33338C1.06371 9.46756 0.945407 9.74378 1.02428 10.0025C1.15775 10.4441 1.34886 10.8875 1.59154 11.3259L1.67952 11.4691C1.69165 11.4965 1.70682 11.5193 1.72198 11.5403C1.99197 11.9851 2.31959 12.4043 2.69271 12.7867C2.88382 12.9839 3.19324 13.0279 3.43592 12.8931L4.39754 12.3614C4.8465 12.703 5.34096 12.9809 5.86576 13.1819V14.2431C5.86576 14.5123 6.05687 14.7462 6.32685 14.8098ZM6.49674 7.99941C6.49674 7.20223 7.17017 6.55322 8.00136 6.55322C8.8295 6.55322 9.50598 7.20223 9.50598 7.99941C9.50598 8.79689 8.8295 9.44589 8.00136 9.44589C7.17017 9.44589 6.49674 8.79689 6.49674 7.99941ZM5.58667 7.99948C5.58667 9.27969 6.66964 10.321 8.00135 10.321C9.33306 10.321 10.416 9.27969 10.416 7.99948C10.416 6.71955 9.33306 5.67822 8.00135 5.67822C6.66964 5.67822 5.58667 6.71955 5.58667 7.99948Z" fill="currentColor"/>
</svg>
