<svg width="10" height="10" viewBox="0 0 10 10" fill="none" xmlns="http://www.w3.org/2000/svg" id="setting-icon">
<path fill-rule="evenodd" clip-rule="evenodd" d="M9.00368 7.68122C8.95053 7.48789 8.81515 7.16674 8.54971 6.59379L8.64148 6.37013C9.23642 6.13443 9.55911 5.99383 9.73245 5.8907C9.82237 5.83719 9.90178 5.77726 9.9502 5.6948C10.0006 5.60895 10.0002 5.52538 9.99996 5.48762L9.99994 5.48146V4.47573L9.99997 4.4693C10.0002 4.43126 10.0007 4.34644 9.95013 4.26034C9.90062 4.17607 9.81926 4.11664 9.7283 4.06491C9.55381 3.96567 9.23007 3.83429 8.63558 3.61692L8.54272 3.39207C8.79597 2.80526 8.92457 2.47803 8.97432 2.28252C9.00016 2.18093 9.01388 2.0828 8.99044 1.99049C8.96612 1.89473 8.90808 1.83558 8.8814 1.80838L8.87708 1.80393L8.15573 1.08491L8.01917 0.967229H7.85756C7.79984 0.967229 7.72945 0.976557 7.54668 1.04267C7.3741 1.1051 7.08676 1.22372 6.59499 1.44996L6.36526 1.35551C6.12947 0.761988 5.98923 0.440332 5.88699 0.267635C5.8341 0.178297 5.7749 0.0990455 5.69343 0.0504816C5.60771 -0.000614215 5.52427 -0.000166836 5.48696 3.32341e-05L5.48098 5.54429e-05H4.47456L4.46849 3.1094e-05C4.43143 -0.000182973 4.34731 -0.000668824 4.26149 0.0506355C4.17892 0.100002 4.12011 0.180618 4.06854 0.271031C3.96931 0.445024 3.837 0.767795 3.6189 1.36148L3.39074 1.45601C3.06139 1.31501 2.79472 1.20639 2.5929 1.13128C2.48388 1.0907 2.39113 1.05891 2.31625 1.03697C2.24887 1.01722 2.17372 0.998339 2.11086 0.998339L1.92462 1.0043L1.09951 1.82981L1.09616 1.83299C1.06829 1.85944 1.00598 1.91857 0.97896 2.01528C0.952234 2.11095 0.967138 2.21179 0.994475 2.3133C1.04685 2.50779 1.18278 2.83078 1.44949 3.40609L1.35712 3.62958C0.763124 3.86499 0.440789 4.00449 0.267798 4.10684C0.178053 4.15993 0.0981768 4.21977 0.0495688 4.3029C-0.000657059 4.38879 -0.000181338 4.47282 3.45681e-05 4.51096L5.96144e-05 4.51734V5.52427L3.34109e-05 5.53068C-0.000190056 5.56869 -0.00068789 5.65337 0.0497834 5.73941C0.099156 5.82358 0.180321 5.88309 0.271165 5.93497C0.445458 6.0345 0.768845 6.16645 1.36277 6.38482L1.45507 6.60769C1.20187 7.19419 1.0734 7.52131 1.02377 7.7167C0.998 7.81816 0.984294 7.91637 1.00795 8.00871C1.03254 8.10465 1.09104 8.16364 1.11776 8.19057L1.1221 8.19496L1.12361 8.19648L1.83672 8.90912L1.97818 9.0331H2.14131C2.19914 9.0331 2.26919 9.02363 2.45146 8.95751C2.62369 8.89504 2.91089 8.77632 3.40319 8.54987L3.6325 8.64499C3.86836 9.23854 4.00862 9.56016 4.11097 9.73278C4.16393 9.82211 4.22326 9.90136 4.30498 9.94983C4.39062 10.0006 4.47404 10.0002 4.51131 9.99997L4.51739 9.99994H5.52381L5.53004 9.99997C5.56745 10.0002 5.65201 10.0007 5.73792 9.94938C5.82094 9.89979 5.8796 9.81873 5.93079 9.72847C6.02934 9.55471 6.16095 9.23209 6.37942 8.63887L6.6098 8.54389C6.93867 8.68505 7.20487 8.79378 7.40628 8.86898C7.51508 8.9096 7.60762 8.94144 7.68232 8.96341C7.74947 8.98316 7.82458 9.00211 7.88746 9.00211L8.07381 8.99683L8.90672 8.1647L8.90886 8.1625L8.91334 8.15793C8.94001 8.13082 8.99886 8.07099 9.0231 7.97493C9.04681 7.88095 9.03141 7.78208 9.00368 7.68122ZM4.3412 8.16759C4.48379 8.52981 4.65131 8.93173 4.75579 9.1587H5.27824C5.37659 8.92996 5.53122 8.53177 5.66153 8.17404L5.72587 7.99957L6.61797 7.63195L6.77813 7.7012C7.1365 7.85715 7.54198 8.02398 7.77628 8.11056L8.14187 7.74566C8.04925 7.51417 7.87784 7.12635 7.71776 6.78453L7.63917 6.61552L8.00802 5.71699L8.17381 5.65166C8.53618 5.50932 8.93884 5.34209 9.16667 5.23752V4.7271C8.93764 4.62913 8.53969 4.47597 8.18161 4.3464L8.00837 4.28325L7.63711 3.38385L7.70902 3.21924C7.86328 2.86403 8.02866 2.46312 8.11603 2.22768L7.74969 1.86223C7.52405 1.95363 7.12867 2.12809 6.77964 2.29062L6.61577 2.36735L5.72267 1.99996L5.6572 1.83356C5.51511 1.47166 5.34715 1.06901 5.24256 0.841917H4.72037C4.62211 1.06994 4.46806 1.46795 4.33791 1.82597L4.27454 1.99967L3.38378 2.369L3.22361 2.29906C2.86425 2.14331 2.45817 1.97686 2.22327 1.89041L1.85807 2.25578C1.95007 2.48644 2.12163 2.87366 2.28149 3.21617L2.3609 3.38512L1.99003 4.28366L1.825 4.34871C1.46349 4.49078 1.0615 4.65787 0.83361 4.76231V5.27378C1.06247 5.37206 1.46017 5.52572 1.81818 5.6559L1.81955 5.6564L1.99061 5.71992L2.36187 6.6162L2.28983 6.78072C2.13567 7.13544 1.97042 7.5358 1.88293 7.77102L2.25016 8.13772C2.47581 8.04585 2.87087 7.87133 3.21995 7.7088L3.38453 7.63185L4.27588 8.00157L4.3412 8.16759Z" fill="currentColor"/>
<path fill-rule="evenodd" clip-rule="evenodd" d="M3.11283 4.99988C3.11283 6.04129 3.95945 6.88842 4.99995 6.88842C6.04029 6.88842 6.88474 6.04094 6.88474 4.99988C6.88474 3.95955 6.04016 3.11253 4.99995 3.11253C3.95943 3.11253 3.11283 3.95906 3.11283 4.99988ZM4.99995 3.95415C4.41772 3.95415 3.94638 4.42472 3.94638 4.99993C3.94638 5.5758 4.41776 6.0467 4.99995 6.0467C5.5806 6.0467 6.05186 5.57605 6.05189 4.99999C6.05171 4.42447 5.58072 3.95415 4.99995 3.95415Z" fill="currentColor"/>
</svg>
