<svg width="16" height="16" viewBox="0 0 16 16" fill="none" xmlns="http://www.w3.org/2000/svg" id="settings">
<path fill-rule="evenodd" clip-rule="evenodd" d="M6.41465 3.5H13.5V4.5H6.41465C6.20873 5.0826 5.65311 5.5 5 5.5C4.34689 5.5 3.79127 5.0826 3.58535 4.5H2.5V3.5H3.58535C3.79127 2.9174 4.34689 2.5 5 2.5C5.65311 2.5 6.20873 2.9174 6.41465 3.5ZM9.41465 11.5H13.5V12.5H9.41465C9.20873 13.0826 8.65311 13.5 8 13.5C7.34689 13.5 6.79127 13.0826 6.58535 12.5H2.5V11.5H6.58535C6.79127 10.9174 7.34689 10.5 8 10.5C8.65311 10.5 9.20873 10.9174 9.41465 11.5ZM13.5 7.5H12.4146C12.2087 6.9174 11.6531 6.5 11 6.5C10.3469 6.5 9.79127 6.9174 9.58535 7.5H2.5V8.5H9.58535C9.79127 9.0826 10.3469 9.5 11 9.5C11.6531 9.5 12.2087 9.0826 12.4146 8.5H13.5V7.5Z" fill="currentColor"/>
</svg>
