<svg width="20" height="20" viewBox="0 0 20 20" fill="none" xmlns="http://www.w3.org/2000/svg" id="ssi-icon">
<path fill-rule="evenodd" clip-rule="evenodd" d="M14.9237 13.1176L12.2759 10.2558C12.0523 10.0144 11.6849 10.0074 11.4532 10.2393L10.4361 11.2571L9.05575 9.12588C8.95185 8.96547 8.78171 8.86616 8.59669 8.85822C8.40933 8.85272 8.23423 8.93461 8.11807 9.08585L4.98607 13.1597C4.84541 13.3431 4.81739 13.5945 4.91428 13.8069C5.01146 14.0189 5.21604 14.154 5.44076 14.154H14.5044C14.7387 14.154 14.9506 14.0073 15.0419 13.7812C15.1333 13.5554 15.0866 13.2939 14.9237 13.1176Z" fill="currentColor"/>
<path fill-rule="evenodd" clip-rule="evenodd" d="M15.1032 8.1683C15.1032 8.82095 14.5977 9.35046 13.9741 9.35046C13.3507 9.35046 12.845 8.82095 12.845 8.1683C12.845 7.51534 13.3507 6.98583 13.9741 6.98583C14.5977 6.98583 15.1032 7.51534 15.1032 8.1683Z" fill="currentColor"/>
<path fill-rule="evenodd" clip-rule="evenodd" d="M3.43776 8.36103C3.19582 8.36103 3 8.15601 3 7.90271V5.45832C3 5.20533 3.19582 5 3.43776 5H5.77129C6.01322 5 6.20905 5.20533 6.20905 5.45832C6.20905 5.71162 6.01322 5.91664 5.77129 5.91664H3.87551V7.90271C3.87551 8.15601 3.6794 8.36103 3.43776 8.36103Z" fill="currentColor"/>
<path fill-rule="evenodd" clip-rule="evenodd" d="M16.5623 8.36103C16.3207 8.36103 16.1245 8.15601 16.1245 7.90271V5.91664H14.2288C13.9871 5.91664 13.791 5.71162 13.791 5.45832C13.791 5.20533 13.9871 5 14.2288 5H16.5623C16.8042 5 17.0001 5.20533 17.0001 5.45832V7.90271C17.0001 8.15601 16.8042 8.36103 16.5623 8.36103Z" fill="currentColor"/>
<path fill-rule="evenodd" clip-rule="evenodd" d="M5.77129 15.9998H3.43776C3.19582 15.9998 3 15.7947 3 15.5414V13.097C3 12.8441 3.19582 12.6387 3.43776 12.6387C3.6794 12.6387 3.87551 12.8441 3.87551 13.097V15.0831H5.77129C6.01322 15.0831 6.20905 15.2884 6.20905 15.5414C6.20905 15.7947 6.01322 15.9998 5.77129 15.9998Z" fill="currentColor"/>
<path fill-rule="evenodd" clip-rule="evenodd" d="M16.5623 16H14.2288C13.9871 16 13.791 15.795 13.791 15.5417C13.791 15.2887 13.9871 15.0834 14.2288 15.0834H16.1245V13.0973C16.1245 12.8443 16.3207 12.639 16.5623 12.639C16.8042 12.639 17.0001 12.8443 17.0001 13.0973V15.5417C17.0001 15.795 16.8042 16 16.5623 16Z" fill="currentColor"/>
</svg>
