<svg width="24" height="24" viewBox="0 0 24 24" fill="none" xmlns="http://www.w3.org/2000/svg" id="star">
<path fill-rule="evenodd" clip-rule="evenodd" d="M12.1333 17.2725C12.2828 17.2725 12.4317 17.307 12.5676 17.3755L17.2373 19.732L16.3459 14.7412C16.2935 14.4508 16.3944 14.1537 16.6144 13.948L20.3921 10.4138L15.1714 9.68549C14.8669 9.64293 14.604 9.45963 14.4682 9.1952L12.1333 4.65485L9.79849 9.1952C9.66214 9.45963 9.39924 9.64293 9.09524 9.68549L3.8741 10.4138L7.65232 13.948C7.87226 14.1537 7.97266 14.4508 7.92082 14.7412L7.02891 19.732L11.6986 17.3755C11.8349 17.307 11.9839 17.2725 12.1333 17.2725ZM18.4781 22.2664C18.3292 22.2664 18.1802 22.2328 18.0434 22.1637L12.1335 19.1817L6.22353 22.1637C5.90879 22.3224 5.52729 22.296 5.23963 22.0957C4.95199 21.8949 4.80816 21.5552 4.8684 21.219L5.99705 14.9026L1.21532 10.4295C0.960821 10.1915 0.869295 9.83526 0.979032 9.51079C1.08924 9.18631 1.38109 8.95012 1.73318 8.90083L8.34076 7.97941L11.2957 2.23259C11.4531 1.92694 11.7781 1.73334 12.1335 1.73334C12.4888 1.73334 12.8134 1.92694 12.9707 2.23259L15.9257 7.97941L22.5337 8.90083C22.8854 8.95012 23.1777 9.18631 23.288 9.51079C23.3971 9.83526 23.306 10.1915 23.0511 10.4295L18.2699 14.9026L19.3986 21.219C19.4587 21.5552 19.3145 21.8949 19.0273 22.0957C18.8643 22.2091 18.6715 22.2664 18.4781 22.2664Z" fill="#FFC557"/>
</svg>
