<svg width="20" height="20" viewBox="0 0 20 20" fill="none" xmlns="http://www.w3.org/2000/svg" id="Submission">
    <path d="M1.66651 7.49501C1.66607 6.83851 1.79513 6.18837 2.04631 5.58183C2.29749 4.97528 2.66585 4.42424 3.1303 3.96026C3.59474 3.49628 4.14615 3.12847 4.75295 2.8779C5.35974 2.62733 6.01001 2.49891 6.66651 2.50001H13.3332C16.094 2.50001 18.3332 4.74584 18.3332 7.49501V17.5H6.66651C3.90567 17.5 1.66651 15.2542 1.66651 12.505V7.49501ZM16.6665 15.8333V7.49501C16.6643 6.61209 16.3122 5.76604 15.6875 5.14219C15.0627 4.51834 14.2161 4.16755 13.3332 4.16667H6.66651C6.22888 4.16558 5.79534 4.25088 5.39075 4.4177C4.98617 4.58451 4.61849 4.82955 4.30881 5.13877C3.99912 5.44799 3.75353 5.8153 3.58611 6.21963C3.41869 6.62397 3.33273 7.05738 3.33317 7.49501V12.505C3.33538 13.3879 3.68743 14.234 4.31222 14.8578C4.93701 15.4817 5.78359 15.8325 6.66651 15.8333H16.6665Z" fill="currentColor"/>
    <path d="M13.3327 9.16797H11.666V10.8346H13.3327V9.16797Z" fill="currentColor"/>
    <path d="M8.33268 9.16797H6.66602V10.8346H8.33268V9.16797Z" fill="currentColor"/>
</svg>
