<svg width="12" height="12" viewBox="0 0 12 12" fill="none" xmlns="http://www.w3.org/2000/svg" id="Telegram">
<path fill-rule="evenodd" clip-rule="evenodd" d="M0 6C0 9.3137 2.6863 12 6 12C9.3137 12 12 9.3137 12 6C12 2.6863 9.3137 0 6 0C2.6863 0 0 2.6863 0 6ZM4.9 8.75L5.00208 7.22057L7.78422 4.70975C7.90632 4.60138 7.75758 4.54852 7.59548 4.64682L4.16183 6.81308L2.67867 6.35017C2.35837 6.2521 2.35608 6.032 2.75058 5.87378L8.53008 3.64523C8.79405 3.52538 9.04882 3.70863 8.94805 4.11263L7.9638 8.75078C7.89507 9.08038 7.69593 9.1592 7.42 9.00695L5.92067 7.89923L5.2 8.6C5.19772 8.6022 5.19548 8.6044 5.19322 8.6066C5.11263 8.68507 5.04593 8.75 4.9 8.75Z" fill="black"/>
</svg>
