<svg width="17" height="17" viewBox="0 0 17 17" fill="none" xmlns="http://www.w3.org/2000/svg">
<path fill-rule="evenodd" clip-rule="evenodd" d="M15.4508 3.92612C14.917 4.17024 14.345 4.32441 13.7477 4.4015C14.3578 4.02891 14.828 3.42505 15.0568 2.73126C14.4848 3.07816 13.8494 3.32227 13.1758 3.4636C12.642 2.87259 11.8667 2.5 11.0151 2.5C9.38829 2.5 8.06649 3.86188 8.06649 5.53212C8.06649 5.76338 8.09191 5.99465 8.14275 6.22591C5.68979 6.09743 3.50374 4.88972 2.05484 3.05246C1.80065 3.50214 1.64813 4.02891 1.64813 4.58137C1.64813 5.6349 2.16923 6.55996 2.96993 7.09957C2.48697 7.08672 2.02942 6.9454 1.62271 6.72698V6.75268C1.62271 8.23019 2.63948 9.45075 3.99941 9.73341C3.74522 9.79764 3.49103 9.83619 3.22413 9.83619C3.03348 9.83619 2.84284 9.81049 2.6649 9.7848C3.03348 10.9797 4.12651 11.8533 5.42289 11.879C4.40612 12.6884 3.13516 13.1767 1.74981 13.1767C1.52104 13.1767 1.27955 13.1638 1.05078 13.1381C2.35987 13.9989 3.91045 14.5 5.57541 14.5C11.0151 14.5 13.9892 9.88758 13.9892 5.87902C13.9892 5.75054 13.9765 5.62206 13.9765 5.49358C14.5484 5.06959 15.0568 4.52998 15.4508 3.92612Z" fill="currentColor"/>
</svg>
