<svg width="61" height="67" viewBox="0 0 61 67" fill="none" xmlns="http://www.w3.org/2000/svg" id="upgrade-to-pro">
<path d="M17.9756 64.1538C17.2676 65.0974 19.0692 65.9105 19.3493 64.4572L18.4606 64.3358L18.5118 65.3644C18.5134 65.4637 18.547 65.5598 18.6076 65.6382C18.6681 65.7166 18.7523 65.7731 18.8475 65.7991C18.9427 65.8251 19.0437 65.8193 19.1353 65.7825C19.2269 65.7456 19.3041 65.6798 19.3554 65.595C19.5717 65.2039 19.706 64.7722 19.75 64.3267C19.8163 63.7897 19.021 63.7563 18.8613 64.2053C18.7102 64.4931 18.6694 64.8268 18.7468 65.1429C18.7505 65.251 18.792 65.3543 18.864 65.4345C18.936 65.5147 19.0339 65.5667 19.1403 65.5812C19.2467 65.5958 19.3548 65.5719 19.4455 65.5139C19.5361 65.4559 19.6034 65.3674 19.6355 65.2642L20.0904 64.0991L19.2017 63.9778C19.2014 64.5095 19.157 65.0403 19.0692 65.5646C18.9878 66.0471 19.6235 66.393 19.8946 65.9166C20.1734 65.4254 20.3766 64.8945 20.4971 64.3419L19.6084 64.2205L19.6235 65.0306C19.6235 65.4433 20.2802 65.7012 20.467 65.2612C20.6541 64.8264 20.8151 64.3805 20.949 63.9262L20.0603 63.8048V65.3674C20.064 65.4755 20.1055 65.5788 20.1775 65.659C20.2495 65.7393 20.3474 65.7912 20.4538 65.8058C20.5602 65.8203 20.6683 65.7964 20.759 65.7384C20.8496 65.6804 20.9169 65.592 20.949 65.4888C21.1187 65.0359 21.1916 64.552 21.1629 64.0688C21.1629 63.9481 21.1153 63.8323 21.0306 63.747C20.9458 63.6616 20.8309 63.6137 20.711 63.6137C20.5912 63.6137 20.4762 63.6616 20.3915 63.747C20.3068 63.8323 20.2591 63.9481 20.2591 64.0688C20.2639 64.452 20.1975 64.8328 20.0633 65.1914L20.952 65.3128C20.8729 64.8412 20.8882 64.3584 20.9972 63.8928L21.2262 63.286C21.0608 63.6562 20.9746 64.0573 20.9731 64.4632H21.8438C21.7714 64.2532 21.7522 64.0283 21.788 63.809C21.8238 63.5896 21.9133 63.3828 22.0486 63.2071L21.2232 63.0979C21.2714 63.2466 21.3196 64.8182 21.666 64.3115L21.6329 63.6137C21.6715 63.8894 21.6436 64.1704 21.5516 64.4329L22.1239 64.8728C22.0299 64.0359 22.2269 63.1921 22.6813 62.485L21.8558 62.3758C22.0507 63.0246 22.0776 63.7129 21.9341 64.3752H22.8048C22.7174 63.9626 22.4704 62.6488 22.8741 62.3181L22.3258 62.3879C22.5114 62.8792 22.5336 63.418 22.3891 63.9232H23.2597C23.0349 63.045 23.1344 62.1145 23.5399 61.3047L22.7144 61.1955C22.9906 62.0627 22.9906 62.9952 22.7144 63.8625H23.5851C23.5218 63.6592 23.2266 62.3454 23.2537 62.3211C23.1151 62.3909 23.0337 63.38 22.8982 63.7745H23.7688C23.576 63.2041 23.326 61.2349 24.0942 60.9224L23.5369 60.619C23.5911 60.9011 23.9014 62.3879 23.4525 62.6215L24.1153 62.8946C23.9255 61.9843 23.7357 61.0741 24.4376 60.3095L23.6815 60.1092C23.866 60.8779 23.866 61.6799 23.6815 62.4486H24.5521C24.3861 62.0818 24.3083 61.6807 24.3251 61.2779C24.3418 60.8751 24.4526 60.482 24.6485 60.1305L23.823 60.0213C24 60.4819 24.0305 60.9866 23.9104 61.4655L24.7359 61.3563C24.3563 60.6736 24.6666 59.7725 24.4075 59.0382C24.3857 58.9619 24.3447 58.8926 24.2883 58.837C24.2319 58.7815 24.1622 58.7417 24.0859 58.7215C24.0097 58.7013 23.9295 58.7015 23.8534 58.7219C23.7772 58.7423 23.7076 58.7823 23.6513 58.8379C23.5109 58.9688 23.4122 59.1387 23.3677 59.3261C23.3232 59.5136 23.3349 59.7101 23.4013 59.8908C23.6845 60.886 24.1695 61.4716 23.9255 62.6064C23.8975 62.7213 23.9151 62.8427 23.9745 62.9449C24.0339 63.047 24.1305 63.1218 24.2438 63.1533C24.3571 63.1849 24.4781 63.1708 24.5812 63.114C24.6843 63.0572 24.7614 62.9622 24.7961 62.8491L25.2751 61.2197L24.3864 61.0984C24.3864 62.846 22.5788 63.4711 21.1298 63.9383C20.5785 64.1173 20.8285 64.9972 21.3708 64.8152C23.344 64.172 25.2872 63.4134 25.2872 61.0984C25.2835 60.9903 25.242 60.887 25.17 60.8068C25.0979 60.7265 25.0001 60.6746 24.8937 60.66C24.7872 60.6455 24.6792 60.6694 24.5885 60.7274C24.4979 60.7854 24.4306 60.8738 24.3985 60.977L23.9195 62.6064L24.7901 62.8491C24.9261 62.2931 24.9497 61.7153 24.8594 61.1499C24.8232 60.9558 24.2267 59.554 24.284 59.4812L23.5278 59.2809C23.8291 60.1457 23.4856 60.9861 23.9466 61.8144C23.9932 61.8892 24.0601 61.949 24.1394 61.9866C24.2188 62.0242 24.3072 62.0381 24.3941 62.0266C24.481 62.0151 24.5628 61.9787 24.6298 61.9217C24.6968 61.8647 24.7462 61.7896 24.772 61.7052C24.8977 61.0643 24.8677 60.4022 24.6847 59.7755C24.6588 59.6911 24.6095 59.616 24.5425 59.559C24.4755 59.502 24.3937 59.4656 24.3067 59.4541C24.2198 59.4426 24.1314 59.4565 24.0521 59.4941C23.9727 59.5317 23.9058 59.5915 23.8592 59.6663C23.6018 60.1219 23.4511 60.6307 23.4187 61.154C23.3864 61.6772 23.4731 62.2009 23.6724 62.6852C23.823 63.0645 24.4376 63.1677 24.5431 62.6852C24.7576 61.756 24.7576 60.7896 24.5431 59.8604C24.5213 59.7841 24.4802 59.7148 24.4239 59.6593C24.3675 59.6038 24.2978 59.564 24.2215 59.5438C24.1453 59.5236 24.0651 59.5237 23.9889 59.5441C23.9127 59.5645 23.8431 59.6045 23.7869 59.6602C22.865 60.6797 22.9675 61.8569 23.2326 63.1313C23.2519 63.1978 23.2859 63.259 23.3319 63.3105C23.378 63.3619 23.435 63.4023 23.4987 63.4285C23.5623 63.4548 23.6311 63.4662 23.6998 63.462C23.7684 63.4578 23.8353 63.4381 23.8954 63.4043C24.9257 62.8673 24.5792 61.3077 24.3954 60.3702C24.3606 60.2561 24.2827 60.1604 24.1784 60.1036C24.0742 60.0469 23.952 60.0337 23.8381 60.0668C22.4674 60.622 22.4764 62.8369 22.8801 64.0385C22.9084 64.1325 22.966 64.2149 23.0444 64.2735C23.1228 64.332 23.2178 64.3636 23.3154 64.3636C23.413 64.3636 23.508 64.332 23.5864 64.2735C23.6648 64.2149 23.7224 64.1325 23.7507 64.0385C23.9586 63.4316 24.5461 60.7009 23.2235 60.8132C21.9583 60.9285 22.4734 63.4316 22.6933 64.1264C22.7217 64.2205 22.7793 64.3029 22.8577 64.3615C22.936 64.42 23.0311 64.4516 23.1286 64.4516C23.2262 64.4516 23.3213 64.42 23.3996 64.3615C23.478 64.3029 23.5356 64.2205 23.564 64.1264C23.8826 63.1001 23.8826 62.0003 23.564 60.974C23.4585 60.6281 22.9132 60.4946 22.7385 60.8647C22.2254 61.8911 22.094 63.0686 22.368 64.1841C22.4644 64.6058 23.1573 64.6301 23.2386 64.1841C23.3772 63.4377 23.6393 62.0026 22.7596 61.6203C22.6721 61.5739 22.5726 61.5557 22.4745 61.5681C22.3765 61.5806 22.2846 61.6232 22.2113 61.69C21.4762 62.2969 21.7413 63.8503 21.9101 64.6332C21.9384 64.7272 21.996 64.8096 22.0744 64.8682C22.1528 64.9267 22.2478 64.9583 22.3454 64.9583C22.443 64.9583 22.538 64.9267 22.6164 64.8682C22.6948 64.8096 22.7524 64.7272 22.7807 64.6332C22.9642 63.8126 22.9372 62.9584 22.7024 62.1512C22.6765 62.0668 22.6272 61.9917 22.5602 61.9347C22.4932 61.8778 22.4114 61.8414 22.3244 61.8299C22.2375 61.8184 22.1491 61.8322 22.0698 61.8698C21.9905 61.9074 21.9235 61.9672 21.8769 62.042C21.3331 62.8853 21.0928 63.8909 21.1961 64.8911C21.1971 64.9609 21.2138 65.0296 21.245 65.0919C21.2762 65.1543 21.321 65.2087 21.3761 65.2511C21.4312 65.2935 21.4952 65.3227 21.5632 65.3365C21.6311 65.3503 21.7013 65.3485 21.7685 65.331C22.7927 65.0519 22.6481 63.55 22.2896 62.7823C22.2505 62.7128 22.1935 62.6552 22.1245 62.6157C22.0556 62.5762 21.9773 62.5562 21.898 62.5578C20.7201 62.6519 20.1567 65.0428 21.3828 65.4311C21.4599 65.4537 21.5416 65.4546 21.6191 65.4337C21.6967 65.4129 21.7671 65.3711 21.8227 65.3128C22.368 64.621 22.3288 63.6865 22.0697 62.8855C22.0439 62.8011 21.9945 62.726 21.9275 62.669C21.8605 62.612 21.7787 62.5756 21.6918 62.5641C21.6049 62.5526 21.5165 62.5665 21.4371 62.6041C21.3578 62.6417 21.2909 62.7015 21.2443 62.7763C21.0617 63.0634 20.9406 63.3858 20.8887 63.7228C20.8368 64.0597 20.8553 64.4039 20.943 64.7333C21.0394 65.152 21.7353 65.1823 21.8136 64.7333C21.9191 64.1264 22.2053 62.1664 21.0575 62.3393C19.9097 62.5123 19.9247 64.5785 20.0181 65.3522C20.0218 65.4603 20.0633 65.5636 20.1353 65.6438C20.2074 65.7241 20.3052 65.7761 20.4117 65.7906C20.5181 65.8051 20.6261 65.7813 20.7168 65.7233C20.8074 65.6652 20.8747 65.5768 20.9069 65.4736C21.0404 65.0301 21.1173 64.5713 21.1358 64.1082H20.232C20.2902 64.5103 20.2262 64.9208 20.0483 65.2855L20.937 65.4069V63.8382C20.9333 63.7301 20.8918 63.6268 20.8198 63.5466C20.7478 63.4664 20.6499 63.4144 20.5435 63.3999C20.4371 63.3853 20.329 63.4092 20.2383 63.4672C20.1477 63.5252 20.0804 63.6136 20.0483 63.7168C19.9504 64.1004 19.8204 64.475 19.6596 64.8364L20.5032 65.067L20.4881 64.2569C20.4881 63.7563 19.7169 63.6228 19.5994 64.1356C19.4945 64.6125 19.3188 65.0707 19.0782 65.4948L19.9037 65.8468C20.0075 65.2455 20.0629 64.6367 20.0694 64.0263C20.0694 63.4802 19.3584 63.4498 19.1806 63.905L18.7257 65.0701L19.6144 65.1914L19.6958 64.4966L18.8071 64.3752L18.5359 65.1854L19.3795 65.416L19.3283 64.3874C19.3042 63.9019 18.542 63.7381 18.4395 64.266L18.7167 64.6756C19.0662 64.2084 18.2829 63.7654 17.9364 64.2175L17.9756 64.1538Z" fill="white"/>
<path d="M21.1449 18.5996L22.4283 20.3716L23.0459 19.7496C22.942 19.6916 22.8414 19.6278 22.7446 19.5584C22.6964 19.522 22.4765 19.2793 22.5729 19.4947C22.6331 19.6313 22.6271 19.5463 22.7808 19.4947C22.879 19.469 22.981 19.4608 23.082 19.4704C23.6635 19.5008 23.6604 18.5905 23.082 18.5602C22.5759 18.5359 21.9101 18.7483 21.7083 19.2702C21.4763 19.877 22.1541 20.2866 22.588 20.5354C22.9555 20.7448 23.4917 20.2988 23.2055 19.9134L21.9222 18.1415C21.5817 17.6712 20.7985 18.1415 21.1419 18.5996H21.1449Z" fill="white"/>
<path d="M18.3402 19.0239L18.2769 19.5579C18.2347 19.919 18.6866 20.101 18.9578 19.9523C19.2195 19.8226 19.4562 19.6469 19.6567 19.4335L18.9457 18.8813L18.2799 19.7915C17.9516 20.2345 18.6234 20.6471 18.9909 20.3437C19.3945 20.0154 19.7337 19.6141 19.9911 19.1604L19.2108 18.7023L18.3854 20.2011C18.1474 20.635 18.7499 21.1599 19.0963 20.7533C19.5277 20.2443 19.9194 19.7027 20.2682 19.1331C20.4972 18.7569 20.0303 18.2532 19.6507 18.5111C19.0248 18.9193 18.5076 19.4755 18.1444 20.1313C17.8431 20.6502 18.5902 21.0416 18.9246 20.5895L20.5424 18.3503H19.7621C19.976 18.766 18.6414 20.0282 18.6625 20.7382C18.6653 20.8269 18.6934 20.9129 18.7435 20.9859C18.7937 21.0589 18.8636 21.1158 18.945 21.1498C19.0265 21.1837 19.1159 21.1933 19.2026 21.1773C19.2893 21.1614 19.3695 21.1206 19.4338 21.0598L21.874 18.6112L21.2353 17.968L19.2952 19.9645C19.2215 20.0439 19.1783 20.1471 19.1732 20.2556C19.1681 20.3642 19.2014 20.471 19.2673 20.5571C19.3332 20.6431 19.4273 20.7028 19.5329 20.7254C19.6384 20.748 19.7485 20.7321 19.8435 20.6805C21.0546 20.1321 22.1039 19.277 22.8892 18.1986C23.1603 17.8375 22.6301 17.3217 22.2716 17.5766C21.407 18.1834 20.0152 19.0937 20.208 20.2831C20.2283 20.3553 20.2667 20.4212 20.3194 20.4743C20.3721 20.5274 20.4375 20.566 20.5093 20.5865C21.8438 20.8656 23.1362 18.9511 23.9406 18.0924C24.3503 17.6555 23.7478 17.0942 23.3019 17.4492C22.5032 18.0803 21.8157 18.8424 21.2684 19.7035C21.0334 20.0676 21.5215 20.6138 21.886 20.3255L25.221 17.7556L24.6727 17.0396C23.841 17.9076 23.1065 18.8651 22.4825 19.8947C22.4313 19.9903 22.4155 20.1012 22.438 20.2075C22.4604 20.3138 22.5197 20.4086 22.6051 20.4749C22.6905 20.5413 22.7966 20.5749 22.9044 20.5698C23.0122 20.5646 23.1146 20.5211 23.1935 20.4469C24.2996 19.5237 25.5039 18.7269 26.7845 18.0712L26.3296 17.2853C25.5083 17.7571 24.8342 18.4507 24.3835 19.2879C24.3361 19.3748 24.3181 19.4748 24.332 19.5729C24.3459 19.6711 24.3911 19.762 24.4607 19.8321C24.5303 19.9022 24.6206 19.9476 24.718 19.9617C24.8154 19.9757 24.9147 19.9575 25.001 19.9099C26.0477 19.3713 27.0379 18.7278 27.9564 17.9892C28.2577 17.7374 28.0016 17.2064 27.6371 17.2125C26.7521 17.2094 25.8804 17.43 25.102 17.8541C24.3236 18.2782 23.6632 18.8922 23.1814 19.6398C22.9434 19.9918 23.3351 20.3832 23.6906 20.3073C24.8956 20.0585 26.2995 19.8765 27.4382 19.3971C27.8359 19.2272 28.1522 19.1149 28.2757 18.6598C28.6222 17.4006 27.14 17.2186 26.2934 17.349L26.5345 18.2259C27.0968 17.9104 27.5186 18.0115 27.7997 18.5293C27.4918 18.7224 27.1504 18.8552 26.7935 18.9207L27.2334 19.6823C27.6491 19.2514 28.4655 18.4201 29.1223 18.4686C29.524 18.323 29.4326 18.4241 28.8481 18.7721C29.4248 18.5875 30.031 18.5144 30.6346 18.5566L30.4719 17.9346C30.6326 18.1551 30.8384 18.3382 31.0754 18.4717C31.3124 18.6051 31.5751 18.6858 31.8457 18.7083C33.1431 18.86 34.4335 19.0623 35.7169 19.3152V18.6416L36.2802 19.388L37.1057 19.2788L36.9339 19.0421L37.2352 19.6034H37.3768L38.0878 20.1556L38.4071 19.6702L39.1783 19.9918L39.1994 20.0343L39.8622 20.547L39.7839 20.4833C39.6995 20.9627 40.3442 21.3147 40.6093 20.8353L40.8473 20.7685L40.9166 20.2163L40.7509 20.3195L41.26 20.987V20.5804C40.9076 20.9172 41.2841 21.4148 41.6999 21.342H42.3386L42.0072 20.902L41.7782 21.1417L42.441 21.6545L42.2241 21.6241L43.1128 21.7455L42.8627 21.3147C42.4621 21.5817 42.7061 22.3402 43.2122 22.146L43.2966 22.1217L42.9953 21.5604L42.9561 21.6848L43.5135 21.3814L43.4231 21.3541C42.8688 21.1781 42.6308 22.055 43.1821 22.231L43.2725 22.2583C43.3863 22.289 43.5074 22.2747 43.6111 22.2183C43.7147 22.1619 43.793 22.0676 43.8298 21.9549L43.869 21.8305C43.9003 21.7158 43.8864 21.5935 43.8303 21.4889C43.7741 21.3843 43.6801 21.3056 43.5677 21.2692C43.384 21.2025 43.1817 21.2112 43.0043 21.2934L43.3538 22.1248C43.453 22.0765 43.5405 22.0067 43.6099 21.9205C43.6793 21.8343 43.729 21.7337 43.7555 21.626C43.782 21.5182 43.7845 21.4059 43.763 21.297C43.7415 21.1882 43.6964 21.0854 43.631 20.9961C43.5914 20.927 43.5342 20.8698 43.4654 20.8303C43.3965 20.7909 43.3185 20.7706 43.2393 20.7715C42.5856 20.8292 42.3054 21.1174 42.2421 21.7698C42.1879 22.3159 42.9652 22.3372 43.1309 21.8911C43.5617 20.7291 41.9258 20.2345 41.6065 21.436C41.586 21.5226 41.5909 21.6132 41.6204 21.6971C41.6499 21.7809 41.7029 21.8544 41.773 21.9086C41.843 21.9628 41.9272 21.9954 42.0152 22.0026C42.1033 22.0097 42.1915 21.991 42.2693 21.9488C42.4721 21.8662 42.6453 21.7238 42.7663 21.5402C42.8873 21.3566 42.9503 21.1405 42.9471 20.9202C42.9479 20.8203 42.9158 20.723 42.8558 20.6434C42.7959 20.5638 42.7115 20.5064 42.6157 20.4803C42.2484 20.3914 41.8654 20.3914 41.498 20.4803L41.9379 21.2418C42.0343 21.1669 42.1111 21.0694 42.1618 20.9578C42.2124 20.8463 42.2353 20.724 42.2285 20.6015C42.2217 20.479 42.1853 20.36 42.1226 20.2549C42.0599 20.1497 41.9727 20.0615 41.8686 19.9978C41.3052 19.6429 40.8383 20.1101 40.5069 20.547C40.2599 20.8717 40.6666 21.3207 41.016 21.2145C41.2352 21.1648 41.4333 21.047 41.5824 20.8777C41.6525 20.8061 41.6973 20.7133 41.7098 20.6135C41.7224 20.5137 41.7019 20.4125 41.6517 20.3255C41.1576 19.6489 40.2809 19.6186 39.8441 20.3923L40.6696 20.7442C40.8835 19.5124 39.344 19.0785 39.0066 20.3225C38.9862 20.4091 38.991 20.4997 39.0205 20.5836C39.0501 20.6674 39.1031 20.7409 39.1731 20.7951C39.2432 20.8493 39.3273 20.8819 39.4153 20.889C39.5034 20.8962 39.5916 20.8775 39.6694 20.8353C41.5673 19.743 38.5638 17.616 38.2866 20.0069C38.2384 20.4196 38.8018 20.5804 39.0578 20.3286C40.1273 19.2879 38.154 17.965 37.3196 19.7217C37.1117 20.1556 37.669 20.6896 38.0305 20.274C39.3018 18.8024 36.7743 17.5432 36.3796 19.3637C36.3483 19.4783 36.3622 19.6007 36.4183 19.7053C36.4745 19.8099 36.5685 19.8886 36.6809 19.925C37.5847 20.101 38.5216 19.1635 37.6479 18.408C36.6779 17.5614 35.8404 18.8479 36.3134 19.7521C36.36 19.8269 36.4269 19.8866 36.5062 19.9242C36.5856 19.9618 36.6739 19.9757 36.7609 19.9642C36.8478 19.9527 36.9296 19.9163 36.9966 19.8593C37.0636 19.8024 37.113 19.7272 37.1388 19.6428C37.4401 18.3988 36.0392 17.2155 35.0571 18.3624C34.1533 19.4214 35.4638 20.0949 36.3435 19.3C36.4267 19.2139 36.4732 19.0985 36.4732 18.9784C36.4732 18.8582 36.4267 18.7429 36.3435 18.6568C35.8102 18.0954 34.8221 17.6585 34.2347 18.4504C33.7557 19.1088 34.3371 20.2163 35.1987 19.8977C37.1358 19.1847 33.8792 16.3963 33.3429 18.4777C33.1561 19.2059 34.0057 19.7612 34.6233 19.4396C35.5271 18.9814 35.0932 17.7769 34.322 17.4552C33.6261 17.1518 32.3156 17.4249 32.2132 18.3382C32.2021 18.5173 32.2408 18.6961 32.325 18.8543C32.4092 19.0126 32.5355 19.144 32.6899 19.2339C32.8442 19.3237 33.0203 19.3684 33.1985 19.3629C33.3767 19.3575 33.5498 19.3021 33.6984 19.2029C35.5933 17.9073 31.3847 16.0262 31.7282 18.6628C31.9812 20.6047 34.8854 18.6628 32.7976 17.8436C32.0806 17.5614 30.5081 18.0408 30.493 18.9905C30.4719 20.1283 31.918 19.7096 32.409 19.2515C34.2949 17.4886 29.8574 16.1232 29.776 18.5657C29.7399 19.655 31.1076 19.4244 31.6318 18.8509C32.3458 18.0681 31.7673 17.2155 30.8364 17.1124C29.9055 17.0092 28.1582 17.9255 28.8933 19.0482C29.6284 20.1708 30.7852 19.0997 31.2311 18.3898C31.2897 18.2852 31.3056 18.1616 31.2752 18.0455C31.2448 17.9293 31.1706 17.8297 31.0684 17.7677C30.1646 17.2641 28.3571 17.5159 27.8961 18.5809C27.3991 19.6975 28.7758 19.7946 29.4627 19.4911C30.1496 19.1877 31.2431 18.2441 30.3062 17.5948C29.2127 16.8363 27.2936 18.3139 26.5736 19.0512C26.5051 19.123 26.4617 19.2153 26.4499 19.3141C26.4382 19.413 26.4587 19.513 26.5084 19.599C26.5581 19.6851 26.6343 19.7525 26.7254 19.7911C26.8165 19.8296 26.9176 19.8372 27.0135 19.8128C27.7184 19.6307 29.3482 19.036 29.2217 18.056C29.068 16.8757 26.9713 17.2095 26.2754 17.3551C25.6969 17.4765 25.953 18.32 26.5164 18.232C27.3599 18.4342 27.4051 18.5819 26.6519 18.675C26.2985 18.7741 25.943 18.8681 25.5855 18.9571C24.8715 19.1362 24.1545 19.2939 23.4345 19.4426L23.9436 20.1101C24.342 19.4965 24.8877 18.994 25.5302 18.6493C26.1726 18.3045 26.8911 18.1287 27.619 18.1379L27.2997 17.3612C26.4376 18.0473 25.5091 18.644 24.5281 19.1422L25.1456 19.7642C25.5192 19.0631 26.0808 18.4817 26.7664 18.0863C26.8653 18.0233 26.9361 17.9241 26.9638 17.8097C26.9916 17.6952 26.9742 17.5743 26.9152 17.4725C26.8563 17.3707 26.7604 17.2959 26.6478 17.2638C26.5352 17.2317 26.4147 17.2449 26.3115 17.3005C24.9647 17.9969 23.6987 18.8415 22.5367 19.8188L23.2477 20.371C23.8316 19.4083 24.5186 18.5129 25.2963 17.701C25.6216 17.343 25.1758 16.6573 24.748 16.9849L21.4582 19.5518L22.0758 20.1587C22.5868 19.367 23.2264 18.6674 23.9677 18.0894L23.329 17.4461C22.7868 18.0226 22.0758 18.5475 21.5938 19.1635C21.4341 19.3698 21.1961 19.5731 21.5637 19.3455C21.9312 19.1179 22.3831 18.6021 22.7446 18.3442L22.124 17.7313C21.4183 18.6714 20.4847 19.4132 19.4127 19.8856L19.961 20.6016L21.9011 18.6052C21.9809 18.5189 22.0244 18.4048 22.0223 18.2869C22.0202 18.169 21.9728 18.0565 21.89 17.9731C21.8072 17.8897 21.6955 17.8419 21.5784 17.8399C21.4614 17.8378 21.3481 17.8815 21.2624 17.9619L18.8222 20.4105L19.5934 20.7321C19.5543 19.5003 21.2955 19.2909 20.5695 17.8861C20.5285 17.8189 20.4712 17.7635 20.4029 17.725C20.3346 17.6866 20.2576 17.6664 20.1794 17.6664C20.1011 17.6664 20.0242 17.6866 19.9559 17.725C19.8876 17.7635 19.8302 17.8189 19.7892 17.8861L18.1715 20.1253L18.9517 20.5834C19.2335 20.0612 19.6379 19.6164 20.1297 19.2879L19.5121 18.6659C19.2068 19.1719 18.8623 19.6528 18.4818 20.104L19.1927 20.6563L20.0182 19.1574C20.0734 19.0535 20.0865 18.9321 20.0547 18.8187C20.0228 18.7053 19.9485 18.6087 19.8474 18.5494C19.7463 18.49 19.6263 18.4725 19.5127 18.5004C19.399 18.5284 19.3005 18.5996 19.2379 18.6992C19.0437 19.1021 18.7476 19.4464 18.3793 19.6975L19.0903 20.2497L19.7561 19.3394C20.0574 18.9116 19.4066 18.4474 19.0451 18.7872L18.53 19.1635L19.2108 19.5579L19.2741 19.0239C19.3434 18.4444 18.4396 18.4474 18.3703 19.0239H18.3402Z" fill="white"/>
<path d="M17.5024 17.3434C17.88 21.9088 18.2576 26.4741 18.6351 31.0395C18.9033 34.2587 19.1202 37.7935 21.223 40.415C23.2836 42.9849 26.6456 44.0014 29.836 43.9771C31.7002 43.9238 33.5526 43.6591 35.3581 43.1882C36.6505 42.8848 38.8346 42.0929 39.4191 43.9983C39.8378 45.3637 38.6418 46.6744 37.8163 47.6029C37.4307 48.0398 38.0664 48.6861 38.455 48.2461C39.4492 47.1235 40.5217 45.8401 40.365 44.2259C40.3232 43.6314 40.0741 43.0709 39.6618 42.6434C39.2495 42.2159 38.7004 41.9489 38.1116 41.8896C36.2739 41.6256 34.2374 42.5814 32.4298 42.8514C30.1824 43.1882 27.8446 43.1852 25.6786 42.4145C21.1085 40.7882 20.0149 36.5009 19.6263 32.0984C19.1925 27.1801 18.8129 22.2587 18.4062 17.3373C18.358 16.7578 17.4542 16.7517 17.5024 17.3373V17.3434Z" fill="white"/>
<path d="M37.6213 47.6305C37.3366 48.078 37.2097 48.6089 37.261 49.1379C37.3124 49.6668 37.5391 50.1629 37.9045 50.5463C38.7661 51.5324 40.1579 51.6447 41.372 51.4566C44.3544 50.9772 47.6773 49.0869 47.5388 45.6492C47.5147 45.0667 46.6109 45.0636 46.635 45.6492C46.7284 47.9218 44.9811 49.3721 43.0199 50.076C42.2925 50.3633 41.529 50.5471 40.7514 50.6222C39.5072 50.695 37.3532 49.712 38.3955 48.0978C38.6968 47.6032 37.9286 47.1481 37.6153 47.6396L37.6213 47.6305Z" fill="white"/>
<path d="M38.9068 46.1202C36.7739 45.4223 34.5054 46.7907 34.3548 49.127C34.1981 51.5543 36.4636 53.2444 38.6387 53.5842C43.254 54.3063 50.7162 51.3116 48.2278 45.5558C47.9958 45.0188 47.2186 45.483 47.4475 46.014C49.2762 50.2375 44.5645 52.2067 41.2265 52.6497C39.3497 52.8985 37.2589 52.7528 35.9726 51.1781C34.3006 49.1301 36.0298 46.1354 38.6688 46.9971C39.2232 47.1791 39.4611 46.2992 38.9098 46.1202H38.9068Z" fill="white"/>
<path d="M48.0566 45.3423C47.4778 42.1083 47.1924 38.828 47.204 35.542C47.204 35.4213 47.1564 35.3055 47.0717 35.2202C46.9869 35.1348 46.872 35.0869 46.7521 35.0869C46.6323 35.0869 46.5173 35.1348 46.4326 35.2202C46.3478 35.3055 46.3002 35.4213 46.3002 35.542C46.2926 38.9088 46.5891 42.2692 47.1859 45.5819C47.2884 46.1584 48.159 45.9127 48.0566 45.3392V45.3423Z" fill="white"/>
<path d="M18.2981 21.7976C26.1308 20.1288 35.7892 18.187 42.911 23.0446C43.393 23.3753 43.8479 22.5865 43.3659 22.2588C36.0302 17.2555 26.1308 19.2004 18.0601 20.9207C17.4907 21.0421 17.7317 21.919 18.3011 21.7976H18.2981Z" fill="white"/>
<path d="M17.9876 16.7371C27.402 13.9366 38.2986 14.859 46.0349 21.352C46.4778 21.7252 47.1225 21.085 46.6736 20.7088C38.6842 14.0003 27.4954 12.9596 17.7526 15.8542C17.1953 16.021 17.4333 16.8979 17.9936 16.731L17.9876 16.7371Z" fill="white"/>
<path d="M17.8881 17.1256C18.0079 17.1256 18.1229 17.0776 18.2076 16.9923C18.2924 16.9069 18.34 16.7912 18.34 16.6705C18.34 16.5497 18.2924 16.434 18.2076 16.3486C18.1229 16.2633 18.0079 16.2153 17.8881 16.2153C17.7682 16.2153 17.6533 16.2633 17.5686 16.3486C17.4838 16.434 17.4362 16.5497 17.4362 16.6705C17.4362 16.7912 17.4838 16.9069 17.5686 16.9923C17.6533 17.0776 17.7682 17.1256 17.8881 17.1256Z" fill="white"/>
<path d="M17.8611 20.6748C17.1833 20.5261 16.2795 20.4897 16.0084 21.1299C15.9486 21.3105 15.9122 21.4982 15.8999 21.6882C15.7884 22.4619 15.2974 23.1294 14.8304 23.7453C14.3635 24.3612 13.8363 24.9832 13.6254 25.7387C13.4145 26.4942 13.6043 27.4227 14.2731 27.8232C14.7913 28.1266 15.445 28.0508 16.0415 27.9597C15.3998 28.9125 14.8847 30.1291 15.3305 31.1881C15.4794 31.542 15.7254 31.8459 16.0397 32.064C16.3539 32.2822 16.7235 32.4055 17.1049 32.4195C17.4864 32.4335 17.8638 32.3376 18.1931 32.1432C18.5223 31.9487 18.7897 31.6637 18.9637 31.3216" fill="white"/>
<path d="M17.9813 20.2351C17.2463 20.1077 16.3455 19.9985 15.8032 20.6326C15.4538 21.0392 15.517 21.5428 15.3574 22.0192C15.0561 22.9598 14.2608 23.6455 13.7426 24.4465C12.3689 26.6068 13.4594 28.7459 16.0442 28.3909L15.6526 27.7052C14.7488 29.1464 14.1192 31.2127 15.7731 32.3899C17.0384 33.3001 18.5688 32.751 19.3581 31.5252C19.6744 31.0306 18.8941 30.5755 18.5778 31.067C17.7915 32.2807 16.3274 32.1502 15.8484 30.8486C15.4658 29.8139 15.8725 29.0645 16.4359 28.1664C16.6016 27.8994 16.3907 27.4352 16.0442 27.4807C14.9868 27.6233 13.7697 27.1439 14.0649 25.8362C14.2427 25.0503 14.9085 24.3889 15.3664 23.7638C16.0653 22.8111 16.3063 20.8389 17.7433 21.0908C18.3127 21.1909 18.5567 20.314 17.9843 20.2139L17.9813 20.2351Z" fill="white"/>
<path d="M17.9214 20.3904C17.2195 20.2326 16.4633 20.4238 15.7825 20.1871C15.1016 19.9504 14.5774 19.2769 14.2762 18.6063C13.9253 17.9455 13.7754 17.1951 13.8454 16.449C13.886 16.0784 14.0253 15.7257 14.2485 15.4282C14.4718 15.1307 14.7707 14.8995 15.1137 14.759C14.3063 14.4556 13.7791 13.6151 13.5893 12.7625C13.4488 11.8985 13.4488 11.0172 13.5893 10.1532" fill="white"/>
<path d="M17.9212 19.9348C16.5505 19.7679 15.3334 19.7436 14.6555 18.3783C14.0982 17.2587 14.0681 15.7568 15.3334 15.153C15.4008 15.1123 15.4565 15.0547 15.4953 14.9858C15.534 14.917 15.5543 14.8392 15.5543 14.76C15.5543 14.6809 15.534 14.6031 15.4953 14.5343C15.4565 14.4654 15.4008 14.4078 15.3334 14.3671C13.7277 13.5267 13.8693 11.7031 14.0229 10.1527C14.0801 9.57014 13.1764 9.57318 13.1191 10.1527C12.9293 12.0703 12.9655 14.1517 14.8785 15.153V14.3671C13.336 15.1044 13.1071 16.8278 13.6523 18.3115C13.9079 19.1085 14.4013 19.8067 15.0653 20.311C15.9238 20.8936 16.9451 20.7206 17.9212 20.839C18.4966 20.9087 18.4936 19.9985 17.9212 19.9287V19.9348Z" fill="white"/>
<path d="M13.8212 9.84329C14.0441 7.46756 16.5144 5.56515 18.8492 5.9687C19.1291 4.86469 19.7032 3.85873 20.5096 3.05958C21.316 2.26043 22.324 1.69849 23.4245 1.43451C24.525 1.17053 25.6763 1.21455 26.7538 1.56183C27.8313 1.9091 28.794 2.5464 29.5379 3.40484C31.3123 1.76033 33.8339 0.79244 36.1807 1.34465C38.5275 1.89687 40.4797 4.22709 40.1814 6.6362C41.1131 6.04737 42.1757 5.70134 43.2733 5.6293C44.3709 5.55726 45.469 5.76149 46.4687 6.22356C47.5472 6.73633 48.5113 7.6041 48.8788 8.74493C49.2463 9.88577 48.927 11.2966 47.9298 11.9581C50.0387 10.8719 52.9247 12.5649 53.1778 14.9164C53.4308 17.2678 51.1503 19.5101 48.8005 19.3371C49.4067 19.1356 50.0494 19.0704 50.6833 19.146C51.307 19.2673 51.9095 19.7528 51.9486 20.396C51.9434 20.6618 51.8699 20.9217 51.7353 21.1504C51.6007 21.379 51.4095 21.5686 51.1804 21.7007C49.9091 22.529 48.1678 21.9738 46.9809 21.0332C45.7939 20.0926 44.872 18.8122 43.6278 17.9596C42.3204 17.0676 40.7026 16.6853 39.4855 15.6749C39.1894 15.3662 38.8308 15.1251 38.4341 14.968C37.8979 14.8254 37.3466 15.0863 36.8043 15.1955C35.7469 15.4109 34.6714 15.062 33.626 14.795C28.4263 13.4661 22.9042 14.1882 17.7376 15.6506C17.5093 15.6946 17.2993 15.8067 17.135 15.9723C16.7434 16.4547 17.2736 17.1131 17.5779 17.6562C17.7692 18.0103 17.8661 18.4083 17.8593 18.8113C17.8524 19.2144 17.742 19.6088 17.5387 19.9561" fill="white"/>
<path d="M14.2582 9.97975C14.4052 8.89901 14.9701 7.92051 15.83 7.25732C16.6899 6.59413 17.7752 6.29997 18.8494 6.4389C18.9484 6.43869 19.0446 6.40599 19.1234 6.34576C19.2022 6.28553 19.2594 6.20105 19.2863 6.10514C19.567 5.09331 20.1121 4.17583 20.8647 3.44832C21.6172 2.7208 22.5498 2.20989 23.5651 1.96881C24.5804 1.72773 25.6413 1.76532 26.6373 2.07765C27.6333 2.38997 28.5279 2.96561 29.2278 3.74458C29.3137 3.82765 29.4281 3.87405 29.5472 3.87405C29.6662 3.87405 29.7807 3.82765 29.8665 3.74458C31.5897 2.22751 33.9727 1.19894 36.2773 1.86038C37.3095 2.14286 38.2147 2.77235 38.8427 3.64436C39.4707 4.51637 39.7837 5.57846 39.7298 6.65432C39.7303 6.73433 39.7517 6.81279 39.7917 6.8819C39.8317 6.95102 39.889 7.00838 39.9578 7.04827C40.0267 7.08816 40.1047 7.10919 40.1842 7.10928C40.2636 7.10937 40.3417 7.08851 40.4106 7.04877C42.17 6.00502 44.3541 5.74105 46.24 6.63612C48.1259 7.53119 49.6352 10.0435 47.6258 11.6576C47.192 12.0066 47.7463 12.5679 48.1741 12.3737C49.9816 11.5818 52.2501 12.7651 52.693 14.6948C53.2292 17.0099 50.9186 18.9426 48.8128 18.9062L48.9333 19.8013C49.2195 19.7134 49.5145 19.6574 49.8129 19.6344C50.6163 19.4018 51.0742 19.9075 51.1867 21.1515C50.8252 21.7583 49.4424 21.6703 48.9664 21.558C47.8487 21.291 46.9901 20.4991 46.1978 19.7133C44.9386 18.4632 43.8179 17.4559 42.2031 16.6943C41.3555 16.3308 40.5477 15.8793 39.793 15.3472C39.3652 15.0255 38.9857 14.6432 38.4434 14.5401C37.63 14.3853 36.8256 14.8222 36.0182 14.8253C34.9036 14.8253 33.7648 14.358 32.6743 14.1365C28.9597 13.3871 25.1217 13.6086 21.4192 14.3277C20.5154 14.5037 19.6116 14.713 18.7079 14.9345C18.1445 15.0801 17.2949 15.1651 16.8672 15.6293C16.7456 15.7623 16.6569 15.9223 16.6082 16.0962C16.5595 16.2702 16.5523 16.4533 16.587 16.6306C16.7527 17.8837 17.9637 17.9747 17.1533 19.7406C16.9093 20.2685 17.6896 20.7328 17.9336 20.1987C18.2975 19.5232 18.3933 18.7338 18.2017 17.9899C18.1174 17.6865 17.8282 17.3831 17.7709 17.1009C17.5149 15.781 18.5753 15.8872 19.4851 15.6718C21.9699 15.0378 24.515 14.6736 27.0769 14.5856C29.7882 14.5128 32.2314 15.0619 34.8494 15.5838C35.7531 15.7628 36.4882 15.6354 37.3558 15.5565C38.2235 15.4776 38.5006 15.4989 39.2327 16.0541C39.6213 16.3544 40.0322 16.6242 40.4618 16.8612C41.4349 17.3891 42.5014 17.7411 43.4202 18.3783C44.339 19.0154 45.0922 19.9317 45.9207 20.7115C47.1257 21.8433 48.7766 22.9173 50.5089 22.5017C51.6145 22.2377 52.7713 21.1727 52.3164 19.9317C51.7621 18.4147 49.9214 18.621 48.7013 18.9214C48.5988 18.9537 48.511 19.0215 48.4534 19.1128C48.3958 19.2041 48.3721 19.3129 48.3866 19.4201C48.401 19.5273 48.4526 19.6259 48.5323 19.6984C48.6119 19.7709 48.7145 19.8127 48.8218 19.8164C51.5331 19.8559 54.2445 17.3375 53.5727 14.4521C52.9701 11.8973 50.0329 10.5684 47.7222 11.5878L48.2705 12.3039C50.2196 10.7383 49.6051 8.01059 47.8427 6.57544C45.5953 4.75496 42.3658 4.83384 39.9587 6.27203L40.6396 6.66646C40.8113 4.19667 39.1996 1.96961 36.916 1.12611C34.2047 0.121813 31.2945 1.293 29.2218 3.11045H29.8605C29.0469 2.22294 28.0131 1.56996 26.8656 1.21878C25.718 0.867602 24.4983 0.830919 23.332 1.11252C22.1657 1.39412 21.0951 1.98382 20.2304 2.82086C19.3657 3.65789 18.7382 4.712 18.4126 5.87456L18.8494 5.5408C17.5761 5.39884 16.2975 5.75717 15.2801 6.54115C14.2626 7.32512 13.5847 8.47426 13.3876 9.74915C13.3032 10.3226 14.1739 10.5684 14.2582 9.99188V9.97975Z" fill="white"/>
<path d="M13.8424 10.3005C13.7621 11.127 13.816 11.9612 14.002 12.7703C14.0804 13.1252 14.6739 13.2436 14.8275 12.8795C15.0093 12.5026 15.0592 12.0749 14.9691 11.6658C14.8606 11.0833 14.0141 11.3412 14.0985 11.9086C14.2858 13.147 14.7027 14.3389 15.3276 15.4221C15.3788 15.507 15.4561 15.5728 15.5477 15.6096C15.6393 15.6464 15.7403 15.6522 15.8354 15.6262C15.9306 15.6002 16.0148 15.5437 16.0754 15.4653C16.1359 15.3869 16.1695 15.2908 16.1711 15.1915C16.1944 14.5832 16.0918 13.9767 15.8699 13.4105C15.668 12.8734 14.8486 13.0737 14.9992 13.6532L15.6258 16.0562C15.658 16.1594 15.7253 16.2479 15.8159 16.3059C15.9065 16.3639 16.0146 16.3877 16.121 16.3732C16.2275 16.3587 16.3253 16.3067 16.3973 16.2265C16.4694 16.1462 16.5109 16.043 16.5146 15.9349C16.558 14.9957 16.4994 14.0546 16.3398 13.1283L15.4692 13.371L15.9241 14.973C15.9588 15.0861 16.0359 15.1812 16.139 15.238C16.2421 15.2948 16.3631 15.3089 16.4764 15.2773C16.5897 15.2457 16.6863 15.1709 16.7457 15.0688C16.8051 14.9667 16.8227 14.8453 16.7947 14.7303L16.3398 13.1283C16.1771 12.5548 15.3728 12.8036 15.4692 13.371C15.6092 14.2179 15.6567 15.0776 15.6108 15.9349L16.4995 15.8135L15.8729 13.4105L15.0022 13.6532C15.1918 14.1427 15.278 14.6666 15.2553 15.1915L16.0988 14.9609C15.5208 13.9426 15.1386 12.8237 14.9721 11.6628L14.1015 11.9055L14.0503 12.4335L14.8757 12.5427C14.7127 11.8123 14.669 11.0601 14.7462 10.3156C14.8034 9.73308 13.8966 9.73611 13.8424 10.3156V10.3005Z" fill="white"/>
<path d="M37.2198 15.4321C37.9992 15.8948 38.8373 16.249 39.7112 16.4849C39.807 16.5094 39.9081 16.5018 39.9993 16.4632C40.0904 16.4246 40.1666 16.3572 40.2163 16.2712C40.266 16.1851 40.2865 16.0851 40.2747 15.9863C40.263 15.8874 40.2195 15.7951 40.151 15.7233C39.667 15.2839 39.1169 14.9245 38.5212 14.6584C38.0031 14.4278 37.5451 15.1529 38.0663 15.4442L39.1057 16.0237V15.2379C38.9856 15.3132 38.8443 15.3469 38.7034 15.3338C38.5625 15.3206 38.4297 15.2614 38.3254 15.1651C37.9187 14.7463 37.28 15.3896 37.6867 15.8083C38.2079 16.3453 38.9068 16.3241 39.5606 16.0237C39.628 15.983 39.6837 15.9254 39.7225 15.8566C39.7612 15.7877 39.7815 15.7099 39.7815 15.6308C39.7815 15.5517 39.7612 15.4739 39.7225 15.405C39.6837 15.3362 39.628 15.2786 39.5606 15.2379L38.5242 14.6584L38.0693 15.4442C38.596 15.6689 39.084 15.9761 39.5154 16.3544L39.9552 15.5929C39.1572 15.3779 38.3919 15.0543 37.6807 14.631C37.5776 14.5754 37.457 14.5623 37.3444 14.5943C37.2318 14.6264 37.1359 14.7012 37.077 14.803C37.0181 14.9049 37.0006 15.0257 37.0284 15.1402C37.0561 15.2547 37.1269 15.3539 37.2258 15.4169L37.2198 15.4321Z" fill="white"/>
<path d="M44.2848 31.2428C44.1705 31.9131 44.2375 32.602 44.4787 33.2373C44.7199 33.8726 45.1264 34.4308 45.6555 34.8534C45.8779 35.0485 46.1393 35.1934 46.422 35.2782C46.7047 35.3629 47.0022 35.3857 47.2944 35.3449C48.0626 35.178 48.5476 34.4134 48.8308 33.6731C49.114 32.9328 49.2767 31.9922 48.8097 31.3247C48.7314 31.2408 48.6799 31.135 48.6621 31.0213C48.6621 30.7998 48.9272 30.7027 49.1351 30.6329C49.5263 30.4992 49.873 30.2588 50.1366 29.9384C50.4002 29.618 50.5703 29.2302 50.6281 28.8183C50.6858 28.4063 50.629 27.9862 50.4638 27.6048C50.2986 27.2235 50.0316 26.8958 49.6924 26.6582C49.5448 26.555 49.3701 26.4519 49.3188 26.2789C49.2224 25.9755 49.5719 25.7146 49.7858 25.4688C50.4425 24.7194 49.9183 23.4814 49.114 22.8928C48.3096 22.3042 47.2914 22.0705 46.496 21.4698C46.2972 21.9128 46.5653 22.4104 46.7551 22.8564C47.21 23.9396 47.1859 25.1563 47.1558 26.3335C47.1287 27.4379 47.0383 28.6789 46.2068 29.398C45.8303 29.7227 45.3482 29.8926 44.9566 30.199C44.565 30.5055 44.2727 31.0486 44.4896 31.4946" fill="white"/>
<path d="M43.8327 31.2433C43.6038 33.1943 45.1281 36.5561 47.5955 35.7157C48.5173 35.4123 49.0445 34.4777 49.3337 33.5918C49.5314 33.0637 49.5966 32.4947 49.5235 31.9351C49.4691 31.7737 49.4229 31.6097 49.385 31.4436C49.3307 30.5971 49.0837 31.4618 49.7344 30.8368C50.4846 30.1298 51.1443 29.5381 51.0961 28.3882C51.0707 27.8933 50.9158 27.4139 50.6472 26.9986C50.2646 26.413 49.8609 26.4767 50.1019 25.7849C50.4213 24.8504 50.7406 24.368 50.1381 23.3576C49.391 22.1227 47.8545 21.8102 46.7188 21.0638C46.6589 21.0294 46.5919 21.0092 46.5231 21.0047C46.4542 21.0002 46.3853 21.0115 46.3214 21.0379C46.2576 21.0642 46.2005 21.1047 46.1545 21.1566C46.1085 21.2084 46.0749 21.27 46.056 21.3369C45.9174 22.3351 46.4055 22.945 46.5983 23.925C46.8096 25.115 46.8096 26.3334 46.5983 27.5235C46.3242 29.0405 45.1764 29.1437 44.3629 30.1359C44.195 30.3365 44.0794 30.5761 44.0268 30.8331C43.9742 31.0901 43.9862 31.3563 44.0617 31.6074C44.1822 32.1809 45.0528 31.9382 44.9323 31.3647C44.7666 30.5758 46.4386 29.8992 46.8815 29.3258C47.2725 28.7482 47.5025 28.0755 47.5473 27.3778C47.6564 26.4402 47.6715 25.4938 47.5925 24.5531C47.5171 23.6428 46.8212 22.4292 46.9387 21.5826L46.2759 21.8557C47.0683 22.3776 48.0474 22.6385 48.7824 23.2332C49.6019 23.8946 49.6621 24.4469 49.2373 25.3874C49.162 25.5543 48.9572 25.6635 48.9361 25.8547C48.8923 26.0011 48.8845 26.156 48.9134 26.3061C48.9423 26.4562 49.0069 26.597 49.1018 26.7164C49.2313 26.9257 49.5778 27.0926 49.7043 27.2383C50.0151 27.5768 50.183 28.0239 50.1723 28.4848C50.1616 28.9458 49.9732 29.3845 49.647 29.7081C48.8577 30.5333 48.0895 30.3149 48.442 31.5498C48.5771 31.9835 48.6174 32.4416 48.5602 32.8925C48.503 33.3434 48.3496 33.7766 48.1106 34.1622L46.279 34.7023C44.9805 34.3988 44.6341 32.3023 44.7727 31.2373C44.842 30.6578 43.9352 30.6608 43.8689 31.2373L43.8327 31.2433Z" fill="white"/>
<path d="M43.1817 23.9642C43.312 23.645 43.4629 23.3349 43.6336 23.0357C43.8183 22.6742 44.0857 22.3622 44.4139 22.1255L46.1341 22.9447C46.4865 23.5121 46.2305 25.0473 46.2305 25.7118C46.2305 26.5128 46.2696 27.323 46.2305 28.124C46.2337 28.4301 46.2014 28.7356 46.1341 29.0342L44.6278 30.0173C44.1699 30.1538 43.0793 30.0173 42.9287 29.5318C42.7539 28.9766 41.8803 29.2284 42.058 29.7745C42.5009 31.1763 44.447 31.1733 45.6189 30.7515C47.5741 30.0476 47.1553 27.6415 47.1523 25.9788C47.1523 24.5406 47.562 21.9495 45.9322 21.1545C44.2331 20.3262 43.001 22.1892 42.4195 23.4878C42.1815 24.0188 42.9618 24.48 43.1998 23.946L43.1817 23.9642Z" fill="white"/>
<path d="M36.7164 15.6867C39.0602 15.9476 41.3317 17.4526 43.2748 18.7208C43.7629 19.0424 44.2148 18.2536 43.7297 17.935C41.6209 16.5362 39.2771 15.0495 36.7134 14.7643C36.135 14.7006 36.141 15.6108 36.7134 15.6745L36.7164 15.6867Z" fill="white"/>
<path d="M18.2587 18.9454C22.675 17.7985 27.2408 17.3461 31.7943 17.6043C36.2319 17.8683 40.1483 19.3641 43.905 21.7125C44.4021 22.016 44.854 21.2362 44.3599 20.9267C40.6393 18.6025 36.7139 17.0491 32.3095 16.7305C27.5 16.4009 22.6692 16.8537 18.0027 18.0716C17.4393 18.2172 17.6773 19.0941 18.2437 18.9484L18.2587 18.9454Z" fill="white"/>
<path d="M25.7119 24.301L24.2056 27.675C23.7928 28.5852 23.1602 29.632 23.0879 30.6667C22.9614 32.4872 24.1664 32.4872 25.4196 33.1486C25.9348 33.4186 26.3927 32.6358 25.8745 32.3628C25.513 32.1716 24.9708 32.1443 24.6695 31.941C23.3349 31.0975 24.3683 29.5653 24.7629 28.652L26.5072 24.7592C26.7452 24.2282 25.9649 23.767 25.7269 24.301H25.7119Z" fill="white"/>
<path d="M28.4475 22.9961C28.089 24.1005 29.0862 24.8742 30.1135 24.7923C31.6499 24.6709 33.3821 23.436 34.6324 22.6168C35.1174 22.2982 34.6655 21.5094 34.1775 21.831C33.4898 22.2887 32.7778 22.708 32.0445 23.0871C31.6559 23.2843 28.8753 24.6315 29.3332 23.2358C29.514 22.6775 28.6433 22.4378 28.4626 22.993L28.4475 22.9961Z" fill="white"/>
<path d="M29.6136 27.2894C31.0184 26.6866 32.5844 26.5797 34.0571 26.986C34.1713 27.0142 34.2919 26.9965 34.3933 26.9366C34.4947 26.8768 34.5689 26.7795 34.6003 26.6654C34.6316 26.5513 34.6176 26.4294 34.5612 26.3256C34.5048 26.2217 34.4104 26.1441 34.2982 26.1091C32.6695 25.6553 30.9371 25.762 29.3756 26.4126C28.8454 26.6341 29.0743 27.514 29.6166 27.2894H29.6136Z" fill="white"/>
<path d="M20.2892 24.6286C20.7474 24.3815 21.24 24.2056 21.7503 24.1067C21.9311 24.0734 23.0337 23.867 23.1241 24.1462C23.2988 24.7014 24.1725 24.4496 23.9947 23.9034C23.5007 22.3439 20.7743 23.3452 19.8343 23.8428C19.3192 24.1158 19.7741 24.9017 20.2892 24.6286Z" fill="white"/>
<path d="M21.1239 26.1514V28.0932C21.1243 28.1632 21.1406 28.2322 21.1716 28.2949C21.2027 28.3576 21.2475 28.4123 21.3028 28.4548C21.3581 28.4973 21.4223 28.5264 21.4905 28.54C21.5587 28.5536 21.6291 28.5513 21.6963 28.5332C22.0246 28.4217 22.2982 28.1881 22.4611 27.8801C22.6241 27.5722 22.6641 27.2132 22.5729 26.8765C22.5382 26.7634 22.4612 26.6684 22.3581 26.6116C22.2549 26.5548 22.1339 26.5407 22.0206 26.5723C21.9074 26.6038 21.8108 26.6786 21.7513 26.7807C21.6919 26.8829 21.6743 27.0043 21.7023 27.1193C21.7355 27.2237 21.7286 27.3368 21.6828 27.4363C21.6371 27.5358 21.5558 27.6143 21.4553 27.6563L22.0277 28.0963V26.1544C22.0277 26.0337 21.9801 25.9179 21.8953 25.8326C21.8106 25.7472 21.6956 25.6993 21.5758 25.6993C21.4559 25.6993 21.341 25.7472 21.2562 25.8326C21.1715 25.9179 21.1239 26.0337 21.1239 26.1544V26.1514Z" fill="white"/>
<path d="M24.1456 32.4897C23.6228 32.4754 23.1046 32.5921 22.6377 32.8294C22.1707 33.0666 21.7696 33.417 21.4704 33.849C20.8804 34.7229 20.5502 35.748 20.5184 36.8043C20.4554 37.3013 20.5294 37.8062 20.7323 38.2637C20.8379 38.4881 21.0114 38.673 21.2279 38.7919C21.4445 38.9107 21.6928 38.9574 21.9373 38.9251C22.5398 38.7856 22.8019 38.1059 23.1785 37.6174C23.5621 37.1509 24.096 36.8348 24.6872 36.7239C25.2784 36.613 25.8895 36.7144 26.4141 37.0106C27.0166 37.3716 27.4293 37.9633 27.9716 38.4002C28.5138 38.8371 29.3182 39.1072 29.8936 38.7036C30.3907 38.3638 30.4961 37.6842 30.5142 37.0773C30.5399 36.4357 30.4311 35.7957 30.1949 35.1992C29.7098 34.0796 28.6102 33.3271 27.4504 32.9752C26.2905 32.6232 25.0554 32.6171 23.8353 32.6111" fill="white"/>
<path d="M24.1456 32.0348C21.3529 32.0742 19.2441 35.5088 20.2292 38.1546C20.5305 38.9617 21.2927 39.6201 22.1904 39.3197C22.7929 39.1165 23.0038 38.6188 23.3774 38.1577C24.5101 36.765 25.8447 37.0168 27.0678 38.1577C27.8571 38.8859 28.8362 39.7263 29.9629 39.1953C31.0896 38.6644 31.0927 37.1776 30.93 36.1399C30.3877 32.681 26.7334 32.1956 23.8684 32.1774C23.7486 32.1774 23.6337 32.2253 23.5489 32.3107C23.4642 32.396 23.4166 32.5118 23.4166 32.6325C23.4166 32.7532 23.4642 32.8689 23.5489 32.9543C23.6337 33.0397 23.7486 33.0876 23.8684 33.0876C26.0526 33.0876 29.1857 33.2029 29.9418 35.791C30.0654 36.2158 30.2431 37.2322 30.0262 37.7116C29.3393 39.2712 28.2186 37.9847 27.7065 37.5144C27.1944 37.0441 26.7304 36.5617 26.0104 36.3523C25.4434 36.1956 24.8435 36.2066 24.2825 36.3842C23.7215 36.5618 23.2232 36.8983 22.8472 37.3536C22.2959 37.9999 22.6815 38.1819 21.6783 37.6752C20.7263 37.1928 20.895 36.856 21.127 35.8214C21.4704 34.2861 22.4796 32.9814 24.1577 32.9571C24.2775 32.9571 24.3924 32.9092 24.4772 32.8238C24.5619 32.7385 24.6095 32.6227 24.6095 32.502C24.6095 32.3813 24.5619 32.2655 24.4772 32.1802C24.3924 32.0948 24.2775 32.0469 24.1577 32.0469L24.1456 32.0348Z" fill="white"/>
<path d="M23.5066 39.0976C23.869 39.3291 24.2917 39.4469 24.7208 39.4361C25.1499 39.4253 25.5661 39.2864 25.9166 39.0369C26.3806 38.694 25.9166 37.9052 25.4617 38.2511C25.2489 38.4195 24.9888 38.516 24.7183 38.5269C24.4479 38.5378 24.1809 38.4625 23.9554 38.3117C23.4644 38.0083 23.0095 38.782 23.5005 39.0976H23.5066Z" fill="white"/>
<path d="M44.2484 25.1838C44.1068 24.8227 44.6039 25.023 44.7184 25.1838C44.9956 25.5752 44.7184 26.2184 44.5858 26.6129C44.396 27.1681 45.2667 27.4048 45.4565 26.8556C45.7577 25.9453 45.9566 24.7135 44.9112 24.2068C44.1068 23.8184 42.9922 24.4434 43.3748 25.4204C43.5857 25.9605 44.4593 25.7239 44.2454 25.1777L44.2484 25.1838Z" fill="white"/>
<path d="M35.3916 46.7295C32.8021 47.2751 30.3761 48.4256 28.3089 50.0883C27.854 50.4523 28.4957 51.0926 28.9476 50.7315C30.9016 49.1778 33.1902 48.1074 35.6296 47.6063C36.1989 47.485 35.9579 46.6081 35.3885 46.7295H35.3916Z" fill="white"/>
<path d="M59.8987 51.7141C60.4952 53.1341 60.2452 54.7482 60.8688 56.1682C60.9939 56.4545 61.0874 65.9909 60.8688 66.0915H20.4051C19.5929 65.7848 17.664 64.7418 16.4458 63.0241C15.2276 61.3064 15.126 59.65 15.2276 59.0365C14.923 59.4455 13.9485 60.2021 12.4867 59.9567C11.0248 59.7114 10.2532 58.4231 10.0502 57.8096C9.64411 57.9118 8.71013 57.9936 8.22283 57.5028C7.73554 57.0121 7.81676 55.8669 7.91828 55.3557L6.69991 54.1287L1.82697 57.1961C1.42089 57.2984 0.547817 57.3188 0.30417 56.5826C0.0605222 55.8465 4.0604 52.7995 6.09079 51.3681L12.4867 47.994C12.1821 46.9715 11.5729 44.6812 11.5729 43.6997C11.5729 42.4727 11.8776 40.3256 12.4867 40.3256C12.9739 40.3256 13.5018 40.5301 13.7048 40.6323C13.6033 41.348 13.4612 43.0249 13.7048 44.0064C13.9485 44.988 19.8975 53.2085 22.8416 57.1961L23.7553 56.5826C23.8568 55.2831 24.6688 52.3596 27.1054 51.0614C30.151 49.5277 33.8057 47.1962 35.633 47.1962C36.6076 45.8218 38.4756 46.133 39.2878 46.4603C39.5924 46.0513 40.1406 44.9266 39.8969 43.6997C39.6533 42.4727 38.1711 42.166 37.4604 42.166C35.8361 43.0862 31.2474 44.5585 25.8872 43.0862C20.527 41.6139 19.1869 34.7021 19.1869 31.4302L17.6641 30.51L17.9687 14.2529C22.1107 10.0813 39.5924 14.3552 47.8155 17.0136C47.6124 19.9787 47.1454 27.872 46.9018 35.7245C46.6581 43.577 47.7586 45.6065 48.3394 45.6397C49.7553 46.7988 51.9515 46.5682 53.6144 47.1962C54.95 47.6879 56.2328 48.3141 57.4434 49.0653C58.4738 49.7206 59.4167 50.5611 59.8987 51.7141Z" fill="#F9F9F9"/>
<path d="M13.1584 47.9946C12.5967 46.9096 12.2624 45.7198 12.1763 44.4993C12.1341 44.0017 11.9444 40.3425 13.1916 40.9554C13.7128 41.2133 14.1707 40.4274 13.6465 40.1695C12.1552 39.4353 11.4202 40.9159 11.2846 42.2115C11.0269 44.3551 11.4075 46.5275 12.3782 48.4527C12.6523 48.9686 13.4326 48.5104 13.1584 47.9946Z" fill="white"/>
<path d="M13.3006 44.0872C13.7826 46.4993 15.7679 48.8174 17.1507 50.7623C18.7233 52.9651 20.4043 55.086 22.0161 57.2584C22.3595 57.7226 23.1458 57.2584 22.7963 56.8002C21.2569 54.7249 19.6542 52.6981 18.1419 50.6015C16.741 48.6536 14.6533 46.2778 14.1682 43.8505C14.0538 43.2771 13.1831 43.5198 13.2976 44.0932L13.3006 44.0872Z" fill="white"/>
<path d="M12.5108 47.688C9.33554 48.9017 6.09097 50.1912 3.58449 52.5882C2.92774 53.2163 2.29811 53.8807 1.67149 54.5391C1.20755 55.0276 0.24954 55.7528 0.0476959 56.4264C-0.154148 57.1 0.312804 57.4641 0.918337 57.6673C1.7227 57.9404 2.32221 57.546 2.99101 57.0787C3.79838 56.5174 4.49731 55.8256 5.33481 55.3189C7.22371 54.1751 9.09755 53.0069 11.0045 51.8903C11.1034 51.8273 11.1742 51.7281 11.2019 51.6137C11.2297 51.4992 11.2123 51.3783 11.1533 51.2765C11.0944 51.1747 10.9985 51.0999 10.8859 51.0678C10.7733 51.0357 10.6528 51.0489 10.5496 51.1045C8.39862 52.3728 5.98854 53.5773 4.01529 55.1217C3.35252 55.6405 2.7018 56.3627 1.90647 56.6904C1.67751 56.7875 1.25274 57.0271 1.00269 56.7905C0.861097 56.6539 1.24069 56.3232 1.47266 56.0653C2.44207 54.9509 3.47407 53.8933 4.56358 52.8977C6.90437 50.8163 9.85973 49.6724 12.7368 48.5649C13.273 48.3586 13.038 47.4757 12.4958 47.688H12.5108Z" fill="white"/>
<path d="M6.81372 53.2923C5.90994 53.7414 6.2112 54.9733 6.97339 55.4314C8.34111 56.2658 10.8114 55.4314 12.1792 55.0097C13.2034 54.7062 15.4689 54.3482 15.4207 52.8463C15.3665 51.1593 12.7094 51.7115 11.7092 51.7055C11.5893 51.7055 11.4744 51.7534 11.3897 51.8388C11.3049 51.9241 11.2573 52.0399 11.2573 52.1606C11.2573 52.2813 11.3049 52.3971 11.3897 52.4824C11.4744 52.5678 11.5893 52.6157 11.7092 52.6157C11.9592 52.6157 13.9626 52.464 14.05 52.6157C14.5712 53.5624 12.3569 53.9962 11.9412 54.1328C11.2247 54.358 10.494 54.5344 9.75402 54.6607C9.24106 54.7442 8.72213 54.7848 8.20253 54.7821C7.67432 54.8832 7.36502 54.6476 7.27465 54.0752C7.79583 53.8142 7.33791 53.0284 6.81975 53.2893L6.81372 53.2923Z" fill="white"/>
<path d="M7.85906 55.2923C7.71221 55.4572 7.59989 55.6503 7.52881 55.8599C7.45773 56.0695 7.42936 56.2915 7.44539 56.5124C7.46142 56.7333 7.52152 56.9487 7.62211 57.1457C7.72269 57.3427 7.86168 57.5173 8.03078 57.6589C9.17858 58.7088 11.2 57.9381 12.4442 57.5497C13.333 57.2706 16.0835 56.7153 16.2491 55.5441C16.3968 54.4883 14.8935 54.0544 14.1253 53.9785C13.5468 53.9209 13.5499 54.8311 14.1253 54.8888C16.9722 55.174 13.1582 56.3634 12.4593 56.5909C11.9502 56.7578 11.435 56.8943 10.9138 57.0369C10.6809 57.0996 10.4449 57.1543 10.2059 57.2008C9.1595 57.5528 8.59012 57.132 8.49773 55.9386C8.87431 55.4956 8.23865 54.8493 7.85906 55.2953V55.2923Z" fill="white"/>
<path d="M15.4033 61.6967C16.533 63.3625 19.1329 61.4358 20.2054 60.5923C20.9766 59.9855 24.2121 57.6765 22.8896 56.5023C22.4558 56.1169 21.8141 56.7571 22.2509 57.1455C22.4648 57.3367 20.3229 59.3149 20.0999 59.5091C19.6209 59.9187 16.8343 62.2004 16.1835 61.2416C15.8582 60.7592 15.0749 61.2143 15.4033 61.6997V61.6967Z" fill="white"/>
<path d="M15.0266 61.8001C15.8701 62.8439 16.7076 63.8967 17.5602 64.9344C18.0211 65.4927 18.4218 66.0904 19.181 66.2118C20.7445 66.4606 22.6244 65.1346 23.7873 64.2517C24.8115 63.475 26.0678 62.5344 25.9503 61.0901C25.8027 59.2909 23.8264 57.6221 22.6696 56.4418C22.2599 56.0231 21.6212 56.6694 22.0309 57.0851C22.9347 58.0135 24.0072 59.0087 24.6669 60.1465C25.6942 61.9184 23.8053 63.1807 22.54 64.0272C21.0608 65.0042 19.7082 65.7142 18.1989 64.2851C17.2529 63.3748 16.4847 62.1612 15.6653 61.1508C15.2977 60.6957 14.6621 61.345 15.0266 61.794V61.8001Z" fill="white"/>
<path d="M17.5868 64.4577C20.9007 64.2999 23.3589 61.6875 24.6062 58.7717C24.8351 58.2407 24.0549 57.7765 23.8259 58.3135C22.7143 60.9077 20.5723 63.4079 17.5898 63.5505C17.0114 63.5778 17.0084 64.488 17.5898 64.4607L17.5868 64.4577Z" fill="white"/>
<path d="M9.72998 58.1224C10.2481 59.5636 11.4472 60.5861 13.0438 60.5163C13.9988 60.4769 14.6315 59.952 15.4539 59.5181C16.2071 59.1176 17.0295 58.9962 17.5899 58.3044C17.9544 57.8554 17.3187 57.2061 16.9512 57.6612C16.436 58.2984 15.3123 58.5714 14.5893 58.9871C13.0529 59.8458 11.2754 59.7305 10.6247 57.8766C10.4289 57.3305 9.55525 57.5732 9.75408 58.1194L9.72998 58.1224Z" fill="white"/>
<path d="M14.6015 59.7457C14.8758 60.3993 15.1949 61.033 15.5565 61.6421C15.6191 61.7417 15.7175 61.8129 15.8312 61.8409C15.9449 61.8688 16.0649 61.8513 16.166 61.7919C16.2671 61.7326 16.3414 61.636 16.3732 61.5226C16.4051 61.4092 16.392 61.2878 16.3368 61.1839C15.9752 60.5748 15.6561 59.9412 15.3818 59.2876C15.3208 59.184 15.2219 59.1088 15.1063 59.0781C14.9908 59.0475 14.8679 59.0639 14.7642 59.1237C14.6631 59.1867 14.5899 59.2863 14.5597 59.402C14.5294 59.5178 14.5444 59.6408 14.6015 59.7457Z" fill="white"/>
<path d="M28.4776 49.4511C27.131 50.1884 25.8115 50.9986 24.8806 52.2547C23.8021 53.705 23.3743 55.4982 22.9797 57.2337C22.8501 57.8041 23.7208 58.0469 23.8503 57.4765C24.1907 55.9897 24.5251 54.4089 25.3777 53.1225C26.2303 51.836 27.5709 50.9986 28.9326 50.24C29.4447 49.9609 28.9868 49.175 28.4776 49.4542V49.4511Z" fill="white"/>
<path d="M21.2774 19.6284C21.3973 19.6284 21.5122 19.5805 21.597 19.4951C21.6817 19.4098 21.7293 19.294 21.7293 19.1733C21.7293 19.0526 21.6817 18.9368 21.597 18.8515C21.5122 18.7661 21.3973 18.7182 21.2774 18.7182C21.1576 18.7182 21.0426 18.7661 20.9579 18.8515C20.8732 18.9368 20.8255 19.0526 20.8255 19.1733C20.8255 19.294 20.8732 19.4098 20.9579 19.4951C21.0426 19.5805 21.1576 19.6284 21.2774 19.6284Z" fill="white"/>
<path d="M17.9756 64.1538C17.2676 65.0974 19.0692 65.9105 19.3493 64.4572L18.4606 64.3358L18.5118 65.3644C18.5134 65.4637 18.547 65.5598 18.6076 65.6382C18.6681 65.7166 18.7523 65.7731 18.8475 65.7991C18.9427 65.8251 19.0437 65.8193 19.1353 65.7825C19.2269 65.7456 19.3041 65.6798 19.3554 65.595C19.5717 65.2039 19.706 64.7722 19.75 64.3267C19.8163 63.7897 19.021 63.7563 18.8613 64.2053C18.7102 64.4931 18.6694 64.8268 18.7468 65.1429C18.7505 65.251 18.792 65.3543 18.864 65.4345C18.936 65.5147 19.0339 65.5667 19.1403 65.5812C19.2467 65.5958 19.3548 65.5719 19.4455 65.5139C19.5361 65.4559 19.6034 65.3674 19.6355 65.2642L20.0904 64.0991L19.2017 63.9778C19.2014 64.5095 19.157 65.0403 19.0692 65.5646C18.9878 66.0471 19.6235 66.393 19.8946 65.9166C20.1734 65.4254 20.3766 64.8945 20.4971 64.3419L19.6084 64.2205L19.6235 65.0306C19.6235 65.4433 20.2802 65.7012 20.467 65.2612C20.6541 64.8264 20.8151 64.3805 20.949 63.9262L20.0603 63.8048V65.3674C20.064 65.4755 20.1055 65.5788 20.1775 65.659C20.2495 65.7393 20.3474 65.7912 20.4538 65.8058C20.5602 65.8203 20.6683 65.7964 20.759 65.7384C20.8496 65.6804 20.9169 65.592 20.949 65.4888C21.1187 65.0359 21.1916 64.552 21.1629 64.0688C21.1629 63.9481 21.1153 63.8323 21.0306 63.747C20.9458 63.6616 20.8309 63.6137 20.711 63.6137C20.5912 63.6137 20.4762 63.6616 20.3915 63.747C20.3068 63.8323 20.2591 63.9481 20.2591 64.0688C20.2639 64.452 20.1975 64.8328 20.0633 65.1914L20.952 65.3128C20.8729 64.8412 20.8882 64.3584 20.9972 63.8928L21.2262 63.286C21.0608 63.6562 20.9746 64.0573 20.9731 64.4632H21.8438C21.7714 64.2532 21.7522 64.0283 21.788 63.809C21.8238 63.5896 21.9133 63.3828 22.0486 63.2071L21.2232 63.0979C21.2714 63.2466 21.3196 64.8182 21.666 64.3115L21.6329 63.6137C21.6715 63.8894 21.6436 64.1704 21.5516 64.4329L22.1239 64.8728C22.0299 64.0359 22.2269 63.1921 22.6813 62.485L21.8558 62.3758C22.0507 63.0246 22.0776 63.7129 21.9341 64.3752H22.8048C22.7174 63.9626 22.4704 62.6488 22.8741 62.3181L22.3258 62.3879C22.5114 62.8792 22.5336 63.418 22.3891 63.9232H23.2597C23.0349 63.045 23.1344 62.1145 23.5399 61.3047L22.7144 61.1955C22.9906 62.0627 22.9906 62.9952 22.7144 63.8625H23.5851C23.5218 63.6592 23.2266 62.3454 23.2537 62.3211C23.1151 62.3909 23.0337 63.38 22.8982 63.7745H23.7688C23.576 63.2041 23.326 61.2349 24.0942 60.9224L23.5369 60.619C23.5911 60.9011 23.9014 62.3879 23.4525 62.6215L24.1153 62.8946C23.9255 61.9843 23.7357 61.0741 24.4376 60.3095L23.6815 60.1092C23.866 60.8779 23.866 61.6799 23.6815 62.4486H24.5521C24.3861 62.0818 24.3083 61.6807 24.3251 61.2779C24.3418 60.8751 24.4526 60.482 24.6485 60.1305L23.823 60.0213C24 60.4819 24.0305 60.9866 23.9104 61.4655L24.7359 61.3563C24.3563 60.6736 24.6666 59.7725 24.4075 59.0382C24.3857 58.9619 24.3447 58.8926 24.2883 58.837C24.2319 58.7815 24.1622 58.7417 24.0859 58.7215C24.0097 58.7013 23.9295 58.7015 23.8534 58.7219C23.7772 58.7423 23.7076 58.7823 23.6513 58.8379C23.5109 58.9688 23.4122 59.1387 23.3677 59.3261C23.3232 59.5136 23.3349 59.7101 23.4013 59.8908C23.6845 60.886 24.1695 61.4716 23.9255 62.6064C23.8975 62.7213 23.9151 62.8427 23.9745 62.9449C24.0339 63.047 24.1305 63.1218 24.2438 63.1533C24.3571 63.1849 24.4781 63.1708 24.5812 63.114C24.6843 63.0572 24.7614 62.9622 24.7961 62.8491L25.2751 61.2197L24.3864 61.0984C24.3864 62.846 22.5788 63.4711 21.1298 63.9383C20.5785 64.1173 20.8285 64.9972 21.3708 64.8152C23.344 64.172 25.2872 63.4134 25.2872 61.0984C25.2835 60.9903 25.242 60.887 25.17 60.8068C25.0979 60.7265 25.0001 60.6746 24.8937 60.66C24.7872 60.6455 24.6792 60.6694 24.5885 60.7274C24.4979 60.7854 24.4306 60.8738 24.3985 60.977L23.9195 62.6064L24.7901 62.8491C24.9261 62.2931 24.9497 61.7153 24.8594 61.1499C24.8232 60.9558 24.2267 59.554 24.284 59.4812L23.5278 59.2809C23.8291 60.1457 23.4856 60.9861 23.9466 61.8144C23.9932 61.8892 24.0601 61.949 24.1394 61.9866C24.2188 62.0242 24.3072 62.0381 24.3941 62.0266C24.481 62.0151 24.5628 61.9787 24.6298 61.9217C24.6968 61.8647 24.7462 61.7896 24.772 61.7052C24.8977 61.0643 24.8677 60.4022 24.6847 59.7755C24.6588 59.6911 24.6095 59.616 24.5425 59.559C24.4755 59.502 24.3937 59.4656 24.3067 59.4541C24.2198 59.4426 24.1314 59.4565 24.0521 59.4941C23.9727 59.5317 23.9058 59.5915 23.8592 59.6663C23.6018 60.1219 23.4511 60.6307 23.4187 61.154C23.3864 61.6772 23.4731 62.2009 23.6724 62.6852C23.823 63.0645 24.4376 63.1677 24.5431 62.6852C24.7576 61.756 24.7576 60.7896 24.5431 59.8604C24.5213 59.7841 24.4802 59.7148 24.4239 59.6593C24.3675 59.6038 24.2978 59.564 24.2215 59.5438C24.1453 59.5236 24.0651 59.5237 23.9889 59.5441C23.9127 59.5645 23.8431 59.6045 23.7869 59.6602C22.865 60.6797 22.9675 61.8569 23.2326 63.1313C23.2519 63.1978 23.2859 63.259 23.3319 63.3105C23.378 63.3619 23.435 63.4023 23.4987 63.4285C23.5623 63.4548 23.6311 63.4662 23.6998 63.462C23.7684 63.4578 23.8353 63.4381 23.8954 63.4043C24.9257 62.8673 24.5792 61.3077 24.3954 60.3702C24.3606 60.2561 24.2827 60.1604 24.1784 60.1036C24.0742 60.0469 23.952 60.0337 23.8381 60.0668C22.4674 60.622 22.4764 62.8369 22.8801 64.0385C22.9084 64.1325 22.966 64.2149 23.0444 64.2735C23.1228 64.332 23.2178 64.3636 23.3154 64.3636C23.413 64.3636 23.508 64.332 23.5864 64.2735C23.6648 64.2149 23.7224 64.1325 23.7507 64.0385C23.9586 63.4316 24.5461 60.7009 23.2235 60.8132C21.9583 60.9285 22.4734 63.4316 22.6933 64.1264C22.7217 64.2205 22.7793 64.3029 22.8577 64.3615C22.936 64.42 23.0311 64.4516 23.1286 64.4516C23.2262 64.4516 23.3213 64.42 23.3996 64.3615C23.478 64.3029 23.5356 64.2205 23.564 64.1264C23.8826 63.1001 23.8826 62.0003 23.564 60.974C23.4585 60.6281 22.9132 60.4946 22.7385 60.8647C22.2254 61.8911 22.094 63.0686 22.368 64.1841C22.4644 64.6058 23.1573 64.6301 23.2386 64.1841C23.3772 63.4377 23.6393 62.0026 22.7596 61.6203C22.6721 61.5739 22.5726 61.5557 22.4745 61.5681C22.3765 61.5806 22.2846 61.6232 22.2113 61.69C21.4762 62.2969 21.7413 63.8503 21.9101 64.6332C21.9384 64.7272 21.996 64.8096 22.0744 64.8682C22.1528 64.9267 22.2478 64.9583 22.3454 64.9583C22.443 64.9583 22.538 64.9267 22.6164 64.8682C22.6948 64.8096 22.7524 64.7272 22.7807 64.6332C22.9642 63.8126 22.9372 62.9584 22.7024 62.1512C22.6765 62.0668 22.6272 61.9917 22.5602 61.9347C22.4932 61.8778 22.4114 61.8414 22.3244 61.8299C22.2375 61.8184 22.1491 61.8322 22.0698 61.8698C21.9905 61.9074 21.9235 61.9672 21.8769 62.042C21.3331 62.8853 21.0928 63.8909 21.1961 64.8911C21.1971 64.9609 21.2138 65.0296 21.245 65.0919C21.2762 65.1543 21.321 65.2087 21.3761 65.2511C21.4312 65.2935 21.4952 65.3227 21.5632 65.3365C21.6311 65.3503 21.7013 65.3485 21.7685 65.331C22.7927 65.0519 22.6481 63.55 22.2896 62.7823C22.2505 62.7128 22.1935 62.6552 22.1245 62.6157C22.0556 62.5762 21.9773 62.5562 21.898 62.5578C20.7201 62.6519 20.1567 65.0428 21.3828 65.4311C21.4599 65.4537 21.5416 65.4546 21.6191 65.4337C21.6967 65.4129 21.7671 65.3711 21.8227 65.3128C22.368 64.621 22.3288 63.6865 22.0697 62.8855C22.0439 62.8011 21.9945 62.726 21.9275 62.669C21.8605 62.612 21.7787 62.5756 21.6918 62.5641C21.6049 62.5526 21.5165 62.5665 21.4371 62.6041C21.3578 62.6417 21.2909 62.7015 21.2443 62.7763C21.0617 63.0634 20.9406 63.3858 20.8887 63.7228C20.8368 64.0597 20.8553 64.4039 20.943 64.7333C21.0394 65.152 21.7353 65.1823 21.8136 64.7333C21.9191 64.1264 22.2053 62.1664 21.0575 62.3393C19.9097 62.5123 19.9247 64.5785 20.0181 65.3522C20.0218 65.4603 20.0633 65.5636 20.1353 65.6438C20.2074 65.7241 20.3052 65.7761 20.4117 65.7906C20.5181 65.8051 20.6261 65.7813 20.7168 65.7233C20.8074 65.6652 20.8747 65.5768 20.9069 65.4736C21.0404 65.0301 21.1173 64.5713 21.1358 64.1082H20.232C20.2902 64.5103 20.2262 64.9208 20.0483 65.2855L20.937 65.4069V63.8382C20.9333 63.7301 20.8918 63.6268 20.8198 63.5466C20.7478 63.4664 20.6499 63.4144 20.5435 63.3999C20.4371 63.3853 20.329 63.4092 20.2383 63.4672C20.1477 63.5252 20.0804 63.6136 20.0483 63.7168C19.9504 64.1004 19.8204 64.475 19.6596 64.8364L20.5032 65.067L20.4881 64.2569C20.4881 63.7563 19.7169 63.6228 19.5994 64.1356C19.4945 64.6125 19.3188 65.0707 19.0782 65.4948L19.9037 65.8468C20.0075 65.2455 20.0629 64.6367 20.0694 64.0263C20.0694 63.4802 19.3584 63.4498 19.1806 63.905L18.7257 65.0701L19.6144 65.1914L19.6958 64.4966L18.8071 64.3752L18.5359 65.1854L19.3795 65.416L19.3283 64.3874C19.3042 63.9019 18.542 63.7381 18.4395 64.266L18.7167 64.6756C19.0662 64.2084 18.2829 63.7654 17.9364 64.2175L17.9756 64.1538Z" fill="#173BEF"/>
<path d="M21.1449 18.5996L22.4283 20.3716L23.0459 19.7496C22.942 19.6916 22.8414 19.6278 22.7446 19.5584C22.6964 19.522 22.4765 19.2793 22.5729 19.4947C22.6331 19.6313 22.6271 19.5463 22.7808 19.4947C22.879 19.469 22.981 19.4608 23.082 19.4704C23.6635 19.5008 23.6604 18.5905 23.082 18.5602C22.5759 18.5359 21.9101 18.7483 21.7083 19.2702C21.4763 19.877 22.1541 20.2866 22.588 20.5354C22.9555 20.7448 23.4917 20.2988 23.2055 19.9134L21.9222 18.1415C21.5817 17.6712 20.7985 18.1415 21.1419 18.5996H21.1449Z" fill="#173BEF"/>
<path d="M18.3402 19.0239L18.2769 19.5579C18.2347 19.919 18.6866 20.101 18.9578 19.9523C19.2195 19.8226 19.4562 19.6469 19.6567 19.4335L18.9457 18.8813L18.2799 19.7915C17.9516 20.2345 18.6234 20.6471 18.9909 20.3437C19.3945 20.0154 19.7337 19.6141 19.9911 19.1604L19.2108 18.7023L18.3854 20.2011C18.1474 20.635 18.7499 21.1599 19.0963 20.7533C19.5277 20.2443 19.9194 19.7027 20.2682 19.1331C20.4972 18.7569 20.0303 18.2532 19.6507 18.5111C19.0248 18.9193 18.5076 19.4755 18.1444 20.1313C17.8431 20.6502 18.5902 21.0416 18.9246 20.5895L20.5424 18.3503H19.7621C19.976 18.766 18.6414 20.0282 18.6625 20.7382C18.6653 20.8269 18.6934 20.9129 18.7435 20.9859C18.7937 21.0589 18.8636 21.1158 18.945 21.1498C19.0265 21.1837 19.1159 21.1933 19.2026 21.1773C19.2893 21.1614 19.3695 21.1206 19.4338 21.0598L21.874 18.6112L21.2353 17.968L19.2952 19.9645C19.2215 20.0439 19.1783 20.1471 19.1732 20.2556C19.1681 20.3642 19.2014 20.471 19.2673 20.5571C19.3332 20.6431 19.4273 20.7028 19.5329 20.7254C19.6384 20.748 19.7485 20.7321 19.8435 20.6805C21.0546 20.1321 22.1039 19.277 22.8892 18.1986C23.1603 17.8375 22.6301 17.3217 22.2716 17.5766C21.407 18.1834 20.0152 19.0937 20.208 20.2831C20.2283 20.3553 20.2667 20.4212 20.3194 20.4743C20.3721 20.5274 20.4375 20.566 20.5093 20.5865C21.8438 20.8656 23.1362 18.9511 23.9406 18.0924C24.3503 17.6555 23.7478 17.0942 23.3019 17.4492C22.5032 18.0803 21.8157 18.8424 21.2684 19.7035C21.0334 20.0676 21.5215 20.6138 21.886 20.3255L25.221 17.7556L24.6727 17.0396C23.841 17.9076 23.1065 18.8651 22.4825 19.8947C22.4313 19.9903 22.4155 20.1012 22.438 20.2075C22.4604 20.3138 22.5197 20.4086 22.6051 20.4749C22.6905 20.5413 22.7966 20.5749 22.9044 20.5698C23.0122 20.5646 23.1146 20.5211 23.1935 20.4469C24.2996 19.5237 25.5039 18.7269 26.7845 18.0712L26.3296 17.2853C25.5083 17.7571 24.8342 18.4507 24.3835 19.2879C24.3361 19.3748 24.3181 19.4748 24.332 19.5729C24.3459 19.6711 24.3911 19.762 24.4607 19.8321C24.5303 19.9022 24.6206 19.9476 24.718 19.9617C24.8154 19.9757 24.9147 19.9575 25.001 19.9099C26.0477 19.3713 27.0379 18.7278 27.9564 17.9892C28.2577 17.7374 28.0016 17.2064 27.6371 17.2125C26.7521 17.2094 25.8804 17.43 25.102 17.8541C24.3236 18.2782 23.6632 18.8922 23.1814 19.6398C22.9434 19.9918 23.3351 20.3832 23.6906 20.3073C24.8956 20.0585 26.2995 19.8765 27.4382 19.3971C27.8359 19.2272 28.1522 19.1149 28.2757 18.6598C28.6222 17.4006 27.14 17.2186 26.2934 17.349L26.5345 18.2259C27.0968 17.9104 27.5186 18.0115 27.7997 18.5293C27.4918 18.7224 27.1504 18.8552 26.7935 18.9207L27.2334 19.6823C27.6491 19.2514 28.4655 18.4201 29.1223 18.4686C29.524 18.323 29.4326 18.4241 28.8481 18.7721C29.4248 18.5875 30.031 18.5144 30.6346 18.5566L30.4719 17.9346C30.6326 18.1551 30.8384 18.3382 31.0754 18.4717C31.3124 18.6051 31.5751 18.6858 31.8457 18.7083C33.1431 18.86 34.4335 19.0623 35.7169 19.3152V18.6416L36.2802 19.388L37.1057 19.2788L36.9339 19.0421L37.2352 19.6034H37.3768L38.0878 20.1556L38.4071 19.6702L39.1783 19.9918L39.1994 20.0343L39.8622 20.547L39.7839 20.4833C39.6995 20.9627 40.3442 21.3147 40.6093 20.8353L40.8473 20.7685L40.9166 20.2163L40.7509 20.3195L41.26 20.987V20.5804C40.9076 20.9172 41.2841 21.4148 41.6999 21.342H42.3386L42.0072 20.902L41.7782 21.1417L42.441 21.6545L42.2241 21.6241L43.1128 21.7455L42.8627 21.3147C42.4621 21.5817 42.7061 22.3402 43.2122 22.146L43.2966 22.1217L42.9953 21.5604L42.9561 21.6848L43.5135 21.3814L43.4231 21.3541C42.8688 21.1781 42.6308 22.055 43.1821 22.231L43.2725 22.2583C43.3863 22.289 43.5074 22.2747 43.6111 22.2183C43.7147 22.1619 43.793 22.0676 43.8298 21.9549L43.869 21.8305C43.9003 21.7158 43.8864 21.5935 43.8303 21.4889C43.7741 21.3843 43.6801 21.3056 43.5677 21.2692C43.384 21.2025 43.1817 21.2112 43.0043 21.2934L43.3538 22.1248C43.453 22.0765 43.5405 22.0067 43.6099 21.9205C43.6793 21.8343 43.729 21.7337 43.7555 21.626C43.782 21.5182 43.7845 21.4059 43.763 21.297C43.7415 21.1882 43.6964 21.0854 43.631 20.9961C43.5914 20.927 43.5342 20.8698 43.4654 20.8303C43.3965 20.7909 43.3185 20.7706 43.2393 20.7715C42.5856 20.8292 42.3054 21.1174 42.2421 21.7698C42.1879 22.3159 42.9652 22.3372 43.1309 21.8911C43.5617 20.7291 41.9258 20.2345 41.6065 21.436C41.586 21.5226 41.5909 21.6132 41.6204 21.6971C41.6499 21.7809 41.7029 21.8544 41.773 21.9086C41.843 21.9628 41.9272 21.9954 42.0152 22.0026C42.1033 22.0097 42.1915 21.991 42.2693 21.9488C42.4721 21.8662 42.6453 21.7238 42.7663 21.5402C42.8873 21.3566 42.9503 21.1405 42.9471 20.9202C42.9479 20.8203 42.9158 20.723 42.8558 20.6434C42.7959 20.5638 42.7115 20.5064 42.6157 20.4803C42.2484 20.3914 41.8654 20.3914 41.498 20.4803L41.9379 21.2418C42.0343 21.1669 42.1111 21.0694 42.1618 20.9578C42.2124 20.8463 42.2353 20.724 42.2285 20.6015C42.2217 20.479 42.1853 20.36 42.1226 20.2549C42.0599 20.1497 41.9727 20.0615 41.8686 19.9978C41.3052 19.6429 40.8383 20.1101 40.5069 20.547C40.2599 20.8717 40.6666 21.3207 41.016 21.2145C41.2352 21.1648 41.4333 21.047 41.5824 20.8777C41.6525 20.8061 41.6973 20.7133 41.7098 20.6135C41.7224 20.5137 41.7019 20.4125 41.6517 20.3255C41.1576 19.6489 40.2809 19.6186 39.8441 20.3923L40.6696 20.7442C40.8835 19.5124 39.344 19.0785 39.0066 20.3225C38.9862 20.4091 38.991 20.4997 39.0205 20.5836C39.0501 20.6674 39.1031 20.7409 39.1731 20.7951C39.2432 20.8493 39.3273 20.8819 39.4153 20.889C39.5034 20.8962 39.5916 20.8775 39.6694 20.8353C41.5673 19.743 38.5638 17.616 38.2866 20.0069C38.2384 20.4196 38.8018 20.5804 39.0578 20.3286C40.1273 19.2879 38.154 17.965 37.3196 19.7217C37.1117 20.1556 37.669 20.6896 38.0305 20.274C39.3018 18.8024 36.7743 17.5432 36.3796 19.3637C36.3483 19.4783 36.3622 19.6007 36.4183 19.7053C36.4745 19.8099 36.5685 19.8886 36.6809 19.925C37.5847 20.101 38.5216 19.1635 37.6479 18.408C36.6779 17.5614 35.8404 18.8479 36.3134 19.7521C36.36 19.8269 36.4269 19.8866 36.5062 19.9242C36.5856 19.9618 36.6739 19.9757 36.7609 19.9642C36.8478 19.9527 36.9296 19.9163 36.9966 19.8593C37.0636 19.8024 37.113 19.7272 37.1388 19.6428C37.4401 18.3988 36.0392 17.2155 35.0571 18.3624C34.1533 19.4214 35.4638 20.0949 36.3435 19.3C36.4267 19.2139 36.4732 19.0985 36.4732 18.9784C36.4732 18.8582 36.4267 18.7429 36.3435 18.6568C35.8102 18.0954 34.8221 17.6585 34.2347 18.4504C33.7557 19.1088 34.3371 20.2163 35.1987 19.8977C37.1358 19.1847 33.8792 16.3963 33.3429 18.4777C33.1561 19.2059 34.0057 19.7612 34.6233 19.4396C35.5271 18.9814 35.0932 17.7769 34.322 17.4552C33.6261 17.1518 32.3156 17.4249 32.2132 18.3382C32.2021 18.5173 32.2408 18.6961 32.325 18.8543C32.4092 19.0126 32.5355 19.144 32.6899 19.2339C32.8442 19.3237 33.0203 19.3684 33.1985 19.3629C33.3767 19.3575 33.5498 19.3021 33.6984 19.2029C35.5933 17.9073 31.3847 16.0262 31.7282 18.6628C31.9812 20.6047 34.8854 18.6628 32.7976 17.8436C32.0806 17.5614 30.5081 18.0408 30.493 18.9905C30.4719 20.1283 31.918 19.7096 32.409 19.2515C34.2949 17.4886 29.8574 16.1232 29.776 18.5657C29.7399 19.655 31.1076 19.4244 31.6318 18.8509C32.3458 18.0681 31.7673 17.2155 30.8364 17.1124C29.9055 17.0092 28.1582 17.9255 28.8933 19.0482C29.6284 20.1708 30.7852 19.0997 31.2311 18.3898C31.2897 18.2852 31.3056 18.1616 31.2752 18.0455C31.2448 17.9293 31.1706 17.8297 31.0684 17.7677C30.1646 17.2641 28.3571 17.5159 27.8961 18.5809C27.3991 19.6975 28.7758 19.7946 29.4627 19.4911C30.1496 19.1877 31.2431 18.2441 30.3062 17.5948C29.2127 16.8363 27.2936 18.3139 26.5736 19.0512C26.5051 19.123 26.4617 19.2153 26.4499 19.3141C26.4382 19.413 26.4587 19.513 26.5084 19.599C26.5581 19.6851 26.6343 19.7525 26.7254 19.7911C26.8165 19.8296 26.9176 19.8372 27.0135 19.8128C27.7184 19.6307 29.3482 19.036 29.2217 18.056C29.068 16.8757 26.9713 17.2095 26.2754 17.3551C25.6969 17.4765 25.953 18.32 26.5164 18.232C27.3599 18.4342 27.4051 18.5819 26.6519 18.675C26.2985 18.7741 25.943 18.8681 25.5855 18.9571C24.8715 19.1362 24.1545 19.2939 23.4345 19.4426L23.9436 20.1101C24.342 19.4965 24.8877 18.994 25.5302 18.6493C26.1726 18.3045 26.8911 18.1287 27.619 18.1379L27.2997 17.3612C26.4376 18.0473 25.5091 18.644 24.5281 19.1422L25.1456 19.7642C25.5192 19.0631 26.0808 18.4817 26.7664 18.0863C26.8653 18.0233 26.9361 17.9241 26.9638 17.8097C26.9916 17.6952 26.9742 17.5743 26.9152 17.4725C26.8563 17.3707 26.7604 17.2959 26.6478 17.2638C26.5352 17.2317 26.4147 17.2449 26.3115 17.3005C24.9647 17.9969 23.6987 18.8415 22.5367 19.8188L23.2477 20.371C23.8316 19.4083 24.5186 18.5129 25.2963 17.701C25.6216 17.343 25.1758 16.6573 24.748 16.9849L21.4582 19.5518L22.0758 20.1587C22.5868 19.367 23.2264 18.6674 23.9677 18.0894L23.329 17.4461C22.7868 18.0226 22.0758 18.5475 21.5938 19.1635C21.4341 19.3698 21.1961 19.5731 21.5637 19.3455C21.9312 19.1179 22.3831 18.6021 22.7446 18.3442L22.124 17.7313C21.4183 18.6714 20.4847 19.4132 19.4127 19.8856L19.961 20.6016L21.9011 18.6052C21.9809 18.5189 22.0244 18.4048 22.0223 18.2869C22.0202 18.169 21.9728 18.0565 21.89 17.9731C21.8072 17.8897 21.6955 17.8419 21.5784 17.8399C21.4614 17.8378 21.3481 17.8815 21.2624 17.9619L18.8222 20.4105L19.5934 20.7321C19.5543 19.5003 21.2955 19.2909 20.5695 17.8861C20.5285 17.8189 20.4712 17.7635 20.4029 17.725C20.3346 17.6866 20.2576 17.6664 20.1794 17.6664C20.1011 17.6664 20.0242 17.6866 19.9559 17.725C19.8876 17.7635 19.8302 17.8189 19.7892 17.8861L18.1715 20.1253L18.9517 20.5834C19.2335 20.0612 19.6379 19.6164 20.1297 19.2879L19.5121 18.6659C19.2068 19.1719 18.8623 19.6528 18.4818 20.104L19.1927 20.6563L20.0182 19.1574C20.0734 19.0535 20.0865 18.9321 20.0547 18.8187C20.0228 18.7053 19.9485 18.6087 19.8474 18.5494C19.7463 18.49 19.6263 18.4725 19.5127 18.5004C19.399 18.5284 19.3005 18.5996 19.2379 18.6992C19.0437 19.1021 18.7476 19.4464 18.3793 19.6975L19.0903 20.2497L19.7561 19.3394C20.0574 18.9116 19.4066 18.4474 19.0451 18.7872L18.53 19.1635L19.2108 19.5579L19.2741 19.0239C19.3434 18.4444 18.4396 18.4474 18.3703 19.0239H18.3402Z" fill="#ADBBFF"/>
<path d="M17.5024 17.3434C17.88 21.9088 18.2576 26.4741 18.6351 31.0395C18.9033 34.2587 19.1202 37.7935 21.223 40.415C23.2836 42.9849 26.6456 44.0014 29.836 43.9771C31.7002 43.9238 33.5526 43.6591 35.3581 43.1882C36.6505 42.8848 38.8346 42.0929 39.4191 43.9983C39.8378 45.3637 38.6418 46.6744 37.8163 47.6029C37.4307 48.0398 38.0664 48.6861 38.455 48.2461C39.4492 47.1235 40.5217 45.8401 40.365 44.2259C40.3232 43.6314 40.0741 43.0709 39.6618 42.6434C39.2495 42.2159 38.7004 41.9489 38.1116 41.8896C36.2739 41.6256 34.2374 42.5814 32.4298 42.8514C30.1824 43.1882 27.8446 43.1852 25.6786 42.4145C21.1085 40.7882 20.0149 36.5009 19.6263 32.0984C19.1925 27.1801 18.8129 22.2587 18.4062 17.3373C18.358 16.7578 17.4542 16.7517 17.5024 17.3373V17.3434Z" fill="black"/>
<path d="M37.6213 47.6305C37.3366 48.078 37.2097 48.6089 37.261 49.1379C37.3124 49.6668 37.5391 50.1629 37.9045 50.5463C38.7661 51.5324 40.1579 51.6447 41.372 51.4566C44.3544 50.9772 47.6773 49.0869 47.5388 45.6492C47.5147 45.0667 46.6109 45.0636 46.635 45.6492C46.7284 47.9218 44.9811 49.3721 43.0199 50.076C42.2925 50.3633 41.529 50.5471 40.7514 50.6222C39.5072 50.695 37.3532 49.712 38.3955 48.0978C38.6968 47.6032 37.9286 47.1481 37.6153 47.6396L37.6213 47.6305Z" fill="black"/>
<path d="M38.9068 46.1202C36.7739 45.4223 34.5054 46.7907 34.3548 49.127C34.1981 51.5543 36.4636 53.2444 38.6387 53.5842C43.254 54.3063 50.7162 51.3116 48.2278 45.5558C47.9958 45.0188 47.2186 45.483 47.4475 46.014C49.2762 50.2375 44.5645 52.2067 41.2265 52.6497C39.3497 52.8985 37.2589 52.7528 35.9726 51.1781C34.3006 49.1301 36.0298 46.1354 38.6688 46.9971C39.2232 47.1791 39.4611 46.2992 38.9098 46.1202H38.9068Z" fill="black"/>
<path d="M48.0566 45.3423C47.4778 42.1083 47.1924 38.828 47.204 35.542C47.204 35.4213 47.1564 35.3055 47.0717 35.2202C46.9869 35.1348 46.872 35.0869 46.7521 35.0869C46.6323 35.0869 46.5173 35.1348 46.4326 35.2202C46.3478 35.3055 46.3002 35.4213 46.3002 35.542C46.2926 38.9088 46.5891 42.2692 47.1859 45.5819C47.2884 46.1584 48.159 45.9127 48.0566 45.3392V45.3423Z" fill="black"/>
<path d="M18.2981 21.7976C26.1308 20.1288 35.7892 18.187 42.911 23.0446C43.393 23.3753 43.8479 22.5865 43.3659 22.2588C36.0302 17.2555 26.1308 19.2004 18.0601 20.9207C17.4907 21.0421 17.7317 21.919 18.3011 21.7976H18.2981Z" fill="black"/>
<path d="M17.9876 16.7371C27.402 13.9366 38.2986 14.859 46.0349 21.352C46.4778 21.7252 47.1225 21.085 46.6736 20.7088C38.6842 14.0003 27.4954 12.9596 17.7526 15.8542C17.1953 16.021 17.4333 16.8979 17.9936 16.731L17.9876 16.7371Z" fill="black"/>
<path d="M17.8881 17.1256C18.0079 17.1256 18.1229 17.0776 18.2076 16.9923C18.2924 16.9069 18.34 16.7912 18.34 16.6705C18.34 16.5497 18.2924 16.434 18.2076 16.3486C18.1229 16.2633 18.0079 16.2153 17.8881 16.2153C17.7682 16.2153 17.6533 16.2633 17.5686 16.3486C17.4838 16.434 17.4362 16.5497 17.4362 16.6705C17.4362 16.7912 17.4838 16.9069 17.5686 16.9923C17.6533 17.0776 17.7682 17.1256 17.8881 17.1256Z" fill="black"/>
<path d="M17.8611 20.6748C17.1833 20.5261 16.2795 20.4897 16.0084 21.1299C15.9486 21.3105 15.9122 21.4982 15.8999 21.6882C15.7884 22.4619 15.2974 23.1294 14.8304 23.7453C14.3635 24.3612 13.8363 24.9832 13.6254 25.7387C13.4145 26.4942 13.6043 27.4227 14.2731 27.8232C14.7913 28.1266 15.445 28.0508 16.0415 27.9597C15.3998 28.9125 14.8847 30.1291 15.3305 31.1881C15.4794 31.542 15.7254 31.8459 16.0397 32.064C16.3539 32.2822 16.7235 32.4055 17.1049 32.4195C17.4864 32.4335 17.8638 32.3376 18.1931 32.1432C18.5223 31.9487 18.7897 31.6637 18.9637 31.3216" fill="black"/>
<path d="M17.9813 20.2351C17.2463 20.1077 16.3455 19.9985 15.8032 20.6326C15.4538 21.0392 15.517 21.5428 15.3574 22.0192C15.0561 22.9598 14.2608 23.6455 13.7426 24.4465C12.3689 26.6068 13.4594 28.7459 16.0442 28.3909L15.6526 27.7052C14.7488 29.1464 14.1192 31.2127 15.7731 32.3899C17.0384 33.3001 18.5688 32.751 19.3581 31.5252C19.6744 31.0306 18.8941 30.5755 18.5778 31.067C17.7915 32.2807 16.3274 32.1502 15.8484 30.8486C15.4658 29.8139 15.8725 29.0645 16.4359 28.1664C16.6016 27.8994 16.3907 27.4352 16.0442 27.4807C14.9868 27.6233 13.7697 27.1439 14.0649 25.8362C14.2427 25.0503 14.9085 24.3889 15.3664 23.7638C16.0653 22.8111 16.3063 20.8389 17.7433 21.0908C18.3127 21.1909 18.5567 20.314 17.9843 20.2139L17.9813 20.2351Z" fill="black"/>
<path d="M17.9214 20.3904C17.2195 20.2326 16.4633 20.4238 15.7825 20.1871C15.1016 19.9504 14.5774 19.2769 14.2762 18.6063C13.9253 17.9455 13.7754 17.1951 13.8454 16.449C13.886 16.0784 14.0253 15.7257 14.2485 15.4282C14.4718 15.1307 14.7707 14.8995 15.1137 14.759C14.3063 14.4556 13.7791 13.6151 13.5893 12.7625C13.4488 11.8985 13.4488 11.0172 13.5893 10.1532" fill="black"/>
<path d="M17.9212 19.9348C16.5505 19.7679 15.3334 19.7436 14.6555 18.3783C14.0982 17.2587 14.0681 15.7568 15.3334 15.153C15.4008 15.1123 15.4565 15.0547 15.4953 14.9858C15.534 14.917 15.5543 14.8392 15.5543 14.76C15.5543 14.6809 15.534 14.6031 15.4953 14.5343C15.4565 14.4654 15.4008 14.4078 15.3334 14.3671C13.7277 13.5267 13.8693 11.7031 14.0229 10.1527C14.0801 9.57014 13.1764 9.57318 13.1191 10.1527C12.9293 12.0703 12.9655 14.1517 14.8785 15.153V14.3671C13.336 15.1044 13.1071 16.8278 13.6523 18.3115C13.9079 19.1085 14.4013 19.8067 15.0653 20.311C15.9238 20.8936 16.9451 20.7206 17.9212 20.839C18.4966 20.9087 18.4936 19.9985 17.9212 19.9287V19.9348Z" fill="black"/>
<path d="M13.8212 9.84329C14.0441 7.46756 16.5144 5.56515 18.8492 5.9687C19.1291 4.86469 19.7032 3.85873 20.5096 3.05958C21.316 2.26043 22.324 1.69849 23.4245 1.43451C24.525 1.17053 25.6763 1.21455 26.7538 1.56183C27.8313 1.9091 28.794 2.5464 29.5379 3.40484C31.3123 1.76033 33.8339 0.79244 36.1807 1.34465C38.5275 1.89687 40.4797 4.22709 40.1814 6.6362C41.1131 6.04737 42.1757 5.70134 43.2733 5.6293C44.3709 5.55726 45.469 5.76149 46.4687 6.22356C47.5472 6.73633 48.5113 7.6041 48.8788 8.74493C49.2463 9.88577 48.927 11.2966 47.9298 11.9581C50.0387 10.8719 52.9247 12.5649 53.1778 14.9164C53.4308 17.2678 51.1503 19.5101 48.8005 19.3371C49.4067 19.1356 50.0494 19.0704 50.6833 19.146C51.307 19.2673 51.9095 19.7528 51.9486 20.396C51.9434 20.6618 51.8699 20.9217 51.7353 21.1504C51.6007 21.379 51.4095 21.5686 51.1804 21.7007C49.9091 22.529 48.1678 21.9738 46.9809 21.0332C45.7939 20.0926 44.872 18.8122 43.6278 17.9596C42.3204 17.0676 40.7026 16.6853 39.4855 15.6749C39.1894 15.3662 38.8308 15.1251 38.4341 14.968C37.8979 14.8254 37.3466 15.0863 36.8043 15.1955C35.7469 15.4109 34.6714 15.062 33.626 14.795C28.4263 13.4661 22.9042 14.1882 17.7376 15.6506C17.5093 15.6946 17.2993 15.8067 17.135 15.9723C16.7434 16.4547 17.2736 17.1131 17.5779 17.6562C17.7692 18.0103 17.8661 18.4083 17.8593 18.8113C17.8524 19.2144 17.742 19.6088 17.5387 19.9561" fill="black"/>
<path d="M14.2582 9.97975C14.4052 8.89901 14.9701 7.92051 15.83 7.25732C16.6899 6.59413 17.7752 6.29997 18.8494 6.4389C18.9484 6.43869 19.0446 6.40599 19.1234 6.34576C19.2022 6.28553 19.2594 6.20105 19.2863 6.10514C19.567 5.09331 20.1121 4.17583 20.8647 3.44832C21.6172 2.7208 22.5498 2.20989 23.5651 1.96881C24.5804 1.72773 25.6413 1.76532 26.6373 2.07765C27.6333 2.38997 28.5279 2.96561 29.2278 3.74458C29.3137 3.82765 29.4281 3.87405 29.5472 3.87405C29.6662 3.87405 29.7807 3.82765 29.8665 3.74458C31.5897 2.22751 33.9727 1.19894 36.2773 1.86038C37.3095 2.14286 38.2147 2.77235 38.8427 3.64436C39.4707 4.51637 39.7837 5.57846 39.7298 6.65432C39.7303 6.73433 39.7517 6.81279 39.7917 6.8819C39.8317 6.95102 39.889 7.00838 39.9578 7.04827C40.0267 7.08816 40.1047 7.10919 40.1842 7.10928C40.2636 7.10937 40.3417 7.08851 40.4106 7.04877C42.17 6.00502 44.3541 5.74105 46.24 6.63612C48.1259 7.53119 49.6352 10.0435 47.6258 11.6576C47.192 12.0066 47.7463 12.5679 48.1741 12.3737C49.9816 11.5818 52.2501 12.7651 52.693 14.6948C53.2292 17.0099 50.9186 18.9426 48.8128 18.9062L48.9333 19.8013C49.2195 19.7134 49.5145 19.6574 49.8129 19.6344C50.6163 19.4018 51.0742 19.9075 51.1867 21.1515C50.8252 21.7583 49.4424 21.6703 48.9664 21.558C47.8487 21.291 46.9901 20.4991 46.1978 19.7133C44.9386 18.4632 43.8179 17.4559 42.2031 16.6943C41.3555 16.3308 40.5477 15.8793 39.793 15.3472C39.3652 15.0255 38.9857 14.6432 38.4434 14.5401C37.63 14.3853 36.8256 14.8222 36.0182 14.8253C34.9036 14.8253 33.7648 14.358 32.6743 14.1365C28.9597 13.3871 25.1217 13.6086 21.4192 14.3277C20.5154 14.5037 19.6116 14.713 18.7079 14.9345C18.1445 15.0801 17.2949 15.1651 16.8672 15.6293C16.7456 15.7623 16.6569 15.9223 16.6082 16.0962C16.5595 16.2702 16.5523 16.4533 16.587 16.6306C16.7527 17.8837 17.9637 17.9747 17.1533 19.7406C16.9093 20.2685 17.6896 20.7328 17.9336 20.1987C18.2975 19.5232 18.3933 18.7338 18.2017 17.9899C18.1174 17.6865 17.8282 17.3831 17.7709 17.1009C17.5149 15.781 18.5753 15.8872 19.4851 15.6718C21.9699 15.0378 24.515 14.6736 27.0769 14.5856C29.7882 14.5128 32.2314 15.0619 34.8494 15.5838C35.7531 15.7628 36.4882 15.6354 37.3558 15.5565C38.2235 15.4776 38.5006 15.4989 39.2327 16.0541C39.6213 16.3544 40.0322 16.6242 40.4618 16.8612C41.4349 17.3891 42.5014 17.7411 43.4202 18.3783C44.339 19.0154 45.0922 19.9317 45.9207 20.7115C47.1257 21.8433 48.7766 22.9173 50.5089 22.5017C51.6145 22.2377 52.7713 21.1727 52.3164 19.9317C51.7621 18.4147 49.9214 18.621 48.7013 18.9214C48.5988 18.9537 48.511 19.0215 48.4534 19.1128C48.3958 19.2041 48.3721 19.3129 48.3866 19.4201C48.401 19.5273 48.4526 19.6259 48.5323 19.6984C48.6119 19.7709 48.7145 19.8127 48.8218 19.8164C51.5331 19.8559 54.2445 17.3375 53.5727 14.4521C52.9701 11.8973 50.0329 10.5684 47.7222 11.5878L48.2705 12.3039C50.2196 10.7383 49.6051 8.01059 47.8427 6.57544C45.5953 4.75496 42.3658 4.83384 39.9587 6.27203L40.6396 6.66646C40.8113 4.19667 39.1996 1.96961 36.916 1.12611C34.2047 0.121813 31.2945 1.293 29.2218 3.11045H29.8605C29.0469 2.22294 28.0131 1.56996 26.8656 1.21878C25.718 0.867602 24.4983 0.830919 23.332 1.11252C22.1657 1.39412 21.0951 1.98382 20.2304 2.82086C19.3657 3.65789 18.7382 4.712 18.4126 5.87456L18.8494 5.5408C17.5761 5.39884 16.2975 5.75717 15.2801 6.54115C14.2626 7.32512 13.5847 8.47426 13.3876 9.74915C13.3032 10.3226 14.1739 10.5684 14.2582 9.99188V9.97975Z" fill="black"/>
<path d="M13.8424 10.3005C13.7621 11.127 13.816 11.9612 14.002 12.7703C14.0804 13.1252 14.6739 13.2436 14.8275 12.8795C15.0093 12.5026 15.0592 12.0749 14.9691 11.6658C14.8606 11.0833 14.0141 11.3412 14.0985 11.9086C14.2858 13.147 14.7027 14.3389 15.3276 15.4221C15.3788 15.507 15.4561 15.5728 15.5477 15.6096C15.6393 15.6464 15.7403 15.6522 15.8354 15.6262C15.9306 15.6002 16.0148 15.5437 16.0754 15.4653C16.1359 15.3869 16.1695 15.2908 16.1711 15.1915C16.1944 14.5832 16.0918 13.9767 15.8699 13.4105C15.668 12.8734 14.8486 13.0737 14.9992 13.6532L15.6258 16.0562C15.658 16.1594 15.7253 16.2479 15.8159 16.3059C15.9065 16.3639 16.0146 16.3877 16.121 16.3732C16.2275 16.3587 16.3253 16.3067 16.3973 16.2265C16.4694 16.1462 16.5109 16.043 16.5146 15.9349C16.558 14.9957 16.4994 14.0546 16.3398 13.1283L15.4692 13.371L15.9241 14.973C15.9588 15.0861 16.0359 15.1812 16.139 15.238C16.2421 15.2948 16.3631 15.3089 16.4764 15.2773C16.5897 15.2457 16.6863 15.1709 16.7457 15.0688C16.8051 14.9667 16.8227 14.8453 16.7947 14.7303L16.3398 13.1283C16.1771 12.5548 15.3728 12.8036 15.4692 13.371C15.6092 14.2179 15.6567 15.0776 15.6108 15.9349L16.4995 15.8135L15.8729 13.4105L15.0022 13.6532C15.1918 14.1427 15.278 14.6666 15.2553 15.1915L16.0988 14.9609C15.5208 13.9426 15.1386 12.8237 14.9721 11.6628L14.1015 11.9055L14.0503 12.4335L14.8757 12.5427C14.7127 11.8123 14.669 11.0601 14.7462 10.3156C14.8034 9.73308 13.8966 9.73611 13.8424 10.3156V10.3005Z" fill="black"/>
<path d="M37.2198 15.4321C37.9992 15.8948 38.8373 16.249 39.7112 16.4849C39.807 16.5094 39.9081 16.5018 39.9993 16.4632C40.0904 16.4246 40.1666 16.3572 40.2163 16.2712C40.266 16.1851 40.2865 16.0851 40.2747 15.9863C40.263 15.8874 40.2195 15.7951 40.151 15.7233C39.667 15.2839 39.1169 14.9245 38.5212 14.6584C38.0031 14.4278 37.5451 15.1529 38.0663 15.4442L39.1057 16.0237V15.2379C38.9856 15.3132 38.8443 15.3469 38.7034 15.3338C38.5625 15.3206 38.4297 15.2614 38.3254 15.1651C37.9187 14.7463 37.28 15.3896 37.6867 15.8083C38.2079 16.3453 38.9068 16.3241 39.5606 16.0237C39.628 15.983 39.6837 15.9254 39.7225 15.8566C39.7612 15.7877 39.7815 15.7099 39.7815 15.6308C39.7815 15.5517 39.7612 15.4739 39.7225 15.405C39.6837 15.3362 39.628 15.2786 39.5606 15.2379L38.5242 14.6584L38.0693 15.4442C38.596 15.6689 39.084 15.9761 39.5154 16.3544L39.9552 15.5929C39.1572 15.3779 38.3919 15.0543 37.6807 14.631C37.5776 14.5754 37.457 14.5623 37.3444 14.5943C37.2318 14.6264 37.1359 14.7012 37.077 14.803C37.0181 14.9049 37.0006 15.0257 37.0284 15.1402C37.0561 15.2547 37.1269 15.3539 37.2258 15.4169L37.2198 15.4321Z" fill="black"/>
<path d="M44.2848 31.2428C44.1705 31.9131 44.2375 32.602 44.4787 33.2373C44.7199 33.8726 45.1264 34.4308 45.6555 34.8534C45.8779 35.0485 46.1393 35.1934 46.422 35.2782C46.7047 35.3629 47.0022 35.3857 47.2944 35.3449C48.0626 35.178 48.5476 34.4134 48.8308 33.6731C49.114 32.9328 49.2767 31.9922 48.8097 31.3247C48.7314 31.2408 48.6799 31.135 48.6621 31.0213C48.6621 30.7998 48.9272 30.7027 49.1351 30.6329C49.5263 30.4992 49.873 30.2588 50.1366 29.9384C50.4002 29.618 50.5703 29.2302 50.6281 28.8183C50.6858 28.4063 50.629 27.9862 50.4638 27.6048C50.2986 27.2235 50.0316 26.8958 49.6924 26.6582C49.5448 26.555 49.3701 26.4519 49.3188 26.2789C49.2224 25.9755 49.5719 25.7146 49.7858 25.4688C50.4425 24.7194 49.9183 23.4814 49.114 22.8928C48.3096 22.3042 47.2914 22.0705 46.496 21.4698C46.2972 21.9128 46.5653 22.4104 46.7551 22.8564C47.21 23.9396 47.1859 25.1563 47.1558 26.3335C47.1287 27.4379 47.0383 28.6789 46.2068 29.398C45.8303 29.7227 45.3482 29.8926 44.9566 30.199C44.565 30.5055 44.2727 31.0486 44.4896 31.4946" fill="black"/>
<path d="M43.8327 31.2433C43.6038 33.1943 45.1281 36.5561 47.5955 35.7157C48.5173 35.4123 49.0445 34.4777 49.3337 33.5918C49.5314 33.0637 49.5966 32.4947 49.5235 31.9351C49.4691 31.7737 49.4229 31.6097 49.385 31.4436C49.3307 30.5971 49.0837 31.4618 49.7344 30.8368C50.4846 30.1298 51.1443 29.5381 51.0961 28.3882C51.0707 27.8933 50.9158 27.4139 50.6472 26.9986C50.2646 26.413 49.8609 26.4767 50.1019 25.7849C50.4213 24.8504 50.7406 24.368 50.1381 23.3576C49.391 22.1227 47.8545 21.8102 46.7188 21.0638C46.6589 21.0294 46.5919 21.0092 46.5231 21.0047C46.4542 21.0002 46.3853 21.0115 46.3214 21.0379C46.2576 21.0642 46.2005 21.1047 46.1545 21.1566C46.1085 21.2084 46.0749 21.27 46.056 21.3369C45.9174 22.3351 46.4055 22.945 46.5983 23.925C46.8096 25.115 46.8096 26.3334 46.5983 27.5235C46.3242 29.0405 45.1764 29.1437 44.3629 30.1359C44.195 30.3365 44.0794 30.5761 44.0268 30.8331C43.9742 31.0901 43.9862 31.3563 44.0617 31.6074C44.1822 32.1809 45.0528 31.9382 44.9323 31.3647C44.7666 30.5758 46.4386 29.8992 46.8815 29.3258C47.2725 28.7482 47.5025 28.0755 47.5473 27.3778C47.6564 26.4402 47.6715 25.4938 47.5925 24.5531C47.5171 23.6428 46.8212 22.4292 46.9387 21.5826L46.2759 21.8557C47.0683 22.3776 48.0474 22.6385 48.7824 23.2332C49.6019 23.8946 49.6621 24.4469 49.2373 25.3874C49.162 25.5543 48.9572 25.6635 48.9361 25.8547C48.8923 26.0011 48.8845 26.156 48.9134 26.3061C48.9423 26.4562 49.0069 26.597 49.1018 26.7164C49.2313 26.9257 49.5778 27.0926 49.7043 27.2383C50.0151 27.5768 50.183 28.0239 50.1723 28.4848C50.1616 28.9458 49.9732 29.3845 49.647 29.7081C48.8577 30.5333 48.0895 30.3149 48.442 31.5498C48.5771 31.9835 48.6174 32.4416 48.5602 32.8925C48.503 33.3434 48.3496 33.7766 48.1106 34.1622L46.279 34.7023C44.9805 34.3988 44.6341 32.3023 44.7727 31.2373C44.842 30.6578 43.9352 30.6608 43.8689 31.2373L43.8327 31.2433Z" fill="black"/>
<path d="M43.1817 23.9642C43.312 23.645 43.4629 23.3349 43.6336 23.0357C43.8183 22.6742 44.0857 22.3622 44.4139 22.1255L46.1341 22.9447C46.4865 23.5121 46.2305 25.0473 46.2305 25.7118C46.2305 26.5128 46.2696 27.323 46.2305 28.124C46.2337 28.4301 46.2014 28.7356 46.1341 29.0342L44.6278 30.0173C44.1699 30.1538 43.0793 30.0173 42.9287 29.5318C42.7539 28.9766 41.8803 29.2284 42.058 29.7745C42.5009 31.1763 44.447 31.1733 45.6189 30.7515C47.5741 30.0476 47.1553 27.6415 47.1523 25.9788C47.1523 24.5406 47.562 21.9495 45.9322 21.1545C44.2331 20.3262 43.001 22.1892 42.4195 23.4878C42.1815 24.0188 42.9618 24.48 43.1998 23.946L43.1817 23.9642Z" fill="black"/>
<path d="M36.7164 15.6867C39.0602 15.9476 41.3317 17.4526 43.2748 18.7208C43.7629 19.0424 44.2148 18.2536 43.7297 17.935C41.6209 16.5362 39.2771 15.0495 36.7134 14.7643C36.135 14.7006 36.141 15.6108 36.7134 15.6745L36.7164 15.6867Z" fill="black"/>
<path d="M18.2587 18.9454C22.675 17.7985 27.2408 17.3461 31.7943 17.6043C36.2319 17.8683 40.1483 19.3641 43.905 21.7125C44.4021 22.016 44.854 21.2362 44.3599 20.9267C40.6393 18.6025 36.7139 17.0491 32.3095 16.7305C27.5 16.4009 22.6692 16.8537 18.0027 18.0716C17.4393 18.2172 17.6773 19.0941 18.2437 18.9484L18.2587 18.9454Z" fill="black"/>
<path d="M25.7119 24.301L24.2056 27.675C23.7928 28.5852 23.1602 29.632 23.0879 30.6667C22.9614 32.4872 24.1664 32.4872 25.4196 33.1486C25.9348 33.4186 26.3927 32.6358 25.8745 32.3628C25.513 32.1716 24.9708 32.1443 24.6695 31.941C23.3349 31.0975 24.3683 29.5653 24.7629 28.652L26.5072 24.7592C26.7452 24.2282 25.9649 23.767 25.7269 24.301H25.7119Z" fill="black"/>
<path d="M28.4475 22.9961C28.089 24.1005 29.0862 24.8742 30.1135 24.7923C31.6499 24.6709 33.3821 23.436 34.6324 22.6168C35.1174 22.2982 34.6655 21.5094 34.1775 21.831C33.4898 22.2887 32.7778 22.708 32.0445 23.0871C31.6559 23.2843 28.8753 24.6315 29.3332 23.2358C29.514 22.6775 28.6433 22.4378 28.4626 22.993L28.4475 22.9961Z" fill="black"/>
<path d="M29.6136 27.2894C31.0184 26.6866 32.5844 26.5797 34.0571 26.986C34.1713 27.0142 34.2919 26.9965 34.3933 26.9366C34.4947 26.8768 34.5689 26.7795 34.6003 26.6654C34.6316 26.5513 34.6176 26.4294 34.5612 26.3256C34.5048 26.2217 34.4104 26.1441 34.2982 26.1091C32.6695 25.6553 30.9371 25.762 29.3756 26.4126C28.8454 26.6341 29.0743 27.514 29.6166 27.2894H29.6136Z" fill="black"/>
<path d="M20.2892 24.6286C20.7474 24.3815 21.24 24.2056 21.7503 24.1067C21.9311 24.0734 23.0337 23.867 23.1241 24.1462C23.2988 24.7014 24.1725 24.4496 23.9947 23.9034C23.5007 22.3439 20.7743 23.3452 19.8343 23.8428C19.3192 24.1158 19.7741 24.9017 20.2892 24.6286Z" fill="black"/>
<path d="M21.1239 26.1514V28.0932C21.1243 28.1632 21.1406 28.2322 21.1716 28.2949C21.2027 28.3576 21.2475 28.4123 21.3028 28.4548C21.3581 28.4973 21.4223 28.5264 21.4905 28.54C21.5587 28.5536 21.6291 28.5513 21.6963 28.5332C22.0246 28.4217 22.2982 28.1881 22.4611 27.8801C22.6241 27.5722 22.6641 27.2132 22.5729 26.8765C22.5382 26.7634 22.4612 26.6684 22.3581 26.6116C22.2549 26.5548 22.1339 26.5407 22.0206 26.5723C21.9074 26.6038 21.8108 26.6786 21.7513 26.7807C21.6919 26.8829 21.6743 27.0043 21.7023 27.1193C21.7355 27.2237 21.7286 27.3368 21.6828 27.4363C21.6371 27.5358 21.5558 27.6143 21.4553 27.6563L22.0277 28.0963V26.1544C22.0277 26.0337 21.9801 25.9179 21.8953 25.8326C21.8106 25.7472 21.6956 25.6993 21.5758 25.6993C21.4559 25.6993 21.341 25.7472 21.2562 25.8326C21.1715 25.9179 21.1239 26.0337 21.1239 26.1544V26.1514Z" fill="black"/>
<path d="M24.1456 32.4897C23.6228 32.4754 23.1046 32.5921 22.6377 32.8294C22.1707 33.0666 21.7696 33.417 21.4704 33.849C20.8804 34.7229 20.5502 35.748 20.5184 36.8043C20.4554 37.3013 20.5294 37.8062 20.7323 38.2637C20.8379 38.4881 21.0114 38.673 21.2279 38.7919C21.4445 38.9107 21.6928 38.9574 21.9373 38.9251C22.5398 38.7856 22.8019 38.1059 23.1785 37.6174C23.5621 37.1509 24.096 36.8348 24.6872 36.7239C25.2784 36.613 25.8895 36.7144 26.4141 37.0106C27.0166 37.3716 27.4293 37.9633 27.9716 38.4002C28.5138 38.8371 29.3182 39.1072 29.8936 38.7036C30.3907 38.3638 30.4961 37.6842 30.5142 37.0773C30.5399 36.4357 30.4311 35.7957 30.1949 35.1992C29.7098 34.0796 28.6102 33.3271 27.4504 32.9752C26.2905 32.6232 25.0554 32.6171 23.8353 32.6111" fill="black"/>
<path d="M24.1456 32.0348C21.3529 32.0742 19.2441 35.5088 20.2292 38.1546C20.5305 38.9617 21.2927 39.6201 22.1904 39.3197C22.7929 39.1165 23.0038 38.6188 23.3774 38.1577C24.5101 36.765 25.8447 37.0168 27.0678 38.1577C27.8571 38.8859 28.8362 39.7263 29.9629 39.1953C31.0896 38.6644 31.0927 37.1776 30.93 36.1399C30.3877 32.681 26.7334 32.1956 23.8684 32.1774C23.7486 32.1774 23.6337 32.2253 23.5489 32.3107C23.4642 32.396 23.4166 32.5118 23.4166 32.6325C23.4166 32.7532 23.4642 32.8689 23.5489 32.9543C23.6337 33.0397 23.7486 33.0876 23.8684 33.0876C26.0526 33.0876 29.1857 33.2029 29.9418 35.791C30.0654 36.2158 30.2431 37.2322 30.0262 37.7116C29.3393 39.2712 28.2186 37.9847 27.7065 37.5144C27.1944 37.0441 26.7304 36.5617 26.0104 36.3523C25.4434 36.1956 24.8435 36.2066 24.2825 36.3842C23.7215 36.5618 23.2232 36.8983 22.8472 37.3536C22.2959 37.9999 22.6815 38.1819 21.6783 37.6752C20.7263 37.1928 20.895 36.856 21.127 35.8214C21.4704 34.2861 22.4796 32.9814 24.1577 32.9571C24.2775 32.9571 24.3924 32.9092 24.4772 32.8238C24.5619 32.7385 24.6095 32.6227 24.6095 32.502C24.6095 32.3813 24.5619 32.2655 24.4772 32.1802C24.3924 32.0948 24.2775 32.0469 24.1577 32.0469L24.1456 32.0348Z" fill="black"/>
<path d="M23.5066 39.0976C23.869 39.3291 24.2917 39.4469 24.7208 39.4361C25.1499 39.4253 25.5661 39.2864 25.9166 39.0369C26.3806 38.694 25.9166 37.9052 25.4617 38.2511C25.2489 38.4195 24.9888 38.516 24.7183 38.5269C24.4479 38.5378 24.1809 38.4625 23.9554 38.3117C23.4644 38.0083 23.0095 38.782 23.5005 39.0976H23.5066Z" fill="black"/>
<path d="M44.2484 25.1838C44.1068 24.8227 44.6039 25.023 44.7184 25.1838C44.9956 25.5752 44.7184 26.2184 44.5858 26.6129C44.396 27.1681 45.2667 27.4048 45.4565 26.8556C45.7577 25.9453 45.9566 24.7135 44.9112 24.2068C44.1068 23.8184 42.9922 24.4434 43.3748 25.4204C43.5857 25.9605 44.4593 25.7239 44.2454 25.1777L44.2484 25.1838Z" fill="black"/>
<path d="M35.3916 46.7295C32.8021 47.2751 30.3761 48.4256 28.3089 50.0883C27.854 50.4523 28.4957 51.0926 28.9476 50.7315C30.9016 49.1778 33.1902 48.1074 35.6296 47.6063C36.1989 47.485 35.9579 46.6081 35.3885 46.7295H35.3916Z" fill="black"/>
<path d="M47.7044 46.281C48.6774 47.079 49.7349 47.2944 50.955 47.4795C52.6623 47.7803 54.309 48.3615 55.8293 49.1998C57.2543 49.9311 58.7365 50.8626 59.2215 52.498C59.6313 53.8785 59.5017 55.2863 60.0892 56.6274C60.3241 57.1614 61.1014 56.7002 60.8694 56.1693C60.2458 54.7493 60.4959 53.1351 59.8994 51.7151C59.4174 50.5622 58.4744 49.7217 57.4441 49.0663C56.2335 48.3151 54.9506 47.6889 53.6151 47.1973C51.9521 46.5692 49.7559 46.7998 48.34 45.6408C47.8911 45.2737 47.2495 45.9139 47.7014 46.284L47.7044 46.281Z" fill="black"/>
<path d="M13.1584 47.9946C12.5967 46.9096 12.2624 45.7198 12.1763 44.4993C12.1341 44.0017 11.9444 40.3425 13.1916 40.9554C13.7128 41.2133 14.1707 40.4274 13.6465 40.1695C12.1552 39.4353 11.4202 40.9159 11.2846 42.2115C11.0269 44.3551 11.4075 46.5275 12.3782 48.4527C12.6523 48.9686 13.4326 48.5104 13.1584 47.9946Z" fill="black"/>
<path d="M13.3006 44.0872C13.7826 46.4993 15.7679 48.8174 17.1507 50.7623C18.7233 52.9651 20.4043 55.086 22.0161 57.2584C22.3595 57.7226 23.1458 57.2584 22.7963 56.8002C21.2569 54.7249 19.6542 52.6981 18.1419 50.6015C16.741 48.6536 14.6533 46.2778 14.1682 43.8505C14.0538 43.2771 13.1831 43.5198 13.2976 44.0932L13.3006 44.0872Z" fill="black"/>
<path d="M12.5108 47.688C9.33554 48.9017 6.09097 50.1912 3.58449 52.5882C2.92774 53.2163 2.29811 53.8807 1.67149 54.5391C1.20755 55.0276 0.24954 55.7528 0.0476959 56.4264C-0.154148 57.1 0.312804 57.4641 0.918337 57.6673C1.7227 57.9404 2.32221 57.546 2.99101 57.0787C3.79838 56.5174 4.49731 55.8256 5.33481 55.3189C7.22371 54.1751 9.09755 53.0069 11.0045 51.8903C11.1034 51.8273 11.1742 51.7281 11.2019 51.6137C11.2297 51.4992 11.2123 51.3783 11.1533 51.2765C11.0944 51.1747 10.9985 51.0999 10.8859 51.0678C10.7733 51.0357 10.6528 51.0489 10.5496 51.1045C8.39862 52.3728 5.98854 53.5773 4.01529 55.1217C3.35252 55.6405 2.7018 56.3627 1.90647 56.6904C1.67751 56.7875 1.25274 57.0271 1.00269 56.7905C0.861097 56.6539 1.24069 56.3232 1.47266 56.0653C2.44207 54.9509 3.47407 53.8933 4.56358 52.8977C6.90437 50.8163 9.85973 49.6724 12.7368 48.5649C13.273 48.3586 13.038 47.4757 12.4958 47.688H12.5108Z" fill="black"/>
<path d="M6.81372 53.2923C5.90994 53.7414 6.2112 54.9733 6.97339 55.4314C8.34111 56.2658 10.8114 55.4314 12.1792 55.0097C13.2034 54.7062 15.4689 54.3482 15.4207 52.8463C15.3665 51.1593 12.7094 51.7115 11.7092 51.7055C11.5893 51.7055 11.4744 51.7534 11.3897 51.8388C11.3049 51.9241 11.2573 52.0399 11.2573 52.1606C11.2573 52.2813 11.3049 52.3971 11.3897 52.4824C11.4744 52.5678 11.5893 52.6157 11.7092 52.6157C11.9592 52.6157 13.9626 52.464 14.05 52.6157C14.5712 53.5624 12.3569 53.9962 11.9412 54.1328C11.2247 54.358 10.494 54.5344 9.75402 54.6607C9.24106 54.7442 8.72213 54.7848 8.20253 54.7821C7.67432 54.8832 7.36502 54.6476 7.27465 54.0752C7.79583 53.8142 7.33791 53.0284 6.81975 53.2893L6.81372 53.2923Z" fill="black"/>
<path d="M7.85906 55.2923C7.71221 55.4572 7.59989 55.6503 7.52881 55.8599C7.45773 56.0695 7.42936 56.2915 7.44539 56.5124C7.46142 56.7333 7.52152 56.9487 7.62211 57.1457C7.72269 57.3427 7.86168 57.5173 8.03078 57.6589C9.17858 58.7088 11.2 57.9381 12.4442 57.5497C13.333 57.2706 16.0835 56.7153 16.2491 55.5441C16.3968 54.4883 14.8935 54.0544 14.1253 53.9785C13.5468 53.9209 13.5499 54.8311 14.1253 54.8888C16.9722 55.174 13.1582 56.3634 12.4593 56.5909C11.9502 56.7578 11.435 56.8943 10.9138 57.0369C10.6809 57.0996 10.4449 57.1543 10.2059 57.2008C9.1595 57.5528 8.59012 57.132 8.49773 55.9386C8.87431 55.4956 8.23865 54.8493 7.85906 55.2953V55.2923Z" fill="black"/>
<path d="M15.4033 61.6967C16.533 63.3625 19.1329 61.4358 20.2054 60.5923C20.9766 59.9855 24.2121 57.6765 22.8896 56.5023C22.4558 56.1169 21.8141 56.7571 22.2509 57.1455C22.4648 57.3367 20.3229 59.3149 20.0999 59.5091C19.6209 59.9187 16.8343 62.2004 16.1835 61.2416C15.8582 60.7592 15.0749 61.2143 15.4033 61.6997V61.6967Z" fill="black"/>
<path d="M15.0266 61.8001C15.8701 62.8439 16.7076 63.8967 17.5602 64.9344C18.0211 65.4927 18.4218 66.0904 19.181 66.2118C20.7445 66.4606 22.6244 65.1346 23.7873 64.2517C24.8115 63.475 26.0678 62.5344 25.9503 61.0901C25.8027 59.2909 23.8264 57.6221 22.6696 56.4418C22.2599 56.0231 21.6212 56.6694 22.0309 57.0851C22.9347 58.0135 24.0072 59.0087 24.6669 60.1465C25.6942 61.9184 23.8053 63.1807 22.54 64.0272C21.0608 65.0042 19.7082 65.7142 18.1989 64.2851C17.2529 63.3748 16.4847 62.1612 15.6653 61.1508C15.2977 60.6957 14.6621 61.345 15.0266 61.794V61.8001Z" fill="black"/>
<path d="M17.5868 64.4577C20.9007 64.2999 23.3589 61.6875 24.6062 58.7717C24.8351 58.2407 24.0549 57.7765 23.8259 58.3135C22.7143 60.9077 20.5723 63.4079 17.5898 63.5505C17.0114 63.5778 17.0084 64.488 17.5898 64.4607L17.5868 64.4577Z" fill="black"/>
<path d="M9.72998 58.1224C10.2481 59.5636 11.4472 60.5861 13.0438 60.5163C13.9988 60.4769 14.6315 59.952 15.4539 59.5181C16.2071 59.1176 17.0295 58.9962 17.5899 58.3044C17.9544 57.8554 17.3187 57.2061 16.9512 57.6612C16.436 58.2984 15.3123 58.5714 14.5893 58.9871C13.0529 59.8458 11.2754 59.7305 10.6247 57.8766C10.4289 57.3305 9.55525 57.5732 9.75408 58.1194L9.72998 58.1224Z" fill="black"/>
<path d="M14.6015 59.7457C14.8758 60.3993 15.1949 61.033 15.5565 61.6421C15.6191 61.7417 15.7175 61.8129 15.8312 61.8409C15.9449 61.8688 16.0649 61.8513 16.166 61.7919C16.2671 61.7326 16.3414 61.636 16.3732 61.5226C16.4051 61.4092 16.392 61.2878 16.3368 61.1839C15.9752 60.5748 15.6561 59.9412 15.3818 59.2876C15.3208 59.184 15.2219 59.1088 15.1063 59.0781C14.9908 59.0475 14.8679 59.0639 14.7642 59.1237C14.6631 59.1867 14.5899 59.2863 14.5597 59.402C14.5294 59.5178 14.5444 59.6408 14.6015 59.7457Z" fill="black"/>
<path d="M28.4776 49.4511C27.131 50.1884 25.8115 50.9986 24.8806 52.2547C23.8021 53.705 23.3743 55.4982 22.9797 57.2337C22.8501 57.8041 23.7208 58.0469 23.8503 57.4765C24.1907 55.9897 24.5251 54.4089 25.3777 53.1225C26.2303 51.836 27.5709 50.9986 28.9326 50.24C29.4447 49.9609 28.9868 49.175 28.4776 49.4542V49.4511Z" fill="black"/>
</svg>
