<svg width="168" height="150" viewBox="0 0 168 150" fill="none" xmlns="http://www.w3.org/2000/svg" id="upgrade-to-pro">
<path d="M67.1 54.8447C66.9642 57.3711 65.5661 59.21 63.9699 61.0318C63.1888 61.9197 61.7511 63.0139 61.7058 64.3372C61.6549 65.2767 62.2719 65.8439 62.9284 66.4168C64.6265 67.8948 66.7717 69.0291 68.6396 70.2493C69.5622 70.8222 70.4112 69.3613 69.4943 68.7655C68.3622 68.0265 65.5321 66.8292 64.8699 65.6949C63.5114 63.4035 65.3057 62.2577 66.534 60.625C67.8702 58.987 68.6624 56.9644 68.7981 54.8447C68.8603 53.7391 67.1623 53.7448 67.1 54.8447Z" fill="black"/>
<path d="M62.0342 68.9832C62.8606 76.8659 66.1718 88.4609 74.4866 91.4856C82.1901 94.2641 91.371 88.5869 92.9049 80.6469C93.1143 79.5641 91.4785 79.1058 91.2691 80.1886C89.8484 87.5614 80.4524 93.2845 73.5696 89.1369C67.0717 85.2241 64.4511 76.0582 63.7096 68.9774C63.5964 67.889 61.8983 67.8775 62.0115 68.9774L62.0342 68.9832Z" fill="black"/>
<path d="M71.2037 83.1733C74.1414 89.8015 82.4449 87.8308 85.3089 82.3369C85.8183 81.3573 84.3523 80.4923 83.8429 81.4719C81.5449 85.883 75.0979 87.7735 72.6697 82.3083C72.2225 81.3001 70.7566 82.1765 71.2037 83.1733Z" fill="black"/>
<path d="M70.7507 90.1051L72.4487 86.9485C72.9751 85.9804 71.5091 85.1096 70.9827 86.0835L69.2847 89.24C68.7583 90.2082 70.2243 91.0789 70.7507 90.1051Z" fill="black"/>
<path d="M76.2186 90.2196L76.6318 92.8892C76.6985 93.1037 76.8451 93.2835 77.0406 93.3904C77.2361 93.4974 77.465 93.5231 77.6789 93.462C77.8884 93.3909 78.0634 93.2419 78.1685 93.0451C78.2736 92.8484 78.3009 92.6186 78.2449 92.4022L77.8318 89.7326C77.765 89.5181 77.6184 89.3383 77.4229 89.2314C77.2274 89.1244 76.9985 89.0987 76.7846 89.1598C76.5751 89.2309 76.4001 89.3799 76.295 89.5767C76.19 89.7734 76.1626 90.0032 76.2186 90.2196Z" fill="black"/>
<path d="M83.0562 85.7627L85.3203 87.2923C86.2316 87.9053 87.0806 86.4215 86.175 85.8086L83.9109 84.279C82.9996 83.666 82.1506 85.1498 83.0562 85.7627Z" fill="black"/>
<path d="M78.1655 76.9404C78.9345 77.352 79.7957 77.5549 80.6653 77.5296C81.5349 77.5042 82.3831 77.2513 83.1275 76.7956C83.8718 76.3399 84.4868 75.6969 84.9127 74.9292C85.3386 74.1614 85.5608 73.2952 85.5577 72.4147C85.5577 72.1868 85.4682 71.9683 85.309 71.8071C85.1498 71.6459 84.9338 71.5554 84.7086 71.5554C84.4835 71.5554 84.2675 71.6459 84.1083 71.8071C83.9491 71.9683 83.8596 72.1868 83.8596 72.4147C83.8714 72.997 83.7332 73.5724 83.4588 74.0843C83.1844 74.5963 82.783 75.0271 82.2943 75.3345C81.8055 75.642 81.2461 75.8154 80.6711 75.8379C80.0961 75.8603 79.5252 75.7309 79.0145 75.4624C78.0409 74.9697 77.1806 76.4535 78.1598 76.9462L78.1655 76.9404Z" fill="black"/>
<path d="M64.8527 67.3505C64.2282 68.3017 63.3811 69.0819 62.3866 69.6216C61.3921 70.1613 60.2813 70.4437 59.1529 70.4437C58.0245 70.4437 56.9136 70.1613 55.9191 69.6216C54.9247 69.0819 54.0775 68.3017 53.453 67.3505C52.1625 65.3855 51.9418 62.9165 51.8455 60.5562C51.7286 57.7568 51.7286 54.9573 51.8455 52.1579" fill="black"/>
<path d="M64.117 66.9151C60.4888 71.7444 54.1777 69.2811 53.0173 63.8846C52.2192 60.161 52.5475 55.9503 52.672 52.1694C52.706 51.0637 51.0079 51.0637 50.974 52.1694C50.8042 57.3252 49.7004 65.3455 53.9512 69.2525C57.5851 72.5751 62.7642 71.5439 65.5829 67.7859C66.2452 66.9037 64.7679 66.0673 64.117 66.9209V66.9151Z" fill="black"/>
<path d="M69.9753 45.3464L70.9376 51.3444C71.3961 54.2088 71.8715 57.1018 73.2696 59.6167C74.6676 62.1316 77.1808 64.1997 80.0335 64.2283C82.524 64.2283 84.8334 62.6873 86.2597 60.6307C87.6861 58.574 88.3936 56.082 88.8521 53.6072C89.6837 49.1157 89.8364 44.5223 89.3049 39.9843" fill="black"/>
<path d="M69.1432 45.5756C70.1847 52.0548 71.3337 67.0068 81.4655 64.9273C91.184 62.9337 90.935 47.3974 90.1539 39.9844C90.0407 38.8959 88.3369 38.8845 88.4558 39.9844C88.9225 44.0958 88.8407 48.252 88.2124 52.3413C87.5615 56.3858 86.2993 61.3297 82.0768 62.928C72.7714 66.4511 71.6733 50.6799 70.7564 45.1116C70.5809 44.0232 68.9451 44.4872 69.1206 45.5699L69.1432 45.5756Z" fill="black"/>
<path d="M51.7381 51.6366C57.8107 48.7351 64.0479 46.2004 70.4168 44.046C73.2922 43.0492 76.1845 42.0868 79.0769 41.1301C82.3994 40.0359 85.7616 38.9303 89.2313 40.0588C90.2728 40.3968 90.7199 38.7412 89.6841 38.4032C83.6333 36.4383 76.6657 40.1218 71.0055 42.041C64.1398 44.329 57.4181 47.038 50.8778 50.1529C49.8929 50.6341 50.7533 52.1178 51.7325 51.6366H51.7381Z" fill="black"/>
<path d="M65.3508 46.2803C65.9571 49.1008 66.1799 51.9918 66.0131 54.8734C65.9508 55.979 67.6488 55.9733 67.7111 54.8734C67.8765 51.8467 67.6347 48.8113 66.9923 45.8506C66.7602 44.7679 65.1244 45.2262 65.3565 46.3089L65.3508 46.2803Z" fill="black"/>
<path d="M88.92 39.6178C91.908 40.4426 94.758 41.713 97.3763 43.3873C98.3046 43.9602 99.1593 42.4936 98.231 41.9036C95.4854 40.1516 92.4983 38.8215 89.3671 37.9565C89.1527 37.9033 88.9261 37.9367 88.7356 38.0497C88.5451 38.1627 88.4056 38.3464 88.3467 38.5618C88.2878 38.7772 88.3141 39.0074 88.4201 39.2034C88.526 39.3995 88.7033 39.5461 88.9143 39.6121L88.92 39.6178Z" fill="black"/>
<path d="M105.963 40.2364C99.5835 41.4795 94.2799 46.8474 94.3139 53.6531C94.3478 59.8688 98.7119 65.3168 104.915 66.0042C111.119 66.6917 118.064 61.3181 118.687 54.8389C119.253 48.692 111.996 41.9722 106.727 40.2822C105.685 39.95 105.238 41.6056 106.274 41.9378C110.802 43.3929 117.945 49.8779 116.932 55.2342C115.874 60.8255 109.778 65.2137 104.327 64.1882C99.0288 63.1972 95.6837 58.1272 96.0289 52.8167C96.4082 47.088 101.061 42.9289 106.41 41.8863C107.48 41.68 107.027 40.0187 105.957 40.2307L105.963 40.2364Z" fill="black"/>
<path d="M66.1828 21.9904C73.1053 15.3909 83.6729 9.05494 92.2198 16.8346C99.5497 23.5257 105.68 31.3053 107.502 41.3363C107.7 42.4248 109.336 41.9608 109.138 40.878C108.147 35.3336 105.886 30.1011 102.538 25.5995C99.4365 21.4175 95.5196 16.7773 91.2179 13.8442C82.1616 7.71442 71.7072 14.3827 65.0055 20.7759C64.2074 21.5378 65.413 22.7523 66.2055 21.9904H66.1828Z" fill="black"/>
<path d="M66.4434 21.9446C70.1565 20.7015 73.5583 18.5876 77.328 17.5278C81.8278 16.2675 85.79 17.6595 89.1012 20.8161C91.852 23.4341 93.952 26.6708 96.1311 29.7643L104.237 41.2906C104.865 42.1842 106.336 41.3249 105.703 40.4255C102.586 36.0029 99.4688 31.5784 96.3519 27.152C94.1444 24.0242 91.9143 20.8046 88.9087 18.4043C86.0786 16.1128 82.7391 14.967 79.0939 15.4253C74.4469 16.0326 70.3772 18.8626 65.9906 20.3062C64.9604 20.6499 65.4246 22.3113 66.4434 21.9618V21.9446Z" fill="black"/>
<path d="M52.1344 32.8349C50.8383 35.642 51.5288 39.4688 54.6136 40.7692C57.6078 42.0296 61.0323 39.8297 61.4681 36.6904L60.421 37.2633C63.6699 38.2486 67.632 39.1079 70.6093 36.8451C72.8734 35.1264 73.7054 32.3824 72.5451 29.8044L71.2093 30.8471C77.1468 38.1913 88.5012 34.0781 88.8125 24.7116L87.3635 25.3189C88.7963 26.5989 90.6486 27.2932 92.5596 27.2666C92.7847 27.2666 93.0007 27.1761 93.1599 27.0149C93.3191 26.8538 93.4086 26.6352 93.4086 26.4073C93.4086 26.1794 93.3191 25.9608 93.1599 25.7997C93.0007 25.6385 92.7847 25.548 92.5596 25.548C91.0943 25.6005 89.6647 25.084 88.5635 24.1044C88.4428 23.9896 88.292 23.9126 88.1291 23.8824C87.9662 23.8523 87.7982 23.8704 87.6452 23.9345C87.4923 23.9986 87.3608 24.106 87.2667 24.2438C87.1725 24.3817 87.1197 24.5441 87.1144 24.7116C86.8484 32.7318 77.3336 35.728 72.3979 29.6326C71.7414 28.8191 70.6999 29.856 71.0621 30.6752C72.4262 33.7057 69.4829 36.1175 66.8792 36.467C64.8303 36.7477 62.8266 36.1977 60.8738 35.6077C60.6599 35.5466 60.431 35.5723 60.2355 35.6793C60.04 35.7862 59.8934 35.966 59.8266 36.1805C59.5153 38.4147 57.4324 39.8297 55.3381 38.9475C53.2438 38.0653 52.6382 35.7108 53.5948 33.6427C54.0532 32.6459 52.5929 31.7751 52.1288 32.7777L52.1344 32.8349Z" fill="black"/>
<path d="M62.6678 75.8978C60.0924 79.4496 55.202 77.2841 55.502 73.0792C55.5009 72.9282 55.4608 72.7801 55.3857 72.6496C55.3105 72.5191 55.2029 72.4108 55.0735 72.3355C54.9441 72.2601 54.7975 72.2204 54.6483 72.2203C54.499 72.2201 54.3523 72.2595 54.2228 72.3345L51.6021 71.9736C51.2522 71.5299 51.0058 71.012 50.8813 70.4585C50.7569 69.905 50.7575 69.3302 50.8833 68.777C50.9833 67.8777 51.173 66.991 51.4493 66.1303C51.6191 65.5574 51.0191 64.8356 50.4022 65.0705C45.7721 66.8636 40.0949 65.2767 37.5082 60.8255C34.8479 56.2425 36.4724 50.1013 40.6327 47.0765C40.7424 47.0078 40.8357 46.9152 40.9055 46.8053C40.9754 46.6954 41.02 46.5712 41.0363 46.4416C41.0526 46.312 41.04 46.1803 40.9996 46.0563C40.9591 45.9322 40.8918 45.8189 40.8025 45.7246C35.6064 39.6922 38.7931 30.7038 46.4627 29.1112C46.6738 29.0425 46.8505 28.8939 46.956 28.6964C47.0614 28.4989 47.0875 28.2679 47.0287 28.0514C44.9514 19.4583 53.17 12.5495 61.1792 15.8779C61.3931 15.9404 61.6227 15.9154 61.8185 15.8083C62.0144 15.7011 62.1608 15.5204 62.2263 15.305C62.5078 13.1693 63.3394 11.1461 64.6376 9.43849C65.9359 7.7309 67.6552 6.39902 69.6228 5.57654C71.5905 4.75407 73.7373 4.46994 75.8477 4.75268C77.9582 5.03543 79.958 5.87509 81.6464 7.18739C82.1276 7.5483 82.7162 7.13583 82.8917 6.6718C85.8407 -1.10782 96.9177 1.22951 96.8214 9.46169C96.8225 9.61274 96.8626 9.76089 96.9378 9.89138C97.0129 10.0219 97.1206 10.1302 97.2499 10.2055C97.3793 10.2808 97.5259 10.3205 97.6752 10.3207C97.8244 10.3209 97.9711 10.2815 98.1006 10.2064C104.134 6.19632 111.9 11.0428 110.723 18.3756C110.686 18.5221 110.687 18.6759 110.726 18.8218C110.766 18.9677 110.842 19.1007 110.948 19.2077C111.054 19.3146 111.185 19.3919 111.329 19.4318C111.473 19.4718 111.625 19.473 111.77 19.4354C117.725 17.8142 121.392 22.2253 122.564 27.639C123.373 31.4657 124.624 37.5153 120.713 40.0531L121.873 41.2275C123.639 38.472 125.711 42.6998 125.836 44.2866C125.865 45.2249 125.84 46.1641 125.762 47.0995C125.722 49.7165 125.341 52.3168 124.63 54.8332C123.181 59.336 117.623 64.4289 112.959 60.476C112.127 59.7714 110.921 60.9802 111.759 61.6905C114.26 63.8102 117.464 63.982 120.39 62.5728C124.166 60.7797 126.051 57.0102 126.837 53.0172C127.505 49.5456 128.722 43.4732 126.407 40.414C124.885 38.4032 121.828 38.1741 120.424 40.3625C120.336 40.5266 120.302 40.7154 120.328 40.9007C120.354 41.086 120.439 41.2577 120.57 41.39C120.7 41.5224 120.87 41.6082 121.053 41.6347C121.236 41.6612 121.423 41.6268 121.585 41.5369C126.504 38.346 125.207 31.2251 124.024 26.3328C122.558 20.2947 117.679 16.0211 111.334 17.7741L112.381 18.8339C113.785 10.1148 104.7 3.81889 97.2686 8.72269L98.5478 9.46742C98.5987 5.02193 95.5479 0.776936 91.065 0.0952175C86.7519 -0.557858 82.7955 2.22058 81.2842 6.21923L82.5294 5.70365C80.614 4.25802 78.3606 3.3403 75.9897 3.04024C73.6188 2.74019 71.2116 3.06807 69.0034 3.99182C66.7952 4.91558 64.8618 6.40357 63.3921 8.31028C61.9224 10.217 60.9668 12.4771 60.6188 14.8696L61.666 14.2967C52.4002 10.3554 43.1062 18.7594 45.4382 28.5269L46.0042 27.4671C43.9788 27.8666 42.0947 28.8038 40.5449 30.1825C38.995 31.5613 37.835 33.3322 37.1837 35.3139C36.5324 37.2956 36.4131 39.4169 36.8381 41.4606C37.2631 43.5043 38.2172 45.397 39.6025 46.9448L39.7723 45.5928C35.0687 49.03 33.0254 55.6467 35.6857 61.0604C38.4082 66.5771 45.274 68.9202 50.8493 66.7547L49.8022 65.6949C49.1286 68.0265 48.4211 70.8851 50.1418 72.936C50.6985 73.6806 51.511 74.1866 52.4186 74.3542C53.3262 74.5218 54.2628 74.3388 55.0435 73.8412L53.7643 73.0964C53.3341 79.1975 60.6188 81.5807 64.0942 76.78C64.7394 75.8863 63.2678 75.027 62.6282 75.915L62.6678 75.8978Z" fill="black"/>
<path d="M105.629 66.0844C103.365 75.4165 101.899 84.9892 103.999 94.5103C104.236 95.5874 105.872 95.1348 105.634 94.0521C103.602 84.8517 105.068 75.5654 107.265 66.5542C107.525 65.4829 105.889 65.0246 105.629 66.0959V66.0844Z" fill="black"/>
<path d="M81.4938 91.1306C81.6828 94.3249 80.9597 97.5068 79.4108 100.297C78.8788 101.265 80.3448 102.13 80.8768 101.162C82.5758 98.1089 83.3789 94.629 83.1918 91.1306C83.1352 90.0306 81.4372 90.0249 81.4938 91.1306Z" fill="black"/>
<path d="M72.9921 98.9444C72.3134 103.183 72.6394 107.524 73.9431 111.611C74.277 112.659 75.9185 112.183 75.5788 111.152C74.3478 107.365 74.0219 103.336 74.6279 99.397C74.7921 98.3142 73.1563 97.8502 72.9921 98.9387V98.9444Z" fill="black"/>
<path d="M77.792 118.892C79.6939 123.962 83.973 132.068 90.7426 128.883C93.7877 127.451 94.5689 123.59 95.5141 120.662C97.0424 115.924 98.3442 111.112 99.397 106.254C99.6348 105.177 97.9989 104.719 97.7612 105.796C96.4311 111.794 94.9311 117.912 92.718 123.647C91.9765 125.572 91.0199 127.233 88.8691 127.657C87.9675 127.781 87.0502 127.708 86.1785 127.445C85.3069 127.181 84.5009 126.732 83.8145 126.127C81.5504 124.191 80.4523 121.178 79.4278 118.457C79.043 117.431 77.4015 117.884 77.792 118.915V118.892Z" fill="black"/>
<path d="M60.8115 119.012C60.4957 125.551 58.4467 131.883 54.8796 137.344C54.2796 138.272 55.7513 139.132 56.3456 138.209C60.0593 132.49 62.188 125.866 62.5095 119.029C62.5661 117.924 60.8681 117.93 60.8115 119.029V119.012Z" fill="black"/>
<path d="M37.3951 86.261C32.2104 83.8206 28.6105 88.8332 25.803 92.5053C22.0107 97.4607 17.5278 102.399 14.6128 107.973C13.1638 110.734 13.894 115.008 17.8788 113.518C20.6692 112.476 23.0578 109.474 25.237 107.526L33.4839 100.119C34.3047 99.3855 33.099 98.171 32.284 98.9043L22.3786 107.744C21.5522 108.483 20.7428 109.245 19.8995 109.961C18.6372 111.032 18.3316 111.92 16.6505 110.946C14.9694 109.972 15.6713 109.468 16.509 108.082C17.0184 107.228 17.5675 106.397 18.1278 105.578C20.4881 102.095 23.1144 98.8012 25.6672 95.4613C28.0275 92.3793 31.7915 85.5105 36.5348 87.7447C37.5197 88.2088 38.38 86.725 37.3895 86.261H37.3951Z" fill="black"/>
<path d="M31.3842 85.5106C28.6956 85.6939 26.2278 83.792 23.7146 85.5106C21.4506 87.0344 19.3676 89.9274 17.8393 92.1674C16.43 94.2354 12.0094 103.791 17.7658 103.361C18.8469 103.281 18.8582 101.562 17.7658 101.643C15.2017 101.832 17.5394 96.0858 17.9526 95.2781C18.8866 93.5224 20.0269 91.8874 21.3487 90.4086C22.8543 88.6557 24.3825 86.3985 27.0089 86.5475C28.5428 86.6334 29.7767 87.3552 31.3729 87.2464C32.4596 87.1719 32.4653 85.4533 31.3729 85.5278L31.3842 85.5106Z" fill="black"/>
<path d="M24.8182 84.7086C22.3957 84.1357 19.9165 83.9466 17.726 85.3445C15.7053 86.6277 14.245 88.8447 12.9828 90.844C11.0073 93.9662 10.3055 100.084 15.5298 100.102C15.755 100.102 15.971 100.011 16.1302 99.85C16.2894 99.6888 16.3789 99.4703 16.3789 99.2424C16.3789 99.0145 16.2894 98.7959 16.1302 98.6347C15.971 98.4736 15.755 98.383 15.5298 98.383C14.1714 98.383 12.9997 96.7274 12.9714 95.4786C13.0344 94.5297 13.3175 93.6092 13.7978 92.7918C14.4454 91.6137 15.1895 90.4927 16.0223 89.4405C18.2864 86.4845 20.7542 85.545 24.3654 86.3699C25.4295 86.6105 25.8823 84.9549 24.8182 84.7143V84.7086Z" fill="black"/>
<path d="M36.3989 87.974C39.5913 90.8384 39.5233 95.2839 39.3592 99.2768C39.1611 104.141 38.9007 109.016 38.6687 113.868L37.2932 143.044C37.2423 144.15 38.9404 144.15 38.9913 143.044L40.5252 110.499C40.7516 105.687 41.261 100.801 41.0912 95.9828C40.978 92.5112 40.2422 89.1427 37.5819 86.7538C36.7668 86.0205 35.5612 87.235 36.3819 87.9683L36.3989 87.974Z" fill="black"/>
<path d="M31.5142 110.396C30.1363 110.784 28.6778 110.766 27.3095 110.345C25.9412 109.924 24.7197 109.117 23.788 108.019C23.0635 107.188 21.8636 108.408 22.5881 109.233C23.7339 110.545 25.2205 111.504 26.8786 112.002C28.5367 112.501 30.2998 112.518 31.967 112.052C32.178 111.986 32.3553 111.839 32.4613 111.643C32.5672 111.447 32.5936 111.217 32.5346 111.002C32.4757 110.786 32.3362 110.602 32.1457 110.489C31.9552 110.376 31.7287 110.343 31.5142 110.396Z" fill="black"/>
<path d="M30.0879 103.327C31.3904 103.014 32.7593 103.157 33.9708 103.734C34.9557 104.204 35.816 102.72 34.8255 102.25C33.2113 101.463 31.379 101.261 29.6351 101.677C28.571 101.923 29.0238 103.579 30.0879 103.333V103.327Z" fill="black"/>
<path d="M21.3768 110.843C20.7265 112.938 20.7947 115.194 21.5704 117.245C22.3462 119.295 23.7839 121.02 25.6503 122.14C25.8441 122.245 26.0706 122.27 26.2822 122.209C26.4937 122.149 26.6738 122.008 26.7846 121.815C26.8953 121.623 26.928 121.395 26.8759 121.179C26.8237 120.963 26.6908 120.775 26.505 120.656C24.962 119.728 23.7762 118.297 23.1418 116.597C22.5073 114.898 22.4618 113.03 23.0126 111.301C23.3466 110.247 21.7051 109.795 21.3768 110.843Z" fill="black"/>
<path d="M22.7296 119.562C20.8844 129.4 18.809 139.189 16.5034 148.928C16.2487 150.005 17.8845 150.463 18.1392 149.386C20.4486 139.647 22.524 129.859 24.3654 120.02C24.5692 118.938 22.9334 118.474 22.7296 119.562Z" fill="black"/>
<path d="M124.562 77.6909C122.904 80.2975 123.243 83.1791 123.56 86.1351C123.979 90.0688 124.404 94.0006 124.834 97.9305L127.443 122.066C127.562 123.154 129.26 123.166 129.141 122.066L126.775 100.159L125.643 89.4864C125.275 86.0492 124.087 81.6208 126.051 78.5388C126.617 77.605 125.174 76.7457 124.585 77.6737L124.562 77.6909Z" fill="black"/>
<path d="M9.52438 102.135C8.45573 100.645 7.75003 98.92 7.46479 97.1012C7.17954 95.2824 7.32281 93.4211 7.88291 91.669C8.2112 90.6092 6.56976 90.1566 6.24712 91.2107C5.62599 93.1839 5.4668 95.2762 5.78214 97.3224C6.09747 99.3685 6.87869 101.312 8.06404 103C8.68667 103.9 10.164 103.041 9.53003 102.135H9.52438Z" fill="black"/>
<path d="M3.66606 103.161C2.72137 102.153 2.08135 100.892 1.82159 99.5278C1.56183 98.1636 1.69316 96.7525 2.20007 95.4613C2.58496 94.4244 0.943499 93.9776 0.564266 95.003C-0.0221258 96.5881 -0.154734 98.3084 0.181692 99.9663C0.518117 101.624 1.30993 103.152 2.4661 104.375C3.21325 105.183 4.41321 103.969 3.66606 103.161Z" fill="black"/>
<path d="M125.502 78.7106C133.777 76.992 141.916 79.6215 149.682 82.3197C150.52 82.6119 151.38 82.8926 152.195 83.202C152.837 83.4273 153.469 83.6736 154.091 83.941C155.046 83.983 155.235 84.3152 154.658 84.9378C154.188 86.1408 149.756 86.3814 148.771 86.4616C144.508 86.7687 140.225 86.2695 136.143 84.9893C135.096 84.6685 134.649 86.3298 135.69 86.6449C140.758 88.268 146.126 88.6894 151.38 87.8766C152.886 87.6188 159.072 85.7799 156.446 83.202C154.952 81.7354 151.505 81.1339 149.654 80.4865C146.863 79.5241 144.056 78.5903 141.198 77.8513C135.871 76.4879 130.477 75.9322 125.06 77.0493C123.991 77.267 124.443 78.9283 125.513 78.7049L125.502 78.7106Z" fill="black"/>
<path d="M129.311 76.4935C129.877 71.7616 135.911 73.4458 138.798 74.202C141.028 74.7749 147.961 75.4108 147.826 78.9225C147.786 80.0282 149.484 80.0282 149.524 78.9225C149.597 76.9404 148.607 75.5368 146.858 74.6661C144.028 73.2511 140.349 72.7412 137.235 72.0423C133.307 71.1543 128.179 71.5439 127.613 76.5164C127.483 77.6106 129.181 77.6049 129.311 76.5164V76.4935Z" fill="black"/>
<path d="M135.311 71.08C134.535 68.1468 141.871 69.1322 142.895 69.4186C144.594 69.8884 151.171 73.022 147.69 75.8405C146.835 76.5337 148.046 77.7425 148.89 77.055C153.282 73.5032 147.005 68.9489 143.795 67.889C141.163 67.0297 132.339 66.4225 133.686 71.5268C133.752 71.7403 133.896 71.9198 134.09 72.027C134.284 72.1343 134.511 72.1609 134.724 72.1013C134.937 72.0417 135.118 71.9005 135.23 71.7076C135.342 71.5148 135.375 71.2856 135.322 71.0685L135.311 71.08Z" fill="black"/>
<path d="M154.454 66.4969C155.892 67.2881 157.034 68.5341 157.707 70.0444C158.38 71.5547 158.545 73.2464 158.178 74.8609C157.929 75.9379 159.571 76.3962 159.814 75.3192C160.275 73.3357 160.082 71.2541 159.264 69.3922C158.447 67.5302 157.049 65.9902 155.286 65.0075C154.329 64.4747 153.469 65.9584 154.431 66.4912L154.454 66.4969Z" fill="black"/>
<path d="M157.567 61.6047C163.94 62.7962 167.297 69.1551 164.846 75.2047C164.432 76.2301 166.074 76.6712 166.481 75.663C167.149 74.077 167.452 72.3586 167.368 70.637C167.285 68.9153 166.817 67.2352 166 65.7229C165.183 64.2105 164.038 62.9053 162.651 61.9053C161.263 60.9052 159.67 60.2364 157.991 59.9491C156.921 59.7486 156.463 61.4042 157.538 61.6047H157.567Z" fill="black"/>
<path d="M135.181 100.136C136.644 100.093 138.079 99.7226 139.383 99.0505C140.687 98.3784 141.828 97.4217 142.722 96.2495C143.617 95.0772 144.243 93.7186 144.556 92.2716C144.869 90.8247 144.86 89.3255 144.531 87.8822C144.311 86.7995 142.675 87.2578 142.896 88.3405C143.157 89.5286 143.156 90.7603 142.893 91.9479C142.63 93.1356 142.112 94.2501 141.376 95.2121C140.639 96.1742 139.702 96.9602 138.631 97.5141C137.561 98.0681 136.383 98.3765 135.181 98.4174C134.094 98.4747 134.088 100.193 135.181 100.136Z" fill="black"/>
<path d="M134.371 92.3106C135.488 90.3801 137.105 88.7952 139.047 87.7277C140.003 87.1949 139.149 85.7111 138.192 86.2439C136.005 87.4496 134.18 89.231 132.911 91.3998C132.807 91.5959 132.783 91.8252 132.843 92.0393C132.902 92.2534 133.042 92.4357 133.232 92.5478C133.422 92.6598 133.647 92.693 133.861 92.6402C134.075 92.5874 134.26 92.4529 134.377 92.2648L134.371 92.3106Z" fill="black"/>
<path d="M138.265 100.869C140.575 110.849 143.131 120.763 145.935 130.613C146 130.826 146.145 131.006 146.339 131.113C146.533 131.22 146.76 131.247 146.973 131.187C147.186 131.128 147.367 130.987 147.479 130.794C147.59 130.601 147.623 130.372 147.571 130.155C144.767 120.305 142.211 110.39 139.901 100.411C139.652 99.334 138.016 99.7923 138.265 100.869Z" fill="black"/>
<path d="M109.665 95.1406C112.274 93.951 115.175 93.574 117.997 94.0576C120.819 94.5411 123.436 95.8633 125.513 97.856C126.306 98.6179 127.511 97.4034 126.713 96.6415C124.363 94.3844 121.397 92.8933 118.2 92.3611C115.003 91.829 111.722 92.2804 108.782 93.6568C107.791 94.1151 108.651 95.5931 109.636 95.1406H109.665Z" fill="black"/>
<path d="M115.444 94.7453C111.351 108.024 107.338 121.848 110.14 135.826C110.355 136.909 111.997 136.45 111.776 135.368C109.042 121.722 113.089 108.151 117.079 95.2036C117.408 94.1438 115.766 93.6912 115.444 94.7453Z" fill="black"/>
<path d="M54.7775 115.105C47.979 124.393 42.239 134.429 37.6667 145.021C37.2309 146.023 38.6969 146.9 39.1327 145.886C43.705 135.294 49.445 125.258 56.2435 115.97C56.8944 115.082 55.4227 114.223 54.7775 115.105Z" fill="black"/>
<path d="M38.1989 145.84C38.4241 145.84 38.64 145.749 38.7992 145.588C38.9585 145.427 39.0479 145.208 39.0479 144.981C39.0479 144.753 38.9585 144.534 38.7992 144.373C38.64 144.212 38.4241 144.121 38.1989 144.121C37.9737 144.121 37.7578 144.212 37.5985 144.373C37.4393 144.534 37.3499 144.753 37.3499 144.981C37.3499 145.208 37.4393 145.427 37.5985 145.588C37.7578 145.749 37.9737 145.84 38.1989 145.84Z" fill="black"/>
<path d="M37.8253 144.694C38.0505 144.694 38.2665 144.604 38.4257 144.442C38.5849 144.281 38.6744 144.063 38.6744 143.835C38.6744 143.607 38.5849 143.388 38.4257 143.227C38.2665 143.066 38.0505 142.975 37.8253 142.975C37.6002 142.975 37.3842 143.066 37.225 143.227C37.0658 143.388 36.9763 143.607 36.9763 143.835C36.9763 144.063 37.0658 144.281 37.225 144.442C37.3842 144.604 37.6002 144.694 37.8253 144.694Z" fill="black"/>
<path d="M51.3533 51.081L53.5664 56.7295C53.867 57.5809 54.246 58.4018 54.6985 59.1814C55.2355 59.9767 55.8498 60.7156 56.5323 61.3869C57.4889 62.3952 58.57 63.4607 59.9285 63.5982C61.2133 63.73 62.4416 62.991 63.3755 62.0858C65.295 60.115 66.493 57.5405 66.7716 54.7874C67.0429 52.0506 66.8107 49.2866 66.0868 46.6355C66.0572 46.4291 65.9796 46.2327 65.8604 46.0626C65.4811 45.61 64.7623 45.8392 64.2415 46.097C61.158 47.7233 57.8548 48.8815 54.4381 49.5342C53.4249 49.6946 53.5438 50.72 51.7834 50.8461" fill="black"/>
<path d="M50.5324 51.31C52.2304 55.6925 53.8549 62.1946 58.734 64.1596C62.8886 65.8324 66.1772 60.6078 67.1564 57.2851C67.8418 54.7372 67.9712 52.0689 67.5356 49.4654C67.3319 48.0504 67.3432 45.3579 65.5376 45.0199C64.9474 44.9944 64.3612 45.1289 63.8395 45.4095C61.9547 46.1084 60.2 47.1281 58.2699 47.7468C56.8775 48.2051 55.1228 48.2624 53.8096 48.8925C52.9436 49.3107 52.6776 49.8721 51.5852 50.0383C50.4928 50.2044 50.9682 51.8829 52.038 51.6939C53.1078 51.5048 53.487 51.0007 54.353 50.6054C55.9831 49.8664 57.9755 49.6659 59.7076 49.0357C60.9471 48.5832 63.2735 47.0307 64.5301 47.0937C65.3074 46.5819 65.6413 46.8397 65.5319 47.8671L65.73 48.8811C65.9624 50.1547 66.0798 51.4471 66.0809 52.7422C66.0809 56.4315 62.9225 66.1475 57.7265 61.3812C54.6983 58.6027 53.6228 54.5812 52.1625 50.846C51.7663 49.832 50.1192 50.2731 50.5267 51.3043L50.5324 51.31Z" fill="black"/>
<path d="M70.6432 45.2663L74.6053 43.7023C75.6015 43.3071 75.1714 41.6629 74.1525 42.0467L69.6696 43.6852C69.5462 43.7228 69.4327 43.7879 69.3373 43.8757C69.2418 43.9635 69.167 44.0717 69.1182 44.1925C69.0694 44.3132 69.0478 44.4435 69.0551 44.5738C69.0624 44.7041 69.0983 44.831 69.1602 44.9455C69.7998 46.2287 70.9432 46.0912 72.0526 45.5184C73.1835 44.8931 74.3924 44.4248 75.6468 44.1263C76.8225 43.9447 77.9394 43.4855 78.9071 42.7857C79.0763 42.6754 79.2016 42.5081 79.2609 42.3134C79.3202 42.1187 79.3096 41.909 79.2311 41.7214C79.1527 41.5338 79.0113 41.3802 78.8319 41.2878C78.6525 41.1953 78.4466 41.1699 78.2505 41.2161L74.9393 41.6686C73.994 41.8004 74.2148 43.4159 75.1657 43.3586C77.0755 43.2028 78.9603 42.8182 80.7806 42.2129C81.8051 41.8978 87.2106 39.8355 87.6804 40.775L88.1898 39.5146C84.4356 40.2862 80.7882 41.5174 77.3279 43.181C76.343 43.6508 77.2034 45.1345 78.1826 44.6648C81.5142 43.0746 85.0249 41.9011 88.637 41.1702C88.761 41.1335 88.8753 41.0689 88.9713 40.9813C89.0673 40.8937 89.1426 40.7853 89.1916 40.6642C89.2405 40.5432 89.2619 40.4125 89.254 40.2819C89.2462 40.1513 89.2094 40.0241 89.1464 39.9099C88.3709 38.3689 86.1408 39.0048 84.7711 39.2855C81.5108 39.9386 78.5448 41.428 75.1487 41.6457L75.3751 43.3357L78.6863 42.8831L78.0298 41.2905C77.6845 41.5483 70.5696 43.9659 70.6092 44.0518L70.0998 45.3121L74.5827 43.6737L74.1299 42.0181L70.1677 43.582C69.1602 43.9831 69.6017 45.6444 70.6206 45.2376L70.6432 45.2663Z" fill="black"/>
<path d="M14.2392 141.887C20.5163 143.858 27.0482 140.042 32.4027 137.029C37.7573 134.016 42.127 130 44.4816 124.191C46.1344 120.101 39.5685 118.319 37.9327 122.364C36.297 126.408 32.6009 129.055 28.9783 131.094C25.3558 133.134 20.2503 136.582 16.0504 135.259C11.8506 133.936 10.0789 140.581 14.2448 141.887H14.2392Z" fill="#47FF0B"/>
<path d="M21.0317 133.271C21.0883 133.116 21.1449 132.962 21.2128 132.807L20.8732 133.626C21.1185 133.066 21.4281 132.537 21.7958 132.051L21.2637 132.744C21.3656 132.612 21.4732 132.486 21.5807 132.36C22.2004 131.705 22.5558 130.838 22.5769 129.931C22.5694 129.021 22.2121 128.15 21.5807 127.502C20.2958 126.305 18.0318 126.064 16.7752 127.502C15.7624 128.652 14.9817 129.991 14.4772 131.444C14.2971 132.103 14.3152 132.801 14.5293 133.449C14.7434 134.098 15.1438 134.667 15.6791 135.084C16.2145 135.501 16.8605 135.747 17.5347 135.79C18.2089 135.834 18.8805 135.673 19.4638 135.328C20.2036 134.845 20.7556 134.119 21.026 133.271H21.0317Z" fill="#47FF0B"/>
<path d="M12.0488 133.002C12.5583 135.815 11.1602 138.862 12.6149 141.509C13.6677 143.451 15.6827 143.772 17.709 143.657C23.5051 143.331 28.6559 139.951 33.1161 136.456C37.2141 133.242 41.7196 128.963 42.5743 123.498C42.8007 122.043 42.6479 120.141 41.0687 119.528C40.7773 119.404 40.4625 119.345 40.1466 119.358C39.8306 119.37 39.5211 119.452 39.2399 119.598C38.9587 119.745 38.7127 119.952 38.5192 120.205C38.3256 120.458 38.1893 120.751 38.1197 121.063C37.882 122.14 39.5178 122.598 39.7555 121.521C40.7517 122.209 41.0857 122.988 40.7574 123.859C40.6583 124.277 40.5336 124.688 40.3838 125.09C40.0655 125.953 39.6675 126.784 39.1951 127.571C38.2611 129.111 37.1412 130.527 35.8613 131.787C33.4522 134.163 30.7952 136.266 27.937 138.06C24.8749 140.031 21.3825 141.767 17.6921 141.939C11.9413 142.214 14.3356 136.141 13.6846 132.549C13.4865 131.461 11.8507 131.925 12.0488 133.008V133.002Z" fill="black"/>
<path d="M21.3486 125.016C18.1449 126.305 13.7469 128.734 12.9941 132.509C12.264 136.158 15.8752 136.869 18.6543 136.485C23.4598 135.82 27.8012 133.454 31.7407 130.682C34.3501 128.843 40.1178 125.87 39.614 122.008C39.4725 120.926 37.7745 120.914 37.916 122.008C38.2782 124.77 33.4727 127.325 31.6898 128.631C29.5135 130.271 27.1835 131.691 24.7334 132.87C23.3801 133.503 21.9723 134.009 20.5278 134.382C19.8046 134.563 19.0712 134.699 18.3317 134.789C16.7808 134.984 16.8261 135.133 15.694 133.769C14.562 132.406 14.7035 132.263 15.694 130.957C16.1888 130.329 16.7593 129.767 17.3921 129.284C18.7406 128.18 20.2512 127.297 21.8693 126.666C22.8712 126.265 22.4353 124.598 21.4165 125.01L21.3486 125.016Z" fill="black"/>
<path d="M77.0391 94.5047C71.5149 95.7456 66.4151 98.4479 62.2603 102.336C59.0509 105.361 54.6077 110.453 55.8812 115.323C57.1887 120.341 64.9375 119.001 68.5771 118.52C74.9604 117.598 81.1225 115.499 86.7576 112.327C92.0327 109.341 96.9858 105.806 101.536 101.78C105.391 98.4575 110.74 94.6135 110.168 88.7989C109.998 87.0803 109.093 85.3044 107.191 85.1153C105.289 84.9263 104.219 86.3355 104.163 88.0713C104.106 89.8071 104.021 90.7352 103.031 92.2648C102.244 93.485 101.395 94.6651 100.495 95.7994C98.6879 98.0649 96.696 100.173 94.5404 102.101C89.5711 106.562 83.7844 109.992 77.5088 112.195C74.5259 113.238 71.2826 114.217 68.1016 114.452C66.7375 114.555 64.8753 114.613 63.8225 113.518C62.1244 111.771 63.7546 108.712 64.5923 107.028L61.4905 105.704C60.6811 107.83 59.8547 109.949 59.0623 112.08C58.4962 113.53 57.9302 114.945 58.6264 116.446C59.9622 119.264 63.2565 118.875 65.4526 117.477C65.7086 117.325 65.921 117.109 66.0686 116.848C66.2161 116.588 66.2938 116.293 66.2938 115.993C66.2938 115.693 66.2161 115.398 66.0686 115.138C65.921 114.878 65.7086 114.661 65.4526 114.509C64.3046 113.656 63.3414 112.574 62.6225 111.33L60.3018 113.679C62.1886 114.58 64.0527 115.518 65.8941 116.492L67.2016 113.352C64.4508 112.716 60.8282 109.084 64.2753 106.598L61.7226 105.114L61.4056 109.268H64.8017C64.7193 107.769 65.1424 106.286 66.0017 105.063L63.0697 103.344C61.5754 106.598 60.5566 111.548 62.8942 114.716C65.13 117.746 70.9034 116.818 74.0675 116.681C76.2466 116.589 76.2579 113.152 74.0675 113.243C72.0354 113.329 68.8261 113.816 66.8507 113.117C63.715 112.012 64.9772 107.308 66.0017 105.097C66.1914 104.706 66.2275 104.257 66.1025 103.84C65.9776 103.424 65.701 103.07 65.3286 102.852C64.9563 102.634 64.5159 102.567 64.0966 102.664C63.6773 102.762 63.3102 103.017 63.0697 103.379C61.8884 105.121 61.3039 107.208 61.4056 109.319C61.4792 111.553 64.6376 111.508 64.8017 109.319L65.1187 105.166C65.1185 104.864 65.0395 104.567 64.8899 104.306C64.7402 104.044 64.5251 103.827 64.2663 103.677C64.0074 103.526 63.7139 103.448 63.4154 103.449C63.1169 103.449 62.8239 103.53 62.5659 103.682C56.8095 107.83 60.3019 115.334 66.3017 116.715C68.1016 117.133 69.3865 114.509 67.6092 113.576C65.8319 112.642 63.8961 111.662 62.0169 110.763C60.5679 110.07 58.7453 111.542 59.6962 113.112C60.7395 114.847 62.1225 116.348 63.7602 117.523V114.555C60.6584 116.532 63.0187 111.301 63.1942 110.912L64.813 106.661C65.5036 104.851 62.5489 103.608 61.7112 105.338C59.9792 108.815 58.3944 113.57 62.0056 116.446C65.1809 118.972 69.9298 117.861 73.4845 117.019C82.784 114.764 91.3315 110.067 98.2648 103.401C101.548 100.245 105.227 96.3035 107.129 92.0814C107.614 91.1565 107.835 90.1132 107.768 89.0681C107.44 87.0287 106.857 89.9217 106.71 90.6779C106.144 93.6167 103.495 95.5244 101.401 97.4149C92.5706 105.366 82.4672 112.401 70.677 114.756C67.8865 115.329 63.3584 116.314 60.5452 115.369C56.9397 114.154 61.1112 108.758 62.5376 107.074C66.5734 102.404 71.9876 99.174 77.9786 97.8617C80.1125 97.3748 79.2069 94.0579 77.073 94.5448L77.0391 94.5047Z" fill="#D000C7"/>
<path d="M79.7107 97.243C81.8956 97.243 81.9012 93.8057 79.7107 93.8057C77.5202 93.8057 77.5202 97.243 79.7107 97.243Z" fill="#D000C7"/>
<path d="M82.3881 93.2386C74.5657 94.2182 66.3471 96.229 60.6359 102.118C57.5625 105.292 51.3079 115.237 57.3644 118.359C64.5868 122.083 73.6827 119.797 80.5712 116.537C88.252 112.917 96.2443 108.122 102.686 102.513C105.753 99.8438 109.116 96.3608 110.468 92.3965C111.549 89.2285 110.599 85.522 107.072 84.6455C106.008 84.3877 105.555 86.0433 106.619 86.3011C113.412 87.9567 105.776 97.1227 103.484 99.4199C100.646 102.152 97.5283 104.57 94.1839 106.632C87.3238 111.055 80.0334 115.987 71.979 117.792C67.8187 118.726 63.3189 118.817 59.2718 117.322C54.3644 115.512 57.5738 108.872 59.719 105.865C64.8754 98.4919 73.9487 96.0342 82.3598 94.9801C83.4296 94.8484 83.4409 93.124 82.3598 93.2615L82.3881 93.2386Z" fill="black"/>
<path d="M79.8354 95.467C73.2152 96.929 67.4208 100.95 63.6869 106.672C62.4756 108.551 61.1794 111.158 63.302 112.894C65.6396 114.807 69.6244 114.641 72.3583 114.16C79.6033 112.888 86.7974 108.735 92.6671 104.421C95.7054 102.193 98.5462 99.7008 101.157 96.9737C103.348 94.6822 105.81 92.2246 105.719 88.816C105.719 87.7103 104.021 87.7103 104.021 88.816C104.106 92.0814 101.112 94.6135 98.9838 96.7503C92.9888 102.778 85.8518 107.517 78.0015 110.683C75.2563 111.782 72.2507 112.808 69.2622 112.751C68.385 112.788 67.5072 112.692 66.6585 112.464C65.7245 112.132 64.0321 110.975 63.9303 109.875C63.8284 108.775 65.6962 106.707 66.3415 105.865C69.8513 101.412 74.7749 98.3256 80.2769 97.1284C81.341 96.8878 80.8939 95.2322 79.8241 95.4728L79.8354 95.467Z" fill="black"/>
<path d="M55.4683 51.7855C54.857 52.7537 50.6911 58.0069 54.2174 58.0871C55.4173 58.1215 56.3343 56.9414 57.0475 56.1565C58.2361 54.8275 59.3115 53.4354 60.8455 52.5188L59.6002 52.0032C60.104 53.2521 58.9776 55.4806 58.638 56.7065L57.4154 61.0833C57.3628 61.3003 57.3959 61.5296 57.5075 61.7224C57.6192 61.9152 57.8007 62.0564 58.0135 62.116C58.2263 62.1756 58.4537 62.149 58.6474 62.0418C58.8412 61.9345 58.986 61.7551 59.0512 61.5415L60.6813 55.704C61.0492 54.3864 61.7851 52.8912 61.2473 51.5449C61.2101 51.42 61.1458 51.305 61.0591 51.2085C60.9724 51.1119 60.8654 51.0362 60.7461 50.9868C60.6268 50.9374 60.4981 50.9155 60.3694 50.9229C60.2406 50.9303 60.1152 50.9666 60.0021 51.0293C58.566 51.9785 57.291 53.1567 56.2267 54.5181C55.9834 54.7988 55.74 55.091 55.4853 55.3488C55.2305 55.6066 54.523 56.7122 54.84 55.9217C55.2928 54.7759 56.2947 53.6302 56.9399 52.6047C57.5852 51.5793 56.0626 50.8059 55.4739 51.7397L55.4683 51.7855Z" fill="#47FF0B"/>
<path d="M74.8659 45.8219C74.3734 47.3572 72.8961 51.7168 76.1168 51.4647C77.4526 51.3616 78.579 50.0154 79.411 49.1102C80.5431 47.8728 81.8279 44.9626 83.5317 44.6475L82.4845 43.582C82.0018 45.3409 81.635 47.1303 81.3864 48.9384C81.1997 50.3304 80.7412 52.2095 81.177 53.5844C82.0091 56.1738 84.1996 54.0427 85.1392 52.7766C85.8014 51.8944 84.3241 51.058 83.6732 51.9116C82.7166 53.1891 82.8977 52.7709 82.7788 51.9116C82.7538 50.9485 82.8489 49.9862 83.0619 49.0472C83.3043 47.3553 83.6541 45.681 84.109 44.0346C84.1461 43.888 84.1449 43.7343 84.1055 43.5883C84.066 43.4424 83.9897 43.3095 83.884 43.2025C83.7783 43.0955 83.6469 43.0183 83.5027 42.9783C83.3586 42.9384 83.2066 42.9372 83.0619 42.9748C81.2053 43.3185 80.4468 45.0371 79.394 46.412C78.828 47.1625 77.8998 48.6405 77.0224 49.0186C74.9395 49.9237 76.2696 46.939 76.4904 46.2401C76.83 45.186 75.1885 44.7335 74.8546 45.7818L74.8659 45.8219Z" fill="#D000C7"/>
<path d="M21.6994 133.466C22.1522 131.228 22.5579 128.98 22.9164 126.723C23.0918 125.64 21.4504 125.176 21.2806 126.265C20.9032 128.522 20.4976 130.77 20.0636 133.008C19.8485 134.085 21.4843 134.549 21.6994 133.466Z" fill="black"/>
<path d="M20.7487 134.955C20.9739 134.955 21.1898 134.865 21.349 134.704C21.5083 134.542 21.5977 134.324 21.5977 134.096C21.5977 133.868 21.5083 133.649 21.349 133.488C21.1898 133.327 20.9739 133.237 20.7487 133.237C20.5235 133.237 20.3076 133.327 20.1483 133.488C19.9891 133.649 19.8997 133.868 19.8997 134.096C19.8997 134.324 19.9891 134.542 20.1483 134.704C20.3076 134.865 20.5235 134.955 20.7487 134.955Z" fill="black"/>
<path d="M105.199 86.3584C105.436 86.2562 105.691 86.2035 105.949 86.2035C106.206 86.2035 106.461 86.2562 106.699 86.3584C106.912 86.4195 107.141 86.3938 107.337 86.2868C107.532 86.1799 107.679 86.0001 107.746 85.7856C107.803 85.5692 107.776 85.3387 107.671 85.1416C107.566 84.9445 107.39 84.7957 107.18 84.7258C106.722 84.5561 106.235 84.4822 105.749 84.5088C105.262 84.5354 104.786 84.6618 104.35 84.8804C104.156 84.9963 104.016 85.1845 103.959 85.4042C103.902 85.624 103.932 85.8577 104.044 86.0548C104.161 86.247 104.347 86.3862 104.563 86.4437C104.779 86.5013 105.008 86.4728 105.204 86.3642L105.199 86.3584Z" fill="black"/>
</svg>
