<svg width="12" height="9" viewBox="0 0 12 9" fill="none" xmlns="http://www.w3.org/2000/svg" id="Youtube">
<path d="M11.6611 1.6519C11.5932 1.40087 11.4607 1.17201 11.2768 0.988122C11.0929 0.804233 10.864 0.671726 10.613 0.603798C9.694 0.353165 5.99526 0.353165 5.99526 0.353165C5.99526 0.353165 2.29653 0.36076 1.37754 0.611392C1.12651 0.679321 0.897654 0.811827 0.713764 0.995717C0.529874 1.17961 0.397368 1.40846 0.329439 1.65949C0.0514648 3.29241 -0.0563833 5.78051 0.337034 7.3481C0.404963 7.59913 0.537469 7.82799 0.721359 8.01188C0.905249 8.19577 1.1341 8.32827 1.38514 8.3962C2.30412 8.64684 6.00286 8.64684 6.00286 8.64684C6.00286 8.64684 9.70159 8.64684 10.6206 8.3962C10.8716 8.32827 11.1005 8.19577 11.2844 8.01188C11.4682 7.82799 11.6008 7.59913 11.6687 7.3481C11.9618 5.71291 12.0522 3.22633 11.6611 1.6519Z" fill="black"/>
<path d="M4.81836 6.27722L7.88671 4.50001L4.81836 2.72279V6.27722Z" fill="white"/>
</svg>
