<svg fill="none" height="22" viewBox="0 0 149 22" width="149" xmlns="http://www.w3.org/2000/svg"><rect fill="#fff" height="22" rx="4" width="149"/><g fill="#000"><path d="m31.98 14.9999c-.0667 0-.1233-.02-.17-.06-.04-.0467-.06-.1033-.06-.17v-2.37l-2.41-4.07c-.02-.04-.03-.08333-.03-.13 0-.05333.02-.1.06-.14s.0867-.06.14-.06h.48c.12 0 .2067.05667.26.17l1.98 3.27 1.97-3.27c.0667-.11333.1533-.17.26-.17h.48c.0533 0 .1.02.14.06.0467.04.07.08667.07.14 0 .03334-.0133.07667-.04.13l-2.41 4.07v2.37c0 .0667-.0233.1233-.07.17-.04.04-.0967.06-.17.06z"/><path d="m39.1226 15.0999c-.8667 0-1.5367-.2267-2.01-.68-.4734-.46-.7234-1.15-.75-2.07-.0067-.2-.01-.4833-.01-.85s.0033-.6467.01-.84c.0266-.90666.2833-1.59333.77-2.06.4933-.46666 1.1566-.7 1.99-.7.8333 0 1.4933.23334 1.98.7.4866.46667.7433 1.15334.77 2.06.0133.3867.02.6667.02.84 0 .1667-.0067.45-.02.85-.0267.92-.2767 1.61-.75 2.07-.4667.4533-1.1334.68-2 .68zm0-.83c.5333 0 .96-.16 1.28-.48.32-.3267.4933-.8233.52-1.49.0133-.4.02-.6667.02-.8 0-.1467-.0067-.4133-.02-.8-.0267-.6667-.2-1.16333-.52-1.49-.32-.32666-.7467-.49-1.28-.49-.5334 0-.9634.16334-1.29.49-.32.32667-.49.8233-.51 1.49-.0067.1933-.01.46-.01.8 0 .3333.0033.6.01.8.02.6667.19 1.1633.51 1.49.32.32.75.48 1.29.48z"/><path d="m46.6006 15.0999c-.86 0-1.5233-.23-1.99-.69-.4666-.4667-.7-1.17-.7-2.11v-4.06c0-.07333.02-.13.06-.17.04-.04666.0934-.07.16-.07h.48c.0734 0 .13.02334.17.07.0467.04.07.09667.07.17v4.08c0 .6533.15 1.14.45 1.46.3067.32.74.48 1.3.48.5534 0 .98-.16 1.28-.48.3067-.3267.46-.8133.46-1.46v-4.08c0-.07333.02-.13.06-.17.04-.04666.0967-.07.17-.07h.48c.0667 0 .12.02334.16.07.0467.04.07.09667.07.17v4.06c0 .94-.2333 1.6433-.7 2.11-.46.46-1.12.69-1.98.69z"/><path d="m51.7926 14.9999c-.0667 0-.12-.02-.16-.06-.04-.0467-.06-.1033-.06-.17v-6.53c0-.07333.02-.13.06-.17.04-.04666.0933-.07.16-.07h2.44c.76 0 1.3533.18 1.78.54.4333.35334.65.87.65 1.55 0 .5067-.1267.9233-.38 1.25-.2534.3267-.6067.5533-1.06.68l1.54 2.67c.02.04.03.0767.03.11 0 .0533-.02.1-.06.14s-.0867.06-.14.06h-.44c-.1 0-.18-.0233-.24-.07-.0534-.0467-.1034-.1133-.15-.2l-1.47-2.56h-1.78v2.6c0 .0667-.0234.1233-.07.17-.0467.04-.1034.06-.17.06zm2.4-3.65c1.0066 0 1.51-.4233 1.51-1.27 0-.84666-.5034-1.27-1.51-1.27h-1.68v2.54z"/><path d="m64.0065 15.0999c-.5467 0-1.0234-.0867-1.43-.26-.4-.1733-.7067-.4-.92-.68-.2067-.2867-.3167-.5933-.33-.92 0-.0533.02-.1.06-.14s.09-.06.15-.06h.49c.12 0 .2033.0667.25.2.06.28.23.5233.51.73.2866.2.6933.3 1.22.3.5666 0 .99-.1 1.27-.3s.42-.4767.42-.83c0-.2267-.07-.4133-.21-.56-.1334-.1467-.3367-.2733-.61-.38-.2667-.1133-.67-.25-1.21-.41-.5134-.1467-.9234-.3033-1.23-.47-.3-.1667-.5267-.37-.68-.61-.1534-.2467-.23-.5567-.23-.93 0-.36.0966-.68.29-.96.1933-.28666.4733-.51.84-.67.3666-.16666.8-.25 1.3-.25.52 0 .9633.09334 1.33.28.3733.18.6566.41.85.69.1933.27334.2966.55.31.83 0 .06-.02.11-.06.15s-.09.06-.15.06h-.5c-.0534 0-.1034-.01666-.15-.05-.0467-.03333-.08-.08333-.1-.15-.04-.28666-.2-.52333-.48-.71-.28-.18666-.63-.28-1.05-.28-.4534 0-.8134.09-1.08.27-.2667.17334-.4.43334-.4.78 0 .2333.06.4233.18.57.1266.1467.3166.2767.57.39.26.1133.6366.2433 1.13.39.5666.16 1.01.32 1.33.48.3266.16.57.36.73.6.16.2333.24.5367.24.91 0 .6267-.24 1.1167-.72 1.47-.4734.3467-1.1167.52-1.93.52z"/><path d="m68.7976 14.9999c-.0666 0-.12-.02-.16-.06-.04-.0467-.0599-.1033-.0599-.17v-6.54c0-.06666.0199-.12.0599-.16.04-.04666.0934-.07.16-.07h.5c.0734 0 .1301.02.1701.06s.06.09667.06.17v6.54c0 .0667-.0234.1233-.0701.17-.04.04-.0933.06-.16.06z"/><path d="m73.6525 14.9999c-.0667 0-.1233-.02-.17-.06-.04-.0467-.06-.1033-.06-.17v-5.91h-1.93c-.0667 0-.1233-.02-.17-.06-.04-.04666-.06-.10333-.06-.17v-.39c0-.07333.02-.13.06-.17.0467-.04666.1033-.07.17-.07h4.8c.0733 0 .13.02334.17.07.04.04.06.09667.06.17v.39c0 .06667-.0233.12334-.07.17-.04.04-.0933.06-.16.06h-1.92v5.91c0 .0667-.0233.1233-.07.17-.0467.04-.1033.06-.17.06z"/><path d="m78.484 14.9999c-.0667 0-.12-.02-.16-.06-.04-.0467-.06-.1033-.06-.17v-6.53c0-.07333.02-.13.06-.17.04-.04666.0933-.07.16-.07h4.11c.0733 0 .13.02334.17.07.0466.04.07.09667.07.17v.36c0 .06667-.0234.12-.07.16-.04.04-.0967.06-.17.06h-3.41v2.23h3.19c.0733 0 .13.0233.17.07.0466.04.07.0967.07.17v.34c0 .0667-.0234.1233-.07.17-.04.04-.0967.06-.17.06h-3.19v2.31h3.49c.0733 0 .13.0233.17.07.0466.04.07.0967.07.17v.36c0 .0667-.0234.1233-.07.17-.0467.04-.1034.06-.17.06z"/><path d="m87.1487 15.0999c-.5467 0-1.0234-.0867-1.43-.26-.4-.1733-.7067-.4-.92-.68-.2067-.2867-.3167-.5933-.33-.92 0-.0533.02-.1.06-.14s.09-.06.15-.06h.49c.12 0 .2033.0667.25.2.06.28.23.5233.51.73.2866.2.6933.3 1.22.3.5666 0 .99-.1 1.27-.3s.42-.4767.42-.83c0-.2267-.07-.4133-.21-.56-.1334-.1467-.3367-.2733-.61-.38-.2667-.1133-.67-.25-1.21-.41-.5134-.1467-.9234-.3033-1.23-.47-.3-.1667-.5267-.37-.68-.61-.1534-.2467-.23-.5567-.23-.93 0-.36.0966-.68.29-.96.1933-.28666.4733-.51.84-.67.3666-.16666.8-.25 1.3-.25.52 0 .9633.09334 1.33.28.3733.18.6566.41.85.69.1933.27334.2966.55.31.83 0 .06-.02.11-.06.15s-.09.06-.15.06h-.5c-.0534 0-.1034-.01666-.15-.05-.0467-.03333-.08-.08333-.1-.15-.04-.28666-.2-.52333-.48-.71-.28-.18666-.63-.28-1.05-.28-.4534 0-.8134.09-1.08.27-.2667.17334-.4.43334-.4.78 0 .2333.06.4233.18.57.1266.1467.3166.2767.57.39.26.1133.6366.2433 1.13.39.5666.16 1.01.32 1.33.48.3266.16.57.36.73.6.16.2333.24.5367.24.91 0 .6267-.24 1.1167-.72 1.47-.4734.3467-1.1167.52-1.93.52z"/><path d="m8 8h3v2h-3z"/><path d="m13 8h3v2h-3z"/><path d="m18 8h3v2h-3z"/><path d="m8 12h3v2h-3z"/><path d="m13 12h3v2h-3z"/><path d="m18 12h3v2h-3z"/></g></svg>