<svg width="77" height="21" viewBox="0 0 77 21" fill="none" xmlns="http://www.w3.org/2000/svg">
<path d="M33.424 7.872V16H30.576V14.896C30.3413 15.28 30 15.584 29.552 15.808C29.104 16.0213 28.6133 16.128 28.08 16.128C27.3867 16.128 26.768 15.9573 26.224 15.616C25.68 15.2747 25.2533 14.7893 24.944 14.16C24.6453 13.52 24.496 12.784 24.496 11.952C24.496 11.1093 24.6507 10.3627 24.96 9.712C25.2693 9.06133 25.696 8.55467 26.24 8.192C26.784 7.82933 27.3973 7.648 28.08 7.648C28.6133 7.648 29.0987 7.76533 29.536 8C29.984 8.224 30.3307 8.528 30.576 8.912V7.872H33.424ZM28.976 13.968C29.488 13.968 29.8827 13.792 30.16 13.44C30.4373 13.088 30.576 12.5813 30.576 11.92C30.576 11.248 30.4373 10.736 30.16 10.384C29.8827 10.0213 29.488 9.84 28.976 9.84C28.4747 9.84 28.08 10.0267 27.792 10.4C27.504 10.7627 27.36 11.28 27.36 11.952C27.36 12.6027 27.4987 13.104 27.776 13.456C28.0533 13.7973 28.4533 13.968 28.976 13.968ZM35.6252 16V7.872H38.5212V16H35.6252ZM35.5452 3.888H38.5692V6.496H35.5452V3.888ZM45.8662 7.68C46.2609 7.68 46.5649 7.73867 46.7782 7.856V10.496C46.3196 10.2827 45.8769 10.176 45.4502 10.176C44.2342 10.176 43.6262 10.7573 43.6262 11.92V16H40.7302V10.208C40.7302 9.33333 40.6876 8.55467 40.6022 7.872H43.3222L43.4982 9.232C43.6902 8.73067 43.9996 8.34667 44.4262 8.08C44.8529 7.81333 45.3329 7.68 45.8662 7.68ZM53.7446 13.792C53.9366 13.792 54.1926 13.76 54.5126 13.696V15.888C54.118 16.048 53.6166 16.128 53.0086 16.128C51.91 16.128 51.0726 15.8187 50.4966 15.2C49.9313 14.5813 49.6486 13.7227 49.6486 12.624V10H48.1286V7.872H49.6486V6.032L52.5446 5.104V7.872H54.4966V10H52.5446V12.624C52.5446 13.008 52.6566 13.3013 52.8806 13.504C53.1153 13.696 53.4033 13.792 53.7446 13.792ZM64.6409 7.872V16H61.7929V14.896C61.5582 15.28 61.2169 15.584 60.7689 15.808C60.3209 16.0213 59.8302 16.128 59.2969 16.128C58.6035 16.128 57.9849 15.9573 57.4409 15.616C56.8969 15.2747 56.4702 14.7893 56.1609 14.16C55.8622 13.52 55.7129 12.784 55.7129 11.952C55.7129 11.1093 55.8675 10.3627 56.1769 9.712C56.4862 9.06133 56.9129 8.55467 57.4569 8.192C58.0009 7.82933 58.6142 7.648 59.2969 7.648C59.8302 7.648 60.3155 7.76533 60.7529 8C61.2009 8.224 61.5475 8.528 61.7929 8.912V7.872H64.6409ZM60.1929 13.968C60.7049 13.968 61.0995 13.792 61.3769 13.44C61.6542 13.088 61.7929 12.5813 61.7929 11.92C61.7929 11.248 61.6542 10.736 61.3769 10.384C61.0995 10.0213 60.7049 9.84 60.1929 9.84C59.6915 9.84 59.2969 10.0267 59.0089 10.4C58.7209 10.7627 58.5769 11.28 58.5769 11.952C58.5769 12.6027 58.7155 13.104 58.9929 13.456C59.2702 13.7973 59.6702 13.968 60.1929 13.968ZM72.2021 7.648C72.8955 7.648 73.5141 7.82933 74.0581 8.192C74.6021 8.55467 75.0288 9.06133 75.3381 9.712C75.6475 10.3627 75.8021 11.1093 75.8021 11.952C75.8021 12.784 75.6475 13.52 75.3381 14.16C75.0395 14.7893 74.6181 15.2747 74.0741 15.616C73.5301 15.9573 72.9061 16.128 72.2021 16.128C71.6688 16.128 71.1835 16.0267 70.7461 15.824C70.3088 15.6107 69.9728 15.3173 69.7381 14.944V19.456H66.8421V10.208C66.8421 9.33333 66.7995 8.55467 66.7141 7.872H69.4341L69.5941 9.136C69.7968 8.688 70.1328 8.33067 70.6021 8.064C71.0715 7.78667 71.6048 7.648 72.2021 7.648ZM71.3221 13.968C71.8448 13.968 72.2395 13.7973 72.5061 13.456C72.7728 13.1147 72.9061 12.6133 72.9061 11.952C72.9061 11.28 72.7675 10.7627 72.4901 10.4C72.2235 10.0267 71.8341 9.84 71.3221 9.84C70.7995 9.84 70.3995 10.016 70.1221 10.368C69.8448 10.72 69.7061 11.2373 69.7061 11.92C69.7061 12.5813 69.8448 13.088 70.1221 13.44C70.3995 13.792 70.7995 13.968 71.3221 13.968Z" fill="black"/>
<path d="M5.58312 18.0002C8.66659 18.0002 11.1662 15.5006 11.1662 12.4171C11.1662 9.33363 8.66659 6.83398 5.58312 6.83398C2.49965 6.83398 0 9.33363 0 12.4171C0 15.5006 2.49965 18.0002 5.58312 18.0002Z" fill="#173BEF"/>
<path fill-rule="evenodd" clip-rule="evenodd" d="M11.5004 3L18 13H5L11.5004 3Z" fill="#ADBBFF"/>
</svg>
