<svg width="89" height="96" viewBox="0 0 89 96" fill="none" xmlns="http://www.w3.org/2000/svg">
<path d="M26.2647 91.9742C25.2303 93.3432 27.8625 94.5229 28.2719 92.4144L26.9734 92.2383L27.0482 93.7306C27.0506 93.8746 27.0997 94.0141 27.1881 94.1278C27.2766 94.2416 27.3996 94.3235 27.5387 94.3612C27.6778 94.399 27.8253 94.3905 27.9592 94.3371C28.093 94.2837 28.2058 94.1882 28.2807 94.0651C28.5968 93.4977 28.7931 92.8715 28.8573 92.2252C28.9542 91.446 27.7921 91.3976 27.5588 92.0491C27.338 92.4665 27.2784 92.9507 27.3916 93.4092C27.3969 93.566 27.4576 93.7159 27.5628 93.8323C27.668 93.9487 27.8111 94.0241 27.9665 94.0452C28.122 94.0662 28.2799 94.0316 28.4124 93.9475C28.5448 93.8633 28.6432 93.735 28.6901 93.5853L29.3548 91.895L28.0562 91.7189C28.0557 92.4904 27.9909 93.2604 27.8625 94.0211C27.7437 94.721 28.6725 95.2228 29.0686 94.5317C29.476 93.8191 29.7728 93.0488 29.949 92.2472L28.6505 92.0711L28.6725 93.2464C28.6725 93.845 29.6321 94.2192 29.905 93.5809C30.1784 92.95 30.4136 92.3033 30.6093 91.6441L29.3107 91.468V93.735C29.3161 93.8918 29.3768 94.0416 29.482 94.158C29.5872 94.2744 29.7302 94.3498 29.8857 94.3709C30.0412 94.392 30.1991 94.3574 30.3315 94.2732C30.464 94.189 30.5623 94.0608 30.6093 93.911C30.8572 93.254 30.9637 92.552 30.9218 91.851C30.9218 91.6759 30.8522 91.508 30.7284 91.3841C30.6046 91.2603 30.4366 91.1907 30.2615 91.1907C30.0864 91.1907 29.9185 91.2603 29.7946 91.3841C29.6708 91.508 29.6013 91.6759 29.6013 91.851C29.6083 92.407 29.5112 92.9594 29.3151 93.4797L30.6137 93.6557C30.498 92.9715 30.5204 92.2711 30.6797 91.5957L31.0142 90.7153C30.7726 91.2524 30.6466 91.8343 30.6445 92.4232H31.9166C31.8108 92.1186 31.7828 91.7923 31.8351 91.4741C31.8873 91.1558 32.0183 90.8557 32.2159 90.6009L31.0098 90.4424C31.0803 90.6581 31.1507 92.9382 31.6569 92.2031L31.6085 91.1907C31.6649 91.5907 31.6242 91.9983 31.4896 92.3792L32.326 93.0175C32.1885 91.8033 32.4763 90.579 33.1403 89.5533L31.9342 89.3948C32.2189 90.3362 32.2583 91.3347 32.0486 92.2956H33.3208C33.1931 91.6969 32.8322 89.791 33.422 89.3112L32.6209 89.4124C32.8921 90.1252 32.9245 90.9069 32.7133 91.6397H33.9854C33.657 90.3657 33.8024 89.0157 34.3948 87.841L33.1887 87.6825C33.5923 88.9407 33.5923 90.2935 33.1887 91.5517H34.4608C34.3684 91.2567 33.937 89.3508 33.9766 89.3156C33.7742 89.4168 33.6553 90.8518 33.4572 91.424H34.7293C34.4476 90.5965 34.0823 87.7397 35.2047 87.2863L34.3904 86.8461C34.4696 87.2555 34.923 89.4124 34.2672 89.7513L35.2356 90.1475C34.9582 88.827 34.6809 87.5064 35.7065 86.3972L34.6017 86.1066C34.8714 87.2218 34.8714 88.3853 34.6017 89.5004H35.8738C35.6313 88.9683 35.5176 88.3864 35.5421 87.8021C35.5665 87.2178 35.7285 86.6475 36.0147 86.1375L34.8086 85.979C35.0671 86.6474 35.1117 87.3795 34.9362 88.0743L36.1423 87.9158C35.5877 86.9254 36.0411 85.6181 35.6625 84.5528C35.6307 84.4421 35.5707 84.3415 35.4884 84.261C35.406 84.1805 35.3041 84.1227 35.1927 84.0934C35.0813 84.0641 34.9642 84.0643 34.8529 84.0939C34.7415 84.1235 34.6398 84.1815 34.5577 84.2623C34.3525 84.4522 34.2083 84.6987 34.1432 84.9706C34.0782 85.2425 34.0953 85.5276 34.1923 85.7897C34.6061 87.2335 35.3148 88.0831 34.9582 89.7293C34.9173 89.8961 34.9431 90.0723 35.0299 90.2204C35.1167 90.3686 35.2579 90.4771 35.4234 90.5229C35.5889 90.5687 35.7657 90.5482 35.9164 90.4658C36.067 90.3834 36.1797 90.2456 36.2304 90.0815L36.9302 87.7177L35.6317 87.5416C35.6317 90.0771 32.9906 90.9838 30.8734 91.6617C30.0678 91.9214 30.4332 93.1979 31.2255 92.9338C34.1087 92.0007 36.9478 90.9002 36.9478 87.5416C36.9425 87.3848 36.8818 87.235 36.7766 87.1186C36.6714 87.0022 36.5284 86.9268 36.3729 86.9057C36.2174 86.8846 36.0595 86.9192 35.927 87.0034C35.7946 87.0876 35.6962 87.2159 35.6493 87.3656L34.9494 89.7293L36.2216 90.0815C36.4203 89.2749 36.4547 88.4366 36.3228 87.6165C36.27 87.3347 35.3984 85.3011 35.4821 85.1955L34.3772 84.905C34.8174 86.1595 34.3156 87.3788 34.9891 88.5805C35.0571 88.689 35.155 88.7757 35.2709 88.8302C35.3868 88.8848 35.5159 88.9049 35.6429 88.8882C35.77 88.8715 35.8895 88.8187 35.9874 88.7361C36.0853 88.6534 36.1574 88.5444 36.1951 88.422C36.3788 87.4922 36.335 86.5317 36.0675 85.6225C36.0297 85.5 35.9576 85.391 35.8597 85.3084C35.7619 85.2258 35.6423 85.1729 35.5153 85.1562C35.3883 85.1396 35.2591 85.1597 35.1432 85.2143C35.0273 85.2688 34.9295 85.3555 34.8614 85.464C34.4853 86.125 34.2651 86.8632 34.2178 87.6223C34.1705 88.3814 34.2973 89.1412 34.5885 89.8438C34.8086 90.394 35.7065 90.5437 35.8606 89.8438C36.1741 88.4957 36.1741 87.0937 35.8606 85.7457C35.8288 85.635 35.7688 85.5344 35.6864 85.4539C35.6041 85.3734 35.5022 85.3156 35.3908 85.2863C35.2794 85.257 35.1623 85.2572 35.0509 85.2868C34.9396 85.3164 34.8379 85.3744 34.7558 85.4552C33.4088 86.9342 33.5585 88.6421 33.9458 90.4908C33.9741 90.5873 34.0237 90.6762 34.091 90.7509C34.1583 90.8255 34.2416 90.8841 34.3346 90.9221C34.4277 90.9602 34.5281 90.9768 34.6284 90.9707C34.7288 90.9647 34.8265 90.936 34.9142 90.887C36.4196 90.1079 35.9134 87.8454 35.6449 86.4852C35.594 86.3197 35.4801 86.1808 35.3278 86.0985C35.1755 86.0162 34.9969 85.997 34.8306 86.045C32.8278 86.8506 32.841 90.0639 33.4308 91.807C33.4722 91.9434 33.5564 92.063 33.6709 92.1479C33.7855 92.2329 33.9243 92.2787 34.0669 92.2787C34.2095 92.2787 34.3483 92.2329 34.4628 92.1479C34.5774 92.063 34.6615 91.9434 34.7029 91.807C35.0067 90.9266 35.865 86.965 33.9326 87.1279C32.0839 87.2951 32.8366 90.9266 33.1579 91.9346C33.1993 92.0711 33.2835 92.1906 33.398 92.2756C33.5125 92.3605 33.6514 92.4064 33.794 92.4064C33.9366 92.4064 34.0754 92.3605 34.1899 92.2756C34.3045 92.1906 34.3886 92.0711 34.43 91.9346C34.8955 90.4457 34.8955 88.8501 34.43 87.3612C34.276 86.8594 33.4792 86.6657 33.2239 87.2027C32.4743 88.6917 32.2822 90.3999 32.6825 92.0183C32.8234 92.6301 33.8358 92.6653 33.9546 92.0183C34.1571 90.9354 34.5401 88.8534 33.2547 88.2988C33.1269 88.2314 32.9815 88.205 32.8382 88.2232C32.6949 88.2413 32.5607 88.303 32.4536 88.4C31.3796 89.2804 31.7669 91.5341 32.0134 92.6697C32.0548 92.8062 32.139 92.9257 32.2535 93.0107C32.3681 93.0956 32.5069 93.1415 32.6495 93.1415C32.7921 93.1415 32.9309 93.0956 33.0455 93.0107C33.16 92.9257 33.2442 92.8062 33.2856 92.6697C33.5537 91.4793 33.5143 90.2401 33.1711 89.0691C33.1334 88.9467 33.0613 88.8376 32.9634 88.755C32.8655 88.6724 32.7459 88.6195 32.6189 88.6029C32.4919 88.5862 32.3628 88.6063 32.2468 88.6608C32.1309 88.7154 32.0331 88.8021 31.965 88.9106C31.1705 90.134 30.8194 91.5929 30.9702 93.0439C30.9717 93.1452 30.9961 93.2448 31.0417 93.3353C31.0872 93.4258 31.1528 93.5048 31.2333 93.5662C31.3138 93.6277 31.4073 93.67 31.5066 93.6901C31.6059 93.7102 31.7085 93.7075 31.8066 93.6821C33.3032 93.2772 33.0919 91.0983 32.5681 89.9846C32.5109 89.8838 32.4276 89.8003 32.3268 89.7429C32.2261 89.6856 32.1117 89.6565 31.9958 89.6589C30.2747 89.7954 29.4516 93.264 31.2431 93.8274C31.3557 93.8601 31.4751 93.8614 31.5884 93.8312C31.7017 93.8009 31.8045 93.7403 31.8858 93.6557C32.6825 92.6521 32.6253 91.2964 32.2467 90.1343C32.209 90.0119 32.1369 89.9029 32.039 89.8202C31.9411 89.7376 31.8215 89.6848 31.6945 89.6681C31.5675 89.6514 31.4384 89.6715 31.3225 89.7261C31.2066 89.7806 31.1087 89.8673 31.0406 89.9758C30.7738 90.3924 30.5969 90.8601 30.5211 91.349C30.4453 91.8379 30.4723 92.3371 30.6005 92.815C30.7413 93.4224 31.7581 93.4664 31.8726 92.815C32.0266 91.9346 32.4448 89.0911 30.7677 89.342C29.0906 89.5929 29.1127 92.5905 29.2491 93.713C29.2545 93.8698 29.3151 94.0196 29.4204 94.136C29.5256 94.2524 29.6686 94.3278 29.8241 94.3489C29.9796 94.37 30.1375 94.3354 30.2699 94.2512C30.4023 94.167 30.5007 94.0387 30.5476 93.889C30.7427 93.2456 30.8552 92.58 30.8822 91.9082H29.5616C29.6467 92.4916 29.5531 93.087 29.2931 93.6161L30.5917 93.7922V91.5165C30.5863 91.3597 30.5256 91.2098 30.4204 91.0934C30.3152 90.977 30.1722 90.9016 30.0167 90.8805C29.8612 90.8595 29.7033 90.8941 29.5709 90.9782C29.4384 91.0624 29.3401 91.1907 29.2931 91.3404C29.1502 91.8969 28.9602 92.4403 28.7253 92.9647L29.9578 93.2992L29.9358 92.1239C29.9358 91.3976 28.8089 91.2039 28.6373 91.9478C28.4841 92.6397 28.2274 93.3046 27.8757 93.9198L29.0818 94.4305C29.2336 93.5581 29.3146 92.6748 29.3239 91.7894C29.3239 90.9971 28.2851 90.953 28.0254 91.6133L27.3607 93.3036L28.6593 93.4797L28.7781 92.4717L27.4796 92.2956L27.0834 93.4709L28.3159 93.8054L28.2411 92.3132C28.2059 91.6089 27.0922 91.3712 26.9426 92.1371L27.3475 92.7313C27.8581 92.0535 26.7137 91.4108 26.2075 92.0667L26.2647 91.9742Z" fill="#FF0001"/>
<path d="M30.8955 25.8857L32.7706 28.4563L33.673 27.554C33.5212 27.4698 33.3742 27.3772 33.2328 27.2766C33.1624 27.2238 32.8411 26.8717 32.9819 27.1842C33.07 27.3823 33.0612 27.259 33.2856 27.1842C33.4292 27.1469 33.5782 27.135 33.7258 27.149C34.5754 27.193 34.571 25.8725 33.7258 25.8285C32.9863 25.7932 32.0135 26.1014 31.7186 26.8585C31.3797 27.7388 32.3701 28.3331 33.0039 28.694C33.541 28.9977 34.3245 28.3507 33.9063 27.7917L32.0311 25.221C31.5337 24.5387 30.3893 25.221 30.8911 25.8857H30.8955Z" fill="#FF0001"/>
<path d="M26.7974 26.5019L26.7049 27.2766C26.6433 27.8004 27.3036 28.0646 27.6997 27.8489C28.0822 27.6607 28.428 27.4058 28.7209 27.0962L27.6821 26.295L26.7093 27.6156C26.2295 28.2582 27.2111 28.8569 27.7481 28.4167C28.3378 27.9404 28.8335 27.3582 29.2095 26.7L28.0695 26.0353L26.8634 28.2098C26.5156 28.8393 27.396 29.6008 27.9022 29.0109C28.5324 28.2725 29.1049 27.4867 29.6145 26.6604C29.949 26.1146 29.2668 25.3839 28.7121 25.758C27.7976 26.3501 27.042 27.1571 26.5112 28.1086C26.0711 28.8613 27.1627 29.4291 27.6513 28.7733L30.0151 25.5247H28.875C29.1875 26.1278 27.2375 27.9589 27.2683 28.9889C27.2724 29.1176 27.3135 29.2424 27.3867 29.3483C27.4599 29.4543 27.5622 29.5368 27.6811 29.5861C27.8001 29.6353 27.9307 29.6492 28.0574 29.6261C28.1841 29.6029 28.3014 29.5437 28.3952 29.4555L31.9607 25.9033L31.0275 24.9701L28.1927 27.8665C28.0851 27.9817 28.0219 28.1314 28.0145 28.2889C28.007 28.4463 28.0558 28.6013 28.152 28.7262C28.2483 28.851 28.3858 28.9376 28.54 28.9704C28.6942 29.0032 28.8551 28.9801 28.9939 28.9053C30.7634 28.1097 32.2966 26.8692 33.4441 25.3046C33.8402 24.7808 33.0655 24.0325 32.5417 24.4023C31.2784 25.2826 29.2448 26.6032 29.5265 28.3287C29.5562 28.4335 29.6122 28.529 29.6893 28.6061C29.7663 28.6831 29.8618 28.7392 29.9666 28.7688C31.9166 29.1738 33.805 26.3963 34.9803 25.1506C35.5789 24.5167 34.6986 23.7024 34.0471 24.2174C32.88 25.133 31.8756 26.2386 31.0759 27.4879C30.7326 28.0161 31.4457 28.8085 31.9783 28.3903L36.8511 24.662L36.0499 23.6232C34.8347 24.8825 33.7616 26.2715 32.8498 27.7652C32.775 27.904 32.7519 28.0649 32.7847 28.2191C32.8176 28.3733 32.9041 28.5108 33.029 28.607C33.1538 28.7033 33.3088 28.7521 33.4663 28.7446C33.6237 28.7372 33.7735 28.674 33.8886 28.5664C35.5048 27.227 37.2645 26.071 39.1356 25.1198L38.4709 23.9797C37.2709 24.6642 36.286 25.6704 35.6274 26.8849C35.5582 27.011 35.5318 27.1561 35.5522 27.2985C35.5725 27.4408 35.6385 27.5727 35.7402 27.6744C35.8419 27.7761 35.9738 27.8421 36.1161 27.8624C36.2585 27.8828 36.4036 27.8564 36.5297 27.7872C38.0591 27.0059 39.5058 26.0724 40.8479 25.0009C41.2881 24.6356 40.9139 23.8653 40.3813 23.8741C39.0882 23.8696 37.8146 24.1896 36.6773 24.8049C35.5399 25.4201 34.575 26.3108 33.871 27.3955C33.5233 27.9061 34.0955 28.4739 34.6149 28.3639C36.3757 28.0029 38.4269 27.7388 40.0908 27.0433C40.6718 26.7968 41.134 26.634 41.3145 25.9737C41.8207 24.147 39.655 23.8829 38.4181 24.0721L38.7702 25.3443C39.5919 24.8865 40.2082 25.0332 40.619 25.7844C40.169 26.0645 39.6702 26.2572 39.1488 26.3523L39.7915 27.4571C40.3989 26.8321 41.5918 25.626 42.5514 25.6964C43.1383 25.4851 43.0048 25.6318 42.1508 26.1366C42.9934 25.8689 43.8791 25.7628 44.7611 25.824L44.5234 24.9217C44.7582 25.2415 45.0589 25.5071 45.4052 25.7008C45.7514 25.8944 46.1352 26.0115 46.5306 26.0441C48.4263 26.2642 50.3117 26.5577 52.1869 26.9245V25.9473L53.01 27.0301L54.2161 26.8717L53.9652 26.5283L54.4054 27.3427H54.6123L55.6511 28.1438L56.1177 27.4395L57.2446 27.9061L57.2754 27.9677L58.2438 28.7116L58.1293 28.6192C58.0061 29.3147 58.9481 29.8253 59.3354 29.1298L59.6832 29.033L59.7844 28.2318L59.5423 28.3815L60.2862 29.3499V28.7601C59.7712 29.2487 60.3214 29.9705 60.9289 29.8649H61.8621L61.3779 29.2266L61.0433 29.5744L62.0117 30.3183L61.6948 30.2743L62.9933 30.4503L62.628 29.8253C62.0425 30.2126 62.3991 31.3131 63.1386 31.0314L63.2618 30.9962L62.8216 30.1818L62.7644 30.3623L63.5788 29.9221L63.4467 29.8825C62.6368 29.6272 62.289 30.8993 63.0946 31.1546L63.2266 31.1942C63.3929 31.2389 63.5699 31.2181 63.7214 31.1362C63.8728 31.0544 63.9872 30.9176 64.0409 30.7541L64.0982 30.5736C64.1439 30.4073 64.1236 30.2297 64.0416 30.078C63.9596 29.9263 63.8222 29.8121 63.658 29.7593C63.3896 29.6626 63.094 29.6752 62.8348 29.7945L63.3455 31.0006C63.4904 30.9305 63.6182 30.8293 63.7197 30.7042C63.8211 30.5791 63.8937 30.4332 63.9324 30.2769C63.9711 30.1206 63.9748 29.9576 63.9434 29.7997C63.9119 29.6418 63.846 29.4927 63.7504 29.3631C63.6926 29.2629 63.6091 29.1799 63.5085 29.1226C63.4079 29.0654 63.2939 29.0359 63.1782 29.0374C62.223 29.121 61.8136 29.5392 61.7212 30.4855C61.642 31.2779 62.7776 31.3087 63.0197 30.6616C63.6492 28.9757 61.259 28.2582 60.7924 30.0013C60.7625 30.1269 60.7696 30.2584 60.8127 30.3801C60.8559 30.5017 60.9333 30.6083 61.0357 30.6869C61.1381 30.7655 61.261 30.8129 61.3896 30.8232C61.5183 30.8336 61.6472 30.8065 61.7608 30.7453C62.0571 30.6254 62.3103 30.4188 62.487 30.1525C62.6638 29.8862 62.7559 29.5726 62.7512 29.253C62.7524 29.1081 62.7055 28.9669 62.6179 28.8514C62.5303 28.7359 62.4069 28.6527 62.267 28.6148C61.7303 28.4858 61.1707 28.4858 60.6339 28.6148L61.2766 29.7196C61.4175 29.6109 61.5298 29.4695 61.6038 29.3076C61.6777 29.1458 61.7112 28.9683 61.7012 28.7906C61.6912 28.6129 61.6382 28.4403 61.5465 28.2878C61.4549 28.1352 61.3275 28.0072 61.1754 27.9149C60.3522 27.3999 59.67 28.0778 59.1858 28.7116C58.8248 29.1826 59.4191 29.8341 59.9297 29.68C60.2499 29.6078 60.5393 29.4369 60.7572 29.1914C60.8597 29.0875 60.9251 28.9528 60.9434 28.808C60.9617 28.6632 60.9319 28.5164 60.8584 28.3903C60.1366 27.4087 58.8556 27.3647 58.2174 28.4871L59.4235 28.9977C59.736 27.2106 57.4867 26.5812 56.9937 28.3859C56.9638 28.5115 56.9708 28.643 57.014 28.7646C57.0572 28.8863 57.1346 28.9928 57.237 29.0715C57.3393 29.1501 57.4622 29.1974 57.5909 29.2078C57.7195 29.2181 57.8484 29.1911 57.9621 29.1298C60.7352 27.5452 56.3466 24.4595 55.9416 27.9281C55.8712 28.5267 56.6943 28.76 57.0685 28.3947C58.6311 26.8849 55.748 24.9657 54.5287 27.5143C54.2249 28.1438 55.0393 28.9185 55.5675 28.3155C57.425 26.1806 53.7319 24.3539 53.1553 26.9949C53.1096 27.1612 53.1298 27.3388 53.2118 27.4905C53.2939 27.6422 53.4313 27.7564 53.5955 27.8093C54.916 28.0646 56.285 26.7044 55.0085 25.6084C53.5911 24.3803 52.3674 26.2466 53.0585 27.5584C53.1266 27.6669 53.2244 27.7536 53.3403 27.8081C53.4562 27.8627 53.5853 27.8828 53.7124 27.8661C53.8394 27.8494 53.9589 27.7966 54.0568 27.714C54.1547 27.6313 54.2268 27.5223 54.2645 27.3999C54.7047 25.5951 52.6579 23.8784 51.2229 25.5423C49.9024 27.0786 51.8172 28.0558 53.1025 26.9025C53.224 26.7776 53.292 26.6102 53.292 26.4359C53.292 26.2616 53.224 26.0942 53.1025 25.9693C52.3234 25.155 50.8796 24.5211 50.0212 25.67C49.3213 26.6252 50.1709 28.2318 51.4298 27.7696C54.2602 26.7352 49.5018 22.69 48.7183 25.7096C48.4454 26.766 49.6867 27.5716 50.5891 27.105C51.9096 26.4403 51.2757 24.6928 50.1489 24.2262C49.1321 23.786 47.2173 24.1822 47.0676 25.5071C47.0513 25.7671 47.1079 26.0264 47.2309 26.256C47.354 26.4855 47.5386 26.6762 47.7641 26.8065C47.9896 26.9369 48.247 27.0017 48.5073 26.9938C48.7676 26.9859 49.0206 26.9055 49.2377 26.7616C52.0064 24.8821 45.8571 22.153 46.3589 25.9781C46.7287 28.7953 50.972 25.9781 47.9216 24.7896C46.8739 24.3803 44.5762 25.0757 44.5542 26.4535C44.5234 28.1042 46.6362 27.4967 47.3537 26.8321C50.1093 24.2746 43.6254 22.2938 43.5066 25.8373C43.4537 27.4175 45.4522 27.083 46.2181 26.251C47.2613 25.1154 46.4162 23.8785 45.056 23.7288C43.6958 23.5791 41.1428 24.9085 42.2168 26.5371C43.2909 28.1658 44.9812 26.612 45.6326 25.582C45.7183 25.4302 45.7414 25.251 45.6971 25.0825C45.6527 24.914 45.5443 24.7694 45.3949 24.6796C44.0744 23.9489 41.4333 24.3142 40.7598 25.8593C40.0336 27.4791 42.0452 27.62 43.0488 27.1798C44.0524 26.7396 45.6502 25.3707 44.2813 24.4287C42.6834 23.3282 39.8795 25.4719 38.8275 26.5415C38.7274 26.6457 38.6639 26.7796 38.6467 26.923C38.6295 27.0664 38.6595 27.2115 38.7321 27.3363C38.8048 27.4612 38.9161 27.559 39.0492 27.6149C39.1824 27.6709 39.3301 27.6819 39.4701 27.6464C40.5001 27.3823 42.8815 26.5195 42.6966 25.0978C42.4721 23.3855 39.4085 23.8697 38.3917 24.0809C37.5465 24.257 37.9207 25.4807 38.7438 25.3531C39.9763 25.6465 40.0424 25.8607 38.9419 25.9957C38.4254 26.1395 37.906 26.276 37.3837 26.4051C36.3404 26.6648 35.2928 26.8937 34.2408 27.1094L34.9847 28.0778C35.5668 27.1875 36.3641 26.4586 37.3028 25.9585C38.2416 25.4583 39.2913 25.2032 40.3549 25.2166L39.8883 24.0897C38.6288 25.0851 37.272 25.9507 35.8386 26.6736L36.741 27.576C37.2868 26.5588 38.1074 25.7154 39.1092 25.1418C39.2537 25.0504 39.3571 24.9065 39.3976 24.7404C39.4382 24.5743 39.4127 24.3989 39.3266 24.2512C39.2405 24.1035 39.1004 23.995 38.9359 23.9484C38.7714 23.9019 38.5952 23.921 38.4445 24.0017C36.4767 25.012 34.6269 26.2373 32.9291 27.6552L33.9679 28.4563C34.8211 27.0596 35.8248 25.7607 36.9611 24.5827C37.4365 24.0633 36.785 23.0685 36.16 23.5439L31.3532 27.2678L32.2556 28.1482C33.0022 26.9996 33.9367 25.9848 35.0199 25.1462L34.0867 24.213C33.2944 25.0493 32.2556 25.8108 31.5513 26.7044C31.318 27.0037 30.9703 27.2987 31.5073 26.9685C32.0443 26.6384 32.7046 25.8901 33.2328 25.5159L32.326 24.6268C31.2949 25.9906 29.9308 27.0667 28.3644 27.752L29.1655 28.7909L32.0003 25.8945C32.1169 25.7693 32.1804 25.6038 32.1774 25.4327C32.1744 25.2617 32.1051 25.0984 31.9841 24.9775C31.8631 24.8565 31.6999 24.7872 31.5289 24.7842C31.3578 24.7812 31.1923 24.8447 31.0671 24.9613L27.5016 28.5135L28.6285 28.9801C28.5713 27.193 31.1155 26.8893 30.0547 24.8513C29.9948 24.7538 29.911 24.6734 29.8112 24.6176C29.7114 24.5618 29.599 24.5325 29.4846 24.5325C29.3703 24.5325 29.2579 24.5618 29.1581 24.6176C29.0583 24.6734 28.9745 24.7538 28.9146 24.8513L26.5509 28.0998L27.6909 28.7644C28.1026 28.0068 28.6935 27.3615 29.412 26.8849L28.5097 25.9825C28.0637 26.7166 27.5603 27.4143 27.0042 28.069L28.0431 28.8701L29.2492 26.6956C29.3299 26.5449 29.349 26.3687 29.3024 26.2042C29.2559 26.0397 29.1473 25.8996 28.9996 25.8135C28.8519 25.7274 28.6766 25.7019 28.5105 25.7425C28.3444 25.783 28.2005 25.8864 28.1091 26.0309C27.8253 26.6154 27.3926 27.1149 26.8546 27.4791L27.8934 28.2802L28.8662 26.9597C29.3064 26.3391 28.3556 25.6656 27.8274 26.1586L27.0747 26.7044L28.0695 27.2766L28.1619 26.5019C28.2632 25.6612 26.9426 25.6656 26.8414 26.5019H26.7974Z" fill="#FF0001"/>
<path d="M25.5737 24.0633C26.1254 30.6865 26.6771 37.3098 27.2288 43.933C27.6206 48.6033 27.9375 53.7314 31.01 57.5346C34.0208 61.2629 38.9332 62.7375 43.5947 62.7023C46.3186 62.6249 49.0252 62.241 51.6632 61.5578C53.5516 61.1176 56.7429 59.9687 57.5968 62.7331C58.2087 64.7139 56.4611 66.6155 55.255 67.9624C54.6916 68.5963 55.6204 69.5338 56.1882 68.8956C57.6408 67.2669 59.2079 65.405 58.979 63.0632C58.9179 62.2007 58.5539 61.3876 57.9515 60.7674C57.349 60.1472 56.5468 59.7599 55.6864 59.6738C53.0013 59.2909 50.0257 60.6774 47.3846 61.0692C44.1009 61.5578 40.6851 61.5534 37.5202 60.4353C30.8427 58.076 29.2448 51.8562 28.677 45.4692C28.0432 38.3339 27.4885 31.1942 26.8943 24.0545C26.8239 23.2138 25.5033 23.205 25.5737 24.0545V24.0633Z" fill="black"/>
<path d="M54.9689 68.0021C54.5529 68.6512 54.3675 69.4215 54.4425 70.1889C54.5176 70.9562 54.8487 71.676 55.3827 72.2322C56.6416 73.6628 58.6752 73.8257 60.4491 73.5528C64.8069 72.8573 69.6621 70.1149 69.4596 65.1277C69.4244 64.2826 68.1038 64.2782 68.1391 65.1277C68.2755 68.4247 65.7225 70.5287 62.8569 71.5499C61.7942 71.9666 60.6786 72.2333 59.5423 72.3423C57.7244 72.4479 54.5771 71.0217 56.1001 68.68C56.5403 67.9625 55.4179 67.3022 54.9601 68.0153L54.9689 68.0021Z" fill="black"/>
<path d="M56.8484 65.81C53.7319 64.7976 50.4174 66.7828 50.1973 70.1721C49.9684 73.6936 53.2785 76.1454 56.4566 76.6384C63.2002 77.686 74.1034 73.3415 70.4675 64.9913C70.1286 64.2121 68.9929 64.8856 69.3275 65.6559C71.9994 71.7832 65.115 74.64 60.2378 75.2827C57.4955 75.6436 54.4406 75.4323 52.561 73.1478C50.118 70.1766 52.6447 65.832 56.5006 67.0821C57.3106 67.3462 57.6583 66.0697 56.8528 65.81H56.8484Z" fill="black"/>
<path d="M70.2168 64.6831C69.371 59.9915 68.9541 55.2326 68.971 50.4653C68.971 50.2902 68.9015 50.1223 68.7777 49.9985C68.6538 49.8746 68.4859 49.8051 68.3108 49.8051C68.1357 49.8051 67.9677 49.8746 67.8439 49.9985C67.7201 50.1223 67.6505 50.2902 67.6505 50.4653C67.6394 55.3497 68.0726 60.225 68.9446 65.0309C69.0943 65.8672 70.3664 65.5107 70.2168 64.6787V64.6831Z" fill="black"/>
<path d="M26.7358 30.5252C38.1804 28.1042 52.2926 25.287 62.6984 32.3343C63.4027 32.8141 64.0674 31.6696 63.3631 31.1942C52.6447 23.9357 38.1804 26.7572 26.388 29.2531C25.5561 29.4291 25.9082 30.7012 26.7402 30.5252H26.7358Z" fill="black"/>
<path d="M26.2824 23.183C40.038 19.1201 55.9593 20.4583 67.2631 29.8781C67.9101 30.4195 68.8521 29.4907 68.1963 28.9449C56.5227 19.2126 40.1744 17.7027 25.939 21.9021C25.1247 22.1442 25.4724 23.4163 26.2912 23.1742L26.2824 23.183Z" fill="black"/>
<path d="M26.1372 23.7464C26.3123 23.7464 26.4802 23.6768 26.604 23.553C26.7279 23.4292 26.7974 23.2612 26.7974 23.0861C26.7974 22.911 26.7279 22.743 26.604 22.6192C26.4802 22.4954 26.3123 22.4258 26.1372 22.4258C25.962 22.4258 25.7941 22.4954 25.6703 22.6192C25.5465 22.743 25.4769 22.911 25.4769 23.0861C25.4769 23.2612 25.5465 23.4292 25.6703 23.553C25.7941 23.6768 25.962 23.7464 26.1372 23.7464Z" fill="black"/>
<path d="M26.0975 28.8965C25.1071 28.6808 23.7865 28.628 23.3904 29.5568C23.3031 29.8189 23.2499 30.0911 23.2319 30.3667C23.0691 31.4892 22.3516 32.4576 21.6693 33.3511C20.987 34.2447 20.2167 35.1471 19.9086 36.2431C19.6004 37.3392 19.8778 38.6861 20.855 39.2672C21.6121 39.7073 22.5673 39.5973 23.4388 39.4652C22.5012 40.8474 21.7485 42.6125 22.4 44.1487C22.6175 44.6623 22.9769 45.1031 23.4361 45.4196C23.8953 45.736 24.4353 45.9149 24.9926 45.9352C25.5499 45.9556 26.1015 45.8165 26.5826 45.5344C27.0636 45.2522 27.4542 44.8387 27.7086 44.3424" fill="black"/>
<path d="M26.2736 28.2582C25.1996 28.0734 23.8834 27.9149 23.0911 28.8349C22.5805 29.4247 22.673 30.1554 22.4397 30.8465C21.9995 32.211 20.8374 33.2059 20.0803 34.3679C18.0731 37.502 19.6665 40.6053 23.4433 40.0903L22.871 39.0955C21.5505 41.1863 20.6305 44.1839 23.0471 45.8918C24.8959 47.2124 27.132 46.4156 28.2852 44.6373C28.7474 43.9198 27.6074 43.2596 27.1452 43.9726C25.9963 45.7334 23.857 45.5441 23.1572 43.6557C22.5981 42.1547 23.1924 41.0675 24.0155 39.7645C24.2576 39.3772 23.9495 38.7037 23.4433 38.7697C21.8982 38.9766 20.1199 38.2811 20.5513 36.3839C20.811 35.2439 21.7838 34.2843 22.4529 33.3775C23.4741 31.9954 23.8262 29.1342 25.9259 29.4995C26.7578 29.6448 27.1144 28.3727 26.278 28.2274L26.2736 28.2582Z" fill="black"/>
<path d="M26.1857 28.4827C25.1601 28.2538 24.0552 28.5311 23.0604 28.1878C22.0656 27.8445 21.2997 26.8673 20.8595 25.8945C20.3468 24.9357 20.1278 23.8472 20.2301 22.7648C20.2894 22.227 20.4929 21.7153 20.8191 21.2838C21.1453 20.8522 21.5821 20.5168 22.0832 20.313C20.9035 19.8728 20.1332 18.6535 19.8559 17.4166C19.6506 16.1631 19.6506 14.8846 19.8559 13.6311" fill="black"/>
<path d="M26.1855 27.8224C24.1827 27.5803 22.4044 27.5451 21.414 25.5643C20.5997 23.9401 20.5556 21.7612 22.4044 20.8852C22.5029 20.8262 22.5843 20.7426 22.6409 20.6427C22.6975 20.5428 22.7272 20.43 22.7272 20.3152C22.7272 20.2004 22.6975 20.0875 22.6409 19.9876C22.5843 19.8877 22.5029 19.8042 22.4044 19.7451C20.0582 18.5258 20.2651 15.8804 20.4896 13.631C20.5733 12.7859 19.2527 12.7903 19.1691 13.631C18.8918 16.413 18.9446 19.4326 21.7397 20.8852V19.7451C19.486 20.8148 19.1515 23.315 19.9482 25.4675C20.3216 26.6237 21.0425 27.6367 22.0126 28.3683C23.2671 29.2134 24.7594 28.9625 26.1855 29.1342C27.0263 29.2354 27.0219 27.9149 26.1855 27.8136V27.8224Z" fill="black"/>
<path d="M20.1947 13.1821C20.5205 9.73547 24.1299 6.97555 27.5413 7.56098C27.9502 5.95935 28.7891 4.49995 29.9674 3.34058C31.1456 2.18121 32.6184 1.36597 34.2264 0.982996C35.8344 0.600025 37.5166 0.663896 39.0909 1.1677C40.6653 1.67151 42.072 2.59608 43.1589 3.84146C45.7516 1.45569 49.4359 0.0515139 52.8649 0.852641C56.2939 1.65377 59.1462 5.03435 58.7104 8.52937C60.0718 7.67512 61.6243 7.17311 63.228 7.0686C64.8318 6.9641 66.4363 7.26038 67.897 7.93073C69.4728 8.67464 70.8814 9.93355 71.4184 11.5886C71.9554 13.2437 71.4888 15.2905 70.0319 16.2501C73.1131 14.6743 77.33 17.1305 77.6998 20.5419C78.0695 23.9533 74.7374 27.2062 71.304 26.9553C72.1897 26.6629 73.1288 26.5683 74.0551 26.678C74.9663 26.854 75.8466 27.5583 75.9038 28.4915C75.8962 28.8771 75.7888 29.2541 75.5921 29.5859C75.3954 29.9176 75.1161 30.1927 74.7814 30.3843C72.9238 31.586 70.3796 30.7804 68.6453 29.4159C66.911 28.0513 65.564 26.1938 63.7461 24.9569C61.8357 23.6627 59.4719 23.1081 57.6936 21.6423C57.2609 21.1944 56.737 20.8446 56.1574 20.6167C55.3739 20.4098 54.5683 20.7884 53.776 20.9468C52.231 21.2594 50.6596 20.7532 49.1321 20.3658C41.5346 18.4378 33.4661 19.4854 25.9171 21.6071C25.5835 21.6709 25.2768 21.8335 25.0367 22.0737C24.4645 22.7736 25.2392 23.7288 25.6838 24.5167C25.9633 25.0304 26.1049 25.6078 26.0949 26.1925C26.0849 26.7773 25.9235 27.3494 25.6265 27.8532" fill="black"/>
<path d="M20.833 13.3802C21.0477 11.8123 21.8732 10.3927 23.1296 9.4306C24.3861 8.46848 25.9717 8.04172 27.5414 8.24328C27.6859 8.24297 27.8265 8.19553 27.9417 8.10815C28.0568 8.02078 28.1404 7.89822 28.1796 7.75908C28.5899 6.29115 29.3863 4.96012 30.4859 3.90467C31.5855 2.84923 32.948 2.10802 34.4315 1.75828C35.915 1.40853 37.4652 1.46306 38.9205 1.91617C40.3757 2.36928 41.6828 3.20439 42.7056 4.33448C42.831 4.455 42.9982 4.52231 43.1721 4.52231C43.3461 4.52231 43.5133 4.455 43.6387 4.33448C46.1566 2.13359 49.6384 0.641381 53.0058 1.60097C54.5139 2.01078 55.8365 2.92401 56.7541 4.18908C57.6717 5.45416 58.129 6.99498 58.0502 8.5558C58.051 8.67187 58.0822 8.7857 58.1407 8.88596C58.1991 8.98623 58.2828 9.06945 58.3835 9.12732C58.4841 9.18519 58.5981 9.2157 58.7141 9.21583C58.8302 9.21596 58.9443 9.1857 59.045 9.12804C61.6157 7.61383 64.807 7.23086 67.5625 8.52939C70.318 9.82792 72.5233 13.4726 69.5873 15.8144C68.9535 16.3206 69.7634 17.1349 70.3884 16.8532C73.0295 15.7043 76.3441 17.421 76.9911 20.2206C77.7747 23.5791 74.3985 26.3831 71.3216 26.3302L71.4977 27.6288C71.916 27.5013 72.347 27.4201 72.783 27.3867C73.9568 27.0492 74.6259 27.7828 74.7902 29.5876C74.262 30.4679 72.2416 30.3403 71.5461 30.1774C69.9131 29.7901 68.6585 28.6412 67.5009 27.5011C65.6609 25.6876 64.0235 24.2262 61.6641 23.1213C60.4255 22.594 59.2454 21.939 58.1427 21.167C57.5176 20.7004 56.963 20.1457 56.1706 19.9961C54.9822 19.7716 53.8069 20.4054 52.6272 20.4098C50.9985 20.4098 49.3347 19.732 47.7412 19.4106C42.3138 18.3234 36.7059 18.6447 31.2961 19.6879C29.9756 19.9432 28.655 20.247 27.3345 20.5683C26.5114 20.7796 25.27 20.9028 24.645 21.5763C24.4674 21.7692 24.3378 22.0013 24.2667 22.2537C24.1955 22.5061 24.1849 22.7716 24.2356 23.0289C24.4777 24.8468 26.2472 24.9789 25.0632 27.5407C24.7066 28.3067 25.8467 28.9801 26.2032 28.2054C26.7349 27.2254 26.875 26.0801 26.595 25.0009C26.4717 24.5607 26.0492 24.1206 25.9655 23.7112C25.5914 21.7964 27.1408 21.9505 28.4702 21.6379C32.1008 20.7181 35.8195 20.1898 39.5627 20.0621C43.5243 19.9565 47.0941 20.7532 50.9193 21.5103C52.2398 21.77 53.3139 21.5851 54.5816 21.4707C55.8493 21.3562 56.2543 21.387 57.3239 22.1926C57.8918 22.6282 58.4922 23.0196 59.1198 23.3634C60.5416 24.1294 62.0999 24.64 63.4424 25.5643C64.785 26.4887 65.8854 27.8181 67.0959 28.9493C68.8566 30.5912 71.2688 32.1494 73.7998 31.5464C75.4153 31.1634 77.1056 29.6184 76.4409 27.8181C75.631 25.6172 72.9415 25.9165 71.1588 26.3523C71.009 26.3992 70.8807 26.4976 70.7966 26.63C70.7124 26.7624 70.6778 26.9203 70.6989 27.0758C70.72 27.2313 70.7954 27.3743 70.9118 27.4795C71.0282 27.5848 71.178 27.6454 71.3348 27.6508C75.2964 27.708 79.2581 24.0545 78.2765 19.8684C77.3961 16.1621 73.1044 14.2341 69.7282 15.7131L70.5293 16.7519C73.3773 14.4806 72.4793 10.5234 69.9042 8.44136C66.6205 5.80029 61.9018 5.91473 58.3847 8.00119L59.3796 8.57341C59.6305 4.99035 57.2755 1.75943 53.9389 0.535732C49.9773 -0.921262 45.7252 0.777835 42.6968 3.41451H43.6299C42.4412 2.12696 40.9307 1.17965 39.254 0.670172C37.5773 0.160694 35.7951 0.107476 34.091 0.516012C32.3869 0.924548 30.8225 1.78005 29.5591 2.99439C28.2956 4.20872 27.3788 5.73797 26.9031 7.42455L27.5414 6.94035C25.6809 6.7344 23.8127 7.25426 22.326 8.39161C20.8394 9.52896 19.8489 11.1961 19.5609 13.0456C19.4377 13.8776 20.7098 14.2341 20.833 13.3978V13.3802Z" fill="black"/>
<path d="M20.2255 13.8468C20.1082 15.0459 20.187 16.2561 20.4588 17.4298C20.5733 17.9448 21.4404 18.1165 21.6649 17.5883C21.9306 17.0415 22.0035 16.421 21.8718 15.8276C21.7134 14.9824 20.4764 15.3566 20.5997 16.1797C20.8734 17.9764 21.4826 19.7055 22.3956 21.277C22.4705 21.4001 22.5834 21.4956 22.7172 21.549C22.851 21.6024 22.9986 21.6109 23.1377 21.5731C23.2767 21.5354 23.3998 21.4534 23.4882 21.3397C23.5767 21.2259 23.6258 21.0865 23.6281 20.9424C23.6621 20.06 23.5122 19.18 23.188 18.3586C22.893 17.5795 21.6957 17.87 21.9158 18.7107L22.8314 22.197C22.8783 22.3467 22.9767 22.475 23.1091 22.5591C23.2416 22.6433 23.3995 22.6779 23.555 22.6568C23.7104 22.6357 23.8535 22.5603 23.9587 22.4439C24.0639 22.3275 24.1246 22.1777 24.1299 22.0209C24.1934 20.6584 24.1078 19.2931 23.8746 17.9492L22.6025 18.3014L23.2672 20.6255C23.3179 20.7896 23.4305 20.9275 23.5812 21.0099C23.7318 21.0923 23.9087 21.1127 24.0742 21.0669C24.2397 21.0211 24.3808 20.9126 24.4677 20.7645C24.5545 20.6163 24.5802 20.4402 24.5393 20.2734L23.8746 17.9492C23.6369 17.1173 22.4617 17.4782 22.6025 18.3014C22.8071 19.5299 22.8765 20.7772 22.8094 22.0209L24.1079 21.8448L23.1924 18.3586L21.9202 18.7107C22.1972 19.4209 22.3232 20.1809 22.29 20.9424L23.5225 20.6079C22.6779 19.1306 22.1194 17.5074 21.8762 15.8232L20.6041 16.1753L20.5293 16.9412L21.7354 17.0997C21.4973 16.0401 21.4333 14.9489 21.5461 13.8688C21.6297 13.0236 20.3048 13.028 20.2255 13.8688V13.8468Z" fill="black"/>
<path d="M54.3834 21.2903C55.5222 21.9616 56.7468 22.4754 58.0237 22.8177C58.1637 22.8532 58.3114 22.8421 58.4446 22.7862C58.5777 22.7302 58.689 22.6325 58.7617 22.5076C58.8343 22.3828 58.8643 22.2377 58.8471 22.0943C58.8299 21.9509 58.7664 21.817 58.6663 21.7128C57.9591 21.0753 57.1553 20.5539 56.285 20.1678C55.5278 19.8333 54.8588 20.8853 55.6203 21.3079L57.1389 22.1486V21.0085C56.9634 21.1179 56.757 21.1668 56.5511 21.1477C56.3452 21.1286 56.1512 21.0426 55.9988 20.9029C55.4046 20.2954 54.4714 21.2286 55.0657 21.8361C55.8272 22.6152 56.8484 22.5844 57.8036 22.1486C57.902 22.0896 57.9835 22.006 58.0401 21.9061C58.0967 21.8062 58.1264 21.6934 58.1264 21.5786C58.1264 21.4638 58.0967 21.3509 58.0401 21.251C57.9835 21.1511 57.902 21.0676 57.8036 21.0085L56.2894 20.1678L55.6247 21.3079C56.3942 21.6338 57.1073 22.0795 57.7375 22.6284L58.3802 21.5235C57.2141 21.2117 56.096 20.7423 55.0569 20.1282C54.9061 20.0475 54.73 20.0284 54.5655 20.0749C54.4009 20.1215 54.2609 20.23 54.1748 20.3777C54.0887 20.5254 54.0632 20.7008 54.1037 20.8669C54.1443 21.033 54.2477 21.1768 54.3922 21.2682L54.3834 21.2903Z" fill="black"/>
<path d="M64.7057 44.228C64.5387 45.2005 64.6366 46.1999 64.989 47.1216C65.3414 48.0432 65.9353 48.853 66.7085 49.4661C67.0335 49.7492 67.4154 49.9593 67.8285 50.0823C68.2415 50.2053 68.6762 50.2384 69.1031 50.1792C70.2255 49.9371 70.9342 48.8278 71.348 47.7538C71.7618 46.6797 71.9995 45.3152 71.3172 44.3468C71.2027 44.2251 71.1275 44.0717 71.1015 43.9066C71.1015 43.5853 71.4889 43.4444 71.7926 43.3432C72.3642 43.1492 72.8707 42.8004 73.2559 42.3356C73.641 41.8708 73.8896 41.3083 73.974 40.7106C74.0584 40.1129 73.9753 39.5035 73.734 38.9502C73.4926 38.397 73.1024 37.9215 72.6069 37.5768C72.3912 37.4272 72.1359 37.2775 72.0611 37.0266C71.9202 36.5864 72.4308 36.2079 72.7434 35.8513C73.703 34.7641 72.937 32.9682 71.7618 32.1142C70.5865 31.2603 69.0987 30.9213 67.9366 30.0498C67.6461 30.6924 68.0378 31.4143 68.3152 32.0614C68.9798 33.6328 68.9446 35.398 68.9006 37.1059C68.861 38.7081 68.7289 40.5084 67.514 41.5517C66.9638 42.0227 66.2595 42.2692 65.6873 42.7137C65.1151 43.1583 64.6881 43.9462 65.005 44.5933" fill="black"/>
<path d="M64.0452 44.228C63.7107 47.0584 65.938 51.9355 69.5431 50.7162C70.89 50.2761 71.6604 48.9203 72.0829 47.635C72.3718 46.8689 72.467 46.0433 72.3602 45.2316C72.2807 44.9975 72.2132 44.7595 72.1578 44.5185C72.0785 43.2904 71.7176 44.5449 72.6684 43.6381C73.7644 42.6125 74.7284 41.7542 74.658 40.0859C74.6208 39.3678 74.3945 38.6724 74.0021 38.0699C73.4431 37.2203 72.8532 37.3128 73.2054 36.3092C73.672 34.9534 74.1386 34.2535 73.2582 32.7877C72.1666 30.9962 69.9216 30.5428 68.2622 29.46C68.1746 29.4101 68.0768 29.3808 67.9762 29.3742C67.8756 29.3677 67.7748 29.3842 67.6815 29.4223C67.5882 29.4605 67.5049 29.5194 67.4377 29.5945C67.3705 29.6697 67.3213 29.7592 67.2938 29.8561C67.0913 31.3043 67.8044 32.1891 68.0861 33.6109C68.3948 35.3373 68.3948 37.1049 68.0861 38.8314C67.6855 41.0323 66.0085 41.1819 64.82 42.6213C64.5745 42.9123 64.4057 43.26 64.3288 43.6329C64.252 44.0057 64.2695 44.3918 64.3798 44.7562C64.5559 45.5881 65.828 45.236 65.6519 44.4041C65.4098 43.2596 67.8528 42.278 68.4999 41.446C69.0712 40.6081 69.4072 39.6322 69.4727 38.6201C69.6321 37.2598 69.6542 35.8868 69.5387 34.522C69.4286 33.2015 68.4118 31.4408 68.5835 30.2127L67.6151 30.6088C68.7728 31.3659 70.2034 31.7445 71.2774 32.6073C72.4747 33.5668 72.5627 34.368 71.9421 35.7325C71.832 35.9746 71.5327 36.1331 71.5019 36.4104C71.4379 36.6228 71.4266 36.8475 71.4687 37.0653C71.5109 37.2831 71.6054 37.4873 71.744 37.6605C71.9333 37.9642 72.4395 38.2063 72.6243 38.4176C73.0785 38.9087 73.3238 39.5573 73.3082 40.2261C73.2926 40.8948 73.0173 41.5313 72.5407 42.0007C71.3874 43.198 70.265 42.881 70.78 44.6726C70.9773 45.3018 71.0362 45.9664 70.9526 46.6205C70.869 47.2747 70.645 47.9031 70.2958 48.4625L67.6195 49.246C65.7223 48.8058 65.2161 45.7642 65.4186 44.2192C65.5199 43.3784 64.1949 43.3828 64.0981 44.2192L64.0452 44.228Z" fill="black"/>
<path d="M63.0945 33.668C63.2848 33.2051 63.5053 32.7551 63.7547 32.3211C64.0246 31.7967 64.4153 31.344 64.8948 31.0006L67.4082 32.189C67.9232 33.0122 67.5491 35.2395 67.5491 36.2035C67.5491 37.3655 67.6063 38.5408 67.5491 39.7029C67.5539 40.1471 67.5066 40.5903 67.4082 41.0234L65.2073 42.4496C64.5382 42.6477 62.9448 42.4496 62.7247 41.7453C62.4694 40.9398 61.1929 41.3052 61.4526 42.0975C62.0997 44.1311 64.9432 44.1267 66.6555 43.5149C69.5123 42.4936 68.9004 39.003 68.896 36.5908C68.896 34.5044 69.4947 30.7452 67.1133 29.592C64.6307 28.3903 62.8304 31.093 61.9808 32.977C61.6331 33.7473 62.7731 34.4164 63.1209 33.6416L63.0945 33.668Z" fill="black"/>
<path d="M53.6482 21.6599C57.0728 22.0385 60.3918 24.2218 63.2309 26.0617C63.944 26.5283 64.6043 25.3838 63.8956 24.9217C60.8143 22.8924 57.3897 20.7355 53.6438 20.3218C52.7987 20.2293 52.8075 21.5499 53.6438 21.6423L53.6482 21.6599Z" fill="black"/>
<path d="M26.6785 26.3875C33.1312 24.7236 39.8024 24.0674 46.4557 24.4419C52.9396 24.8249 58.6619 26.995 64.1509 30.402C64.8772 30.8421 65.5375 29.7109 64.8156 29.2619C59.3794 25.8901 53.6438 23.6364 47.2084 23.1742C40.1811 22.6961 33.1227 23.353 26.3043 25.1198C25.4812 25.3311 25.8289 26.6032 26.6564 26.3919L26.6785 26.3875Z" fill="black"/>
<path d="M37.5686 34.1567L35.3677 39.0514C34.7646 40.372 33.8403 41.8906 33.7346 43.3916C33.5497 46.0327 35.3105 46.0327 37.1416 46.9923C37.8943 47.384 38.5634 46.2484 37.8063 45.8522C37.2781 45.5749 36.4857 45.5353 36.0456 45.2404C34.0956 44.0167 35.6054 41.7938 36.182 40.4688L38.7307 34.8213C39.0784 34.051 37.9383 33.3819 37.5906 34.1567H37.5686Z" fill="black"/>
<path d="M41.5655 32.2639C41.0417 33.8662 42.4987 34.9886 43.9997 34.8698C46.2446 34.6937 48.7756 32.9022 50.6024 31.7137C51.3111 31.2515 50.6508 30.107 49.9377 30.5736C48.933 31.2376 47.8926 31.846 46.8212 32.396C46.2534 32.6821 42.1905 34.6365 42.8596 32.6117C43.1237 31.8017 41.8516 31.454 41.5875 32.2595L41.5655 32.2639Z" fill="black"/>
<path d="M43.269 38.4924C45.3217 37.6179 47.6097 37.4627 49.7616 38.0522C49.9284 38.0931 50.1046 38.0674 50.2527 37.9806C50.4009 37.8937 50.5094 37.7526 50.5552 37.5871C50.601 37.4216 50.5805 37.2447 50.4981 37.0941C50.4157 36.9434 50.2778 36.8308 50.1138 36.7801C47.7342 36.1216 45.2028 36.2765 42.9212 37.2203C42.1465 37.5416 42.4811 38.8181 43.2734 38.4924H43.269Z" fill="black"/>
<path d="M29.6454 34.6321C30.3148 34.2736 31.0346 34.0184 31.7802 33.875C32.0443 33.8265 33.6554 33.5272 33.7875 33.9322C34.0428 34.7377 35.3193 34.3723 35.0596 33.58C34.3377 31.3175 30.3541 32.7701 28.9807 33.492C28.228 33.8882 28.8927 35.0282 29.6454 34.6321V34.6321Z" fill="black"/>
<path d="M30.8646 36.8417V39.6589C30.8652 39.7605 30.889 39.8606 30.9344 39.9515C30.9797 40.0424 31.0452 40.1218 31.126 40.1834C31.2068 40.245 31.3006 40.2873 31.4002 40.307C31.4999 40.3268 31.6028 40.3234 31.7009 40.2971C32.1806 40.1354 32.5804 39.7965 32.8185 39.3497C33.0566 38.903 33.115 38.3822 32.9818 37.8938C32.9311 37.7297 32.8185 37.5918 32.6679 37.5094C32.5172 37.427 32.3403 37.4065 32.1748 37.4523C32.0093 37.4981 31.8682 37.6066 31.7814 37.7548C31.6945 37.9029 31.6688 38.0791 31.7097 38.2459C31.7583 38.3974 31.7481 38.5615 31.6813 38.7059C31.6144 38.8502 31.4957 38.9641 31.3488 39.025L32.1851 39.6633V36.8461C32.1851 36.671 32.1155 36.5031 31.9917 36.3792C31.8679 36.2554 31.7 36.1859 31.5248 36.1859C31.3497 36.1859 31.1818 36.2554 31.058 36.3792C30.9341 36.5031 30.8646 36.671 30.8646 36.8461V36.8417Z" fill="black"/>
<path d="M35.2798 46.0371C34.5159 46.0163 33.7588 46.1857 33.0765 46.5299C32.3943 46.8741 31.8082 47.3824 31.371 48.0091C30.509 49.2768 30.0265 50.7641 29.98 52.2964C29.8879 53.0175 29.9961 53.75 30.2925 54.4137C30.4468 54.7393 30.7004 55.0076 31.0167 55.18C31.3331 55.3524 31.696 55.4201 32.0532 55.3733C32.9336 55.1708 33.3166 54.1848 33.8668 53.4761C34.4272 52.7994 35.2073 52.3407 36.0711 52.1798C36.9349 52.019 37.8278 52.1662 38.5943 52.5958C39.4747 53.1196 40.0777 53.9779 40.87 54.6118C41.6624 55.2456 42.8376 55.6374 43.6784 55.052C44.4047 54.559 44.5587 53.573 44.5852 52.6926C44.6227 51.7617 44.4637 50.8333 44.1186 49.9679C43.4099 48.3436 41.8032 47.252 40.1085 46.7414C38.4138 46.2308 36.6091 46.222 34.8264 46.2132" fill="black"/>
<path d="M35.2798 45.3769C31.1993 45.4341 28.1181 50.4169 29.5574 54.2553C29.9976 55.4261 31.1113 56.3813 32.423 55.9456C33.3034 55.6506 33.6115 54.9287 34.1573 54.2597C35.8124 52.2392 37.7624 52.6046 39.5495 54.2597C40.7028 55.3161 42.1334 56.5354 43.7796 55.7651C45.4259 54.9948 45.4303 52.8379 45.1926 51.3325C44.4003 46.3144 39.0609 45.6101 34.8748 45.5837C34.6997 45.5837 34.5318 45.6533 34.4079 45.7771C34.2841 45.9009 34.2145 46.0689 34.2145 46.244C34.2145 46.4191 34.2841 46.5871 34.4079 46.7109C34.5318 46.8347 34.6997 46.9043 34.8748 46.9043C38.0661 46.9043 42.644 47.0715 43.7488 50.8263C43.9293 51.4425 44.189 52.9171 43.8721 53.6126C42.8685 55.8751 41.231 54.0088 40.4827 53.3265C39.7344 52.6442 39.0565 51.9443 38.0045 51.6406C37.176 51.4132 36.2995 51.4292 35.4798 51.6868C34.6602 51.9444 33.9321 52.4327 33.3826 53.0932C32.5771 54.0308 33.1405 54.2949 31.6747 53.5598C30.2837 52.8599 30.5302 52.3713 30.8692 50.8703C31.371 48.643 32.8456 46.7502 35.2974 46.715C35.4725 46.715 35.6404 46.6454 35.7643 46.5216C35.8881 46.3978 35.9577 46.2298 35.9577 46.0547C35.9577 45.8796 35.8881 45.7117 35.7643 45.5878C35.6404 45.464 35.4725 45.3944 35.2974 45.3944L35.2798 45.3769Z" fill="black"/>
<path d="M34.3465 55.6242C34.8762 55.96 35.4937 56.131 36.1206 56.1153C36.7476 56.0997 37.3558 55.898 37.868 55.5361C38.5458 55.0387 37.868 53.8943 37.2033 54.3961C36.8923 54.6404 36.5122 54.7805 36.1171 54.7963C35.7219 54.8121 35.3319 54.7028 35.0024 54.4841C34.2849 54.0439 33.6202 55.1664 34.3377 55.6242H34.3465Z" fill="black"/>
<path d="M64.6528 35.4375C64.4459 34.9137 65.1722 35.2042 65.3395 35.4375C65.7445 36.0054 65.3395 36.9385 65.1458 37.5108C64.8685 38.3163 66.1406 38.6596 66.4179 37.8629C66.8581 36.5424 67.1486 34.7552 65.6212 34.0201C64.4459 33.4567 62.8173 34.3635 63.3763 35.7809C63.6844 36.5644 64.961 36.221 64.6484 35.4287L64.6528 35.4375Z" fill="black"/>
<path d="M51.7116 66.6947C47.9281 67.4864 44.3834 69.1554 41.363 71.5675C40.6983 72.0957 41.6359 73.0245 42.2962 72.5007C45.1512 70.2466 48.4951 68.6937 52.0593 67.9669C52.8913 67.7908 52.5391 66.5187 51.7072 66.6947H51.7116Z" fill="black"/>
<path d="M69.7017 66.0433C71.1235 67.201 72.6685 67.5135 74.4513 67.782C76.9459 68.2184 79.352 69.0616 81.5734 70.2779C83.6554 71.3387 85.8211 72.69 86.5298 75.0626C87.1284 77.0654 86.9391 79.1078 87.7975 81.0534C88.1408 81.8282 89.2765 81.1591 88.9376 80.3888C88.0264 78.3287 88.3917 75.987 87.5202 73.9269C86.8159 72.2543 85.4381 71.035 83.9327 70.0842C82.1638 68.9944 80.2894 68.0859 78.338 67.3727C75.9083 66.4615 72.6993 66.796 70.6305 65.1145C69.9746 64.5819 69.0371 65.5107 69.6973 66.0477L69.7017 66.0433Z" fill="black"/>
<path d="M19.2264 68.5302C18.4057 66.9561 17.9173 65.2301 17.7915 63.4594C17.7298 62.7375 17.4525 57.4289 19.2749 58.3181C20.0364 58.6922 20.7054 57.5522 19.9395 57.178C17.7606 56.1128 16.6866 58.2609 16.4885 60.1404C16.1119 63.2503 16.6681 66.4018 18.0864 69.1949C18.4869 69.9432 19.627 69.2786 19.2264 68.5302V68.5302Z" fill="black"/>
<path d="M19.4332 62.8608C20.1375 66.3602 23.0383 69.7232 25.0587 72.5447C27.3564 75.7404 29.8126 78.8173 32.1676 81.969C32.6694 82.6425 33.8183 81.969 33.3076 81.3043C31.0583 78.2935 28.7166 75.3531 26.5069 72.3115C24.46 69.4855 21.4096 66.0389 20.7009 62.5175C20.5336 61.6855 19.2615 62.0377 19.4288 62.8696L19.4332 62.8608Z" fill="black"/>
<path d="M18.2799 68.0857C13.6404 69.8464 8.89969 71.7172 5.2374 75.1946C4.2778 76.1058 3.35783 77.0698 2.44226 78.025C1.76438 78.7337 0.36461 79.7857 0.0696898 80.7629C-0.22523 81.7401 0.457047 82.2683 1.34181 82.5632C2.51709 82.9594 3.39305 82.3872 4.37024 81.7093C5.54993 80.895 6.57114 79.8914 7.79484 79.1563C10.5548 77.4968 13.2927 75.8021 16.079 74.1822C16.2235 74.0908 16.3269 73.9469 16.3675 73.7808C16.408 73.6147 16.3825 73.4394 16.2964 73.2917C16.2103 73.144 16.0703 73.0354 15.9057 72.9889C15.7412 72.9424 15.5651 72.9614 15.4143 73.0422C12.2715 74.8821 8.75003 76.6296 5.86685 78.8701C4.89846 79.6228 3.94767 80.6705 2.7856 81.1459C2.45106 81.2867 1.83041 81.6345 1.46506 81.2911C1.25817 81.093 1.8128 80.6133 2.15174 80.2391C3.56818 78.6223 5.07606 77.088 6.66798 75.6436C10.0882 72.624 14.4063 70.9645 18.61 69.3579C19.3936 69.0585 19.0502 67.7776 18.2579 68.0857H18.2799Z" fill="black"/>
<path d="M9.95605 76.2158C8.63551 76.8673 9.07569 78.6544 10.1893 79.319C12.1878 80.5295 15.7972 79.319 17.7957 78.7072C19.2923 78.267 22.6024 77.7476 22.532 75.5687C22.4527 73.1213 18.5704 73.9224 17.109 73.9136C16.9339 73.9136 16.7659 73.9832 16.6421 74.107C16.5183 74.2309 16.4487 74.3988 16.4487 74.5739C16.4487 74.749 16.5183 74.917 16.6421 75.0408C16.7659 75.1646 16.9339 75.2342 17.109 75.2342C17.4743 75.2342 20.4015 75.0141 20.5292 75.2342C21.2907 76.6075 18.0554 77.237 17.4479 77.4351C16.4011 77.7618 15.3334 78.0177 14.2522 78.201C13.5027 78.3221 12.7445 78.381 11.9853 78.3771C11.2135 78.5238 10.7616 78.1819 10.6295 77.3515C11.391 76.9729 10.722 75.8328 9.96486 76.2114L9.95605 76.2158Z" fill="black"/>
<path d="M11.4835 79.1166C11.2689 79.3558 11.1048 79.6359 11.001 79.94C10.8971 80.2441 10.8557 80.5661 10.8791 80.8866C10.9025 81.2071 10.9903 81.5196 11.1373 81.8054C11.2843 82.0912 11.4873 82.3445 11.7344 82.55C13.4115 84.073 16.3651 82.9549 18.183 82.3915C19.4816 81.9865 23.5004 81.181 23.7425 79.4819C23.9582 77.9501 21.7617 77.3206 20.6392 77.2106C19.7941 77.127 19.7985 78.4475 20.6392 78.5311C24.7989 78.9449 19.2263 80.6704 18.2051 81.0005C17.4612 81.2426 16.7084 81.4407 15.9469 81.6476C15.6065 81.7386 15.2617 81.8178 14.9125 81.8853C13.3836 82.3959 12.5517 81.7855 12.4167 80.0541C12.9669 79.4115 12.0381 78.4739 11.4835 79.121V79.1166Z" fill="black"/>
<path d="M22.5056 88.4087C24.1563 90.8253 27.9551 88.0302 29.5221 86.8065C30.649 85.9261 35.3765 82.5764 33.4441 80.8729C32.8102 80.3138 31.8727 81.2426 32.5109 81.806C32.8234 82.0833 29.6938 84.9533 29.368 85.235C28.6681 85.8293 24.5965 89.1394 23.6457 87.7485C23.1703 87.0486 22.0258 87.7088 22.5056 88.4131V88.4087Z" fill="black"/>
<path d="M21.9556 88.5585C23.1881 90.0727 24.4118 91.6001 25.6575 93.1055C26.3309 93.9155 26.9164 94.7826 28.0256 94.9587C30.3102 95.3196 33.0569 93.396 34.756 92.1151C36.2526 90.9883 38.0881 89.6237 37.9165 87.5285C37.7008 84.9182 34.8132 82.4972 33.1229 80.7849C32.5243 80.1775 31.5911 81.115 32.1897 81.7181C33.5103 83.065 35.0773 84.5088 36.0413 86.1595C37.5423 88.7301 34.7824 90.5613 32.9336 91.7894C30.7724 93.2068 28.7959 94.2368 26.5906 92.1635C25.2085 90.843 24.086 89.0823 22.8887 87.6165C22.3517 86.9562 21.4229 87.8982 21.9556 88.5497V88.5585Z" fill="black"/>
<path d="M25.6968 92.4143C30.5388 92.1855 34.1307 88.3955 35.953 84.1654C36.2876 83.3951 35.1475 82.7216 34.813 83.5007C33.1887 87.2642 30.059 90.8913 25.7012 91.0982C24.8561 91.1378 24.8517 92.4584 25.7012 92.4188L25.6968 92.4143Z" fill="black"/>
<path d="M14.217 83.2234C14.9741 85.3143 16.7261 86.7977 19.059 86.6965C20.4544 86.6392 21.3788 85.8777 22.5804 85.2483C23.6809 84.6672 24.8826 84.4912 25.7013 83.4875C26.2339 82.8361 25.3052 81.8941 24.7681 82.5544C24.0154 83.4787 22.3736 83.8749 21.3171 84.4779C19.0722 85.7237 16.4752 85.5564 15.5244 82.8669C15.2382 82.0746 13.9617 82.4267 14.2522 83.219L14.217 83.2234Z" fill="black"/>
<path d="M21.3348 85.5785C21.7357 86.5267 22.2019 87.446 22.7302 88.3296C22.8216 88.4741 22.9655 88.5775 23.1316 88.6181C23.2977 88.6586 23.473 88.6331 23.6208 88.547C23.7685 88.4609 23.877 88.3209 23.9235 88.1563C23.9701 87.9918 23.951 87.8157 23.8703 87.6649C23.342 86.7813 22.8758 85.8621 22.4749 84.9138C22.3859 84.7636 22.2413 84.6545 22.0724 84.61C21.9036 84.5655 21.724 84.5893 21.5725 84.6761C21.4249 84.7675 21.3179 84.912 21.2737 85.0799C21.2295 85.2478 21.2514 85.4262 21.3348 85.5785V85.5785Z" fill="black"/>
<path d="M41.6094 70.6431C39.6418 71.7128 37.7139 72.8881 36.3537 74.7104C34.7779 76.8145 34.1528 79.4159 33.5762 81.9337C33.3869 82.7613 34.659 83.1134 34.8483 82.2859C35.3457 80.129 35.8343 77.8357 37.08 75.9693C38.3257 74.103 40.2845 72.8881 42.2741 71.7876C43.0224 71.3826 42.3533 70.2426 41.6094 70.6475V70.6431Z" fill="black"/>
<path d="M31.0892 27.3779C31.2643 27.3779 31.4322 27.3083 31.5561 27.1845C31.6799 27.0606 31.7494 26.8927 31.7494 26.7176C31.7494 26.5425 31.6799 26.3745 31.5561 26.2507C31.4322 26.1269 31.2643 26.0573 31.0892 26.0573C30.9141 26.0573 30.7461 26.1269 30.6223 26.2507C30.4985 26.3745 30.4289 26.5425 30.4289 26.7176C30.4289 26.8927 30.4985 27.0606 30.6223 27.1845C30.7461 27.3083 30.9141 27.3779 31.0892 27.3779Z" fill="#FF0001"/>
</svg>
