<svg width="16" height="16" viewBox="0 0 16 16" fill="none" xmlns="http://www.w3.org/2000/svg" id="follow">
<g clip-path="url(#clip0_2006_715)">
<path d="M5.6 2C6.05963 2 6.51475 2.09053 6.93939 2.26642C7.36403 2.44231 7.74987 2.70012 8.07487 3.02513C8.39988 3.35013 8.65769 3.73597 8.83358 4.16061C9.00947 4.58525 9.1 5.04037 9.1 5.5C9.1 5.95963 9.00947 6.41475 8.83358 6.83939C8.65769 7.26403 8.39988 7.64987 8.07487 7.97487C7.74987 8.29988 7.36403 8.55769 6.93939 8.73358C6.51475 8.90947 6.05963 9 5.6 9C4.67174 9 3.7815 8.63125 3.12513 7.97487C2.46875 7.3185 2.1 6.42826 2.1 5.5C2.1 4.57174 2.46875 3.6815 3.12513 3.02513C3.7815 2.36875 4.67174 2 5.6 2ZM9.61 9.302L8.05 8.912C6.41 10.092 4.424 9.828 3.15 8.912L1.59 9.302C1.13566 9.41574 0.732385 9.67811 0.444287 10.0474C0.156189 10.4167 -0.000193771 10.8716 1.8019e-07 11.34V12.15C1.8019e-07 12.73 0.47 13.2 1.05 13.2H10.15C10.73 13.2 11.2 12.73 11.2 12.15V11.34C11.2002 10.8716 11.0438 10.4167 10.7557 10.0474C10.4676 9.67811 10.0643 9.41574 9.61 9.302ZM15.7 6.822H13.978V5.1C13.978 5.02043 13.9464 4.94413 13.8901 4.88787C13.8339 4.83161 13.7576 4.8 13.678 4.8H12.722C12.6424 4.8 12.5661 4.83161 12.5099 4.88787C12.4536 4.94413 12.422 5.02043 12.422 5.1V6.822H10.7C10.6204 6.822 10.5441 6.85361 10.4879 6.90987C10.4316 6.96613 10.4 7.04244 10.4 7.122V8.078C10.4 8.1174 10.4078 8.15641 10.4228 8.19281C10.4379 8.2292 10.46 8.26227 10.4879 8.29013C10.5157 8.31799 10.5488 8.34009 10.5852 8.35516C10.6216 8.37024 10.6606 8.378 10.7 8.378H12.422V10.1C12.422 10.1394 12.4298 10.1784 12.4448 10.2148C12.4599 10.2512 12.482 10.2843 12.5099 10.3121C12.5377 10.34 12.5708 10.3621 12.6072 10.3772C12.6436 10.3922 12.6826 10.4 12.722 10.4H13.678C13.7174 10.4 13.7564 10.3922 13.7928 10.3772C13.8292 10.3621 13.8623 10.34 13.8901 10.3121C13.918 10.2843 13.9401 10.2512 13.9552 10.2148C13.9702 10.1784 13.978 10.1394 13.978 10.1V8.378H15.7C15.7394 8.378 15.7784 8.37024 15.8148 8.35516C15.8512 8.34009 15.8843 8.31799 15.9121 8.29013C15.94 8.26227 15.9621 8.2292 15.9772 8.19281C15.9922 8.15641 16 8.1174 16 8.078V7.122C16 7.04244 15.9684 6.96613 15.9121 6.90987C15.8559 6.85361 15.7796 6.822 15.7 6.822Z" fill="white"/>
</g>
<defs>
<clipPath id="clip0_2006_715">
<rect width="16" height="16" fill="white"/>
</clipPath>
</defs>
</svg>
