<svg width="16" height="16" viewBox="0 0 16 16" fill="none" xmlns="http://www.w3.org/2000/svg" id="unfollow">
<g clip-path="url(#clip0_2006_733)">
<path fill-rule="evenodd" clip-rule="evenodd" d="M6.93939 2.26642C6.51475 2.09053 6.05963 2 5.6 2C4.67174 2 3.7815 2.36875 3.12513 3.02513C2.46875 3.6815 2.1 4.57174 2.1 5.5C2.1 6.42826 2.46875 7.3185 3.12513 7.97487C3.7815 8.63125 4.67174 9 5.6 9C6.05963 9 6.51475 8.90947 6.93939 8.73358C7.36403 8.55769 7.74987 8.29988 8.07487 7.97487C8.39988 7.64987 8.65769 7.26403 8.83358 6.83939C9.00947 6.41475 9.1 5.95963 9.1 5.5C9.1 5.04037 9.00947 4.58525 8.83358 4.16061C8.65769 3.73597 8.39988 3.35013 8.07487 3.02513C7.74987 2.70012 7.36403 2.44231 6.93939 2.26642ZM8.05 8.912L9.61 9.302C10.0643 9.41574 10.4676 9.67811 10.7557 10.0474C11.0438 10.4167 11.2002 10.8716 11.2 11.34V12.15C11.2 12.73 10.73 13.2 10.15 13.2H1.05C0.470001 13.2 1.79522e-07 12.73 1.79522e-07 12.15V11.34C-0.000193411 10.8716 0.15619 10.4167 0.444287 10.0474C0.732385 9.67811 1.13566 9.41574 1.59 9.302L3.15 8.912C4.424 9.828 6.41 10.092 8.05 8.912ZM10.7063 6.82422C10.5406 6.82422 10.4062 6.95853 10.4062 7.12422V8.075C10.4062 8.24069 10.5406 8.375 10.7063 8.375H15.7C15.8657 8.375 16 8.24069 16 8.075V7.12422C16 6.95853 15.8657 6.82422 15.7 6.82422H10.7063Z" fill="currentColor"/>
</g>
<defs>
<clipPath id="clip0_2006_733">
<rect width="16" height="16" fill="white"/>
</clipPath>
</defs>
</svg>
