<svg fill="none" height="15" viewBox="0 0 15 15" width="15" xmlns="http://www.w3.org/2000/svg"><path d="m7.49987 15c4.13543 0 7.49983-3.3647 7.49983-7.50036 0-4.13531-3.3644-7.49964-7.49983-7.49964-4.13545 0-7.49987 3.36433-7.49987 7.49964 0 4.13566 3.36446 7.50036 7.49987 7.50036zm0-1.7469c-1.18803 0-2.3162-.3557-3.28137-1.0318.39361-.653 1.59002-2.28927 4.15273-3.26682.64599 1.75132.97499 3.24582 1.10851 3.94692-.63213.2335-1.29674.3517-1.97987.3517zm3.65333-1.3153c-.145-.7085-.4376-1.95496-.9454-3.4236.2568-.02557.5198-.03848.7864-.03848.9308 0 1.7075.15571 2.1176.25805-.2739 1.2515-.9684 2.38443-1.9586 3.20403zm1.0543-7.71511c.5763.82504.9277 1.79369 1.0148 2.79625-.5285-.08677-1.4338-.20414-2.4643-.20414-.4084 0-.80379.01876-1.17917.0558-.00985-.02352-.01981-.04714-.02985-.07085-.07834-.18314-.16238-.37104-.251-.56152 1.53112-.68684 2.45902-1.52807 2.90952-2.01554zm-4.70763-2.45758c1.2895 0 2.53593.43405 3.54603 1.22884-.3483.38933-1.14184 1.13056-2.53853 1.70783-.69632-1.24526-1.41087-2.30101-1.81944-2.87924.2679-.03819.53947-.05743.81194-.05743zm-2.70624.67899c.33695.47452 1.08017 1.55169 1.83049 2.84158-2.0182.48661-3.7916.59223-4.63811.6128.43147-1.47003 1.44979-2.72563 2.80762-3.45438zm2.69267 4.43603c.06538.13214.12804.26238.18804.39018-2.54924.87613-4.13183 2.83009-4.74349 3.71559-.72636-.9523-1.13688-2.10528-1.1726-3.30536.88756-.00928 3.25404-.10523 5.72805-.80041z" fill="#fff"/></svg>