<svg width="56" height="13" viewBox="0 0 56 13" fill="none" xmlns="http://www.w3.org/2000/svg">
<path d="M0.818739 6.9908C0.366562 6.53862 0.366562 5.8055 0.818739 5.35332L5.35329 0.818767C5.80547 0.36659 6.53859 0.36659 6.99077 0.818767L11.5253 5.35332C11.9775 5.8055 11.9775 6.53862 11.5253 6.9908L6.99077 11.5253C6.53859 11.9775 5.80547 11.9775 5.35329 11.5253L0.818739 6.9908Z" fill="url(#paint0_linear)"/>
<mask id="mask0" mask-type="alpha" maskUnits="userSpaceOnUse" x="0" y="0" width="12" height="12">
<path d="M0.818739 7.01753C0.366562 6.56535 0.366562 5.83223 0.818739 5.38005L5.35329 0.845501C5.80547 0.393324 6.53859 0.393324 6.99077 0.845501L11.5253 5.38005C11.9775 5.83223 11.9775 6.56535 11.5253 7.01753L6.99077 11.5521C6.53859 12.0043 5.80547 12.0043 5.35329 11.5521L0.818739 7.01753Z" fill="url(#paint1_linear)"/>
</mask>
<g mask="url(#mask0)">
<path d="M2.67183 5.59363C1.82569 5.59363 1.15769 5.77176 0.489686 6.17256C-0.0595602 6.45461 -1.17587 7.0187 -1.24712 7.0187C-1.31837 7.0187 3.0281 12.0065 5.21024 14.5003L13.4935 7.4195L11.8012 5.86083C11.1777 6.0835 9.97188 6.90874 8.50572 7.0187C6.72438 7.1523 4.67584 5.59363 2.67183 5.59363Z" fill="url(#paint2_linear)"/>
</g>
<path d="M16.9526 4.18862V10.9724H19.3977V4.18862H16.9526ZM16.7998 1.36585C16.7998 2.12466 17.4111 2.73171 18.1752 2.73171C18.9393 2.73171 19.5505 2.12466 19.5505 1.36585C19.5505 0.607046 18.9393 0 18.1752 0C17.4111 0 16.7998 0.607046 16.7998 1.36585Z" fill="white"/>
<path d="M25.1522 6.17669V4.18862H23.7615V1.95772H21.3164V4.18862H20.5371V6.17669H21.3164V10.9724H23.7615V6.17669H25.1522Z" fill="white"/>
<path d="M26.071 10.9724H28.5161V7.61843C28.5161 7.1935 28.5161 6.54092 28.944 6.13117C29.1427 5.93387 29.3566 5.88835 29.6164 5.88835C29.8609 5.88835 30.136 5.93388 30.3499 6.16152C30.625 6.44986 30.6708 6.96585 30.6708 7.61843V10.9724H33.1159V7.49702C33.1159 7.16314 33.1465 6.60163 33.5591 6.20705C33.7731 6.00976 34.0023 5.93387 34.2774 5.93387C34.5983 5.93387 34.7817 6.04011 34.9192 6.16152C35.1943 6.41951 35.2707 6.90515 35.2707 7.61843V10.9724H37.7158V6.5561C37.7158 6.08564 37.6852 5.2813 37.0739 4.68943C36.5085 4.14309 35.6833 4.06721 35.179 4.06721C34.7205 4.06721 34.2468 4.12791 33.7578 4.40108C33.4521 4.56802 33.1007 4.85637 32.8256 5.342C32.6575 5.00813 32.3824 4.62873 31.8781 4.37073C31.5113 4.17344 31.0529 4.06721 30.5639 4.06721C29.8915 4.06721 29.0968 4.31003 28.5161 5.00813V4.18862H26.071V10.9724Z" fill="white"/>
<path d="M46.6564 7.77019C46.6564 7.01138 46.5341 5.82764 45.5714 4.91707C44.7614 4.15827 43.7375 3.99133 42.9429 3.99133C41.5981 3.99133 40.7117 4.43144 40.1463 4.97778C39.5503 5.55447 39.1224 6.46504 39.1224 7.60325C39.1224 8.89322 39.6879 9.72791 40.131 10.168C40.9715 11.0027 42.0565 11.2 42.9582 11.2C44.4405 11.2 45.2352 10.7447 45.7395 10.2591C46.2438 9.77344 46.4577 9.24228 46.5647 8.86287H44.2266C44.1196 9.07534 43.9515 9.2271 43.7987 9.31816C43.493 9.48509 43.0651 9.50027 43.004 9.50027C42.4539 9.50027 42.1482 9.31816 41.9954 9.1664C41.7051 8.87805 41.5675 8.39241 41.5675 8.02818H46.6564V7.77019ZM41.6439 6.63198C41.6898 6.32845 41.8426 6.08564 42.0107 5.90352C42.2705 5.64553 42.5914 5.53929 43.004 5.53929C43.2485 5.53929 43.6917 5.58482 44.0126 5.90352C44.196 6.08564 44.3488 6.37398 44.4099 6.63198H41.6439Z" fill="white"/>
<path d="M51.9043 6.02493C52.2863 6.02493 52.7142 6.20705 52.9893 6.46504C53.2949 6.76856 53.463 7.20867 53.463 7.5729C53.463 7.96748 53.2949 8.36206 52.9893 8.65041C52.6989 8.93875 52.3016 9.10569 51.9043 9.10569C51.4917 9.10569 51.0943 8.93875 50.804 8.65041C50.5289 8.37724 50.3302 7.98266 50.3302 7.5729C50.3302 7.17832 50.4983 6.75339 50.804 6.46504C51.079 6.20705 51.5069 6.02493 51.9043 6.02493ZM55.9998 7.5729C55.9998 6.35881 55.4497 5.56965 54.9454 5.08401C54.3799 4.55285 53.4019 3.96098 51.889 3.96098C50.4066 3.96098 49.4133 4.53767 48.8479 5.08401C48.3436 5.56965 47.7934 6.35881 47.7934 7.5729C47.7934 8.48347 48.0991 9.34851 48.8479 10.077C49.7954 11.0027 50.8957 11.2 51.889 11.2C52.9893 11.2 54.0437 10.9572 54.9454 10.077C55.6942 9.34851 55.9998 8.48347 55.9998 7.5729Z" fill="white"/>
<defs>
<linearGradient id="paint0_linear" x1="6.15466" y1="10.3488" x2="6.15466" y2="2.52199" gradientUnits="userSpaceOnUse">
<stop stop-color="#009EFD"/>
<stop offset="1" stop-color="#2AF598"/>
</linearGradient>
<linearGradient id="paint1_linear" x1="6.15466" y1="10.3756" x2="6.15466" y2="2.54872" gradientUnits="userSpaceOnUse">
<stop stop-color="#009EFD"/>
<stop offset="1" stop-color="#2AF598"/>
</linearGradient>
<linearGradient id="paint2_linear" x1="11.9793" y1="11.0712" x2="-1.91512" y2="7.0187" gradientUnits="userSpaceOnUse">
<stop stop-color="#00C1FF"/>
<stop offset="1" stop-color="#0024FF"/>
</linearGradient>
</defs>
</svg>
