<svg width="24" height="24" viewBox="0 0 24 24" fill="none" xmlns="http://www.w3.org/2000/svg" id="dashboard">
<path fill-rule="evenodd" clip-rule="evenodd" d="M3.25 3.2501V9.44252H9.44243V3.2501H3.25ZM11.099 2.44007C10.8914 1.89073 10.3607 1.50009 9.73863 1.50009H2.95379C2.15088 1.50009 1.5 2.15097 1.5 2.95388V9.73872C1.5 10.3602 1.88994 10.8906 2.4385 11.0985C2.59866 11.1593 2.77234 11.1925 2.95379 11.1925H9.73863C9.92007 11.1925 10.0938 11.1593 10.2539 11.0985C10.6428 10.9511 10.952 10.6416 11.099 10.2525C11.1594 10.0928 11.1924 9.91959 11.1924 9.73872V2.95388C11.1924 2.95391 11.1924 2.95385 11.1924 2.95388C11.1924 2.77302 11.1594 2.59979 11.099 2.44007ZM10.2539 12.9013C10.0938 12.8406 9.92007 12.8073 9.73863 12.8073H2.95379C2.77234 12.8073 2.59866 12.8406 2.4385 12.9013C1.88994 13.1093 1.5 13.6397 1.5 14.2611V21.0459C1.5 21.8488 2.15088 22.4997 2.95379 22.4997H9.73863C10.3606 22.4997 10.8914 22.1091 11.099 21.5598C11.1593 21.4001 11.1924 21.2269 11.1924 21.0462C11.1924 21.046 11.1924 21.0463 11.1924 21.0462V14.2614C11.1924 14.0805 11.1594 13.9071 11.0991 13.7474C10.952 13.3583 10.6428 13.0488 10.2539 12.9013ZM12.9014 21.5599C13.109 22.1092 13.6398 22.5 14.2618 22.5H21.0467C21.8496 22.5 22.5005 21.8491 22.5005 21.0462V14.2614C22.5005 13.6397 22.1101 13.1091 21.5613 12.9013C21.4014 12.8407 21.2279 12.8076 21.0467 12.8076H14.2618C14.0806 12.8076 13.9072 12.8407 13.7472 12.9013C13.358 13.0487 13.0486 13.3582 12.9015 13.7475C12.8411 13.9072 12.8081 14.0803 12.8081 14.2611C12.8081 14.261 12.8081 14.2612 12.8081 14.2611V21.0459C12.8081 21.2268 12.8411 21.4002 12.9014 21.5599ZM13.7472 11.0987C13.9072 11.1593 14.0806 11.1924 14.2618 11.1924H21.0467C21.2279 11.1924 21.4014 11.1593 21.5613 11.0987C22.1101 10.8909 22.5005 10.3603 22.5005 9.73863V2.95379C22.5005 2.15088 21.8496 1.5 21.0467 1.5H14.2618C13.6398 1.5 13.109 1.89067 12.9014 2.44003C12.8411 2.59977 12.8081 2.77292 12.8081 2.95379V9.73863C12.8081 9.7386 12.8081 9.73866 12.8081 9.73863C12.8081 9.91949 12.8411 10.0927 12.9015 10.2524C13.0486 10.6417 13.358 10.9513 13.7472 11.0987ZM14.5581 3.25V9.44243H20.7504V3.25H14.5581ZM3.25 14.5573V20.7498H9.44243V14.5573H3.25ZM14.5581 14.5576V20.7499H20.7504V14.5576H14.5581Z" fill="currentColor"/>
</svg>
