<svg width="24" height="24" viewBox="0 0 24 24" fill="none" xmlns="http://www.w3.org/2000/svg" id="settings">
<path fill-rule="evenodd" clip-rule="evenodd" d="M13.3854 20.6475C12.4799 20.784 11.5243 20.784 10.6188 20.6475V19.1546C10.6188 18.7704 10.3549 18.4314 9.97266 18.318C9.00345 18.031 8.0843 17.5174 7.32441 16.8339C7.02864 16.5723 6.59637 16.5246 6.25055 16.7158L4.89456 17.4636C4.617 17.1279 4.36218 16.7745 4.13922 16.4078C4.13695 16.4028 4.13354 16.3976 4.13012 16.3925C4.12858 16.3902 4.12704 16.3878 4.1256 16.3855C4.12386 16.3827 4.12227 16.3799 4.12103 16.3772L3.98907 16.1549C3.80706 15.8254 3.64779 15.4925 3.51129 15.1595L4.86726 14.4118C5.21309 14.2206 5.38599 13.8347 5.29955 13.4606C5.18579 12.9666 5.12663 12.4748 5.12663 11.9992C5.12663 11.5131 5.18579 11.0091 5.30864 10.5011C5.39964 10.1275 5.22674 9.74069 4.88091 9.54729L3.53405 8.79036C3.7206 8.33052 3.94811 7.88643 4.22114 7.46332C4.43499 7.12556 4.6716 6.80047 4.93097 6.49245L6.27785 7.24894C6.62367 7.44232 7.06049 7.39683 7.35626 7.13693C8.1207 6.45789 9.00345 5.96784 9.97266 5.6804C10.3549 5.56707 10.6188 5.22798 10.6188 4.84383V3.3514C11.5243 3.21489 12.4799 3.21489 13.3854 3.3514V4.84383C13.3854 5.22798 13.6447 5.56707 14.0269 5.6804C14.9961 5.96784 15.9153 6.48151 16.6797 7.16493C16.971 7.42657 17.4078 7.47428 17.7536 7.28307L19.1051 6.53532C19.3872 6.87092 19.6374 7.22443 19.8603 7.59109C19.8665 7.60178 19.8769 7.61831 19.8857 7.63248C19.8899 7.63919 19.8938 7.64537 19.8968 7.65015C19.8992 7.65332 19.9052 7.66406 19.911 7.67456C19.9165 7.6844 19.9219 7.69401 19.9241 7.69698C20.1425 8.06449 20.3336 8.4469 20.4884 8.83937L19.1369 9.58711C18.7911 9.77832 18.6137 10.1642 18.7001 10.5383C18.8184 11.0323 18.8775 11.5241 18.8775 11.9992C18.8775 12.4858 18.8138 12.9898 18.6909 13.4978C18.6 13.8714 18.7775 14.2582 19.1187 14.4516L20.4701 15.2085C20.3246 15.5647 20.1516 15.9112 19.9605 16.2428C19.8968 16.343 19.8377 16.4428 19.7831 16.5355C19.5692 16.8738 19.3326 17.1984 19.0686 17.5065L17.7218 16.7499C17.376 16.5566 16.9391 16.602 16.6479 16.8619C15.8789 17.541 14.9961 18.031 14.0269 18.318C13.6447 18.4314 13.3854 18.7704 13.3854 19.1546V20.6475ZM9.49028 22.2147C10.3048 22.4042 11.1466 22.5 12.002 22.5C12.8529 22.5 13.6993 22.4042 14.5092 22.2147C14.9187 22.1193 15.2054 21.7685 15.2054 21.3647V19.7737C15.9789 19.4788 16.6979 19.0772 17.3622 18.5745L18.8001 19.3809C19.1642 19.5852 19.6283 19.5222 19.9194 19.2282C20.4564 18.6834 20.9342 18.0822 21.3392 17.4387C21.4074 17.334 21.4712 17.2256 21.5394 17.1083C21.9216 16.459 22.2264 15.7725 22.4448 15.0668C22.5677 14.6796 22.3949 14.263 22.0308 14.0591L20.5929 13.2523C20.6612 12.8301 20.6976 12.411 20.6976 11.9992C20.6976 11.6033 20.6657 11.2003 20.6021 10.7951L22.0445 9.99884C22.4085 9.79713 22.5813 9.38192 22.4631 8.99384C22.2356 8.24216 21.9125 7.51365 21.4985 6.81798C21.4757 6.77598 21.4484 6.73355 21.4211 6.69242C21.0161 6.02387 20.5247 5.39382 19.965 4.8189C19.6737 4.52313 19.2143 4.45662 18.8456 4.65919L17.4032 5.45682C16.7343 4.94403 15.9881 4.5275 15.2054 4.22604V2.6343C15.2054 2.23046 14.9187 1.87956 14.5092 1.78418C12.8893 1.40527 11.1147 1.40527 9.49028 1.78418C9.08531 1.87956 8.79864 2.23046 8.79864 2.6343V4.22517C8.02509 4.52007 7.3016 4.92173 6.64181 5.42444L5.19938 4.61763C4.83536 4.41286 4.37579 4.47675 4.08456 4.77033C3.54309 5.31594 3.06531 5.91666 2.66488 6.55284C2.19166 7.29446 1.81853 8.09471 1.55462 8.93082C1.43631 9.31848 1.60467 9.73589 1.96869 9.93977L3.40658 10.7466C3.33833 11.1688 3.30647 11.5879 3.30647 11.9992C3.30647 12.3956 3.33833 12.7986 3.39747 13.2038L1.95959 14.0001C1.59557 14.2013 1.41811 14.6157 1.53642 15.0038C1.73663 15.6662 2.0233 16.3312 2.38732 16.9889L2.51927 17.2036C2.53748 17.2448 2.56023 17.279 2.58298 17.3105C2.98795 17.9777 3.47939 18.6065 4.03907 19.1801C4.32573 19.4759 4.78986 19.5418 5.15388 19.3396L6.59631 18.5421C7.26975 19.0545 8.01144 19.4713 8.79864 19.7729V21.3647C8.79864 21.7685 9.08531 22.1193 9.49028 22.2147ZM9.74511 11.9991C9.74511 10.8033 10.7553 9.82983 12.002 9.82983C13.2443 9.82983 14.259 10.8033 14.259 11.9991C14.259 13.1953 13.2443 14.1688 12.002 14.1688C10.7553 14.1688 9.74511 13.1953 9.74511 11.9991ZM8.38001 11.9992C8.38001 13.9195 10.0045 15.4815 12.002 15.4815C13.9996 15.4815 15.624 13.9195 15.624 11.9992C15.624 10.0793 13.9996 8.51733 12.002 8.51733C10.0045 8.51733 8.38001 10.0793 8.38001 11.9992Z" fill="currentColor"/>
</svg>
