<?xml version="1.0" encoding="utf-8"?> <svg xmlns="http://www.w3.org/2000/svg" xmlns:xlink="http://www.w3.org/1999/xlink"><symbol fill="none" viewBox="0 0 24 24" id="icon-dashboard" xmlns="http://www.w3.org/2000/svg"><path fill-rule="evenodd" clip-rule="evenodd" d="M3.25 3.25v6.193h6.192V3.25H3.25zm7.849-.81a1.454 1.454 0 00-1.36-.94H2.954C2.15 1.5 1.5 2.151 1.5 2.954v6.785a1.454 1.454 0 001.454 1.454h6.785a1.449 1.449 0 001.36-.94c.06-.16.093-.333.093-.514V2.954c0-.181-.033-.354-.093-.514zm-.845 10.461a1.45 1.45 0 00-.515-.094H2.954A1.451 1.451 0 001.5 14.261v6.785c0 .803.65 1.454 1.454 1.454h6.785a1.454 1.454 0 001.453-1.454v-6.785a1.453 1.453 0 00-.938-1.36zM12.9 21.56c.208.55.739.94 1.36.94h6.786c.803 0 1.453-.65 1.453-1.454v-6.785a1.455 1.455 0 00-1.453-1.453h-6.785a1.45 1.45 0 00-1.454 1.453v6.785c0 .18.033.354.093.514zm.846-10.461c.16.06.334.093.515.093h6.785A1.455 1.455 0 0022.5 9.738V2.955c0-.803-.651-1.454-1.454-1.454h-6.785a1.454 1.454 0 00-1.454 1.454v6.785a1.45 1.45 0 00.94 1.36zm.811-7.849v6.192h6.192V3.25h-6.192zM3.25 14.557v6.193h6.192v-6.193H3.25zm11.308 0v6.193h6.192v-6.192h-6.192z" fill="currentColor"/></symbol><symbol fill="none" viewBox="0 0 24 24" id="icon-profile" xmlns="http://www.w3.org/2000/svg"><path d="M20 22h-2v-2a3 3 0 00-3-3H9a3 3 0 00-3 3v2H4v-2a5 5 0 015-5h6a5 5 0 015 5v2zm-8-9A6 6 0 1112 .998 6 6 0 0112 13zm0-2a4 4 0 100-8 4 4 0 000 8z" fill="currentColor"/></symbol><symbol fill="none" viewBox="0 0 24 24" id="icon-edit-profile" xmlns="http://www.w3.org/2000/svg"><path d="M6.414 16L16.556 5.858l-1.414-1.414L5 14.586V16h1.414zm.829 2H3v-4.243L14.435 2.322a1 1 0 011.414 0l2.829 2.829a1 1 0 010 1.414L7.243 18zM3 20h18v2H3v-2z" fill="currentColor"/></symbol><symbol fill="none" viewBox="0 0 24 24" id="icon-templates" xmlns="http://www.w3.org/2000/svg"><path d="M20 3a1 1 0 011 1v1.757l-2 2V5H5v8.1l4-4 4.328 4.329-1.415 1.413L9 11.93l-4 3.999V19h10.533l.708.001 1.329-1.33L18.9 19h.1v-2.758l2-2V20a1 1 0 01-1 1H4c-.55 0-1-.45-1-1V4a1 1 0 011-1h16zm1.778 4.808l1.414 1.414L15.414 17l-1.416-.002.002-1.412 7.778-7.778zM15.5 7a1.5 1.5 0 11-.001 3.001A1.5 1.5 0 0115.5 7z" fill="currentColor"/></symbol><symbol fill="none" viewBox="0 0 24 24" id="icon-discover" xmlns="http://www.w3.org/2000/svg"><path d="M5.45 1.5h13.12a3.96 3.96 0 013.951 3.95v13.12a3.96 3.96 0 01-3.95 3.951H5.45a3.96 3.96 0 01-3.951-3.95V5.45A3.96 3.96 0 015.45 1.5zm-.016 14.613h3.028v1.893H5.434v-1.893zm5.625 0h7.528v1.893h-7.528v-1.893zm-5.625-5.05h3.028v1.894H5.434v-1.893zm5.625 0h7.528v1.894h-7.528v-1.893zM5.434 6.015h3.028v1.893H5.434V6.014zm5.625 0h7.528v1.893h-7.528V6.014zm7.511-2.621H5.45c-1.129 0-2.057.928-2.057 2.057v13.12c0 1.13.928 2.057 2.058 2.057h13.12c1.13 0 2.057-.927 2.057-2.057V5.45c0-1.13-.928-2.057-2.058-2.057z" fill="currentColor"/></symbol><symbol fill="none" viewBox="0 0 16 16" id="icon-settings_h" xmlns="http://www.w3.org/2000/svg"><path fill-rule="evenodd" clip-rule="evenodd" d="M8.924 13.765a6.264 6.264 0 01-1.845 0v-.995a.589.589 0 00-.43-.558 4.624 4.624 0 01-1.766-.99.626.626 0 00-.716-.078l-.904.498a6.003 6.003 0 01-.516-.724l-.088-.148a6.366 6.366 0 01-.318-.664l.904-.498a.576.576 0 00.288-.634 4.355 4.355 0 01-.115-.975c0-.324.04-.66.121-.998a.573.573 0 00-.285-.636l-.898-.505a5.927 5.927 0 01.931-1.532l.898.505a.63.63 0 00.72-.075 4.566 4.566 0 011.743-.971.589.589 0 00.431-.558v-.995a6.264 6.264 0 011.845 0v.995c0 .256.172.482.427.558a4.665 4.665 0 011.769.99.626.626 0 00.716.078l.9-.498a5.66 5.66 0 01.521.731l.008.012.009.016.009.015c.145.245.273.5.376.762l-.901.498a.578.578 0 00-.291.635c.079.329.118.657.118.973 0 .325-.043.66-.124 1-.061.249.057.506.285.635l.9.505a5.713 5.713 0 01-.934 1.532l-.897-.504a.624.624 0 00-.716.074 4.595 4.595 0 01-1.748.971.586.586 0 00-.427.558v.995zM6.327 14.81C6.87 14.936 7.43 15 8 15a7.36 7.36 0 001.672-.19.588.588 0 00.464-.567v-1.06a5.797 5.797 0 001.438-.8l.958.538a.626.626 0 00.747-.102 7.059 7.059 0 001.08-1.414 6.44 6.44 0 00.603-1.36.572.572 0 00-.276-.672l-.958-.538c.045-.282.07-.561.07-.836a5.18 5.18 0 00-.064-.802l.961-.531a.574.574 0 00.28-.67 6.541 6.541 0 00-.695-1.534 6.99 6.99 0 00-.971-1.25.627.627 0 00-.746-.106l-.962.532a5.905 5.905 0 00-1.465-.82V1.755a.588.588 0 00-.464-.567 7.482 7.482 0 00-3.346 0 .588.588 0 00-.461.567v1.06a5.742 5.742 0 00-1.438.8l-.962-.538a.622.622 0 00-.743.102 6.94 6.94 0 00-1.687 2.774.577.577 0 00.276.673l.959.537a5.233 5.233 0 00-.006 1.639l-.959.53a.575.575 0 00-.282.67c.134.441.325.884.568 1.323l.088.143a6.972 6.972 0 001.013 1.318c.19.197.5.24.743.106l.962-.532c.449.342.943.62 1.468.82v1.062c0 .27.19.503.46.567zM6.497 8c0-.798.673-1.447 1.504-1.447.829 0 1.505.65 1.505 1.446 0 .798-.677 1.447-1.505 1.447-.83 0-1.504-.65-1.504-1.447zm-.91 0C5.587 9.28 6.67 10.32 8 10.32c1.332 0 2.415-1.041 2.415-2.322 0-1.28-1.083-2.32-2.415-2.32-1.331 0-2.414 1.04-2.414 2.32z" fill="currentColor"/></symbol><symbol fill="none" viewBox="0 0 24 24" id="icon-star" xmlns="http://www.w3.org/2000/svg"><path fill-rule="evenodd" clip-rule="evenodd" d="M12.133 17.273c.15 0 .299.034.435.102l4.67 2.357-.892-4.99a.873.873 0 01.268-.794l3.778-3.534-5.22-.729a.932.932 0 01-.704-.49l-2.335-4.54-2.335 4.54a.934.934 0 01-.703.49l-5.22.729 3.777 3.534c.22.206.32.503.269.793l-.892 4.991 4.67-2.357a.968.968 0 01.434-.102zm6.345 4.993a.963.963 0 01-.435-.102l-5.91-2.982-5.91 2.982a.968.968 0 01-.983-.068.88.88 0 01-.372-.877l1.129-6.316-4.782-4.473a.872.872 0 01-.236-.92.925.925 0 01.754-.61l6.608-.92 2.955-5.747a.94.94 0 01.838-.5c.355 0 .68.194.837.5l2.955 5.746 6.608.922c.351.05.644.285.754.61.11.324.018.68-.237.919l-4.781 4.473 1.129 6.316a.88.88 0 01-.372.877.962.962 0 01-.549.17z" fill="#FFC557"/></symbol><symbol fill="none" viewBox="0 0 24 24" id="icon-help" xmlns="http://www.w3.org/2000/svg"><path fill-rule="evenodd" clip-rule="evenodd" d="M1.5 12C1.5 6.203 6.203 1.5 12 1.5S22.5 6.203 22.5 12 17.797 22.5 12 22.5 1.5 17.797 1.5 12zm1.382 0c0 5.03 4.089 9.118 9.118 9.118 5.03 0 9.118-4.089 9.118-9.118 0-5.03-4.089-9.118-9.118-9.118-5.03 0-9.118 4.089-9.118 9.118zm7.928-3.647c.038.077.077.154.115.211.02.029.043.058.067.086.024.03.048.058.067.087.058.057.116.115.192.172l.02.013c.055.038.125.086.21.103a.951.951 0 00.25.076c.096.02.173.02.25.02.077 0 .172 0 .25-.02a.687.687 0 00.21-.076h.02c.076-.039.153-.077.23-.135.058-.038.115-.096.173-.153l.019-.02c.058-.057.096-.115.134-.172.039-.058.077-.115.096-.192 0-.008 0-.013.002-.017.002-.006.006-.01.018-.022.032-.064.05-.142.067-.21l.01-.04c.018-.076.018-.172.018-.249 0-.076 0-.172-.019-.25-.019-.076-.038-.153-.076-.249a1.09 1.09 0 00-.23-.345l-.04-.039a1.204 1.204 0 00-.145-.12l-.046-.033a2.058 2.058 0 01-.106-.058 1.082 1.082 0 00-.336-.134c-.096-.02-.172-.02-.25-.02-.076 0-.172 0-.249.02a1.08 1.08 0 00-.23.077h-.02c-.076.038-.153.076-.21.115l-.046.034c-.055.04-.1.074-.146.12a1.241 1.241 0 00-.154.172 2.087 2.087 0 00-.115.21v.001c-.039.077-.058.154-.077.23-.02.097-.02.173-.02.25 0 .077 0 .173.02.25.013.107.036.176.055.235l.022.072zm2.668 7.025h-.442v-4.703a.496.496 0 00-.499-.499h-2.016a.496.496 0 00-.498.5v1.036c0 .269.21.499.498.499h.404v3.187h-.404a.496.496 0 00-.498.499v1.036c0 .269.21.5.498.5h2.957c.268 0 .499-.212.499-.5v-1.036a.512.512 0 00-.5-.519z" fill="currentColor"/></symbol><symbol fill="none" viewBox="0 0 24 24" id="icon-logout" xmlns="http://www.w3.org/2000/svg"><path fill-rule="evenodd" clip-rule="evenodd" d="M14.392 19c0-.481.408-.875.912-.875.503 0 .911.394.911.875v2.625c0 .486-.408.875-.911.875H3.91c-.503 0-.911-.39-.911-.875V2.375c0-.481.408-.875.911-.875h11.393c.503 0 .911.394.911.875V5c0 .486-.408.875-.911.875-.504 0-.912-.39-.912-.875V3.25h-9.57v17.5h9.57V19zm6.557-6.754v.003a.636.636 0 01-.15.215l-3.544 3.403a.702.702 0 01-.966 0 .637.637 0 010-.927l2.377-2.284h-8.375A.67.67 0 019.608 12a.67.67 0 01.683-.656h8.375L16.288 9.06a.637.637 0 010-.927.709.709 0 01.967 0l3.544 3.403a.68.68 0 01.15.215l.002.008c.03.075.049.158.049.241a.64.64 0 01-.05.246z" fill="currentColor"/></symbol><symbol fill="none" viewBox="0 0 31 13" id="icon-new_icon" xmlns="http://www.w3.org/2000/svg"><rect y=".5" width="30.862" height="12" rx="6" fill="#ADBBFF"/><path d="M11.117 9.491h-1.2L7.2 5.386V9.49H6V3.5h1.2l2.717 4.114V3.5h1.2v5.991zM13.503 4.477v1.5h2.014v.952h-2.014v1.585h2.271v.977h-3.471V3.5h3.471v.977h-2.271zM24.862 3.509L23.191 9.49h-1.415l-1.122-4.26-1.175 4.26-1.405.009-1.612-5.991h1.286l1.054 4.645L20.02 3.51h1.337l1.149 4.62 1.063-4.62h1.294z" fill="#fff"/></symbol><symbol fill="none" viewBox="0 0 20 21" id="icon-ring" xmlns="http://www.w3.org/2000/svg"><g clip-path="url(#csclip0_0_466)"><path fill-rule="evenodd" clip-rule="evenodd" d="M10.001 20.25c1.1 0 2-.9 2-2h-4a2 2 0 002 2zm6-6v-5c0-3.07-1.64-5.64-4.5-6.32v-.68c0-.83-.67-1.5-1.5-1.5s-1.5.67-1.5 1.5v.68c-2.87.68-4.5 3.24-4.5 6.32v5l-1.29 1.29c-.63.63-.19 1.71.7 1.71h13.17c.89 0 1.34-1.08.71-1.71l-1.29-1.29z" fill="currentColor"/></g><defs><clipPath id="csclip0_0_466"><path fill="#fff" transform="translate(0 .5)" d="M0 0h20v20H0z"/></clipPath></defs></symbol><symbol fill="none" viewBox="0 0 8 8" id="icon-close" xmlns="http://www.w3.org/2000/svg"><path d="M7.741 1.15a.926.926 0 00-.267-.625.93.93 0 00-.625-.268.925.925 0 00-.7.268l-2.15 2.15L1.852.524a.928.928 0 00-.7-.268.926.926 0 00-.626.268.93.93 0 00-.267.625.926.926 0 00.267.7L2.674 4 .525 6.149a.928.928 0 00-.267.7c.01.227.093.452.267.625a.93.93 0 00.625.268.926.926 0 00.7-.268L4 5.326l2.149 2.149a.928.928 0 00.7.268.926.926 0 00.626-.268.93.93 0 00.267-.625.926.926 0 00-.267-.7L5.325 4l2.149-2.149a.926.926 0 00.267-.701z" fill="currentColor"/></symbol></svg>