<svg class="change_icon" width="13" height="12" viewBox="0 0 13 12" fill="none" xmlns="http://www.w3.org/2000/svg">
<path d="M1.0415 5.12373C1.10917 5.15231 1.18763 5.15231 1.2553 5.11802L3.36877 4.10375C3.50406 4.03518 3.56089 3.86375 3.49594 3.72091C3.43371 3.58377 3.27947 3.5209 3.14686 3.58377L1.66661 4.29518C2.37291 2.06379 4.34025 0.572386 6.60525 0.572386C8.97851 0.572386 11.0541 2.24665 11.6521 4.64374C11.69 4.79516 11.8388 4.8866 11.9823 4.84658C12.1257 4.80659 12.2123 4.64944 12.1744 4.49803C11.5141 1.85237 9.22472 0.000976562 6.60523 0.000976562C4.10751 0.000976562 1.93449 1.64666 1.14973 4.10948L0.527338 2.46666C0.481342 2.31809 0.327095 2.23524 0.186369 2.2838C0.0456437 2.33236 -0.0328247 2.49522 0.0131705 2.64379C0.015885 2.65523 0.0212888 2.66664 0.0266925 2.67808L0.889946 4.96374C0.917016 5.03518 0.971129 5.09518 1.0415 5.12373Z"/>
<path d="M12.9835 9.34102C12.9808 9.33531 12.9781 9.32958 12.9781 9.32387L12.1149 7.03821C12.0878 6.96677 12.0337 6.90678 11.9633 6.87822C11.8957 6.84964 11.8172 6.85251 11.7496 6.88393L9.63608 7.8982C9.49807 7.9582 9.43312 8.12676 9.48995 8.27247C9.54678 8.41819 9.70643 8.48676 9.84444 8.42676C9.84985 8.42389 9.85528 8.42105 9.86068 8.41819L11.3409 7.70677C10.6292 9.93817 8.65917 11.4296 6.39687 11.4296C4.02361 11.4296 1.94804 9.7553 1.35 7.35821C1.31212 7.2068 1.16328 7.11535 1.01986 7.15537C0.876446 7.19536 0.789833 7.35251 0.827736 7.50392C1.48532 10.1524 3.7774 12.001 6.3969 12.001C8.89463 12.001 11.0649 10.3553 11.8524 7.89247L12.4748 9.53529C12.5262 9.68387 12.6805 9.76101 12.8212 9.70672C12.9619 9.65245 13.0349 9.48959 12.9835 9.34102Z"/>
</svg>
