<svg class="delete_icon" width="10" height="12" viewBox="0 0 10 12" fill="none" xmlns="http://www.w3.org/2000/svg">
<path d="M6.70225 4.34863C6.54298 4.34863 6.4139 4.47444 6.4139 4.62966V9.94114C6.4139 10.0963 6.54298 10.2222 6.70225 10.2222C6.86152 10.2222 6.9906 10.0963 6.9906 9.94114V4.62966C6.9906 4.47444 6.86152 4.34863 6.70225 4.34863Z"/>
<path d="M3.29948 4.34863C3.14021 4.34863 3.01113 4.47444 3.01113 4.62966V9.94114C3.01113 10.0963 3.14021 10.2222 3.29948 10.2222C3.45875 10.2222 3.58783 10.0963 3.58783 9.94114V4.62966C3.58783 4.47444 3.45875 4.34863 3.29948 4.34863Z"/>
<path d="M0.818955 3.57349V10.4975C0.818955 10.9067 0.972928 11.291 1.2419 11.5668C1.50964 11.8433 1.88224 12.0003 2.27218 12.001H7.72782C8.11787 12.0003 8.49047 11.8433 8.7581 11.5668C9.02707 11.291 9.18105 10.9067 9.18105 10.4975V3.57349C9.71573 3.43517 10.0622 2.93173 9.99067 2.39701C9.91904 1.86239 9.45171 1.46248 8.89844 1.46237H7.42212V1.11108C7.42381 0.81567 7.30397 0.532006 7.0894 0.323319C6.87483 0.114743 6.58332 -0.00140161 6.28022 0.00101349H3.71978C3.41668 -0.00140161 3.12518 0.114743 2.9106 0.323319C2.69603 0.532006 2.57619 0.81567 2.57788 1.11108V1.46237H1.10156C0.548291 1.46248 0.0809647 1.86239 0.00932821 2.39701C-0.0621956 2.93173 0.284272 3.43517 0.818955 3.57349ZM7.72782 11.4389H2.27218C1.77918 11.4389 1.39565 11.0262 1.39565 10.4975V3.59819H8.60435V10.4975C8.60435 11.0262 8.22082 11.4389 7.72782 11.4389ZM3.15457 1.11108C3.15266 0.964747 3.21168 0.823903 3.31823 0.720603C3.42467 0.617302 3.56952 0.560548 3.71978 0.563073H6.28022C6.43048 0.560548 6.57533 0.617302 6.68177 0.720603C6.78832 0.823793 6.84734 0.964747 6.84543 1.11108V1.46237H3.15457V1.11108ZM1.10156 2.02443H8.89844C9.1851 2.02443 9.41747 2.2509 9.41747 2.53028C9.41747 2.80966 9.1851 3.03613 8.89844 3.03613H1.10156C0.8149 3.03613 0.582532 2.80966 0.582532 2.53028C0.582532 2.2509 0.8149 2.02443 1.10156 2.02443Z"/>
<path d="M5.00172 4.34863C4.84246 4.34863 4.71338 4.47444 4.71338 4.62966V9.94114C4.71338 10.0963 4.84246 10.2222 5.00172 10.2222C5.16099 10.2222 5.29007 10.0963 5.29007 9.94114V4.62966C5.29007 4.47444 5.16099 4.34863 5.00172 4.34863Z"/>
</svg>
