<svg width="12" height="12" viewBox="0 0 12 12" fill="none" xmlns="http://www.w3.org/2000/svg">
<path d="M0.01 9.00036L0 11.4701C0 11.61 0.05 11.75 0.15 11.85C0.25 11.95 0.38 12 0.52 12L2.98 11.99C3.04867 11.9918 3.11696 11.9793 3.18062 11.9535C3.24428 11.9277 3.30194 11.8891 3.35 11.84L11.85 3.35104C12.05 3.15107 12.05 2.82111 11.85 2.61113L9.4 0.151427C9.29934 0.0542869 9.1649 0 9.025 0C8.8851 0 8.75066 0.0542869 8.65 0.151427L6.95 1.86122L0.15 8.63041C0.0598735 8.73259 0.0100986 8.86412 0.01 9.00036ZM9.04 1.27129L10.76 2.97109L9.79 3.94097L8.08 2.23118L9.04 1.27129ZM1.07 9.23033L7.33 2.97109L9.04 4.68088L2.78 10.9201L1.05 10.9401L1.07 9.23033Z" fill="#828282"/>
</svg>
