<svg width="23" height="14" viewBox="0 0 23 14" fill="none" xmlns="http://www.w3.org/2000/svg">
    <path d="M20.5248 12.0078V2.02872C20.5248 0.913838 19.611 0 18.4961 0H11.4778H11.2402H4.22193C3.10705 0 2.19321 0.913838 2.19321 2.02872V12.0078H0C0 12.4099 0.274151 12.7937 0.62141 13.1227C0.822454 13.3055 1.15144 13.47 1.49869 13.5979C1.86423 13.7441 2.44909 13.8355 2.92428 13.9086C3.36292 13.9634 3.80157 14 4.24021 14H11.3681H18.4961C18.9347 14 19.3734 13.9634 19.812 13.9086C20.2872 13.8355 20.8721 13.7441 21.2376 13.5979C21.5849 13.47 21.9138 13.3055 22.1149 13.1227C22.4621 12.812 22.7363 12.4282 22.7363 12.0078H20.5248ZM19.0444 12.0078H13.9086C13.8721 12.0992 13.8355 12.1906 13.7807 12.2637C13.5796 12.5561 13.2324 12.7572 12.8486 12.7572H11.4778H11.2402H9.86945C9.48564 12.7572 9.13838 12.5561 8.93733 12.2637C8.8825 12.1906 8.82767 12.0992 8.8094 12.0078H3.65535V2.02872C3.65535 1.71802 3.91123 1.46214 4.22193 1.46214H11.2402H11.4778H18.4778C18.7885 1.46214 19.0444 1.71802 19.0444 2.02872V12.0078Z" fill="black"/>
</svg>