<svg width="7" height="14" viewBox="0 0 7 14" fill="none" xmlns="http://www.w3.org/2000/svg">
    <path d="M5.95874 0H1.09446C0.486428 0 0 0.486428 0 1.09446V12.9055C0 13.5136 0.486428 14 1.09446 14H5.95874C6.56678 14 7.0532 13.5136 7.0532 12.9055V1.10966C7.0532 0.501629 6.56678 0 5.95874 0ZM3.5266 13.4832C3.32899 13.4832 3.16178 13.316 3.16178 13.1183C3.16178 12.9207 3.32899 12.7535 3.5266 12.7535C3.72421 12.7535 3.89142 12.9207 3.89142 13.1183C3.89142 13.316 3.72421 13.4832 3.5266 13.4832ZM6.65798 12.2823H0.395223V1.88491H6.64278V12.2823H6.65798Z" fill="black"/>
</svg>