<svg width="16" height="16" viewBox="0 0 16 16" fill="none" xmlns="http://www.w3.org/2000/svg">
    <circle cx="8" cy="8" r="8" fill="black"/>
    <path d="M7.48438 9.28054H8.5V9.21307C8.5142 8.39631 8.74858 8.03054 9.35227 7.65767C9.98793 7.27415 10.3786 6.73438 10.3786 5.93537C10.3786 4.78125 9.50497 4 8.2017 4C7.00497 4 6.04616 4.69957 6 5.97798H7.07955C7.12216 5.22514 7.65838 4.89489 8.2017 4.89489C8.8054 4.89489 9.29545 5.29616 9.29545 5.92472C9.29545 6.45384 8.9652 6.8267 8.54261 7.08949C7.8821 7.49432 7.49148 7.8956 7.48438 9.21307V9.28054ZM8.0206 11.4396C8.40767 11.4396 8.73082 11.1236 8.73082 10.7294C8.73082 10.3423 8.40767 10.0227 8.0206 10.0227C7.62997 10.0227 7.31037 10.3423 7.31037 10.7294C7.31037 11.1236 7.62997 11.4396 8.0206 11.4396Z"
          fill="white"/>
</svg>
