<svg width="24" height="24" viewBox="0 0 24 24" fill="none" xmlns="http://www.w3.org/2000/svg">
<path d="M5.5 12C5.22386 12 5 12.2239 5 12.5C5 12.7761 5.22386 13 5.5 13L5.5 12ZM17.5 13C17.7761 13 18 12.7761 18 12.5C18 12.2239 17.7761 12 17.5 12L17.5 13ZM5.5 13L17.5 13L17.5 12L5.5 12L5.5 13Z" fill="currentColor"/>
<path d="M8 18L8 19L10 19L10 18L8 18ZM10 7L10 6L8 6L8 7L10 7ZM10 18L10 7L8 7L8 18L10 18Z" fill="currentColor"/>
<path d="M13 15L13 16L15 16L15 15L13 15ZM15 10L15 9L13 9L13 10L15 10ZM15 15L15 10L13 10L13 15L15 15Z" fill="currentColor"/>
</svg>
