<svg width="24" height="24" viewBox="0 0 24 24" fill="none" xmlns="http://www.w3.org/2000/svg">
<path fill-rule="evenodd" clip-rule="evenodd" d="M5.5 8C5.5 7.72386 5.72386 7.5 6 7.5H18C18.2761 7.5 18.5 7.72386 18.5 8C18.5 8.27614 18.2761 8.5 18 8.5H6C5.72386 8.5 5.5 8.27614 5.5 8ZM5.5 12C5.5 11.7239 5.72386 11.5 6 11.5H13C13.2761 11.5 13.5 11.7239 13.5 12C13.5 12.2761 13.2761 12.5 13 12.5H6C5.72386 12.5 5.5 12.2761 5.5 12ZM6 15.5C5.72386 15.5 5.5 15.7239 5.5 16C5.5 16.2761 5.72386 16.5 6 16.5H10C10.2761 16.5 10.5 16.2761 10.5 16C10.5 15.7239 10.2761 15.5 10 15.5H6Z" fill="currentColor"/>
</svg>
