<svg width="24" height="24" viewBox="0 0 24 24" fill="none" xmlns="http://www.w3.org/2000/svg">
<path d="M17.5 18C17.7761 18 18 18.2239 18 18.5C18 18.7761 17.7761 19 17.5 19L17.5 18ZM5.5 19C5.22386 19 5 18.7761 5 18.5C5 18.2239 5.22386 18 5.5 18L5.5 19ZM17.5 19L5.5 19L5.5 18L17.5 18L17.5 19Z" fill="currentColor"/>
<path d="M15 6L15 5L13 5L13 6L15 6ZM13 15L13 16L15 16L15 15L13 15ZM13 6L13 15L15 15L15 6L13 6Z" fill="currentColor"/>
<path d="M10 11L10 10L8 10L8 11L10 11ZM8 15L8 16L10 16L10 15L8 15ZM8 11L8 15L10 15L10 11L8 11Z" fill="currentColor"/>
</svg>
