<svg width="24" height="24" viewBox="0 0 24 24" fill="none" xmlns="http://www.w3.org/2000/svg">
<path d="M6.5 6C6.22386 6 6 5.77614 6 5.5C6 5.22386 6.22386 5 6.5 5L6.5 6ZM18.5 5C18.7761 5 19 5.22386 19 5.5C19 5.77614 18.7761 6 18.5 6L18.5 5ZM6.5 5L18.5 5L18.5 6L6.5 6L6.5 5Z" fill="currentColor"/>
<path d="M9 18L9 19L11 19L11 18L9 18ZM11 9L11 8L9 8L9 9L11 9ZM11 18L11 9L9 9L9 18L11 18Z" fill="currentColor"/>
<path d="M14 13L14 14L16 14L16 13L14 13ZM16 9L16 8L14 8L14 9L16 9ZM16 13L16 9L14 9L14 13L16 13Z" fill="currentColor"/>
</svg>
