<svg width="24" height="24" viewBox="0 0 24 24" fill="none" xmlns="http://www.w3.org/2000/svg">
<path fill-rule="evenodd" clip-rule="evenodd" d="M5.5 8C5.5 7.72386 5.72386 7.5 6 7.5H18C18.2761 7.5 18.5 7.72386 18.5 8C18.5 8.27614 18.2761 8.5 18 8.5H6C5.72386 8.5 5.5 8.27614 5.5 8ZM9.5 12C9.5 11.7239 9.72386 11.5 10 11.5H14C14.2761 11.5 14.5 11.7239 14.5 12C14.5 12.2761 14.2761 12.5 14 12.5H10C9.72386 12.5 9.5 12.2761 9.5 12ZM7 15.5C6.72386 15.5 6.5 15.7239 6.5 16C6.5 16.2761 6.72386 16.5 7 16.5H17C17.2761 16.5 17.5 16.2761 17.5 16C17.5 15.7239 17.2761 15.5 17 15.5H7Z" fill="currentColor"/>
</svg>
