<svg width="24" height="24" viewBox="0 0 24 24" fill="none" xmlns="http://www.w3.org/2000/svg">
<path fill-rule="evenodd" clip-rule="evenodd" d="M18.5 8C18.5 7.72386 18.2761 7.5 18 7.5H6C5.72386 7.5 5.5 7.72386 5.5 8C5.5 8.27614 5.72386 8.5 6 8.5H18C18.2761 8.5 18.5 8.27614 18.5 8ZM18.5 12C18.5 11.7239 18.2761 11.5 18 11.5H11C10.7239 11.5 10.5 11.7239 10.5 12C10.5 12.2761 10.7239 12.5 11 12.5H18C18.2761 12.5 18.5 12.2761 18.5 12ZM18 15.5C18.2761 15.5 18.5 15.7239 18.5 16C18.5 16.2761 18.2761 16.5 18 16.5H14C13.7239 16.5 13.5 16.2761 13.5 16C13.5 15.7239 13.7239 15.5 14 15.5H18Z" fill="currentColor"/>
</svg>
