<svg
        xmlns="http://www.w3.org/2000/svg"
        width="10"
        height="10"
        viewBox="0 0 10 10"
        fill="none"
>
    <path
            d="M0 0.474557C0 0.212467 0.215248 0 0.480769 0C0.746291 0 0.961538 0.212466 0.961538 0.474557V9.39623C0.961538 9.65832 0.746291 9.87079 0.480769 9.87079C0.215248 9.87079 0 9.65832 0 9.39623V4.0535V3.07777V0.474557Z"
            fill="currentColor"
    />
    <path
            d="M9.51923 8.92167C9.78475 8.92167 10 9.13414 10 9.39623C10 9.65832 9.78475 9.87079 9.51923 9.87079H7.17179H6.17187H0.480769C0.215248 9.87079 0 9.65832 0 9.39623C1.16063e-08 9.13414 0.215248 8.92167 0.480769 8.92167L9.51923 8.92167Z"
            fill="currentColor"
    />
    <path
            fill-rule="evenodd"
            clip-rule="evenodd"
            d="M0 4.0535C2.95046 4.78518 5.29943 7.01218 6.17187 9.87079H7.17179C6.25122 6.48677 3.48289 3.84958 0 3.07777V4.0535Z"
            fill="currentColor"
    />
</svg>