<svg width="16" height="16" viewBox="0 0 16 16" fill="none" xmlns="http://www.w3.org/2000/svg">
<path d="M4.00514 12.9887C4.58506 13.6292 5.41344 14 6.29149 14H13.3658C14.8238 14 16 12.8033 16 11.3202V4.67976C16 3.19658 14.8236 2 13.3658 2H6.29149C5.42995 2 4.60157 2.37079 4.00514 3.0113L0.360298 7.05627C-0.120099 7.59565 -0.120099 8.40462 0.360298 8.94388L4.00514 12.9887ZM0.973295 7.62912L4.61814 3.58416C5.04887 3.11224 5.66192 2.84255 6.29143 2.84255H13.3657C14.3598 2.84255 15.1716 3.66843 15.1716 4.67961V11.3369C15.1716 12.3482 14.3597 13.174 13.3657 13.174L6.29143 13.1741C5.66183 13.1741 5.04887 12.9044 4.61814 12.4325L0.973295 8.38755C0.774406 8.16841 0.774406 7.83125 0.97318 7.62903L0.973295 7.62912ZM7.35178 9.56727L8.89249 7.99991L7.35178 6.43255C7.18605 6.26396 7.18605 5.99437 7.35178 5.8426C7.5175 5.67401 7.7825 5.67401 7.9317 5.8426L9.47241 7.40996L11.0131 5.8426C11.1789 5.67401 11.4439 5.67401 11.5931 5.8426C11.7588 6.01118 11.7588 6.28077 11.5931 6.43255L10.0854 7.99991L11.6261 9.56727C11.7918 9.73586 11.7918 10.0054 11.6261 10.1572C11.5432 10.2415 11.4438 10.2753 11.3279 10.2753C11.2119 10.2753 11.1125 10.2415 11.0298 10.1572L9.48895 8.58986L7.94823 10.1572C7.86537 10.2415 7.76599 10.2753 7.65008 10.2753C7.53405 10.2753 7.43467 10.2415 7.35192 10.1572C7.20273 10.0056 7.20273 9.73587 7.35181 9.56727H7.35178Z" fill="currentColor"/>
</svg>
