<svg width="14" height="14" viewBox="0 0 14 14" fill="none" xmlns="http://www.w3.org/2000/svg">
<path fill-rule="evenodd" clip-rule="evenodd" d="M2.29683 11.0832C2.67787 10.6206 2.99712 10.0043 3.04277 9.21767C3.04338 9.20717 3.04369 9.19638 3.04369 9.18559V4.95817C3.04369 2.8675 4.81861 1.1665 7.00014 1.1665C9.18166 1.1665 10.9566 2.8675 10.9566 4.95817V9.18559C10.9566 9.19638 10.9569 9.20717 10.9575 9.21767C11.0031 10.0043 11.3224 10.6206 11.7034 11.0832H2.29683ZM13.645 11.1367C13.6313 11.1306 12.2618 10.5128 12.1738 9.16854V4.95833C12.1738 2.22425 9.8529 0 7 0C4.1471 0 1.82618 2.22425 1.82618 4.95833V9.16854C1.73945 10.4962 0.408862 11.1122 0.354993 11.1367C0.0947804 11.251 -0.047043 11.5235 0.0141298 11.7915C0.0753025 12.0592 0.322733 12.25 0.608814 12.25H4.99469C5.08995 13.2303 5.95002 14 7 14C8.04998 14 8.91005 13.2303 9.00531 12.25H13.3912C13.6773 12.25 13.9247 12.0592 13.9859 11.7915C14.047 11.5235 13.9052 11.251 13.645 11.1367Z" fill="currentColor"/>
</svg>
