<svg width="24" height="24" viewBox="0 0 24 24" fill="none" xmlns="http://www.w3.org/2000/svg">
    <g>
        <path fill-rule="evenodd" clip-rule="evenodd"
              d="M18.2222 5.33333H5.77778C5.53232 5.33333 5.33333 5.53232 5.33333 5.77778V9.11111H18.6667V5.77778C18.6667 5.53232 18.4677 5.33333 18.2222 5.33333ZM5.33333 18.2222V10.4444H13.5557V18.6667H5.77778C5.53232 18.6667 5.33333 18.4677 5.33333 18.2222ZM14.889 18.6667H18.2222C18.4677 18.6667 18.6667 18.4677 18.6667 18.2222V10.4444H14.889V18.6667ZM5.77778 4C4.79594 4 4 4.79594 4 5.77778V18.2222C4 19.2041 4.79594 20 5.77778 20H18.2222C19.2041 20 20 19.2041 20 18.2222V5.77778C20 4.79594 19.2041 4 18.2222 4H5.77778Z"
              fill="currentColor"/>
    </g>
</svg>
