<svg width="141" height="140" viewBox="0 0 141 140" fill="none" xmlns="http://www.w3.org/2000/svg">
<circle cx="70.5" cy="70" r="69.75" fill="#F3F3F3"/>
<mask id="mask0_3904_56642" style="mask-type:alpha" maskUnits="userSpaceOnUse" x="0" y="0" width="141" height="140">
<circle cx="70.5" cy="70" r="69.75" fill="#F3F3F3"/>
</mask>
<g mask="url(#mask0_3904_56642)">
<g filter="url(#filter0_d_3904_56642)">
<rect x="13.3823" y="65.0031" width="39.5" height="27.0516" rx="3" transform="rotate(-15 13.3823 65.0031)" fill="white"/>
</g>
<rect x="17.5811" y="66.4822" width="14.0391" height="22.0206" rx="1" transform="rotate(-15 17.5811 66.4822)" fill="#F3F3F3"/>
<rect x="33.7061" y="61.8572" width="14.0391" height="22.0206" rx="1" transform="rotate(-15 33.7061 61.8572)" fill="#F3F3F3"/>
<g filter="url(#filter1_d_3904_56642)">
<rect width="34.1318" height="25.4795" rx="3" transform="matrix(-1 8.74228e-08 8.74228e-08 1 128.632 59.5911)" fill="white"/>
</g>
<path d="M113.237 70.753C113.571 70.9454 113.571 71.4266 113.237 71.619L109.895 73.5487C109.562 73.7411 109.145 73.5006 109.145 73.1157L109.145 69.2563C109.145 68.8714 109.562 68.6309 109.895 68.8233L113.237 70.753Z" fill="#F3F3F3"/>
<circle cx="117.691" cy="81.4818" r="1.50006" fill="#F3F3F3"/>
<rect x="98.1533" y="81.0541" width="26.8252" height="0.927685" rx="0.463842" fill="#F3F3F3"/>
<circle cx="70.5002" cy="71.2318" r="30.5002" fill="white"/>
<g filter="url(#filter2_d_3904_56642)">
<rect x="49.625" y="86.1955" width="40.2041" height="24.25" rx="3" fill="white"/>
</g>
<g opacity="0.5" filter="url(#filter3_d_3904_56642)">
<circle cx="71.7785" cy="71.9801" r="32.25" transform="rotate(-46.4695 71.7785 71.9801)" stroke="#949CAD" stroke-width="6" shape-rendering="crispEdges"/>
</g>
<circle cx="70.4997" cy="70" r="32.25" transform="rotate(-46.4695 70.4997 70)" stroke="#E8E7EC" stroke-width="6"/>
<g filter="url(#filter4_d_3904_56642)">
<path d="M95.0124 101.243C94.612 100.863 94.5958 100.23 94.9762 99.8296L99.7543 94.7998C100.135 94.3994 100.768 94.3832 101.168 94.7636L115.051 107.952C115.451 108.332 115.468 108.965 115.087 109.366L110.309 114.396C109.929 114.796 109.296 114.812 108.895 114.432L95.0124 101.243Z" fill="#C6C9D6"/>
<path d="M90.5539 99.1198C90.1535 98.7394 90.1373 98.1065 90.5177 97.706L97.4051 90.456C97.7855 90.0556 98.4184 90.0393 98.8188 90.4197L102.263 93.6912C102.663 94.0716 102.679 94.7046 102.299 95.105L95.4115 102.355C95.0311 102.755 94.3981 102.772 93.9977 102.391L90.5539 99.1198Z" fill="#ADB3C3"/>
<path d="M101.725 110.874C101.325 110.494 101.309 109.861 101.689 109.461L109.717 101.01C110.098 100.609 110.731 100.593 111.131 100.974L125.014 114.162C125.414 114.542 125.431 115.175 125.05 115.576L117.022 124.027C116.642 124.427 116.009 124.443 115.608 124.063L101.725 110.874Z" fill="#ADB3C3"/>
</g>
<rect x="52.4375" y="71.9817" width="33" height="2" rx="1" fill="#F3F3F3"/>
<rect x="52.4375" y="58.4817" width="37.25" height="10.1955" rx="1" fill="#F3F3F3"/>
<path d="M51.3125 66.8817L54.9375 64.0067C55.6042 63.465 57 62.7692 57.25 64.3192C57.5625 66.2567 57.5625 67.6942 60.0625 66.8817C62.5625 66.0692 64.5625 64.0067 64.9375 63.1942C65.768 61.3948 65.25 59.3817 63.5 60.2567C60.6799 61.6668 61.6875 66.2567 64 66.0067C65.85 65.8067 69.7292 65.09 71.4375 64.7567" stroke="white" stroke-linecap="round"/>
<rect x="52.4375" y="76.9817" width="33" height="2" rx="1" fill="#F3F3F3"/>
<rect x="52.4375" y="81.9818" width="33" height="2" rx="1" fill="#F3F3F3"/>
</g>
<defs>
<filter id="filter0_d_3904_56642" x="13.0559" y="52.4532" width="51.8083" height="43.0062" filterUnits="userSpaceOnUse" color-interpolation-filters="sRGB">
<feFlood flood-opacity="0" result="BackgroundImageFix"/>
<feColorMatrix in="SourceAlpha" type="matrix" values="0 0 0 0 0 0 0 0 0 0 0 0 0 0 0 0 0 0 127 0" result="hardAlpha"/>
<feOffset dx="3" dy="1"/>
<feGaussianBlur stdDeviation="2"/>
<feComposite in2="hardAlpha" operator="out"/>
<feColorMatrix type="matrix" values="0 0 0 0 0 0 0 0 0 0 0 0 0 0 0 0 0 0 0.05 0"/>
<feBlend mode="normal" in2="BackgroundImageFix" result="effect1_dropShadow_3904_56642"/>
<feBlend mode="normal" in="SourceGraphic" in2="effect1_dropShadow_3904_56642" result="shape"/>
</filter>
<filter id="filter1_d_3904_56642" x="93.5" y="56.5911" width="42.1318" height="33.4795" filterUnits="userSpaceOnUse" color-interpolation-filters="sRGB">
<feFlood flood-opacity="0" result="BackgroundImageFix"/>
<feColorMatrix in="SourceAlpha" type="matrix" values="0 0 0 0 0 0 0 0 0 0 0 0 0 0 0 0 0 0 127 0" result="hardAlpha"/>
<feOffset dx="3" dy="1"/>
<feGaussianBlur stdDeviation="2"/>
<feComposite in2="hardAlpha" operator="out"/>
<feColorMatrix type="matrix" values="0 0 0 0 0 0 0 0 0 0 0 0 0 0 0 0 0 0 0.05 0"/>
<feBlend mode="normal" in2="BackgroundImageFix" result="effect1_dropShadow_3904_56642"/>
<feBlend mode="normal" in="SourceGraphic" in2="effect1_dropShadow_3904_56642" result="shape"/>
</filter>
<filter id="filter2_d_3904_56642" x="45.625" y="83.1955" width="48.2041" height="32.25" filterUnits="userSpaceOnUse" color-interpolation-filters="sRGB">
<feFlood flood-opacity="0" result="BackgroundImageFix"/>
<feColorMatrix in="SourceAlpha" type="matrix" values="0 0 0 0 0 0 0 0 0 0 0 0 0 0 0 0 0 0 127 0" result="hardAlpha"/>
<feOffset dy="1"/>
<feGaussianBlur stdDeviation="2"/>
<feComposite in2="hardAlpha" operator="out"/>
<feColorMatrix type="matrix" values="0 0 0 0 0 0 0 0 0 0 0 0 0 0 0 0 0 0 0.05 0"/>
<feBlend mode="normal" in2="BackgroundImageFix" result="effect1_dropShadow_3904_56642"/>
<feBlend mode="normal" in="SourceGraphic" in2="effect1_dropShadow_3904_56642" result="shape"/>
</filter>
<filter id="filter3_d_3904_56642" x="33.5283" y="35.73" width="76.5002" height="76.5001" filterUnits="userSpaceOnUse" color-interpolation-filters="sRGB">
<feFlood flood-opacity="0" result="BackgroundImageFix"/>
<feColorMatrix in="SourceAlpha" type="matrix" values="0 0 0 0 0 0 0 0 0 0 0 0 0 0 0 0 0 0 127 0" result="hardAlpha"/>
<feOffset dy="2"/>
<feGaussianBlur stdDeviation="1.5"/>
<feComposite in2="hardAlpha" operator="out"/>
<feColorMatrix type="matrix" values="0 0 0 0 0 0 0 0 0 0 0 0 0 0 0 0 0 0 0.05 0"/>
<feBlend mode="normal" in2="BackgroundImageFix" result="effect1_dropShadow_3904_56642"/>
<feBlend mode="normal" in="SourceGraphic" in2="effect1_dropShadow_3904_56642" result="shape"/>
</filter>
<filter id="filter4_d_3904_56642" x="87.2427" y="89.1447" width="41.0825" height="40.1932" filterUnits="userSpaceOnUse" color-interpolation-filters="sRGB">
<feFlood flood-opacity="0" result="BackgroundImageFix"/>
<feColorMatrix in="SourceAlpha" type="matrix" values="0 0 0 0 0 0 0 0 0 0 0 0 0 0 0 0 0 0 127 0" result="hardAlpha"/>
<feOffset dy="2"/>
<feGaussianBlur stdDeviation="1.5"/>
<feComposite in2="hardAlpha" operator="out"/>
<feColorMatrix type="matrix" values="0 0 0 0 0 0 0 0 0 0 0 0 0 0 0 0 0 0 0.05 0"/>
<feBlend mode="normal" in2="BackgroundImageFix" result="effect1_dropShadow_3904_56642"/>
<feBlend mode="normal" in="SourceGraphic" in2="effect1_dropShadow_3904_56642" result="shape"/>
</filter>
</defs>
</svg>
