<svg xmlns="http://www.w3.org/2000/svg" width="12" height="12" viewBox="0 0 12 12" fill="none">
    <path
            d="M9.9375 0.75H2.0625C1.33866 0.75 0.75 1.33866 0.75 2.0625V9.9375C0.75 10.6613 1.33866 11.25 2.0625 11.25H9.9375C10.6613 11.25 11.25 10.6613 11.25 9.9375V2.0625C11.25 1.33866 10.6613 0.75 9.9375 0.75ZM2.0625 1.625H9.9375C10.1788 1.625 10.375 1.82122 10.375 2.0625V3.8125H1.625V2.0625C1.625 1.82122 1.82122 1.625 2.0625 1.625ZM1.625 9.9375V4.6875H7.3125V10.375H2.0625C1.82122 10.375 1.625 10.1788 1.625 9.9375ZM9.9375 10.375H8.1875V4.6875H10.375V9.9375C10.375 10.1788 10.1788 10.375 9.9375 10.375Z"
            fill="currentColor"
    />
</svg>