<svg
        xmlns="http://www.w3.org/2000/svg"
        width="14"
        height="2"
        viewBox="0 0 14 2"
        fill="none"
>
    <path
            d="M2 1C2 1.55228 1.55228 2 1 2C0.447715 2 0 1.55228 0 1C0 0.447715 0.447715 0 1 0C1.55228 0 2 0.447715 2 1Z"
            fill="currentColor"
    />
    <path
            d="M6 1C6 1.55228 5.55228 2 5 2C4.44772 2 4 1.55228 4 1C4 0.447715 4.44772 0 5 0C5.55228 0 6 0.447715 6 1Z"
            fill="currentColor"
    />
    <path
            d="M10 1C10 1.55228 9.55229 2 9 2C8.44771 2 8 1.55228 8 1C8 0.447715 8.44771 0 9 0C9.55229 0 10 0.447715 10 1Z"
            fill="currentColor"
    />
    <path
            d="M14 1C14 1.55228 13.5523 2 13 2C12.4477 2 12 1.55228 12 1C12 0.447715 12.4477 0 13 0C13.5523 0 14 0.447715 14 1Z"
            fill="currentColor"
    />
</svg>