<svg width="24" height="24" viewBox="0 0 24 24" fill="none" xmlns="http://www.w3.org/2000/svg">
    <g>
        <path fill-rule="evenodd" clip-rule="evenodd"
              d="M5 7H19C19.8284 7 20.5 7.67157 20.5 8.5V15.5C20.5 16.3284 19.8284 17 19 17H5C4.17157 17 3.5 16.3284 3.5 15.5V8.5C3.5 7.67157 4.17157 7 5 7ZM2 8.5C2 6.84315 3.34315 5.5 5 5.5H19C20.6569 5.5 22 6.84315 22 8.5V15.5C22 17.1569 20.6569 18.5 19 18.5H5C3.34315 18.5 2 17.1569 2 15.5V8.5ZM8.5 11.25C8.08579 11.25 7.75 11.5858 7.75 12C7.75 12.4142 8.08579 12.75 8.5 12.75H15.5C15.9142 12.75 16.25 12.4142 16.25 12C16.25 11.5858 15.9142 11.25 15.5 11.25H8.5Z"
              fill="currentColor"/>
    </g>
</svg>
