<svg width="24" height="24" viewBox="0 0 24 24" fill="none" xmlns="http://www.w3.org/2000/svg">
<path d="M5.23988 16.4C5.17588 16.4 5.11988 16.376 5.07188 16.328C5.02388 16.28 4.99988 16.224 4.99988 16.16L5.02388 16.028L8.05988 8.24C8.12388 8.08 8.23988 8 8.40788 8H8.81588C8.98388 8 9.09988 8.08 9.16388 8.24L12.1999 16.028L12.2239 16.16C12.2239 16.224 12.1999 16.28 12.1519 16.328C12.1039 16.376 12.0479 16.4 11.9839 16.4H11.7439C11.6719 16.4 11.6119 16.38 11.5639 16.34C11.5239 16.3 11.4959 16.26 11.4799 16.22L10.7359 14.3H6.48788L5.74388 16.22C5.72788 16.26 5.69588 16.3 5.64788 16.34C5.60788 16.38 5.55188 16.4 5.47988 16.4H5.23988ZM6.77588 13.58H10.4479L8.61188 8.852L6.77588 13.58Z" fill="currentColor"/>
<path d="M15.1686 16.52C14.7846 16.52 14.4286 16.44 14.1006 16.28C13.7726 16.12 13.5086 15.904 13.3086 15.632C13.1166 15.36 13.0206 15.06 13.0206 14.732C13.0206 14.204 13.2326 13.772 13.6566 13.436C14.0886 13.1 14.6686 12.884 15.3966 12.788L17.2926 12.524V12.104C17.2926 11.664 17.1566 11.328 16.8846 11.096C16.6206 10.856 16.2126 10.736 15.6606 10.736C15.2526 10.736 14.9166 10.816 14.6526 10.976C14.3966 11.136 14.2326 11.328 14.1606 11.552C14.1286 11.648 14.0886 11.716 14.0406 11.756C14.0006 11.788 13.9446 11.804 13.8726 11.804H13.7046C13.6326 11.804 13.5686 11.78 13.5126 11.732C13.4646 11.676 13.4406 11.612 13.4406 11.54C13.4406 11.364 13.5206 11.16 13.6806 10.928C13.8406 10.688 14.0886 10.48 14.4246 10.304C14.7606 10.128 15.1726 10.04 15.6606 10.04C16.5166 10.04 17.1246 10.244 17.4846 10.652C17.8446 11.06 18.0246 11.556 18.0246 12.14V16.136C18.0246 16.216 18.0006 16.28 17.9526 16.328C17.9046 16.376 17.8406 16.4 17.7606 16.4H17.5566C17.4766 16.4 17.4126 16.376 17.3646 16.328C17.3166 16.28 17.2926 16.216 17.2926 16.136V15.572C17.1166 15.836 16.8566 16.06 16.5126 16.244C16.1766 16.428 15.7286 16.52 15.1686 16.52ZM15.2886 15.824C15.8726 15.824 16.3526 15.632 16.7286 15.248C17.1046 14.864 17.2926 14.312 17.2926 13.592V13.184L15.7446 13.4C15.0886 13.488 14.5926 13.64 14.2566 13.856C13.9206 14.072 13.7526 14.344 13.7526 14.672C13.7526 15.04 13.9046 15.324 14.2086 15.524C14.5206 15.724 14.8806 15.824 15.2886 15.824Z" fill="currentColor"/>
</svg>
