<svg xmlns="http://www.w3.org/2000/svg" width="10" height="10" viewBox="0 0 10 10" fill="none">
    <path
            d="M2.06411 10C1.45744 10 0.972109 9.82233 0.608109 9.467C0.252776 9.11167 0.0751094 8.635 0.0751094 8.037C0.0751094 7.40433 0.261443 6.91467 0.634109 6.568C1.01544 6.21267 1.57444 6.035 2.31111 6.035H3.07811V4.605H2.31111C1.57444 4.605 1.01544 4.43167 0.634109 4.085C0.261443 3.72967 0.0751094 3.23567 0.0751094 2.603C0.0751094 2.005 0.252776 1.52833 0.608109 1.173C0.972109 0.817666 1.45744 0.64 2.06411 0.64C2.54944 0.64 2.93078 0.730999 3.20811 0.912999C3.49411 1.095 3.69344 1.33767 3.80611 1.641C3.92744 1.94433 3.98811 2.278 3.98811 2.642V3.721H5.41811V2.642C5.41811 2.278 5.47444 1.94433 5.58711 1.641C5.70844 1.33767 5.90778 1.095 6.18511 0.912999C6.47111 0.730999 6.85678 0.64 7.34211 0.64C7.94878 0.64 8.42978 0.817666 8.78511 1.173C9.14911 1.52833 9.33111 2.005 9.33111 2.603C9.33111 3.23567 9.14478 3.72967 8.77211 4.085C8.39944 4.43167 7.84044 4.605 7.09511 4.605H6.32811V6.035H7.09511C7.84044 6.035 8.39944 6.21267 8.77211 6.568C9.14478 6.91467 9.33111 7.40433 9.33111 8.037C9.33111 8.635 9.14911 9.11167 8.78511 9.467C8.42978 9.82233 7.94878 10 7.34211 10C6.85678 10 6.47111 9.909 6.18511 9.727C5.90778 9.545 5.70844 9.30233 5.58711 8.999C5.47444 8.69567 5.41811 8.362 5.41811 7.998V6.919H3.98811V7.998C3.98811 8.362 3.92744 8.69567 3.80611 8.999C3.69344 9.30233 3.49411 9.545 3.20811 9.727C2.93078 9.909 2.54944 10 2.06411 10ZM6.32811 2.616V3.721H7.09511C7.55444 3.721 7.88811 3.63 8.09611 3.448C8.30411 3.25733 8.40811 2.97567 8.40811 2.603C8.40811 2.22167 8.30411 1.94867 8.09611 1.784C7.89678 1.61933 7.64544 1.537 7.34211 1.537C7.00411 1.537 6.74844 1.63667 6.57511 1.836C6.41044 2.02667 6.32811 2.28667 6.32811 2.616ZM2.31111 3.721H3.07811V2.616C3.07811 2.28667 2.99144 2.02667 2.81811 1.836C2.65344 1.63667 2.40211 1.537 2.06411 1.537C1.76078 1.537 1.50511 1.61933 1.29711 1.784C1.09778 1.94867 0.998109 2.22167 0.998109 2.603C0.998109 2.97567 1.10211 3.25733 1.31011 3.448C1.51811 3.63 1.85178 3.721 2.31111 3.721ZM3.98811 6.035H5.41811V4.605H3.98811V6.035ZM2.06411 9.103C2.40211 9.103 2.65344 9.00767 2.81811 8.817C2.99144 8.61767 3.07811 8.35333 3.07811 8.024V6.919H2.31111C1.85178 6.919 1.51811 7.01433 1.31011 7.205C1.10211 7.387 0.998109 7.66433 0.998109 8.037C0.998109 8.41833 1.09778 8.69133 1.29711 8.856C1.50511 9.02067 1.76078 9.103 2.06411 9.103ZM6.32811 8.024C6.32811 8.35333 6.41044 8.61767 6.57511 8.817C6.74844 9.00767 7.00411 9.103 7.34211 9.103C7.64544 9.103 7.89678 9.02067 8.09611 8.856C8.30411 8.69133 8.40811 8.41833 8.40811 8.037C8.40811 7.66433 8.30411 7.387 8.09611 7.205C7.88811 7.01433 7.55444 6.919 7.09511 6.919H6.32811V8.024Z"
            fill="currentColor"
    />
</svg>