<svg width="16" height="16" viewBox="0 0 16 16" fill="none" xmlns="http://www.w3.org/2000/svg" id="community">
<path d="M3.63378 1H12.3803C13.8301 1 15.0141 2.1839 15.0141 3.63378V12.3803C15.0141 13.8301 13.8302 15.0141 12.3803 15.0141H3.63378C2.184 15.0141 1 13.8302 1 12.3803V3.63378C1 2.184 2.1839 1 3.63378 1ZM3.62276 10.7422H5.64164V12.0041H3.62276V10.7422ZM7.37232 10.7422H12.3912V12.0041H7.37232V10.7422ZM3.62276 7.37577H5.64164V8.63771H3.62276V7.37577ZM7.37232 7.37577H12.3912V8.63771H7.37232V7.37577ZM3.62276 4.00936H5.64164V5.2713H3.62276V4.00936ZM7.37232 4.00936H12.3912V5.2713H7.37232V4.00936ZM12.3803 2.26168H3.63373C2.88079 2.26168 2.2621 2.88037 2.2621 3.63331V12.3798C2.2621 13.1333 2.88079 13.7515 3.63373 13.7515H12.3803C13.1337 13.7515 13.7519 13.1332 13.7519 12.3798V3.63331C13.7519 2.88037 13.1336 2.26168 12.3803 2.26168Z" fill="currentColor"/>
</svg>
