<svg width="12" height="12" viewBox="0 0 12 12" fill="none" xmlns="http://www.w3.org/2000/svg">
    <path d="M2.14338 2.60123C2.14583 2.72364 2.19681 2.84006 2.28509 2.92488C2.37338 3.00971 2.49175 3.05599 2.61415 3.05354C2.73656 3.05109 2.85298 3.00012 2.93781 2.91183C3.02263 2.82354 3.06891 2.70518 3.06646 2.58277L2.14338 2.60123ZM2.592 1.95231L2.13046 1.95138V1.96246L2.592 1.95323V1.95231ZM4.08277 0.461538V0H4.08185L4.08277 0.461538ZM9.83354 0.461538L9.83538 0H9.83446V0.461538H9.83354ZM11.5385 2.16554H12V2.16462L11.5385 2.16554ZM11.5385 7.91631L12 7.91815V7.91723H11.5385V7.91631ZM10.0477 9.408V9.86954H10.0486L10.0477 9.408ZM9.408 8.94646C9.28559 8.94646 9.1682 8.99509 9.08164 9.08164C8.99509 9.1682 8.94646 9.28559 8.94646 9.408C8.94646 9.53041 8.99509 9.6478 9.08164 9.73436C9.1682 9.82091 9.28559 9.86954 9.408 9.86954V8.94646ZM7.89046 2.13046H1.97908V3.05354H7.89046V2.13046ZM1.97908 2.13046C0.886154 2.13046 0 3.01662 0 4.10954H0.923077C0.923077 3.52615 1.39569 3.05354 1.97908 3.05354V2.13046ZM0 4.10954V10.0209H0.923077V4.10954H0ZM0 10.0209C0 11.1138 0.886154 12 1.97908 12V11.0769C1.69901 11.0769 1.43041 10.9657 1.23237 10.7676C1.03433 10.5696 0.923077 10.301 0.923077 10.0209H0ZM1.97908 12H7.89046V11.0769H1.97908V12ZM7.89046 12C8.98339 12 9.86954 11.1138 9.86954 10.0209H8.94646C8.94646 10.6043 8.47385 11.0769 7.89046 11.0769V12ZM9.86954 10.0209V4.10954H8.94646V10.0209H9.86954ZM9.86954 4.10954C9.86954 3.01662 8.98339 2.13046 7.89046 2.13046V3.05354C8.47385 3.05354 8.94646 3.52615 8.94646 4.10954H9.86954ZM3.06646 2.58185L3.05354 1.94308L2.13046 1.96154L2.14338 2.60123L3.06646 2.58277V2.58185ZM3.05354 1.95415C3.05354 1.68092 3.16246 1.41877 3.35631 1.22585L2.70369 0.573231C2.33804 0.938842 2.13196 1.43431 2.13046 1.95138L3.05354 1.95415ZM3.35631 1.22585C3.54923 1.032 3.81138 0.924 4.08369 0.923077L4.08185 0C3.5649 0.00125296 3.06945 0.206998 2.70369 0.572308L3.35631 1.22585ZM4.08277 0.923077H9.83354V0H4.08277V0.923077ZM9.83354 0.923077C10.1622 0.924 10.4788 1.05508 10.7114 1.28862L11.364 0.636C10.9585 0.230411 10.4089 0.00176586 9.83538 0L9.83262 0.923077H9.83354ZM10.7114 1.28862C10.9449 1.52123 11.076 1.83785 11.0769 2.16738L12 2.16462C11.9982 1.59107 11.7696 1.04153 11.364 0.636L10.7114 1.28862ZM11.0769 2.16554V7.91631H12V2.16554H11.0769ZM11.0769 7.91631C11.0769 8.18862 10.9671 8.45077 10.7742 8.64369L11.4268 9.29631C11.7924 8.9307 11.9985 8.43523 12 7.91815L11.0769 7.91631ZM10.7742 8.64369C10.5809 8.83689 10.3191 8.94575 10.0458 8.94646L10.0486 9.86954C10.5656 9.86829 11.061 9.66254 11.4268 9.29723L10.7742 8.64369ZM10.0477 8.94646H9.408V9.86954H10.0477V8.94646Z" fill="currentColor"/>
</svg>
