<svg
        xmlns="http://www.w3.org/2000/svg"
        width="13"
        height="12"
        viewBox="0 0 13 12"
        fill="none"
>
    <path
            d="M8.69231 3.07751L7.69355 2.08921C7.37607 1.77505 6.86317 1.78061 6.55257 2.10157C6.24653 2.41782 6.25234 2.92158 6.56559 3.23069L8.1339 4.77824C8.28206 4.92064 8.47832 5 8.68234 5C8.88635 5 9.08261 4.92064 9.23077 4.77824L12.4264 1.72274C12.7443 1.41883 12.7585 0.915752 12.4583 0.594368C12.1529 0.267354 11.639 0.253147 11.316 0.562783L8.69231 3.07751Z"
            fill="currentColor"
    />
    <path
            d="M10.3189 9.31255C10.3189 10.004 9.75645 10.5665 9.06499 10.5665H2.68748C1.99602 10.5665 1.43358 10.004 1.43358 9.31255V2.93504C1.43358 2.24358 1.99602 1.68114 2.68748 1.68114H3.94473C4.3406 1.68114 4.66152 1.36022 4.66152 0.964348C4.66152 0.568476 4.3406 0.247559 3.94473 0.247559H2.68748C1.20564 0.247559 0 1.4532 0 2.93504V9.31255C0 10.7944 1.20564 12 2.68748 12H9.06499C10.5468 12 11.7525 10.7944 11.7525 9.31255V8.05482C11.7525 7.65895 11.4316 7.33803 11.0357 7.33803C10.6398 7.33803 10.3189 7.65895 10.3189 8.05482V9.31255Z"
            fill="currentColor"
    />
</svg>