<svg width="24" height="24" viewBox="0 0 24 24" fill="none" xmlns="http://www.w3.org/2000/svg">
<path d="M18.9998 12.0002C18.9998 15.866 15.866 18.9998 12.0002 18.9998C8.13435 18.9998 5.00049 15.866 5.00049 12.0002C5.00049 8.13435 8.13435 5.00049 12.0002 5.00049C15.866 5.00049 18.9998 8.13435 18.9998 12.0002Z" fill="black"/>
<path d="M9.96487 10.4357L8.09735 11.6596C8.01102 11.7162 7.92194 11.8434 7.92194 12.0026C7.92194 12.1212 7.96686 12.2421 8.09735 12.3371C8.22784 12.432 9.9236 13.5371 9.9236 13.5371C10.1205 13.6778 10.3581 13.6682 10.5117 13.4886C10.6652 13.3089 10.6296 13.0105 10.4415 12.8843L9.82379 12.4824L9.21953 12.0858C9.13591 12.0292 9.17039 11.9427 9.21953 11.9159C9.25268 11.8978 9.57779 11.6837 9.90073 11.4711L9.90095 11.471C10.1083 11.3345 10.3147 11.1986 10.4424 11.1155C10.5981 11.0141 10.7074 10.7557 10.5198 10.5237C10.3321 10.2918 10.0801 10.3645 9.96487 10.4357Z" fill="white"/>
<path d="M14.035 10.4357L15.9026 11.6596C15.9889 11.7162 16.078 11.8434 16.078 12.0026C16.078 12.1212 16.0331 12.2421 15.9026 12.3371C15.7721 12.432 14.0763 13.5371 14.0763 13.5371C13.8795 13.6778 13.6418 13.6682 13.4882 13.4886C13.3347 13.3089 13.3704 13.0105 13.5584 12.8843L14.1761 12.4824L14.7804 12.0858C14.864 12.0292 14.8295 11.9427 14.7804 11.9159C14.7472 11.8978 14.4221 11.6837 14.0992 11.4711L14.099 11.471C13.8917 11.3345 13.6853 11.1986 13.5576 11.1155C13.4018 11.0141 13.2925 10.7557 13.4802 10.5237C13.6678 10.2918 13.9199 10.3645 14.035 10.4357Z" fill="white"/>
</svg>
