<svg width="24" height="24" viewBox="0 0 24 24" fill="none" xmlns="http://www.w3.org/2000/svg">
<path d="M9.75 15C10.0152 15 10.2696 15.1054 10.4571 15.2929C10.6446 15.4804 10.75 15.7348 10.75 16C10.75 16.2652 10.6446 16.5196 10.4571 16.7071C10.2696 16.8946 10.0152 17 9.75 17C9.48478 17 9.23043 16.8946 9.04289 16.7071C8.85536 16.5196 8.75 16.2652 8.75 16C8.75 15.7348 8.85536 15.4804 9.04289 15.2929C9.23043 15.1054 9.48478 15 9.75 15ZM9.75 11C10.0152 11 10.2696 11.1054 10.4571 11.2929C10.6446 11.4804 10.75 11.7348 10.75 12C10.75 12.2652 10.6446 12.5196 10.4571 12.7071C10.2696 12.8946 10.0152 13 9.75 13C9.48478 13 9.23043 12.8946 9.04289 12.7071C8.85536 12.5196 8.75 12.2652 8.75 12C8.75 11.7348 8.85536 11.4804 9.04289 11.2929C9.23043 11.1054 9.48478 11 9.75 11ZM9.75 7C10.0152 7 10.2696 7.10536 10.4571 7.29289C10.6446 7.48043 10.75 7.73478 10.75 8C10.75 8.26522 10.6446 8.51957 10.4571 8.70711C10.2696 8.89464 10.0152 9 9.75 9C9.48478 9 9.23043 8.89464 9.04289 8.70711C8.85536 8.51957 8.75 8.26522 8.75 8C8.75 7.73478 8.85536 7.48043 9.04289 7.29289C9.23043 7.10536 9.48478 7 9.75 7V7ZM14.25 15C14.5152 15 14.7696 15.1054 14.9571 15.2929C15.1446 15.4804 15.25 15.7348 15.25 16C15.25 16.2652 15.1446 16.5196 14.9571 16.7071C14.7696 16.8946 14.5152 17 14.25 17C13.9848 17 13.7304 16.8946 13.5429 16.7071C13.3554 16.5196 13.25 16.2652 13.25 16C13.25 15.7348 13.3554 15.4804 13.5429 15.2929C13.7304 15.1054 13.9848 15 14.25 15ZM14.25 11C14.5152 11 14.7696 11.1054 14.9571 11.2929C15.1446 11.4804 15.25 11.7348 15.25 12C15.25 12.2652 15.1446 12.5196 14.9571 12.7071C14.7696 12.8946 14.5152 13 14.25 13C13.9848 13 13.7304 12.8946 13.5429 12.7071C13.3554 12.5196 13.25 12.2652 13.25 12C13.25 11.7348 13.3554 11.4804 13.5429 11.2929C13.7304 11.1054 13.9848 11 14.25 11ZM14.25 7C14.5152 7 14.7696 7.10536 14.9571 7.29289C15.1446 7.48043 15.25 7.73478 15.25 8C15.25 8.26522 15.1446 8.51957 14.9571 8.70711C14.7696 8.89464 14.5152 9 14.25 9C13.9848 9 13.7304 8.89464 13.5429 8.70711C13.3554 8.51957 13.25 8.26522 13.25 8C13.25 7.73478 13.3554 7.48043 13.5429 7.29289C13.7304 7.10536 13.9848 7 14.25 7V7Z" fill="currentColor"/>
</svg>
