<svg xmlns="http://www.w3.org/2000/svg" width="12" height="15" viewBox="0 0 12 15" fill="none">
    <path
            fill-rule="evenodd"
            clip-rule="evenodd"
            d="M1.90909 4.45455C1.6921 4.45455 1.48399 4.54075 1.33055 4.69419C1.17711 4.84762 1.09091 5.05573 1.09091 5.27273V12.3636C1.09091 12.5806 1.17711 12.7887 1.33055 12.9422C1.48399 13.0956 1.6921 13.1818 1.90909 13.1818H10.0909C10.3079 13.1818 10.516 13.0956 10.6695 12.9422C10.8229 12.7887 10.9091 12.5806 10.9091 12.3636V5.27273C10.9091 5.05573 10.8229 4.84762 10.6695 4.69419C10.516 4.54075 10.3079 4.45455 10.0909 4.45455H8.72727C8.42603 4.45455 8.18182 4.21034 8.18182 3.90909C8.18182 3.60784 8.42603 3.36364 8.72727 3.36364H10.0909C10.5972 3.36364 11.0828 3.56477 11.4408 3.9228C11.7989 4.28082 12 4.76641 12 5.27273V12.3636C12 12.87 11.7989 13.3555 11.4408 13.7136C11.0828 14.0716 10.5972 14.2727 10.0909 14.2727H1.90909C1.40277 14.2727 0.917184 14.0716 0.55916 13.7136C0.201136 13.3555 0 12.87 0 12.3636V5.27273C0 4.76641 0.201136 4.28082 0.55916 3.9228C0.917184 3.56477 1.40277 3.36364 1.90909 3.36364H3.27273C3.57397 3.36364 3.81818 3.60784 3.81818 3.90909C3.81818 4.21034 3.57397 4.45455 3.27273 4.45455H1.90909Z"
            fill="currentColor"
    />
    <path
            fill-rule="evenodd"
            clip-rule="evenodd"
            d="M2.88703 6.79612C3.10005 6.58311 3.44541 6.58311 3.65842 6.79612L6 9.1377L8.34158 6.79612C8.55459 6.58311 8.89996 6.58311 9.11297 6.79612C9.32598 7.00914 9.32598 7.3545 9.11297 7.56751L6.38569 10.2948C6.17268 10.5078 5.82732 10.5078 5.61431 10.2948L2.88703 7.56751C2.67402 7.3545 2.67402 7.00914 2.88703 6.79612Z"
            fill="currentColor"
    />
    <path
            fill-rule="evenodd"
            clip-rule="evenodd"
            d="M6 0C6.30125 0 6.54545 0.244208 6.54545 0.545455V9.36364C6.54545 9.66488 6.30125 9.90909 6 9.90909C5.69875 9.90909 5.45455 9.66488 5.45455 9.36364V0.545455C5.45455 0.244208 5.69875 0 6 0Z"
            fill="currentColor"
    />
</svg>