<svg
        width="12"
        height="12"
        viewBox="0 0 12 12"
        fill="none"
        xmlns="http://www.w3.org/2000/svg"
>
    <path
            d="M8.63995 0H0.479997C0.215038 0 0 0.215038 0 0.479997V8.63995C0 8.90491 0.215038 9.11995 0.479997 9.11995H8.63995C8.90491 9.11995 9.11995 8.90491 9.11995 8.63995V0.479997C9.11995 0.215038 8.90491 0 8.63995 0ZM8.15995 8.15995H0.959994V0.959994H8.15995V8.15995Z"
            fill="currentColor"
    />
    <path
            d="M11.0398 9.83979V11.0398H9.83979V11.9997H11.5198C11.7847 11.9997 11.9998 11.7847 11.9998 11.5198V9.83979H11.0398Z"
            fill="currentColor"
    />
    <path d="M8.73176 11.04H6.14938V12H8.73176V11.04Z" fill="currentColor" />
    <path
            d="M3.83986 11.0398V9.83979H2.87987V11.5198C2.87987 11.7847 3.0949 11.9997 3.35986 11.9997H5.03985V11.0398H3.83986Z"
            fill="currentColor"
    />
    <path
            d="M11.5198 2.88011H9.83979V3.8401H11.0398V5.04009H11.9998V3.36011C11.9998 3.09515 11.7847 2.88011 11.5198 2.88011Z"
            fill="currentColor"
    />
    <path d="M12 6.14865H11.04V8.73102H12V6.14865Z" fill="currentColor" />
</svg>