<svg
        xmlns="http://www.w3.org/2000/svg"
        width="12"
        height="12"
        viewBox="0 0 12 12"
        fill="none"
>
    <path
            d="M11.6667 2.1644H9.8356V0.333333C9.8356 0.1492 9.6864 0 9.50227 0H0.333333C0.1492 0 0 0.1492 0 0.333333V9.50227C0 9.6864 0.1492 9.8356 0.333333 9.8356H2.1644V11.6667C2.1644 11.8508 2.3136 12 2.49773 12H11.6667C11.6885 12 11.7104 11.9977 11.7319 11.9935C11.7419 11.9915 11.7512 11.9877 11.7608 11.9849C11.772 11.9816 11.7832 11.9791 11.794 11.9747C11.8055 11.9699 11.8159 11.9635 11.8267 11.9575C11.8349 11.9529 11.8435 11.9493 11.8513 11.944C11.888 11.9196 11.9193 11.8881 11.9439 11.8515C11.9491 11.8437 11.9525 11.8352 11.9571 11.8272C11.9631 11.8163 11.9696 11.8057 11.9744 11.7941C11.9788 11.7833 11.9813 11.7721 11.9847 11.7611C11.9876 11.7513 11.9913 11.742 11.9933 11.7319C11.9977 11.7104 12 11.6885 12 11.6667V2.49773C12 2.31373 11.8508 2.1644 11.6667 2.1644ZM0.666667 9.16893V0.666667H9.16893V2.49773V9.1688H2.49773H0.666667V9.16893ZM2.83107 11.3333V10.3069L3.8576 11.3333H2.83107ZM4.80027 11.3333L3.30253 9.8356H4.11093L5.60867 11.3333H4.80027ZM6.55133 11.3333L5.0536 9.8356H5.862L7.35973 11.3333H6.55133ZM8.30253 11.3333L6.80467 9.8356H7.61307L9.11093 11.3333H8.30253ZM10.0536 11.3333L8.55573 9.8356H9.36413L10.862 11.3333H10.0536ZM11.3333 10.862L9.8356 9.36413V8.55573L11.3333 10.0536V10.862ZM11.3333 9.11093L9.8356 7.61307V6.80467L11.3333 8.30253V9.11093ZM11.3333 7.35973L9.8356 5.862V5.0536L11.3333 6.55133V7.35973ZM11.3333 5.60867L9.8356 4.11093V3.30253L11.3333 4.80027V5.60867ZM11.3333 3.8576L10.3069 2.8312H11.3333V3.8576Z"
            fill="currentColor"
    />
</svg>