<svg
        xmlns="http://www.w3.org/2000/svg"
        xmlns:xlink="http://www.w3.org/1999/xlink"
        width="13px"
        height="14px"
        viewBox="0 0 13 14"
>
    <path
            d="M3.48998,2.62471724 L3.48998,1.74193 C3.48998,1.05147927 3.86859869,0.408212037 4.47384029,0.0598974116 C4.77112195,-0.111189007 5.10704541,-0.2 5.44774,-0.2 C5.78835039,-0.2 6.12391105,-0.111227562 6.42125894,0.0598969678 C7.02070895,0.404878548 7.38502,1.04480626 7.38502,1.74193 L7.38502,2.62472274 L8.15392215,2.17270261 C8.75617516,1.82597418 9.49888591,1.82576805 10.1009478,2.17228958 C10.7033708,2.51893079 11.075,3.16063839 11.075,3.85433 C11.075,4.54945597 10.7043436,5.19420893 10.1037256,5.53987464 L9.30925655,5.99994279 L10.1009503,6.46323097 C10.7034362,6.80991957 11.075,7.45128338 11.075,8.1449 C11.075,8.83859161 10.7033708,9.48029921 10.1009645,9.82693084 C9.49882501,10.1734859 8.75612956,10.1734859 8.15350007,9.82667371 L7.38524147,9.38187656 L7.39526,10.2581 C7.39526,10.9518546 7.02389947,11.5934561 6.42165276,11.9400361 C6.12237314,12.1123023 5.78072338,12.201468 5.43663163,12.1999981 C5.09934011,12.1985336 4.76959738,12.1100995 4.47422347,11.9400454 C3.86886084,11.5916723 3.48998,10.9484039 3.48998,10.2581 L3.48998,9.38176507 L2.72105135,9.82767265 C2.11887252,10.1742358 1.37655736,10.1742358 0.774381781,9.82767387 C0.171905426,9.48094935 -0.2,8.83917399 -0.2,8.14564 C-0.2,7.45062577 0.170910278,6.80581409 0.771606214,6.46011517 L1.56606312,5.99984441 L0.774002503,5.53635371 C0.171639643,5.18969323 -0.2,4.54797178 -0.2,3.85432 C-0.2,3.16066168 0.171636636,2.5189485 0.774029289,2.17227087 C1.37613504,1.82588219 2.11881484,1.82608215 2.72265139,2.17359808 L3.48998,2.62471724 Z M5.44774,0.2 C5.17671135,0.2 4.90962928,0.270610799 4.67335894,0.406585032 C4.19114581,0.684097164 3.88998,1.19577317 3.88998,1.74193 L3.88998,2.63634 C3.88998,2.77711235 3.81525125,2.90673139 3.69351252,2.97724483 C3.57154916,3.04788839 3.42234084,3.04788839 3.29925861,2.97659192 L2.52153106,2.51935403 C2.04276782,2.24382731 1.45206772,2.24366827 0.973521497,2.51897371 C0.495102367,2.79430445 0.2,3.30386421 0.2,3.85432 C0.2,4.40476957 0.495105648,4.91433744 0.974771782,5.19039186 L1.77571252,5.65907517 C1.89745215,5.72958913 1.97217,5.8592087 1.97217,5.99998 C1.97217,6.1407924 1.89703944,6.27038982 1.77534979,6.34087483 L0.971625219,6.80651387 C0.494764675,7.08094662 0.2,7.59338242 0.2,8.14564 C0.2,8.69592982 0.495335216,9.20557246 0.97390249,9.48098743 C1.45256264,9.7564642 2.04286748,9.7564642 2.52095814,9.48131694 L3.31174496,9.02273242 C3.43370258,8.9520804 3.58330707,8.9520804 3.70527252,9.02272517 C3.82921495,9.09451503 3.88998,9.22205311 3.88998,9.36326 L3.88998,10.2581 C3.88998,10.8040618 4.19136796,11.3157619 4.67376862,11.5933731 C4.90881755,11.7286965 5.17035345,11.7988382 5.43835433,11.8000018 C5.71232221,11.8011721 5.98447995,11.7301429 6.22212347,11.5933546 C6.70040263,11.3181153 6.99526,10.8086886 6.99527311,10.2603895 L6.98503229,9.36586697 C6.98346222,9.22423431 7.04581953,9.09473718 7.17010748,9.02273517 C7.29207084,8.95209161 7.44128916,8.95209161 7.56321993,9.02271629 L8.35346894,9.48024597 C8.83213044,9.75571415 9.42281499,9.75571415 9.90145215,9.48023958 C10.3799102,9.20492925 10.675,8.69538536 10.675,8.1449 C10.675,7.59451257 10.379995,7.0852984 9.90018826,6.809197 L9.09928748,6.34052483 C8.97756659,6.27002173 8.90283,6.1407841 8.90283,5.99999 C8.90283,5.85918375 8.97796409,5.7295899 9.09968441,5.65907536 L9.90373828,5.19345756 C10.3804537,4.91909917 10.675,4.40673908 10.675,3.85433 C10.675,3.30384464 10.3799102,2.79430075 9.9014331,2.51897945 C9.42291902,2.24356687 8.83224989,2.2437308 8.35506974,2.51844288 L7.57463504,2.97724758 C7.45267742,3.0478996 7.30345293,3.0478996 7.18162133,2.9773323 C7.05957429,2.90676625 6.98502,2.77722272 6.98502,2.63634 L6.98502,1.74193 C6.98502,1.1868935 6.69625558,0.679666639 6.22174029,0.406584588 C5.98538426,0.270561045 5.71866284,0.2 5.44774,0.2 Z M5.44774,0.587096 C5.24485,0.587096 5.04506386,0.639937017 4.86791016,0.741891332 C4.50500317,0.950746545 4.27832,1.33378853 4.27831912,1.74252481 L4.27564388,2.63886951 C4.27210643,2.91744008 4.12549955,3.17413221 3.88654655,3.3125325 C3.64574184,3.45201876 3.34816162,3.45201876 3.10627791,3.31191089 L2.32738862,2.85428989 C1.96845609,2.64780133 1.52686462,2.64796368 1.16769232,2.85466209 C0.80878368,3.0612222 0.588339,3.44167276 0.588339,3.85433 C0.588339,4.26951603 0.808298336,4.65360453 1.16548003,4.85916056 L1.96871655,5.3241475 C2.20931194,5.46351251 2.35783,5.72155113 2.35783,5.99998 C2.35783,6.27831724 2.20900261,6.53640655 1.9683599,6.67579897 L1.16538727,7.14106499 C0.808647443,7.34636306 0.588694,7.73044786 0.588694,8.14564 C0.588694,8.55857437 0.808994062,8.93926615 1.16769458,9.14570648 C1.52683435,9.35248858 1.96877395,9.35264393 2.32720768,9.14636664 L3.1186907,8.6878033 C3.23752379,8.61897581 3.37210638,8.58313635 3.50850014,8.58300008 C3.64499124,8.58287734 3.77933065,8.61853137 3.8982693,8.6874333 C4.13670742,8.82553538 4.27537176,9.08164108 4.27562983,9.3630085 L4.2768,10.2581 C4.2768,10.6653859 4.50462821,11.048835 4.86829225,11.2580579 C5.04291117,11.3585549 5.23925223,11.4113493 5.43901275,11.4129057 C5.64482059,11.4144624 5.84771367,11.3615849 6.02759421,11.2580426 C6.37892598,11.0559148 6.58796,10.6797952 6.58796,10.2581 L6.58796,9.36365 C6.58796,9.08516754 6.73652453,8.82676214 6.9770662,8.6874417 C7.0960531,8.61851182 7.23045496,8.58262 7.36668,8.58262 C7.50290504,8.58262 7.6373069,8.61851182 7.75614018,8.6873528 L8.54764054,9.14493689 C8.90669185,9.3515742 9.34826668,9.3515742 9.70731611,9.14493306 C10.0662423,8.93838608 10.2867,8.55793259 10.2867,8.14528 C10.2867,7.73035616 10.0665996,7.34651615 9.7091198,7.14080197 L8.90625345,6.6758425 C8.66565917,6.53647813 8.51714,6.27843016 8.51714,5.99998069 C8.51716688,5.72159437 8.66602193,5.46316186 8.90572918,5.32431446 L9.70731302,4.85438484 C10.0661584,4.64787583 10.2867,4.26709895 10.2867,3.85434 C10.2867,3.44168182 10.0662459,3.06123451 9.70728292,2.85465784 C9.34813028,2.64788902 8.90656615,2.64772668 8.54919373,2.85337993 L7.7676451,3.31255913 C7.52683481,3.45202736 7.22926173,3.45202736 6.98845345,3.3125525 C6.74738399,3.17291288 6.59669,2.91423182 6.59669,2.63634 L6.59669,1.74193 C6.59669,1.32461343 6.38209971,0.946158718 6.02718891,0.741890798 C5.84994682,0.639885617 5.65052094,0.587096 5.44774,0.587096 Z M5.44774,0.187096 C5.72022906,0.187096 5.98849323,0.258107657 6.2267155,0.395207743 C6.70679041,0.671513517 6.99669,1.18278487 6.99669,1.74193 L6.99669,2.63634 C6.99669,2.77082208 7.07075767,2.89796653 7.1889393,2.9664233 C7.30573827,3.03407264 7.45036519,3.03407264 7.56609627,2.96705007 L8.34812255,2.50759511 C8.83062333,2.22992297 9.42421903,2.2301412 9.90682698,2.50798484 C10.389678,2.78585681 10.6867,3.29844074 10.6867,3.85434 C10.6867,4.4103089 10.3896174,4.92323809 9.90822082,5.20026554 L9.10712655,5.6699125 C8.9900325,5.7377393 8.91715311,5.86426778 8.91714,6 C8.91714,6.13582488 8.98971928,6.26192939 9.1067302,6.32970803 L9.90910342,6.79438279 C10.3906325,7.07148083 10.6867,7.58780215 10.6867,8.14528 C10.6867,8.70117485 10.3896729,9.2137676 9.90683232,9.49162209 C9.42427332,9.7693458 8.83068815,9.7693458 8.34777982,9.4914272 L7.5557862,9.0335583 C7.49791649,9.000034 7.43270736,8.98262 7.36668,8.98262 C7.30065264,8.98262 7.23544351,9.000034 7.1775593,9.0335667 C7.06064278,9.10128412 6.98796,9.22770476 6.98796,9.36365 L6.98796,10.2581 C6.98796,10.8203913 6.70478342,11.3299173 6.2271046,11.604735 C5.98538092,11.7438753 5.71252624,11.814986 5.43594181,11.8128939 C5.1674841,11.8108023 4.90344632,11.7398049 4.66879421,11.6047574 C4.18261923,11.3250516 3.8768,10.8103388 3.87680017,10.2583615 L3.87563008,9.36345345 C3.87549911,9.22065951 3.80910993,9.0980422 3.6977762,9.0335583 C3.64017768,9.0001911 3.57517898,8.98294028 3.50887982,8.9829999 C3.44239997,8.98306632 3.37686923,9.00051721 3.31919232,9.03392336 L2.52722923,9.49276387 C2.04471874,9.7704482 1.45073845,9.7702394 0.968137675,9.49237209 C0.485482606,9.21459308 0.188694,8.7017245 0.188694,8.14564 C0.188694,7.58798006 0.48453715,7.07137593 0.965360103,6.79467103 L1.76784345,6.3296875 C1.88505172,6.26179455 1.95783,6.13558594 1.95783,5.99998 C1.95783,5.8641583 1.88525347,5.73806221 1.76826997,5.67029944 L0.96552166,5.20559438 C0.484188517,4.9285909 0.188339,4.41198452 0.188339,3.85433 C0.188339,3.29843712 0.485346027,2.78585279 0.968172551,2.50797511 C1.45080614,2.23022654 2.0443745,2.23000831 2.52843209,2.50848911 L3.30783235,2.96640507 C3.42463838,3.03406124 3.56925816,3.03406124 3.6860607,2.9664033 C3.80171611,2.89941631 3.87390816,2.77301617 3.87566088,2.63573519 L3.87832,1.74193 C3.87832,1.18912077 4.18276013,0.674687569 4.66838891,0.395205202 C4.90654248,0.258144654 5.17516972,0.187096 5.44774,0.187096 Z"
            id="Shape"
            fill="currentColor"
    />
</svg>