<svg xmlns="http://www.w3.org/2000/svg" width="12" height="12" viewBox="0 0 12 12" fill="none">
    <path
            d="M12 6C12 6.25889 11.7901 6.46875 11.5312 6.46875C11.2724 6.46875 11.0625 6.25889 11.0625 6C11.0625 3.20852 8.79148 0.9375 6 0.9375C3.20852 0.9375 0.9375 3.20852 0.9375 6C0.9375 8.79148 3.20852 11.0625 6 11.0625C6.81668 11.0625 7.59605 10.8742 8.31645 10.5027C8.54658 10.3841 8.82926 10.4745 8.94788 10.7046C9.06652 10.9346 8.97614 11.2174 8.74605 11.336C7.90357 11.7704 6.95398 12 6 12C4.39734 12 2.89062 11.3759 1.75734 10.2427C0.624117 9.10938 0 7.60266 0 6C0 4.39734 0.624117 2.89062 1.75734 1.75734C2.89062 0.624117 4.39734 0 6 0C7.60266 0 9.10938 0.624117 10.2427 1.75734C11.3759 2.89062 12 4.39734 12 6ZM11.4343 7.70583C11.6209 7.88527 11.6267 8.18198 11.4473 8.36862C11.0703 8.76066 10.5633 8.97656 10.0195 8.97656C9.26222 8.97656 8.60313 8.54911 8.27006 7.92298C7.72364 8.56702 6.90881 8.97656 6 8.97656C4.35872 8.97656 3.02344 7.64128 3.02344 6C3.02344 4.35872 4.35872 3.02344 6 3.02344C7.64128 3.02344 8.97656 4.35872 8.97656 6V6.99609C8.97656 7.57118 9.44445 8.03906 10.0195 8.03906C10.3059 8.03906 10.5729 7.92532 10.7715 7.71884C10.9509 7.53223 11.2476 7.52639 11.4343 7.70583ZM8.03906 6C8.03906 4.87566 7.12434 3.96094 6 3.96094C4.87566 3.96094 3.96094 4.87566 3.96094 6C3.96094 7.12434 4.87566 8.03906 6 8.03906C7.12434 8.03906 8.03906 7.12434 8.03906 6Z"
            fill="currentColor"
    />
</svg>