<svg width="24" height="24" viewBox="0 0 24 24" fill="none" xmlns="http://www.w3.org/2000/svg">
    <g>
        <path fill-rule="evenodd" clip-rule="evenodd"
              d="M6 5.5H18C19.3807 5.5 20.5 6.61929 20.5 8V16C20.5 17.3807 19.3807 18.5 18 18.5H6C4.61929 18.5 3.5 17.3807 3.5 16V8C3.5 6.61929 4.61929 5.5 6 5.5ZM2 8C2 5.79086 3.79086 4 6 4H18C20.2091 4 22 5.79086 22 8V16C22 18.2091 20.2091 20 18 20H6C3.79086 20 2 18.2091 2 16V8ZM9.05301 9.73487L6.34873 11.5072C6.22373 11.5892 6.09473 11.7733 6.09473 12.0038C6.09473 12.1757 6.15977 12.3507 6.34873 12.4882C6.53769 12.6257 8.99326 14.2259 8.99326 14.2259C9.27832 14.4296 9.62248 14.4157 9.84482 14.1556C10.0672 13.8955 10.0155 13.4633 9.74326 13.2806L8.84872 12.6986L7.97372 12.1244C7.85263 12.0423 7.90257 11.9171 7.97372 11.8783C8.02172 11.8521 8.49249 11.5421 8.96014 11.2342C9.26046 11.0365 9.5595 10.8396 9.74444 10.7193C9.97003 10.5725 10.1282 10.1983 9.85654 9.86238C9.58485 9.52646 9.21982 9.63183 9.05301 9.73487ZM14.9469 9.73487L17.6511 11.5072C17.7761 11.5892 17.9052 11.7733 17.9052 12.0038C17.9052 12.1757 17.8401 12.3507 17.6511 12.4882C17.4622 12.6257 15.0066 14.2259 15.0066 14.2259C14.7216 14.4296 14.3774 14.4157 14.1551 14.1556C13.9327 13.8955 13.9844 13.4633 14.2566 13.2806L15.1512 12.6986L16.0262 12.1244C16.1472 12.0423 16.0973 11.9171 16.0262 11.8783C15.9782 11.8521 15.5074 11.5421 15.0397 11.2342C14.7394 11.0365 14.4404 10.8396 14.2554 10.7193C14.0298 10.5725 13.8717 10.1983 14.1433 9.86238C14.415 9.52646 14.7801 9.63183 14.9469 9.73487Z"
              fill="currentColor"/>
    </g>
</svg>
