<svg width="144" height="75" viewBox="0 0 144 75" fill="none" xmlns="http://www.w3.org/2000/svg">
<g opacity="0.3">
<path d="M58.24 55.432H21.216L12.272 73.84H0L37.856 0H49.192L84.864 73.84H66.872L58.24 55.432ZM55.224 48.984L40.04 16.432L24.336 48.984H55.224Z" fill="#949CAD"/>
<path d="M110.007 74.88C102.588 74.88 97.0068 73.528 93.2628 70.824C89.5881 68.0507 87.7508 64.168 87.7508 59.176C87.7508 53.9067 89.9348 49.8507 94.3028 47.008C98.6708 44.1653 104.98 42.744 113.231 42.744H126.855V39.312C126.855 35.4293 125.78 32.448 123.631 30.368C121.481 28.288 118.396 27.248 114.375 27.248C110.423 27.248 107.268 28.2533 104.911 30.264C102.623 32.2747 101.201 35.2213 100.647 39.104H89.2068C89.9695 33.488 92.6388 29.224 97.2148 26.312C101.791 23.3307 107.996 21.84 115.831 21.84C124.428 21.84 130.98 23.4347 135.487 26.624C139.993 29.8133 142.247 34.424 142.247 40.456V56.888C142.247 63.1973 142.767 68.848 143.807 73.84H129.455C128.761 71.2053 128.276 68.8827 127.999 66.872C125.988 69.7147 123.388 71.76 120.199 73.008C117.079 74.256 113.681 74.88 110.007 74.88ZM113.231 69.68C117.529 69.68 120.857 68.536 123.215 66.248C125.641 63.8907 126.855 60.7707 126.855 56.888V48.152H117.599C112.953 48.152 109.383 49.1227 106.887 51.064C104.391 52.936 103.143 55.6053 103.143 59.072C103.143 62.608 103.975 65.2773 105.639 67.08C107.372 68.8133 109.903 69.68 113.231 69.68Z" fill="#949CAD"/>
</g>
</svg>
