<svg
        xmlns="http://www.w3.org/2000/svg"
        width="14"
        height="14"
        viewBox="0 0 14 14"
        fill="none"
>
    <path
            d="M6.80267 12.2212L6.80258 12.2211L5.28401 10.703L5.30169 10.6853L5.28401 10.7029C5.17538 10.5943 5.17538 10.4177 5.28401 10.3091C5.39265 10.2005 5.56921 10.2005 5.67784 10.3091M6.80267 12.2212L6.72125 11.3871V11.3518M6.80267 12.2212C6.83201 12.2502 6.8662 12.2715 6.90263 12.285M6.80267 12.2212L6.90263 12.285M5.67784 10.3091L5.66016 10.3268L5.67783 10.3091L5.67784 10.3091ZM5.67784 10.3091L6.72125 11.3518M6.72125 11.3518L6.74625 11.3767V7.7921C6.74625 7.65215 6.85982 7.53857 6.99976 7.53857C7.13971 7.53857 7.25328 7.65215 7.25328 7.7921V11.3765L7.27828 11.3515M6.72125 11.3518V7.7921C6.72125 7.63835 6.84601 7.51357 6.99976 7.51357C7.15351 7.51357 7.27828 7.63835 7.27828 7.7921V11.3515M7.27828 11.3515L8.32115 10.3086C8.42979 10.2 8.60635 10.2 8.71498 10.3086C8.82361 10.4172 8.82361 10.5938 8.71498 10.7024L7.20364 12.2138C7.15568 12.2653 7.08839 12.2986 7.01311 12.3021C7.00866 12.3023 7.00421 12.3024 6.99975 12.3024C6.99418 12.3024 6.98862 12.3023 6.98306 12.3019C6.95574 12.3003 6.92862 12.2946 6.90263 12.285M7.27828 11.3515L6.90263 12.285M6.82048 1.79703L6.80308 1.77963L6.80306 1.77965L6.80298 1.77973L6.82048 1.79703ZM6.82048 1.79703C6.81711 1.8004 6.81383 1.80386 6.81066 1.80741L6.73844 1.87963L7.17923 1.7968C7.16005 1.77783 7.13816 1.76213 7.11445 1.75016C7.08 1.73265 7.04102 1.72277 6.99974 1.72277C6.92975 1.72277 6.86636 1.75115 6.82048 1.79703ZM13.025 11.7329V11.7329V2.26764C13.025 1.5546 12.4449 0.975 11.7324 0.975H2.26759C1.55509 0.975 0.975 1.5546 0.975 2.26764V11.7324C0.975 12.4454 1.55509 13.025 2.26759 13.025H11.7319C12.4449 13.025 13.0245 12.4454 13.025 11.7329ZM10.3077 8.71609L10.3078 8.71618C10.3623 8.77014 10.4336 8.79744 10.5048 8.79744C10.5761 8.79744 10.6474 8.77014 10.7019 8.71618L10.702 8.71609L12.2206 7.19796L12.2207 7.19787C12.2463 7.17193 12.2665 7.14147 12.2804 7.10831C12.2943 7.07526 12.3019 7.03893 12.3019 7.00079C12.3019 6.99154 12.3015 6.98234 12.3006 6.97322C12.2943 6.90939 12.2664 6.84947 12.2206 6.80361L12.2205 6.80372L12.2206 6.80361L10.702 5.28548C10.5934 5.17684 10.4168 5.17684 10.3082 5.28548C10.1995 5.39412 10.1995 5.57069 10.3082 5.67933L10.3259 5.66165L10.3082 5.67933L11.3509 6.72171H7.79172C7.63797 6.72171 7.5132 6.84648 7.5132 7.00024C7.5132 7.15399 7.63797 7.27876 7.79172 7.27876H11.3511L10.3077 8.32225C10.199 8.43088 10.199 8.60745 10.3077 8.71609ZM3.29744 8.716L3.29753 8.71609C3.35204 8.77005 3.42333 8.79735 3.49461 8.79735C3.5659 8.79735 3.63723 8.77003 3.69178 8.71549C3.80041 8.60685 3.80041 8.43028 3.69178 8.32165L2.64912 7.27895H6.20776C6.36199 7.27895 6.48679 7.15421 6.48679 7.00042C6.48679 6.84667 6.36202 6.72189 6.20827 6.72189H2.64877L3.69126 5.67975L3.69127 5.67974C3.7999 5.5711 3.7999 5.39454 3.69127 5.2859C3.58263 5.17726 3.40607 5.17726 3.29744 5.2859L1.78699 6.79641C1.74974 6.83105 1.72198 6.87575 1.70805 6.92619C1.68211 7.01979 1.70588 7.12437 1.77938 7.19787L3.29744 8.716ZM8.32063 3.69211L8.32073 3.6922L8.69729 3.67393L8.71497 3.6916C8.71498 3.6916 8.71498 3.69159 8.71499 3.69159C8.8236 3.58295 8.8236 3.4064 8.71497 3.29776C8.71497 3.29776 8.71497 3.29776 8.71497 3.29776L7.19691 1.77913L7.19681 1.77903C7.17638 1.75881 7.15313 1.74199 7.12797 1.72899C7.08958 1.70904 7.04597 1.69777 6.99974 1.69777C6.91747 1.69777 6.84349 1.73347 6.79249 1.79022L5.28451 3.29827C5.17587 3.40691 5.17587 3.58347 5.28451 3.69211C5.39314 3.80075 5.5697 3.80075 5.67834 3.69211L5.67834 3.69211L6.72123 2.64878V6.20808C6.72123 6.36183 6.84599 6.48661 6.99974 6.48661C7.15403 6.48661 7.27826 6.3618 7.27826 6.20808V2.64891L8.32063 3.69211ZM1.53204 2.26764C1.53204 1.86211 1.86208 1.53206 2.26759 1.53206H11.7324C12.1379 1.53206 12.468 1.86211 12.468 2.26764V11.7329C12.468 12.1384 12.1379 12.4685 11.7324 12.4685H2.26759C1.86208 12.4685 1.53204 12.1384 1.53204 11.7329V2.26764Z"
            fill="currentColor"
            stroke="currentColor"
            stroke-width="0.01"
    />
</svg>