<svg
        xmlns="http://www.w3.org/2000/svg"
        width="14"
        height="14"
        viewBox="0 0 14 14"
        fill="none"
>
    <path
            d="M13.025 11.7329V11.7329V2.26764C13.025 1.5546 12.4449 0.975 11.7324 0.975H2.26759C1.55509 0.975 0.975 1.5546 0.975 2.26764V11.7324C0.975 12.4454 1.55509 13.025 2.26759 13.025H11.7319C12.4449 13.025 13.0245 12.4454 13.025 11.7329ZM10.3077 8.7156L10.3078 8.71569C10.3623 8.76965 10.4336 8.79695 10.5048 8.79695C10.5761 8.79695 10.6474 8.76965 10.7019 8.71569L10.702 8.7156L12.2206 7.19748L12.2207 7.19738C12.2463 7.17144 12.2665 7.14098 12.2804 7.10782C12.2943 7.07477 12.3019 7.03844 12.3019 7.0003C12.3019 6.99105 12.3015 6.98185 12.3006 6.97273C12.2943 6.9089 12.2664 6.84898 12.2206 6.80312L12.2205 6.80323L12.2206 6.80312L10.702 5.285C10.5934 5.17636 10.4168 5.17636 10.3082 5.285C10.1995 5.39363 10.1995 5.5702 10.3082 5.67884L10.3259 5.66116L10.3082 5.67884L11.3509 6.72122H7.79172C7.63797 6.72122 7.5132 6.84599 7.5132 6.99975C7.5132 7.1535 7.63797 7.27828 7.79172 7.27828H11.3511L10.3077 8.32176C10.199 8.4304 10.199 8.60696 10.3077 8.7156ZM3.29744 8.71574L3.29753 8.71583C3.35204 8.76979 3.42333 8.79709 3.49461 8.79709C3.5659 8.79709 3.63723 8.76977 3.69178 8.71523C3.80041 8.60659 3.80041 8.43003 3.69178 8.32139L2.64912 7.27869H6.20776C6.36199 7.27869 6.48679 7.15395 6.48679 7.00016C6.48679 6.84641 6.36202 6.72163 6.20827 6.72163H2.64877L3.69126 5.67949L3.69127 5.67948C3.7999 5.57084 3.7999 5.39428 3.69127 5.28564C3.58263 5.177 3.40607 5.177 3.29744 5.28564L1.78698 6.79616C1.74974 6.83079 1.72198 6.8755 1.70805 6.92593C1.68211 7.01953 1.70588 7.12411 1.77938 7.19761L3.29744 8.71574ZM1.53204 2.26764C1.53204 1.86211 1.86208 1.53206 2.26759 1.53206H11.7324C12.1379 1.53206 12.468 1.86211 12.468 2.26764V11.7329C12.468 12.1384 12.1379 12.4685 11.7324 12.4685H2.26759C1.86208 12.4685 1.53204 12.1384 1.53204 11.7329V2.26764Z"
            fill="currentColor"
            stroke="currentColor"
            stroke-width="0.01"
    />
</svg>