<svg width="24" height="24" viewBox="0 0 24 24" fill="none" xmlns="http://www.w3.org/2000/svg">
<path d="M18.2613 8.08696H12.7307L11.9573 6.31826C11.9165 6.22396 11.8482 6.14349 11.761 6.0869C11.6737 6.03031 11.5714 6.00008 11.4667 6H5.73867C5.27754 6 4.83531 6.1792 4.50924 6.49817C4.18318 6.81715 4 7.24977 4 7.70087V16.2991C4 16.7502 4.18318 17.1829 4.50924 17.5018C4.83531 17.8208 5.27754 18 5.73867 18H18.2613C18.7225 18 19.1647 17.8208 19.4908 17.5018C19.8168 17.1829 20 16.7502 20 16.2991V9.78783C20 9.33673 19.8168 8.9041 19.4908 8.58513C19.1647 8.26615 18.7225 8.08696 18.2613 8.08696ZM18.9333 16.2991C18.934 16.3857 18.9171 16.4715 18.8836 16.5515C18.8501 16.6316 18.8006 16.7043 18.7381 16.7655C18.6756 16.8267 18.6012 16.8751 18.5193 16.9079C18.4375 16.9407 18.3498 16.9572 18.2613 16.9565H5.73867C5.65022 16.9572 5.56252 16.9407 5.48067 16.9079C5.39881 16.8751 5.32445 16.8267 5.26191 16.7655C5.19936 16.7043 5.14989 16.6316 5.11637 16.5515C5.08285 16.4715 5.06596 16.3857 5.06667 16.2991V7.70087C5.06596 7.61435 5.08285 7.52855 5.11637 7.44848C5.14989 7.3684 5.19936 7.29566 5.26191 7.23447C5.32445 7.17329 5.39881 7.12489 5.48067 7.0921C5.56252 7.05931 5.65022 7.04278 5.73867 7.04348H11.1147L11.888 8.81217C11.9288 8.90648 11.9971 8.98694 12.0844 9.04353C12.1716 9.10013 12.274 9.13035 12.3787 9.13043H18.2453C18.3351 9.12762 18.4245 9.14258 18.5083 9.17442C18.592 9.20626 18.6683 9.25433 18.7325 9.31572C18.7968 9.37712 18.8477 9.45059 18.8822 9.53172C18.9167 9.61285 18.9341 9.69996 18.9333 9.78783V16.2991Z" fill="currentColor"/>
</svg>
