<svg width="16" height="16" viewBox="0 0 16 16" fill="none" xmlns="http://www.w3.org/2000/svg">
<path d="M11.3675 4.9517V11.6897C11.3675 11.8669 11.2272 12.0105 11.0542 12.0105C10.8812 12.0105 10.741 11.8669 10.741 11.6897V4.9517H7.92169C7.74868 4.9517 7.60844 4.80805 7.60844 4.63085C7.60844 4.45365 7.74868 4.30999 7.92169 4.30999H14.1867C14.3598 4.30999 14.5 4.45365 14.5 4.63085C14.5 4.80805 14.3598 4.9517 14.1867 4.9517H11.3675Z" fill="currentColor"/>
<path d="M3.37952 4.38942L2.03476 5.76681C1.91242 5.89212 1.71408 5.89212 1.59175 5.76681C1.46942 5.64151 1.46942 5.43836 1.59175 5.31306L3.47127 3.38792C3.5936 3.26262 3.79194 3.26262 3.91427 3.38792L5.79379 5.31306C5.91612 5.43836 5.91612 5.64151 5.79379 5.76681C5.67146 5.89212 5.47312 5.89212 5.35078 5.76681L4.00602 4.38942V11.6102L5.35078 10.2328C5.47312 10.1075 5.67146 10.1075 5.79379 10.2328C5.91612 10.3581 5.91612 10.5613 5.79379 10.6866L3.91427 12.6117C3.79194 12.737 3.5936 12.737 3.47127 12.6117L1.59175 10.6866C1.46942 10.5613 1.46942 10.3581 1.59175 10.2328C1.71408 10.1075 1.91242 10.1075 2.03476 10.2328L3.37952 11.6102V4.38942Z" fill="currentColor"/>
</svg>
