<svg
        xmlns="http://www.w3.org/2000/svg"
        width="13"
        height="11"
        viewBox="0 0 13 11"
        fill="none"
>
    <path
            d="M5.30807 9.625V1.8H8.45162C8.67777 1.8 8.85645 1.60708 8.85645 1.375C8.85645 1.14292 8.67777 0.95 8.45162 0.95H1.35484C1.12869 0.95 0.95 1.14292 0.95 1.375C0.95 1.60708 1.12869 1.8 1.35484 1.8H4.49839V9.625C4.49839 9.85708 4.67707 10.05 4.90323 10.05C5.12938 10.05 5.30807 9.85708 5.30807 9.625ZM9.62527 9.625V5.3625H11.6452C11.8713 5.3625 12.05 5.16958 12.05 4.9375C12.05 4.70542 11.8713 4.5125 11.6452 4.5125H6.7957C6.56954 4.5125 6.39086 4.70542 6.39086 4.9375C6.39086 5.16958 6.56954 5.3625 6.7957 5.3625H8.81559V9.625C8.81559 9.85708 8.99428 10.05 9.22043 10.05C9.44658 10.05 9.62527 9.85708 9.62527 9.625Z"
            fill="currentColor"
            stroke="currentColor"
            stroke-width="0.1"
    />
</svg>