<svg width="24" height="24" viewBox="0 0 24 24" fill="none" xmlns="http://www.w3.org/2000/svg">
    <path fill-rule="evenodd" clip-rule="evenodd"
          d="M19.6433 10.1704H4.35673C3.98553 10.1704 3.64689 10.3258 3.39942 10.579L3.39725 10.5812C3.15195 10.8343 3 11.1807 3 11.5604V13.5254C3 13.9073 3.15195 14.2537 3.39725 14.5046L3.39942 14.5068C3.64689 14.7577 3.98553 14.9131 4.35673 14.9131H19.6433C20.0166 14.9131 20.3553 14.7577 20.6006 14.5068L20.6027 14.5046C20.848 14.2537 21 13.9051 21 13.5254V11.5604C21 11.1785 20.848 10.8321 20.6027 10.5812L20.6006 10.579C20.3531 10.3258 20.0145 10.1704 19.6433 10.1704ZM4.35673 11.3739H19.6433C19.6932 11.3739 19.7388 11.3938 19.7713 11.4271C19.8039 11.4604 19.8234 11.5071 19.8234 11.5581V13.5232C19.8234 13.5742 19.8039 13.6209 19.7713 13.6542C19.7388 13.6875 19.6932 13.7075 19.6433 13.7075H4.35673C4.3068 13.7075 4.26122 13.6875 4.22865 13.6542C4.19609 13.6209 4.17656 13.5742 4.17656 13.5232V11.5581C4.17656 11.5071 4.19609 11.4604 4.22865 11.4271C4.26122 11.3938 4.3068 11.3739 4.35673 11.3739ZM19.6433 4H4.35673C3.98553 4 3.64689 4.15543 3.39942 4.40633L3.39725 4.40855C3.15195 4.66167 3 5.00805 3 5.38773V7.35276C3 7.73467 3.15195 8.08104 3.39725 8.33195L3.39942 8.33417C3.64689 8.58507 3.98553 8.74049 4.35673 8.74049H19.6433C20.0166 8.74049 20.3553 8.58507 20.6006 8.33417L20.6027 8.33195C20.848 8.08104 21 7.73244 21 7.35276V5.38773C21 5.00583 20.848 4.65945 20.6027 4.40855L20.6006 4.40633C20.3531 4.15543 20.0145 4 19.6433 4ZM4.35673 5.20344H19.6433C19.6932 5.20344 19.7388 5.22342 19.7713 5.25673C19.8039 5.29004 19.8234 5.33666 19.8234 5.38773V7.35276C19.8234 7.40383 19.8039 7.45046 19.7713 7.48376C19.7388 7.51707 19.6932 7.53705 19.6433 7.53705H4.35673C4.3068 7.53705 4.26122 7.51707 4.22865 7.48376C4.19609 7.45046 4.17656 7.40383 4.17656 7.35276V5.38773C4.17656 5.33666 4.19609 5.29004 4.22865 5.25673C4.26122 5.22342 4.3068 5.20344 4.35673 5.20344ZM3.76845 16.9425H10.3871C10.8104 16.9425 11.1556 17.3 11.1556 17.7285V19.214C11.1556 19.6447 10.8061 20 10.3871 20H3.76845C3.34949 20 3 19.6469 3 19.214V17.7285C3 17.2956 3.34515 16.9425 3.76845 16.9425Z"
          fill="currentColor"/>
</svg>
