<svg width="24" height="24" viewBox="0 0 24 24" fill="none" xmlns="http://www.w3.org/2000/svg">
<path d="M13.5152 4.74924C13.039 4.59063 12.5195 4.5 11.9892 4.5C10.4632 4.5 9.08874 5.22508 8.16883 6.36934L10.5281 8.4426L13.5152 4.74924Z" fill="#1A73E8"/>
<path d="M8.16883 6.36934C7.44372 7.27568 7 8.45393 7 9.72281C7 10.7085 7.18398 11.5015 7.49784 12.2153L10.5281 8.4426L8.16883 6.36934Z" fill="#EA4335"/>
<path d="M12 7.72885C13.0606 7.72885 13.9156 8.62387 13.9156 9.73414C13.9156 10.2213 13.7424 10.6745 13.461 11.0257C13.461 11.0257 14.9654 9.14502 16.4372 7.321C15.8312 6.09743 14.7814 5.16843 13.5152 4.74924L10.5281 8.4426C10.8853 8.01208 11.4048 7.72885 12 7.72885Z" fill="#4285F4"/>
<path d="M12 11.7281C10.9394 11.7281 10.0844 10.8331 10.0844 9.72281C10.0844 9.23565 10.2468 8.78248 10.5281 8.4426L7.49784 12.2153C8.01732 13.4162 8.88312 14.3905 9.77056 15.6027L13.461 11.0144C13.1039 11.4562 12.5844 11.7281 12 11.7281Z" fill="#FBBC04"/>
<path d="M13.3961 16.8716C15.0628 14.1412 17 12.9063 17 9.73414C17 8.86178 16.7944 8.04607 16.4372 7.321L9.77056 15.6027C10.0519 15.9879 10.3442 16.4298 10.6255 16.8829C11.6429 18.5257 11.3615 19.5 12.0108 19.5C12.6602 19.5 12.3788 18.5144 13.3961 16.8716Z" fill="#34A853"/>
</svg>
