<svg
        width="12"
        height="12"
        viewBox="0 0 12 12"
        fill="none"
        xmlns="http://www.w3.org/2000/svg"
>
    <path
            d="M9.23077 0.92334V0.461801H8.76923V0.92334H9.23077ZM9.23077 11.0772H8.76923V11.5387H9.23077V11.0772ZM2.76923 0.92334H3.23077V0.461801H2.76923V0.92334ZM2.76923 11.0772V11.5387H3.23077V11.0772H2.76923ZM11.5385 0.461801H9.23077V1.38488H11.5385V0.461801ZM8.76923 0.92334V11.0772H9.69231V0.92334H8.76923ZM9.23077 11.5387H11.5385V10.6156H9.23077V11.5387ZM5.53846 3.49065V8.10603H6.46154V3.49065H5.53846ZM0.46154 1.38488H2.76923V0.461801H0.46154V1.38488ZM2.30769 0.92334V11.0772H3.23077V0.92334H2.30769ZM2.76923 10.6156H0.46154V11.5387H2.76923V10.6156Z"
            fill="currentColor"
    />
</svg>