<svg
        xmlns="http://www.w3.org/2000/svg"
        width="24"
        height="24"
        viewBox="0 0 24 24"
        fill="none"
>
    <path
            fill-rule="evenodd"
            clip-rule="evenodd"
            d="M8.58161 4.56127C8.58161 4.25129 8.8329 4 9.14287 4H18.9387C19.2487 4 19.5 4.25129 19.5 4.56127V14.3571C19.5 14.6671 19.2487 14.9184 18.9387 14.9184H15.4184V18.4387C15.4184 18.7487 15.1671 19 14.8571 19H5.06127C4.75129 19 4.5 18.7487 4.5 18.4387V8.64287C4.5 8.3329 4.75129 8.08161 5.06127 8.08161H8.58161V4.56127ZM9.70414 5.12253V8.64287C9.70414 8.95285 9.45285 9.20414 9.14287 9.20414H5.62253V17.8775H14.2959V14.3571C14.2959 14.0471 14.5471 13.7959 14.8571 13.7959H18.3775V5.12253H9.70414ZM9.14287 4.09868C8.8874 4.09868 8.68029 4.30579 8.68029 4.56127V8.18029H5.06127C4.80579 8.18029 4.59868 8.3874 4.59868 8.64287V18.4387C4.59868 18.6942 4.80579 18.9013 5.06127 18.9013H14.8571C15.1126 18.9013 15.3197 18.6942 15.3197 18.4387V14.8197H18.9387C19.1942 14.8197 19.4013 14.6126 19.4013 14.3571V4.56127C19.4013 4.30579 19.1942 4.09868 18.9387 4.09868H9.14287ZM9.60546 5.02385H18.4762V13.8945H14.8571C14.6016 13.8945 14.3945 14.1016 14.3945 14.3571V17.9762H5.52385V9.10546H9.14287C9.39835 9.10546 9.60546 8.89835 9.60546 8.64287V5.02385Z"
            fill="currentColor"
    />
    <path
            fill-rule="evenodd"
            clip-rule="evenodd"
            d="M8.68029 4.56127C8.68029 4.30579 8.8874 4.09868 9.14287 4.09868H18.9387C19.1942 4.09868 19.4013 4.30579 19.4013 4.56127V14.3571C19.4013 14.6126 19.1942 14.8197 18.9387 14.8197H15.3197V18.4387C15.3197 18.6942 15.1126 18.9013 14.8571 18.9013H5.06127C4.80579 18.9013 4.59868 18.6942 4.59868 18.4387V8.64287C4.59868 8.3874 4.80579 8.18029 5.06127 8.18029H8.68029V4.56127ZM14.8571 13.8945C14.6016 13.8945 14.3945 14.1016 14.3945 14.3571V17.9762H5.52385V9.10546H9.14287C9.39835 9.10546 9.60546 8.89835 9.60546 8.64287V5.02385H18.4762V13.8945H14.8571Z"
            fill="currentColor"
    />
</svg>