<svg width="24" height="24" viewBox="0 0 24 24" fill="none" xmlns="http://www.w3.org/2000/svg">
<path d="M4.88257 16.4233V7.69601H5.93939V11.5824H10.5928V7.69601H11.6496V16.4233H10.5928V12.5199H5.93939V16.4233H4.88257Z" fill="currentColor"/>
<path d="M13.612 16.4233V15.6562L16.4927 12.5028C16.8307 12.1335 17.1091 11.8125 17.3279 11.5398C17.5466 11.2642 17.7086 11.0057 17.8137 10.7642C17.9216 10.5199 17.9756 10.2642 17.9756 9.99715C17.9756 9.69033 17.9017 9.4247 17.754 9.20027C17.6091 8.97584 17.4103 8.80254 17.1574 8.68038C16.9046 8.55822 16.6205 8.49715 16.3052 8.49715C15.9699 8.49715 15.6773 8.56675 15.4273 8.70595C15.1802 8.84232 14.9884 9.03408 14.852 9.28124C14.7185 9.5284 14.6517 9.81817 14.6517 10.1506H13.6461C13.6461 9.63919 13.764 9.19033 13.9998 8.80396C14.2356 8.4176 14.5566 8.11646 14.9628 7.90055C15.3719 7.68465 15.8307 7.57669 16.3392 7.57669C16.8506 7.57669 17.3037 7.68465 17.6986 7.90055C18.0935 8.11646 18.4032 8.40766 18.6276 8.77413C18.852 9.14061 18.9642 9.54828 18.9642 9.99715C18.9642 10.3182 18.906 10.6321 18.7895 10.9389C18.6759 11.2429 18.477 11.5824 18.1929 11.9574C17.9117 12.3295 17.5211 12.7841 17.0211 13.321L15.0608 15.4176V15.4858H19.1177V16.4233H13.612Z" fill="currentColor"/>
</svg>
