<svg width="24" height="24" viewBox="0 0 24 24" fill="none" xmlns="http://www.w3.org/2000/svg">
<path d="M4.68652 16.3637V7.63638H5.74334V11.5227H10.3968V7.63638H11.4536V16.3637H10.3968V12.4602H5.74334V16.3637H4.68652Z" fill="currentColor"/>
<path d="M16.3648 16.483C15.8023 16.483 15.3009 16.3864 14.8605 16.1932C14.423 16 14.075 15.7315 13.8165 15.3878C13.5608 15.0412 13.4216 14.6392 13.3989 14.1818H14.4727C14.4955 14.4631 14.5921 14.706 14.7625 14.9105C14.933 15.1122 15.156 15.2685 15.4316 15.3793C15.7071 15.4901 16.0125 15.5455 16.3477 15.5455C16.7227 15.5455 17.0551 15.4801 17.3449 15.3494C17.6347 15.2188 17.862 15.0369 18.0267 14.804C18.1915 14.571 18.2739 14.3012 18.2739 13.9943C18.2739 13.6733 18.1943 13.3906 18.0352 13.1463C17.8762 12.8992 17.6432 12.706 17.3364 12.5668C17.0296 12.4276 16.6546 12.358 16.2114 12.358H15.5125V11.4205H16.2114C16.558 11.4205 16.862 11.358 17.1233 11.233C17.3875 11.108 17.5935 10.9318 17.7412 10.7046C17.8918 10.4773 17.9671 10.2102 17.9671 9.90342C17.9671 9.60797 17.9017 9.35087 17.771 9.13212C17.6404 8.91337 17.4557 8.74291 17.2171 8.62075C16.9813 8.49859 16.7029 8.43751 16.3818 8.43751C16.0807 8.43751 15.7966 8.49291 15.5296 8.60371C15.2654 8.71166 15.0494 8.86933 14.8818 9.07672C14.7142 9.28126 14.6233 9.52842 14.6091 9.8182H13.5864C13.6034 9.36081 13.7412 8.96024 13.9997 8.61649C14.2583 8.2699 14.5963 8.00001 15.0139 7.80683C15.4344 7.61365 15.896 7.51706 16.3989 7.51706C16.9387 7.51706 17.4017 7.62643 17.7881 7.84518C18.1744 8.06109 18.4713 8.3466 18.6787 8.70172C18.8861 9.05683 18.9898 9.44036 18.9898 9.85229C18.9898 10.3438 18.8605 10.7628 18.602 11.1094C18.3463 11.456 17.9983 11.696 17.558 11.8296V11.8977C18.1091 11.9887 18.5395 12.223 18.8492 12.6009C19.1588 12.9759 19.3137 13.4404 19.3137 13.9943C19.3137 14.4688 19.1844 14.8949 18.9259 15.2727C18.6702 15.6477 18.3208 15.9432 17.8776 16.1591C17.4344 16.375 16.9301 16.483 16.3648 16.483Z" fill="currentColor"/>
</svg>
