<svg width="24" height="24" viewBox="0 0 24 24" fill="none" xmlns="http://www.w3.org/2000/svg">
<path d="M17.9237 11.7559C17.8165 11.6025 15.2622 8 11.9999 8C8.73765 8 6.18323 11.6025 6.07615 11.7557C5.97462 11.9012 5.97462 12.0986 6.07615 12.2441C6.18323 12.3975 8.73765 16 11.9999 16C15.2622 16 17.8165 12.3975 17.9237 12.2443C18.0254 12.0988 18.0254 11.9012 17.9237 11.7559ZM11.9999 15.1724C9.59692 15.1724 7.51564 12.7814 6.89953 11.9997C7.51484 11.2174 9.59176 8.82758 11.9999 8.82758C14.4029 8.82758 16.484 11.2182 17.1004 12.0003C16.4851 12.7826 14.4081 15.1724 11.9999 15.1724Z" fill="currentColor"/>
<path d="M11.9999 9.51707C10.6911 9.51707 9.62622 10.6309 9.62622 11.9998C9.62622 13.3688 10.6911 14.4826 11.9999 14.4826C13.3087 14.4826 14.3735 13.3688 14.3735 11.9998C14.3735 10.6309 13.3087 9.51707 11.9999 9.51707ZM11.9999 13.655C11.1273 13.655 10.4174 12.9125 10.4174 11.9998C10.4174 11.0872 11.1273 10.3447 11.9999 10.3447C12.8724 10.3447 13.5823 11.0872 13.5823 11.9998C13.5823 12.9125 12.8724 13.655 11.9999 13.655Z" fill="currentColor"/>
</svg>
