<svg width="36" height="36" viewBox="0 0 36 36" fill="none" xmlns="http://www.w3.org/2000/svg">
<path d="M20.5931 9.04016L11 19.9286H16.6L15.2214 26.8887C15.2188 26.9024 15.2195 26.9164 15.2234 26.9298C15.2273 26.9432 15.2344 26.9556 15.2441 26.9662C15.2538 26.9768 15.2659 26.9854 15.2797 26.9912C15.2934 26.997 15.3083 27 15.3234 27C15.3394 27 15.3553 26.9965 15.3697 26.9899C15.384 26.9833 15.3965 26.9737 15.4061 26.9618L25 16.0714H19.4L20.7851 9.1105C20.787 9.09663 20.7856 9.08255 20.7811 9.06919C20.7766 9.05586 20.769 9.04354 20.7589 9.03311C20.7488 9.02265 20.7364 9.01428 20.7226 9.00857C20.7087 9.00287 20.6936 8.99993 20.6784 9C20.6617 9.00007 20.6453 9.00371 20.6305 9.0107C20.6157 9.01769 20.6029 9.02778 20.5931 9.04016Z" stroke="black" stroke-width="1.3" stroke-linecap="round" stroke-linejoin="round"/>
</svg>
