<svg
        width="12"
        height="12"
        viewBox="0 0 12 12"
        fill="none"
        xmlns="http://www.w3.org/2000/svg"
>
    <path
            d="M0.923077 11.0767H0.461539V11.5382H0.923077V11.0767ZM11.0769 0.922852H11.5385V0.461314L11.0769 0.461313V0.922852ZM5.2121 6.13496L0.59672 10.7503L1.24943 11.4031L5.86482 6.78767L5.2121 6.13496ZM1.38462 11.0767V6.92285H0.461539V11.0767H1.38462ZM0.923077 11.5382H5.07692V10.6152H0.923077V11.5382ZM6.7879 5.86459L11.4033 1.24921L10.7506 0.596495L6.13518 5.21188L6.7879 5.86459ZM10.6154 0.922852V5.0767H11.5385V0.922852H10.6154ZM11.0769 0.461313L6.92308 0.461313V1.38439L11.0769 1.38439V0.461313Z"
            fill="currentColor"
    />
</svg>