<svg width="24" height="24" viewBox="0 0 24 24" fill="none" xmlns="http://www.w3.org/2000/svg">
    <g>
        <path fill-rule="evenodd" clip-rule="evenodd"
              d="M18 5.5H6C5.17157 5.5 4.5 6.17157 4.5 7V17C4.5 17.4008 4.65722 17.7649 4.91335 18.034L9.6073 13.4254C10.288 12.7571 11.3786 12.7571 12.0594 13.4254L13.5749 14.9133C13.6721 15.0088 13.8279 15.0088 13.9251 14.9133L19.4746 9.46483C19.4829 9.45664 19.4914 9.44868 19.5 9.44096V7C19.5 6.17157 18.8284 5.5 18 5.5ZM18 18.5H6.57978L10.6582 14.4958C10.7554 14.4003 10.9112 14.4003 11.0085 14.4958L12.524 15.9837C13.2047 16.652 14.2953 16.652 14.976 15.9837L19.5 11.542V17C19.5 17.8284 18.8284 18.5 18 18.5ZM6 4C4.34315 4 3 5.34315 3 7V17C3 18.6569 4.34315 20 6 20H18C19.6569 20 21 18.6569 21 17V7C21 5.34315 19.6569 4 18 4H6ZM9.5 9.5C9.5 10.0523 9.05228 10.5 8.5 10.5C7.94772 10.5 7.5 10.0523 7.5 9.5C7.5 8.94772 7.94772 8.5 8.5 8.5C9.05228 8.5 9.5 8.94772 9.5 9.5ZM11 9.5C11 10.8807 9.88071 12 8.5 12C7.11929 12 6 10.8807 6 9.5C6 8.11929 7.11929 7 8.5 7C9.88071 7 11 8.11929 11 9.5Z"
              fill="currentColor"/>
    </g>
</svg>
