<svg width="120" height="70" viewBox="0 0 120 70" fill="none" xmlns="http://www.w3.org/2000/svg">
    <path
            class="br"
            fill-rule="evenodd"
            clip-rule="evenodd"
            d="M116 1H4C2.34315 1 1 2.34315 1 4V66C1 67.6569 2.34315 69 4 69H116C117.657 69 119 67.6569 119 66V4C119 2.34315 117.657 1 116 1ZM4 1.31604e-09C1.79086 1.31604e-09 0 1.79086 0 4V66C0 68.2091 1.79086 70 4 70H116C118.209 70 120 68.2091 120 66V4C120 1.79086 118.209 1.31604e-09 116 1.31604e-09H4Z"
            fill="currentColor"
    ></path>
    <path
            fill-rule="evenodd"
            clip-rule="evenodd"
            d="M118.825 6.825C118.825 6.825 119.515 5.65862 119.515 4.77663C119.515 3.89465 118.956 2.42497 117.619 1.30135C116.92 0.714482 116.185 0.20819 115.21 0.0580949C113.023 -0.278225 112 0.948744 112 1.10399C112.216 2.45455 112.998 3.67876 114.345 4.77663C115.693 5.87451 117.565 6.63016 118.825 6.825Z"
            fill="#318BF5"
    ></path>
</svg>