<svg width="24" height="24" viewBox="0 0 24 24" fill="none" xmlns="http://www.w3.org/2000/svg">
<path d="M12.0024 5.01562C9.08565 5.01562 8.23262 5.01863 8.06681 5.03239C7.46825 5.08214 7.09579 5.17639 6.69002 5.37841C6.37731 5.53369 6.13068 5.71369 5.88728 5.96601C5.44401 6.42616 5.17536 6.99226 5.0781 7.66518C5.03082 7.99187 5.01707 8.05849 5.01427 9.72715C5.0132 10.2834 5.01427 11.0154 5.01427 11.9973C5.01427 14.9116 5.0175 15.7638 5.03147 15.9293C5.07982 16.5117 5.17116 16.8781 5.36459 17.279C5.73426 18.0462 6.44028 18.6222 7.27203 18.8372C7.56002 18.9113 7.87811 18.9521 8.28646 18.9715C8.45947 18.979 10.2229 18.9844 11.9874 18.9844C13.7519 18.9844 15.5164 18.9822 15.6852 18.9736C16.158 18.9514 16.4325 18.9145 16.7361 18.8361C17.5732 18.6201 18.2664 18.0527 18.6436 17.2747C18.8332 16.8835 18.9294 16.5031 18.9729 15.9511C18.9824 15.8307 18.9864 13.9118 18.9864 11.9954C18.9864 10.0788 18.9821 8.16337 18.9726 8.04302C18.9285 7.48207 18.8324 7.10488 18.6366 6.7062C18.4759 6.37984 18.2975 6.13612 18.0385 5.88692C17.5764 5.44547 17.0111 5.17682 16.3375 5.07967C16.0112 5.0325 15.9462 5.01853 14.2762 5.01562H12.0024Z" fill="white"/>
<path d="M12.0006 6.84187C10.5997 6.84187 10.4239 6.84799 9.87369 6.87303C9.32456 6.89818 8.94974 6.98511 8.62176 7.11267C8.28251 7.24442 7.99473 7.42065 7.70802 7.70747C7.4211 7.99417 7.24487 8.28195 7.11269 8.6211C6.98481 8.94918 6.89777 9.32411 6.87305 9.87302C6.84844 10.4232 6.84199 10.5991 6.84199 12C6.84199 13.4009 6.84823 13.5761 6.87316 14.1263C6.89841 14.6755 6.98535 15.0503 7.1128 15.3783C7.24465 15.7175 7.42089 16.0053 7.7077 16.292C7.9943 16.5789 8.28208 16.7556 8.62112 16.8873C8.94931 17.0149 9.32424 17.1018 9.87326 17.127C10.4235 17.152 10.5992 17.1581 11.9999 17.1581C13.4009 17.1581 13.5761 17.152 14.1263 17.127C14.6755 17.1018 15.0507 17.0149 15.3789 16.8873C15.7181 16.7556 16.0054 16.5789 16.292 16.292C16.5789 16.0053 16.7552 15.7175 16.8873 15.3784C17.0141 15.0503 17.1012 14.6753 17.127 14.1264C17.1517 13.5762 17.1581 13.4009 17.1581 12C17.1581 10.5991 17.1517 10.4233 17.127 9.87313C17.1012 9.324 17.0141 8.94918 16.8873 8.62121C16.7552 8.28195 16.5789 7.99417 16.292 7.70747C16.0051 7.42055 15.7182 7.24431 15.3786 7.11267C15.0498 6.98511 14.6747 6.89818 14.1256 6.87303C13.5754 6.84799 13.4002 6.84187 11.9989 6.84187H12.0006ZM11.5378 7.77141C11.6752 7.77119 11.8284 7.77141 12.0006 7.77141C13.3778 7.77141 13.541 7.77635 14.0849 7.80107C14.5878 7.82406 14.8607 7.9081 15.0426 7.9787C15.2833 8.07219 15.4549 8.18395 15.6353 8.36448C15.8158 8.54502 15.9276 8.71696 16.0213 8.95767C16.0919 9.13928 16.1761 9.41223 16.1989 9.91515C16.2237 10.4589 16.229 10.6222 16.229 11.9988C16.229 13.3754 16.2237 13.5387 16.1989 14.0825C16.176 14.5854 16.0919 14.8584 16.0213 15.04C15.9278 15.2807 15.8158 15.4521 15.6353 15.6325C15.4548 15.813 15.2834 15.9248 15.0426 16.0183C14.861 16.0892 14.5878 16.173 14.0849 16.196C13.5411 16.2207 13.3778 16.2261 12.0006 16.2261C10.6232 16.2261 10.46 16.2207 9.91624 16.196C9.41332 16.1728 9.14037 16.0888 8.95844 16.0182C8.71773 15.9247 8.54579 15.8129 8.36525 15.6324C8.18472 15.4519 8.07296 15.2804 7.97925 15.0395C7.90865 14.8579 7.82451 14.585 7.80162 14.0821C7.77691 13.5383 7.77196 13.375 7.77196 11.9975C7.77196 10.6201 7.77691 10.4576 7.80162 9.91386C7.82462 9.41094 7.90865 9.13799 7.97925 8.95616C8.07275 8.71545 8.18472 8.54351 8.36525 8.36298C8.54579 8.18244 8.71773 8.07069 8.95844 7.97698C9.14026 7.90605 9.41332 7.82224 9.91624 7.79913C10.3921 7.77764 10.5765 7.77119 11.5378 7.77012V7.77141ZM14.7539 8.62787C14.4122 8.62787 14.1349 8.9048 14.1349 9.24663C14.1349 9.58836 14.4122 9.86561 14.7539 9.86561C15.0956 9.86561 15.3729 9.58836 15.3729 9.24663C15.3729 8.90491 15.0956 8.62787 14.7539 8.62787ZM12.0006 9.35108C10.5377 9.35108 9.35164 10.5371 9.35164 12C9.35164 13.4629 10.5377 14.6484 12.0006 14.6484C13.4634 14.6484 14.649 13.4629 14.649 12C14.649 10.5371 13.4634 9.35108 12.0006 9.35108ZM12.0006 10.2806C12.9501 10.2806 13.7199 11.0504 13.7199 12C13.7199 12.9495 12.9501 13.7194 12.0006 13.7194C11.0509 13.7194 10.2812 12.9495 10.2812 12C10.2812 11.0504 11.0509 10.2806 12.0006 10.2806Z" fill="black"/>
</svg>
