<svg width="20" height="23" viewBox="0 0 71 82" fill="none" xmlns="http://www.w3.org/2000/svg">
    <path d="M66.7596 16.757L39.3926 0.956576C38.1483 0.330797 36.7748 0.00488281 35.3819 0.00488281C33.9891 0.00488281 32.6156 0.330797 31.3713 0.956576L4.00431 16.757C2.84093 17.5228 1.87288 18.5501 1.17757 19.757C0.482265 20.9638 0.0789885 22.3166 0 23.7071V55.3079C0.0809349 56.6963 0.485132 58.0465 1.18035 59.251C1.87557 60.4554 2.8426 61.4808 4.00431 62.2453L7.05217 64.0051L35.3883 81.0553L63.7372 64.0307L66.7468 62.2963C67.9085 61.5318 68.8755 60.5064 69.5708 59.302C70.266 58.0975 70.6702 56.7473 70.7511 55.3589V23.6944C70.6716 22.3071 70.2694 20.9576 69.5764 19.7533C68.8834 18.5489 67.9189 17.5229 66.7596 16.757ZM19.1033 56.5449C18.1449 56.5394 17.2277 56.1542 16.5528 55.4737L3.02236 41.9305C2.35562 41.249 1.98226 40.3334 1.98226 39.38C1.98226 38.4266 2.35562 37.511 3.02236 36.8295L16.5528 23.2225C16.8647 22.8007 17.264 22.4511 17.7233 22.1976C18.1827 21.9441 18.6913 21.7927 19.2145 21.7537C19.7377 21.7148 20.2631 21.7891 20.755 21.9717C21.2468 22.1543 21.6935 22.4409 22.0644 22.8119C22.4354 23.1829 22.722 23.6295 22.9046 24.1214C23.0872 24.6132 23.1616 25.1386 23.1226 25.6618C23.0836 26.185 22.9322 26.6937 22.6788 27.153C22.4253 27.6124 22.0757 28.0116 21.6538 28.3235L10.6611 39.3162L21.6156 50.2707C22.1383 50.7741 22.4989 51.4219 22.6514 52.1314C22.8039 52.8409 22.7412 53.5798 22.4715 54.2535C22.2017 54.9272 21.7371 55.5051 21.1371 55.9133C20.5371 56.3215 19.829 56.5414 19.1033 56.5449ZM29.5859 59.7458C29.29 60.3724 28.8228 60.9025 28.2383 61.2748C27.6538 61.6472 26.976 61.8466 26.283 61.85C25.668 61.8507 25.0629 61.6959 24.5238 61.4C23.9847 61.104 23.5292 60.6766 23.1996 60.1574C22.8701 59.6383 22.6771 59.0442 22.6387 58.4304C22.6003 57.8166 22.7178 57.2031 22.9801 56.6469L41.5733 17.1141C41.7768 16.6803 42.0637 16.2909 42.4177 15.968C42.7716 15.6452 43.1857 15.3952 43.6363 15.2324C44.0869 15.0695 44.5651 14.997 45.0437 15.019C45.5223 15.041 45.9919 15.1571 46.4256 15.3606C46.8594 15.5641 47.2488 15.851 47.5717 16.2049C47.8945 16.5589 48.1445 16.973 48.3073 17.4236C48.4702 17.8742 48.5426 18.3524 48.5206 18.831C48.4986 19.3096 48.3826 19.7792 48.1791 20.2129L29.5859 59.7458ZM67.767 41.8922L54.1983 55.4609C53.8864 55.8828 53.4871 56.2324 53.0278 56.4859C52.5684 56.7394 52.0598 56.8908 51.5366 56.9297C51.0134 56.9687 50.488 56.8944 49.9961 56.7117C49.5043 56.5291 49.0577 56.2425 48.6867 55.8716C48.3157 55.5006 48.0291 55.0539 47.8465 54.5621C47.6639 54.0703 47.5895 53.5448 47.6285 53.0216C47.6675 52.4984 47.8189 51.9898 48.0724 51.5305C48.3258 51.0711 48.6754 50.6718 49.0973 50.3599L60.09 39.3672L49.0718 28.3235C48.4051 27.642 48.0317 26.7265 48.0317 25.773C48.0317 24.8196 48.4051 23.9041 49.0718 23.2225C49.7638 22.5762 50.6754 22.2167 51.6223 22.2167C52.5692 22.2167 53.4808 22.5762 54.1728 23.2225L67.716 36.753C68.405 37.4299 68.7973 38.3526 68.8069 39.3184C68.8164 40.2843 68.4425 41.2145 67.767 41.905V41.8922Z" fill="#4367B1"/>
</svg>
