<svg width="15" height="14" viewBox="0 0 15 14" fill="none" xmlns="http://www.w3.org/2000/svg">
    <path fill-rule="evenodd" clip-rule="evenodd"
          d="M10.6438 12.7731C9.67192 12.7731 8.81254 12.3316 8.24379 11.6461C8.54067 11.0677 8.71254 10.4156 8.71254 9.72336C8.71254 9.27536 8.63754 8.84148 8.50317 8.4349C9.56567 8.18819 10.4782 7.56222 11.0813 6.70703C12.5875 6.91753 13.75 8.18819 13.75 9.72336C13.75 11.4049 12.3563 12.7731 10.6438 12.7731ZM4.35627 12.7731C2.64377 12.7731 1.25002 11.4049 1.25002 9.72336C1.25002 8.18819 2.41252 6.91753 3.91564 6.70703C4.65314 7.75093 5.85002 8.45362 7.21564 8.54015C7.37502 8.90407 7.46252 9.30298 7.46252 9.72336C7.46252 11.4049 6.06877 12.7731 4.35627 12.7731ZM7.50003 1.22754C9.21253 1.22754 10.6032 2.59547 10.6032 4.27701C10.6032 5.95823 9.21253 7.32617 7.50003 7.32617C5.78753 7.32617 4.39378 5.95823 4.39378 4.27701C4.39378 2.59547 5.78753 1.22754 7.50003 1.22754ZM11.6531 5.56318C11.7844 5.15722 11.8531 4.72517 11.8531 4.27687C11.8531 1.91505 9.90312 0 7.5 0C5.09375 0 3.14375 1.91505 3.14375 4.27687C3.14375 4.72548 3.21563 5.15783 3.34375 5.5641C1.425 6.01118 0 7.70407 0 9.72283C0 12.0853 1.95 14 4.35625 14C5.59062 14 6.70312 13.4925 7.49687 12.6809C8.29062 13.4931 9.40625 14 10.6438 14C13.05 14 15 12.0853 15 9.72283C15 7.70407 13.5719 6.00995 11.6531 5.56318Z"
          fill="currentColor"/>
</svg>
