<svg width="24" height="24" viewBox="0 0 24 24" fill="none" xmlns="http://www.w3.org/2000/svg">
    <g>
        <path fill-rule="evenodd" clip-rule="evenodd"
              d="M19.588 14.7147C19.722 15.019 19.6225 15.3944 19.3658 15.5532L13.0607 19.454C12.5034 19.7988 11.8391 19.7988 11.2819 19.454L4.63484 15.3417C4.37815 15.1829 4.27866 14.8075 4.41263 14.5032C4.54659 14.1989 4.86329 14.0809 5.11998 14.2397L11.767 18.3521C12.0203 18.5088 12.3222 18.5088 12.5756 18.3521L18.8807 14.4513C19.1374 14.2924 19.4541 14.4104 19.588 14.7147Z"
              fill="currentColor"/>
        <path fill-rule="evenodd" clip-rule="evenodd"
              d="M18.3179 9.29381L12.3335 5.5777C12.2319 5.51462 12.1107 5.51462 12.0091 5.5777L6.02469 9.2938C5.77491 9.44891 5.77491 9.87275 6.02469 10.0279L12.0091 13.744C12.1107 13.807 12.2319 13.807 12.3335 13.744L18.3179 10.0279C18.5676 9.87275 18.5676 9.44891 18.3179 9.29381ZM12.82 4.47663C12.4137 4.22432 11.9288 4.22432 11.5225 4.47663L5.53814 8.19273C4.53902 8.81315 4.53902 10.5085 5.53814 11.1289L11.5225 14.845C11.9288 15.0973 12.4137 15.0973 12.82 14.845L18.8044 11.1289C19.8035 10.5085 19.8035 8.81315 18.8044 8.19273L12.82 4.47663Z"
              fill="currentColor"/>
    </g>
</svg>
