<svg width="16" height="16" viewBox="0 0 16 16" fill="none" xmlns="http://www.w3.org/2000/svg">
<path d="M12.9432 11.2694L11.6145 9.99353C11.4936 9.87746 11.4936 9.68927 11.6145 9.5732C11.7353 9.45714 11.9313 9.45714 12.0522 9.5732L13.9093 11.3565C14.0302 11.4726 14.0302 11.6607 13.9093 11.7768L12.0522 13.5601C11.9313 13.6762 11.7353 13.6762 11.6145 13.5601C11.4936 13.444 11.4936 13.2558 11.6145 13.1398L12.9432 11.8639H3.05678L4.38553 13.1398C4.50641 13.2558 4.50641 13.444 4.38553 13.5601C4.26466 13.6762 4.06868 13.6762 3.9478 13.5601L2.09066 11.7768C1.96978 11.6607 1.96978 11.4726 2.09066 11.3565L3.9478 9.5732C4.06868 9.45714 4.26466 9.45714 4.38553 9.5732C4.50641 9.68927 4.50641 9.87746 4.38553 9.99353L3.05678 11.2694H12.9432Z" fill="currentColor"/>
<path d="M8.31429 9.18894V2.94745H11.1C11.2709 2.94745 11.4095 2.81439 11.4095 2.65024C11.4095 2.48609 11.2709 2.35303 11.1 2.35303H4.90952C4.73858 2.35303 4.6 2.48609 4.6 2.65024C4.6 2.81439 4.73858 2.94745 4.90952 2.94745H7.69524V9.18894C7.69524 9.35309 7.83382 9.48615 8.00476 9.48615C8.17571 9.48615 8.31429 9.35309 8.31429 9.18894Z" fill="currentColor"/>
</svg>
