<svg width="24" height="24" viewBox="0 0 24 24" fill="none" xmlns="http://www.w3.org/2000/svg">
    <path fill-rule="evenodd" clip-rule="evenodd"
          d="M6.50049 11.9209C6.50049 11.761 6.63008 11.6314 6.78995 11.6314H17.2106C17.3704 11.6314 17.5 11.761 17.5 11.9209C17.5 12.0807 17.3704 12.2103 17.2106 12.2103H6.78995C6.63008 12.2103 6.50049 12.0807 6.50049 11.9209Z"
          fill="currentColor"/>
    <path fill-rule="evenodd" clip-rule="evenodd"
          d="M15.4082 9.79512V10.0733H14.9876V9.79512C14.9876 9.00136 14.7027 8.40434 14.126 8.00407C13.5493 7.61058 12.8234 7.41384 11.9347 7.41384C11.0595 7.41384 10.3336 7.6038 9.75015 7.9905C9.1667 8.3772 8.87498 8.90638 8.87498 9.5848C8.87498 10.346 9.25821 10.8809 9.84945 11.1972H9.12167C9.07169 11.1505 9.02339 11.1015 8.97674 11.0502C8.63075 10.6771 8.46114 10.1886 8.46114 9.5848C8.46114 8.77748 8.79357 8.14654 9.45164 7.68521C10.1097 7.23066 10.9374 7 11.9347 7C12.9455 7 13.7732 7.23066 14.4313 7.69878C15.0826 8.16689 15.4082 8.86567 15.4082 9.79512ZM14.1855 12.6445H15.0321C15.1851 12.7579 15.3217 12.8891 15.4421 13.038C15.6932 13.3636 15.8221 13.7775 15.8221 14.2795C15.8221 15.114 15.4693 15.772 14.7569 16.2605C14.0446 16.7558 13.1355 17 12.0297 17C10.9103 17 9.99438 16.7354 9.2956 16.213C8.59004 15.6906 8.23726 14.9512 8.23726 13.9878V13.4315H8.6511V13.9878C8.6511 14.8223 8.96996 15.46 9.6009 15.9077C10.2318 16.3623 11.0392 16.5862 12.0297 16.5862C12.9998 16.5862 13.8071 16.3826 14.4516 15.9688C15.0894 15.555 15.4082 14.9986 15.4082 14.2931C15.4082 13.7843 15.2386 13.3772 14.8926 13.0719C14.686 12.8936 14.4503 12.7516 14.1855 12.6445Z"
          fill="currentColor"/>
    <path d="M15.4082 10.0733V10.2733H15.6082V10.0733H15.4082ZM14.9876 10.0733H14.7876V10.2733H14.9876V10.0733ZM14.126 8.00407L14.24 7.83977L14.2387 7.83887L14.126 8.00407ZM9.84945 11.1972V11.3972L9.9438 11.0208L9.84945 11.1972ZM9.12167 11.1972L8.98514 11.3433L9.04279 11.3972H9.12167V11.1972ZM8.97674 11.0502L9.12474 10.9157L9.1234 10.9142L8.97674 11.0502ZM9.45164 7.68521L9.33797 7.52065L9.33684 7.52144L9.45164 7.68521ZM14.4313 7.69878L14.548 7.53637L14.5472 7.53581L14.4313 7.69878ZM14.1855 12.6445V12.4445L14.1105 12.8299L14.1855 12.6445ZM15.0321 12.6445L15.1512 12.4838L15.0982 12.4445H15.0321V12.6445ZM15.4421 13.038L15.6006 12.9159L15.5977 12.9122L15.4421 13.038ZM14.7569 16.2605L14.6438 16.0956L14.6428 16.0963L14.7569 16.2605ZM9.2956 16.213L9.41536 16.0528L9.41461 16.0523L9.2956 16.213ZM8.23726 13.4315V13.2315H8.03726V13.4315H8.23726ZM8.6511 13.4315H8.8511V13.2315H8.6511V13.4315ZM9.6009 15.9077L9.7178 15.7455L9.71664 15.7446L9.6009 15.9077ZM14.4516 15.9688L14.5597 16.1371L14.5605 16.1366L14.4516 15.9688ZM14.8926 13.0719L15.025 12.9219L15.0233 12.9205L14.8926 13.0719ZM6.78995 11.4314C6.51963 11.4314 6.30049 11.6505 6.30049 11.9209H6.70049C6.70049 11.8714 6.74054 11.8314 6.78995 11.8314V11.4314ZM17.2106 11.4314H6.78995V11.8314H17.2106V11.4314ZM17.7 11.9209C17.7 11.6505 17.4809 11.4314 17.2106 11.4314V11.8314C17.26 11.8314 17.3 11.8714 17.3 11.9209H17.7ZM17.2106 12.4103C17.4809 12.4103 17.7 12.1912 17.7 11.9209H17.3C17.3 11.9703 17.26 12.0103 17.2106 12.0103V12.4103ZM6.78995 12.4103H17.2106V12.0103H6.78995V12.4103ZM6.30049 11.9209C6.30049 12.1912 6.51963 12.4103 6.78995 12.4103V12.0103C6.74054 12.0103 6.70049 11.9703 6.70049 11.9209H6.30049ZM15.6082 10.0733V9.79512H15.2082V10.0733H15.6082ZM14.9876 10.2733H15.4082V9.87327H14.9876V10.2733ZM14.7876 9.79512V10.0733H15.1876V9.79512H14.7876ZM14.012 8.16837C14.5265 8.52556 14.7876 9.05621 14.7876 9.79512H15.1876C15.1876 8.94651 14.8788 8.28312 14.24 7.83977L14.012 8.16837ZM11.9347 7.61384C12.7938 7.61384 13.4776 7.80377 14.0133 8.16927L14.2387 7.83887C13.621 7.41739 12.853 7.21384 11.9347 7.21384V7.61384ZM9.86064 8.15721C10.4037 7.79731 11.0885 7.61384 11.9347 7.61384V7.21384C11.0306 7.21384 10.2635 7.41029 9.63966 7.82379L9.86064 8.15721ZM9.07498 9.5848C9.07498 8.97636 9.33061 8.50851 9.86064 8.15721L9.63966 7.82379C9.00279 8.2459 8.67498 8.8364 8.67498 9.5848H9.07498ZM9.9438 11.0208C9.41088 10.7358 9.07498 10.2649 9.07498 9.5848H8.67498C8.67498 10.4271 9.10554 11.026 9.75511 11.3735L9.9438 11.0208ZM9.12167 11.3972H9.84945V10.9972H9.12167V11.3972ZM8.82876 11.1847C8.87901 11.24 8.93113 11.2929 8.98514 11.3433L9.2582 11.051C9.21226 11.0081 9.16776 10.963 9.12473 10.9157L8.82876 11.1847ZM8.26114 9.5848C8.26114 10.2281 8.44302 10.7688 8.83009 11.1862L9.1234 10.9142C8.81848 10.5854 8.66114 10.1491 8.66114 9.5848H8.26114ZM9.33684 7.52144C8.62586 8.01986 8.26114 8.71166 8.26114 9.5848H8.66114C8.66114 8.8433 8.96127 8.27322 9.56645 7.84898L9.33684 7.52144ZM11.9347 6.8C10.9063 6.8 10.0365 7.03816 9.33798 7.52065L9.56531 7.84977C10.1829 7.42317 10.9685 7.2 11.9347 7.2V6.8ZM14.5472 7.53581C13.8474 7.03802 12.9763 6.8 11.9347 6.8V7.2C12.9148 7.2 13.699 7.42331 14.3154 7.86175L14.5472 7.53581ZM15.6082 9.79512C15.6082 8.813 15.2604 8.04842 14.548 7.53638L14.3146 7.86118C14.9047 8.28537 15.2082 8.91834 15.2082 9.79512H15.6082ZM15.0321 12.4445H14.1855V12.8445H15.0321V12.4445ZM15.5977 12.9122C15.4667 12.7503 15.3178 12.6074 15.1512 12.4838L14.913 12.8052C15.0523 12.9085 15.1768 13.0279 15.2866 13.1637L15.5977 12.9122ZM16.0221 14.2795C16.0221 13.7422 15.8835 13.283 15.6005 12.9159L15.2837 13.1601C15.5028 13.4443 15.6221 13.8128 15.6221 14.2795H16.0221ZM14.87 16.4255C15.6347 15.9011 16.0221 15.1824 16.0221 14.2795H15.6221C15.6221 15.0456 15.3038 15.643 14.6438 16.0956L14.87 16.4255ZM12.0297 17.2C13.1646 17.2 14.1167 16.9492 14.8711 16.4247L14.6428 16.0963C13.9724 16.5623 13.1064 16.8 12.0297 16.8V17.2ZM9.17585 16.3732C9.91776 16.9278 10.8791 17.2 12.0297 17.2V16.8C10.9414 16.8 10.071 16.543 9.41535 16.0528L9.17585 16.3732ZM8.03726 13.9878C8.03726 15.0077 8.41481 15.8098 9.17659 16.3738L9.41461 16.0523C8.76527 15.5715 8.43726 14.8946 8.43726 13.9878H8.03726ZM8.03726 13.4315V13.9878H8.43726V13.4315H8.03726ZM8.6511 13.2315H8.23726V13.6315H8.6511V13.2315ZM8.8511 13.9878V13.4315H8.4511V13.9878H8.8511ZM9.71664 15.7446C9.14249 15.3372 8.8511 14.7624 8.8511 13.9878H8.4511C8.4511 14.8821 8.79742 15.5828 9.48515 16.0708L9.71664 15.7446ZM12.0297 16.3862C11.0691 16.3862 10.3061 16.1693 9.7178 15.7455L9.48399 16.07C10.1575 16.5553 11.0092 16.7862 12.0297 16.7862V16.3862ZM14.3436 15.8005C13.7393 16.1885 12.9723 16.3862 12.0297 16.3862V16.7862C13.0274 16.7862 13.875 16.5768 14.5597 16.1371L14.3436 15.8005ZM15.2082 14.2931C15.2082 14.9245 14.9293 15.4204 14.3428 15.801L14.5605 16.1366C15.2495 15.6895 15.6082 15.0728 15.6082 14.2931H15.2082ZM14.7603 13.2219C15.0578 13.4844 15.2082 13.834 15.2082 14.2931H15.6082C15.6082 13.7346 15.4194 13.27 15.0249 12.9219L14.7603 13.2219ZM14.1105 12.8299C14.3562 12.9293 14.5729 13.0602 14.762 13.2233L15.0233 12.9205C14.7991 12.7271 14.5443 12.5739 14.2606 12.4591L14.1105 12.8299Z"
          fill="currentColor"/>
</svg>
