<svg width="24" height="24" viewBox="0 0 24 24" fill="none" xmlns="http://www.w3.org/2000/svg">
<path d="M11.6895 12.3105C11.4942 12.1152 11.1776 12.1152 10.9824 12.3105C10.7871 12.5058 10.7871 12.8224 10.9824 13.0176L11.6895 12.3105ZM16.4024 7.59762L16.7559 7.24406V7.24406L16.4024 7.59762ZM13.5168 7.59762L13.1633 7.24406V7.24406L13.5168 7.59762ZM7.59762 13.5168L7.24406 13.1633H7.24406L7.59762 13.5168ZM9.77851 11.3359L9.42496 10.9824L9.77851 11.3359ZM12.3105 11.6895C12.5058 11.8848 12.8224 11.8848 13.0176 11.6895C13.2129 11.4942 13.2129 11.1776 13.0176 10.9824L12.3105 11.6895ZM7.59762 16.4024L7.24406 16.7559H7.24406L7.59762 16.4024ZM10.4832 16.4024L10.1296 16.0488H10.1296L10.4832 16.4024ZM11.1206 9.28671C10.9254 9.48198 10.9254 9.79856 11.1206 9.99382C11.3159 10.1891 11.6325 10.1891 11.8277 9.99382L11.1206 9.28671ZM12.8794 14.7133C13.0746 14.518 13.0746 14.2014 12.8794 14.0062C12.6841 13.8109 12.3675 13.8109 12.1723 14.0062L12.8794 14.7133ZM16.0488 10.1296L13.8679 12.3105L14.575 13.0176L16.7559 10.8367L16.0488 10.1296ZM13.8679 12.3105C13.2664 12.9121 12.2911 12.9121 11.6895 12.3105L10.9824 13.0176C11.9745 14.0097 13.583 14.0097 14.575 13.0176L13.8679 12.3105ZM16.0488 7.95117C16.6504 8.55273 16.6504 9.52805 16.0488 10.1296L16.7559 10.8367C17.748 9.84463 17.748 8.23615 16.7559 7.24406L16.0488 7.95117ZM16.7559 7.24406C15.7639 6.25198 14.1554 6.25198 13.1633 7.24406L13.8704 7.95117C14.4719 7.34961 15.4473 7.34961 16.0488 7.95117L16.7559 7.24406ZM7.95117 13.8704L10.1321 11.6895L9.42496 10.9824L7.24406 13.1633L7.95117 13.8704ZM10.1321 11.6895C10.7336 11.0879 11.7089 11.0879 12.3105 11.6895L13.0176 10.9824C12.0255 9.9903 10.417 9.9903 9.42496 10.9824L10.1321 11.6895ZM7.95117 16.0488C7.34961 15.4473 7.34961 14.4719 7.95117 13.8704L7.24406 13.1633C6.25198 14.1554 6.25198 15.7639 7.24406 16.7559L7.95117 16.0488ZM7.24406 16.7559C8.23615 17.748 9.84463 17.748 10.8367 16.7559L10.1296 16.0488C9.52805 16.6504 8.55273 16.6504 7.95117 16.0488L7.24406 16.7559ZM11.8277 9.99382L13.8704 7.95117L13.1633 7.24406L11.1206 9.28671L11.8277 9.99382ZM12.1723 14.0062L10.1296 16.0488L10.8367 16.7559L12.8794 14.7133L12.1723 14.0062Z" fill="currentColor"/>
</svg>
