<svg width="13" height="13" viewBox="0 0 13 13"  xmlns="http://www.w3.org/2000/svg" id="loadingImage">
<path d="M12.5357 0H0.464286C0.341149 0 0.223057 0.0526797 0.135986 0.14645C0.0489156 0.24022 0 0.3674 0 0.500011V3.00007C0 3.13268 0.0489156 3.25986 0.135986 3.35363C0.223057 3.4474 0.341149 3.50008 0.464286 3.50008C0.587422 3.50008 0.705515 3.4474 0.792585 3.35363C0.879656 3.25986 0.928571 3.13268 0.928571 3.00007V1.00002H12.0714V3.00007C12.0714 3.13268 12.1203 3.25986 12.2074 3.35363C12.2945 3.4474 12.4126 3.50008 12.5357 3.50008C12.6589 3.50008 12.7769 3.4474 12.864 3.35363C12.9511 3.25986 13 3.13268 13 3.00007V0.500011C13 0.3674 12.9511 0.24022 12.864 0.14645C12.7769 0.0526797 12.6589 0 12.5357 0Z" fill="currentColor" />
<path d="M6.79253 2.10976C6.71018 2.03875 6.60784 2.00007 6.50235 2.00007C6.39686 2.00007 6.29452 2.03875 6.21217 2.10976L1.56931 6.10985C1.47365 6.19235 1.41215 6.31224 1.39824 6.44337C1.38432 6.5745 1.41911 6.70624 1.49503 6.80986C1.53301 6.8616 1.58012 6.90473 1.63364 6.93678C1.68716 6.96882 1.74604 6.98915 1.80689 6.99658C1.86774 7.00402 1.92935 6.99842 1.98818 6.9801C2.04701 6.96179 2.10189 6.93112 2.14967 6.88986L6.03574 3.53979V12.5C6.03574 12.6326 6.08466 12.7598 6.17173 12.8535C6.2588 12.9473 6.37689 13 6.50003 13C6.62317 13 6.74126 12.9473 6.82833 12.8535C6.9154 12.7598 6.96432 12.6326 6.96432 12.5V3.53979L10.855 6.88986C10.9367 6.96045 11.0382 6.99921 11.1429 6.99987C11.2126 6.99952 11.2814 6.98226 11.3441 6.94937C11.4068 6.91647 11.4618 6.86879 11.505 6.80986C11.5815 6.70686 11.617 6.57552 11.604 6.44442C11.591 6.31331 11.5304 6.19307 11.4354 6.10985L6.79253 2.10976Z" fill="currentColor" />
</svg>
