<svg width="24" height="24" viewBox="0 0 24 24" fill="none" xmlns="http://www.w3.org/2000/svg">
<path d="M8.14812 15.48C7.76412 15.48 7.40812 15.4 7.08012 15.24C6.75212 15.08 6.48812 14.864 6.28812 14.592C6.09612 14.32 6.00012 14.02 6.00012 13.692C6.00012 13.164 6.21212 12.732 6.63612 12.396C7.06812 12.06 7.64812 11.844 8.37612 11.748L10.2721 11.484V11.064C10.2721 10.624 10.1361 10.288 9.86412 10.056C9.60012 9.816 9.19212 9.696 8.64012 9.696C8.23212 9.696 7.89612 9.776 7.63212 9.936C7.37612 10.096 7.21212 10.288 7.14012 10.512C7.10812 10.608 7.06812 10.676 7.02012 10.716C6.98012 10.748 6.92412 10.764 6.85212 10.764H6.68412C6.61212 10.764 6.54812 10.74 6.49212 10.692C6.44412 10.636 6.42012 10.572 6.42012 10.5C6.42012 10.324 6.50012 10.12 6.66012 9.888C6.82012 9.648 7.06812 9.44 7.40412 9.264C7.74012 9.088 8.15212 9 8.64012 9C9.49612 9 10.1041 9.204 10.4641 9.612C10.8241 10.02 11.0041 10.516 11.0041 11.1V15.096C11.0041 15.176 10.9801 15.24 10.9321 15.288C10.8841 15.336 10.8201 15.36 10.7401 15.36H10.5361C10.4561 15.36 10.3921 15.336 10.3441 15.288C10.2961 15.24 10.2721 15.176 10.2721 15.096V14.532C10.0961 14.796 9.83612 15.02 9.49212 15.204C9.15612 15.388 8.70812 15.48 8.14812 15.48ZM8.26812 14.784C8.85212 14.784 9.33212 14.592 9.70812 14.208C10.0841 13.824 10.2721 13.272 10.2721 12.552V12.144L8.72412 12.36C8.06812 12.448 7.57212 12.6 7.23612 12.816C6.90012 13.032 6.73212 13.304 6.73212 13.632C6.73212 14 6.88412 14.284 7.18812 14.484C7.50012 14.684 7.86012 14.784 8.26812 14.784Z" fill="currentColor"/>
<path d="M14.5817 15.48C14.1977 15.48 13.8417 15.4 13.5137 15.24C13.1857 15.08 12.9217 14.864 12.7217 14.592C12.5297 14.32 12.4337 14.02 12.4337 13.692C12.4337 13.164 12.6457 12.732 13.0697 12.396C13.5017 12.06 14.0817 11.844 14.8097 11.748L16.7057 11.484V11.064C16.7057 10.624 16.5697 10.288 16.2977 10.056C16.0337 9.816 15.6257 9.696 15.0737 9.696C14.6657 9.696 14.3297 9.776 14.0657 9.936C13.8097 10.096 13.6457 10.288 13.5737 10.512C13.5417 10.608 13.5017 10.676 13.4537 10.716C13.4137 10.748 13.3577 10.764 13.2857 10.764H13.1177C13.0457 10.764 12.9817 10.74 12.9257 10.692C12.8777 10.636 12.8537 10.572 12.8537 10.5C12.8537 10.324 12.9337 10.12 13.0937 9.888C13.2537 9.648 13.5017 9.44 13.8377 9.264C14.1737 9.088 14.5857 9 15.0737 9C15.9297 9 16.5377 9.204 16.8977 9.612C17.2577 10.02 17.4377 10.516 17.4377 11.1V15.096C17.4377 15.176 17.4137 15.24 17.3657 15.288C17.3177 15.336 17.2537 15.36 17.1737 15.36H16.9697C16.8897 15.36 16.8257 15.336 16.7777 15.288C16.7297 15.24 16.7057 15.176 16.7057 15.096V14.532C16.5297 14.796 16.2697 15.02 15.9257 15.204C15.5897 15.388 15.1417 15.48 14.5817 15.48ZM14.7017 14.784C15.2857 14.784 15.7657 14.592 16.1417 14.208C16.5177 13.824 16.7057 13.272 16.7057 12.552V12.144L15.1577 12.36C14.5017 12.448 14.0057 12.6 13.6697 12.816C13.3337 13.032 13.1657 13.304 13.1657 13.632C13.1657 14 13.3177 14.284 13.6217 14.484C13.9337 14.684 14.2937 14.784 14.7017 14.784Z" fill="currentColor"/>
</svg>
