<svg width="24" height="24" viewBox="0 0 24 24" fill="none" xmlns="http://www.w3.org/2000/svg">
<path fill-rule="evenodd" clip-rule="evenodd" d="M17.9735 13.5055C18.0342 13.6961 18.0688 13.8173 18.0688 13.852C18.2941 13.852 18.6146 14.0686 18.5626 14.649C18.5626 15.2207 18.3374 15.8531 18.2767 15.983C17.4538 17.9495 15.4614 19.0583 13.1138 18.9976C10.9308 18.9283 9.05961 17.7935 8.23665 15.8877C7.72555 15.8877 7.22311 15.6625 6.84196 15.316C6.46946 14.9348 6.20958 14.4584 6.14894 13.9819C6.12295 13.6008 6.14894 13.2543 6.27888 12.9337L5.83708 12.5526C3.74937 10.7767 10.307 3.45673 12.3601 5.29323C12.3948 5.29323 13.0878 5.98625 13.0878 5.98625L13.4689 5.83032C15.3401 5.068 16.8301 5.44916 16.8301 6.65327C16.8301 7.28565 16.4143 8.04797 15.7819 8.715C16.0331 8.94023 16.2237 9.28674 16.319 9.6679C16.4143 9.95377 16.4489 10.2396 16.4489 10.4302C16.4836 10.6814 16.4836 11.2878 16.4836 11.2878L16.7348 11.3485C17.2112 11.4784 17.5924 11.669 17.7483 11.8596C17.9042 12.0501 17.9995 12.2407 18.0342 12.4313C18.0688 12.5872 18.0688 12.8991 17.8436 13.2196L17.9735 13.5055ZM8.37123 15.3489C8.39491 15.3453 8.41707 15.342 8.43589 15.342C9.23286 15.212 9.41478 14.3891 9.2935 13.5228C9.13757 12.6046 8.5052 12.2927 8.08939 12.258H8.08938C7.95944 12.258 7.86415 12.258 7.76887 12.2927C7.00655 12.4573 6.5994 13.0897 6.66004 13.9126C6.72068 14.6749 7.51765 15.3073 8.21066 15.342C8.25845 15.3659 8.3186 15.3568 8.37123 15.3489ZM6.50411 12.5179C6.76399 12.1368 7.17114 11.8856 7.64759 11.7903C8.24531 10.1703 9.25885 8.68035 10.5929 7.6928C11.5805 6.86984 12.6546 6.26345 12.6546 6.26345C12.6546 6.26345 12.0829 5.59642 11.8923 5.53579C10.8441 5.25858 8.53118 6.84386 7.07585 8.93157C6.46946 9.76319 5.61185 11.2792 6.02766 12.0415C6.06231 12.1368 6.34818 12.388 6.50411 12.5179ZM15.1582 14.9868L15.1235 15.0215C15.1235 15.0215 14.2659 15.4373 12.8452 15.0215C12.9145 15.342 13.2004 15.4719 13.3563 15.5326C13.5469 15.5932 13.7375 15.6278 13.7375 15.6278C15.418 15.9137 17.0033 14.9608 17.3498 14.7096C17.3845 14.6836 17.4191 14.7096 17.3845 14.7442L17.3498 14.8049C16.934 15.3766 15.7645 16.009 14.2399 16.009C13.6075 16.009 12.9405 15.7491 12.6893 15.4026C12.3168 14.8655 12.6633 14.0426 13.2957 14.1379L13.5815 14.1725C14.3699 14.2678 15.4787 14.1725 16.4316 13.7307C17.2892 13.3149 17.6357 12.8731 17.5751 12.5266C17.5491 12.4313 17.5144 12.336 17.4191 12.2407C17.2632 12.0848 17.012 11.9895 16.5962 11.8596C16.4662 11.8249 16.3709 11.7989 16.2756 11.7643C16.0851 11.7036 16.0244 11.643 15.9898 11.3225C15.9898 11.2664 15.9833 11.1409 15.976 10.9982C15.9663 10.8104 15.9551 10.5929 15.9551 10.4649C15.9534 10.4461 15.9517 10.4272 15.95 10.408C15.9172 10.0383 15.8787 9.60484 15.574 9.39069C15.5133 9.33005 15.418 9.2954 15.3227 9.2954C15.2552 9.27083 15.2225 9.2811 15.1968 9.28916C15.1863 9.29247 15.1769 9.2954 15.1668 9.2954C15.0078 9.32431 14.9152 9.39541 14.8134 9.47351C14.7931 9.48903 14.7726 9.50483 14.751 9.52063C14.3699 9.83249 14.0233 9.86714 13.6768 9.86714C13.5932 9.86714 13.4931 9.85432 13.3849 9.84047C13.2578 9.8242 13.1195 9.8065 12.9838 9.8065H12.8279C12.2302 9.78051 11.5631 10.283 11.4678 11.0453C11.3423 11.889 11.8062 12.4016 12.1094 12.7366C12.1828 12.8178 12.2469 12.8886 12.2908 12.9511C12.2943 12.9558 12.298 12.9605 12.3018 12.9653C12.3256 12.9956 12.3514 13.0286 12.3514 13.081C12.3514 13.1416 12.3255 13.2023 12.2908 13.2369C11.6498 13.8693 11.4592 14.8828 11.6844 15.7405C11.6844 15.8372 11.718 15.9147 11.7495 15.9873C11.7603 16.0122 11.7708 16.0366 11.7797 16.061C12.3168 17.3604 14.0233 17.9321 15.7386 17.395C15.9551 17.3344 16.1804 17.2391 16.3709 17.1438C16.7434 16.9532 17.0986 16.702 17.3498 16.4162C17.757 15.9397 18.0428 15.4633 18.1381 14.8309C18.1641 14.5104 18.1035 14.3804 18.0082 14.3198C17.9129 14.2505 17.783 14.2851 17.783 14.2851C17.783 14.2851 17.7137 13.8693 17.5577 13.5228C17.0813 13.8953 16.4489 14.1812 15.9725 14.3111C15.4354 14.4757 14.673 14.597 13.8501 14.5363C13.7705 14.526 13.6962 14.5137 13.627 14.5022C13.2896 14.4463 13.0743 14.4106 12.9665 14.7269C14.0147 15.1081 15.1235 14.9522 15.1235 14.9522C15.1235 14.9522 15.1582 14.9522 15.1582 14.9868ZM12.1089 7.51088C11.5371 7.79675 10.8788 8.33384 10.3677 8.94023C10.3452 8.96274 10.3616 8.96575 10.3946 8.97178C10.3997 8.97272 10.4052 8.97372 10.411 8.97488C10.8528 8.66302 11.4592 8.3425 12.2821 8.15193C13.2004 7.92669 14.058 8.02198 14.5951 8.15193C14.6297 8.15193 14.6644 8.09129 14.6297 8.09129C14.2832 7.87472 13.7461 7.74478 13.365 7.74478C13.3303 7.74478 13.3303 7.71013 13.3303 7.71013C13.3635 7.67696 13.3925 7.6438 13.4201 7.6121C13.472 7.55271 13.5194 7.49844 13.5815 7.45891C13.5815 7.45891 13.5815 7.42426 13.5469 7.42426C13.0011 7.45024 12.3688 7.71013 12.0223 7.96134C12.0223 7.96134 11.9876 7.96134 11.9876 7.92669C12.0043 7.84307 12.0498 7.74868 12.0893 7.66662C12.1111 7.62117 12.1312 7.5795 12.1435 7.54554C12.1435 7.51088 12.1435 7.51088 12.1089 7.51088ZM15.6346 11.5997H15.3487C15.2535 11.5044 15.1842 11.3485 15.1582 11.1579C15.0975 10.8374 15.0975 10.5862 15.2881 10.5515C15.4787 10.5256 15.574 10.7421 15.6346 11.0626C15.6953 11.2792 15.6953 11.4698 15.6346 11.5997ZM13.9194 11.9463C13.8934 11.9809 13.7981 11.9463 13.6682 11.8857C13.6232 11.8647 13.571 11.8427 13.514 11.8232C13.5225 11.8967 13.5252 11.971 13.5221 12.0393C13.7013 12.0528 13.8259 12.1295 13.8329 12.2061V12.2668C13.8176 12.2872 13.7992 12.2835 13.7671 12.2771C13.7449 12.2726 13.716 12.2668 13.677 12.2668C13.6164 12.2533 13.5545 12.2451 13.4867 12.2456C13.4839 12.2531 13.481 12.2602 13.4779 12.2669C13.3974 12.3693 13.317 12.4346 13.1949 12.2962C13.1662 12.3052 13.1364 12.3156 13.1052 12.3274C13.1052 12.3274 13.0099 12.362 12.9753 12.362H12.9406V12.3274C12.9406 12.2927 12.9753 12.2581 13.0359 12.1975L13.0359 12.1975C13.0544 12.179 13.076 12.1606 13.1026 12.1429C13.0951 12.1257 13.0864 12.1076 13.0771 12.0881C13.0418 12.0139 12.9973 11.9205 12.9727 11.7901C12.8327 11.8172 12.7085 11.8569 12.6196 11.8854L12.6196 11.8854L12.6196 11.8854L12.6196 11.8854C12.5559 11.9057 12.5103 11.9203 12.49 11.9203C12.464 11.9203 12.4294 11.9203 12.4294 11.8857C12.3947 11.8164 12.49 11.7211 12.5853 11.6604C12.6939 11.5749 12.8113 11.5168 12.9327 11.4848C12.9217 11.2833 12.9606 11.1482 13.0967 11.1234C13.2879 11.1234 13.3855 11.2608 13.4477 11.4984C13.478 11.5076 13.5082 11.5183 13.5382 11.5305C13.6595 11.5911 13.8241 11.6864 13.8847 11.8164C13.8936 11.8342 13.9026 11.8492 13.9103 11.8621C13.9326 11.8996 13.9451 11.9206 13.9194 11.9463ZM14.7771 12.6133C14.907 12.6739 15.0283 12.6479 15.0976 12.5526C15.1323 12.4573 15.063 12.3274 14.9417 12.2668C14.8118 12.2061 14.6905 12.2321 14.6212 12.3274C14.5519 12.4227 14.6472 12.5526 14.7771 12.6133ZM15.3743 12.1714C15.3743 12.0155 15.4696 11.9202 15.5648 11.9202C15.6601 11.9202 15.7294 12.0414 15.7554 12.1714C15.7554 12.3273 15.6601 12.4226 15.5648 12.4226C15.4349 12.4226 15.3743 12.3013 15.3743 12.1714ZM8.85189 14.3891C8.81724 14.3545 8.79125 14.3545 8.7566 14.3891H8.66131C8.60068 14.3891 8.53137 14.3545 8.50539 14.2938C8.4794 14.2332 8.47073 14.1379 8.50539 14.0079L8.54004 13.9473C8.63533 13.7567 8.76527 13.4709 8.60067 13.185C8.47073 12.9598 8.31481 12.8385 8.08958 12.8038C7.86434 12.7692 7.64778 12.8645 7.51784 13.0291C7.29261 13.2803 7.26662 13.6008 7.29261 13.7221C7.29261 13.7567 7.32726 13.7827 7.35324 13.7827C7.3879 13.7827 7.44853 13.7481 7.48319 13.6528V13.6181C7.48319 13.5575 7.51784 13.4882 7.57848 13.3929C7.63911 13.2976 7.7344 13.237 7.82969 13.237C7.92498 13.2023 8.05492 13.237 8.15021 13.2976C8.30614 13.3929 8.37544 13.5835 8.30614 13.7741C8.21085 13.8693 8.1762 14.0253 8.1762 14.1899C8.21085 14.4757 8.40143 14.6057 8.55736 14.6317C8.71329 14.6317 8.84323 14.5364 8.84323 14.4757C8.86656 14.4407 8.8624 14.4293 8.85719 14.415C8.85467 14.4081 8.85189 14.4004 8.85189 14.3891Z" fill="black"/>
</svg>
