<svg width="10" height="18" viewBox="0 0 10 18" fill="none" xmlns="http://www.w3.org/2000/svg">
    <path d="M7.66124 0H1.40717C0.625407 0 0 0.625407 0 1.40717V16.5928C0 17.3746 0.625407 18 1.40717 18H7.66124C8.443 18 9.0684 17.3746 9.0684 16.5928V1.42671C9.0684 0.644951 8.443 0 7.66124 0ZM4.5342 17.3355C4.28013 17.3355 4.06515 17.1205 4.06515 16.8664C4.06515 16.6124 4.28013 16.3974 4.5342 16.3974C4.78827 16.3974 5.00326 16.6124 5.00326 16.8664C5.00326 17.1205 4.78827 17.3355 4.5342 17.3355ZM8.56026 15.7915H0.508143V2.42345H8.54072V15.7915H8.56026Z"
          fill="currentColor"/>
</svg>
