<svg
        xmlns="http://www.w3.org/2000/svg"
        width="12"
        height="13"
        viewBox="0 0 12 13"
        fill="none"
>
    <path
            d="M9.75549 3.02258V1.49487C9.75549 1.09899 9.43457 0.778076 9.0387 0.778076C8.64283 0.778076 8.32191 1.09899 8.32191 1.49487V3.02258H6.79467C6.3988 3.02258 6.07788 3.3435 6.07788 3.73937C6.07788 4.13524 6.3988 4.45616 6.79467 4.45616H8.32191V5.9834C8.32191 6.37927 8.64283 6.70019 9.0387 6.70019C9.43457 6.70019 9.75549 6.37927 9.75549 5.9834V4.45616H11.2832C11.6791 4.45616 12 4.13524 12 3.73937C12 3.3435 11.6791 3.02258 11.2832 3.02258H9.75549Z"
            fill="currentColor"
    />
    <path
            d="M10.3189 10.0906C10.3189 10.7821 9.75645 11.3445 9.06499 11.3445H2.68748C1.99602 11.3445 1.43358 10.7821 1.43358 10.0906V3.71312C1.43358 3.02165 1.99602 2.45921 2.68748 2.45921H3.94473C4.3406 2.45921 4.66152 2.1383 4.66152 1.74242C4.66152 1.34655 4.3406 1.02563 3.94473 1.02563H2.68748C1.20564 1.02563 0 2.23127 0 3.71312V10.0906C0 11.5725 1.20564 12.7781 2.68748 12.7781H9.06499C10.5468 12.7781 11.7525 11.5725 11.7525 10.0906V8.8329C11.7525 8.43703 11.4316 8.11611 11.0357 8.11611C10.6398 8.11611 10.3189 8.43703 10.3189 8.8329V10.0906Z"
            fill="currentColor"
    />
</svg>