<svg width="16" height="17" viewBox="0 0 16 17" fill="none" xmlns="http://www.w3.org/2000/svg">
<path d="M3.63378 1.5H12.3803C13.8301 1.5 15.0141 2.6839 15.0141 4.13378V12.8803C15.0141 14.3301 13.8302 15.5141 12.3803 15.5141H3.63378C2.184 15.5141 1 14.3302 1 12.8803V4.13378C1 2.684 2.1839 1.5 3.63378 1.5ZM3.62276 11.2422H5.64164V12.5041H3.62276V11.2422ZM7.37232 11.2422H12.3912V12.5041H7.37232V11.2422ZM3.62276 7.87577H5.64164V9.13771H3.62276V7.87577ZM7.37232 7.87577H12.3912V9.13771H7.37232V7.87577ZM3.62276 4.50936H5.64164V5.7713H3.62276V4.50936ZM7.37232 4.50936H12.3912V5.7713H7.37232V4.50936ZM12.3803 2.76168H3.63373C2.88079 2.76168 2.2621 3.38037 2.2621 4.13331V12.8798C2.2621 13.6333 2.88079 14.2515 3.63373 14.2515H12.3803C13.1337 14.2515 13.7519 13.6332 13.7519 12.8798V4.13331C13.7519 3.38037 13.1336 2.76168 12.3803 2.76168Z" fill="currentColor"/>
</svg>
