<svg width="24" height="24" viewBox="0 0 24 24" fill="none" xmlns="http://www.w3.org/2000/svg">
<path d="M1.49194 12.4773V11.7954L6.98058 8.99999V10.0909L2.77035 12.1193L2.80444 12.0511V12.2216L2.77035 12.1534L6.98058 14.1818V15.2727L1.49194 12.4773Z" fill="currentColor"/>
<path d="M9.24869 16.3636V7.63635H12.1976C12.8822 7.63635 13.4419 7.75993 13.8765 8.00709C14.314 8.25141 14.6379 8.58238 14.8481 8.99999C15.0584 9.4176 15.1635 9.88351 15.1635 10.3977C15.1635 10.9119 15.0584 11.3793 14.8481 11.7997C14.6407 12.2202 14.3197 12.5554 13.8851 12.8054C13.4504 13.0525 12.8936 13.1761 12.2146 13.1761H10.101V12.2386H12.1805C12.6493 12.2386 13.0257 12.1577 13.3098 11.9957C13.5939 11.8338 13.7998 11.615 13.9277 11.3395C14.0584 11.0611 14.1237 10.7471 14.1237 10.3977C14.1237 10.0483 14.0584 9.73578 13.9277 9.46022C13.7998 9.18465 13.5924 8.96874 13.3055 8.81249C13.0186 8.6534 12.6379 8.57385 12.1635 8.57385H10.3055V16.3636H9.24869Z" fill="currentColor"/>
<path d="M22.5079 12.4773L17.0193 15.2727V14.1818L21.2295 12.1534L21.1954 12.2216V12.0511L21.2295 12.1193L17.0193 10.0909V8.99999L22.5079 11.7954V12.4773Z" fill="currentColor"/>
</svg>
