<svg xmlns="http://www.w3.org/2000/svg" width="12" height="12" viewBox="0 0 12 12" fill="none">
    <path
            d="M10.1133 3.5045H1.88666C0.852516 3.5045 0.0514339 4.41613 0.188511 5.4441L0.864391 10.5132C0.977414 11.3608 1.70746 12 2.56254 12H9.43742C10.2925 12 11.0225 11.3608 11.1356 10.5132L11.8114 5.4441C11.9484 4.41711 11.1483 3.5045 10.1133 3.5045ZM10.8344 5.31383L10.1585 10.3829C10.1106 10.7429 9.80054 11.0143 9.43742 11.0143H2.56254C2.19942 11.0143 1.88941 10.7429 1.84141 10.3829L1.16553 5.31383C1.10783 4.88112 1.44218 4.49017 1.88666 4.49017H10.1133C10.551 4.49017 10.893 4.87418 10.8344 5.31383Z"
            fill="currentColor"
    />
    <path
            d="M1.9948 2.73795H10.0052C10.2774 2.73795 10.4981 2.5173 10.4981 2.24511C10.4981 1.97293 10.2774 1.75228 10.0052 1.75228H1.9948C1.72262 1.75228 1.50197 1.97293 1.50197 2.24511C1.50197 2.5173 1.72262 2.73795 1.9948 2.73795Z"
            fill="currentColor"
    />
    <path
            d="M2.74576 0.985659H9.25423C9.52641 0.985659 9.74706 0.765012 9.74706 0.49283C9.74706 0.220647 9.52641 0 9.25423 0H2.74576C2.47357 0 2.25293 0.220647 2.25293 0.49283C2.25293 0.765012 2.47357 0.985659 2.74576 0.985659Z"
            fill="currentColor"
    />
</svg>