<svg width="15" height="15" viewBox="0 0 15 15" fill="none" xmlns="http://www.w3.org/2000/svg">
<path fill-rule="evenodd" clip-rule="evenodd" d="M10.1398 0.0584507C10.4358 -0.0729361 10.8008 0.0246363 10.9553 0.276386L14.7485 6.46007C15.0838 7.00661 15.0838 7.6581 14.7485 8.20465L10.7496 14.7236C10.5951 14.9754 10.2301 15.0729 9.93417 14.9415C9.63826 14.8102 9.52357 14.4996 9.67801 14.2478L13.677 7.72885C13.8294 7.48042 13.8294 7.18429 13.677 6.93586L9.88369 0.752181C9.72925 0.500431 9.84394 0.189838 10.1398 0.0584507Z" fill="black"/>
<path fill-rule="evenodd" clip-rule="evenodd" d="M4.8684 1.30417L1.25473 7.1733C1.19339 7.27291 1.19339 7.39179 1.25473 7.49141L4.8684 13.3605C5.01923 13.6055 5.43139 13.6055 5.58221 13.3605L9.19588 7.49141C9.25722 7.39179 9.25722 7.27291 9.19588 7.1733L5.58221 1.30417C5.43138 1.0592 5.01923 1.0592 4.8684 1.30417ZM0.18401 6.69612C-0.0613363 7.0946 -0.0613369 7.57011 0.18401 7.96859L3.79768 13.8377C4.40099 14.8176 6.04962 14.8176 6.65293 13.8377L10.2666 7.96859C10.5119 7.57011 10.5119 7.0946 10.2666 6.69612L6.65293 0.826991C6.04962 -0.152879 4.401 -0.152881 3.79768 0.826989L0.18401 6.69612Z" fill="black"/>
</svg>
