<svg xmlns="http://www.w3.org/2000/svg" width="12" height="13" viewBox="0 0 12 13" fill="none">
    <path
            fill-rule="evenodd"
            clip-rule="evenodd"
            d="M3.69326 1.01115C3.56423 0.900185 3.39926 0.839924 3.22908 0.841599L3.22494 0.841619H1.54202C1.44472 0.841736 1.34851 0.862099 1.25951 0.901413C1.17045 0.940751 1.09055 0.998203 1.02491 1.07011C0.959274 1.14202 0.909326 1.22681 0.878249 1.31907C0.847485 1.41041 0.835882 1.5071 0.844152 1.60311C1.02177 3.27026 1.58931 4.87222 2.50089 6.27937L2.5029 6.28247C3.33116 7.58591 4.43623 8.69101 5.73967 9.51927L5.74295 9.52135C7.14358 10.4297 8.73757 10.9971 10.397 11.178C10.4932 11.1863 10.59 11.1745 10.6815 11.1436C10.774 11.1123 10.8589 11.0621 10.9309 10.9961C11.0029 10.93 11.0602 10.8497 11.0994 10.7602C11.1385 10.6708 11.1585 10.5741 11.1581 10.4764L11.1581 10.4747V8.7916C11.1581 8.78812 11.1581 8.78464 11.1582 8.78116C11.1625 8.60919 11.1034 8.44165 10.9922 8.31041C10.8814 8.17959 10.7264 8.09392 10.5567 8.06957C9.98737 7.99431 9.42832 7.85497 8.89024 7.65418L8.88929 7.65382C8.76378 7.60665 8.62738 7.59644 8.49625 7.6244C8.36545 7.6523 8.24536 7.71701 8.15014 7.8109C8.1499 7.81114 8.14966 7.81138 8.14941 7.81162L7.43856 8.52248C7.30462 8.65642 7.09769 8.68436 6.93303 8.59073C5.46259 7.75461 4.24509 6.53711 3.40898 5.06668C3.31535 4.90202 3.34328 4.69509 3.47723 4.56115L4.18882 3.84955C4.2827 3.75433 4.34741 3.63425 4.3753 3.50346C4.40327 3.37233 4.39306 3.23592 4.34588 3.11042L4.34553 3.10947C4.14475 2.5714 4.0054 2.01238 3.93014 1.44303C3.906 1.27518 3.82186 1.12174 3.69326 1.01115ZM3.22303 5.44269e-05C3.59662 -0.00308222 3.95869 0.12945 4.24199 0.373088C4.52586 0.617212 4.71127 0.956226 4.76367 1.32694L4.76421 1.33081C4.83111 1.83798 4.95514 2.33597 5.13399 2.81525L4.73976 2.96236L5.13363 2.8143C5.23742 3.09042 5.25989 3.3905 5.19836 3.67899C5.13683 3.96748 4.9939 4.23229 4.78649 4.44203L4.78483 4.44371L4.30342 4.9251C5.00027 6.05077 5.94894 6.99943 7.0746 7.69629L7.55767 7.21322C7.76742 7.00581 8.03223 6.86288 8.32072 6.80135C8.60901 6.73986 8.90888 6.76225 9.18484 6.86586C9.66401 7.04463 10.1619 7.16864 10.6689 7.23551L10.6727 7.23601C11.0474 7.28887 11.3896 7.47764 11.6343 7.76638C11.8777 8.05369 12.0076 8.42005 11.9997 8.7964V10.4739C12.0004 10.6884 11.9564 10.9008 11.8704 11.0974C11.7844 11.2942 11.6581 11.4709 11.4998 11.6162C11.3415 11.7614 11.1546 11.872 10.9511 11.9408C10.7476 12.0097 10.5319 12.0352 10.3179 12.0159L10.3103 12.0151C8.51914 11.8205 6.79853 11.2086 5.28668 10.2285C3.8802 9.33444 2.68765 8.14188 1.79359 6.7354C0.810063 5.21665 0.19798 3.48764 0.00690656 1.68834L0.00626152 1.68178C-0.0130163 1.46845 0.0123365 1.25345 0.0807052 1.05046C0.149074 0.847466 0.258961 0.660934 0.40337 0.502737C0.547778 0.344541 0.723545 0.218146 0.919478 0.131601C1.11541 0.0450558 1.32722 0.000256309 1.54142 5.45941e-05L3.22303 5.44269e-05Z"
            fill="currentColor"
    />
</svg>