<svg width="24" height="24" viewBox="0 0 24 24" fill="none" xmlns="http://www.w3.org/2000/svg">
<path fill-rule="evenodd" clip-rule="evenodd" d="M16.375 11.375H12.625V7.62498C12.625 7.27981 12.3452 7 12 7C11.6548 7 11.375 7.27981 11.375 7.62498V11.3749H7.62505C7.27988 11.3749 7 11.6548 7 11.9999C7 12.3451 7.27988 12.6249 7.62505 12.6249H11.375V16.3749C11.375 16.7201 11.6548 16.9999 12 16.9999C12.3452 16.9999 12.625 16.7201 12.625 16.3749V12.6249H16.375C16.7202 12.6249 17 12.3451 17 11.9999C17 11.6548 16.7202 11.375 16.375 11.375Z" fill="currentColor"/>
</svg>
