<svg
        xmlns="http://www.w3.org/2000/svg"
        width="16"
        height="16"
        viewBox="0 0 16 16"
        fill="none"
>
    <path
            fill-rule="evenodd"
            clip-rule="evenodd"
            d="M8 1.6C6.43821 1.6 4.99853 1.7288 3.84297 1.88142C2.80298 2.01877 2.01877 2.80298 1.88142 3.84296C1.7288 4.99853 1.6 6.43821 1.6 8C1.6 9.56179 1.7288 11.0015 1.88142 12.157C2.01877 13.197 2.80298 13.9812 3.84296 14.1186C4.99853 14.2712 6.43821 14.4 8 14.4C9.56179 14.4 11.0015 14.2712 12.157 14.1186C13.197 13.9812 13.9812 13.197 14.1186 12.157C14.2712 11.0015 14.4 9.56179 14.4 8C14.4 6.43821 14.2712 4.99853 14.1186 3.84297C13.9812 2.80298 13.197 2.01877 12.157 1.88142C11.0015 1.7288 9.56179 1.6 8 1.6ZM3.63347 0.295194C1.87604 0.527299 0.5273 1.87603 0.295194 3.63347C0.135627 4.84167 0 6.35302 0 8C0 9.64698 0.135627 11.1583 0.295194 12.3665C0.527299 14.124 1.87603 15.4727 3.63347 15.7048C4.84167 15.8644 6.35302 16 8 16C9.64698 16 11.1583 15.8644 12.3665 15.7048C14.124 15.4727 15.4727 14.124 15.7048 12.3665C15.8644 11.1583 16 9.64698 16 8C16 6.35302 15.8644 4.84167 15.7048 3.63347C15.4727 1.87604 14.124 0.5273 12.3665 0.295194C11.1583 0.135627 9.64698 0 8 0C6.35302 0 4.84167 0.135627 3.63347 0.295194Z"
            fill="currentColor"
    />
    <path
            fill-rule="evenodd"
            clip-rule="evenodd"
            d="M8 12C8.44183 12 8.8 11.6418 8.8 11.2V8.8H11.2C11.6418 8.8 12 8.44183 12 8C12 7.55817 11.6418 7.2 11.2 7.2H8.8V4.8C8.8 4.35817 8.44183 4 8 4C7.55817 4 7.2 4.35817 7.2 4.8V7.2H4.8C4.35817 7.2 4 7.55817 4 8C4 8.44183 4.35817 8.8 4.8 8.8H7.2V11.2C7.2 11.6418 7.55817 12 8 12Z"
            fill="currentColor"
    />
</svg>