<svg xmlns="http://www.w3.org/2000/svg" width="14" height="9" viewBox="0 0 14 9" fill="none">
    <path
            d="M13.911 4.22535C13.786 4.05278 10.806 0 6.99994 0C3.19392 0 0.213774 4.05278 0.0888401 4.22518C-0.0296134 4.3889 -0.0296134 4.61094 0.0888401 4.77465C0.213774 4.94722 3.19392 9 6.99994 9C10.806 9 13.786 4.94719 13.911 4.77479C14.0297 4.6111 14.0297 4.3889 13.911 4.22535ZM6.99994 8.06897C4.1964 8.06897 1.76824 5.37906 1.04946 4.49968C1.76731 3.61954 4.19039 0.93103 6.99994 0.93103C9.80334 0.93103 12.2313 3.62048 12.9504 4.50032C12.2326 5.38043 9.80949 8.06897 6.99994 8.06897Z"
            fill="currentColor"
    />
    <path
            d="M6.99983 1.7067C5.4729 1.7067 4.23059 2.95972 4.23059 4.49982C4.23059 6.03992 5.4729 7.29294 6.99983 7.29294C8.52676 7.29294 9.76907 6.03992 9.76907 4.49982C9.76907 2.95972 8.52676 1.7067 6.99983 1.7067ZM6.99983 6.36188C5.98182 6.36188 5.15369 5.52658 5.15369 4.49982C5.15369 3.47306 5.98185 2.63776 6.99983 2.63776C8.01781 2.63776 8.84597 3.47306 8.84597 4.49982C8.84597 5.52658 8.01784 6.36188 6.99983 6.36188Z"
            fill="currentColor"
    />
</svg>