<svg xmlns="http://www.w3.org/2000/svg" width="49" height="40" viewBox="0 0 49 40" fill="none">
    <path
            opacity="0.6"
            fill-rule="evenodd"
            clip-rule="evenodd"
            d="M32.8069 0.0357452C35.9981 -0.319331 38.9112 2.01199 39.2663 5.20315L39.5922 8.13188H43.1287C46.3491 8.13188 48.9797 10.7626 48.9797 13.9829V34.149C48.9797 37.3693 46.3491 40 43.1287 40H15.3531C12.3408 40 9.80468 37.6842 9.52736 34.6901L8.72585 34.7788C5.53469 35.1345 2.62216 32.8026 2.26708 29.6121L0.0348942 9.56968C-0.320182 6.38371 2.07918 3.45822 5.20165 3.11027L32.8069 0.0357452ZM46.6866 31.3868C44.8698 28.6162 42.8184 26.8006 38.6501 29.4008C35.9158 31.1062 35.3164 34.1412 33.7587 31.7114C33.1348 30.7382 32.1441 29.0017 31.1294 27.4985C26.7784 21.0514 18.7308 21.9533 14.4388 27.6961C13.4364 29.0367 12.6719 30.3332 11.7958 31.5909V13.9829C11.7958 12.0274 13.3995 10.4256 15.3531 10.4256H43.1287C45.0836 10.4256 46.6866 12.0287 46.6866 13.9829V31.3868ZM33.0583 2.31135L5.45111 5.38652C3.45866 5.60876 2.09602 7.39322 2.31633 9.37076L4.54268 29.3613C4.75975 31.3097 6.5267 32.7203 8.47509 32.5032L9.50209 32.3892V13.9829C9.50209 10.7613 12.1354 8.13188 15.3531 8.13188H37.2888L36.9907 5.4539C36.7737 3.50487 35.006 2.09493 33.0583 2.31135ZM42.2456 19.1535L40.5467 22.0965L39.2268 21.3384L40.9257 18.3948L42.2456 19.1535ZM46.0964 23.566L43.1534 25.265L42.3946 23.9451L45.3383 22.2455L46.0964 23.566ZM30.9583 18.3948L32.6579 21.3384L31.3374 22.0965L29.6384 19.1535L30.9583 18.3948ZM36.7069 17.2621V20.6606H35.1777V17.2621H36.7069ZM35.84 21.4492C39.3169 21.4492 42.23 23.8589 43.0024 27.0993C41.875 26.9192 40.5214 27.2419 38.8121 28.3084C36.0778 30.0138 35.4778 33.0494 33.9207 30.619C33.2968 29.6458 32.3054 27.9093 31.2913 26.406C30.8313 25.7244 30.3298 25.1263 29.7959 24.606C31.1268 22.6978 33.3369 21.4492 35.84 21.4492Z"
            fill="currentColor"
    />
</svg>