<svg width="24" height="24" viewBox="0 0 24 24" fill="none" xmlns="http://www.w3.org/2000/svg">
<path fill-rule="evenodd" clip-rule="evenodd" d="M12.3945 8.71233H8.64657C8.16195 8.71233 7.85878 8.71312 7.6305 8.73208C7.41402 8.75006 7.35462 8.77914 7.34073 8.78636C7.22064 8.84874 7.12271 8.94666 7.06033 9.06676C7.05311 9.08065 7.02403 9.14005 7.00605 9.35653C6.98709 9.58481 6.9863 9.88797 6.9863 10.3726V15.3534C6.9863 15.8381 6.98709 16.1412 7.00605 16.3695C7.02403 16.586 7.05311 16.6454 7.06033 16.6593C7.12271 16.7794 7.22064 16.8773 7.34073 16.9397C7.35462 16.9469 7.41402 16.976 7.6305 16.9939C7.85878 17.0129 8.16195 17.0137 8.64658 17.0137H12.3945C12.8791 17.0137 13.1823 17.0129 13.4106 16.9939C13.6271 16.976 13.6865 16.9469 13.7004 16.9397C13.8205 16.8773 13.9184 16.7794 13.9808 16.6593C13.988 16.6454 14.0171 16.586 14.035 16.3695C14.054 16.1412 14.0548 15.8381 14.0548 15.3534V10.3726C14.0548 9.88797 14.054 9.58481 14.035 9.35653C14.0171 9.14005 13.988 9.08065 13.9808 9.06676C13.9184 8.94666 13.8205 8.84874 13.7004 8.78636C13.6865 8.77914 13.6271 8.75006 13.4106 8.73208C13.1823 8.71312 12.8791 8.71233 12.3945 8.71233ZM6.18507 8.6121C6 8.96838 6 9.43645 6 10.3726V15.3534C6 16.2896 6 16.7576 6.18507 17.1139C6.34103 17.4142 6.58583 17.659 6.88607 17.8149C7.24235 18 7.71043 18 8.64658 18H12.3945C13.3307 18 13.7987 18 14.155 17.8149C14.4553 17.659 14.7001 17.4142 14.856 17.1139C15.0411 16.7576 15.0411 16.2896 15.0411 15.3534V10.3726C15.0411 9.43645 15.0411 8.96838 14.856 8.6121C14.7001 8.31186 14.4553 8.06706 14.155 7.9111C13.7987 7.72603 13.3307 7.72603 12.3945 7.72603H8.64657C7.71043 7.72603 7.24235 7.72603 6.88607 7.9111C6.58583 8.06706 6.34103 8.31186 6.18507 8.6121Z" fill="currentColor"/>
<path fill-rule="evenodd" clip-rule="evenodd" d="M14.9309 7.00774C14.6774 6.9867 14.3503 6.9863 13.874 6.9863H8.30137C8.1198 6.9863 7.9726 7.1335 7.9726 7.31507H6.9863C6.9863 6.58878 7.57508 6 8.30137 6L13.895 6C14.3452 5.99999 14.7134 5.99999 15.0125 6.02483C15.3221 6.05054 15.6015 6.1054 15.8618 6.2406C16.2521 6.44334 16.5704 6.76158 16.7731 7.15189C16.9083 7.41216 16.9632 7.69159 16.9889 8.00121C17.0137 8.30029 17.0137 8.6685 17.0137 9.11874V15.5342C17.0137 16.2605 16.4249 16.8493 15.6986 16.8493V15.863C15.8802 15.863 16.0274 15.7158 16.0274 15.5342V9.13973C16.0274 8.66337 16.027 8.33627 16.006 8.08284C15.9854 7.83531 15.9477 7.70257 15.8978 7.60655C15.7887 7.39639 15.6173 7.22503 15.4071 7.11585C15.3111 7.06598 15.1784 7.0283 14.9309 7.00774Z" fill="currentColor"/>
<path d="M7.64384 10.1918C7.64384 9.96479 7.82783 9.7808 8.05479 9.7808H12.9863C13.2133 9.7808 13.3973 9.96479 13.3973 10.1918C13.3973 10.4187 13.2133 10.6027 12.9863 10.6027H8.05479C7.82783 10.6027 7.64384 10.4187 7.64384 10.1918Z" fill="currentColor"/>
<path d="M7.64384 12.6575C7.64384 12.4305 7.82783 12.2466 8.05479 12.2466H12.9863C13.2133 12.2466 13.3973 12.4305 13.3973 12.6575C13.3973 12.8845 13.2133 13.0685 12.9863 13.0685H8.05479C7.82783 13.0685 7.64384 12.8845 7.64384 12.6575Z" fill="currentColor"/>
<path d="M7.64384 15.1233C7.64384 14.8963 7.82783 14.7123 8.05479 14.7123H12.9863C13.2133 14.7123 13.3973 14.8963 13.3973 15.1233C13.3973 15.3502 13.2133 15.5342 12.9863 15.5342H8.05479C7.82783 15.5342 7.64384 15.3502 7.64384 15.1233Z" fill="currentColor"/>
</svg>
