<svg width="8" height="11" viewBox="0 0 8 11" fill="none" xmlns="http://www.w3.org/2000/svg">
    <path
            d="M0 6.86481C0 9.14496 1.72879 11 3.85346 11H5.21751C5.44355 11 5.62673 10.8035 5.62673 10.5609V10.4145C5.62673 10.1719 5.44358 9.97536 5.21751 9.97536H3.85346C2.25522 9.97536 0.954833 8.57989 0.954833 6.86481C0.954833 5.14973 2.25522 3.75427 3.85346 3.75427H6.37006L4.63687 5.61417C4.45072 5.81386 4.45072 6.13894 4.63687 6.33863C4.81751 6.53232 5.13187 6.53203 5.3121 6.33863L7.86014 3.60423C7.95031 3.50747 8 3.3788 8 3.24192C8 3.10513 7.95031 2.9764 7.86014 2.87969L5.31196 0.145161C5.13174 -0.0483869 4.8171 -0.0483869 4.63685 0.145161C4.4507 0.344803 4.4507 0.669937 4.63685 0.869555L6.37004 2.7296H3.85346C1.72879 2.7296 0 4.58471 0 6.86481Z"
            fill="currentColor"
    />
</svg>