<svg
        width="12"
        height="12"
        viewBox="0 0 12 12"
        fill="none"
        xmlns="http://www.w3.org/2000/svg"
>
    <path
            d="M0.012685 9L0 11.4684C0 11.6076 0.05074 11.7468 0.15222 11.8481C0.2537 11.9494 0.38055 12 0.520085 12L2.98097 11.9873C3.12051 11.9873 3.24736 11.9367 3.34884 11.8354L11.8478 3.35443C12.0507 3.1519 12.0507 2.82278 11.8478 2.60759L9.41226 0.151899C9.2093 -0.0506329 8.87949 -0.0506329 8.66385 0.151899L6.96406 1.86076L0.164905 8.63291C0.07611 8.73418 0.012685 8.86076 0.012685 9ZM9.0444 1.26582L10.7569 2.97468L9.79281 3.93671L8.08034 2.22785L9.0444 1.26582ZM1.06554 9.22785L7.33192 2.97468L9.0444 4.68354L2.77801 10.9241L1.05285 10.9367L1.06554 9.22785Z"
            fill="currentColor"
    />
</svg>