<svg width="14" height="14" viewBox="0 0 14 14" fill="none" xmlns="http://www.w3.org/2000/svg">
    <path
            d="M12.6468 13.3539C12.8422 13.549 13.1588 13.5487 13.3539 13.3532C13.549 13.1578 13.5487 12.8412 13.3532 12.6461L12.6468 13.3539ZM10.0581 10.0635L9.70479 9.7097L10.0581 10.0635ZM6.30769 11.1154C3.65248 11.1154 1.5 8.96291 1.5 6.30769H0.5C0.5 9.51519 3.10019 12.1154 6.30769 12.1154V11.1154ZM1.5 6.30769C1.5 3.65248 3.65248 1.5 6.30769 1.5V0.5C3.10019 0.5 0.5 3.10019 0.5 6.30769H1.5ZM6.30769 1.5C8.96291 1.5 11.1154 3.65248 11.1154 6.30769H12.1154C12.1154 3.10019 9.51519 0.5 6.30769 0.5V1.5ZM11.1154 6.30769C11.1154 7.63668 10.5768 8.83893 9.70479 9.7097L10.4114 10.4173C11.4636 9.36664 12.1154 7.91281 12.1154 6.30769H11.1154ZM9.70479 9.7097C8.83442 10.5788 7.63419 11.1154 6.30769 11.1154V12.1154C7.9098 12.1154 9.36119 11.466 10.4114 10.4173L9.70479 9.7097ZM9.70486 10.4174L12.6468 13.3539L13.3532 12.6461L10.4113 9.70962L9.70486 10.4174Z"
            fill="currentColor"
    />
</svg>