<svg class="setting_icon" width="12" height="12" viewBox="0 0 12 12" fill="none" xmlns="http://www.w3.org/2000/svg">
    <path d="M6.65648 12.001H5.39509C5.20531 12.001 5.1391 12.0014 4.49237 10.3663L3.99292 10.1591C2.63201 10.7892 2.47091 10.7892 2.41706 10.7892H2.31292L2.22411 10.7113L1.32994 9.81856C1.19395 9.68003 1.14683 9.63194 1.84654 8.01824L1.64289 7.52654C0 6.92575 0 6.85604 0 6.65806V5.39604C0 5.19831 0 5.13588 1.63744 4.48975L1.8411 3.99697C1.10093 2.40782 1.15186 2.35848 1.29786 2.21821L2.25947 1.25613L2.37889 1.25231C2.52407 1.25231 3.06268 1.45285 3.98115 1.84855L4.47914 1.64222C5.07869 0.000737464 5.15227 0.000976563 5.34141 0.000976563H6.6028C6.79176 0.000976563 6.8582 0.00121545 7.50494 1.63672L8.00521 1.8424C9.36401 1.21318 9.52721 1.21318 9.58148 1.21318H9.68497L9.77378 1.28971L10.668 2.181C10.8039 2.32102 10.8504 2.36893 10.1507 3.98329L10.3549 4.4778C11.9999 5.07602 11.9999 5.1455 11.9999 5.34389V6.60442C11.9999 6.79749 11.9999 6.86547 10.3604 7.51196L10.158 8.00516C10.8944 9.58744 10.8458 9.63702 10.7079 9.77878L9.739 10.7468L9.61894 10.7502C9.47441 10.7502 8.93703 10.5495 8.01984 10.1533L7.51893 10.3599C6.91774 12.001 6.84942 12.001 6.65648 12.001ZM5.52622 11.4799H6.52114C6.63529 11.2424 6.88209 10.6128 7.07966 10.0704L7.11946 9.96247L8.02535 9.58917L8.12275 9.63129C8.66265 9.86624 9.30078 10.1266 9.54946 10.2066L10.2486 9.50882C10.1598 9.25762 9.89056 8.64298 9.64774 8.12451L9.59875 8.01914L9.97357 7.10604L10.0756 7.06584C10.6209 6.85162 11.2528 6.58716 11.4889 6.46654V5.48624C11.2501 5.37167 10.6207 5.12728 10.0784 4.93104L9.97216 4.89233L9.59488 3.97834L9.6399 3.87529C9.872 3.34081 10.1302 2.71034 10.2129 2.45633L9.51187 1.75704C9.28562 1.83762 8.65206 2.11469 8.11766 2.36356L8.01815 2.41015L7.11226 2.03751L7.07181 1.9347C6.85768 1.38929 6.59162 0.756902 6.47161 0.522788H5.4774C5.3626 0.75965 5.11662 1.38953 4.91952 1.93171L4.88036 2.03906L3.97699 2.41362L3.87959 2.37108C3.33845 2.13655 2.69904 1.87657 2.44955 1.79664L1.75165 2.49486C1.83922 2.74564 2.10926 3.35987 2.35126 3.87833L2.4009 3.98395L2.02421 4.89663L1.92282 4.93659C1.37835 5.15058 0.747538 5.41486 0.511393 5.53499V6.51654C0.75023 6.63154 1.37893 6.87659 1.92094 7.07366L2.02631 7.11279L2.40365 8.02374L2.35864 8.12654C2.12653 8.6606 1.86861 9.29024 1.78566 9.54377L2.48812 10.2452C2.71373 10.164 3.34647 9.88691 3.88152 9.6378L3.98168 9.59096L4.88569 9.96594L4.92614 10.0687C5.14092 10.6143 5.40615 11.2456 5.52622 11.4799ZM5.99991 8.10116C4.84325 8.10116 3.90136 7.15897 3.90136 6.00083C3.90136 4.84358 4.84307 3.90199 5.99991 3.90199C7.15593 3.90199 8.09553 4.84376 8.09553 6.00083C8.09553 7.15897 7.15593 8.10116 5.99991 8.10116ZM5.99991 4.4235C5.12441 4.4235 4.41276 5.13116 4.41276 6.00089C4.41276 6.87121 5.12423 7.57952 5.99991 7.57952C6.87395 7.57952 7.58502 6.87121 7.58502 6.00089C7.58478 5.13116 6.87395 4.4235 5.99991 4.4235Z" fill="currentColor" stroke-width="0.3" stroke="currentColor"/>
</svg>
