<svg width="24" height="24" viewBox="0 0 24 24" fill="none" xmlns="http://www.w3.org/2000/svg">
<g clip-path="url(#clip0_3480_46765)">
<path fill-rule="evenodd" clip-rule="evenodd" d="M19.4995 8.99805C19.4995 11.4833 17.4848 13.498 14.9995 13.498C12.5142 13.498 10.4995 11.4833 10.4995 8.99805C10.4995 6.51277 12.5142 4.49805 14.9995 4.49805C17.4848 4.49805 19.4995 6.51277 19.4995 8.99805ZM20.9995 8.99805C20.9995 12.3118 18.3132 14.998 14.9995 14.998C11.6858 14.998 8.99951 12.3118 8.99951 8.99805C8.99951 5.68434 11.6858 2.99805 14.9995 2.99805C18.3132 2.99805 20.9995 5.68434 20.9995 8.99805ZM4.5 10.7832C4.5 9.54056 5.50736 8.5332 6.75 8.5332H7.25342C7.66763 8.5332 8.00342 8.19742 8.00342 7.7832C8.00342 7.36899 7.66763 7.0332 7.25342 7.0332H6.75C4.67893 7.0332 3 8.71213 3 10.7832V17.252C3 19.323 4.67893 21.002 6.75 21.002H13.038C15.1091 21.002 16.788 19.323 16.788 17.252V16.7363C16.788 16.3221 16.4523 15.9863 16.038 15.9863C15.6238 15.9863 15.288 16.3221 15.288 16.7363V17.252C15.288 18.4946 14.2807 19.502 13.038 19.502H6.75C5.50736 19.502 4.5 18.4946 4.5 17.252V10.7832Z" fill="black"/>
</g>
<defs>
<clipPath id="clip0_3480_46765">
<path d="M0 6C0 2.68629 2.68629 0 6 0H18C21.3137 0 24 2.68629 24 6V18C24 21.3137 21.3137 24 18 24H6C2.68629 24 0 21.3137 0 18V6Z" fill="white"/>
</clipPath>
</defs>
</svg>
