<svg width="24" height="24" viewBox="0 0 24 24" fill="none" xmlns="http://www.w3.org/2000/svg">
    <path d="M3.5 15.0384C3.5 15.2506 3.57648 15.4109 3.72941 15.5197C3.88235 15.6284 4.04584 15.6668 4.21987 15.635C4.38335 15.6032 4.49806 15.5449 4.564 15.46C4.62991 15.3752 4.66288 15.2346 4.66288 15.0384V12.7317C4.66288 12.5673 4.6062 12.4281 4.4928 12.3141C4.37943 12.2001 4.241 12.1431 4.0775 12.1431C3.91928 12.1431 3.78349 12.2001 3.6701 12.3141C3.55671 12.4281 3.5 12.5673 3.5 12.7317V15.0384ZM5.31945 16.0248C5.31945 16.1786 5.37351 16.2939 5.48162 16.3708C5.58974 16.4477 5.72818 16.4861 5.89693 16.4861C6.07096 16.4861 6.21203 16.4477 6.32015 16.3708C6.42825 16.2939 6.48232 16.1786 6.48232 16.0248V10.6478C6.48232 10.4887 6.42561 10.3521 6.31224 10.2381C6.19885 10.1241 6.06041 10.0671 5.89693 10.0671C5.73872 10.0671 5.6029 10.1241 5.48953 10.2381C5.37614 10.3521 5.31945 10.4887 5.31945 10.6478V16.0248ZM7.13099 16.2793C7.13099 16.4331 7.18636 16.5484 7.29712 16.6253C7.40786 16.7022 7.55025 16.7407 7.72431 16.7407C7.89305 16.7407 8.03149 16.7022 8.1396 16.6253C8.24772 16.5484 8.30178 16.4331 8.30178 16.2793V11.3716C8.30178 11.2072 8.24508 11.0667 8.1317 10.95C8.01831 10.8334 7.88252 10.775 7.72431 10.775C7.56081 10.775 7.42106 10.8334 7.30504 10.95C7.18902 11.0667 7.13101 11.2072 7.13101 11.3716V16.2793H7.13099ZM8.95044 16.3032C8.95044 16.5948 9.14557 16.7407 9.53583 16.7407C9.92608 16.7407 10.1212 16.5948 10.1212 16.3032V8.349C10.1212 7.90357 9.98672 7.65169 9.71775 7.59335C9.54372 7.55093 9.37231 7.6013 9.20357 7.74448C9.0348 7.88765 8.95042 8.08915 8.95042 8.34899V16.3032H8.95044ZM10.8016 16.5338V7.8797C10.8016 7.60396 10.8833 7.43958 11.0468 7.38654C11.4001 7.3017 11.7508 7.25928 12.0989 7.25928C12.9058 7.25928 13.6573 7.45018 14.3534 7.83198C15.0496 8.21378 15.6125 8.73477 16.0423 9.39497C16.4722 10.0552 16.7213 10.783 16.7899 11.5784C17.1116 11.4405 17.4544 11.3716 17.8183 11.3716C18.5566 11.3716 19.1881 11.6341 19.7129 12.1591C20.2376 12.684 20.5 13.3151 20.5 14.0522C20.5 14.7946 20.2376 15.4282 19.7129 15.9532C19.1881 16.4782 18.5592 16.7407 17.8262 16.7407L10.9439 16.7327C10.8964 16.7168 10.8608 16.6876 10.8371 16.6452C10.8134 16.6028 10.8016 16.5656 10.8016 16.5338Z"
          fill="#FF3300"/>
</svg>
