<svg width="24" height="24" viewBox="0 0 24 24" fill="none" xmlns="http://www.w3.org/2000/svg">
<path d="M11.9999 5.00011C8.13405 5.00011 5 8.1341 5 12.0001C5 15.8661 8.13405 19 11.9999 19C15.8663 19 19 15.8662 19 12.0001C19 8.13431 15.8663 5.00042 11.9998 5.00042L11.9999 5V5.00011ZM15.2101 15.0961C15.0848 15.3017 14.8156 15.367 14.6099 15.2407C12.9665 14.2368 10.8974 14.0095 8.46081 14.5662C8.22603 14.6196 7.99198 14.4725 7.93843 14.2376C7.88467 14.0028 8.03125 13.7687 8.26666 13.7153C10.9331 13.106 13.2204 13.3683 15.0655 14.4959C15.2712 14.6222 15.3364 14.8904 15.2101 15.0961ZM16.0669 13.1901C15.9089 13.4469 15.5729 13.5279 15.3163 13.37C13.4347 12.2134 10.5666 11.8785 8.341 12.5541C8.05236 12.6413 7.74754 12.4787 7.65997 12.1905C7.57303 11.9019 7.73578 11.5977 8.0239 11.5099C10.5661 10.7386 13.7265 11.1122 15.8873 12.44C16.1439 12.598 16.2249 12.934 16.067 13.1904V13.1902L16.0669 13.1901ZM16.1405 11.2054C13.8844 9.86536 10.1622 9.7422 8.00826 10.3959C7.66239 10.5008 7.29657 10.3056 7.19178 9.95966C7.08699 9.61357 7.28208 9.24806 7.62816 9.14295C10.1008 8.39229 14.2113 8.5373 16.8088 10.0794C17.1205 10.2641 17.2226 10.6658 17.0378 10.9765C16.8538 11.2876 16.4509 11.3902 16.1408 11.2054H16.1405Z" fill="#1DD05D"/>
</svg>
