<svg width="15" height="14" viewBox="0 0 15 14" fill="none" xmlns="http://www.w3.org/2000/svg">
    <path fill-rule="evenodd" clip-rule="evenodd" d="M11.4356 9.36589C11.3765 9.11009 11.4593 8.85429 11.6605 8.67988L14.7735 5.99394C15.2233 5.58698 14.9629 4.8312 14.3474 4.77306L10.2166 4.38935C9.95622 4.3661 9.73121 4.20332 9.6248 3.95914L8.14526 0.436029C7.90853 -0.145343 7.06803 -0.145343 6.83131 0.436029L5.3636 3.95914C5.26891 4.20332 5.03219 4.3661 4.77179 4.38935L0.640913 4.77306C0.0254241 4.8312 -0.223139 5.58698 0.238478 5.99394L3.35143 8.67988C3.55265 8.85429 3.6355 9.11009 3.57632 9.36589L2.64125 13.1331C2.49922 13.7262 3.15021 14.2144 3.69468 13.9006L7.13905 11.9122C7.36394 11.7843 7.63618 11.7843 7.86107 11.9122L11.3056 13.9006C11.85 14.2144 12.501 13.7378 12.3589 13.1331L11.4356 9.36589ZM10.9169 12.2906L10.2683 9.64396L10.2665 9.63638C10.1066 8.94534 10.3391 8.23723 10.8745 7.7731L10.8766 7.77132L13.0901 5.86144L10.1099 5.5846C10.1089 5.58451 10.108 5.58443 10.1071 5.58434C9.4043 5.52055 8.80346 5.07816 8.52472 4.43854L8.52151 4.43118L7.49009 1.97514L6.47563 4.41027C6.19647 5.10965 5.54453 5.52416 4.88121 5.58436L1.91953 5.85946L4.13741 7.7731C4.67287 8.23723 4.90531 8.94534 4.74544 9.63638L4.74328 9.6457L4.08735 12.2883L6.5458 10.8691C7.13852 10.532 7.86159 10.532 8.45431 10.8691L8.46102 10.8729L10.9169 12.2906Z" fill="currentColor"/>
</svg>
