<svg
        xmlns="http://www.w3.org/2000/svg"
        width="20"
        height="20"
        viewBox="0 0 20 20"
        fill="none"
>
    <mask id="path-1-outside-1" maskUnits="userSpaceOnUse" x="3" y="3" width="14" height="14" fill="black">
        <rect fill="white" x="3" y="3" width="14" height="14"/>
        <path
                d="M15.75 4C15.1619 4 4.70335 4 4.25 4C4.11195 4 4 4.11193 4 4.25C4 4.67658 4 15.2264 4 15.75C4 15.8881 4.11195 16 4.25 16C5.35785 16 14.664 16 15.75 16C15.8881 16 16 15.8881 16 15.75C16 15.4841 16 5.2023 16 4.25C16 4.11193 15.8881 4 15.75 4ZM15.5 12C15.0786 12 8.17075 12 7.75 12V8.75C8.15438 8.75 15.2435 8.75 15.5 8.75V12ZM15.5 4.5V8.25H11.25V4.5H15.5ZM4.5 4.5H10.75V8.25C10.5783 8.25 4.662 8.25 4.5 8.25V4.5ZM4.5 8.75H7.25C7.25 9.11975 7.25 15.1624 7.25 15.5H4.5V8.75ZM7.75 12.5H11.5V15.5H7.75V12.5ZM15.5 15.5H12V12.5H15.5V15.5Z"
        />
    </mask>
    <path
            d="M15.75 4C15.1619 4 4.70335 4 4.25 4C4.11195 4 4 4.11193 4 4.25C4 4.67658 4 15.2264 4 15.75C4 15.8881 4.11195 16 4.25 16C5.35785 16 14.664 16 15.75 16C15.8881 16 16 15.8881 16 15.75C16 15.4841 16 5.2023 16 4.25C16 4.11193 15.8881 4 15.75 4ZM15.5 12C15.0786 12 8.17075 12 7.75 12V8.75C8.15438 8.75 15.2435 8.75 15.5 8.75V12ZM15.5 4.5V8.25H11.25V4.5H15.5ZM4.5 4.5H10.75V8.25C10.5783 8.25 4.662 8.25 4.5 8.25V4.5ZM4.5 8.75H7.25C7.25 9.11975 7.25 15.1624 7.25 15.5H4.5V8.75ZM7.75 12.5H11.5V15.5H7.75V12.5ZM15.5 15.5H12V12.5H15.5V15.5Z"
            fill="currentColor"
    />
</svg>