<svg width="12" height="14" viewBox="0 0 12 14" fill="none" xmlns="http://www.w3.org/2000/svg">
    <path fill-rule="evenodd" clip-rule="evenodd"
          d="M1.02076 0C0.460133 0 0 0.460289 0 1.02076V12.9792C0 13.5397 0.460133 14 1.02076 14H10.0627C10.6234 14 11.0835 13.5397 11.0835 12.9792V1.02076C11.0833 0.460289 10.6232 0 10.0626 0H1.02076ZM0.875 1.29469H10.2083V11.6667H0.875V1.29469ZM5.54167 12.3231C5.82353 12.3231 6.05204 12.5518 6.05204 12.8333C6.05204 13.1152 5.82338 13.3437 5.54167 13.3437C5.25996 13.3437 5.03129 13.115 5.03129 12.8333C5.03129 12.5518 5.2598 12.3231 5.54167 12.3231Z"
          fill="currentColor"/>
</svg>
