<svg width="24" height="24" viewBox="0 0 24 24" fill="none" xmlns="http://www.w3.org/2000/svg">
<path d="M12 19C15.866 19 19 15.866 19 12C19 8.13401 15.866 5 12 5C8.13401 5 5 8.13401 5 12C5 15.866 8.13401 19 12 19Z" fill="#2AABEE"/>
<path fill-rule="evenodd" clip-rule="evenodd" d="M8.16475 11.9243C10.2047 11.0384 11.5628 10.4497 12.2447 10.1641C14.1856 9.35396 14.5936 9.21408 14.8558 9.20825C14.9141 9.20825 15.0424 9.21991 15.1298 9.28985C15.1997 9.34814 15.2172 9.42391 15.2289 9.48219C15.2405 9.54048 15.2522 9.66287 15.2405 9.75613C15.1356 10.8635 14.681 13.5505 14.4478 14.7861C14.3488 15.3107 14.1564 15.4855 13.9699 15.503C13.5619 15.538 13.253 15.2349 12.8625 14.9784C12.2447 14.5763 11.9008 14.3257 11.3005 13.9293C10.6069 13.4747 11.0557 13.2241 11.452 12.8161C11.5569 12.7112 13.3463 11.0792 13.3812 10.9335C13.3871 10.916 13.3871 10.8461 13.3463 10.8111C13.3055 10.7761 13.2472 10.7878 13.2006 10.7994C13.1364 10.8111 12.1573 11.4639 10.2513 12.752C9.97158 12.9443 9.72095 13.0376 9.49364 13.0317C9.24302 13.0259 8.76508 12.8918 8.40372 12.7753C7.96658 12.6354 7.61687 12.5596 7.64602 12.3148C7.6635 12.1866 7.83836 12.0584 8.16475 11.9243Z" fill="white"/>
</svg>
