<svg width="24" height="24" viewBox="0 0 24 24" fill="none" xmlns="http://www.w3.org/2000/svg">
    <g>
        <path fill-rule="evenodd" clip-rule="evenodd"
              d="M6.55494 6.20996C6.11179 6.20996 5.75244 6.56653 5.75244 7.01246V8.37746C5.75244 8.79168 5.41665 9.12746 5.00244 9.12746C4.58823 9.12746 4.25244 8.79168 4.25244 8.37746V7.01246C4.25244 5.73339 5.28809 4.70996 6.55494 4.70996H17.4449C18.724 4.70996 19.7474 5.74561 19.7474 7.01246V8.37746C19.7474 8.79168 19.4117 9.12746 18.9974 9.12746C18.5832 9.12746 18.2474 8.79168 18.2474 8.37746V7.01246C18.2474 6.56931 17.8909 6.20996 17.4449 6.20996H6.55494Z"
              fill="currentColor"/>
        <path fill-rule="evenodd" clip-rule="evenodd"
              d="M12 5.33252C12.4142 5.33252 12.75 5.66831 12.75 6.08252V18.54C12.75 18.9542 12.4142 19.29 12 19.29C11.5858 19.29 11.25 18.9542 11.25 18.54V6.08252C11.25 5.66831 11.5858 5.33252 12 5.33252Z"
              fill="currentColor"/>
        <path fill-rule="evenodd" clip-rule="evenodd"
              d="M8.29492 18.54C8.29492 18.1258 8.63071 17.79 9.04492 17.79H14.9549C15.3691 17.79 15.7049 18.1258 15.7049 18.54C15.7049 18.9543 15.3691 19.29 14.9549 19.29H9.04492C8.63071 19.29 8.29492 18.9543 8.29492 18.54Z"
              fill="currentColor"/>
    </g>
</svg>
