<svg width="20" height="20" viewBox="0 0 20 20" fill="none" xmlns="http://www.w3.org/2000/svg" id="transfer">
<path fill-rule="evenodd" clip-rule="evenodd" d="M12.6992 6.4667V3.13337H3.96589V16.8667H16.0326V6.4667H12.6992ZM17.2992 17.4942L17.2992 17.4956C17.2998 17.5788 17.284 17.6612 17.2527 17.7383C17.2214 17.8154 17.1753 17.8855 17.1169 17.9447C17.0585 18.004 16.989 18.0511 16.9124 18.0835C16.836 18.1157 16.754 18.1327 16.6711 18.1334H3.32736C3.1613 18.132 3.00241 18.0655 2.88492 17.9481C2.76742 17.8307 2.70074 17.6719 2.69922 17.5058V2.49337C2.69922 2.14846 2.98086 1.8667 3.33172 1.8667H13.2497L17.2992 5.91621L17.2992 17.4942ZM6.86589 9.3667H10.1992V7.14954L13.0497 10L10.1992 12.8505V10.6334H6.86589V9.3667Z" fill="currentColor"/>
</svg>
