<svg width="24" height="24" viewBox="0 0 24 24" fill="none" xmlns="http://www.w3.org/2000/svg">
<path d="M19.0003 7.65892C18.4796 7.8873 17.9248 8.03868 17.3465 8.11218C17.9415 7.75692 18.3956 7.19865 18.6091 6.52576C18.0544 6.85652 17.4418 7.09015 16.7891 7.22053C16.2623 6.65964 15.5115 6.31226 14.6925 6.31226C13.1035 6.31226 11.8242 7.60204 11.8242 9.18321C11.8242 9.41071 11.8434 9.62947 11.8907 9.83773C9.5045 9.72135 7.39307 8.57769 5.97465 6.83552C5.72702 7.26516 5.58177 7.75692 5.58177 8.28631C5.58177 9.28034 6.09366 10.1615 6.85668 10.6716C6.39554 10.6629 5.94315 10.529 5.55989 10.3181C5.55989 10.3269 5.55989 10.3382 5.55989 10.3496C5.55989 11.7444 6.55479 12.9029 7.85945 13.1698C7.62582 13.2337 7.37119 13.2643 7.10693 13.2643C6.92318 13.2643 6.73767 13.2538 6.56354 13.2153C6.93543 14.352 7.99071 15.1876 9.24549 15.2147C8.26897 15.9786 7.02906 16.4389 5.68677 16.4389C5.45139 16.4389 5.22563 16.4284 4.99988 16.3995C6.27129 17.2194 7.77808 17.6876 9.403 17.6876C14.6846 17.6876 17.5722 13.3124 17.5722 9.52009C17.5722 9.39321 17.5678 9.27071 17.5617 9.14908C18.1314 8.74482 18.61 8.23993 19.0003 7.65892Z" fill="currentColor"/>
</svg>
