<svg width="24" height="24" viewBox="0 0 24 24" fill="none" xmlns="http://www.w3.org/2000/svg">
<path fill-rule="evenodd" clip-rule="evenodd" d="M8.84214 7C8.98748 7 9.1053 7.11782 9.1053 7.26316V12.5263C9.1053 13.294 9.41028 14.0303 9.95314 14.5732C10.496 15.1161 11.2323 15.4211 12 15.4211C12.7678 15.4211 13.5041 15.1161 14.0469 14.5732C14.5898 14.0303 14.8948 13.294 14.8948 12.5263V7.26316C14.8948 7.11782 15.0126 7 15.1579 7C15.3033 7 15.4211 7.11782 15.4211 7.26316V12.5263C15.4211 13.4336 15.0607 14.3038 14.4191 14.9454C13.7775 15.5869 12.9074 15.9474 12 15.9474C11.0927 15.9474 10.2226 15.5869 9.58098 14.9454C8.93941 14.3038 8.57898 13.4336 8.57898 12.5263V7.26316C8.57898 7.11782 8.6968 7 8.84214 7ZM8.57898 16.7368C8.57898 16.5915 8.6968 16.4737 8.84214 16.4737H15.1579C15.3033 16.4737 15.4211 16.5915 15.4211 16.7368C15.4211 16.8822 15.3033 17 15.1579 17H8.84214C8.6968 17 8.57898 16.8822 8.57898 16.7368Z" fill="currentColor" stroke="currentColor" stroke-width="0.3" stroke-linecap="round" stroke-linejoin="round"/>
</svg>
