<svg width="8" height="11" viewBox="0 0 8 11" fill="none" xmlns="http://www.w3.org/2000/svg">
    <path
            d="M8 6.86481C8 9.14496 6.27121 11 4.14654 11H2.78249C2.55645 11 2.37327 10.8035 2.37327 10.5609V10.4145C2.37327 10.1719 2.55642 9.97536 2.78249 9.97536H4.14654C5.74478 9.97536 7.04517 8.5799 7.04517 6.86481C7.04517 5.14973 5.74478 3.75427 4.14654 3.75427H1.62994L3.36313 5.61417C3.54928 5.81386 3.54928 6.13894 3.36313 6.33863C3.18249 6.53233 2.86813 6.53204 2.6879 6.33863L0.139863 3.60423C0.0496934 3.50747 0 3.3788 0 3.24192C0 3.10513 0.0496934 2.9764 0.139863 2.87969L2.68804 0.145161C2.86826 -0.0483869 3.1829 -0.0483869 3.36315 0.145161C3.5493 0.344803 3.5493 0.669937 3.36315 0.869555L1.62996 2.7296H4.14654C6.27121 2.7296 8 4.58471 8 6.86481Z"
            fill="currentColor"
    />
</svg>