<svg width="24" height="24" viewBox="0 0 24 24" fill="none" xmlns="http://www.w3.org/2000/svg">
<path d="M15.7505 16.9932C15.7012 16.9933 15.6524 16.9836 15.6069 16.9648C15.5614 16.9459 15.5201 16.9182 15.4854 16.8833L7.23538 8.63329C7.16802 8.56239 7.13103 8.46799 7.13228 8.3702C7.13353 8.27241 7.17293 8.17899 7.24208 8.10983C7.31123 8.04068 7.40466 8.00128 7.50245 8.00003C7.60023 7.99878 7.69464 8.03578 7.76554 8.10313L16.0155 16.3531C16.0679 16.4056 16.1036 16.4724 16.1181 16.5451C16.1325 16.6178 16.1251 16.6932 16.0968 16.7617C16.0684 16.8302 16.0203 16.8888 15.9587 16.93C15.8971 16.9712 15.8246 16.9932 15.7505 16.9932Z" fill="currentColor"/>
<path d="M11.6175 15.4932C10.6451 15.4932 9.70734 15.2054 8.83031 14.6377C8.0318 14.1221 7.31297 13.3836 6.7514 12.5049V12.5031C7.21875 11.8334 7.73062 11.2672 8.28047 10.8106C8.28544 10.8065 8.2895 10.8013 8.29238 10.7955C8.29527 10.7897 8.29692 10.7834 8.29722 10.7769C8.29753 10.7704 8.29649 10.764 8.29417 10.7579C8.29186 10.7518 8.28831 10.7463 8.28375 10.7417L7.81687 10.2756C7.80858 10.2672 7.79744 10.2623 7.78567 10.2617C7.7739 10.2612 7.76236 10.2651 7.75336 10.2727C7.1693 10.7649 6.62719 11.3687 6.1343 12.0756C6.0495 12.1973 6.00279 12.3414 6.00012 12.4898C5.99745 12.6381 6.03893 12.7838 6.1193 12.9085C6.73828 13.8772 7.53492 14.6931 8.42273 15.2675C9.42234 15.9151 10.4981 16.2432 11.6175 16.2432C12.2217 16.2413 12.8216 16.1418 13.3941 15.9484C13.4016 15.9458 13.4084 15.9414 13.4137 15.9355C13.4191 15.9295 13.4229 15.9224 13.4247 15.9146C13.4265 15.9068 13.4263 15.8987 13.4241 15.8911C13.4219 15.8834 13.4178 15.8764 13.4121 15.8708L12.9063 15.365C12.8947 15.3536 12.8803 15.3455 12.8645 15.3414C12.8488 15.3373 12.8323 15.3374 12.8166 15.3416C12.4249 15.4424 12.022 15.4934 11.6175 15.4932Z" fill="currentColor"/>
<path d="M17.1295 12.0854C16.5094 11.1263 15.7048 10.3116 14.8029 9.72923C13.8052 9.08423 12.7036 8.74321 11.6175 8.74321C11.0197 8.74427 10.4263 8.84593 9.86226 9.04392C9.85475 9.04653 9.84802 9.05102 9.84272 9.05695C9.83742 9.06288 9.83371 9.07007 9.83195 9.07783C9.83019 9.08559 9.83044 9.09367 9.83267 9.10131C9.83489 9.10895 9.83903 9.11589 9.84468 9.12149L10.3498 9.62657C10.3615 9.63813 10.3761 9.64638 10.3921 9.6505C10.4081 9.65461 10.4248 9.65444 10.4407 9.65001C10.8244 9.54622 11.22 9.4935 11.6175 9.49321C12.5712 9.49321 13.5061 9.78454 14.396 10.3604C15.2095 10.8854 15.9368 11.6232 16.4998 12.4932L16.5004 12.4951L16.4998 12.497C16.0911 13.1403 15.584 13.7155 14.997 14.2016C14.9919 14.2057 14.9878 14.2109 14.9849 14.2167C14.982 14.2225 14.9803 14.2289 14.9799 14.2354C14.9796 14.2419 14.9806 14.2484 14.983 14.2545C14.9853 14.2605 14.9889 14.2661 14.9934 14.2707L15.4598 14.7369C15.4681 14.7452 15.4792 14.7502 15.4909 14.7507C15.5026 14.7513 15.5141 14.7474 15.5231 14.7399C16.1498 14.2122 16.6923 13.592 17.1319 12.9006C17.2096 12.7787 17.2506 12.6371 17.2502 12.4926C17.2498 12.3481 17.2079 12.2068 17.1295 12.0854Z" fill="currentColor"/>
<path d="M11.6255 10.2432C11.4569 10.2431 11.2889 10.262 11.1246 10.2995C11.1163 10.3012 11.1086 10.3051 11.1024 10.3109C11.0962 10.3166 11.0916 10.3239 11.0892 10.3321C11.0868 10.3402 11.0866 10.3488 11.0887 10.357C11.0908 10.3652 11.0951 10.3727 11.1012 10.3787L13.74 13.0168C13.746 13.0228 13.7534 13.0271 13.7617 13.0292C13.7699 13.0314 13.7785 13.0312 13.7866 13.0288C13.7947 13.0264 13.8021 13.0218 13.8078 13.0156C13.8136 13.0093 13.8175 13.0017 13.8192 12.9934C13.8943 12.6638 13.8943 12.3216 13.819 11.9921C13.7437 11.6627 13.5952 11.3544 13.3845 11.0901C13.1737 10.8259 12.9061 10.6126 12.6016 10.466C12.2971 10.3193 11.9634 10.2432 11.6255 10.2432Z" fill="currentColor"/>
<path d="M9.51093 11.9696C9.50497 11.9636 9.49749 11.9593 9.48928 11.9572C9.48107 11.9551 9.47244 11.9552 9.46431 11.9576C9.45618 11.96 9.44886 11.9646 9.44312 11.9708C9.43738 11.9771 9.43343 11.9848 9.43171 11.9931C9.34671 12.3644 9.35739 12.7512 9.46273 13.1173C9.56807 13.4834 9.76464 13.8167 10.034 14.0861C10.3034 14.3554 10.6367 14.552 11.0028 14.6573C11.3689 14.7627 11.7557 14.7734 12.127 14.6884C12.1353 14.6866 12.143 14.6827 12.1492 14.677C12.1555 14.6712 12.16 14.6639 12.1624 14.6558C12.1649 14.6476 12.165 14.639 12.1629 14.6308C12.1608 14.6226 12.1565 14.6151 12.1505 14.6091L9.51093 11.9696Z" fill="currentColor"/>
</svg>
