<svg width="24" height="24" viewBox="0 0 24 24" fill="none" xmlns="http://www.w3.org/2000/svg">
<path d="M9.5 9.07862C9.5 7.65449 10.6545 6.5 12.0786 6.5C12.3176 6.5 12.5557 6.52932 12.7875 6.58728L12.8351 6.59916C13.5903 6.78797 14.1691 7.39501 14.3218 8.15833L14.5097 9.09806L15.4903 8.90194L15.3023 7.96221C15.0739 6.81994 14.2077 5.91154 13.0776 5.62901L13.03 5.61712C12.7189 5.53933 12.3994 5.5 12.0786 5.5C10.1022 5.5 8.5 7.10221 8.5 9.07862V12.5C7.94772 12.5 7.5 12.9477 7.5 13.5V17.5C7.5 18.0523 7.94772 18.5 8.5 18.5H15.5C16.0523 18.5 16.5 18.0523 16.5 17.5V13.5C16.5 12.9477 16.0523 12.5 15.5 12.5H9.5V9.07862Z" fill="currentColor"/>
</svg>
