<svg width="13" height="13" viewBox="0 0 13 13" fill="none" xmlns="http://www.w3.org/2000/svg">
<path d="M4.64536 0.270929C3.18273 0.705679 1.91986 1.64148 1.07821 2.91426C0.962625 3.12281 0.890447 3.35258 0.866035 3.58977V1.30776H0V4.7719H3.46414V3.90587H1.5069C2.47654 2.04051 4.39313 0.859265 6.49526 0.831444C8.98823 0.860429 11.1734 2.50544 11.8907 4.89315L12.7221 4.64633C11.7 1.20776 8.08392 -0.751154 4.64536 0.270929Z" fill="currentColor"/>
<path d="M9.52549 8.23599V9.10203H11.4827C10.5131 10.9674 8.59651 12.1487 6.49437 12.1765C4.00141 12.1475 1.81627 10.5025 1.09897 8.11475L0.267578 8.36157C1.29405 11.7988 4.91261 13.7532 8.34985 12.7267C9.85534 12.2771 11.1468 11.297 11.985 9.96807C12.0748 9.7986 12.1224 9.60994 12.1236 9.41814V11.7002H12.9896V8.23599H9.52549Z" fill="currentColor"/>
</svg>
