<svg xmlns="http://www.w3.org/2000/svg" width="24" height="24" viewBox="0 0 24 24" fill="none">
    <rect opacity="0.7" width="24" height="24" rx="4" fill="black" />
    <path
            d="M16.6154 5C16.3605 5 16.1539 5.20787 16.1539 5.46429V7.16032C13.7777 4.84613 9.98651 4.90789 7.68601 7.29819C6.60184 8.42469 5.99701 9.93205 6.00001 11.5C6.00001 11.7564 6.20665 11.9643 6.46156 11.9643C6.71647 11.9643 6.92308 11.7564 6.92308 11.5C6.92365 8.6794 9.19711 6.39329 12.0011 6.39386C13.4251 6.39414 14.7835 6.99603 15.745 8.05267L13.7004 8.73841C13.4582 8.81945 13.3272 9.08259 13.4078 9.32618C13.4883 9.56977 13.7499 9.70157 13.9921 9.62053L16.7613 8.69197C16.9504 8.62864 17.0776 8.45039 17.077 8.24998V5.46427C17.077 5.20787 16.8704 5 16.6154 5Z"
            fill="currentColor"
    />
    <path
            d="M17.5385 11.0357C17.2836 11.0357 17.0769 11.2436 17.0769 11.5C17.0764 14.3206 14.8029 16.6067 11.999 16.6061C10.5749 16.6058 9.21653 16.004 8.25503 14.9473L10.2996 14.2616C10.5418 14.1805 10.6728 13.9174 10.5923 13.6738C10.5117 13.4302 10.2501 13.2984 10.008 13.3795L7.23871 14.308C7.04967 14.3714 6.92238 14.5496 6.923 14.75V17.5357C6.923 17.7921 7.12964 18 7.38455 18C7.63946 18 7.8461 17.7921 7.8461 17.5357V15.8397C10.2223 18.1538 14.0135 18.0921 16.314 15.7018C17.3982 14.5753 18.003 13.068 18 11.5C18 11.2436 17.7934 11.0357 17.5385 11.0357Z"
            fill="currentColor"
    />
</svg>