<svg width="24" height="24" viewBox="0 0 24 24" fill="none" xmlns="http://www.w3.org/2000/svg">
<path d="M5.22345 15.825C5.16383 15.825 5.11166 15.8027 5.06695 15.758C5.02224 15.7132 4.99988 15.6611 4.99988 15.6015L5.02224 15.4785L7.85043 8.22357C7.91005 8.07452 8.01811 8 8.17461 8H8.55468C8.71118 8 8.81924 8.07452 8.87886 8.22357L11.707 15.4785L11.7294 15.6015C11.7294 15.6611 11.7071 15.7132 11.6623 15.758C11.6176 15.8027 11.5655 15.825 11.5058 15.825H11.2823C11.2152 15.825 11.1593 15.8064 11.1146 15.7691C11.0773 15.7319 11.0512 15.6946 11.0363 15.6574L10.3433 13.8688H6.38603L5.69295 15.6574C5.67805 15.6946 5.64824 15.7319 5.60352 15.7691C5.56626 15.8064 5.51409 15.825 5.44702 15.825H5.22345ZM6.65431 13.1981H10.075L8.36464 8.79368L6.65431 13.1981Z" fill="currentColor"/>
<path d="M12.4939 15.825C12.4343 15.825 12.3821 15.8027 12.3374 15.758C12.2927 15.7132 12.2703 15.6611 12.2703 15.6015L12.2927 15.4785L15.1209 8.22357C15.1805 8.07452 15.2886 8 15.4451 8H15.8251C15.9816 8 16.0897 8.07452 16.1493 8.22357L18.9775 15.4785L18.9999 15.6015C18.9999 15.6611 18.9775 15.7132 18.9328 15.758C18.8881 15.8027 18.8359 15.825 18.7763 15.825H18.5527C18.4857 15.825 18.4298 15.8064 18.3851 15.7691C18.3478 15.7319 18.3217 15.6946 18.3068 15.6574L17.6137 13.8688H13.6565L12.9634 15.6574C12.9485 15.6946 12.9187 15.7319 12.874 15.7691C12.8367 15.8064 12.7846 15.825 12.7175 15.825H12.4939ZM13.9248 13.1981H17.3454L15.6351 8.79368L13.9248 13.1981Z" fill="currentColor"/>
</svg>
