<svg xmlns="http://www.w3.org/2000/svg" width="12" height="12" viewBox="0 0 12 12" fill="none">
    <path
            fill-rule="evenodd"
            clip-rule="evenodd"
            d="M1.69232 2.76917C1.4883 2.76917 1.29264 2.85021 1.14839 2.99447C1.00413 3.13873 0.923082 3.33439 0.923082 3.5384V10.3077C0.923082 10.5117 1.00413 10.7073 1.14839 10.8516C1.29264 10.9959 1.4883 11.0769 1.69232 11.0769H8.46158C8.66559 11.0769 8.86125 10.9959 9.00551 10.8516C9.14977 10.7073 9.23081 10.5117 9.23081 10.3077V6.61534C9.23081 6.36044 9.43745 6.1538 9.69236 6.1538C9.94726 6.1538 10.1539 6.36044 10.1539 6.61534V10.3077C10.1539 10.7565 9.9756 11.1869 9.65823 11.5043C9.34086 11.8217 8.91041 12 8.46158 12H1.69232C1.24349 12 0.813039 11.8217 0.495668 11.5043C0.178297 11.1869 0 10.7565 0 10.3077V3.5384C0 3.08957 0.178297 2.65912 0.495668 2.34175C0.813039 2.02438 1.24349 1.84608 1.69232 1.84608H5.38464C5.63954 1.84608 5.84618 2.05272 5.84618 2.30763C5.84618 2.56253 5.63954 2.76917 5.38464 2.76917H1.69232Z"
            fill="currentColor"
    />
    <path
            fill-rule="evenodd"
            clip-rule="evenodd"
            d="M7.38431 0.461541C7.38431 0.206639 7.59095 0 7.84585 0H11.5382C11.7931 0 11.9997 0.206639 11.9997 0.461541V4.15387C11.9997 4.40877 11.7931 4.61541 11.5382 4.61541C11.2833 4.61541 11.0766 4.40877 11.0766 4.15387V0.923082H7.84585C7.59095 0.923082 7.38431 0.716443 7.38431 0.461541Z"
            fill="currentColor"
    />
    <path
            fill-rule="evenodd"
            clip-rule="evenodd"
            d="M11.8651 0.135182C12.0453 0.315425 12.0453 0.607657 11.8651 0.787899L5.09582 7.55716C4.91558 7.73741 4.62335 7.73741 4.4431 7.55716C4.26286 7.37692 4.26286 7.08469 4.4431 6.90445L11.2124 0.135182C11.3926 -0.0450607 11.6848 -0.0450607 11.8651 0.135182Z"
            fill="currentColor"
    />
</svg>