<svg width="24" height="24" viewBox="0 0 24 24" fill="none" xmlns="http://www.w3.org/2000/svg">
<g clip-path="url(#clip0_3806_47650)">
<path fill-rule="evenodd" clip-rule="evenodd" d="M6 5.5H18C19.3807 5.5 20.5 6.61929 20.5 8V16C20.5 17.3807 19.3807 18.5 18 18.5H6C4.61929 18.5 3.5 17.3807 3.5 16V8C3.5 6.61929 4.61929 5.5 6 5.5ZM2 8C2 5.79086 3.79086 4 6 4H18C20.2091 4 22 5.79086 22 8V16C22 18.2091 20.2091 20 18 20H6C3.79086 20 2 18.2091 2 16V8ZM10.1999 11.0184C10.1999 10.5294 10.3758 10.3314 10.5073 10.2603C10.6524 10.1819 10.9577 10.1409 11.4326 10.3978L12.3354 10.8884L13.2401 11.3801C13.7201 11.6398 13.7995 11.8916 13.7995 12.0006C13.7995 12.1096 13.7201 12.3614 13.2401 12.6211L11.4321 13.6037C10.9586 13.8597 10.654 13.818 10.5082 13.7389C10.3751 13.6667 10.1999 13.4673 10.1999 12.9828V11.0184ZM12.0037 9.34256C11.3138 8.9692 10.5597 8.86825 9.93701 9.20463C9.30069 9.54838 9 10.2397 9 11.0184V12.9828C9 13.7594 9.3014 14.4493 9.93613 14.7936C10.5581 15.131 11.3124 15.0328 12.0037 14.6586L13.8116 13.6762C14.4964 13.3054 14.9993 12.7244 14.9993 12.0006C14.9993 11.2769 14.496 10.6956 13.8112 10.3248L12.9083 9.83418L12.0046 9.34305L12.0037 9.34256Z" fill="black"/>
</g>
<defs>
<clipPath id="clip0_3806_47650">
<path d="M0 6C0 2.68629 2.68629 0 6 0H18C21.3137 0 24 2.68629 24 6V18C24 21.3137 21.3137 24 18 24H6C2.68629 24 0 21.3137 0 18V6Z" fill="white"/>
</clipPath>
</defs>
</svg>
