<svg width="24" height="24" viewBox="0 0 24 24" fill="none" xmlns="http://www.w3.org/2000/svg">
<path d="M18.9934 8.78126C18.9307 10.1294 17.9789 11.9754 16.1383 14.3192C14.2348 16.7667 12.6242 17.9904 11.3064 17.9904C10.4906 17.9904 9.80041 17.2437 9.23563 15.7504L8.10612 11.6436C7.68778 10.1502 7.23806 9.4035 6.75697 9.4035C6.65239 9.4035 6.28633 9.62129 5.65881 10.0569L4.99994 9.21683C5.68436 8.62049 6.36418 8.01897 7.03934 7.41234C7.95969 6.62416 8.64995 6.20935 9.11012 6.16786C10.1978 6.06415 10.8671 6.80047 11.1181 8.37681C11.3901 10.0776 11.5783 11.1354 11.6829 11.5502C11.9966 12.9606 12.3418 13.6659 12.7183 13.6659C13.0111 13.6659 13.4504 13.2095 14.0361 12.2969C14.6217 11.3843 14.9355 10.6895 14.9773 10.2124C15.061 9.42425 14.7472 9.03017 14.0361 9.03017C13.7014 9.03017 13.3562 9.10278 13.0007 9.24796C13.6909 7.02863 15.0087 5.95008 16.954 6.01231C18.3973 6.0538 19.0771 6.97679 18.9934 8.78129L18.9934 8.78126Z" fill="#3FABD4"/>
</svg>
