<svg width="24" height="24" viewBox="0 0 24 24" fill="none" xmlns="http://www.w3.org/2000/svg">
    <path d="M14.9034 10.956C14.8417 11.0176 14.7565 11.0559 14.6623 11.0555C14.474 11.0555 14.3213 10.9029 14.3213 10.7146V9.00148C14.3242 8.38276 14.0838 7.8003 13.6435 7.35996C12.7384 6.45487 11.2657 6.45487 10.3606 7.35996C9.92024 7.8003 9.67948 8.38241 9.68236 8.99983L9.68242 10.7143C9.68242 10.9026 9.52976 11.0553 9.34137 11.0553C9.15298 11.0553 9.00032 10.9026 9.00032 10.7143L9.00038 9.00112C8.99614 8.20238 9.30859 7.44771 9.8781 6.8782C11.049 5.70727 12.9543 5.70727 14.1253 6.8782C14.6951 7.44807 15.0072 8.20308 15.0033 9.00336L15.003 10.7148C15.003 10.8094 14.9651 10.8942 14.9034 10.956Z"
          fill="currentColor"/>
    <path d="M14.1253 16.7732C12.9543 17.9441 11.049 17.9441 9.87811 16.7732C9.30825 16.2033 8.99621 15.4483 9.00003 14.648L9.00039 12.9365C9.00039 12.7481 9.15305 12.5955 9.34138 12.5955C9.52971 12.5955 9.68237 12.7481 9.68237 12.9365L9.68243 14.6496C9.67884 15.2683 9.9196 15.8504 10.3602 16.2911C11.2653 17.1961 12.7381 17.1961 13.6431 16.2911C14.0835 15.8507 14.3242 15.2686 14.3214 14.6512V12.9368C14.3214 12.7485 14.474 12.5958 14.6624 12.5958C14.8507 12.5958 15.0034 12.7484 15.0033 12.9368L15.0034 14.65C15.0072 15.449 14.6948 16.2036 14.1253 16.7732Z"
          fill="currentColor"/>
    <path d="M12.2427 14.638C12.1811 14.6997 12.0958 14.7379 12.0017 14.7376C11.8134 14.7376 11.6607 14.5849 11.6607 14.3966L11.6606 9.25401C11.6607 9.06562 11.8134 8.91296 12.0017 8.91296C12.1901 8.91302 12.3427 9.06568 12.3427 9.25401L12.3427 14.3967C12.3427 14.4911 12.3045 14.5763 12.2427 14.638Z"
          fill="currentColor"/>
</svg>
