<svg width="42" height="30" viewBox="0 0 42 30" fill="none" xmlns="http://www.w3.org/2000/svg">
    <path d="M39.75 0H2.25C1.65326 0 1.08097 0.237053 0.65901 0.659009C0.237053 1.08097 0 1.65326 0 2.25V27.75C0 28.3467 0.237053 28.919 0.65901 29.341C1.08097 29.7629 1.65326 30 2.25 30H39.75C40.3467 30 40.919 29.7629 41.341 29.341C41.7629 28.919 42 28.3467 42 27.75V2.25C42 1.65326 41.7629 1.08097 41.341 0.659009C40.919 0.237053 40.3467 0 39.75 0ZM2.25 1.5H39.75C39.9489 1.5 40.1397 1.57902 40.2803 1.71967C40.421 1.86032 40.5 2.05109 40.5 2.25V4.5H1.5V2.25C1.5 2.05109 1.57902 1.86032 1.71967 1.71967C1.86032 1.57902 2.05109 1.5 2.25 1.5ZM39.75 28.5H2.25C2.05109 28.5 1.86032 28.421 1.71967 28.2803C1.57902 28.1397 1.5 27.9489 1.5 27.75V6H40.5V27.75C40.5 27.9489 40.421 28.1397 40.2803 28.2803C40.1397 28.421 39.9489 28.5 39.75 28.5Z"
          fill="currentColor"/>
    <path d="M38.25 3.75C38.4489 3.75 38.6397 3.67098 38.7803 3.53033C38.921 3.38968 39 3.19891 39 3C39 2.80109 38.921 2.61032 38.7803 2.46967C38.6397 2.32902 38.4489 2.25 38.25 2.25C38.0511 2.25 37.8603 2.32902 37.7197 2.46967C37.579 2.61032 37.5 2.80109 37.5 3C37.5 3.19891 37.579 3.38968 37.7197 3.53033C37.8603 3.67098 38.0511 3.75 38.25 3.75Z"
          fill="currentColor"/>
    <path d="M35.25 3.75C35.4489 3.75 35.6397 3.67098 35.7803 3.53033C35.921 3.38968 36 3.19891 36 3C36 2.80109 35.921 2.61032 35.7803 2.46967C35.6397 2.32902 35.4489 2.25 35.25 2.25C35.0511 2.25 34.8603 2.32902 34.7197 2.46967C34.579 2.61032 34.5 2.80109 34.5 3C34.5 3.19891 34.579 3.38968 34.7197 3.53033C34.8603 3.67098 35.0511 3.75 35.25 3.75Z"
          fill="currentColor"/>
    <path d="M32.25 3.75C32.4489 3.75 32.6397 3.67098 32.7803 3.53033C32.921 3.38968 33 3.19891 33 3C33 2.80109 32.921 2.61032 32.7803 2.46967C32.6397 2.32902 32.4489 2.25 32.25 2.25C32.0511 2.25 31.8603 2.32902 31.7197 2.46967C31.579 2.61032 31.5 2.80109 31.5 3C31.5 3.19891 31.579 3.38968 31.7197 3.53033C31.8603 3.67098 32.0511 3.75 32.25 3.75Z"
          fill="currentColor"/>
    <path d="M9.11257 12.8025C8.91667 12.7699 8.71586 12.8164 8.55417 12.9317C8.39249 13.0469 8.28312 13.2217 8.25007 13.4175L7.88257 15.6675L7.41757 14.7375C7.35628 14.6124 7.26137 14.5068 7.14348 14.4326C7.02558 14.3585 6.88935 14.3186 6.75007 14.3175C6.6095 14.3172 6.47169 14.3564 6.35234 14.4307C6.23299 14.5049 6.13691 14.6112 6.07507 14.7375L5.61007 15.675L5.24257 13.425C5.20975 13.2261 5.09925 13.0483 4.93539 12.9309C4.77153 12.8134 4.56773 12.7659 4.36882 12.7987C4.1699 12.8315 3.99218 12.942 3.87473 13.1059C3.75729 13.2698 3.70975 13.4736 3.74257 13.6725L4.49257 18.1725C4.5179 18.3297 4.5926 18.4747 4.70587 18.5866C4.81913 18.6986 4.96507 18.7715 5.12257 18.795H5.25007C5.38935 18.7939 5.52558 18.754 5.64348 18.6798C5.76137 18.6056 5.85628 18.5001 5.91757 18.375L6.75007 16.74L7.56757 18.405C7.6377 18.5487 7.75194 18.6663 7.89361 18.7405C8.03529 18.8147 8.19697 18.8417 8.35507 18.8175C8.51256 18.794 8.6585 18.7211 8.77176 18.6091C8.88503 18.4972 8.95973 18.3522 8.98507 18.195L9.73507 13.695C9.75555 13.5952 9.75553 13.4924 9.73498 13.3927C9.71443 13.293 9.6738 13.1985 9.61556 13.115C9.55732 13.0315 9.48269 12.9607 9.39621 12.907C9.30974 12.8533 9.21323 12.8177 9.11257 12.8025Z"
          fill="currentColor"/>
    <path d="M16.5969 12.8025C16.4022 12.7721 16.2033 12.8196 16.0433 12.9346C15.8833 13.0497 15.7751 13.2232 15.7419 13.4175L15.3669 15.6675L14.9019 14.7375C14.8407 14.6124 14.7457 14.5068 14.6279 14.4326C14.51 14.3585 14.3737 14.3186 14.2344 14.3175C14.0939 14.3172 13.9561 14.3564 13.8367 14.4307C13.7174 14.5049 13.6213 14.6112 13.5594 14.7375L13.0944 15.675L12.7269 13.425C12.6941 13.2261 12.5836 13.0483 12.4198 12.9309C12.2559 12.8134 12.0521 12.7659 11.8532 12.7987C11.6543 12.8315 11.4766 12.942 11.3591 13.1059C11.2417 13.2698 11.1941 13.4736 11.2269 13.6725L11.9769 18.1725C12.0023 18.3297 12.077 18.4747 12.1902 18.5866C12.3035 18.6986 12.4494 18.7715 12.6069 18.795H12.7494C12.89 18.7952 13.0278 18.756 13.1472 18.6818C13.2665 18.6075 13.3626 18.5012 13.4244 18.375L14.2494 16.74L15.0744 18.405C15.142 18.5526 15.2557 18.6744 15.3984 18.7519C15.5411 18.8294 15.7051 18.8585 15.8658 18.8349C16.0264 18.8112 16.1751 18.736 16.2893 18.6206C16.4036 18.5052 16.4773 18.3559 16.4994 18.195L17.2494 13.695C17.2698 13.593 17.2688 13.488 17.2464 13.3864C17.2241 13.2849 17.1808 13.1892 17.1195 13.1052C17.0581 13.0213 16.98 12.9511 16.89 12.8989C16.8001 12.8468 16.7003 12.814 16.5969 12.8025Z"
          fill="currentColor"/>
    <path d="M24.0898 12.8025C23.8939 12.7699 23.6931 12.8164 23.5314 12.9317C23.3697 13.0469 23.2604 13.2217 23.2273 13.4175L22.8523 15.6675L22.3948 14.7375C22.3334 14.6107 22.2375 14.5037 22.1181 14.4289C21.9987 14.3541 21.8607 14.3144 21.7198 14.3144C21.5789 14.3144 21.4409 14.3541 21.3215 14.4289C21.2021 14.5037 21.1062 14.6107 21.0448 14.7375L20.5798 15.675L20.2123 13.425C20.1795 13.2261 20.069 13.0483 19.9051 12.9309C19.7413 12.8134 19.5375 12.7659 19.3385 12.7987C19.1396 12.8315 18.9619 12.942 18.8445 13.1059C18.727 13.2698 18.6795 13.4736 18.7123 13.6725L19.4623 18.1725C19.4876 18.3297 19.5623 18.4747 19.6756 18.5866C19.7889 18.6986 19.9348 18.7715 20.0923 18.795H20.2498C20.3904 18.7952 20.5282 18.756 20.6475 18.6818C20.7669 18.6075 20.8629 18.5012 20.9248 18.375L21.7498 16.74L22.5748 18.405C22.6456 18.5463 22.7592 18.6617 22.8995 18.7346C23.0398 18.8076 23.1995 18.8343 23.3559 18.811C23.5123 18.7877 23.6573 18.7156 23.7702 18.605C23.8832 18.4943 23.9583 18.3508 23.9848 18.195L24.7348 13.695C24.7552 13.5936 24.7544 13.4891 24.7325 13.388C24.7106 13.287 24.668 13.1915 24.6074 13.1077C24.5468 13.0239 24.4696 12.9535 24.3805 12.901C24.2914 12.8485 24.1925 12.8149 24.0898 12.8025Z"
          fill="currentColor"/>
    <path d="M36.0673 20.4001C36.9234 19.6753 37.5593 18.725 37.9027 17.6571C38.246 16.5892 38.2831 15.4464 38.0098 14.3585C37.7364 13.2705 37.1636 12.281 36.3562 11.5022C35.5488 10.7234 34.5393 10.1866 33.4423 9.95257C32.6739 9.78798 31.8805 9.77747 31.1081 9.92166C30.3357 10.0658 29.5995 10.3619 28.9423 10.7926C27.6105 11.6607 26.6778 13.0218 26.3487 14.577C26.0197 16.1322 26.3213 17.7545 27.1873 19.0876C27.9753 20.3172 29.1883 21.2138 30.595 21.6067C32.0016 21.9995 33.5036 21.861 34.8148 21.2176L36.8848 24.4051C36.9511 24.5086 37.0419 24.5942 37.1492 24.6544C37.2564 24.7145 37.3768 24.7474 37.4998 24.7501C37.6343 24.7498 37.7663 24.7134 37.8819 24.6447C37.9975 24.5759 38.0925 24.4773 38.1569 24.3592C38.2214 24.2411 38.2528 24.1079 38.248 23.9734C38.2433 23.839 38.2024 23.7083 38.1298 23.5951L36.0673 20.4001ZM31.2673 20.2501C30.0996 20.0024 29.0782 19.3011 28.4277 18.3003C27.7772 17.2996 27.5509 16.0814 27.7985 14.9138C28.0462 13.7462 28.7475 12.7248 29.7482 12.0743C30.749 11.4238 31.9671 11.1974 33.1348 11.4451C33.7129 11.5677 34.2612 11.803 34.7484 12.1375C35.2357 12.4721 35.6522 12.8993 35.9743 13.3948C36.2964 13.8903 36.5178 14.4444 36.6257 15.0255C36.7337 15.6065 36.7261 16.2032 36.6035 16.7813C36.4809 17.3595 36.2456 17.9078 35.9111 18.395C35.5765 18.8822 35.1493 19.2988 34.6538 19.6209C34.1583 19.943 33.6042 20.1643 33.0231 20.2723C32.442 20.3802 31.8454 20.3727 31.2673 20.2501Z"
          fill="currentColor"/>
</svg>
