<svg width="24" height="24" viewBox="0 0 24 24" fill="none" xmlns="http://www.w3.org/2000/svg">
<path d="M18.405 8.115C18.0252 7.4395 17.6131 7.31525 16.774 7.268C15.9357 7.21113 13.8279 7.1875 12.0017 7.1875C10.1721 7.1875 8.06337 7.21113 7.226 7.26713C6.38862 7.31525 5.97562 7.43862 5.59237 8.115C5.20125 8.78962 5 9.95163 5 11.9974V12.0044C5 14.0414 5.20125 15.2121 5.59237 15.8797C5.97562 16.5553 6.38775 16.6777 7.22513 16.7346C8.06337 16.7836 10.1721 16.8125 12.0017 16.8125C13.8279 16.8125 15.9357 16.7836 16.7749 16.7355C17.614 16.6786 18.0261 16.5561 18.4059 15.8806C18.8005 15.213 19 14.0422 19 12.0052V11.9983C19 9.95163 18.8005 8.78962 18.405 8.115ZM10.25 14.625V9.375L14.625 12L10.25 14.625Z" fill="#FF0000"/>
</svg>
