<svg width="24" height="24" viewBox="0 0 24 24" fill="none" xmlns="http://www.w3.org/2000/svg">
<path d="M13.7499 12.0031C13.7497 12.5233 13.6545 13.021 13.4812 13.4809C13.0215 13.6543 12.5233 13.7495 12.0029 13.7502H11.9969C11.477 13.7495 10.9788 13.6545 10.5191 13.4812C10.3457 13.0215 10.2503 12.5233 10.2501 12.0031V11.9969C10.2503 11.477 10.3455 10.9788 10.5186 10.5193C10.9783 10.3457 11.4767 10.2503 11.9969 10.2501H12.0029C12.5233 10.2503 13.0215 10.3457 13.4812 10.5193C13.6545 10.9788 13.7497 11.477 13.7499 11.9969V12.0031ZM18.9028 10.8334H14.8167L17.7058 7.94407C17.4788 7.62514 17.2256 7.326 16.9496 7.04996V7.04974C16.6736 6.77392 16.3744 6.52119 16.0557 6.2942L13.1664 9.1835V5.09744C12.7883 5.03387 12.3999 5.00022 12.0035 5H11.9963C11.5999 5.00022 11.2117 5.03387 10.8334 5.09744V9.1835L7.94407 6.2942C7.62514 6.52119 7.32622 6.77414 7.05062 7.05018L7.04908 7.05128C6.77348 7.32688 6.52097 7.62558 6.29398 7.94407L9.1835 10.8334H5.09744C5.09744 10.8334 5 11.6008 5 11.9976V12.0024C5 12.3992 5.03365 12.7881 5.09744 13.1666H9.1835L6.29398 16.0559C6.74841 16.6936 7.30643 17.2518 7.94407 17.706L10.8334 14.8165V18.9028C11.2115 18.9661 11.5992 18.9996 11.9949 19H12.0048C12.4008 18.9996 12.789 18.9661 13.1664 18.9028V14.8165L16.0559 17.706C16.3746 17.479 16.6736 17.2261 16.9496 16.9503L16.9503 16.9496C17.2259 16.6736 17.479 16.3744 17.7058 16.0559L14.8163 13.1666H18.9028C18.9663 12.7888 18.9996 12.401 19 12.0051V11.9949C18.9996 11.599 18.9663 11.2112 18.9028 10.8334Z" fill="#FF4A00"/>
</svg>
