<svg width="1703" height="847" viewBox="0 0 1703 847" fill="none" xmlns="http://www.w3.org/2000/svg">
<g opacity="0.4">
<path d="M1455.78 287.891C1455.78 289.488 1454.49 290.783 1452.89 290.783C1451.29 290.783 1450 289.488 1450 287.891C1450 286.295 1451.29 285 1452.89 285C1454.49 285 1455.78 286.295 1455.78 287.891Z" fill="#767EA7"/>
<path d="M1483.25 287.891C1483.25 289.488 1481.96 290.783 1480.36 290.783C1478.76 290.783 1477.47 289.488 1477.47 287.891C1477.47 286.295 1478.76 285 1480.36 285C1481.96 285 1483.25 286.295 1483.25 287.891Z" fill="#767EA7"/>
<path d="M1510.72 287.891C1510.72 289.488 1509.43 290.783 1507.83 290.783C1506.23 290.783 1504.94 289.488 1504.94 287.891C1504.94 286.295 1506.23 285 1507.83 285C1509.43 285 1510.72 286.295 1510.72 287.891Z" fill="#767EA7"/>
<path d="M1538.19 287.891C1538.19 289.488 1536.89 290.783 1535.3 290.783C1533.7 290.783 1532.41 289.488 1532.41 287.891C1532.41 286.295 1533.7 285 1535.3 285C1536.89 285 1538.19 286.295 1538.19 287.891Z" fill="#767EA7"/>
<path d="M1565.66 287.891C1565.66 289.488 1564.36 290.783 1562.77 290.783C1561.17 290.783 1559.87 289.488 1559.87 287.891C1559.87 286.295 1561.17 285 1562.77 285C1564.36 285 1565.66 286.295 1565.66 287.891Z" fill="#767EA7"/>
<path d="M1593.13 287.891C1593.13 289.488 1591.83 290.783 1590.23 290.783C1588.64 290.783 1587.34 289.488 1587.34 287.891C1587.34 286.295 1588.64 285 1590.23 285C1591.83 285 1593.13 286.295 1593.13 287.891Z" fill="#767EA7"/>
<path d="M1620.59 287.891C1620.59 289.488 1619.3 290.783 1617.7 290.783C1616.11 290.783 1614.81 289.488 1614.81 287.891C1614.81 286.295 1616.11 285 1617.7 285C1619.3 285 1620.59 286.295 1620.59 287.891Z" fill="#767EA7"/>
<path d="M1648.06 287.891C1648.06 289.488 1646.77 290.783 1645.17 290.783C1643.57 290.783 1642.28 289.488 1642.28 287.891C1642.28 286.295 1643.57 285 1645.17 285C1646.77 285 1648.06 286.295 1648.06 287.891Z" fill="#767EA7"/>
<path d="M1675.53 287.891C1675.53 289.488 1674.24 290.783 1672.64 290.783C1671.04 290.783 1669.75 289.488 1669.75 287.891C1669.75 286.295 1671.04 285 1672.64 285C1674.24 285 1675.53 286.295 1675.53 287.891Z" fill="#767EA7"/>
<path d="M1703 287.891C1703 289.488 1701.71 290.783 1700.11 290.783C1698.51 290.783 1697.22 289.488 1697.22 287.891C1697.22 286.295 1698.51 285 1700.11 285C1701.71 285 1703 286.295 1703 287.891Z" fill="#767EA7"/>
<path d="M1455.78 315.36C1455.78 316.957 1454.49 318.251 1452.89 318.251C1451.29 318.251 1450 316.957 1450 315.36C1450 313.763 1451.29 312.469 1452.89 312.469C1454.49 312.469 1455.78 313.763 1455.78 315.36Z" fill="#767EA7"/>
<path d="M1483.25 315.36C1483.25 316.957 1481.96 318.251 1480.36 318.251C1478.76 318.251 1477.47 316.957 1477.47 315.36C1477.47 313.763 1478.76 312.469 1480.36 312.469C1481.96 312.469 1483.25 313.763 1483.25 315.36Z" fill="#767EA7"/>
<path d="M1510.72 315.36C1510.72 316.957 1509.43 318.251 1507.83 318.251C1506.23 318.251 1504.94 316.957 1504.94 315.36C1504.94 313.763 1506.23 312.469 1507.83 312.469C1509.43 312.469 1510.72 313.763 1510.72 315.36Z" fill="#767EA7"/>
<path d="M1538.19 315.36C1538.19 316.957 1536.89 318.251 1535.3 318.251C1533.7 318.251 1532.41 316.957 1532.41 315.36C1532.41 313.763 1533.7 312.469 1535.3 312.469C1536.89 312.469 1538.19 313.763 1538.19 315.36Z" fill="#767EA7"/>
<path d="M1565.66 315.36C1565.66 316.957 1564.36 318.251 1562.77 318.251C1561.17 318.251 1559.87 316.957 1559.87 315.36C1559.87 313.763 1561.17 312.469 1562.77 312.469C1564.36 312.469 1565.66 313.763 1565.66 315.36Z" fill="#767EA7"/>
<path d="M1593.13 315.36C1593.13 316.957 1591.83 318.251 1590.23 318.251C1588.64 318.251 1587.34 316.957 1587.34 315.36C1587.34 313.763 1588.64 312.469 1590.23 312.469C1591.83 312.469 1593.13 313.763 1593.13 315.36Z" fill="#767EA7"/>
<path d="M1620.59 315.36C1620.59 316.957 1619.3 318.251 1617.7 318.251C1616.11 318.251 1614.81 316.957 1614.81 315.36C1614.81 313.763 1616.11 312.469 1617.7 312.469C1619.3 312.469 1620.59 313.763 1620.59 315.36Z" fill="#767EA7"/>
<path d="M1648.06 315.36C1648.06 316.957 1646.77 318.251 1645.17 318.251C1643.57 318.251 1642.28 316.957 1642.28 315.36C1642.28 313.763 1643.57 312.469 1645.17 312.469C1646.77 312.469 1648.06 313.763 1648.06 315.36Z" fill="#767EA7"/>
<path d="M1675.53 315.36C1675.53 316.957 1674.24 318.251 1672.64 318.251C1671.04 318.251 1669.75 316.957 1669.75 315.36C1669.75 313.763 1671.04 312.469 1672.64 312.469C1674.24 312.469 1675.53 313.763 1675.53 315.36Z" fill="#767EA7"/>
<path d="M1703 315.36C1703 316.957 1701.71 318.251 1700.11 318.251C1698.51 318.251 1697.22 316.957 1697.22 315.36C1697.22 313.763 1698.51 312.469 1700.11 312.469C1701.71 312.469 1703 313.763 1703 315.36Z" fill="#767EA7"/>
<path d="M1455.78 342.829C1455.78 344.425 1454.49 345.72 1452.89 345.72C1451.29 345.72 1450 344.425 1450 342.829C1450 341.232 1451.29 339.937 1452.89 339.937C1454.49 339.937 1455.78 341.232 1455.78 342.829Z" fill="#767EA7"/>
<path d="M1483.25 342.829C1483.25 344.425 1481.96 345.72 1480.36 345.72C1478.76 345.72 1477.47 344.425 1477.47 342.829C1477.47 341.232 1478.76 339.937 1480.36 339.937C1481.96 339.937 1483.25 341.232 1483.25 342.829Z" fill="#767EA7"/>
<path d="M1510.72 342.829C1510.72 344.425 1509.43 345.72 1507.83 345.72C1506.23 345.72 1504.94 344.425 1504.94 342.829C1504.94 341.232 1506.23 339.937 1507.83 339.937C1509.43 339.937 1510.72 341.232 1510.72 342.829Z" fill="#767EA7"/>
<path d="M1538.19 342.829C1538.19 344.425 1536.89 345.72 1535.3 345.72C1533.7 345.72 1532.41 344.425 1532.41 342.829C1532.41 341.232 1533.7 339.937 1535.3 339.937C1536.89 339.937 1538.19 341.232 1538.19 342.829Z" fill="#767EA7"/>
<path d="M1565.66 342.829C1565.66 344.425 1564.36 345.72 1562.77 345.72C1561.17 345.72 1559.87 344.425 1559.87 342.829C1559.87 341.232 1561.17 339.937 1562.77 339.937C1564.36 339.937 1565.66 341.232 1565.66 342.829Z" fill="#767EA7"/>
<path d="M1593.13 342.829C1593.13 344.425 1591.83 345.72 1590.23 345.72C1588.64 345.72 1587.34 344.425 1587.34 342.829C1587.34 341.232 1588.64 339.937 1590.23 339.937C1591.83 339.937 1593.13 341.232 1593.13 342.829Z" fill="#767EA7"/>
<path d="M1620.59 342.829C1620.59 344.425 1619.3 345.72 1617.7 345.72C1616.11 345.72 1614.81 344.425 1614.81 342.829C1614.81 341.232 1616.11 339.937 1617.7 339.937C1619.3 339.937 1620.59 341.232 1620.59 342.829Z" fill="#767EA7"/>
<path d="M1648.06 342.829C1648.06 344.425 1646.77 345.72 1645.17 345.72C1643.57 345.72 1642.28 344.425 1642.28 342.829C1642.28 341.232 1643.57 339.937 1645.17 339.937C1646.77 339.937 1648.06 341.232 1648.06 342.829Z" fill="#767EA7"/>
<path d="M1675.53 342.829C1675.53 344.425 1674.24 345.72 1672.64 345.72C1671.04 345.72 1669.75 344.425 1669.75 342.829C1669.75 341.232 1671.04 339.937 1672.64 339.937C1674.24 339.937 1675.53 341.232 1675.53 342.829Z" fill="#767EA7"/>
<path d="M1703 342.829C1703 344.425 1701.71 345.72 1700.11 345.72C1698.51 345.72 1697.22 344.425 1697.22 342.829C1697.22 341.232 1698.51 339.937 1700.11 339.937C1701.71 339.937 1703 341.232 1703 342.829Z" fill="#767EA7"/>
<path d="M1455.78 370.297C1455.78 371.894 1454.49 373.189 1452.89 373.189C1451.29 373.189 1450 371.894 1450 370.297C1450 368.7 1451.29 367.406 1452.89 367.406C1454.49 367.406 1455.78 368.7 1455.78 370.297Z" fill="#767EA7"/>
<path d="M1483.25 370.297C1483.25 371.894 1481.96 373.189 1480.36 373.189C1478.76 373.189 1477.47 371.894 1477.47 370.297C1477.47 368.7 1478.76 367.406 1480.36 367.406C1481.96 367.406 1483.25 368.7 1483.25 370.297Z" fill="#767EA7"/>
<path d="M1510.72 370.297C1510.72 371.894 1509.43 373.189 1507.83 373.189C1506.23 373.189 1504.94 371.894 1504.94 370.297C1504.94 368.7 1506.23 367.406 1507.83 367.406C1509.43 367.406 1510.72 368.7 1510.72 370.297Z" fill="#767EA7"/>
<path d="M1538.19 370.297C1538.19 371.894 1536.89 373.189 1535.3 373.189C1533.7 373.189 1532.41 371.894 1532.41 370.297C1532.41 368.7 1533.7 367.406 1535.3 367.406C1536.89 367.406 1538.19 368.7 1538.19 370.297Z" fill="#767EA7"/>
<path d="M1565.66 370.297C1565.66 371.894 1564.36 373.189 1562.77 373.189C1561.17 373.189 1559.87 371.894 1559.87 370.297C1559.87 368.7 1561.17 367.406 1562.77 367.406C1564.36 367.406 1565.66 368.7 1565.66 370.297Z" fill="#767EA7"/>
<path d="M1593.13 370.297C1593.13 371.894 1591.83 373.189 1590.23 373.189C1588.64 373.189 1587.34 371.894 1587.34 370.297C1587.34 368.7 1588.64 367.406 1590.23 367.406C1591.83 367.406 1593.13 368.7 1593.13 370.297Z" fill="#767EA7"/>
<path d="M1620.59 370.297C1620.59 371.894 1619.3 373.189 1617.7 373.189C1616.11 373.189 1614.81 371.894 1614.81 370.297C1614.81 368.7 1616.11 367.406 1617.7 367.406C1619.3 367.406 1620.59 368.7 1620.59 370.297Z" fill="#767EA7"/>
<path d="M1648.06 370.297C1648.06 371.894 1646.77 373.189 1645.17 373.189C1643.57 373.189 1642.28 371.894 1642.28 370.297C1642.28 368.7 1643.57 367.406 1645.17 367.406C1646.77 367.406 1648.06 368.7 1648.06 370.297Z" fill="#767EA7"/>
<path d="M1675.53 370.297C1675.53 371.894 1674.24 373.189 1672.64 373.189C1671.04 373.189 1669.75 371.894 1669.75 370.297C1669.75 368.7 1671.04 367.406 1672.64 367.406C1674.24 367.406 1675.53 368.7 1675.53 370.297Z" fill="#767EA7"/>
<path d="M1703 370.297C1703 371.894 1701.71 373.189 1700.11 373.189C1698.51 373.189 1697.22 371.894 1697.22 370.297C1697.22 368.7 1698.51 367.406 1700.11 367.406C1701.71 367.406 1703 368.7 1703 370.297Z" fill="#767EA7"/>
<path d="M1455.78 397.766C1455.78 399.363 1454.49 400.657 1452.89 400.657C1451.29 400.657 1450 399.363 1450 397.766C1450 396.169 1451.29 394.874 1452.89 394.874C1454.49 394.874 1455.78 396.169 1455.78 397.766Z" fill="#767EA7"/>
<path d="M1483.25 397.766C1483.25 399.363 1481.96 400.657 1480.36 400.657C1478.76 400.657 1477.47 399.363 1477.47 397.766C1477.47 396.169 1478.76 394.874 1480.36 394.874C1481.96 394.874 1483.25 396.169 1483.25 397.766Z" fill="#767EA7"/>
<path d="M1510.72 397.766C1510.72 399.363 1509.43 400.657 1507.83 400.657C1506.23 400.657 1504.94 399.363 1504.94 397.766C1504.94 396.169 1506.23 394.874 1507.83 394.874C1509.43 394.874 1510.72 396.169 1510.72 397.766Z" fill="#767EA7"/>
<path d="M1538.19 397.766C1538.19 399.363 1536.89 400.657 1535.3 400.657C1533.7 400.657 1532.41 399.363 1532.41 397.766C1532.41 396.169 1533.7 394.874 1535.3 394.874C1536.89 394.874 1538.19 396.169 1538.19 397.766Z" fill="#767EA7"/>
<path d="M1565.66 397.766C1565.66 399.363 1564.36 400.657 1562.77 400.657C1561.17 400.657 1559.87 399.363 1559.87 397.766C1559.87 396.169 1561.17 394.874 1562.77 394.874C1564.36 394.874 1565.66 396.169 1565.66 397.766Z" fill="#767EA7"/>
<path d="M1593.13 397.766C1593.13 399.363 1591.83 400.657 1590.23 400.657C1588.64 400.657 1587.34 399.363 1587.34 397.766C1587.34 396.169 1588.64 394.874 1590.23 394.874C1591.83 394.874 1593.13 396.169 1593.13 397.766Z" fill="#767EA7"/>
<path d="M1620.59 397.766C1620.59 399.363 1619.3 400.657 1617.7 400.657C1616.11 400.657 1614.81 399.363 1614.81 397.766C1614.81 396.169 1616.11 394.874 1617.7 394.874C1619.3 394.874 1620.59 396.169 1620.59 397.766Z" fill="#767EA7"/>
<path d="M1648.06 397.766C1648.06 399.363 1646.77 400.657 1645.17 400.657C1643.57 400.657 1642.28 399.363 1642.28 397.766C1642.28 396.169 1643.57 394.874 1645.17 394.874C1646.77 394.874 1648.06 396.169 1648.06 397.766Z" fill="#767EA7"/>
<path d="M1675.53 397.766C1675.53 399.363 1674.24 400.657 1672.64 400.657C1671.04 400.657 1669.75 399.363 1669.75 397.766C1669.75 396.169 1671.04 394.874 1672.64 394.874C1674.24 394.874 1675.53 396.169 1675.53 397.766Z" fill="#767EA7"/>
<path d="M1703 397.766C1703 399.363 1701.71 400.657 1700.11 400.657C1698.51 400.657 1697.22 399.363 1697.22 397.766C1697.22 396.169 1698.51 394.874 1700.11 394.874C1701.71 394.874 1703 396.169 1703 397.766Z" fill="#767EA7"/>
<path d="M1455.78 425.234C1455.78 426.831 1454.49 428.126 1452.89 428.126C1451.29 428.126 1450 426.831 1450 425.234C1450 423.637 1451.29 422.343 1452.89 422.343C1454.49 422.343 1455.78 423.637 1455.78 425.234Z" fill="#767EA7"/>
<path d="M1483.25 425.234C1483.25 426.831 1481.96 428.126 1480.36 428.126C1478.76 428.126 1477.47 426.831 1477.47 425.234C1477.47 423.637 1478.76 422.343 1480.36 422.343C1481.96 422.343 1483.25 423.637 1483.25 425.234Z" fill="#767EA7"/>
<path d="M1510.72 425.234C1510.72 426.831 1509.43 428.126 1507.83 428.126C1506.23 428.126 1504.94 426.831 1504.94 425.234C1504.94 423.637 1506.23 422.343 1507.83 422.343C1509.43 422.343 1510.72 423.637 1510.72 425.234Z" fill="#767EA7"/>
<path d="M1538.19 425.234C1538.19 426.831 1536.89 428.126 1535.3 428.126C1533.7 428.126 1532.41 426.831 1532.41 425.234C1532.41 423.637 1533.7 422.343 1535.3 422.343C1536.89 422.343 1538.19 423.637 1538.19 425.234Z" fill="#767EA7"/>
<path d="M1565.66 425.234C1565.66 426.831 1564.36 428.126 1562.77 428.126C1561.17 428.126 1559.87 426.831 1559.87 425.234C1559.87 423.637 1561.17 422.343 1562.77 422.343C1564.36 422.343 1565.66 423.637 1565.66 425.234Z" fill="#767EA7"/>
<path d="M1593.13 425.234C1593.13 426.831 1591.83 428.126 1590.23 428.126C1588.64 428.126 1587.34 426.831 1587.34 425.234C1587.34 423.637 1588.64 422.343 1590.23 422.343C1591.83 422.343 1593.13 423.637 1593.13 425.234Z" fill="#767EA7"/>
<path d="M1620.59 425.234C1620.59 426.831 1619.3 428.126 1617.7 428.126C1616.11 428.126 1614.81 426.831 1614.81 425.234C1614.81 423.637 1616.11 422.343 1617.7 422.343C1619.3 422.343 1620.59 423.637 1620.59 425.234Z" fill="#767EA7"/>
<path d="M1648.06 425.234C1648.06 426.831 1646.77 428.126 1645.17 428.126C1643.57 428.126 1642.28 426.831 1642.28 425.234C1642.28 423.637 1643.57 422.343 1645.17 422.343C1646.77 422.343 1648.06 423.637 1648.06 425.234Z" fill="#767EA7"/>
<path d="M1675.53 425.234C1675.53 426.831 1674.24 428.126 1672.64 428.126C1671.04 428.126 1669.75 426.831 1669.75 425.234C1669.75 423.637 1671.04 422.343 1672.64 422.343C1674.24 422.343 1675.53 423.637 1675.53 425.234Z" fill="#767EA7"/>
<path d="M1703 425.234C1703 426.831 1701.71 428.126 1700.11 428.126C1698.51 428.126 1697.22 426.831 1697.22 425.234C1697.22 423.637 1698.51 422.343 1700.11 422.343C1701.71 422.343 1703 423.637 1703 425.234Z" fill="#767EA7"/>
<path d="M1455.78 452.703C1455.78 454.3 1454.49 455.594 1452.89 455.594C1451.29 455.594 1450 454.3 1450 452.703C1450 451.106 1451.29 449.811 1452.89 449.811C1454.49 449.811 1455.78 451.106 1455.78 452.703Z" fill="#767EA7"/>
<path d="M1483.25 452.703C1483.25 454.3 1481.96 455.594 1480.36 455.594C1478.76 455.594 1477.47 454.3 1477.47 452.703C1477.47 451.106 1478.76 449.811 1480.36 449.811C1481.96 449.811 1483.25 451.106 1483.25 452.703Z" fill="#767EA7"/>
<path d="M1510.72 452.703C1510.72 454.3 1509.43 455.594 1507.83 455.594C1506.23 455.594 1504.94 454.3 1504.94 452.703C1504.94 451.106 1506.23 449.811 1507.83 449.811C1509.43 449.811 1510.72 451.106 1510.72 452.703Z" fill="#767EA7"/>
<path d="M1538.19 452.703C1538.19 454.3 1536.89 455.594 1535.3 455.594C1533.7 455.594 1532.41 454.3 1532.41 452.703C1532.41 451.106 1533.7 449.811 1535.3 449.811C1536.89 449.811 1538.19 451.106 1538.19 452.703Z" fill="#767EA7"/>
<path d="M1565.66 452.703C1565.66 454.3 1564.36 455.594 1562.77 455.594C1561.17 455.594 1559.87 454.3 1559.87 452.703C1559.87 451.106 1561.17 449.811 1562.77 449.811C1564.36 449.811 1565.66 451.106 1565.66 452.703Z" fill="#767EA7"/>
<path d="M1593.13 452.703C1593.13 454.3 1591.83 455.594 1590.23 455.594C1588.64 455.594 1587.34 454.3 1587.34 452.703C1587.34 451.106 1588.64 449.811 1590.23 449.811C1591.83 449.811 1593.13 451.106 1593.13 452.703Z" fill="#767EA7"/>
<path d="M1620.59 452.703C1620.59 454.3 1619.3 455.594 1617.7 455.594C1616.11 455.594 1614.81 454.3 1614.81 452.703C1614.81 451.106 1616.11 449.811 1617.7 449.811C1619.3 449.811 1620.59 451.106 1620.59 452.703Z" fill="#767EA7"/>
<path d="M1648.06 452.703C1648.06 454.3 1646.77 455.594 1645.17 455.594C1643.57 455.594 1642.28 454.3 1642.28 452.703C1642.28 451.106 1643.57 449.811 1645.17 449.811C1646.77 449.811 1648.06 451.106 1648.06 452.703Z" fill="#767EA7"/>
<path d="M1675.53 452.703C1675.53 454.3 1674.24 455.594 1672.64 455.594C1671.04 455.594 1669.75 454.3 1669.75 452.703C1669.75 451.106 1671.04 449.811 1672.64 449.811C1674.24 449.811 1675.53 451.106 1675.53 452.703Z" fill="#767EA7"/>
<path d="M1703 452.703C1703 454.3 1701.71 455.594 1700.11 455.594C1698.51 455.594 1697.22 454.3 1697.22 452.703C1697.22 451.106 1698.51 449.811 1700.11 449.811C1701.71 449.811 1703 451.106 1703 452.703Z" fill="#767EA7"/>
<path d="M1455.78 480.171C1455.78 481.768 1454.49 483.063 1452.89 483.063C1451.29 483.063 1450 481.768 1450 480.171C1450 478.575 1451.29 477.28 1452.89 477.28C1454.49 477.28 1455.78 478.575 1455.78 480.171Z" fill="#767EA7"/>
<path d="M1483.25 480.171C1483.25 481.768 1481.96 483.063 1480.36 483.063C1478.76 483.063 1477.47 481.768 1477.47 480.171C1477.47 478.575 1478.76 477.28 1480.36 477.28C1481.96 477.28 1483.25 478.575 1483.25 480.171Z" fill="#767EA7"/>
<path d="M1510.72 480.171C1510.72 481.768 1509.43 483.063 1507.83 483.063C1506.23 483.063 1504.94 481.768 1504.94 480.171C1504.94 478.575 1506.23 477.28 1507.83 477.28C1509.43 477.28 1510.72 478.575 1510.72 480.171Z" fill="#767EA7"/>
<path d="M1538.19 480.171C1538.19 481.768 1536.89 483.063 1535.3 483.063C1533.7 483.063 1532.41 481.768 1532.41 480.171C1532.41 478.575 1533.7 477.28 1535.3 477.28C1536.89 477.28 1538.19 478.575 1538.19 480.171Z" fill="#767EA7"/>
<path d="M1565.66 480.171C1565.66 481.768 1564.36 483.063 1562.77 483.063C1561.17 483.063 1559.87 481.768 1559.87 480.171C1559.87 478.575 1561.17 477.28 1562.77 477.28C1564.36 477.28 1565.66 478.575 1565.66 480.171Z" fill="#767EA7"/>
<path d="M1593.13 480.171C1593.13 481.768 1591.83 483.063 1590.23 483.063C1588.64 483.063 1587.34 481.768 1587.34 480.171C1587.34 478.575 1588.64 477.28 1590.23 477.28C1591.83 477.28 1593.13 478.575 1593.13 480.171Z" fill="#767EA7"/>
<path d="M1620.59 480.171C1620.59 481.768 1619.3 483.063 1617.7 483.063C1616.11 483.063 1614.81 481.768 1614.81 480.171C1614.81 478.575 1616.11 477.28 1617.7 477.28C1619.3 477.28 1620.59 478.575 1620.59 480.171Z" fill="#767EA7"/>
<path d="M1648.06 480.171C1648.06 481.768 1646.77 483.063 1645.17 483.063C1643.57 483.063 1642.28 481.768 1642.28 480.171C1642.28 478.575 1643.57 477.28 1645.17 477.28C1646.77 477.28 1648.06 478.575 1648.06 480.171Z" fill="#767EA7"/>
<path d="M1675.53 480.171C1675.53 481.768 1674.24 483.063 1672.64 483.063C1671.04 483.063 1669.75 481.768 1669.75 480.171C1669.75 478.575 1671.04 477.28 1672.64 477.28C1674.24 477.28 1675.53 478.575 1675.53 480.171Z" fill="#767EA7"/>
<path d="M1703 480.171C1703 481.768 1701.71 483.063 1700.11 483.063C1698.51 483.063 1697.22 481.768 1697.22 480.171C1697.22 478.575 1698.51 477.28 1700.11 477.28C1701.71 477.28 1703 478.575 1703 480.171Z" fill="#767EA7"/>
<path d="M1455.78 507.64C1455.78 509.237 1454.49 510.531 1452.89 510.531C1451.29 510.531 1450 509.237 1450 507.64C1450 506.043 1451.29 504.749 1452.89 504.749C1454.49 504.749 1455.78 506.043 1455.78 507.64Z" fill="#767EA7"/>
<path d="M1483.25 507.64C1483.25 509.237 1481.96 510.531 1480.36 510.531C1478.76 510.531 1477.47 509.237 1477.47 507.64C1477.47 506.043 1478.76 504.749 1480.36 504.749C1481.96 504.749 1483.25 506.043 1483.25 507.64Z" fill="#767EA7"/>
<path d="M1510.72 507.64C1510.72 509.237 1509.43 510.531 1507.83 510.531C1506.23 510.531 1504.94 509.237 1504.94 507.64C1504.94 506.043 1506.23 504.749 1507.83 504.749C1509.43 504.749 1510.72 506.043 1510.72 507.64Z" fill="#767EA7"/>
<path d="M1538.19 507.64C1538.19 509.237 1536.89 510.531 1535.3 510.531C1533.7 510.531 1532.41 509.237 1532.41 507.64C1532.41 506.043 1533.7 504.749 1535.3 504.749C1536.89 504.749 1538.19 506.043 1538.19 507.64Z" fill="#767EA7"/>
<path d="M1565.66 507.64C1565.66 509.237 1564.36 510.531 1562.77 510.531C1561.17 510.531 1559.87 509.237 1559.87 507.64C1559.87 506.043 1561.17 504.749 1562.77 504.749C1564.36 504.749 1565.66 506.043 1565.66 507.64Z" fill="#767EA7"/>
<path d="M1593.13 507.64C1593.13 509.237 1591.83 510.531 1590.23 510.531C1588.64 510.531 1587.34 509.237 1587.34 507.64C1587.34 506.043 1588.64 504.749 1590.23 504.749C1591.83 504.749 1593.13 506.043 1593.13 507.64Z" fill="#767EA7"/>
<path d="M1620.59 507.64C1620.59 509.237 1619.3 510.531 1617.7 510.531C1616.11 510.531 1614.81 509.237 1614.81 507.64C1614.81 506.043 1616.11 504.749 1617.7 504.749C1619.3 504.749 1620.59 506.043 1620.59 507.64Z" fill="#767EA7"/>
<path d="M1648.06 507.64C1648.06 509.237 1646.77 510.531 1645.17 510.531C1643.57 510.531 1642.28 509.237 1642.28 507.64C1642.28 506.043 1643.57 504.749 1645.17 504.749C1646.77 504.749 1648.06 506.043 1648.06 507.64Z" fill="#767EA7"/>
<path d="M1675.53 507.64C1675.53 509.237 1674.24 510.531 1672.64 510.531C1671.04 510.531 1669.75 509.237 1669.75 507.64C1669.75 506.043 1671.04 504.749 1672.64 504.749C1674.24 504.749 1675.53 506.043 1675.53 507.64Z" fill="#767EA7"/>
<path d="M1703 507.64C1703 509.237 1701.71 510.531 1700.11 510.531C1698.51 510.531 1697.22 509.237 1697.22 507.64C1697.22 506.043 1698.51 504.749 1700.11 504.749C1701.71 504.749 1703 506.043 1703 507.64Z" fill="#767EA7"/>
<path d="M1455.78 535.109C1455.78 536.705 1454.49 538 1452.89 538C1451.29 538 1450 536.705 1450 535.109C1450 533.512 1451.29 532.217 1452.89 532.217C1454.49 532.217 1455.78 533.512 1455.78 535.109Z" fill="#767EA7"/>
<path d="M1483.25 535.109C1483.25 536.705 1481.96 538 1480.36 538C1478.76 538 1477.47 536.705 1477.47 535.109C1477.47 533.512 1478.76 532.217 1480.36 532.217C1481.96 532.217 1483.25 533.512 1483.25 535.109Z" fill="#767EA7"/>
<path d="M1510.72 535.109C1510.72 536.705 1509.43 538 1507.83 538C1506.23 538 1504.94 536.705 1504.94 535.109C1504.94 533.512 1506.23 532.217 1507.83 532.217C1509.43 532.217 1510.72 533.512 1510.72 535.109Z" fill="#767EA7"/>
<path d="M1538.19 535.109C1538.19 536.705 1536.89 538 1535.3 538C1533.7 538 1532.41 536.705 1532.41 535.109C1532.41 533.512 1533.7 532.217 1535.3 532.217C1536.89 532.217 1538.19 533.512 1538.19 535.109Z" fill="#767EA7"/>
<path d="M1565.66 535.109C1565.66 536.705 1564.36 538 1562.77 538C1561.17 538 1559.87 536.705 1559.87 535.109C1559.87 533.512 1561.17 532.217 1562.77 532.217C1564.36 532.217 1565.66 533.512 1565.66 535.109Z" fill="#767EA7"/>
<path d="M1593.13 535.109C1593.13 536.705 1591.83 538 1590.23 538C1588.64 538 1587.34 536.705 1587.34 535.109C1587.34 533.512 1588.64 532.217 1590.23 532.217C1591.83 532.217 1593.13 533.512 1593.13 535.109Z" fill="#767EA7"/>
<path d="M1620.59 535.109C1620.59 536.705 1619.3 538 1617.7 538C1616.11 538 1614.81 536.705 1614.81 535.109C1614.81 533.512 1616.11 532.217 1617.7 532.217C1619.3 532.217 1620.59 533.512 1620.59 535.109Z" fill="#767EA7"/>
<path d="M1648.06 535.109C1648.06 536.705 1646.77 538 1645.17 538C1643.57 538 1642.28 536.705 1642.28 535.109C1642.28 533.512 1643.57 532.217 1645.17 532.217C1646.77 532.217 1648.06 533.512 1648.06 535.109Z" fill="#767EA7"/>
<path d="M1675.53 535.109C1675.53 536.705 1674.24 538 1672.64 538C1671.04 538 1669.75 536.705 1669.75 535.109C1669.75 533.512 1671.04 532.217 1672.64 532.217C1674.24 532.217 1675.53 533.512 1675.53 535.109Z" fill="#767EA7"/>
<path d="M1703 535.109C1703 536.705 1701.71 538 1700.11 538C1698.51 538 1697.22 536.705 1697.22 535.109C1697.22 533.512 1698.51 532.217 1700.11 532.217C1701.71 532.217 1703 533.512 1703 535.109Z" fill="#767EA7"/>
</g>
<g opacity="0.4" filter="url(#filter0_d)">
<rect x="265.5" y="739.5" width="54" height="54" rx="5.5" fill="#F2F2F2" stroke="#767EA7"/>
<path fill-rule="evenodd" clip-rule="evenodd" d="M298.214 756.726L287.844 766.991C287.367 767.462 286.591 767.462 286.115 766.991C285.638 766.52 285.638 765.752 286.115 765.281L296.484 755.017C296.961 754.545 297.737 754.545 298.214 755.017C298.452 755.252 298.574 755.56 298.574 755.868C298.574 756.183 298.452 756.491 298.214 756.726ZM302.107 755.445L299.51 752.884C298.318 751.705 296.381 751.705 295.19 752.884L284.056 763.909C283.708 764.248 283.451 764.67 283.298 765.136L281.062 772.18C280.762 773.11 281.648 773.986 282.589 773.696L289.727 771.479C290.191 771.334 290.619 771.08 290.967 770.736L302.107 759.71C303.298 758.532 303.298 756.623 302.107 755.445Z" fill="#767EA7"/>
<path fill-rule="evenodd" clip-rule="evenodd" d="M301.471 781H282.528C281.684 781 281 780.324 281 779.49C281 778.655 281.684 777.979 282.528 777.979H301.471C302.315 777.979 302.998 778.655 302.998 779.49C302.998 780.324 302.315 781 301.471 781Z" fill="#767EA7"/>
<rect x="180.5" y="767.5" width="54" height="54" rx="5.5" fill="#F2F2F2" stroke="#767EA7"/>
<path d="M213.933 784H200.067C197.793 784 196 785.882 196 788.144V800.856C196 803.126 197.801 805 200.067 805H213.933C216.207 805 218 803.118 218 800.856V788.144C218 785.873 216.199 784 213.933 784ZM213.933 786.637C214.748 786.637 215.411 787.313 215.411 788.144C215.411 788.974 214.748 789.65 213.933 789.65C213.117 789.65 212.454 788.974 212.454 788.144C212.454 787.313 213.117 786.637 213.933 786.637ZM200.067 786.637H210.144C209.965 787.104 209.865 787.612 209.865 788.144C209.865 790.428 211.69 792.287 213.933 792.287C214.454 792.287 214.953 792.186 215.411 792.003V796.26L213.461 794.274C212.956 793.759 212.136 793.759 211.631 794.274L208.387 797.579L203.756 792.861C203.25 792.346 202.431 792.346 201.925 792.861L198.589 796.26V788.144C198.589 787.321 199.242 786.637 200.067 786.637ZM213.933 802.363H200.067C199.26 802.363 198.589 801.697 198.589 800.856V799.99L202.841 795.658L207.471 800.376C207.977 800.891 208.797 800.891 209.302 800.376L212.546 797.071L215.411 799.99V800.856C215.411 801.679 214.758 802.363 213.933 802.363Z" fill="#767EA7"/>
<rect x="350.5" y="712.5" width="54" height="54" rx="5.5" fill="#F2F2F2" stroke="#767EA7"/>
<path fill-rule="evenodd" clip-rule="evenodd" d="M368 730C366.895 730 366 730.895 366 732V746.857C366 747.962 366.895 748.857 368 748.857H386C387.105 748.857 388 747.962 388 746.857V732C388 730.895 387.105 730 386 730H368ZM386.428 733.143V733.761H385.408V744.155H386.428V744.773H383.771V744.155H384.791V733.761H383.771V733.143H386.428ZM367.687 742.258L370.796 735.238C371.012 734.754 371.407 734.461 371.942 734.461H372.057C372.592 734.461 372.974 734.754 373.191 735.238L376.299 742.258C376.363 742.398 376.401 742.526 376.401 742.653C376.401 743.176 375.994 743.596 375.471 743.596C375.013 743.596 374.707 743.329 374.529 742.921L373.93 741.519H370.006L369.381 742.985C369.216 743.367 368.885 743.596 368.477 743.596C367.967 743.596 367.572 743.188 367.572 742.679C367.572 742.539 367.623 742.398 367.687 742.258ZM373.204 739.787L371.968 736.844L370.732 739.787H373.204ZM377.33 741.533V741.558C377.33 742.909 378.388 743.648 379.674 743.648C380.617 743.648 381.267 743.304 381.738 742.781V742.794C381.738 743.202 382.108 743.597 382.668 743.597C383.191 743.597 383.611 743.189 383.611 742.667V739.558C383.611 738.641 383.382 737.889 382.872 737.379C382.388 736.895 381.624 736.615 380.566 736.615C379.662 736.615 378.999 736.742 378.388 736.972C378.082 737.086 377.865 737.379 377.865 737.723C377.865 738.169 378.222 738.513 378.668 738.513C378.757 738.513 378.834 738.501 378.948 738.462C379.318 738.348 379.751 738.271 380.286 738.271C381.254 738.271 381.751 738.717 381.751 739.52V739.634C381.267 739.469 380.77 739.354 380.082 739.354C378.464 739.354 377.33 740.042 377.33 741.533ZM381.777 740.768V741.112C381.777 741.813 381.165 742.31 380.26 742.31C379.636 742.31 379.203 742.004 379.203 741.482V741.456C379.203 740.845 379.713 740.513 380.541 740.513C381.012 740.513 381.445 740.615 381.777 740.768Z" fill="#767EA7"/>
</g>
<g opacity="0.4">
<path d="M-74.2171 17.8914C-74.2171 19.4883 -75.5117 20.7829 -77.1086 20.7829C-78.7055 20.7829 -80 19.4883 -80 17.8914C-80 16.2945 -78.7055 15 -77.1086 15C-75.5117 15 -74.2171 16.2945 -74.2171 17.8914Z" fill="#767EA7"/>
<path d="M-46.7486 17.8914C-46.7486 19.4883 -48.0431 20.7829 -49.64 20.7829C-51.2369 20.7829 -52.5314 19.4883 -52.5314 17.8914C-52.5314 16.2945 -51.2369 15 -49.64 15C-48.0431 15 -46.7486 16.2945 -46.7486 17.8914Z" fill="#767EA7"/>
<path d="M-19.28 17.8914C-19.28 19.4883 -20.5745 20.7829 -22.1714 20.7829C-23.7683 20.7829 -25.0629 19.4883 -25.0629 17.8914C-25.0629 16.2945 -23.7683 15 -22.1714 15C-20.5745 15 -19.28 16.2945 -19.28 17.8914Z" fill="#767EA7"/>
<path d="M8.18857 17.8914C8.18857 19.4883 6.89404 20.7829 5.29714 20.7829C3.70025 20.7829 2.40571 19.4883 2.40571 17.8914C2.40571 16.2945 3.70025 15 5.29714 15C6.89404 15 8.18857 16.2945 8.18857 17.8914Z" fill="#767EA7"/>
<path d="M35.6571 17.8914C35.6571 19.4883 34.3626 20.7829 32.7657 20.7829C31.1688 20.7829 29.8743 19.4883 29.8743 17.8914C29.8743 16.2945 31.1688 15 32.7657 15C34.3626 15 35.6571 16.2945 35.6571 17.8914Z" fill="#767EA7"/>
<path d="M63.1257 17.8914C63.1257 19.4883 61.8312 20.7829 60.2343 20.7829C58.6374 20.7829 57.3428 19.4883 57.3428 17.8914C57.3428 16.2945 58.6374 15 60.2343 15C61.8312 15 63.1257 16.2945 63.1257 17.8914Z" fill="#767EA7"/>
<path d="M90.5943 17.8914C90.5943 19.4883 89.2997 20.7829 87.7029 20.7829C86.106 20.7829 84.8114 19.4883 84.8114 17.8914C84.8114 16.2945 86.106 15 87.7029 15C89.2997 15 90.5943 16.2945 90.5943 17.8914Z" fill="#767EA7"/>
<path d="M118.063 17.8914C118.063 19.4883 116.768 20.7829 115.171 20.7829C113.575 20.7829 112.28 19.4883 112.28 17.8914C112.28 16.2945 113.575 15 115.171 15C116.768 15 118.063 16.2945 118.063 17.8914Z" fill="#767EA7"/>
<path d="M145.531 17.8914C145.531 19.4883 144.237 20.7829 142.64 20.7829C141.043 20.7829 139.749 19.4883 139.749 17.8914C139.749 16.2945 141.043 15 142.64 15C144.237 15 145.531 16.2945 145.531 17.8914Z" fill="#767EA7"/>
<path d="M173 17.8914C173 19.4883 171.705 20.7829 170.109 20.7829C168.512 20.7829 167.217 19.4883 167.217 17.8914C167.217 16.2945 168.512 15 170.109 15C171.705 15 173 16.2945 173 17.8914Z" fill="#767EA7"/>
<path d="M-74.2171 45.36C-74.2171 46.9569 -75.5117 48.2514 -77.1086 48.2514C-78.7055 48.2514 -80 46.9569 -80 45.36C-80 43.7631 -78.7055 42.4686 -77.1086 42.4686C-75.5117 42.4686 -74.2171 43.7631 -74.2171 45.36Z" fill="#767EA7"/>
<path d="M-46.7486 45.36C-46.7486 46.9569 -48.0431 48.2514 -49.64 48.2514C-51.2369 48.2514 -52.5314 46.9569 -52.5314 45.36C-52.5314 43.7631 -51.2369 42.4686 -49.64 42.4686C-48.0431 42.4686 -46.7486 43.7631 -46.7486 45.36Z" fill="#767EA7"/>
<path d="M-19.28 45.36C-19.28 46.9569 -20.5745 48.2514 -22.1714 48.2514C-23.7683 48.2514 -25.0629 46.9569 -25.0629 45.36C-25.0629 43.7631 -23.7683 42.4686 -22.1714 42.4686C-20.5745 42.4686 -19.28 43.7631 -19.28 45.36Z" fill="#767EA7"/>
<path d="M8.18857 45.36C8.18857 46.9569 6.89404 48.2514 5.29714 48.2514C3.70025 48.2514 2.40571 46.9569 2.40571 45.36C2.40571 43.7631 3.70025 42.4686 5.29714 42.4686C6.89404 42.4686 8.18857 43.7631 8.18857 45.36Z" fill="#767EA7"/>
<path d="M35.6571 45.36C35.6571 46.9569 34.3626 48.2514 32.7657 48.2514C31.1688 48.2514 29.8743 46.9569 29.8743 45.36C29.8743 43.7631 31.1688 42.4686 32.7657 42.4686C34.3626 42.4686 35.6571 43.7631 35.6571 45.36Z" fill="#767EA7"/>
<path d="M63.1257 45.36C63.1257 46.9569 61.8312 48.2514 60.2343 48.2514C58.6374 48.2514 57.3428 46.9569 57.3428 45.36C57.3428 43.7631 58.6374 42.4686 60.2343 42.4686C61.8312 42.4686 63.1257 43.7631 63.1257 45.36Z" fill="#767EA7"/>
<path d="M90.5943 45.36C90.5943 46.9569 89.2997 48.2514 87.7029 48.2514C86.106 48.2514 84.8114 46.9569 84.8114 45.36C84.8114 43.7631 86.106 42.4686 87.7029 42.4686C89.2997 42.4686 90.5943 43.7631 90.5943 45.36Z" fill="#767EA7"/>
<path d="M118.063 45.36C118.063 46.9569 116.768 48.2514 115.171 48.2514C113.575 48.2514 112.28 46.9569 112.28 45.36C112.28 43.7631 113.575 42.4686 115.171 42.4686C116.768 42.4686 118.063 43.7631 118.063 45.36Z" fill="#767EA7"/>
<path d="M145.531 45.36C145.531 46.9569 144.237 48.2514 142.64 48.2514C141.043 48.2514 139.749 46.9569 139.749 45.36C139.749 43.7631 141.043 42.4686 142.64 42.4686C144.237 42.4686 145.531 43.7631 145.531 45.36Z" fill="#767EA7"/>
<path d="M173 45.36C173 46.9569 171.705 48.2514 170.109 48.2514C168.512 48.2514 167.217 46.9569 167.217 45.36C167.217 43.7631 168.512 42.4686 170.109 42.4686C171.705 42.4686 173 43.7631 173 45.36Z" fill="#767EA7"/>
<path d="M-74.2171 72.8286C-74.2171 74.4255 -75.5117 75.72 -77.1086 75.72C-78.7055 75.72 -80 74.4255 -80 72.8286C-80 71.2317 -78.7055 69.9371 -77.1086 69.9371C-75.5117 69.9371 -74.2171 71.2317 -74.2171 72.8286Z" fill="#767EA7"/>
<path d="M-46.7486 72.8286C-46.7486 74.4255 -48.0431 75.72 -49.64 75.72C-51.2369 75.72 -52.5314 74.4255 -52.5314 72.8286C-52.5314 71.2317 -51.2369 69.9371 -49.64 69.9371C-48.0431 69.9371 -46.7486 71.2317 -46.7486 72.8286Z" fill="#767EA7"/>
<path d="M-19.28 72.8286C-19.28 74.4255 -20.5745 75.72 -22.1714 75.72C-23.7683 75.72 -25.0629 74.4255 -25.0629 72.8286C-25.0629 71.2317 -23.7683 69.9371 -22.1714 69.9371C-20.5745 69.9371 -19.28 71.2317 -19.28 72.8286Z" fill="#767EA7"/>
<path d="M8.18857 72.8286C8.18857 74.4255 6.89404 75.72 5.29714 75.72C3.70025 75.72 2.40571 74.4255 2.40571 72.8286C2.40571 71.2317 3.70025 69.9371 5.29714 69.9371C6.89404 69.9371 8.18857 71.2317 8.18857 72.8286Z" fill="#767EA7"/>
<path d="M35.6571 72.8286C35.6571 74.4255 34.3626 75.72 32.7657 75.72C31.1688 75.72 29.8743 74.4255 29.8743 72.8286C29.8743 71.2317 31.1688 69.9371 32.7657 69.9371C34.3626 69.9371 35.6571 71.2317 35.6571 72.8286Z" fill="#767EA7"/>
<path d="M63.1257 72.8286C63.1257 74.4255 61.8312 75.72 60.2343 75.72C58.6374 75.72 57.3428 74.4255 57.3428 72.8286C57.3428 71.2317 58.6374 69.9371 60.2343 69.9371C61.8312 69.9371 63.1257 71.2317 63.1257 72.8286Z" fill="#767EA7"/>
<path d="M90.5943 72.8286C90.5943 74.4255 89.2997 75.72 87.7029 75.72C86.106 75.72 84.8114 74.4255 84.8114 72.8286C84.8114 71.2317 86.106 69.9371 87.7029 69.9371C89.2997 69.9371 90.5943 71.2317 90.5943 72.8286Z" fill="#767EA7"/>
<path d="M118.063 72.8286C118.063 74.4255 116.768 75.72 115.171 75.72C113.575 75.72 112.28 74.4255 112.28 72.8286C112.28 71.2317 113.575 69.9371 115.171 69.9371C116.768 69.9371 118.063 71.2317 118.063 72.8286Z" fill="#767EA7"/>
<path d="M145.531 72.8286C145.531 74.4255 144.237 75.72 142.64 75.72C141.043 75.72 139.749 74.4255 139.749 72.8286C139.749 71.2317 141.043 69.9371 142.64 69.9371C144.237 69.9371 145.531 71.2317 145.531 72.8286Z" fill="#767EA7"/>
<path d="M173 72.8286C173 74.4255 171.705 75.72 170.109 75.72C168.512 75.72 167.217 74.4255 167.217 72.8286C167.217 71.2317 168.512 69.9371 170.109 69.9371C171.705 69.9371 173 71.2317 173 72.8286Z" fill="#767EA7"/>
<path d="M-74.2171 100.297C-74.2171 101.894 -75.5117 103.189 -77.1086 103.189C-78.7055 103.189 -80 101.894 -80 100.297C-80 98.7002 -78.7055 97.4057 -77.1086 97.4057C-75.5117 97.4057 -74.2171 98.7002 -74.2171 100.297Z" fill="#767EA7"/>
<path d="M-46.7486 100.297C-46.7486 101.894 -48.0431 103.189 -49.64 103.189C-51.2369 103.189 -52.5314 101.894 -52.5314 100.297C-52.5314 98.7002 -51.2369 97.4057 -49.64 97.4057C-48.0431 97.4057 -46.7486 98.7002 -46.7486 100.297Z" fill="#767EA7"/>
<path d="M-19.28 100.297C-19.28 101.894 -20.5745 103.189 -22.1714 103.189C-23.7683 103.189 -25.0629 101.894 -25.0629 100.297C-25.0629 98.7002 -23.7683 97.4057 -22.1714 97.4057C-20.5745 97.4057 -19.28 98.7002 -19.28 100.297Z" fill="#767EA7"/>
<path d="M8.18857 100.297C8.18857 101.894 6.89404 103.189 5.29714 103.189C3.70025 103.189 2.40571 101.894 2.40571 100.297C2.40571 98.7002 3.70025 97.4057 5.29714 97.4057C6.89404 97.4057 8.18857 98.7002 8.18857 100.297Z" fill="#767EA7"/>
<path d="M35.6571 100.297C35.6571 101.894 34.3626 103.189 32.7657 103.189C31.1688 103.189 29.8743 101.894 29.8743 100.297C29.8743 98.7002 31.1688 97.4057 32.7657 97.4057C34.3626 97.4057 35.6571 98.7002 35.6571 100.297Z" fill="#767EA7"/>
<path d="M63.1257 100.297C63.1257 101.894 61.8312 103.189 60.2343 103.189C58.6374 103.189 57.3428 101.894 57.3428 100.297C57.3428 98.7002 58.6374 97.4057 60.2343 97.4057C61.8312 97.4057 63.1257 98.7002 63.1257 100.297Z" fill="#767EA7"/>
<path d="M90.5943 100.297C90.5943 101.894 89.2997 103.189 87.7029 103.189C86.106 103.189 84.8114 101.894 84.8114 100.297C84.8114 98.7002 86.106 97.4057 87.7029 97.4057C89.2997 97.4057 90.5943 98.7002 90.5943 100.297Z" fill="#767EA7"/>
<path d="M118.063 100.297C118.063 101.894 116.768 103.189 115.171 103.189C113.575 103.189 112.28 101.894 112.28 100.297C112.28 98.7002 113.575 97.4057 115.171 97.4057C116.768 97.4057 118.063 98.7002 118.063 100.297Z" fill="#767EA7"/>
<path d="M145.531 100.297C145.531 101.894 144.237 103.189 142.64 103.189C141.043 103.189 139.749 101.894 139.749 100.297C139.749 98.7002 141.043 97.4057 142.64 97.4057C144.237 97.4057 145.531 98.7002 145.531 100.297Z" fill="#767EA7"/>
<path d="M173 100.297C173 101.894 171.705 103.189 170.109 103.189C168.512 103.189 167.217 101.894 167.217 100.297C167.217 98.7002 168.512 97.4057 170.109 97.4057C171.705 97.4057 173 98.7002 173 100.297Z" fill="#767EA7"/>
<path d="M-74.2171 127.766C-74.2171 129.363 -75.5117 130.657 -77.1086 130.657C-78.7055 130.657 -80 129.363 -80 127.766C-80 126.169 -78.7055 124.874 -77.1086 124.874C-75.5117 124.874 -74.2171 126.169 -74.2171 127.766Z" fill="#767EA7"/>
<path d="M-46.7486 127.766C-46.7486 129.363 -48.0431 130.657 -49.64 130.657C-51.2369 130.657 -52.5314 129.363 -52.5314 127.766C-52.5314 126.169 -51.2369 124.874 -49.64 124.874C-48.0431 124.874 -46.7486 126.169 -46.7486 127.766Z" fill="#767EA7"/>
<path d="M-19.28 127.766C-19.28 129.363 -20.5745 130.657 -22.1714 130.657C-23.7683 130.657 -25.0629 129.363 -25.0629 127.766C-25.0629 126.169 -23.7683 124.874 -22.1714 124.874C-20.5745 124.874 -19.28 126.169 -19.28 127.766Z" fill="#767EA7"/>
<path d="M8.18857 127.766C8.18857 129.363 6.89404 130.657 5.29714 130.657C3.70025 130.657 2.40571 129.363 2.40571 127.766C2.40571 126.169 3.70025 124.874 5.29714 124.874C6.89404 124.874 8.18857 126.169 8.18857 127.766Z" fill="#767EA7"/>
<path d="M35.6571 127.766C35.6571 129.363 34.3626 130.657 32.7657 130.657C31.1688 130.657 29.8743 129.363 29.8743 127.766C29.8743 126.169 31.1688 124.874 32.7657 124.874C34.3626 124.874 35.6571 126.169 35.6571 127.766Z" fill="#767EA7"/>
<path d="M63.1257 127.766C63.1257 129.363 61.8312 130.657 60.2343 130.657C58.6374 130.657 57.3428 129.363 57.3428 127.766C57.3428 126.169 58.6374 124.874 60.2343 124.874C61.8312 124.874 63.1257 126.169 63.1257 127.766Z" fill="#767EA7"/>
<path d="M90.5943 127.766C90.5943 129.363 89.2997 130.657 87.7029 130.657C86.106 130.657 84.8114 129.363 84.8114 127.766C84.8114 126.169 86.106 124.874 87.7029 124.874C89.2997 124.874 90.5943 126.169 90.5943 127.766Z" fill="#767EA7"/>
<path d="M118.063 127.766C118.063 129.363 116.768 130.657 115.171 130.657C113.575 130.657 112.28 129.363 112.28 127.766C112.28 126.169 113.575 124.874 115.171 124.874C116.768 124.874 118.063 126.169 118.063 127.766Z" fill="#767EA7"/>
<path d="M145.531 127.766C145.531 129.363 144.237 130.657 142.64 130.657C141.043 130.657 139.749 129.363 139.749 127.766C139.749 126.169 141.043 124.874 142.64 124.874C144.237 124.874 145.531 126.169 145.531 127.766Z" fill="#767EA7"/>
<path d="M173 127.766C173 129.363 171.705 130.657 170.109 130.657C168.512 130.657 167.217 129.363 167.217 127.766C167.217 126.169 168.512 124.874 170.109 124.874C171.705 124.874 173 126.169 173 127.766Z" fill="#767EA7"/>
<path d="M-74.2171 155.234C-74.2171 156.831 -75.5117 158.126 -77.1086 158.126C-78.7055 158.126 -80 156.831 -80 155.234C-80 153.637 -78.7055 152.343 -77.1086 152.343C-75.5117 152.343 -74.2171 153.637 -74.2171 155.234Z" fill="#767EA7"/>
<path d="M-46.7486 155.234C-46.7486 156.831 -48.0431 158.126 -49.64 158.126C-51.2369 158.126 -52.5314 156.831 -52.5314 155.234C-52.5314 153.637 -51.2369 152.343 -49.64 152.343C-48.0431 152.343 -46.7486 153.637 -46.7486 155.234Z" fill="#767EA7"/>
<path d="M-19.28 155.234C-19.28 156.831 -20.5745 158.126 -22.1714 158.126C-23.7683 158.126 -25.0629 156.831 -25.0629 155.234C-25.0629 153.637 -23.7683 152.343 -22.1714 152.343C-20.5745 152.343 -19.28 153.637 -19.28 155.234Z" fill="#767EA7"/>
<path d="M8.18857 155.234C8.18857 156.831 6.89404 158.126 5.29714 158.126C3.70025 158.126 2.40571 156.831 2.40571 155.234C2.40571 153.637 3.70025 152.343 5.29714 152.343C6.89404 152.343 8.18857 153.637 8.18857 155.234Z" fill="#767EA7"/>
<path d="M35.6571 155.234C35.6571 156.831 34.3626 158.126 32.7657 158.126C31.1688 158.126 29.8743 156.831 29.8743 155.234C29.8743 153.637 31.1688 152.343 32.7657 152.343C34.3626 152.343 35.6571 153.637 35.6571 155.234Z" fill="#767EA7"/>
<path d="M63.1257 155.234C63.1257 156.831 61.8312 158.126 60.2343 158.126C58.6374 158.126 57.3428 156.831 57.3428 155.234C57.3428 153.637 58.6374 152.343 60.2343 152.343C61.8312 152.343 63.1257 153.637 63.1257 155.234Z" fill="#767EA7"/>
<path d="M90.5943 155.234C90.5943 156.831 89.2997 158.126 87.7029 158.126C86.106 158.126 84.8114 156.831 84.8114 155.234C84.8114 153.637 86.106 152.343 87.7029 152.343C89.2997 152.343 90.5943 153.637 90.5943 155.234Z" fill="#767EA7"/>
<path d="M118.063 155.234C118.063 156.831 116.768 158.126 115.171 158.126C113.575 158.126 112.28 156.831 112.28 155.234C112.28 153.637 113.575 152.343 115.171 152.343C116.768 152.343 118.063 153.637 118.063 155.234Z" fill="#767EA7"/>
<path d="M145.531 155.234C145.531 156.831 144.237 158.126 142.64 158.126C141.043 158.126 139.749 156.831 139.749 155.234C139.749 153.637 141.043 152.343 142.64 152.343C144.237 152.343 145.531 153.637 145.531 155.234Z" fill="#767EA7"/>
<path d="M173 155.234C173 156.831 171.705 158.126 170.109 158.126C168.512 158.126 167.217 156.831 167.217 155.234C167.217 153.637 168.512 152.343 170.109 152.343C171.705 152.343 173 153.637 173 155.234Z" fill="#767EA7"/>
<path d="M-74.2171 182.703C-74.2171 184.3 -75.5117 185.594 -77.1086 185.594C-78.7055 185.594 -80 184.3 -80 182.703C-80 181.106 -78.7055 179.811 -77.1086 179.811C-75.5117 179.811 -74.2171 181.106 -74.2171 182.703Z" fill="#767EA7"/>
<path d="M-46.7486 182.703C-46.7486 184.3 -48.0431 185.594 -49.64 185.594C-51.2369 185.594 -52.5314 184.3 -52.5314 182.703C-52.5314 181.106 -51.2369 179.811 -49.64 179.811C-48.0431 179.811 -46.7486 181.106 -46.7486 182.703Z" fill="#767EA7"/>
<path d="M-19.28 182.703C-19.28 184.3 -20.5745 185.594 -22.1714 185.594C-23.7683 185.594 -25.0629 184.3 -25.0629 182.703C-25.0629 181.106 -23.7683 179.811 -22.1714 179.811C-20.5745 179.811 -19.28 181.106 -19.28 182.703Z" fill="#767EA7"/>
<path d="M8.18857 182.703C8.18857 184.3 6.89404 185.594 5.29714 185.594C3.70025 185.594 2.40571 184.3 2.40571 182.703C2.40571 181.106 3.70025 179.811 5.29714 179.811C6.89404 179.811 8.18857 181.106 8.18857 182.703Z" fill="#767EA7"/>
<path d="M35.6571 182.703C35.6571 184.3 34.3626 185.594 32.7657 185.594C31.1688 185.594 29.8743 184.3 29.8743 182.703C29.8743 181.106 31.1688 179.811 32.7657 179.811C34.3626 179.811 35.6571 181.106 35.6571 182.703Z" fill="#767EA7"/>
<path d="M63.1257 182.703C63.1257 184.3 61.8312 185.594 60.2343 185.594C58.6374 185.594 57.3428 184.3 57.3428 182.703C57.3428 181.106 58.6374 179.811 60.2343 179.811C61.8312 179.811 63.1257 181.106 63.1257 182.703Z" fill="#767EA7"/>
<path d="M90.5943 182.703C90.5943 184.3 89.2997 185.594 87.7029 185.594C86.106 185.594 84.8114 184.3 84.8114 182.703C84.8114 181.106 86.106 179.811 87.7029 179.811C89.2997 179.811 90.5943 181.106 90.5943 182.703Z" fill="#767EA7"/>
<path d="M118.063 182.703C118.063 184.3 116.768 185.594 115.171 185.594C113.575 185.594 112.28 184.3 112.28 182.703C112.28 181.106 113.575 179.811 115.171 179.811C116.768 179.811 118.063 181.106 118.063 182.703Z" fill="#767EA7"/>
<path d="M145.531 182.703C145.531 184.3 144.237 185.594 142.64 185.594C141.043 185.594 139.749 184.3 139.749 182.703C139.749 181.106 141.043 179.811 142.64 179.811C144.237 179.811 145.531 181.106 145.531 182.703Z" fill="#767EA7"/>
<path d="M173 182.703C173 184.3 171.705 185.594 170.109 185.594C168.512 185.594 167.217 184.3 167.217 182.703C167.217 181.106 168.512 179.811 170.109 179.811C171.705 179.811 173 181.106 173 182.703Z" fill="#767EA7"/>
<path d="M-74.2171 210.171C-74.2171 211.768 -75.5117 213.063 -77.1086 213.063C-78.7055 213.063 -80 211.768 -80 210.171C-80 208.575 -78.7055 207.28 -77.1086 207.28C-75.5117 207.28 -74.2171 208.575 -74.2171 210.171Z" fill="#767EA7"/>
<path d="M-46.7486 210.171C-46.7486 211.768 -48.0431 213.063 -49.64 213.063C-51.2369 213.063 -52.5314 211.768 -52.5314 210.171C-52.5314 208.575 -51.2369 207.28 -49.64 207.28C-48.0431 207.28 -46.7486 208.575 -46.7486 210.171Z" fill="#767EA7"/>
<path d="M-19.28 210.171C-19.28 211.768 -20.5745 213.063 -22.1714 213.063C-23.7683 213.063 -25.0629 211.768 -25.0629 210.171C-25.0629 208.575 -23.7683 207.28 -22.1714 207.28C-20.5745 207.28 -19.28 208.575 -19.28 210.171Z" fill="#767EA7"/>
<path d="M8.18857 210.171C8.18857 211.768 6.89404 213.063 5.29714 213.063C3.70025 213.063 2.40571 211.768 2.40571 210.171C2.40571 208.575 3.70025 207.28 5.29714 207.28C6.89404 207.28 8.18857 208.575 8.18857 210.171Z" fill="#767EA7"/>
<path d="M35.6571 210.171C35.6571 211.768 34.3626 213.063 32.7657 213.063C31.1688 213.063 29.8743 211.768 29.8743 210.171C29.8743 208.575 31.1688 207.28 32.7657 207.28C34.3626 207.28 35.6571 208.575 35.6571 210.171Z" fill="#767EA7"/>
<path d="M63.1257 210.171C63.1257 211.768 61.8312 213.063 60.2343 213.063C58.6374 213.063 57.3428 211.768 57.3428 210.171C57.3428 208.575 58.6374 207.28 60.2343 207.28C61.8312 207.28 63.1257 208.575 63.1257 210.171Z" fill="#767EA7"/>
<path d="M90.5943 210.171C90.5943 211.768 89.2997 213.063 87.7029 213.063C86.106 213.063 84.8114 211.768 84.8114 210.171C84.8114 208.575 86.106 207.28 87.7029 207.28C89.2997 207.28 90.5943 208.575 90.5943 210.171Z" fill="#767EA7"/>
<path d="M118.063 210.171C118.063 211.768 116.768 213.063 115.171 213.063C113.575 213.063 112.28 211.768 112.28 210.171C112.28 208.575 113.575 207.28 115.171 207.28C116.768 207.28 118.063 208.575 118.063 210.171Z" fill="#767EA7"/>
<path d="M145.531 210.171C145.531 211.768 144.237 213.063 142.64 213.063C141.043 213.063 139.749 211.768 139.749 210.171C139.749 208.575 141.043 207.28 142.64 207.28C144.237 207.28 145.531 208.575 145.531 210.171Z" fill="#767EA7"/>
<path d="M173 210.171C173 211.768 171.705 213.063 170.109 213.063C168.512 213.063 167.217 211.768 167.217 210.171C167.217 208.575 168.512 207.28 170.109 207.28C171.705 207.28 173 208.575 173 210.171Z" fill="#767EA7"/>
<path d="M-74.2171 237.64C-74.2171 239.237 -75.5117 240.531 -77.1086 240.531C-78.7055 240.531 -80 239.237 -80 237.64C-80 236.043 -78.7055 234.749 -77.1086 234.749C-75.5117 234.749 -74.2171 236.043 -74.2171 237.64Z" fill="#767EA7"/>
<path d="M-46.7486 237.64C-46.7486 239.237 -48.0431 240.531 -49.64 240.531C-51.2369 240.531 -52.5314 239.237 -52.5314 237.64C-52.5314 236.043 -51.2369 234.749 -49.64 234.749C-48.0431 234.749 -46.7486 236.043 -46.7486 237.64Z" fill="#767EA7"/>
<path d="M-19.28 237.64C-19.28 239.237 -20.5745 240.531 -22.1714 240.531C-23.7683 240.531 -25.0629 239.237 -25.0629 237.64C-25.0629 236.043 -23.7683 234.749 -22.1714 234.749C-20.5745 234.749 -19.28 236.043 -19.28 237.64Z" fill="#767EA7"/>
<path d="M8.18857 237.64C8.18857 239.237 6.89404 240.531 5.29714 240.531C3.70025 240.531 2.40571 239.237 2.40571 237.64C2.40571 236.043 3.70025 234.749 5.29714 234.749C6.89404 234.749 8.18857 236.043 8.18857 237.64Z" fill="#767EA7"/>
<path d="M35.6571 237.64C35.6571 239.237 34.3626 240.531 32.7657 240.531C31.1688 240.531 29.8743 239.237 29.8743 237.64C29.8743 236.043 31.1688 234.749 32.7657 234.749C34.3626 234.749 35.6571 236.043 35.6571 237.64Z" fill="#767EA7"/>
<path d="M63.1257 237.64C63.1257 239.237 61.8312 240.531 60.2343 240.531C58.6374 240.531 57.3428 239.237 57.3428 237.64C57.3428 236.043 58.6374 234.749 60.2343 234.749C61.8312 234.749 63.1257 236.043 63.1257 237.64Z" fill="#767EA7"/>
<path d="M90.5943 237.64C90.5943 239.237 89.2997 240.531 87.7029 240.531C86.106 240.531 84.8114 239.237 84.8114 237.64C84.8114 236.043 86.106 234.749 87.7029 234.749C89.2997 234.749 90.5943 236.043 90.5943 237.64Z" fill="#767EA7"/>
<path d="M118.063 237.64C118.063 239.237 116.768 240.531 115.171 240.531C113.575 240.531 112.28 239.237 112.28 237.64C112.28 236.043 113.575 234.749 115.171 234.749C116.768 234.749 118.063 236.043 118.063 237.64Z" fill="#767EA7"/>
<path d="M145.531 237.64C145.531 239.237 144.237 240.531 142.64 240.531C141.043 240.531 139.749 239.237 139.749 237.64C139.749 236.043 141.043 234.749 142.64 234.749C144.237 234.749 145.531 236.043 145.531 237.64Z" fill="#767EA7"/>
<path d="M173 237.64C173 239.237 171.705 240.531 170.109 240.531C168.512 240.531 167.217 239.237 167.217 237.64C167.217 236.043 168.512 234.749 170.109 234.749C171.705 234.749 173 236.043 173 237.64Z" fill="#767EA7"/>
<path d="M-74.2171 265.109C-74.2171 266.705 -75.5117 268 -77.1086 268C-78.7055 268 -80 266.705 -80 265.109C-80 263.512 -78.7055 262.217 -77.1086 262.217C-75.5117 262.217 -74.2171 263.512 -74.2171 265.109Z" fill="#767EA7"/>
<path d="M-46.7486 265.109C-46.7486 266.705 -48.0431 268 -49.64 268C-51.2369 268 -52.5314 266.705 -52.5314 265.109C-52.5314 263.512 -51.2369 262.217 -49.64 262.217C-48.0431 262.217 -46.7486 263.512 -46.7486 265.109Z" fill="#767EA7"/>
<path d="M-19.28 265.109C-19.28 266.705 -20.5745 268 -22.1714 268C-23.7683 268 -25.0629 266.705 -25.0629 265.109C-25.0629 263.512 -23.7683 262.217 -22.1714 262.217C-20.5745 262.217 -19.28 263.512 -19.28 265.109Z" fill="#767EA7"/>
<path d="M8.18857 265.109C8.18857 266.705 6.89404 268 5.29714 268C3.70025 268 2.40571 266.705 2.40571 265.109C2.40571 263.512 3.70025 262.217 5.29714 262.217C6.89404 262.217 8.18857 263.512 8.18857 265.109Z" fill="#767EA7"/>
<path d="M35.6571 265.109C35.6571 266.705 34.3626 268 32.7657 268C31.1688 268 29.8743 266.705 29.8743 265.109C29.8743 263.512 31.1688 262.217 32.7657 262.217C34.3626 262.217 35.6571 263.512 35.6571 265.109Z" fill="#767EA7"/>
<path d="M63.1257 265.109C63.1257 266.705 61.8312 268 60.2343 268C58.6374 268 57.3428 266.705 57.3428 265.109C57.3428 263.512 58.6374 262.217 60.2343 262.217C61.8312 262.217 63.1257 263.512 63.1257 265.109Z" fill="#767EA7"/>
<path d="M90.5943 265.109C90.5943 266.705 89.2997 268 87.7029 268C86.106 268 84.8114 266.705 84.8114 265.109C84.8114 263.512 86.106 262.217 87.7029 262.217C89.2997 262.217 90.5943 263.512 90.5943 265.109Z" fill="#767EA7"/>
<path d="M118.063 265.109C118.063 266.705 116.768 268 115.171 268C113.575 268 112.28 266.705 112.28 265.109C112.28 263.512 113.575 262.217 115.171 262.217C116.768 262.217 118.063 263.512 118.063 265.109Z" fill="#767EA7"/>
<path d="M145.531 265.109C145.531 266.705 144.237 268 142.64 268C141.043 268 139.749 266.705 139.749 265.109C139.749 263.512 141.043 262.217 142.64 262.217C144.237 262.217 145.531 263.512 145.531 265.109Z" fill="#767EA7"/>
<path d="M173 265.109C173 266.705 171.705 268 170.109 268C168.512 268 167.217 266.705 167.217 265.109C167.217 263.512 168.512 262.217 170.109 262.217C171.705 262.217 173 263.512 173 265.109Z" fill="#767EA7"/>
</g>
<g opacity="0.4" filter="url(#filter1_d)">
<rect x="260" y="5" width="36" height="22" rx="4" fill="#F2F2F2"/>
<rect x="260.5" y="5.5" width="35" height="21" rx="3.5" stroke="#767EA7"/>
</g>
<g opacity="0.4" filter="url(#filter2_d)">
<rect x="260" y="45" width="78" height="22" rx="4" fill="#F2F2F2"/>
<rect x="260.5" y="45.5" width="77" height="21" rx="3.5" stroke="#767EA7"/>
</g>
<g opacity="0.4">
<path d="M896.894 525C944.884 525 983.788 485.943 983.788 437.764C983.788 389.585 944.884 350.528 896.894 350.528C848.904 350.528 810 389.585 810 437.764C810 485.943 848.904 525 896.894 525Z" stroke="#173BEF"/>
<path fill-rule="evenodd" clip-rule="evenodd" d="M1003 275L1110 438.75H895.995L1003 275Z" stroke="#ADBBFF"/>
</g>
<defs>
<filter id="filter0_d" x="165" y="707" width="255" height="140" filterUnits="userSpaceOnUse" color-interpolation-filters="sRGB">
<feFlood flood-opacity="0" result="BackgroundImageFix"/>
<feColorMatrix in="SourceAlpha" type="matrix" values="0 0 0 0 0 0 0 0 0 0 0 0 0 0 0 0 0 0 127 0"/>
<feOffset dy="10"/>
<feGaussianBlur stdDeviation="7.5"/>
<feColorMatrix type="matrix" values="0 0 0 0 0.741176 0 0 0 0 0.741176 0 0 0 0 0.741176 0 0 0 0.15 0"/>
<feBlend mode="normal" in2="BackgroundImageFix" result="effect1_dropShadow"/>
<feBlend mode="normal" in="SourceGraphic" in2="effect1_dropShadow" result="shape"/>
</filter>
<filter id="filter1_d" x="245" y="0" width="66" height="52" filterUnits="userSpaceOnUse" color-interpolation-filters="sRGB">
<feFlood flood-opacity="0" result="BackgroundImageFix"/>
<feColorMatrix in="SourceAlpha" type="matrix" values="0 0 0 0 0 0 0 0 0 0 0 0 0 0 0 0 0 0 127 0"/>
<feOffset dy="10"/>
<feGaussianBlur stdDeviation="7.5"/>
<feColorMatrix type="matrix" values="0 0 0 0 0.741176 0 0 0 0 0.741176 0 0 0 0 0.741176 0 0 0 0.15 0"/>
<feBlend mode="normal" in2="BackgroundImageFix" result="effect1_dropShadow"/>
<feBlend mode="normal" in="SourceGraphic" in2="effect1_dropShadow" result="shape"/>
</filter>
<filter id="filter2_d" x="245" y="40" width="108" height="52" filterUnits="userSpaceOnUse" color-interpolation-filters="sRGB">
<feFlood flood-opacity="0" result="BackgroundImageFix"/>
<feColorMatrix in="SourceAlpha" type="matrix" values="0 0 0 0 0 0 0 0 0 0 0 0 0 0 0 0 0 0 127 0"/>
<feOffset dy="10"/>
<feGaussianBlur stdDeviation="7.5"/>
<feColorMatrix type="matrix" values="0 0 0 0 0.741176 0 0 0 0 0.741176 0 0 0 0 0.741176 0 0 0 0.15 0"/>
<feBlend mode="normal" in2="BackgroundImageFix" result="effect1_dropShadow"/>
<feBlend mode="normal" in="SourceGraphic" in2="effect1_dropShadow" result="shape"/>
</filter>
</defs>
</svg>
