<svg width="12" height="12" viewBox="0 0 12 12" fill="none" xmlns="http://www.w3.org/2000/svg">
<path d="M6 0C2.6865 0 0 2.6865 0 6C0 9.3135 2.6865 12 6 12C9.3135 12 12 9.3135 12 6C12 2.6865 9.3135 0 6 0ZM8.2685 4.315C8.224 4.365 8.172 4.4185 8.1175 4.4185L8.0535 4.392C7.7745 4.1505 7.5185 3.9845 7.2465 3.8695C6.9045 3.725 6.5415 3.6515 6.1665 3.6515C5.836 3.6515 5.4725 3.7205 5.1445 3.846C5.0425 3.885 4.9895 3.75 4.969 3.6995C4.9455 3.6355 4.935 3.588 4.9395 3.5515C4.944 3.513 4.9645 3.4855 4.999 3.472C5.32 3.333 5.7565 3.25 6.1665 3.25C6.5955 3.25 7.0115 3.334 7.403 3.5C7.7635 3.6525 8.0555 3.841 8.3215 4.093C8.394 4.162 8.3435 4.2315 8.2685 4.315ZM5.6365 6.1415C5.5955 6.098 5.6125 6.0435 5.691 5.9645C5.7375 5.919 5.7775 5.8955 5.8115 5.8955L5.861 5.9155L6.118 6.1725L6.3725 5.9185C6.4165 5.8775 6.4855 5.896 6.557 5.9675C6.6065 6.017 6.656 6.0815 6.5995 6.142L6.3445 6.3995L6.589 6.644C6.6145 6.672 6.6665 6.7295 6.562 6.836C6.518 6.881 6.4755 6.904 6.437 6.904C6.4085 6.9035 6.385 6.891 6.3625 6.8655L6.121 6.6245L5.864 6.883L5.806 6.904C5.7685 6.904 5.7265 6.8825 5.683 6.8395L5.675 6.8315C5.6495 6.8075 5.6075 6.7665 5.6065 6.72L5.638 6.653L5.8935 6.397L5.6365 6.1415ZM5.6615 7.446C5.6765 7.396 5.723 7.244 5.8325 7.277C5.8405 7.279 6.03 7.325 6.1345 7.325C6.676 7.325 7.1 6.9025 7.1 6.3635C7.1 6.1105 7.0015 5.8735 6.8215 5.6955C6.6405 5.516 6.3975 5.417 6.137 5.417C5.8685 5.417 5.622 5.528 5.443 5.73C5.287 5.9065 5.1935 6.1405 5.1935 6.3555L5.1915 7.9695C5.472 8.14 5.7985 8.23 6.1365 8.23C6.636 8.23 7.122 8.0305 7.4695 7.6825C7.822 7.3305 8.016 6.861 8.016 6.361C8.016 5.863 7.821 5.394 7.4665 5.04C7.1135 4.687 6.6435 4.4925 6.142 4.4925C5.638 4.4925 5.1665 4.687 4.8135 5.04C4.811 5.042 4.585 5.2695 4.5125 5.3775L4.5055 5.386C4.4585 5.4515 4.414 5.5135 4.2205 5.472C4.1215 5.451 4.0145 5.3885 4.0145 5.3035V2.6495C4.014 2.5775 4.0725 2.5 4.1655 2.5H7.5905C7.706 2.501 7.706 2.662 7.706 2.715C7.706 2.768 7.706 2.929 7.591 2.93H4.4235L4.4245 4.8145C4.6445 4.587 5.022 4.3445 5.245 4.25C5.5235 4.1325 5.8365 4.07 6.1495 4.07C6.4585 4.07 6.759 4.1305 7.041 4.25C7.3145 4.3655 7.5595 4.531 7.7695 4.741C7.9805 4.9515 8.145 5.1965 8.2605 5.4695C8.38 5.752 8.4405 6.0525 8.4405 6.3615C8.4405 6.671 8.38 6.971 8.2605 7.2535C8.145 7.5265 7.98 7.7715 7.7695 7.982C7.559 8.192 7.3145 8.3575 7.041 8.473C6.759 8.5925 6.4585 8.653 6.1495 8.653C5.8405 8.653 5.54 8.5925 5.258 8.473C4.9845 8.358 4.74 8.192 4.529 7.982C4.319 7.772 4.154 7.5265 4.039 7.254L3.979 7.0985C3.946 6.989 4.097 6.9425 4.1465 6.9275C4.261 6.8925 4.3445 6.875 4.381 6.9725C4.475 7.2215 4.6185 7.466 4.762 7.6255C4.7625 7.308 4.7635 6.3405 4.765 6.3V6.292C4.765 5.964 4.909 5.6345 5.1605 5.3875C5.4245 5.1275 5.7755 4.9845 6.15 4.9845C6.914 4.9845 7.5355 5.6015 7.5355 6.36C7.5355 7.1245 6.9135 7.7465 6.15 7.7465C5.9995 7.7465 5.886 7.736 5.7115 7.6825C5.691 7.6765 5.6025 7.638 5.6615 7.446ZM8.4455 8.542L8.421 8.568C8.1285 8.86 7.7875 9.0895 7.4095 9.25C7.017 9.416 6.6 9.5 6.171 9.5C5.7415 9.5 5.3245 9.416 4.9315 9.25C4.553 9.09 4.213 8.8605 3.921 8.5685C3.629 8.2765 3.3995 7.936 3.2395 7.5575C3.1395 7.3215 3.0685 7.0715 3.028 6.819C3.014 6.71 3.165 6.6865 3.2155 6.679C3.335 6.6605 3.418 6.667 3.4355 6.7575L3.438 6.7745C3.4515 6.8515 3.4925 7.0855 3.6185 7.397C3.7475 7.716 3.947 8.012 4.2125 8.2775C4.4665 8.532 4.763 8.7315 5.0925 8.871C5.4345 9.0155 5.7965 9.0885 6.171 9.0885C6.5445 9.0885 6.9075 9.0155 7.2485 8.871C7.578 8.7315 7.8745 8.532 8.1295 8.2775L8.1535 8.253C8.179 8.227 8.2125 8.219 8.25 8.23C8.2865 8.2405 8.3285 8.2695 8.378 8.319C8.5065 8.4455 8.478 8.507 8.4455 8.542Z" fill="black"/>
</svg>
