<svg width="12" height="12" viewBox="0 0 12 12" fill="none" xmlns="http://www.w3.org/2000/svg">
<path d="M12 6C12 9.3 9.3 12 6 12C2.7 12 0 9.3 0 6C0 2.7 2.7 0 6 0C9.3 0 12 2.7 12 6Z" fill="black"/>
<path d="M4.49953 3.12C4.49953 2.64 4.07953 2.22 3.47953 2.22C2.87953 2.22 2.51953 2.58 2.51953 3.12C2.51953 3.66 2.93953 4.02 3.53953 4.02C4.07953 4.02 4.49953 3.6 4.49953 3.12Z" fill="white"/>
<path d="M4.32031 4.8H2.82031V9H4.32031V4.8Z" fill="white"/>
<path d="M9.7207 6.72C9.7207 5.34 9.0007 4.5 8.0407 4.5C7.4407 4.5 6.9607 4.92 6.8407 5.4L6.7207 4.8H5.2207C5.2207 4.98 5.2207 5.82 5.2207 5.82V9H6.7207V6.72C6.7207 6.12 7.0207 5.7 7.4407 5.7C7.9207 5.7 8.2207 5.88 8.2207 6.72V8.94H9.7207V6.72Z" fill="white"/>
</svg>
