<svg width="12" height="12" viewBox="0 0 12 12" fill="none" xmlns="http://www.w3.org/2000/svg">
<path d="M1.5 4.30707C1.5 3.80318 1.60233 3.30289 1.80814 2.80739C2.01395 2.3119 2.30814 1.8512 2.69186 1.42769C3.07558 1.00418 3.57907 0.659857 4.20349 0.395914C4.82791 0.131971 5.51977 0 6.27907 0C7.51163 0 8.52326 0.392315 9.31395 1.17575C10.1047 1.95918 10.5 2.88298 10.5 3.94715C10.5 5.31485 10.1651 6.44501 9.49419 7.33641C8.82326 8.22782 7.95698 8.67412 6.89535 8.67412C6.54651 8.67412 6.2186 8.59014 5.91279 8.42218C5.60698 8.25422 5.39186 8.05026 5.26744 7.81031L4.80233 9.7059C4.76395 9.85827 4.71279 10.0118 4.65116 10.1678C4.58953 10.3238 4.52093 10.4737 4.44767 10.6177C4.37442 10.7617 4.3 10.8972 4.22674 11.0256C4.15349 11.154 4.07907 11.274 4.00581 11.3855C3.93256 11.4971 3.8686 11.5919 3.81395 11.6675C3.7593 11.7431 3.7093 11.809 3.66279 11.8654L3.59302 11.9614C3.56977 11.9938 3.53837 12.0058 3.5 11.9974C3.46163 11.989 3.43837 11.965 3.43023 11.9254C3.43023 11.917 3.42442 11.8618 3.41279 11.7575C3.40116 11.6531 3.38953 11.5439 3.37791 11.4275C3.36628 11.3112 3.35465 11.1612 3.34302 10.9776C3.3314 10.7941 3.32791 10.6153 3.3314 10.4437C3.33488 10.2722 3.34651 10.0814 3.36628 9.87387C3.38605 9.66631 3.41512 9.47435 3.45349 9.29799C3.53837 8.92247 3.82558 7.66994 4.31395 5.5428C4.25233 5.41443 4.20116 5.26086 4.16279 5.0809C4.12442 4.90094 4.10465 4.75457 4.10465 4.643L4.09302 4.46304C4.09302 3.95075 4.2186 3.52484 4.47093 3.18531C4.72326 2.84578 5.02674 2.67542 5.38372 2.67542C5.67093 2.67542 5.89302 2.7738 6.05233 2.96936C6.21163 3.16492 6.2907 3.41086 6.2907 3.7072C6.2907 3.89076 6.25814 4.11751 6.19186 4.38505C6.12558 4.65259 6.03837 4.96093 5.93023 5.30885C5.82209 5.65678 5.74419 5.93872 5.69767 6.15467C5.61977 6.51459 5.68837 6.82652 5.90116 7.09047C6.11395 7.35441 6.39884 7.48638 6.75581 7.48638C7.3686 7.48638 7.87442 7.12886 8.27326 6.41261C8.67209 5.69637 8.87209 4.83136 8.87209 3.81518C8.87209 3.03894 8.62791 2.40548 8.13953 1.91359C7.65116 1.42169 6.9686 1.17575 6.09302 1.17575C5.11628 1.17575 4.32326 1.49968 3.71512 2.14754C3.10698 2.7954 2.80233 3.57163 2.80233 4.47503C2.80233 5.01132 2.95 5.46242 3.24419 5.83074C3.34535 5.95071 3.37558 6.07909 3.33721 6.21466C3.32209 6.25425 3.29884 6.34663 3.26744 6.4906C3.23605 6.63457 3.21279 6.72695 3.19767 6.76654C3.18256 6.85412 3.14302 6.91291 3.0814 6.9405C3.01977 6.96809 2.95 6.96689 2.87209 6.9345C2.41512 6.74254 2.07209 6.41261 1.84302 5.94472C1.61395 5.47682 1.5 4.93093 1.5 4.30707Z" fill="black"/>
</svg>
