<svg width="269" height="50" viewBox="0 0 269 50" fill="none" xmlns="http://www.w3.org/2000/svg">
<g clip-path="url(#clip0)">
<g filter="url(#filter0_i)">
<rect y="42" width="1440" height="38" fill="white"/>
</g>
<path d="M0 4C0 1.79086 1.79086 0 4 0H1432C1436.42 0 1440 3.58172 1440 8V42H0V4Z" fill="#DEE1E6"/>
<path fill-rule="evenodd" clip-rule="evenodd" d="M74 42C75.3846 41.0588 78.6154 40.5882 80 34C80 34 80 42 80 42H74Z" fill="white"/>
<path d="M80 16C80 11.5817 83.5817 8 88 8H217C221.418 8 225 11.5817 225 16V42H80V16Z" fill="white"/>
<path d="M116.592 24.752L118.818 20.4688H120.096L117.154 25.8184V29H116.029V25.8184L113.088 20.4688H114.377L116.592 24.752ZM120.553 25.7715C120.553 25.1504 120.674 24.5918 120.917 24.0957C121.163 23.5996 121.503 23.2168 121.936 22.9473C122.374 22.6777 122.872 22.543 123.43 22.543C124.294 22.543 124.991 22.8418 125.522 23.4395C126.057 24.0371 126.325 24.832 126.325 25.8242V25.9004C126.325 26.5176 126.206 27.0723 125.967 27.5645C125.733 28.0527 125.395 28.4336 124.954 28.707C124.516 28.9805 124.012 29.1172 123.442 29.1172C122.583 29.1172 121.885 28.8184 121.35 28.2207C120.819 27.623 120.553 26.832 120.553 25.8477V25.7715ZM121.643 25.9004C121.643 26.6035 121.805 27.168 122.13 27.5938C122.458 28.0195 122.895 28.2324 123.442 28.2324C123.993 28.2324 124.43 28.0176 124.755 27.5879C125.079 27.1543 125.241 26.5488 125.241 25.7715C125.241 25.0762 125.075 24.5137 124.743 24.084C124.415 23.6504 123.977 23.4336 123.43 23.4336C122.895 23.4336 122.464 23.6465 122.135 24.0723C121.807 24.498 121.643 25.1074 121.643 25.9004ZM131.798 28.373C131.376 28.8691 130.757 29.1172 129.941 29.1172C129.265 29.1172 128.749 28.9219 128.394 28.5312C128.042 28.1367 127.865 27.5547 127.861 26.7852V22.6602H128.945V26.7559C128.945 27.7168 129.335 28.1973 130.117 28.1973C130.945 28.1973 131.496 27.8887 131.769 27.2715V22.6602H132.853V29H131.822L131.798 28.373ZM137.77 23.6328C137.606 23.6055 137.428 23.5918 137.237 23.5918C136.526 23.5918 136.043 23.8945 135.789 24.5V29H134.705V22.6602H135.76L135.778 23.3926C136.133 22.8262 136.637 22.543 137.289 22.543C137.5 22.543 137.66 22.5703 137.77 22.625V23.6328ZM144.832 25.1973C143.867 24.9199 143.164 24.5801 142.723 24.1777C142.285 23.7715 142.066 23.2715 142.066 22.6777C142.066 22.0059 142.334 21.4512 142.869 21.0137C143.408 20.5723 144.107 20.3516 144.967 20.3516C145.553 20.3516 146.074 20.4648 146.531 20.6914C146.992 20.918 147.348 21.2305 147.598 21.6289C147.851 22.0273 147.978 22.4629 147.978 22.9355H146.848C146.848 22.4199 146.683 22.0156 146.355 21.7227C146.027 21.4258 145.564 21.2773 144.967 21.2773C144.412 21.2773 143.978 21.4004 143.666 21.6465C143.357 21.8887 143.203 22.2266 143.203 22.6602C143.203 23.0078 143.349 23.3027 143.642 23.5449C143.939 23.7832 144.441 24.002 145.148 24.2012C145.859 24.4004 146.414 24.6211 146.812 24.8633C147.215 25.1016 147.512 25.3809 147.703 25.7012C147.898 26.0215 147.996 26.3984 147.996 26.832C147.996 27.5234 147.726 28.0781 147.187 28.4961C146.648 28.9102 145.928 29.1172 145.025 29.1172C144.439 29.1172 143.892 29.0059 143.385 28.7832C142.877 28.5566 142.484 28.248 142.207 27.8574C141.933 27.4668 141.797 27.0234 141.797 26.5273H142.928C142.928 27.043 143.117 27.4512 143.496 27.752C143.879 28.0488 144.389 28.1973 145.025 28.1973C145.619 28.1973 146.074 28.0762 146.39 27.834C146.707 27.5918 146.865 27.2617 146.865 26.8438C146.865 26.4258 146.719 26.1035 146.426 25.877C146.133 25.6465 145.601 25.4199 144.832 25.1973ZM150.651 29H149.567V22.6602H150.651V29ZM149.479 20.9785C149.479 20.8027 149.532 20.6543 149.637 20.5332C149.747 20.4121 149.907 20.3516 150.118 20.3516C150.329 20.3516 150.489 20.4121 150.598 20.5332C150.708 20.6543 150.762 20.8027 150.762 20.9785C150.762 21.1543 150.708 21.3008 150.598 21.418C150.489 21.5352 150.329 21.5938 150.118 21.5938C149.907 21.5938 149.747 21.5352 149.637 21.418C149.532 21.3008 149.479 21.1543 149.479 20.9785ZM154.062 21.125V22.6602H155.246V23.498H154.062V27.4297C154.062 27.6836 154.115 27.875 154.22 28.0039C154.326 28.1289 154.505 28.1914 154.759 28.1914C154.884 28.1914 155.056 28.168 155.275 28.1211V29C154.99 29.0781 154.712 29.1172 154.443 29.1172C153.958 29.1172 153.593 28.9707 153.347 28.6777C153.101 28.3848 152.978 27.9688 152.978 27.4297V23.498H151.824V22.6602H152.978V21.125H154.062ZM159.348 29.1172C158.489 29.1172 157.789 28.8359 157.25 28.2734C156.711 27.707 156.442 26.9512 156.442 26.0059V25.8066C156.442 25.1777 156.561 24.6172 156.799 24.125C157.041 23.6289 157.377 23.2422 157.807 22.9648C158.24 22.6836 158.709 22.543 159.213 22.543C160.037 22.543 160.678 22.8145 161.135 23.3574C161.592 23.9004 161.821 24.6777 161.821 25.6895V26.1406H157.526C157.541 26.7656 157.723 27.2715 158.071 27.6582C158.422 28.041 158.867 28.2324 159.407 28.2324C159.789 28.2324 160.114 28.1543 160.379 27.998C160.645 27.8418 160.877 27.6348 161.076 27.377L161.739 27.8926C161.207 28.709 160.41 29.1172 159.348 29.1172ZM159.213 23.4336C158.776 23.4336 158.408 23.5938 158.112 23.9141C157.815 24.2305 157.631 24.6758 157.561 25.25H160.737V25.168C160.705 24.6172 160.557 24.1914 160.291 23.8906C160.026 23.5859 159.666 23.4336 159.213 23.4336ZM172.287 21.3945H169.545V29H168.426V21.3945H165.689V20.4688H172.287V21.3945ZM174.76 29H173.676V22.6602H174.76V29ZM173.589 20.9785C173.589 20.8027 173.641 20.6543 173.747 20.5332C173.856 20.4121 174.016 20.3516 174.227 20.3516C174.438 20.3516 174.598 20.4121 174.708 20.5332C174.817 20.6543 174.872 20.8027 174.872 20.9785C174.872 21.1543 174.817 21.3008 174.708 21.418C174.598 21.5352 174.438 21.5938 174.227 21.5938C174.016 21.5938 173.856 21.5352 173.747 21.418C173.641 21.3008 173.589 21.1543 173.589 20.9785ZM178.171 21.125V22.6602H179.355V23.498H178.171V27.4297C178.171 27.6836 178.224 27.875 178.33 28.0039C178.435 28.1289 178.615 28.1914 178.869 28.1914C178.994 28.1914 179.165 28.168 179.384 28.1211V29C179.099 29.0781 178.822 29.1172 178.552 29.1172C178.068 29.1172 177.703 28.9707 177.457 28.6777C177.21 28.3848 177.087 27.9688 177.087 27.4297V23.498H175.933V22.6602H177.087V21.125H178.171ZM182.004 29H180.92V20H182.004V29ZM186.575 29.1172C185.716 29.1172 185.017 28.8359 184.478 28.2734C183.939 27.707 183.669 26.9512 183.669 26.0059V25.8066C183.669 25.1777 183.788 24.6172 184.026 24.125C184.269 23.6289 184.605 23.2422 185.034 22.9648C185.468 22.6836 185.937 22.543 186.44 22.543C187.265 22.543 187.905 22.8145 188.362 23.3574C188.819 23.9004 189.048 24.6777 189.048 25.6895V26.1406H184.753C184.769 26.7656 184.95 27.2715 185.298 27.6582C185.649 28.041 186.095 28.2324 186.634 28.2324C187.017 28.2324 187.341 28.1543 187.607 27.998C187.872 27.8418 188.105 27.6348 188.304 27.377L188.966 27.8926C188.435 28.709 187.638 29.1172 186.575 29.1172ZM186.44 23.4336C186.003 23.4336 185.636 23.5938 185.339 23.9141C185.042 24.2305 184.858 24.6758 184.788 25.25H187.964V25.168C187.933 24.6172 187.784 24.1914 187.519 23.8906C187.253 23.5859 186.894 23.4336 186.44 23.4336Z" fill="black"/>
<path fill-rule="evenodd" clip-rule="evenodd" d="M211.583 21.4221C211.362 21.2002 211.003 21.2002 210.781 21.4221L208 24.198L205.218 21.4164C204.996 21.1945 204.638 21.1945 204.416 21.4164C204.194 21.6382 204.194 21.9966 204.416 22.2184L207.198 25L204.416 27.7816C204.194 28.0034 204.194 28.3618 204.416 28.5836C204.638 28.8055 204.996 28.8055 205.218 28.5836L208 25.802L210.781 28.5836C211.003 28.8055 211.362 28.8055 211.583 28.5836C211.805 28.3618 211.805 28.0034 211.583 27.7816L208.802 25L211.583 22.2184C211.8 22.0023 211.8 21.6382 211.583 21.4221Z" fill="#3C4043"/>
<path fill-rule="evenodd" clip-rule="evenodd" d="M231 42C229.615 41.0588 226.384 40.5882 225 34C225 34 225 42 225 42H231Z" fill="white"/>
<path fill-rule="evenodd" clip-rule="evenodd" d="M254.714 25.9524H249.952V30.7143C249.952 31.2381 249.524 31.6667 249 31.6667C248.476 31.6667 248.047 31.2381 248.047 30.7143V25.9524H243.286C242.762 25.9524 242.333 25.5238 242.333 25C242.333 24.4762 242.762 24.0476 243.286 24.0476H248.047V19.2857C248.047 18.7619 248.476 18.3333 249 18.3333C249.524 18.3333 249.952 18.7619 249.952 19.2857V24.0476H254.714C255.238 24.0476 255.667 24.4762 255.667 25C255.667 25.5238 255.238 25.9524 254.714 25.9524Z" fill="#949CAD"/>
<circle cx="59" cy="21.5" r="5.75" fill="#BDC2C7" stroke="#BDC2C7" stroke-width="0.5"/>
<circle cx="39" cy="21.5" r="5.75" fill="#BDC2C7" stroke="#BDC2C7" stroke-width="0.5"/>
<circle cx="19" cy="21.5" r="5.75" fill="#BDC2C7" stroke="#BDC2C7" stroke-width="0.5"/>
</g>
<defs>
<filter id="filter0_i" x="0" y="42" width="1440" height="38" filterUnits="userSpaceOnUse" color-interpolation-filters="sRGB">
<feFlood flood-opacity="0" result="BackgroundImageFix"/>
<feBlend mode="normal" in="SourceGraphic" in2="BackgroundImageFix" result="shape"/>
<feColorMatrix in="SourceAlpha" type="matrix" values="0 0 0 0 0 0 0 0 0 0 0 0 0 0 0 0 0 0 127 0" result="hardAlpha"/>
<feOffset dy="-1"/>
<feComposite in2="hardAlpha" operator="arithmetic" k2="-1" k3="1"/>
<feColorMatrix type="matrix" values="0 0 0 0 0.854902 0 0 0 0 0.862745 0 0 0 0 0.878431 0 0 0 1 0"/>
<feBlend mode="normal" in2="shape" result="effect1_innerShadow"/>
</filter>
<clipPath id="clip0">
<rect width="269" height="50" rx="4" fill="white"/>
</clipPath>
</defs>
</svg>
