<svg width="12" height="8" viewBox="0 0 12 8" fill="none" xmlns="http://www.w3.org/2000/svg">
<path fill-rule="evenodd" clip-rule="evenodd" d="M1 7.00005V1.55505L4.5975 4.50005C5.00375 4.83255 5.50175 4.99755 6 4.99755C6.49825 4.99755 6.99625 4.83255 7.40275 4.50005L11 1.55505V7.00005H1ZM10.0993 1L6.76951 3.725C6.32351 4.09 5.67651 4.09 5.23051 3.725L1.90076 1H10.0993ZM11.9978 0.48C11.997 0.46 11.995 0.4425 11.9925 0.425C11.99 0.41 11.9875 0.395 11.984 0.38C11.9798 0.365 11.9745 0.3475 11.969 0.3325C11.9635 0.3175 11.9578 0.3025 11.9508 0.2875C11.944 0.2725 11.9365 0.26 11.9283 0.245C11.9193 0.23 11.9097 0.215 11.8993 0.2025C11.8947 0.195 11.8918 0.19 11.887 0.1825C11.8818 0.1775 11.8755 0.1725 11.87 0.1675C11.8585 0.155 11.8462 0.1425 11.8333 0.13C11.8212 0.12 11.809 0.11 11.7963 0.1C11.7833 0.09 11.7703 0.0825 11.7565 0.0725C11.742 0.065 11.7278 0.0575 11.7128 0.05C11.6988 0.0425 11.6842 0.0375 11.6698 0.0325C11.6535 0.0275 11.6375 0.02 11.621 0.0175C11.6065 0.0125 11.592 0.01 11.577 0.0075C11.5587 0.005 11.5408 0.0025 11.5223 0.0025C11.5148 0.0025 11.5077 0 11.5 0H0.5C0.49225 0 0.48525 0.0025 0.47775 0.0025C0.45925 0.0025 0.441 0.005 0.42275 0.0075C0.408 0.01 0.3935 0.0125 0.37925 0.0175C0.36225 0.02 0.346 0.0275 0.32975 0.0325C0.3155 0.0375 0.3015 0.0425 0.28775 0.05C0.27225 0.0575 0.2575 0.065 0.243 0.0725C0.2295 0.0825 0.21675 0.09 0.20425 0.1C0.19125 0.11 0.17875 0.12 0.1665 0.13C0.15375 0.1425 0.1415 0.155 0.13 0.1675C0.12475 0.1725 0.11825 0.1775 0.113 0.1825C0.10825 0.19 0.10525 0.195 0.10075 0.2025C0.09025 0.215 0.08075 0.23 0.07175 0.245C0.0635 0.26 0.056 0.2725 0.04925 0.2875C0.04225 0.3025 0.0365 0.3175 0.031 0.3325C0.0255 0.3475 0.02025 0.365 0.016 0.38C0.0125 0.395 0.01 0.41 0.0075 0.425C0.005 0.4425 0.003 0.46 0.00225 0.48C0.00175 0.485 0 0.4925 0 0.5V7.5C0 7.7775 0.224 8 0.5 8H11.5C11.776 8 12 7.7775 12 7.5V0.5C12 0.4925 11.9983 0.485 11.9978 0.48Z" fill="#333333"/>
</svg>
