<svg width="9" height="8" viewBox="0 0 9 8" fill="none" xmlns="http://www.w3.org/2000/svg">
<path d="M8.66177 0.89938L8.42079 0.712172C8.02077 0.401343 7.41966 0.43599 7.06649 0.790112L3.03509 4.83202L1.81819 3.88433C1.41859 3.57316 0.817391 3.60711 0.463802 3.96085L0.250728 4.17404C0.0779335 4.34683 -0.0117851 4.57476 0.00124423 4.80758C0.014402 5.04027 0.129206 5.25872 0.32059 5.4149L2.55122 7.26194C2.74435 7.42594 3.00317 7.51146 3.26772 7.49876C3.53227 7.4861 3.77961 7.3762 3.95242 7.19462L8.7649 2.13842C8.93304 1.96176 9.01663 1.73198 8.99725 1.49963C8.97789 1.26713 8.85725 1.05124 8.66177 0.89938Z" fill="white"/>
</svg>
