<svg width="8" height="8" viewBox="0 0 8 8" fill="none" xmlns="http://www.w3.org/2000/svg">
<circle cx="4" cy="4" r="4" fill="#173BEF"/>
<path d="M5.84968 2.22822L5.74257 2.12124C5.56479 1.94362 5.29763 1.96342 5.14066 2.16578L3.34893 4.47544L2.80808 3.93391C2.63049 3.75609 2.36329 3.77549 2.20613 3.97763L2.11143 4.09945C2.03464 4.19819 1.99476 4.32843 2.00055 4.46147C2.0064 4.59444 2.05743 4.71927 2.14248 4.80852L3.13388 5.86397C3.21971 5.95768 3.33474 6.00655 3.45232 5.99929C3.5699 5.99206 3.67983 5.92926 3.75663 5.8255L5.89551 2.93624C5.97024 2.83529 6.00739 2.70399 5.99878 2.57122C5.99017 2.43836 5.93655 2.315 5.84968 2.22822Z" fill="white"/>
</svg>
