<svg width="56" height="12" viewBox="0 0 56 12" fill="none" xmlns="http://www.w3.org/2000/svg">
    <path d="M19.7671 8.06661C19.136 8.06661 18.6404 7.91327 18.2804 7.6066C17.9248 7.29994 17.7471 6.83994 17.7471 6.2266V3.5066C17.7471 3.45771 17.7626 3.41771 17.7937 3.3866C17.8248 3.35105 17.8648 3.33327 17.9137 3.33327H18.8271C18.876 3.33327 18.916 3.35105 18.9471 3.3866C18.9826 3.41771 19.0004 3.45771 19.0004 3.5066V6.21327C19.0004 6.48883 19.0648 6.69549 19.1937 6.83327C19.3271 6.97105 19.516 7.03994 19.7604 7.03994C20.0048 7.03994 20.1915 6.97105 20.3204 6.83327C20.4537 6.69105 20.5204 6.48438 20.5204 6.21327V3.5066C20.5204 3.45771 20.536 3.41771 20.5671 3.3866C20.6026 3.35105 20.6448 3.33327 20.6937 3.33327H21.6004C21.6493 3.33327 21.6893 3.35105 21.7204 3.3866C21.756 3.41771 21.7737 3.45771 21.7737 3.5066V6.2266C21.7737 6.83994 21.596 7.29994 21.2404 7.6066C20.8849 7.91327 20.3937 8.06661 19.7671 8.06661Z" fill="black"/>
    <path d="M23.004 7.99994C22.9596 7.99994 22.9196 7.98438 22.884 7.95327C22.8529 7.91772 22.8373 7.87772 22.8373 7.83327V3.5066C22.8373 3.45771 22.8529 3.41771 22.884 3.3866C22.9151 3.35105 22.9551 3.33327 23.004 3.33327H24.8907C25.4684 3.33327 25.9218 3.46438 26.2507 3.7266C26.5796 3.98882 26.744 4.37327 26.744 4.87994C26.744 5.3866 26.5796 5.7666 26.2507 6.01994C25.9218 6.26883 25.4684 6.39327 24.8907 6.39327H24.1307V7.83327C24.1307 7.87772 24.1151 7.91772 24.084 7.95327C24.0529 7.98438 24.0129 7.99994 23.964 7.99994H23.004ZM24.8573 5.43994C25.0396 5.43994 25.1818 5.39327 25.284 5.29994C25.3907 5.20216 25.444 5.05994 25.444 4.87327C25.444 4.69994 25.3951 4.55994 25.2973 4.45327C25.204 4.3466 25.0573 4.29327 24.8573 4.29327H24.1107V5.43994H24.8573Z" fill="black"/>
    <path d="M27.7287 7.99994C27.6843 7.99994 27.6443 7.98438 27.6087 7.95327C27.5776 7.91772 27.5621 7.87772 27.5621 7.83327V3.49994C27.5621 3.45105 27.5776 3.41105 27.6087 3.37994C27.6443 3.34882 27.6843 3.33327 27.7287 3.33327H28.6621C28.711 3.33327 28.751 3.34882 28.7821 3.37994C28.8132 3.41105 28.8287 3.45105 28.8287 3.49994V6.95327H30.8287C30.8776 6.95327 30.9176 6.97105 30.9487 7.0066C30.9843 7.03772 31.0021 7.07772 31.0021 7.1266V7.83327C31.0021 7.88216 30.9843 7.92216 30.9487 7.95327C30.9176 7.98438 30.8776 7.99994 30.8287 7.99994H27.7287Z" fill="black"/>
    <path d="M31.4995 7.99994C31.4639 7.99994 31.4306 7.9866 31.3995 7.95994C31.3728 7.92883 31.3595 7.89549 31.3595 7.85994C31.3595 7.83327 31.3617 7.81327 31.3661 7.79994L32.9195 3.5266C32.9639 3.39771 33.0528 3.33327 33.1861 3.33327H34.2261C34.3595 3.33327 34.4484 3.39771 34.4928 3.5266L36.0461 7.79994C36.0506 7.81327 36.0528 7.83327 36.0528 7.85994C36.0528 7.89549 36.0373 7.92883 36.0061 7.95994C35.9795 7.9866 35.9484 7.99994 35.9128 7.99994H35.0461C34.9395 7.99994 34.8639 7.95105 34.8195 7.85327L34.5795 7.2066H32.8328L32.5928 7.85327C32.5484 7.95105 32.4728 7.99994 32.3661 7.99994H31.4995ZM33.1128 6.2066H34.2995L33.7061 4.5066L33.1128 6.2066Z" fill="black"/>
    <path d="M38.627 8.06661C37.9959 8.06661 37.5003 7.91327 37.1403 7.6066C36.7848 7.29994 36.607 6.83994 36.607 6.2266V3.5066C36.607 3.45771 36.6225 3.41771 36.6536 3.3866C36.6848 3.35105 36.7248 3.33327 36.7736 3.33327H37.687C37.7359 3.33327 37.7759 3.35105 37.807 3.3866C37.8425 3.41771 37.8603 3.45771 37.8603 3.5066V6.21327C37.8603 6.48883 37.9248 6.69549 38.0536 6.83327C38.187 6.97105 38.3759 7.03994 38.6203 7.03994C38.8648 7.03994 39.0514 6.97105 39.1803 6.83327C39.3136 6.69105 39.3803 6.48438 39.3803 6.21327V3.5066C39.3803 3.45771 39.3959 3.41771 39.427 3.3866C39.4625 3.35105 39.5048 3.33327 39.5536 3.33327H40.4603C40.5092 3.33327 40.5492 3.35105 40.5803 3.3866C40.6159 3.41771 40.6336 3.45771 40.6336 3.5066V6.2266C40.6336 6.83994 40.4559 7.29994 40.1003 7.6066C39.7448 7.91327 39.2536 8.06661 38.627 8.06661Z" fill="black"/>
    <path d="M41.8639 7.99994C41.8195 7.99994 41.7795 7.98438 41.7439 7.95327C41.7128 7.91772 41.6972 7.87772 41.6972 7.83327V3.5066C41.6972 3.45771 41.7128 3.41771 41.7439 3.3866C41.775 3.35105 41.815 3.33327 41.8639 3.33327H42.6172C42.7195 3.33327 42.795 3.37549 42.8439 3.45993L44.4172 5.9466V3.5066C44.4172 3.45771 44.4328 3.41771 44.4639 3.3866C44.495 3.35105 44.535 3.33327 44.5839 3.33327H45.4306C45.4795 3.33327 45.5195 3.35105 45.5506 3.3866C45.5817 3.41771 45.5972 3.45771 45.5972 3.5066V7.8266C45.5972 7.87549 45.5817 7.91772 45.5506 7.95327C45.5195 7.98438 45.4795 7.99994 45.4306 7.99994H44.6772C44.575 7.99994 44.4995 7.95772 44.4506 7.87327L42.8839 5.4866V7.83327C42.8839 7.88216 42.8661 7.92216 42.8306 7.95327C42.7995 7.98438 42.7595 7.99994 42.7106 7.99994H41.8639Z" fill="black"/>
    <path d="M48.6353 8.06661C47.9997 8.06661 47.4997 7.91327 47.1353 7.6066C46.7753 7.29994 46.5842 6.85105 46.5619 6.25994C46.5575 6.13994 46.5553 5.94438 46.5553 5.67327C46.5553 5.39771 46.5575 5.19771 46.5619 5.07327C46.5842 4.49549 46.7775 4.05105 47.1419 3.73994C47.5108 3.42438 48.0086 3.2666 48.6353 3.2666C49.0308 3.2666 49.3842 3.33105 49.6953 3.45993C50.0108 3.58882 50.2597 3.77549 50.4419 4.01994C50.6242 4.26438 50.7197 4.55327 50.7286 4.8866C50.7286 4.9266 50.713 4.95994 50.6819 4.9866C50.6553 5.01327 50.6219 5.0266 50.5819 5.0266H49.6353C49.573 5.0266 49.5264 5.01549 49.4953 4.99327C49.4686 4.9666 49.4442 4.91994 49.4219 4.85327C49.3597 4.63549 49.2642 4.48438 49.1353 4.39994C49.0108 4.31105 48.8442 4.2666 48.6353 4.2666C48.133 4.2666 47.873 4.5466 47.8553 5.1066C47.8508 5.2266 47.8486 5.41105 47.8486 5.65994C47.8486 5.90883 47.8508 6.09771 47.8553 6.2266C47.873 6.7866 48.133 7.0666 48.6353 7.0666C48.8397 7.0666 49.0064 7.02216 49.1353 6.93327C49.2686 6.84438 49.3642 6.69327 49.4219 6.47994C49.4397 6.41327 49.4642 6.36883 49.4953 6.3466C49.5264 6.31994 49.573 6.3066 49.6353 6.3066H50.5819C50.6219 6.3066 50.6553 6.31994 50.6819 6.3466C50.713 6.37327 50.7286 6.4066 50.7286 6.4466C50.7197 6.77994 50.6242 7.06883 50.4419 7.31327C50.2597 7.55772 50.0108 7.74438 49.6953 7.87327C49.3842 8.00216 49.0308 8.06661 48.6353 8.06661Z" fill="black"/>
    <path d="M51.7756 7.99994C51.7267 7.99994 51.6867 7.98438 51.6556 7.95327C51.6245 7.92216 51.609 7.88216 51.609 7.83327V3.5066C51.609 3.45771 51.6245 3.41771 51.6556 3.3866C51.6867 3.35105 51.7267 3.33327 51.7756 3.33327H52.689C52.7379 3.33327 52.7779 3.35105 52.809 3.3866C52.8445 3.41771 52.8623 3.45771 52.8623 3.5066V5.0866H54.4356V3.5066C54.4356 3.45771 54.4512 3.41771 54.4823 3.3866C54.5179 3.35105 54.5601 3.33327 54.609 3.33327H55.5156C55.5645 3.33327 55.6045 3.35105 55.6356 3.3866C55.6712 3.41771 55.689 3.45771 55.689 3.5066V7.83327C55.689 7.88216 55.6712 7.92216 55.6356 7.95327C55.6045 7.98438 55.5645 7.99994 55.5156 7.99994H54.609C54.5601 7.99994 54.5179 7.98438 54.4823 7.95327C54.4512 7.92216 54.4356 7.88216 54.4356 7.83327V6.19994H52.8623V7.83327C52.8623 7.88216 52.8445 7.92216 52.809 7.95327C52.7779 7.98438 52.7379 7.99994 52.689 7.99994H51.7756Z" fill="black"/>
    <path d="M4.18734 12C6.49994 12 8.37467 10.1253 8.37467 7.81266C8.37467 5.50005 6.49994 3.62532 4.18734 3.62532C1.87473 3.62532 0 5.50005 0 7.81266C0 10.1253 1.87473 12 4.18734 12Z" fill="#173BEF"/>
    <path fill-rule="evenodd" clip-rule="evenodd" d="M9.3012 0L14.4572 7.86H4.14453L9.3012 0Z" fill="#ADBBFF"/>
</svg>