<svg width="14" height="14" viewBox="0 0 14 14" fill="none" xmlns="http://www.w3.org/2000/svg">
<path d="M4.94118 7.41211H0.823529C0.368707 7.41211 0 7.78082 0 8.23564V12.3533C0 12.8081 0.368707 13.1768 0.823529 13.1768H4.94118C5.396 13.1768 5.76471 12.8081 5.76471 12.3533V8.23564C5.76471 7.78082 5.396 7.41211 4.94118 7.41211Z" fill="#BDC2C7"/>
<path opacity="0.6" d="M9.05836 3.29395H4.94072C4.48589 3.29395 4.11719 3.66265 4.11719 4.11747V8.23512C4.11719 8.68995 4.48589 9.05865 4.94072 9.05865H9.05836C9.51319 9.05865 9.88189 8.68995 9.88189 8.23512V4.11747C9.88189 3.66265 9.51319 3.29395 9.05836 3.29395Z" fill="#BDC2C7"/>
<path d="M13.1756 0H9.0579C8.60308 0 8.23438 0.368707 8.23438 0.823529V4.94118C8.23438 5.396 8.60308 5.76471 9.0579 5.76471H13.1756C13.6304 5.76471 13.9991 5.396 13.9991 4.94118V0.823529C13.9991 0.368707 13.6304 0 13.1756 0Z" fill="#BDC2C7"/>
</svg>
