<svg class="arrows_icon" width="10" height="14" viewBox="0 0 10 14" fill="none" xmlns="http://www.w3.org/2000/svg">
<path d="M9.89768 8.63244C9.75986 8.49142 9.53589 8.49142 9.39806 8.63244L5.00483 13.1363L0.602992 8.63244C0.465165 8.49142 0.241197 8.49142 0.10337 8.63244C-0.0344567 8.77346 -0.0344567 9.00261 0.10337 9.14363L4.74641 13.8942C4.81532 13.9647 4.90146 14 4.99622 14C5.08236 14 5.17712 13.9647 5.24603 13.8942L9.88907 9.14363C10.0355 9.00261 10.0355 8.77346 9.89768 8.63244Z"/>
<path d="M9.89768 5.36756C9.75986 5.50858 9.53589 5.50858 9.39806 5.36756L5.00483 0.863746L0.602992 5.36756C0.465165 5.50858 0.241197 5.50858 0.10337 5.36756C-0.0344567 5.22654 -0.0344567 4.99739 0.10337 4.85637L4.74641 0.105765C4.81532 0.0352547 4.90146 0 4.99622 0C5.08236 0 5.17712 0.0352547 5.24603 0.105765L9.88907 4.85637C10.0355 4.99739 10.0355 5.22654 9.89768 5.36756Z"/>
</svg>
