<svg width="22" height="18" viewBox="0 0 22 18" fill="none" xmlns="http://www.w3.org/2000/svg">
    <path d="M0.867341 0C0.387726 0 0 0.39427 0 0.878049V14.188C0 14.6718 0.387728 15.0767 0.867341 15.0767C7.59905 15.0767 14.3308 15.0767 21.0625 15.0767C21.5421 15.0767 21.9298 14.6718 21.9298 14.188V0.878049C21.9298 0.39427 21.5421 0 21.0625 0H0.867341ZM1.19929 1.19929H20.7305V11.8215H1.19929V1.19929ZM8.53421 15.4194C8.52926 15.7327 8.52563 16.0043 8.50208 16.1797C8.46385 16.4644 8.40552 16.6028 8.26651 16.7579C8.11826 16.9233 7.85857 17.1652 7.68828 17.3789C7.60314 17.4858 7.51558 17.5744 7.51695 17.7323C7.51764 17.8112 7.57311 17.9043 7.64545 17.9465C7.71779 17.9886 7.78898 18 7.87032 18H14.0595C14.1408 18 14.212 17.9887 14.2844 17.9465C14.3567 17.9043 14.4122 17.8112 14.4128 17.7323C14.4142 17.5744 14.3267 17.4858 14.2415 17.3789C14.0712 17.1652 13.8115 16.9233 13.6633 16.7579C13.5243 16.6028 13.466 16.4644 13.4277 16.1797C13.4042 16.0043 13.4005 15.7327 13.3956 15.4194H8.53421Z" fill="black"/>
</svg>