<svg width="175" height="175" viewBox="0 0 175 175" fill="none" xmlns="http://www.w3.org/2000/svg">
<g opacity="0.8">
<path d="M4 2C4 3.10457 3.10457 4 2 4C0.89543 4 0 3.10457 0 2C0 0.89543 0.89543 0 2 0C3.10457 0 4 0.89543 4 2Z" fill="#CADBED"/>
<path d="M23 2C23 3.10457 22.1046 4 21 4C19.8954 4 19 3.10457 19 2C19 0.89543 19.8954 0 21 0C22.1046 0 23 0.89543 23 2Z" fill="#CADBED"/>
<path d="M42 2C42 3.10457 41.1046 4 40 4C38.8954 4 38 3.10457 38 2C38 0.89543 38.8954 0 40 0C41.1046 0 42 0.89543 42 2Z" fill="#CADBED"/>
<path d="M61 2C61 3.10457 60.1046 4 59 4C57.8954 4 57 3.10457 57 2C57 0.89543 57.8954 0 59 0C60.1046 0 61 0.89543 61 2Z" fill="#CADBED"/>
<path d="M80 2C80 3.10457 79.1046 4 78 4C76.8954 4 76 3.10457 76 2C76 0.89543 76.8954 0 78 0C79.1046 0 80 0.89543 80 2Z" fill="#CADBED"/>
<path d="M99 2C99 3.10457 98.1046 4 97 4C95.8954 4 95 3.10457 95 2C95 0.89543 95.8954 0 97 0C98.1046 0 99 0.89543 99 2Z" fill="#CADBED"/>
<path d="M118 2C118 3.10457 117.105 4 116 4C114.895 4 114 3.10457 114 2C114 0.89543 114.895 0 116 0C117.105 0 118 0.89543 118 2Z" fill="#CADBED"/>
<path d="M137 2C137 3.10457 136.105 4 135 4C133.895 4 133 3.10457 133 2C133 0.89543 133.895 0 135 0C136.105 0 137 0.89543 137 2Z" fill="#CADBED"/>
<path d="M156 2C156 3.10457 155.105 4 154 4C152.895 4 152 3.10457 152 2C152 0.89543 152.895 0 154 0C155.105 0 156 0.89543 156 2Z" fill="#CADBED"/>
<path d="M175 2C175 3.10457 174.105 4 173 4C171.895 4 171 3.10457 171 2C171 0.89543 171.895 0 173 0C174.105 0 175 0.89543 175 2Z" fill="#CADBED"/>
<path d="M4 21C4 22.1046 3.10457 23 2 23C0.89543 23 0 22.1046 0 21C0 19.8954 0.89543 19 2 19C3.10457 19 4 19.8954 4 21Z" fill="#CADBED"/>
<path d="M23 21C23 22.1046 22.1046 23 21 23C19.8954 23 19 22.1046 19 21C19 19.8954 19.8954 19 21 19C22.1046 19 23 19.8954 23 21Z" fill="#CADBED"/>
<path d="M42 21C42 22.1046 41.1046 23 40 23C38.8954 23 38 22.1046 38 21C38 19.8954 38.8954 19 40 19C41.1046 19 42 19.8954 42 21Z" fill="#CADBED"/>
<path d="M61 21C61 22.1046 60.1046 23 59 23C57.8954 23 57 22.1046 57 21C57 19.8954 57.8954 19 59 19C60.1046 19 61 19.8954 61 21Z" fill="#CADBED"/>
<path d="M80 21C80 22.1046 79.1046 23 78 23C76.8954 23 76 22.1046 76 21C76 19.8954 76.8954 19 78 19C79.1046 19 80 19.8954 80 21Z" fill="#CADBED"/>
<path d="M99 21C99 22.1046 98.1046 23 97 23C95.8954 23 95 22.1046 95 21C95 19.8954 95.8954 19 97 19C98.1046 19 99 19.8954 99 21Z" fill="#CADBED"/>
<path d="M118 21C118 22.1046 117.105 23 116 23C114.895 23 114 22.1046 114 21C114 19.8954 114.895 19 116 19C117.105 19 118 19.8954 118 21Z" fill="#CADBED"/>
<path d="M137 21C137 22.1046 136.105 23 135 23C133.895 23 133 22.1046 133 21C133 19.8954 133.895 19 135 19C136.105 19 137 19.8954 137 21Z" fill="#CADBED"/>
<path d="M156 21C156 22.1046 155.105 23 154 23C152.895 23 152 22.1046 152 21C152 19.8954 152.895 19 154 19C155.105 19 156 19.8954 156 21Z" fill="#CADBED"/>
<path d="M175 21C175 22.1046 174.105 23 173 23C171.895 23 171 22.1046 171 21C171 19.8954 171.895 19 173 19C174.105 19 175 19.8954 175 21Z" fill="#CADBED"/>
<path d="M4 40C4 41.1046 3.10457 42 2 42C0.89543 42 0 41.1046 0 40C0 38.8954 0.89543 38 2 38C3.10457 38 4 38.8954 4 40Z" fill="#CADBED"/>
<path d="M23 40C23 41.1046 22.1046 42 21 42C19.8954 42 19 41.1046 19 40C19 38.8954 19.8954 38 21 38C22.1046 38 23 38.8954 23 40Z" fill="#CADBED"/>
<path d="M42 40C42 41.1046 41.1046 42 40 42C38.8954 42 38 41.1046 38 40C38 38.8954 38.8954 38 40 38C41.1046 38 42 38.8954 42 40Z" fill="#CADBED"/>
<path d="M61 40C61 41.1046 60.1046 42 59 42C57.8954 42 57 41.1046 57 40C57 38.8954 57.8954 38 59 38C60.1046 38 61 38.8954 61 40Z" fill="#CADBED"/>
<path d="M80 40C80 41.1046 79.1046 42 78 42C76.8954 42 76 41.1046 76 40C76 38.8954 76.8954 38 78 38C79.1046 38 80 38.8954 80 40Z" fill="#CADBED"/>
<path d="M99 40C99 41.1046 98.1046 42 97 42C95.8954 42 95 41.1046 95 40C95 38.8954 95.8954 38 97 38C98.1046 38 99 38.8954 99 40Z" fill="#CADBED"/>
<path d="M118 40C118 41.1046 117.105 42 116 42C114.895 42 114 41.1046 114 40C114 38.8954 114.895 38 116 38C117.105 38 118 38.8954 118 40Z" fill="#CADBED"/>
<path d="M137 40C137 41.1046 136.105 42 135 42C133.895 42 133 41.1046 133 40C133 38.8954 133.895 38 135 38C136.105 38 137 38.8954 137 40Z" fill="#CADBED"/>
<path d="M156 40C156 41.1046 155.105 42 154 42C152.895 42 152 41.1046 152 40C152 38.8954 152.895 38 154 38C155.105 38 156 38.8954 156 40Z" fill="#CADBED"/>
<path d="M175 40C175 41.1046 174.105 42 173 42C171.895 42 171 41.1046 171 40C171 38.8954 171.895 38 173 38C174.105 38 175 38.8954 175 40Z" fill="#CADBED"/>
<path d="M4 59C4 60.1046 3.10457 61 2 61C0.89543 61 0 60.1046 0 59C0 57.8954 0.89543 57 2 57C3.10457 57 4 57.8954 4 59Z" fill="#CADBED"/>
<path d="M23 59C23 60.1046 22.1046 61 21 61C19.8954 61 19 60.1046 19 59C19 57.8954 19.8954 57 21 57C22.1046 57 23 57.8954 23 59Z" fill="#CADBED"/>
<path d="M42 59C42 60.1046 41.1046 61 40 61C38.8954 61 38 60.1046 38 59C38 57.8954 38.8954 57 40 57C41.1046 57 42 57.8954 42 59Z" fill="#CADBED"/>
<path d="M61 59C61 60.1046 60.1046 61 59 61C57.8954 61 57 60.1046 57 59C57 57.8954 57.8954 57 59 57C60.1046 57 61 57.8954 61 59Z" fill="#CADBED"/>
<path d="M80 59C80 60.1046 79.1046 61 78 61C76.8954 61 76 60.1046 76 59C76 57.8954 76.8954 57 78 57C79.1046 57 80 57.8954 80 59Z" fill="#CADBED"/>
<path d="M99 59C99 60.1046 98.1046 61 97 61C95.8954 61 95 60.1046 95 59C95 57.8954 95.8954 57 97 57C98.1046 57 99 57.8954 99 59Z" fill="#CADBED"/>
<path d="M118 59C118 60.1046 117.105 61 116 61C114.895 61 114 60.1046 114 59C114 57.8954 114.895 57 116 57C117.105 57 118 57.8954 118 59Z" fill="#CADBED"/>
<path d="M137 59C137 60.1046 136.105 61 135 61C133.895 61 133 60.1046 133 59C133 57.8954 133.895 57 135 57C136.105 57 137 57.8954 137 59Z" fill="#CADBED"/>
<path d="M156 59C156 60.1046 155.105 61 154 61C152.895 61 152 60.1046 152 59C152 57.8954 152.895 57 154 57C155.105 57 156 57.8954 156 59Z" fill="#CADBED"/>
<path d="M175 59C175 60.1046 174.105 61 173 61C171.895 61 171 60.1046 171 59C171 57.8954 171.895 57 173 57C174.105 57 175 57.8954 175 59Z" fill="#CADBED"/>
<path d="M4 78C4 79.1046 3.10457 80 2 80C0.89543 80 0 79.1046 0 78C0 76.8954 0.89543 76 2 76C3.10457 76 4 76.8954 4 78Z" fill="#CADBED"/>
<path d="M23 78C23 79.1046 22.1046 80 21 80C19.8954 80 19 79.1046 19 78C19 76.8954 19.8954 76 21 76C22.1046 76 23 76.8954 23 78Z" fill="#CADBED"/>
<path d="M42 78C42 79.1046 41.1046 80 40 80C38.8954 80 38 79.1046 38 78C38 76.8954 38.8954 76 40 76C41.1046 76 42 76.8954 42 78Z" fill="#CADBED"/>
<path d="M61 78C61 79.1046 60.1046 80 59 80C57.8954 80 57 79.1046 57 78C57 76.8954 57.8954 76 59 76C60.1046 76 61 76.8954 61 78Z" fill="#CADBED"/>
<path d="M80 78C80 79.1046 79.1046 80 78 80C76.8954 80 76 79.1046 76 78C76 76.8954 76.8954 76 78 76C79.1046 76 80 76.8954 80 78Z" fill="#CADBED"/>
<path d="M99 78C99 79.1046 98.1046 80 97 80C95.8954 80 95 79.1046 95 78C95 76.8954 95.8954 76 97 76C98.1046 76 99 76.8954 99 78Z" fill="#CADBED"/>
<path d="M118 78C118 79.1046 117.105 80 116 80C114.895 80 114 79.1046 114 78C114 76.8954 114.895 76 116 76C117.105 76 118 76.8954 118 78Z" fill="#CADBED"/>
<path d="M137 78C137 79.1046 136.105 80 135 80C133.895 80 133 79.1046 133 78C133 76.8954 133.895 76 135 76C136.105 76 137 76.8954 137 78Z" fill="#CADBED"/>
<path d="M156 78C156 79.1046 155.105 80 154 80C152.895 80 152 79.1046 152 78C152 76.8954 152.895 76 154 76C155.105 76 156 76.8954 156 78Z" fill="#CADBED"/>
<path d="M175 78C175 79.1046 174.105 80 173 80C171.895 80 171 79.1046 171 78C171 76.8954 171.895 76 173 76C174.105 76 175 76.8954 175 78Z" fill="#CADBED"/>
<path d="M4 97C4 98.1046 3.10457 99 2 99C0.89543 99 0 98.1046 0 97C0 95.8954 0.89543 95 2 95C3.10457 95 4 95.8954 4 97Z" fill="#CADBED"/>
<path d="M23 97C23 98.1046 22.1046 99 21 99C19.8954 99 19 98.1046 19 97C19 95.8954 19.8954 95 21 95C22.1046 95 23 95.8954 23 97Z" fill="#CADBED"/>
<path d="M42 97C42 98.1046 41.1046 99 40 99C38.8954 99 38 98.1046 38 97C38 95.8954 38.8954 95 40 95C41.1046 95 42 95.8954 42 97Z" fill="#CADBED"/>
<path d="M61 97C61 98.1046 60.1046 99 59 99C57.8954 99 57 98.1046 57 97C57 95.8954 57.8954 95 59 95C60.1046 95 61 95.8954 61 97Z" fill="#CADBED"/>
<path d="M80 97C80 98.1046 79.1046 99 78 99C76.8954 99 76 98.1046 76 97C76 95.8954 76.8954 95 78 95C79.1046 95 80 95.8954 80 97Z" fill="#CADBED"/>
<path d="M99 97C99 98.1046 98.1046 99 97 99C95.8954 99 95 98.1046 95 97C95 95.8954 95.8954 95 97 95C98.1046 95 99 95.8954 99 97Z" fill="#CADBED"/>
<path d="M118 97C118 98.1046 117.105 99 116 99C114.895 99 114 98.1046 114 97C114 95.8954 114.895 95 116 95C117.105 95 118 95.8954 118 97Z" fill="#CADBED"/>
<path d="M137 97C137 98.1046 136.105 99 135 99C133.895 99 133 98.1046 133 97C133 95.8954 133.895 95 135 95C136.105 95 137 95.8954 137 97Z" fill="#CADBED"/>
<path d="M156 97C156 98.1046 155.105 99 154 99C152.895 99 152 98.1046 152 97C152 95.8954 152.895 95 154 95C155.105 95 156 95.8954 156 97Z" fill="#CADBED"/>
<path d="M175 97C175 98.1046 174.105 99 173 99C171.895 99 171 98.1046 171 97C171 95.8954 171.895 95 173 95C174.105 95 175 95.8954 175 97Z" fill="#CADBED"/>
<path d="M4 116C4 117.105 3.10457 118 2 118C0.89543 118 0 117.105 0 116C0 114.895 0.89543 114 2 114C3.10457 114 4 114.895 4 116Z" fill="#CADBED"/>
<path d="M23 116C23 117.105 22.1046 118 21 118C19.8954 118 19 117.105 19 116C19 114.895 19.8954 114 21 114C22.1046 114 23 114.895 23 116Z" fill="#CADBED"/>
<path d="M42 116C42 117.105 41.1046 118 40 118C38.8954 118 38 117.105 38 116C38 114.895 38.8954 114 40 114C41.1046 114 42 114.895 42 116Z" fill="#CADBED"/>
<path d="M61 116C61 117.105 60.1046 118 59 118C57.8954 118 57 117.105 57 116C57 114.895 57.8954 114 59 114C60.1046 114 61 114.895 61 116Z" fill="#CADBED"/>
<path d="M80 116C80 117.105 79.1046 118 78 118C76.8954 118 76 117.105 76 116C76 114.895 76.8954 114 78 114C79.1046 114 80 114.895 80 116Z" fill="#CADBED"/>
<path d="M99 116C99 117.105 98.1046 118 97 118C95.8954 118 95 117.105 95 116C95 114.895 95.8954 114 97 114C98.1046 114 99 114.895 99 116Z" fill="#CADBED"/>
<path d="M118 116C118 117.105 117.105 118 116 118C114.895 118 114 117.105 114 116C114 114.895 114.895 114 116 114C117.105 114 118 114.895 118 116Z" fill="#CADBED"/>
<path d="M137 116C137 117.105 136.105 118 135 118C133.895 118 133 117.105 133 116C133 114.895 133.895 114 135 114C136.105 114 137 114.895 137 116Z" fill="#CADBED"/>
<path d="M156 116C156 117.105 155.105 118 154 118C152.895 118 152 117.105 152 116C152 114.895 152.895 114 154 114C155.105 114 156 114.895 156 116Z" fill="#CADBED"/>
<path d="M175 116C175 117.105 174.105 118 173 118C171.895 118 171 117.105 171 116C171 114.895 171.895 114 173 114C174.105 114 175 114.895 175 116Z" fill="#CADBED"/>
<path d="M4 135C4 136.105 3.10457 137 2 137C0.89543 137 0 136.105 0 135C0 133.895 0.89543 133 2 133C3.10457 133 4 133.895 4 135Z" fill="#CADBED"/>
<path d="M23 135C23 136.105 22.1046 137 21 137C19.8954 137 19 136.105 19 135C19 133.895 19.8954 133 21 133C22.1046 133 23 133.895 23 135Z" fill="#CADBED"/>
<path d="M42 135C42 136.105 41.1046 137 40 137C38.8954 137 38 136.105 38 135C38 133.895 38.8954 133 40 133C41.1046 133 42 133.895 42 135Z" fill="#CADBED"/>
<path d="M61 135C61 136.105 60.1046 137 59 137C57.8954 137 57 136.105 57 135C57 133.895 57.8954 133 59 133C60.1046 133 61 133.895 61 135Z" fill="#CADBED"/>
<path d="M80 135C80 136.105 79.1046 137 78 137C76.8954 137 76 136.105 76 135C76 133.895 76.8954 133 78 133C79.1046 133 80 133.895 80 135Z" fill="#CADBED"/>
<path d="M99 135C99 136.105 98.1046 137 97 137C95.8954 137 95 136.105 95 135C95 133.895 95.8954 133 97 133C98.1046 133 99 133.895 99 135Z" fill="#CADBED"/>
<path d="M118 135C118 136.105 117.105 137 116 137C114.895 137 114 136.105 114 135C114 133.895 114.895 133 116 133C117.105 133 118 133.895 118 135Z" fill="#CADBED"/>
<path d="M137 135C137 136.105 136.105 137 135 137C133.895 137 133 136.105 133 135C133 133.895 133.895 133 135 133C136.105 133 137 133.895 137 135Z" fill="#CADBED"/>
<path d="M156 135C156 136.105 155.105 137 154 137C152.895 137 152 136.105 152 135C152 133.895 152.895 133 154 133C155.105 133 156 133.895 156 135Z" fill="#CADBED"/>
<path d="M175 135C175 136.105 174.105 137 173 137C171.895 137 171 136.105 171 135C171 133.895 171.895 133 173 133C174.105 133 175 133.895 175 135Z" fill="#CADBED"/>
<path d="M4 154C4 155.105 3.10457 156 2 156C0.89543 156 0 155.105 0 154C0 152.895 0.89543 152 2 152C3.10457 152 4 152.895 4 154Z" fill="#CADBED"/>
<path d="M23 154C23 155.105 22.1046 156 21 156C19.8954 156 19 155.105 19 154C19 152.895 19.8954 152 21 152C22.1046 152 23 152.895 23 154Z" fill="#CADBED"/>
<path d="M42 154C42 155.105 41.1046 156 40 156C38.8954 156 38 155.105 38 154C38 152.895 38.8954 152 40 152C41.1046 152 42 152.895 42 154Z" fill="#CADBED"/>
<path d="M61 154C61 155.105 60.1046 156 59 156C57.8954 156 57 155.105 57 154C57 152.895 57.8954 152 59 152C60.1046 152 61 152.895 61 154Z" fill="#CADBED"/>
<path d="M80 154C80 155.105 79.1046 156 78 156C76.8954 156 76 155.105 76 154C76 152.895 76.8954 152 78 152C79.1046 152 80 152.895 80 154Z" fill="#CADBED"/>
<path d="M99 154C99 155.105 98.1046 156 97 156C95.8954 156 95 155.105 95 154C95 152.895 95.8954 152 97 152C98.1046 152 99 152.895 99 154Z" fill="#CADBED"/>
<path d="M118 154C118 155.105 117.105 156 116 156C114.895 156 114 155.105 114 154C114 152.895 114.895 152 116 152C117.105 152 118 152.895 118 154Z" fill="#CADBED"/>
<path d="M137 154C137 155.105 136.105 156 135 156C133.895 156 133 155.105 133 154C133 152.895 133.895 152 135 152C136.105 152 137 152.895 137 154Z" fill="#CADBED"/>
<path d="M156 154C156 155.105 155.105 156 154 156C152.895 156 152 155.105 152 154C152 152.895 152.895 152 154 152C155.105 152 156 152.895 156 154Z" fill="#CADBED"/>
<path d="M175 154C175 155.105 174.105 156 173 156C171.895 156 171 155.105 171 154C171 152.895 171.895 152 173 152C174.105 152 175 152.895 175 154Z" fill="#CADBED"/>
<path d="M4 173C4 174.105 3.10457 175 2 175C0.89543 175 0 174.105 0 173C0 171.895 0.89543 171 2 171C3.10457 171 4 171.895 4 173Z" fill="#CADBED"/>
<path d="M23 173C23 174.105 22.1046 175 21 175C19.8954 175 19 174.105 19 173C19 171.895 19.8954 171 21 171C22.1046 171 23 171.895 23 173Z" fill="#CADBED"/>
<path d="M42 173C42 174.105 41.1046 175 40 175C38.8954 175 38 174.105 38 173C38 171.895 38.8954 171 40 171C41.1046 171 42 171.895 42 173Z" fill="#CADBED"/>
<path d="M61 173C61 174.105 60.1046 175 59 175C57.8954 175 57 174.105 57 173C57 171.895 57.8954 171 59 171C60.1046 171 61 171.895 61 173Z" fill="#CADBED"/>
<path d="M80 173C80 174.105 79.1046 175 78 175C76.8954 175 76 174.105 76 173C76 171.895 76.8954 171 78 171C79.1046 171 80 171.895 80 173Z" fill="#CADBED"/>
<path d="M99 173C99 174.105 98.1046 175 97 175C95.8954 175 95 174.105 95 173C95 171.895 95.8954 171 97 171C98.1046 171 99 171.895 99 173Z" fill="#CADBED"/>
<path d="M118 173C118 174.105 117.105 175 116 175C114.895 175 114 174.105 114 173C114 171.895 114.895 171 116 171C117.105 171 118 171.895 118 173Z" fill="#CADBED"/>
<path d="M137 173C137 174.105 136.105 175 135 175C133.895 175 133 174.105 133 173C133 171.895 133.895 171 135 171C136.105 171 137 171.895 137 173Z" fill="#CADBED"/>
<path d="M156 173C156 174.105 155.105 175 154 175C152.895 175 152 174.105 152 173C152 171.895 152.895 171 154 171C155.105 171 156 171.895 156 173Z" fill="#CADBED"/>
<path d="M175 173C175 174.105 174.105 175 173 175C171.895 175 171 174.105 171 173C171 171.895 171.895 171 173 171C174.105 171 175 171.895 175 173Z" fill="#CADBED"/>
</g>
</svg>
