<svg width="9" height="6" viewBox="0 0 9 6" fill="none" xmlns="http://www.w3.org/2000/svg">
<path d="M8.87742 2.68237L6.19917 0.117373C6.03577 -0.0391243 5.77075 -0.0391243 5.60735 0.117373C5.44391 0.273902 5.44391 0.527645 5.60735 0.684174L7.57121 2.56499H0.418476C0.187377 2.56499 0 2.74445 0 2.96578C0 3.18707 0.187377 3.36656 0.418476 3.36656H7.57121L5.60741 5.24738C5.44397 5.40391 5.44397 5.65765 5.60741 5.81418C5.6891 5.89238 5.79623 5.93156 5.90333 5.93156C6.01042 5.93156 6.11752 5.89238 6.19924 5.81418L8.87742 3.24918C9.04086 3.09265 9.04086 2.8389 8.87742 2.68237Z" fill="black"/>
</svg>
