<svg width="14" height="14" viewBox="0 0 14 14" fill="none" xmlns="http://www.w3.org/2000/svg">
<path fill-rule="evenodd" clip-rule="evenodd" d="M1.16667 1.16673V5.29501H5.29495V1.16673H1.16667ZM6.39934 0.626712C6.26095 0.260488 5.9071 6.00815e-05 5.49242 6.00815e-05H0.969194C0.433923 6.00815e-05 0 0.433983 0 0.969254V5.49248C0 5.90679 0.259963 6.26038 0.625669 6.39903C0.732443 6.43951 0.84823 6.46167 0.969194 6.46167H5.49242C5.61338 6.46167 5.72917 6.43951 5.83595 6.39903C6.09522 6.30073 6.30134 6.0944 6.39936 5.83499C6.4396 5.7285 6.46161 5.61306 6.46161 5.49248V0.969254C6.46161 0.969274 6.46161 0.969234 6.46161 0.969254C6.46161 0.848683 6.43958 0.733195 6.39934 0.626712ZM5.83595 7.60086C5.72917 7.56038 5.61338 7.53822 5.49242 7.53822H0.969194C0.84823 7.53822 0.732443 7.56038 0.625669 7.60086C0.259963 7.73952 0 8.0931 0 8.50741V13.0306C0 13.5659 0.433923 13.9998 0.969194 13.9998H5.49242C5.90709 13.9998 6.26093 13.7394 6.39933 13.3732C6.43956 13.2667 6.46159 13.1513 6.46161 13.0308C6.46161 13.0307 6.46161 13.0309 6.46161 13.0308V8.50758C6.46161 8.38701 6.4396 8.27142 6.39937 8.16494C6.30136 7.90551 6.09523 7.69917 5.83595 7.60086ZM7.60094 13.3733C7.73932 13.7395 8.09319 14 8.50789 14H13.0311C13.5664 14 14.0003 13.5661 14.0003 13.0308V8.50758C14.0003 8.09311 13.7401 7.73941 13.3742 7.60087C13.2676 7.56049 13.1519 7.53839 13.0311 7.53839H8.50789C8.38709 7.53839 8.27145 7.56049 8.16479 7.60087C7.90534 7.6991 7.69906 7.90548 7.60098 8.165C7.56075 8.27147 7.53872 8.38687 7.5387 8.50741C7.5387 8.50735 7.5387 8.50747 7.5387 8.50741V13.0306C7.5387 13.1512 7.56072 13.2668 7.60094 13.3733ZM8.16479 6.39913C8.27145 6.43951 8.38709 6.46161 8.50789 6.46161H13.0311C13.1519 6.46161 13.2676 6.43951 13.3742 6.39913C13.7401 6.26059 14.0003 5.90689 14.0003 5.49242V0.969194C14.0003 0.433923 13.5664 0 13.0311 0H8.50789C8.0932 0 7.73934 0.260445 7.60096 0.626688C7.56072 0.733179 7.5387 0.848615 7.5387 0.969194V5.49242C7.5387 5.4924 7.5387 5.49244 7.5387 5.49242C7.53871 5.61299 7.56073 5.72848 7.60097 5.83496C7.69905 6.0945 7.90533 6.3009 8.16479 6.39913ZM8.70537 1.16667V5.29495H12.8336V1.16667H8.70537ZM1.16667 8.70488V12.8332H5.29495V8.70488H1.16667ZM8.70537 8.70505V12.8333H12.8336V8.70505H8.70537Z" fill="#333333"/>
</svg>
