<svg width="16" height="16" viewBox="0 0 16 16" fill="none" xmlns="http://www.w3.org/2000/svg">
    <circle cx="8" cy="8" r="8" fill="#949CAD"/>
    <path transform="translate(4,4)" fill-rule="evenodd" clip-rule="evenodd"
          d="M7.50009 3.50004H4.50005V0.499993C4.50005 0.223849 4.2762 0 4.00006 0C3.72391 0 3.50006 0.223849 3.50006 0.499993V3.50001H0.500049C0.223905 3.50001 0 3.72386 0 4C0 4.27614 0.223905 4.49999 0.500049 4.49999H3.50006V7.50001C3.50006 7.77615 3.72391 8 4.00006 8C4.2762 8 4.50005 7.77615 4.50005 7.50001V4.49999H7.50009C7.77624 4.49999 8.00008 4.27612 8.00008 4C8.00011 3.72388 7.77624 3.50004 7.50009 3.50004Z"
          fill="white"/>
</svg>
