<svg viewBox="0 0 12 12" fill="none" xmlns="http://www.w3.org/2000/svg">
    <path d="M0.830737 0.5H4.70779C4.89045 0.5 5.03853 0.648076 5.03853 0.830737V4.70779C5.03853 4.89045 4.89045 5.03853 4.70779 5.03853H0.830737C0.648076 5.03853 0.5 4.89045 0.5 4.70779V0.830737C0.5 0.648076 0.648076 0.5 0.830737 0.5Z"/>
    <path d="M7.29167 0.5H11.1687C11.3514 0.5 11.4995 0.648076 11.4995 0.830737V4.70779C11.4995 4.89045 11.3514 5.03853 11.1687 5.03853H7.29167C7.10901 5.03853 6.96094 4.89045 6.96094 4.70779V0.830737C6.96094 0.648076 7.10901 0.5 7.29167 0.5Z"/>
    <path d="M0.830737 6.96143H4.70779C4.89045 6.96143 5.03853 7.1095 5.03853 7.29216V11.1692C5.03853 11.3519 4.89045 11.5 4.70779 11.5H0.830737C0.648076 11.5 0.5 11.3519 0.5 11.1692V7.29216C0.5 7.1095 0.648076 6.96143 0.830737 6.96143Z"/>
    <path d="M7.29167 6.96143H11.1687C11.3514 6.96143 11.4995 7.1095 11.4995 7.29216V11.1692C11.4995 11.3519 11.3514 11.5 11.1687 11.5H7.29167C7.10901 11.5 6.96094 11.3519 6.96094 11.1692V7.29216C6.96094 7.1095 7.10901 6.96143 7.29167 6.96143Z"/>
</svg>