<svg xmlns="http://www.w3.org/2000/svg" viewBox="0 0 48 38"><path d="M6.5 3.9l-.1-1-.12-.99h.09a16.01 16.01 0 0 1 1.08-.08l.1 2a25.51 25.51 0 0 0-.99.07H6.5zm8.65.23c-.76-.1-1.49-.17-2.17-.22l.15-2c.71.06 1.47.13 2.26.23l-.24 1.99zm7.43 1.57c-.7-.22-1.4-.41-2.09-.59l.49-1.94c.72.18 1.45.39 2.19.61l-.59 1.92zm6.97 2.94c-.64-.36-1.28-.69-1.92-1l.86-1.8c.68.32 1.36.67 2.03 1.05l-.97 1.75zm5.3 3.69l-.83-.7 1.26-1.55a32.61 32.61 0 0 1 1.69 1.46L35.61 13c-.24-.23-.5-.46-.76-.68zm5.32 6.07c-.36-.55-.75-1.1-1.16-1.65l1.6-1.2c.44.58.85 1.17 1.24 1.76l-1.68 1.1zm3.16 6.35a32.1 32.1 0 0 0-.75-1.89l1.83-.8c.3.68.56 1.34.8 2l-1.88.69zm1.72 6.9c-.1-.63-.2-1.3-.35-2l1.96-.4c.15.74.27 1.45.37 2.12l-1.98.28zm.31 5.8l.03-.73 2 .03a21.64 21.64 0 0 1-.04 1.03v.08l-1-.08-1-.1v-.04l.01-.19z"/><path d="M.7 4.36a1 1 0 0 1-.17-1.84L4.98.12A1 1 0 0 1 6.45.9l.38 3.9a1 1 0 0 1-1.3 1.06L.7 4.36z"/></svg>