<svg xmlns="http://www.w3.org/2000/svg" viewBox="0 0 95 80"><path d="M14.16 4.37l-1.94-.03.02-2 1.98.03-.06 2zM6.5 4.5l-.17-2h.07a23.64 23.64 0 0 1 .93-.06l.1 2a40.97 40.97 0 0 0-.87.05H6.5zm14.38.27l-1.92-.16.14-2 1.96.16-.18 2zm6.7.8l-1.9-.26.26-1.99 1.94.28-.3 1.98zm6.62 1.24l-1.89-.4.4-1.96 1.92.4-.43 1.96zm6.53 1.67l-1.86-.52.53-1.93 1.9.54-.57 1.91zm6.37 2.14l-1.8-.66.66-1.89c.62.22 1.23.44 1.85.68l-.7 1.87zm6.2 2.62l-1.75-.8.81-1.83c.6.27 1.2.54 1.79.83l-.86 1.8zm5.93 3.14c-.55-.33-1.11-.64-1.67-.95l.97-1.75c.57.32 1.14.64 1.71.98l-1 1.72zm5.62 3.66l-1.57-1.1 1.12-1.65c.54.37 1.08.74 1.62 1.13l-1.17 1.62zm4.51 3.56l-.73-.62 1.28-1.54a68.26 68.26 0 0 1 1.53 1.32l-1.33 1.5-.75-.66zM75 29.1l-1.35-1.44 1.44-1.39c.47.5.94.99 1.39 1.49L75 29.09zm4.33 5.33l-1.18-1.57 1.58-1.22c.42.54.82 1.08 1.22 1.62l-1.62 1.17zm3.73 5.78c-.32-.56-.65-1.12-1-1.69l1.7-1.04c.36.58.7 1.16 1.04 1.74l-1.74 1zm3.1 6.14c-.26-.6-.53-1.19-.81-1.78l1.8-.86c.3.6.57 1.22.84 1.83l-1.82.81zm2.48 6.43c-.2-.62-.42-1.24-.64-1.86l1.88-.68.66 1.92-1.9.62zm1.85 6.64c-.14-.63-.3-1.27-.46-1.92l1.93-.5.48 1.97-1.95.45zm1.24 6.8c-.08-.64-.18-1.3-.29-1.96l1.98-.32.3 2-1.99.27zm.63 6.86l-.12-1.97 2-.14c.05.72.09 1.39.11 2.02l-2 .09zm-.02 5.61l.03-.7 2 .08a32.09 32.09 0 0 1-.05.95V79.08l-2-.17v-.05l.02-.18z"/><path d="M.61 4.39a1 1 0 0 1 0-1.85L5.28.58a1 1 0 0 1 1.39.92v3.92a1 1 0 0 1-1.39.93L.61 4.39z"/></svg>