<svg width="14" height="14" viewBox="0 0 14 14" fill="none" xmlns="http://www.w3.org/2000/svg">
<path fill-rule="evenodd" clip-rule="evenodd" d="M1.16667 5.845L7.91408 12.5912L12.5915 7.91583L5.84442 1.16667H1.16667V5.845ZM7.91408 14C7.76475 14 7.61542 13.9446 7.50167 13.8308L0.170917 6.49833C0.0615417 6.39042 0 6.24167 0 6.08708V0.583333C0 0.2625 0.261333 0 0.583333 0H6.08592C6.2405 0 6.38896 0.06125 6.49833 0.172083L13.8291 7.50167C14.0569 7.72917 14.0569 8.09958 13.8291 8.32708L8.3265 13.8308C8.21275 13.9446 8.06342 14 7.91408 14Z" fill="#333333"/>
<path fill-rule="evenodd" clip-rule="evenodd" d="M3.74142 2.3335C2.96384 2.3335 2.33325 2.9635 2.33325 3.74225C2.33325 4.521 2.96384 5.151 3.74142 5.151C4.51929 5.151 5.14959 4.521 5.14959 3.74225C5.14959 2.9635 4.51929 2.3335 3.74142 2.3335ZM3.74174 3.20833C4.03574 3.20833 4.27491 3.4475 4.27491 3.74208C4.27491 4.03667 4.03574 4.27583 3.74174 4.27583C3.44774 4.27583 3.20858 4.03667 3.20858 3.74208C3.20858 3.4475 3.44774 3.20833 3.74174 3.20833Z" fill="#333333"/>
</svg>
