<svg width="17" height="14" viewBox="0 0 17 14" fill="none" xmlns="http://www.w3.org/2000/svg">
<path fill-rule="evenodd" clip-rule="evenodd" d="M15.4822 12.5289H5.58943C5.53622 12.5289 5.49366 12.4847 5.49366 12.4296V8.31104H15.5815V12.4296C15.5815 12.4847 15.5354 12.5289 15.4822 12.5289ZM3.59177 11.3707L1.42452 5.02369C1.41742 4.99795 1.41742 4.97588 1.42806 4.95014C1.43516 4.93176 1.45289 4.90969 1.48482 4.89866L10.8065 1.47512C10.8633 1.45674 10.9165 1.48248 10.9342 1.53764L11.8174 4.12643H5.58877C4.75521 4.12643 4.07417 4.82879 4.07417 5.69663V11.3008L3.71592 11.4332C3.66626 11.4479 3.60951 11.4221 3.59177 11.3707ZM15.5815 5.69694V6.47285H5.49366V5.69694C5.49366 5.64178 5.53622 5.59766 5.58943 5.59766H15.4822C15.5354 5.59766 15.5815 5.64178 15.5815 5.69694ZM15.4819 4.12654H13.3217L12.2718 1.04866C11.9951 0.232311 11.1296 -0.197929 10.3386 0.088898L1.01338 3.51243C0.630295 3.65217 0.3217 3.939 0.147894 4.31776C-0.0259122 4.69651 -0.0471946 5.12308 0.0875939 5.51654L2.25485 11.8635C2.47832 12.507 3.06358 12.9079 3.68432 12.9079C3.83329 12.9079 3.98227 12.8821 4.13125 12.8343C4.30505 13.5036 4.89032 14 5.58909 14H15.4819C16.319 14 17 13.294 17 12.4298V5.69673C17 4.8289 16.319 4.12654 15.4819 4.12654Z" fill="#333333"/>
<path fill-rule="evenodd" clip-rule="evenodd" d="M9.43117 9.25635H7.19539C6.89018 9.25635 6.6438 9.50272 6.6438 9.80794C6.6438 10.1132 6.89018 10.3595 7.19539 10.3595H9.43117C9.73638 10.3595 9.98276 10.1132 9.98276 9.80794C9.98276 9.50272 9.73638 9.25635 9.43117 9.25635Z" fill="#333333"/>
</svg>
