<svg
        width="12"
        height="14"
        viewBox="0 0 12 14"
        fill="none"
        xmlns="http://www.w3.org/2000/svg"
>
    <path
            d="M2.8 14H9.2C9.86167 14 10.4 13.448 10.4 12.7695V4.94922H11.6C11.8209 4.94922 12 4.76561 12 4.53906C12 4.31252 11.8209 4.12891 11.6 4.12891H11.1719C10.9788 2.72423 9.80948 1.64062 8.4 1.64062H8V1.23047C8 0.552002 7.46167 0 6.8 0H5.2C4.53833 0 4 0.552002 4 1.23047V1.64062H3.6C2.19063 1.64062 1.02125 2.72423 0.828125 4.12891H0.4C0.179063 4.12891 0 4.31252 0 4.53906C0 4.76561 0.179063 4.94922 0.4 4.94922H1.6V12.7695C1.6 13.448 2.13833 14 2.8 14ZM9.6 12.7695C9.6 12.9957 9.42052 13.1797 9.2 13.1797H2.8C2.57948 13.1797 2.4 12.9957 2.4 12.7695V4.94922H9.6V12.7695ZM4.8 1.23047C4.8 1.00435 4.97948 0.820312 5.2 0.820312H6.8C7.02052 0.820312 7.2 1.00435 7.2 1.23047V1.64062H4.8V1.23047ZM3.6 2.46094H8.4C9.36771 2.46094 10.1769 3.17882 10.3607 4.12891H1.63927C1.82313 3.17882 2.63229 2.46094 3.6 2.46094Z"
            fill="#333333"
    ></path>
    <path
            d="M4 11.5391C4.22094 11.5391 4.4 11.3555 4.4 11.1289V7C4.4 6.77345 4.22094 6.58984 4 6.58984C3.77906 6.58984 3.6 6.77345 3.6 7V11.1289C3.6 11.3555 3.77906 11.5391 4 11.5391Z"
            fill="#333333"
    ></path>
    <path
            d="M6 11.5391C6.22094 11.5391 6.4 11.3555 6.4 11.1289V7C6.4 6.77345 6.22094 6.58984 6 6.58984C5.77906 6.58984 5.6 6.77345 5.6 7V11.1289C5.6 11.3555 5.77906 11.5391 6 11.5391Z"
            fill="#333333"
    ></path>
    <path
            d="M8 11.5391C8.22094 11.5391 8.4 11.3555 8.4 11.1289V7C8.4 6.77345 8.22094 6.58984 8 6.58984C7.77906 6.58984 7.6 6.77345 7.6 7V11.1289C7.6 11.3555 7.77906 11.5391 8 11.5391Z"
            fill="#333333"
    ></path>
</svg>
