<svg width="234" height="230" viewBox="0 0 234 230" fill="none" xmlns="http://www.w3.org/2000/svg">
<g id="floating_bar">
<g id="shadow" opacity="0.1" filter="url(#filter0_f_1226:0)">
<path fill-rule="evenodd" clip-rule="evenodd" d="M226.556 169.764L137.247 221.619C135.363 222.713 133.037 222.712 131.154 221.617L7.43321 149.658L99.7709 96.0718L226.556 169.764Z" fill="#7C7C7C"/>
</g>
<g id="grid">
<path id="Line 2 Copy 2" fill-rule="evenodd" clip-rule="evenodd" d="M220.259 122.864C221.41 123.531 221.41 125.194 220.258 125.861L133.46 176.139C131.579 177.228 129.259 177.228 127.379 176.137L6.1411 105.789C4.98999 105.121 4.99081 103.459 6.14256 102.792L93.5751 52.1724C95.0525 51.3171 96.8746 51.3177 98.3514 52.1741L220.259 122.864Z" stroke="#696969" stroke-width="0.433048" stroke-linecap="square"/>
<path id="Line 2 Copy 7" fill-rule="evenodd" clip-rule="evenodd" d="M141.694 171.401L14.824 97.8037L141.694 171.401Z" fill="#D8D8D8" stroke="#696969" stroke-width="0.433048" stroke-linecap="square"/>
<path id="Line 2 Copy 13" fill-rule="evenodd" clip-rule="evenodd" d="M17.3908 112.338L109.649 58.3965L17.3908 112.338Z" fill="#D8D8D8" stroke="#696969" stroke-width="0.433048" stroke-linecap="square"/>
<path id="Line 2 Copy 15" fill-rule="evenodd" clip-rule="evenodd" d="M30.8153 120.133L123.073 66.1914L30.8153 120.133Z" fill="#D8D8D8" stroke="#696969" stroke-width="0.433048" stroke-linecap="square"/>
<path id="Line 2 Copy 16" fill-rule="evenodd" clip-rule="evenodd" d="M44.2398 127.928L136.498 73.9863L44.2398 127.928Z" fill="#D8D8D8" stroke="#696969" stroke-width="0.433048" stroke-linecap="square"/>
<path id="Line 2 Copy 17" fill-rule="evenodd" clip-rule="evenodd" d="M58.9635 136.155L151.221 82.2139L58.9635 136.155Z" fill="#D8D8D8" stroke="#696969" stroke-width="0.433048" stroke-linecap="square"/>
<path id="Line 2 Copy 21" fill-rule="evenodd" clip-rule="evenodd" d="M72.821 144.383L165.079 90.4419L72.821 144.383Z" fill="#D8D8D8" stroke="#696969" stroke-width="0.433048" stroke-linecap="square"/>
<path id="Line 2 Copy 20" fill-rule="evenodd" clip-rule="evenodd" d="M86.6786 151.745L178.936 97.8037L86.6786 151.745Z" fill="#D8D8D8" stroke="#696969" stroke-width="0.433048" stroke-linecap="square"/>
<path id="Line 2 Copy 19" fill-rule="evenodd" clip-rule="evenodd" d="M99.67 159.973L191.928 106.032L99.67 159.973Z" fill="#D8D8D8" stroke="#696969" stroke-width="0.433048" stroke-linecap="square"/>
<path id="Line 2 Copy 18" fill-rule="evenodd" clip-rule="evenodd" d="M113.961 168.634L206.218 114.693L113.961 168.634Z" fill="#D8D8D8" stroke="#696969" stroke-width="0.433048" stroke-linecap="square"/>
<path id="Line 2 Copy 8" fill-rule="evenodd" clip-rule="evenodd" d="M152.953 164.906L26.0833 91.3081L152.953 164.906Z" fill="#D8D8D8" stroke="#696969" stroke-width="0.433048" stroke-linecap="square"/>
<path id="Line 2 Copy 10" fill-rule="evenodd" clip-rule="evenodd" d="M164.645 157.977L37.7756 84.3794L164.645 157.977Z" fill="#D8D8D8" stroke="#696969" stroke-width="0.433048" stroke-linecap="square"/>
<path id="Line 2 Copy 9" fill-rule="evenodd" clip-rule="evenodd" d="M175.905 151.481L49.0349 77.8838L175.905 151.481Z" fill="#D8D8D8" stroke="#696969" stroke-width="0.433048" stroke-linecap="square"/>
<path id="Line 2 Copy 12" fill-rule="evenodd" clip-rule="evenodd" d="M188.463 144.119L61.5933 70.522L188.463 144.119Z" fill="#D8D8D8" stroke="#696969" stroke-width="0.433048" stroke-linecap="square"/>
<path id="Line 2 Copy 11" fill-rule="evenodd" clip-rule="evenodd" d="M199.722 137.623L72.8525 64.0259L199.722 137.623Z" fill="#D8D8D8" stroke="#696969" stroke-width="0.433048" stroke-linecap="square"/>
<path id="Line 2 Copy 14" fill-rule="evenodd" clip-rule="evenodd" d="M211.848 131.128L84.9779 57.5303L211.848 131.128Z" fill="#D8D8D8" stroke="#696969" stroke-width="0.433048" stroke-linecap="square"/>
</g>
<g id="bar">
<g id="Group 4">
<path id="Line 2 Copy 5" fill-rule="evenodd" clip-rule="evenodd" d="M217.239 83.8507C221.269 86.1874 221.267 92.0068 217.237 94.3416L136.904 140.874C135.023 141.964 132.703 141.963 130.823 140.872L7.00018 69.0246L99.4078 15.5249L217.239 83.8507Z" fill="black"/>
<g id="Group 3">
<path id="Line 2" fill-rule="evenodd" clip-rule="evenodd" d="M7.02539 67.7267C7.02539 68.6529 7.51843 69.5091 8.31951 69.974L130.643 140.963C132.087 141.8 133.895 140.759 133.895 139.09V125.523L9.62678 53.4345C8.47198 52.7646 7.02539 53.5978 7.02539 54.9328L7.02539 67.7267Z" fill="url(#paint0_linear_1226:0)"/>
<path id="Line 2 Copy" fill-rule="evenodd" clip-rule="evenodd" d="M226.573 86.2553C226.573 87.9534 225.669 89.5231 224.2 90.3754L137.135 140.9C135.692 141.737 133.883 140.696 133.883 139.027V125.498L223.316 73.2908C224.76 72.4481 226.573 73.4893 226.573 75.1607V86.2553Z" fill="url(#paint1_linear_1226:0)"/>
<path id="Line 2 Copy 2_2" fill-rule="evenodd" clip-rule="evenodd" d="M225.267 72.2678C226.428 72.9415 226.415 74.6228 225.243 75.278L136.862 124.702C135.013 125.736 132.757 125.73 130.914 124.685L8.22165 55.1433C7.05745 54.4834 7.04932 52.8088 8.20706 52.1377L97.0381 0.642392C98.5162 -0.214445 100.34 -0.214109 101.818 0.643276L225.267 72.2678Z" fill="#F1F3F9"/>
<path id="Line 2 Copy 3" fill-rule="evenodd" clip-rule="evenodd" d="M101.266 72.2829C102.427 72.9562 102.414 74.637 101.243 75.2928L96.9391 77.7031C95.871 78.3013 94.5665 78.2913 93.5076 77.6769L66.7923 62.1756C65.6313 61.5019 65.6446 59.8207 66.8162 59.1655L71.1151 56.7614C72.1826 56.1644 73.4858 56.1745 74.5439 56.788L101.266 72.2829Z" fill="white" stroke="#CFCFCF" stroke-width="2" stroke-linecap="square"/>
<path id="Line 2 Copy 4" fill-rule="evenodd" clip-rule="evenodd" d="M117.349 81.9379C118.188 82.4524 118.172 83.6766 117.32 84.1697L112.685 86.853C111.605 87.478 110.273 87.4742 109.197 86.843L101.848 82.5326C100.693 81.8553 100.71 80.18 101.879 79.5266L106.142 77.1422C107.236 76.5303 108.576 76.5573 109.645 77.2127L117.349 81.9379Z" fill="black"/>
</g>
</g>
<g id="Group 2">
<ellipse id="Oval Copy 3" cx="115.912" cy="49.0859" rx="21.0028" ry="13.208" fill="#173BEF"/>
<path id="Triangle" fill-rule="evenodd" clip-rule="evenodd" d="M155.969 43.2397V69.6557L117.428 50.0138L155.969 43.2397Z" fill="#ADBBFF"/>
</g>
</g>
</g>
<defs>
<filter id="filter0_f_1226:0" x="0.231583" y="88.8701" width="233.526" height="140.77" filterUnits="userSpaceOnUse" color-interpolation-filters="sRGB">
<feFlood flood-opacity="0" result="BackgroundImageFix"/>
<feBlend mode="normal" in="SourceGraphic" in2="BackgroundImageFix" result="shape"/>
<feGaussianBlur stdDeviation="3.60082" result="effect1_foregroundBlur_1226:0"/>
</filter>
<linearGradient id="paint0_linear_1226:0" x1="-44.3899" y1="106.251" x2="44.5434" y2="210.107" gradientUnits="userSpaceOnUse">
<stop/>
<stop offset="1" stop-color="#6D6D6D"/>
</linearGradient>
<linearGradient id="paint1_linear_1226:0" x1="98.3081" y1="98.3946" x2="168.841" y2="24.8074" gradientUnits="userSpaceOnUse">
<stop/>
<stop offset="1" stop-color="#6D6D6D"/>
</linearGradient>
</defs>
</svg>
