<svg width="14" height="14" viewBox="0 0 14 14" fill="none" xmlns="http://www.w3.org/2000/svg">
<path d="M6.20656 4.56855C6.23216 4.61973 6.25775 4.67092 6.28335 4.70931C6.30894 4.7477 6.34733 4.7861 6.37293 4.82449C6.41132 4.86288 6.44971 4.90127 6.5009 4.93966C6.53929 4.96526 6.59048 5.00365 6.65446 5.01644C6.70565 5.04204 6.75684 5.05483 6.82082 5.06763C6.88481 5.08043 6.936 5.08043 6.98718 5.08043C7.03837 5.08043 7.10236 5.08043 7.15355 5.06763C7.20474 5.05483 7.25592 5.04204 7.29431 5.01644H7.30711C7.3583 4.99085 7.40949 4.96526 7.46068 4.92686C7.49907 4.90127 7.53746 4.86288 7.57585 4.82449L7.58865 4.81169C7.62704 4.7733 7.65263 4.73491 7.67823 4.69652C7.70382 4.65813 7.72942 4.61973 7.74221 4.56855C7.74221 4.55575 7.74221 4.55575 7.75501 4.54295C7.7806 4.49176 7.7934 4.42778 7.8062 4.37659C7.81899 4.3254 7.81899 4.26142 7.81899 4.21023C7.81899 4.15904 7.81899 4.09505 7.8062 4.04387C7.7934 3.99268 7.7806 3.94149 7.75501 3.8775C7.71662 3.78792 7.66543 3.71114 7.60144 3.64716C7.58865 3.63436 7.58865 3.63436 7.57585 3.62156C7.53746 3.58317 7.49907 3.55758 7.44788 3.51919C7.39669 3.49359 7.3583 3.468 7.30711 3.4424C7.25592 3.41681 7.20474 3.40401 7.15355 3.39122C7.08956 3.37842 7.03837 3.37842 6.98718 3.37842C6.936 3.37842 6.87201 3.37842 6.82082 3.39122C6.76963 3.40401 6.71845 3.41681 6.66726 3.4424H6.65446C6.60327 3.468 6.55208 3.49359 6.51369 3.51919C6.46251 3.55758 6.42411 3.58317 6.38572 3.62156C6.34733 3.65995 6.30894 3.69835 6.28335 3.73674C6.25775 3.77513 6.23216 3.82632 6.20656 3.8775C6.18097 3.92869 6.16817 3.97988 6.15538 4.03107C6.14258 4.09505 6.14258 4.14624 6.14258 4.19743C6.14258 4.24862 6.14258 4.3126 6.15538 4.36379C6.16817 4.46617 6.19377 4.51736 6.20656 4.56855Z" fill="#333333"/>
<path d="M7.98536 9.25219H7.69103V6.1169C7.69103 5.93774 7.55026 5.78418 7.3583 5.78418H6.01461C5.83545 5.78418 5.68188 5.92495 5.68188 6.1169V6.80795C5.68188 6.9871 5.82265 7.14067 6.01461 7.14067H6.28335V9.26498H6.01461C5.83545 9.26498 5.68188 9.40575 5.68188 9.59771V10.2887C5.68188 10.4679 5.82265 10.6215 6.01461 10.6215H7.98536C8.16452 10.6215 8.31808 10.4807 8.31808 10.2887V9.59771C8.31808 9.40575 8.16452 9.25219 7.98536 9.25219Z" fill="#333333"/>
<path d="M7 0C3.13528 0 0 3.13528 0 7C0 10.8647 3.13528 14 7 14C10.8647 14 14 10.8647 14 7C14 3.13528 10.8647 0 7 0ZM7 13.0786C3.64717 13.0786 0.921389 10.3528 0.921389 7C0.921389 3.64717 3.64717 0.921389 7 0.921389C10.3528 0.921389 13.0786 3.64717 13.0786 7C13.0786 10.3528 10.3528 13.0786 7 13.0786Z" fill="#333333"/>
</svg>
