<svg width="20" height="20" viewBox="0 0 20 20" fill="none" xmlns="http://www.w3.org/2000/svg">
<path d="M12.5946 16.6062C13.6289 12.8974 13.2567 11.0278 11.4434 10.6686C11.7204 11.928 12.032 13.2219 10.7077 14.0961C10.0153 14.5549 9.46569 14.3774 8.23663 13.434C7.6697 14.5981 7.86012 15.758 8.12411 17C6.36275 16.6927 4.97357 15.9614 4.32875 14.2606C3.66229 12.7113 4.03014 10.9153 5.24188 9.74683C5.66599 9.31406 6.12473 8.92025 6.61375 8.56538C8.59583 7.07666 8.98099 5.63122 7.93369 3.39382C7.88609 3.26399 7.84714 3.13416 7.82117 3C10.024 3.33323 12.1099 4.2204 13.8842 5.57063C17.7488 8.72983 17.2814 14.4121 13.0144 16.498C12.8672 16.5066 12.7287 16.5413 12.5946 16.6062Z" fill="#EE4854"/>
</svg>
