<svg width="12" height="12" viewBox="0 0 12 12" fill="none" xmlns="http://www.w3.org/2000/svg">
<path fill-rule="evenodd" clip-rule="evenodd" d="M11.7908 1.80656C11.8581 1.86161 11.9119 1.93133 11.9482 2.01038C11.9842 2.08895 12.0018 2.17467 11.9999 2.26106V9.92161C11.9999 10.4728 11.7809 11.0015 11.3911 11.3913C11.0013 11.781 10.4727 12 9.92144 12H2.07841C1.52718 12 0.998528 11.781 0.608751 11.3913C0.218974 11.0015 0 10.4728 0 9.92161V2.07863C0 1.52741 0.218974 0.998761 0.608751 0.608987C0.998528 0.219213 1.52718 0.000241046 2.07841 0.000241046H9.28616C9.41529 -0.00351417 9.5419 0.0367006 9.64521 0.114329L9.64742 0.115986L11.7908 1.80656ZM9.28797 0.117888H2.07841C1.55838 0.117888 1.05965 0.324466 0.69194 0.692177C0.324226 1.05989 0.117647 1.55861 0.117647 2.07863V9.92161C0.117647 10.4416 0.324226 10.9404 0.69194 11.3081C1.05965 11.6758 1.55838 11.8824 2.07841 11.8824H9.92144C10.4415 11.8824 10.9402 11.6758 11.3079 11.3081C11.6756 10.9404 11.8822 10.4416 11.8822 9.92161V2.25962C11.884 2.19063 11.87 2.12214 11.8412 2.0594C11.8125 1.99666 11.7697 1.94133 11.7163 1.89764L9.57454 0.208384C9.49212 0.146452 9.39101 0.114525 9.28797 0.117888ZM7.91845 1.14049H3.47809V3.84632H7.91845V1.14049ZM10.5848 10.585C10.7607 10.409 10.8596 10.1704 10.8596 9.92161V2.52791L9.0964 1.14049H9.05871V4.41644C9.05871 4.56765 8.99864 4.71266 8.89172 4.81958C8.7848 4.9265 8.63979 4.98657 8.48858 4.98657H2.90796C2.75675 4.98657 2.61174 4.9265 2.50482 4.81958C2.3979 4.71266 2.33783 4.56765 2.33783 4.41644V1.14049H2.07841C1.82959 1.14049 1.59097 1.23933 1.41504 1.41527C1.2391 1.5912 1.14026 1.82982 1.14026 2.07863V9.92161C1.14026 10.1704 1.2391 10.409 1.41504 10.585C1.59097 10.7609 1.82959 10.8597 2.07841 10.8597H9.92144C10.1703 10.8597 10.4089 10.7609 10.5848 10.585ZM9.13714 1.02285L10.9772 2.47078V9.92161C10.9772 10.2016 10.866 10.4702 10.668 10.6682C10.47 10.8662 10.2015 10.9774 9.92144 10.9774H2.07841C1.79839 10.9774 1.52985 10.8662 1.33185 10.6682C1.13385 10.4702 1.02261 10.2016 1.02261 9.92161V2.07863C1.02261 1.79862 1.13385 1.53008 1.33185 1.33208C1.52985 1.13408 1.79839 1.02285 2.07841 1.02285H2.45548V4.41644C2.45548 4.53645 2.50315 4.65154 2.588 4.73639C2.67286 4.82125 2.78795 4.86892 2.90796 4.86892H8.48858C8.60859 4.86892 8.72368 4.82125 8.80853 4.73639C8.89339 4.65154 8.94106 4.53645 8.94106 4.41644V1.02285H9.13714ZM4.54357 6.08192C4.88536 5.85354 5.2872 5.73165 5.69827 5.73165C6.2495 5.73165 6.77815 5.95062 7.16792 6.34039C7.5577 6.73017 7.77668 7.25881 7.77668 7.81004C7.77668 8.22111 7.65478 8.62294 7.4264 8.96473C7.19802 9.30652 6.87342 9.57291 6.49364 9.73022C6.11386 9.88753 5.69596 9.92869 5.29279 9.84849C4.88962 9.7683 4.51928 9.57035 4.22861 9.27968C3.93794 8.98902 3.73999 8.61868 3.6598 8.21551C3.5796 7.81234 3.62076 7.39445 3.77807 7.01467C3.93538 6.6349 4.20178 6.3103 4.54357 6.08192ZM5.17706 8.59007C5.33134 8.69316 5.51272 8.74818 5.69827 8.74818C5.94708 8.74818 6.1857 8.64934 6.36164 8.4734C6.53758 8.29747 6.63642 8.05885 6.63642 7.81004C6.63642 7.62449 6.58139 7.44311 6.47831 7.28884C6.37522 7.13456 6.22871 7.01432 6.05728 6.94331C5.88586 6.87231 5.69723 6.85373 5.51525 6.88993C5.33326 6.92612 5.1661 7.01547 5.0349 7.14667C4.9037 7.27788 4.81435 7.44504 4.77815 7.62702C4.74195 7.809 4.76053 7.99763 4.83154 8.16905C4.90254 8.34047 5.02279 8.48699 5.17706 8.59007ZM3.36044 1.02285V3.96396H8.0361V1.02285H3.36044ZM4.60893 6.17974C4.93138 5.96429 5.31047 5.84929 5.69827 5.84929C6.2183 5.84929 6.71702 6.05587 7.08473 6.42358C7.45245 6.79129 7.65903 7.29002 7.65903 7.81004C7.65903 8.19784 7.54403 8.57693 7.32858 8.89937C7.11313 9.22181 6.8069 9.47313 6.44862 9.62153C6.09034 9.76993 5.69609 9.80876 5.31574 9.73311C4.93539 9.65745 4.58602 9.47071 4.3118 9.19649C4.03759 8.92228 3.85084 8.57291 3.77519 8.19256C3.69953 7.81221 3.73836 7.41797 3.88676 7.05969C4.03517 6.70142 4.28648 6.39519 4.60893 6.17974ZM5.1117 8.68789C5.28533 8.8039 5.48945 8.86582 5.69827 8.86582C5.97828 8.86582 6.24683 8.75459 6.44483 8.55659C6.64283 8.35859 6.75406 8.09005 6.75406 7.81004C6.75406 7.60122 6.69214 7.3971 6.57613 7.22348C6.46012 7.04985 6.29522 6.91453 6.1023 6.83462C5.90938 6.75471 5.6971 6.7338 5.49229 6.77454C5.28749 6.81528 5.09937 6.91583 4.95171 7.06348C4.80405 7.21114 4.7035 7.39926 4.66276 7.60406C4.62202 7.80887 4.64293 8.02115 4.72284 8.21407C4.80275 8.40699 4.93808 8.57188 5.1117 8.68789Z" fill="black"/>
<path fill-rule="evenodd" clip-rule="evenodd" d="M9.28797 0.117888H2.07841C1.55838 0.117888 1.05965 0.324466 0.69194 0.692177C0.324226 1.05989 0.117647 1.55861 0.117647 2.07863V9.92161C0.117647 10.4416 0.324226 10.9404 0.69194 11.3081C1.05965 11.6758 1.55838 11.8824 2.07841 11.8824H9.92144C10.4415 11.8824 10.9402 11.6758 11.3079 11.3081C11.6756 10.9404 11.8822 10.4416 11.8822 9.92161V2.25962C11.884 2.19063 11.87 2.12214 11.8412 2.0594C11.8125 1.99666 11.7697 1.94133 11.7163 1.89764L9.57454 0.208384C9.49212 0.146452 9.39101 0.114525 9.28797 0.117888ZM10.9772 2.47078L9.13714 1.02285H8.94106V4.41644C8.94106 4.53645 8.89339 4.65154 8.80853 4.73639C8.72368 4.82125 8.60859 4.86892 8.48858 4.86892H2.90796C2.78795 4.86892 2.67286 4.82125 2.588 4.73639C2.50315 4.65154 2.45548 4.53645 2.45548 4.41644V1.02285H2.07841C1.79839 1.02285 1.52985 1.13408 1.33185 1.33208C1.13385 1.53008 1.02261 1.79862 1.02261 2.07863V9.92161C1.02261 10.2016 1.13385 10.4702 1.33185 10.6682C1.52985 10.8662 1.79839 10.9774 2.07841 10.9774H9.92144C10.2015 10.9774 10.47 10.8662 10.668 10.6682C10.866 10.4702 10.9772 10.2016 10.9772 9.92161V2.47078ZM8.0361 1.02285H3.36044V3.96396H8.0361V1.02285Z" fill="black"/>
<path fill-rule="evenodd" clip-rule="evenodd" d="M5.69827 5.84929C5.31047 5.84929 4.93138 5.96429 4.60893 6.17974C4.28648 6.39519 4.03517 6.70142 3.88676 7.05969C3.73836 7.41797 3.69953 7.81221 3.77519 8.19256C3.85084 8.57291 4.03759 8.92228 4.3118 9.19649C4.58602 9.47071 4.93539 9.65745 5.31574 9.73311C5.69609 9.80876 6.09034 9.76993 6.44862 9.62153C6.8069 9.47313 7.11313 9.22181 7.32858 8.89937C7.54403 8.57693 7.65903 8.19784 7.65903 7.81004C7.65903 7.29002 7.45245 6.79129 7.08473 6.42358C6.71702 6.05587 6.2183 5.84929 5.69827 5.84929ZM5.1117 8.68789C5.28533 8.8039 5.48945 8.86582 5.69827 8.86582C5.97828 8.86582 6.24683 8.75459 6.44483 8.55659C6.64283 8.35859 6.75406 8.09005 6.75406 7.81004C6.75406 7.60122 6.69214 7.3971 6.57613 7.22348C6.46012 7.04985 6.29522 6.91453 6.1023 6.83462C5.90938 6.75471 5.6971 6.7338 5.49229 6.77454C5.28749 6.81528 5.09937 6.91583 4.95171 7.06348C4.80405 7.21114 4.7035 7.39926 4.66276 7.60406C4.62202 7.80887 4.64293 8.02115 4.72284 8.21407C4.80275 8.40699 4.93808 8.57188 5.1117 8.68789Z" fill="black"/>
</svg>
