<svg width="14" height="14" viewBox="0 0 14 14" fill="none" xmlns="http://www.w3.org/2000/svg">
<g clip-path="url(#clip0_2035_2061)">
<path fill-rule="evenodd" clip-rule="evenodd" d="M1.7504 9.92163V9.92455C1.7504 9.92455 1.7504 9.92367 1.7504 9.92163ZM6.0792 12.765C6.68286 12.856 7.3199 12.856 7.92357 12.765V11.7697C7.92357 11.5136 8.09648 11.2876 8.35129 11.212C8.99743 11.0207 9.58593 10.694 10.0986 10.2413C10.2927 10.068 10.584 10.0377 10.8145 10.1666L11.7124 10.671C11.8884 10.4656 12.0461 10.2492 12.1887 10.0237C12.2251 9.96187 12.2645 9.89536 12.307 9.82856C12.4344 9.60746 12.5497 9.37645 12.6467 9.13901L11.7458 8.63439C11.5183 8.50547 11.4 8.24762 11.4606 7.99851C11.5425 7.65986 11.585 7.32384 11.585 6.99948C11.585 6.68271 11.5456 6.35485 11.4667 6.02554C11.4091 5.77614 11.5274 5.51888 11.7579 5.39141L12.6589 4.89291C12.5557 4.63127 12.4283 4.37633 12.2827 4.13132C12.2797 4.12723 12.2676 4.10419 12.2645 4.1001C12.2584 4.09019 12.2463 4.07123 12.2402 4.06073C12.0916 3.81629 11.9248 3.58061 11.7367 3.35688L10.8357 3.85538C10.6052 3.98285 10.314 3.95105 10.1198 3.77662C9.6102 3.32101 8.99743 2.97856 8.35129 2.78693C8.09648 2.71138 7.92357 2.48532 7.92357 2.22922V1.23427C7.3199 1.14326 6.68286 1.14326 6.0792 1.23427V2.22922C6.0792 2.48532 5.90325 2.71138 5.64844 2.78693C5.0023 2.97856 4.4138 3.30526 3.90417 3.75795C3.70699 3.93122 3.41578 3.96155 3.18523 3.83263L2.28731 3.3283C2.1144 3.53365 1.95666 3.75037 1.81409 3.97555C1.63207 4.25762 1.4804 4.55368 1.35603 4.86024L2.25394 5.36486C2.48449 5.49379 2.59976 5.75164 2.53909 6.00074C2.45719 6.33939 2.41775 6.67542 2.41775 6.99948C2.41775 7.31655 2.45719 7.64441 2.53303 7.97372C2.59066 8.22311 2.47539 8.48038 2.24484 8.60785L1.34086 9.10635C1.43186 9.32832 1.53804 9.55029 1.65938 9.76994L1.74735 9.91811C1.75038 9.92482 1.75645 9.93182 1.75948 9.93853C1.90812 10.183 2.078 10.4186 2.26304 10.6424L3.16703 10.1439C3.39758 10.0164 3.68576 10.0482 3.88294 10.2226C4.38953 10.6783 5.0023 11.0207 5.64844 11.212C5.90325 11.2876 6.0792 11.5136 6.0792 11.7697V12.765ZM7.00135 14C6.43105 14 5.86985 13.9361 5.32685 13.8098C5.05687 13.7462 4.86576 13.5123 4.86576 13.2431V12.1819C4.34096 11.9809 3.8465 11.703 3.39754 11.3614L2.43592 11.8931C2.19324 12.0279 1.88382 11.9839 1.69271 11.7867C1.31959 11.4043 0.991968 10.9851 0.721985 10.5403C0.706818 10.5193 0.69165 10.4965 0.679516 10.4691L0.591545 10.3259C0.348864 9.88749 0.157753 9.44413 0.0242787 9.00251C-0.0545925 8.74378 0.0637143 8.46756 0.306395 8.33338L1.26498 7.80251C1.22555 7.5324 1.20431 7.26376 1.20431 6.99949C1.20431 6.7253 1.22555 6.44587 1.27105 6.16439L0.312462 5.62651C0.0697813 5.49059 -0.0424585 5.21232 0.0364127 4.95388C0.212356 4.39647 0.461104 3.86297 0.776588 3.36856C1.04354 2.94444 1.36206 2.54396 1.72304 2.18022C1.91719 1.9845 2.22357 1.94191 2.46625 2.07842L3.42787 2.61629C3.86773 2.28115 4.35006 2.01338 4.86576 1.81678V0.756201C4.86576 0.486973 5.05687 0.253039 5.32685 0.189451C6.40981 -0.0631503 7.59288 -0.0631503 8.67281 0.189451C8.94582 0.253039 9.13694 0.486973 9.13694 0.756201V1.81736C9.6587 2.01833 10.1562 2.29602 10.6021 2.63788L11.5637 2.10613C11.8095 1.97108 12.1158 2.01542 12.31 2.2126C12.6831 2.59588 13.0107 3.01591 13.2807 3.46161C13.2989 3.48903 13.3171 3.51732 13.3323 3.54532C13.6083 4.0091 13.8237 4.49477 13.9754 4.99589C14.0542 5.25461 13.939 5.53142 13.6963 5.66589L12.7347 6.19676C12.7771 6.46687 12.7984 6.73551 12.7984 6.99949C12.7984 7.27397 12.7741 7.5534 12.7286 7.83488L13.6872 8.37276C13.9299 8.50868 14.0451 8.78637 13.9632 9.04451C13.8176 9.51501 13.6144 9.97266 13.3596 10.4055C13.3141 10.4837 13.2716 10.556 13.2261 10.6258C12.9561 11.0548 12.6376 11.4556 12.2796 11.8188C12.0855 12.0148 11.7761 12.0568 11.5334 11.9206L10.5748 11.383C10.1319 11.7181 9.65263 11.9859 9.13694 12.1825V13.2431C9.13694 13.5123 8.94582 13.7462 8.67281 13.8098C8.13284 13.9361 7.56861 14 7.00135 14Z" fill="black"/>
<path fill-rule="evenodd" clip-rule="evenodd" d="M7.00063 5.55322C6.16944 5.55322 5.49601 6.20223 5.49601 6.99941C5.49601 7.79689 6.16944 8.44589 7.00063 8.44589C7.82877 8.44589 8.50525 7.79689 8.50525 6.99941C8.50525 6.20223 7.82877 5.55322 7.00063 5.55322ZM7.00062 9.32102C5.66891 9.32102 4.58594 8.27969 4.58594 6.99948C4.58594 5.71955 5.66891 4.67822 7.00062 4.67822C8.33233 4.67822 9.41529 5.71955 9.41529 6.99948C9.41529 8.27969 8.33233 9.32102 7.00062 9.32102Z" fill="black"/>
</g>
<defs>
<clipPath id="clip0_2035_2061">
<rect width="14" height="14" fill="white"/>
</clipPath>
</defs>
</svg>
