<svg width="14" height="14" viewBox="0 0 14 14" fill="none" xmlns="http://www.w3.org/2000/svg">
<path d="M6.97702 7.85691C9.04599 7.85691 10.7241 6.09483 10.7241 3.92243C10.7241 1.75003 9.04597 0 6.97702 0C4.90806 0 3.22989 1.76208 3.22989 3.92243C3.22989 6.08277 4.90804 7.85691 6.97702 7.85691ZM6.97702 1.02587C8.49425 1.02587 9.73564 2.32931 9.73564 3.92243C9.73564 5.51555 8.49425 6.81896 6.97702 6.81896C5.45978 6.81896 4.21839 5.51552 4.21839 3.9224C4.21839 2.32928 5.45976 1.02587 6.97702 1.02587Z" fill="black"/>
<path d="M0.494248 14H13.5058C13.7816 14 14 13.7707 14 13.481C14 10.7655 11.8966 8.54483 9.29884 8.54483H4.70116C2.11495 8.54483 0 10.7534 0 13.481C0 13.7707 0.218387 14 0.494248 14ZM4.70116 9.58275H9.29884C11.1839 9.58275 12.7356 11.0552 12.977 12.9621H1.02298C1.26436 11.0673 2.8161 9.58275 4.70116 9.58275Z" fill="black"/>
</svg>
