<svg width="62" height="16" viewBox="0 0 62 16" fill="none" xmlns="http://www.w3.org/2000/svg">
<path d="M1.05895 9.04186C0.474108 8.45702 0.474108 7.5088 1.05895 6.92396L6.9239 1.05901C7.50874 0.47417 8.45696 0.47417 9.0418 1.05901L14.9067 6.92396C15.4916 7.5088 15.4916 8.45702 14.9067 9.04186L9.0418 14.9068C8.45696 15.4917 7.50874 15.4917 6.9239 14.9068L1.05895 9.04186Z" fill="url(#paint0_linear)"/>
<mask id="mask0" mask-type="alpha" maskUnits="userSpaceOnUse" x="0" y="0" width="16" height="17">
<path d="M1.05895 9.07653C0.474108 8.49169 0.474108 7.54347 1.05895 6.95863L6.9239 1.09368C7.50874 0.508838 8.45696 0.508838 9.0418 1.09368L14.9067 6.95863C15.4916 7.54347 15.4916 8.49169 14.9067 9.07653L9.0418 14.9415C8.45696 15.5263 7.50874 15.5263 6.9239 14.9415L1.05895 9.07653Z" fill="url(#paint1_linear)"/>
</mask>
<g mask="url(#mask0)">
<path d="M3.45578 7.23486C2.36139 7.23486 1.4974 7.46526 0.633415 7.98365C-0.0769753 8.34845 -1.5208 9.07804 -1.61296 9.07804C-1.70511 9.07804 3.91657 15.5292 6.73894 18.7547L17.4524 9.59643L15.2636 7.58046C14.4572 7.86846 12.8976 8.93581 11.0013 9.07804C8.69731 9.25084 6.04775 7.23486 3.45578 7.23486Z" fill="url(#paint2_linear)"/>
</g>
<path d="M20.3618 5.06559V12.3262H22.9607V5.06559H20.3618ZM20.1994 2.04439C20.1994 2.85654 20.8491 3.50626 21.6613 3.50626C22.4734 3.50626 23.1231 2.85654 23.1231 2.04439C23.1231 1.23224 22.4734 0.58252 21.6613 0.58252C20.8491 0.58252 20.1994 1.23224 20.1994 2.04439Z" fill="#333435"/>
<path d="M29.0771 7.19342V5.06559H27.599V2.67787H25.0001V5.06559H24.1717V7.19342H25.0001V12.3262H27.599V7.19342H29.0771Z" fill="#333435"/>
<path d="M30.0537 12.3262H32.6526V8.7365C32.6526 8.2817 32.6526 7.58325 33.1074 7.14469C33.3185 6.93353 33.5459 6.8848 33.8221 6.8848C34.082 6.8848 34.3743 6.93353 34.6017 7.17717C34.8941 7.48579 34.9428 8.03805 34.9428 8.7365V12.3262H37.5417V8.60656C37.5417 8.24921 37.5742 7.64822 38.0128 7.2259C38.2402 7.01474 38.4838 6.93353 38.7762 6.93353C39.1173 6.93353 39.3122 7.04723 39.4584 7.17717C39.7508 7.4533 39.832 7.97308 39.832 8.7365V12.3262H42.4309V7.59949C42.4309 7.09596 42.3984 6.23508 41.7486 5.6016C41.1477 5.01686 40.2705 4.93564 39.7345 4.93564C39.2472 4.93564 38.7437 5.00061 38.2239 5.29299C37.8991 5.47166 37.5255 5.78028 37.2331 6.30005C37.0544 5.94271 36.762 5.53663 36.226 5.2605C35.8362 5.04934 35.3489 4.93564 34.8291 4.93564C34.1144 4.93564 33.2698 5.19553 32.6526 5.94271V5.06559H30.0537V12.3262Z" fill="#333435"/>
<path d="M51.9338 8.89893C51.9338 8.08678 51.8038 6.81983 50.7805 5.84525C49.9196 5.0331 48.8314 4.85443 47.9867 4.85443C46.5573 4.85443 45.6152 5.32547 45.0142 5.91022C44.3808 6.52745 43.926 7.50203 43.926 8.72026C43.926 10.1009 44.527 10.9943 44.998 11.4653C45.8914 12.3587 47.0446 12.5698 48.003 12.5698C49.5785 12.5698 50.4232 12.0826 50.9592 11.5628C51.4952 11.043 51.7226 10.4745 51.8363 10.0684H49.3511C49.2374 10.2958 49.0588 10.4583 48.8963 10.5557C48.5715 10.7344 48.1167 10.7506 48.0517 10.7506C47.4669 10.7506 47.1421 10.5557 46.9796 10.3933C46.671 10.0847 46.5248 9.56489 46.5248 9.17506H51.9338V8.89893ZM46.6061 7.68071C46.6548 7.35585 46.8172 7.09596 46.9959 6.90104C47.272 6.62491 47.6131 6.51121 48.0517 6.51121C48.3116 6.51121 48.7826 6.55994 49.1237 6.90104C49.3186 7.09596 49.4811 7.40457 49.546 7.68071H46.6061Z" fill="#333435"/>
<path d="M57.5117 7.03099C57.9178 7.03099 58.3726 7.2259 58.665 7.50203C58.9898 7.82689 59.1685 8.29794 59.1685 8.68777C59.1685 9.11009 58.9898 9.53241 58.665 9.84102C58.3563 10.1496 57.934 10.3283 57.5117 10.3283C57.0731 10.3283 56.6508 10.1496 56.3422 9.84102C56.0498 9.54865 55.8387 9.12633 55.8387 8.68777C55.8387 8.26545 56.0173 7.81065 56.3422 7.50203C56.6346 7.2259 57.0894 7.03099 57.5117 7.03099ZM61.8648 8.68777C61.8648 7.38833 61.2801 6.5437 60.7441 6.02392C60.1431 5.45542 59.1035 4.82194 57.4955 4.82194C55.9199 4.82194 54.8641 5.43917 54.2631 6.02392C53.7271 6.5437 53.1423 7.38833 53.1423 8.68777C53.1423 9.66235 53.4672 10.5882 54.2631 11.3679C55.2702 12.3587 56.4397 12.5698 57.4955 12.5698C58.665 12.5698 59.7857 12.31 60.7441 11.3679C61.54 10.5882 61.8648 9.66235 61.8648 8.68777Z" fill="#333435"/>
<defs>
<linearGradient id="paint0_linear" x1="7.96038" y1="13.3851" x2="7.96038" y2="3.26194" gradientUnits="userSpaceOnUse">
<stop stop-color="#009EFD"/>
<stop offset="1" stop-color="#2AF598"/>
</linearGradient>
<linearGradient id="paint1_linear" x1="7.96038" y1="13.4198" x2="7.96038" y2="3.29661" gradientUnits="userSpaceOnUse">
<stop stop-color="#009EFD"/>
<stop offset="1" stop-color="#2AF598"/>
</linearGradient>
<linearGradient id="paint2_linear" x1="15.494" y1="14.3196" x2="-2.47694" y2="9.07804" gradientUnits="userSpaceOnUse">
<stop stop-color="#00C1FF"/>
<stop offset="1" stop-color="#0024FF"/>
</linearGradient>
</defs>
</svg>
