<svg width="16" height="13" viewBox="0 0 16 13" fill="none" xmlns="http://www.w3.org/2000/svg" id="icon-password">
<mask id="path-1-inside-1_3518_17554" fill="white">
<path d="M13.867 12.5C13.797 12.5001 13.7276 12.4872 13.6629 12.462C13.5982 12.4369 13.5395 12.3999 13.49 12.3533L1.75695 1.34502C1.66116 1.25042 1.60854 1.12445 1.61032 0.993972C1.6121 0.863492 1.66814 0.738827 1.76648 0.646557C1.86483 0.554287 1.9977 0.501712 2.13677 0.500041C2.27584 0.498371 2.4101 0.547737 2.51094 0.637615L14.244 11.6459C14.3186 11.7159 14.3693 11.805 14.3899 11.9021C14.4104 11.9991 14.3999 12.0997 14.3595 12.1911C14.3192 12.2825 14.2509 12.3606 14.1632 12.4156C14.0755 12.4706 13.9725 12.5 13.867 12.5Z"/>
<path d="M7.98917 10.4985C6.6062 10.4985 5.27256 10.1144 4.02525 9.357C2.88961 8.66898 1.86729 7.68355 1.06864 6.5111V6.5086C1.7333 5.61512 2.46128 4.85955 3.24327 4.25034C3.25034 4.24479 3.25611 4.23792 3.26021 4.23018C3.26431 4.22243 3.26666 4.21397 3.2671 4.20533C3.26754 4.19668 3.26606 4.18805 3.26276 4.17997C3.25946 4.1719 3.25441 4.16455 3.24793 4.15839L2.58395 3.53636C2.57215 3.5252 2.5563 3.51862 2.53956 3.51792C2.52282 3.51723 2.50642 3.52247 2.49361 3.53261C1.66296 4.18935 0.89198 4.99496 0.190994 5.93817C0.0703916 6.10058 0.00397103 6.29295 0.000172541 6.49086C-0.00362595 6.68876 0.0553692 6.88326 0.169661 7.04963C1.04998 8.34217 2.18295 9.4308 3.4456 10.1973C4.86723 11.0614 6.3972 11.4992 7.98917 11.4992C8.84847 11.4967 9.70169 11.3639 10.5158 11.1058C10.5265 11.1024 10.5362 11.0965 10.5438 11.0886C10.5514 11.0807 10.5567 11.0711 10.5593 11.0608C10.5619 11.0504 10.5616 11.0396 10.5585 11.0294C10.5553 11.0191 10.5495 11.0098 10.5415 11.0023L9.82213 10.3274C9.80557 10.3123 9.7851 10.3014 9.76271 10.2959C9.74033 10.2904 9.71681 10.2905 9.69447 10.2961C9.13739 10.4307 8.56442 10.4987 7.98917 10.4985Z"/>
<path d="M15.8283 5.95131C14.9464 4.67159 13.8021 3.58452 12.5194 2.80738C11.1004 1.94673 9.5338 1.4917 7.98917 1.4917C7.13897 1.49311 6.2951 1.62875 5.49289 1.89294C5.4822 1.89643 5.47263 1.90241 5.46509 1.91033C5.45755 1.91824 5.45228 1.92783 5.44978 1.93819C5.44728 1.94854 5.44763 1.95933 5.45079 1.96952C5.45396 1.97971 5.45984 1.98898 5.46789 1.99645L6.1862 2.6704C6.20293 2.68582 6.22369 2.69683 6.2464 2.70232C6.2691 2.70781 6.29295 2.70759 6.31553 2.70167C6.86118 2.56318 7.42391 2.49284 7.98917 2.49245C9.34547 2.49245 10.6751 2.88118 11.9408 3.64957C13.0977 4.3501 14.132 5.33459 14.9327 6.49547L14.9336 6.49797L14.9327 6.50047C14.3515 7.35891 13.6303 8.12643 12.7954 8.775C12.7883 8.78053 12.7824 8.78739 12.7782 8.79515C12.7741 8.80292 12.7717 8.81141 12.7712 8.82009C12.7707 8.82877 12.7722 8.83745 12.7755 8.84557C12.7788 8.85369 12.7839 8.86108 12.7904 8.86725L13.4537 9.48929C13.4655 9.50041 13.4812 9.50699 13.4979 9.50774C13.5145 9.5085 13.5309 9.50336 13.5437 9.49335C14.435 8.78923 15.2066 7.96158 15.8317 7.039C15.9422 6.87643 16.0006 6.68751 16 6.4947C15.9994 6.30188 15.9398 6.11328 15.8283 5.95131Z"/>
<path d="M8.0005 3.4932C7.76081 3.49308 7.52187 3.51826 7.28818 3.56826C7.27638 3.57056 7.26546 3.57582 7.25659 3.58348C7.24772 3.59114 7.24123 3.60091 7.23781 3.61176C7.23439 3.6226 7.23417 3.63412 7.23717 3.64507C7.24017 3.65602 7.24628 3.66601 7.25485 3.67397L11.0078 7.19412C11.0163 7.20216 11.0269 7.2079 11.0386 7.21071C11.0502 7.21353 11.0625 7.21332 11.0741 7.21011C11.0856 7.2069 11.0961 7.20081 11.1042 7.19249C11.1124 7.18417 11.118 7.17392 11.1204 7.16285C11.2273 6.72316 11.2272 6.26653 11.1201 5.82687C11.0131 5.38722 10.8019 4.97584 10.5021 4.62329C10.2024 4.27074 9.82184 3.98607 9.38875 3.79043C8.95567 3.59478 8.48117 3.4932 8.0005 3.4932Z"/>
<path d="M4.99322 5.79681C4.98474 5.78877 4.9741 5.78304 4.96242 5.78022C4.95075 5.77741 4.93848 5.77762 4.92692 5.78082C4.91536 5.78403 4.90494 5.79012 4.89678 5.79845C4.88861 5.80677 4.88301 5.81701 4.88056 5.82809C4.75968 6.32357 4.77485 6.83973 4.92467 7.32821C5.07449 7.81668 5.35404 8.26147 5.73713 8.62089C6.12021 8.98031 6.59429 9.24259 7.11492 9.38316C7.63556 9.52372 8.18571 9.53796 8.71382 9.42455C8.72562 9.42225 8.73654 9.41699 8.74541 9.40933C8.75428 9.40167 8.76077 9.3919 8.76419 9.38105C8.76761 9.3702 8.76783 9.35869 8.76483 9.34774C8.76183 9.33678 8.75572 9.3268 8.74715 9.31884L4.99322 5.79681Z"/>
</mask>
<path d="M13.867 12.5L13.8666 11.5L13.8655 11.5L13.867 12.5ZM13.6629 12.462L13.3003 13.394L13.3003 13.394L13.6629 12.462ZM13.49 12.3533L14.176 11.6257L14.1743 11.6241L13.49 12.3533ZM1.75695 1.34502L1.05429 2.05655L1.0634 2.06554L1.07273 2.0743L1.75695 1.34502ZM1.61032 0.993972L2.61023 1.00762L1.61032 0.993972ZM2.13677 0.500041L2.14878 1.49997L2.13677 0.500041ZM2.51094 0.637615L3.19516 -0.0916582L3.18586 -0.100386L3.17633 -0.108874L2.51094 0.637615ZM14.244 11.6459L14.9285 10.9169L14.9283 10.9166L14.244 11.6459ZM14.3899 11.9021L13.4116 12.1093L13.4116 12.1093L14.3899 11.9021ZM14.3595 12.1911L15.2744 12.5949L15.2744 12.5949L14.3595 12.1911ZM14.1632 12.4156L14.6946 13.2627L14.6946 13.2627L14.1632 12.4156ZM7.98917 10.4985L7.98958 9.49848H7.98917V10.4985ZM4.02525 9.357L4.5443 8.50225L4.54341 8.50171L4.02525 9.357ZM1.06864 6.5111H0.0686432V6.81934L0.242172 7.07408L1.06864 6.5111ZM1.06864 6.5086L0.266295 5.91175L0.0686432 6.17745V6.5086H1.06864ZM3.24327 4.25034L3.85784 5.03921L3.86045 5.03716L3.24327 4.25034ZM3.26021 4.23018L4.14399 4.69808L4.14399 4.69807L3.26021 4.23018ZM3.2671 4.20533L2.26838 4.15461L2.26838 4.15465L3.2671 4.20533ZM3.26276 4.17997L4.18856 3.80195L4.18854 3.80192L3.26276 4.17997ZM3.24793 4.15839L3.93658 3.43327L3.93161 3.42861L3.24793 4.15839ZM2.58395 3.53636L1.89673 4.26283L1.90027 4.26615L2.58395 3.53636ZM2.49361 3.53261L3.11382 4.31705L3.11442 4.31657L2.49361 3.53261ZM0.190994 5.93817L-0.611621 5.34167L-0.611847 5.34198L0.190994 5.93817ZM0.000172541 6.49086L0.999988 6.51005L0.000172541 6.49086ZM0.169661 7.04963L0.996181 6.48671L0.993911 6.48341L0.169661 7.04963ZM3.4456 10.1973L3.96499 9.34278L3.96453 9.3425L3.4456 10.1973ZM7.98917 11.4992V12.4992L7.99208 12.4992L7.98917 11.4992ZM10.5158 11.1058L10.818 12.0591L10.819 12.0587L10.5158 11.1058ZM10.5438 11.0886L11.2631 11.7833L11.2631 11.7832L10.5438 11.0886ZM10.5593 11.0608L11.5299 11.3014L11.5299 11.3014L10.5593 11.0608ZM10.5585 11.0294L11.5149 10.7373L11.5148 10.7372L10.5585 11.0294ZM10.5415 11.0023L9.85723 11.7316L9.85815 11.7324L10.5415 11.0023ZM9.82213 10.3274L10.5064 9.59809L10.4973 9.58973L9.82213 10.3274ZM9.69447 10.2961L9.92932 11.2682L9.93867 11.2659L9.69447 10.2961ZM15.8283 5.95131L16.6521 5.38434L16.6517 5.38383L15.8283 5.95131ZM12.5194 2.80738L12.0008 3.6624L12.0012 3.66264L12.5194 2.80738ZM7.98917 1.4917V0.491695L7.9875 0.491698L7.98917 1.4917ZM5.49289 1.89294L5.80325 2.84356L5.80568 2.84276L5.49289 1.89294ZM5.46509 1.91033L4.74104 1.22057L4.74104 1.22057L5.46509 1.91033ZM5.44978 1.93819L4.47772 1.70343L5.44978 1.93819ZM5.45079 1.96952L6.40574 1.67273V1.67273L5.45079 1.96952ZM5.46789 1.99645L6.15212 1.26717L6.14855 1.26386L5.46789 1.99645ZM6.1862 2.6704L5.50196 3.3997L5.50824 3.4055L6.1862 2.6704ZM6.31553 2.70167L6.06952 1.73237L6.06207 1.73433L6.31553 2.70167ZM7.98917 2.49245V1.49245L7.98848 1.49245L7.98917 2.49245ZM11.9408 3.64957L11.4218 4.50437L11.4228 4.50499L11.9408 3.64957ZM14.9327 6.49547L15.8714 6.15084L15.8278 6.03196L15.7559 5.92771L14.9327 6.49547ZM14.9336 6.49797L15.8724 6.84244L15.9988 6.49788L15.8724 6.15334L14.9336 6.49797ZM14.9327 6.50047L15.7608 7.0611L15.8293 6.95979L15.8715 6.84495L14.9327 6.50047ZM12.7954 8.775L13.4071 9.56613L13.4089 9.56471L12.7954 8.775ZM12.7782 8.79515L11.897 8.32251L11.897 8.32254L12.7782 8.79515ZM12.7712 8.82009L13.7698 8.87423L13.7698 8.87415L12.7712 8.82009ZM12.7904 8.86725L12.1022 9.59282L12.1064 9.5967L12.7904 8.86725ZM13.4537 9.48929L14.1414 8.76323L14.1378 8.75984L13.4537 9.48929ZM13.5437 9.49335L14.159 10.2817L14.1636 10.278L13.5437 9.49335ZM15.8317 7.039L15.0046 6.4769L15.0038 6.47808L15.8317 7.039ZM16 6.4947L15 6.49776V6.49776L16 6.4947ZM8.0005 3.4932L7.99999 4.4932H8.00052L8.0005 3.4932ZM7.28818 3.56826L7.4794 4.54981L7.48842 4.54805L7.49741 4.54613L7.28818 3.56826ZM7.25659 3.58348L7.91014 4.34036L7.91014 4.34036L7.25659 3.58348ZM7.23781 3.61176L6.2841 3.31102V3.31102L7.23781 3.61176ZM7.23717 3.64507L8.20164 3.38089L7.23717 3.64507ZM7.25485 3.67397L7.93898 2.94459L7.93516 2.94105L7.25485 3.67397ZM11.0078 7.19412L11.6959 6.4685L11.6919 6.46476L11.0078 7.19412ZM11.0741 7.21011L10.8066 6.24654L10.8066 6.24655L11.0741 7.21011ZM11.1042 7.19249L10.3904 6.49221L10.3903 6.49222L11.1042 7.19249ZM11.1204 7.16285L10.1487 6.92671L10.1463 6.93672L10.1441 6.94677L11.1204 7.16285ZM11.1201 5.82687L10.1485 6.06344V6.06344L11.1201 5.82687ZM10.5021 4.62329L9.74026 5.27103L9.74026 5.27103L10.5021 4.62329ZM9.38875 3.79043L9.80044 2.8791V2.8791L9.38875 3.79043ZM4.99322 5.79681L4.3051 6.52243L4.309 6.52609L4.99322 5.79681ZM4.96242 5.78022L5.19683 4.80808L4.96242 5.78022ZM4.89678 5.79845L5.61066 6.49872L5.61066 6.49872L4.89678 5.79845ZM4.88056 5.82809L5.85206 6.0651L5.85461 6.05467L5.85693 6.04417L4.88056 5.82809ZM4.92467 7.32821L3.96863 7.62143L4.92467 7.32821ZM5.73713 8.62089L5.0529 9.35017H5.0529L5.73713 8.62089ZM7.11492 9.38316L6.85427 10.3486H6.85427L7.11492 9.38316ZM8.71382 9.42455L8.5226 8.443L8.5132 8.44483L8.50385 8.44684L8.71382 9.42455ZM8.74715 9.31884L8.06292 10.0481L8.06684 10.0518L8.74715 9.31884ZM13.8655 11.5C13.9189 11.4999 13.9731 11.5097 14.0255 11.5301L13.3003 13.394C13.4822 13.4647 13.6751 13.5003 13.8685 13.5L13.8655 11.5ZM14.0255 11.5301C14.078 11.5505 14.1297 11.582 14.176 11.6257L12.8041 13.0809C12.9492 13.2178 13.1184 13.3232 13.3003 13.394L14.0255 11.5301ZM14.1743 11.6241L2.44117 0.61575L1.07273 2.0743L12.8058 13.0826L14.1743 11.6241ZM2.45961 0.6335C2.55052 0.723278 2.61229 0.856429 2.61023 1.00762L0.610413 0.980327C0.604789 1.39247 0.771788 1.77756 1.05429 2.05655L2.45961 0.6335ZM2.61023 1.00762C2.60817 1.15868 2.54294 1.28929 2.45071 1.37583L1.08226 -0.0827157C0.793332 0.188364 0.616036 0.568303 0.610413 0.980327L2.61023 1.00762ZM2.45071 1.37583C2.36049 1.46047 2.2511 1.49874 2.14878 1.49997L2.12476 -0.499887C1.74431 -0.495317 1.36917 -0.351899 1.08226 -0.0827157L2.45071 1.37583ZM2.14878 1.49997C2.0465 1.5012 1.93699 1.46562 1.84554 1.3841L3.17633 -0.108874C2.88322 -0.370145 2.50518 -0.504457 2.12476 -0.499887L2.14878 1.49997ZM1.82671 1.36689L13.5598 12.3752L14.9283 10.9166L3.19516 -0.0916582L1.82671 1.36689ZM13.5596 12.375C13.49 12.3097 13.4347 12.2186 13.4116 12.1093L15.3682 11.6948C15.3039 11.3915 15.1471 11.1221 14.9285 10.9169L13.5596 12.375ZM13.4116 12.1093C13.3883 11.9995 13.401 11.8863 13.4447 11.7873L15.2744 12.5949C15.3988 12.313 15.4326 11.9987 15.3682 11.6948L13.4116 12.1093ZM13.4447 11.7873C13.488 11.6891 13.5567 11.6156 13.6318 11.5685L14.6946 13.2627C14.9451 13.1056 15.1504 12.8758 15.2744 12.5949L13.4447 11.7873ZM13.6318 11.5685C13.7064 11.5217 13.788 11.5 13.8666 11.5L13.8675 13.5C14.157 13.4999 14.4446 13.4195 14.6946 13.2627L13.6318 11.5685ZM7.98917 9.49848C6.79951 9.49848 5.64416 9.17016 4.5443 8.50226L3.5062 10.2117C4.90096 11.0587 6.41289 11.4985 7.98917 11.4985V9.49848ZM4.54341 8.50171C3.53917 7.8933 2.61917 7.01107 1.89511 5.94812L0.242172 7.07408C1.11541 8.35603 2.24005 9.44465 3.50709 10.2123L4.54341 8.50171ZM2.06864 6.5111V6.5086H0.0686432V6.5111H2.06864ZM1.87099 7.10546C2.4883 6.27562 3.1547 5.58698 3.85783 5.0392L2.6287 3.46147C1.76786 4.13211 0.978292 4.95462 0.266295 5.91175L1.87099 7.10546ZM3.86045 5.03716C3.97485 4.94742 4.07264 4.83284 4.14399 4.69808L2.37643 3.76228C2.43958 3.643 2.52583 3.54215 2.62609 3.46352L3.86045 5.03716ZM4.14399 4.69807C4.21546 4.56308 4.25787 4.41243 4.26581 4.256L2.26838 4.15465C2.27544 4.01551 2.31316 3.88178 2.37643 3.76228L4.14399 4.69807ZM4.26581 4.25604C4.27375 4.09957 4.24683 3.94466 4.18856 3.80195L2.33696 4.558C2.28529 4.43145 2.26132 4.2938 2.26838 4.15461L4.26581 4.25604ZM4.18854 3.80192C4.13036 3.65945 4.04324 3.5346 3.93657 3.43329L2.5593 4.8835C2.46558 4.7945 2.38856 4.68435 2.33698 4.55803L4.18854 3.80192ZM3.93161 3.42861L3.26762 2.80657L1.90027 4.26615L2.56426 4.88818L3.93161 3.42861ZM3.27116 2.8099C3.07812 2.6273 2.83058 2.52915 2.58107 2.51878L2.49805 4.51706C2.28202 4.50808 2.06617 4.4231 1.89674 4.26282L3.27116 2.8099ZM2.58107 2.51878C2.33167 2.50842 2.07871 2.58559 1.87281 2.74864L3.11442 4.31657C2.93413 4.45934 2.71397 4.52603 2.49805 4.51706L2.58107 2.51878ZM1.87341 2.74817C0.966843 3.46494 0.135946 4.33579 -0.611621 5.34167L0.99361 6.53467C1.64801 5.65414 2.35909 4.91377 3.11382 4.31705L1.87341 2.74817ZM-0.611847 5.34198C-0.853652 5.6676 -0.991757 6.06078 -0.999643 6.47167L0.999988 6.51005C0.999856 6.51696 0.998609 6.52298 0.997028 6.52756C0.996263 6.52978 0.995488 6.53146 0.994871 6.53263C0.994565 6.53321 0.994308 6.53364 0.994124 6.53393C0.993939 6.53422 0.993834 6.53437 0.993836 6.53436L-0.611847 5.34198ZM-0.999643 6.47167C-1.00753 6.88262 -0.884562 7.28109 -0.654588 7.61586L0.993911 6.48341C0.994362 6.48406 0.996062 6.4868 0.99758 6.49181C0.999108 6.49685 1.00012 6.50313 0.999988 6.51005L-0.999643 6.47167ZM-0.656851 7.61255C0.299121 9.01617 1.53469 10.2071 2.92666 11.0521L3.96453 9.3425C2.83122 8.6545 1.80083 7.66817 0.996174 6.48672L-0.656851 7.61255ZM2.9262 11.0519C4.49732 12.0068 6.20592 12.4992 7.98917 12.4992V10.4992C6.58848 10.4992 5.23715 10.116 3.96499 9.34278L2.9262 11.0519ZM7.99208 12.4992C8.95229 12.4964 9.90645 12.348 10.818 12.0591L10.2136 10.1526C9.49692 10.3797 8.74465 10.497 7.98626 10.4992L7.99208 12.4992ZM10.819 12.0587C10.9831 12.0065 11.137 11.9138 11.2631 11.7833L9.82445 10.3939C9.93531 10.2791 10.07 10.1983 10.2125 10.1529L10.819 12.0587ZM11.2631 11.7832C11.3895 11.6523 11.4838 11.4874 11.5299 11.3014L9.58869 10.8201C9.62966 10.6549 9.71327 10.509 9.82442 10.3939L11.2631 11.7832ZM11.5299 11.3014C11.5761 11.1151 11.5707 10.9202 11.5149 10.7373L9.60206 11.3214C9.55244 11.1589 9.54765 10.9856 9.58869 10.8201L11.5299 11.3014ZM11.5148 10.7372C11.4591 10.5548 11.3568 10.3958 11.2248 10.2722L9.85815 11.7324C9.74213 11.6239 9.65156 11.4835 9.60208 11.3215L11.5148 10.7372ZM11.2257 10.273L10.5064 9.59814L9.13791 11.0567L9.85723 11.7316L11.2257 10.273ZM10.4973 9.58973C10.3535 9.45817 10.1816 9.36897 10.0007 9.32464L9.52477 11.2672C9.38862 11.2338 9.25762 11.1664 9.14699 11.0651L10.4973 9.58973ZM10.0007 9.32464C9.81986 9.28035 9.63081 9.28095 9.45026 9.32642L9.93867 11.2659C9.80281 11.3001 9.6608 11.3005 9.52477 11.2672L10.0007 9.32464ZM9.45963 9.32411C8.97987 9.44002 8.48588 9.49868 7.98958 9.49848L7.98876 11.4985C8.64296 11.4987 9.29491 11.4214 9.92931 11.2682L9.45963 9.32411ZM16.6517 5.38383C15.6924 3.99195 14.4455 2.80517 13.0376 1.95212L12.0012 3.66264C13.1586 4.36388 14.2003 5.35123 15.005 6.51879L16.6517 5.38383ZM13.038 1.95236C11.4748 1.00422 9.73034 0.491697 7.98917 0.491697V2.4917C9.33727 2.4917 10.7261 2.88924 12.0008 3.6624L13.038 1.95236ZM7.9875 0.491698C7.03231 0.493288 6.08338 0.645644 5.18009 0.943116L5.80568 2.84276C6.50681 2.61186 7.24564 2.49294 7.99083 2.4917L7.9875 0.491698ZM5.18252 0.942318C5.01911 0.995669 4.86608 1.08932 4.74104 1.22057L6.18913 2.60008C6.07918 2.7155 5.94528 2.79718 5.80325 2.84356L5.18252 0.942318ZM4.74104 1.22057C4.61563 1.35222 4.5226 1.5176 4.47772 1.70343L6.42183 2.17294C6.38195 2.33806 6.29946 2.48427 6.18913 2.60008L4.74104 1.22057ZM4.47772 1.70343C4.43275 1.88964 4.43922 2.08409 4.49585 2.26631L6.40574 1.67273C6.45603 1.83456 6.4618 2.00745 6.42183 2.17294L4.47772 1.70343ZM4.49585 2.26631C4.55235 2.4481 4.65507 2.60627 4.78722 2.72905L6.14855 1.26386C6.26462 1.37169 6.35557 1.51132 6.40574 1.67273L4.49585 2.26631ZM4.78366 2.72572L5.50198 3.39967L6.87043 1.94112L6.15211 1.26718L4.78366 2.72572ZM5.50824 3.4055C5.65352 3.53948 5.82791 3.62995 6.01136 3.67431L6.48143 1.73034C6.61947 1.76372 6.75234 1.83216 6.86416 1.9353L5.50824 3.4055ZM6.01136 3.67431C6.19468 3.71864 6.38637 3.71687 6.569 3.66901L6.06207 1.73433C6.19953 1.69831 6.34353 1.69699 6.48143 1.73034L6.01136 3.67431ZM6.56154 3.67094C7.02666 3.55289 7.50698 3.49278 7.98985 3.49245L7.98848 1.49245C7.34084 1.49289 6.69569 1.57348 6.06953 1.7324L6.56154 3.67094ZM7.98917 3.49245C9.14629 3.49245 10.2982 3.8222 11.4218 4.50437L12.4597 2.79478C11.0521 1.94016 9.54466 1.49245 7.98917 1.49245V3.49245ZM11.4228 4.50499C12.4534 5.12898 13.3854 6.01335 14.1095 7.06322L15.7559 5.92771C14.8787 4.65583 13.7421 3.57123 12.4587 2.79416L11.4228 4.50499ZM13.994 6.8401L13.9949 6.8426L15.8724 6.15334L15.8714 6.15084L13.994 6.8401ZM13.9948 6.15349L13.9939 6.156L15.8715 6.84495L15.8724 6.84244L13.9948 6.15349ZM14.1046 5.93985C13.5836 6.70936 12.9354 7.4 12.1819 7.98528L13.4089 9.56471C14.3253 8.85285 15.1194 8.00845 15.7608 7.0611L14.1046 5.93985ZM12.1838 7.98387C12.0683 8.0731 11.9694 8.18751 11.897 8.32251L13.6595 9.26779C13.5954 9.38727 13.5082 9.48795 13.4071 9.56613L12.1838 7.98387ZM11.897 8.32254C11.8245 8.45773 11.7812 8.60889 11.7727 8.76603L13.7698 8.87415C13.7622 9.01393 13.7237 9.1481 13.6595 9.26776L11.897 8.32254ZM11.7727 8.76595C11.7642 8.92311 11.7908 9.07886 11.8492 9.22237L13.7018 8.46877C13.7536 8.59604 13.7773 8.73443 13.7698 8.87423L11.7727 8.76595ZM11.8492 9.22237C11.9075 9.36565 11.995 9.49113 12.1022 9.5928L13.4786 8.14171C13.5727 8.23103 13.6501 8.34173 13.7018 8.46877L11.8492 9.22237ZM12.1064 9.5967L12.7697 10.2187L14.1378 8.75984L13.4744 8.13781L12.1064 9.5967ZM12.7661 10.2153C12.9582 10.3973 13.2044 10.4955 13.4528 10.5067L13.543 8.50876C13.7581 8.51848 13.9728 8.60354 14.1414 8.76324L12.7661 10.2153ZM13.4528 10.5067C13.7011 10.5179 13.9531 10.4424 14.159 10.2816L12.9284 8.70506C13.1087 8.56435 13.328 8.49905 13.543 8.50876L13.4528 10.5067ZM14.1636 10.278C15.1337 9.51166 15.9759 8.60895 16.6595 7.59993L15.0038 6.47808C14.4373 7.31422 13.7363 8.06679 12.9238 8.70866L14.1636 10.278ZM16.6587 7.6011C16.8802 7.27532 17.0012 6.89009 17 6.49163L15 6.49776C15 6.49193 15.0009 6.48676 15.0021 6.48275C15.0034 6.47878 15.0046 6.4769 15.0046 6.4769L16.6587 7.6011ZM17 6.49163C16.9988 6.09318 16.8754 5.70874 16.6521 5.38434L15.0046 6.51827C15.0047 6.51836 15.0034 6.51656 15.0022 6.51266C15.001 6.50873 15 6.50359 15 6.49776L17 6.49163ZM8.00101 2.4932C7.69103 2.49305 7.38178 2.5256 7.07895 2.59039L7.49741 4.54613C7.66195 4.51092 7.83059 4.49312 7.99999 4.4932L8.00101 2.4932ZM7.09696 2.58671C6.91876 2.62143 6.74735 2.70198 6.60303 2.8266L7.91014 4.34036C7.78356 4.44966 7.63399 4.51969 7.4794 4.54981L7.09696 2.58671ZM6.60303 2.8266C6.45823 2.95163 6.34508 3.11764 6.2841 3.31102L8.19151 3.9125C8.13737 4.08418 8.0372 4.23064 7.91014 4.34036L6.60303 2.8266ZM6.2841 3.31102C6.22294 3.50498 6.21884 3.71263 6.27269 3.90926L8.20164 3.38089C8.24949 3.5556 8.24584 3.74022 8.19151 3.9125L6.2841 3.31102ZM6.27269 3.90926C6.32641 4.10537 6.43367 4.27613 6.57453 4.40689L7.93516 2.94105C8.05888 3.05589 8.15392 3.20668 8.20164 3.38089L6.27269 3.90926ZM6.57072 4.40333L10.3236 7.92349L11.6919 6.46476L7.93897 2.9446L6.57072 4.40333ZM10.3197 7.91973C10.4588 8.05168 10.6272 8.14018 10.8042 8.18285L11.273 6.23857C11.4266 6.27561 11.5737 6.35265 11.6959 6.46852L10.3197 7.91973ZM10.8042 8.18285C10.981 8.22548 11.166 8.22242 11.3416 8.17367L10.8066 6.24655C10.9591 6.20422 11.1195 6.20158 11.273 6.23857L10.8042 8.18285ZM11.3415 8.17368C11.5173 8.1249 11.6831 8.03034 11.8181 7.89276L10.3903 6.49222C10.509 6.37129 10.654 6.2889 10.8066 6.24654L11.3415 8.17368ZM11.8181 7.89277C11.9535 7.75472 12.0527 7.57807 12.0968 7.37893L10.1441 6.94677C10.1832 6.76978 10.2712 6.61362 10.3904 6.49221L11.8181 7.89277ZM12.0922 7.39899C12.2368 6.80398 12.2366 6.18525 12.0918 5.59031L10.1485 6.06344C10.2178 6.3478 10.2178 6.64233 10.1487 6.92671L12.0922 7.39899ZM12.0918 5.59031C11.947 4.9956 11.6624 4.44414 11.264 3.97555L9.74026 5.27103C9.94135 5.50754 10.0792 5.77884 10.1485 6.06344L12.0918 5.59031ZM11.264 3.97555C10.8658 3.50723 10.3646 3.13394 9.80044 2.8791L8.97707 4.70175C9.27911 4.8382 9.53894 5.03424 9.74026 5.27103L11.264 3.97555ZM9.80044 2.8791C9.23645 2.62432 8.62144 2.49319 8.00048 2.4932L8.00052 4.4932C8.34089 4.4932 8.67489 4.56525 8.97707 4.70175L9.80044 2.8791ZM5.68134 5.07121C5.54217 4.93924 5.37377 4.85075 5.19683 4.80808L4.72802 6.75236C4.57443 6.71533 4.42732 6.63831 4.30511 6.52242L5.68134 5.07121ZM5.19683 4.80808C5.02005 4.76546 4.83505 4.76852 4.65945 4.81726L5.19439 6.74439C5.04191 6.78672 4.88144 6.78936 4.72802 6.75236L5.19683 4.80808ZM4.65945 4.81726C4.48369 4.86604 4.31784 4.96061 4.1829 5.09818L5.61066 6.49872C5.49204 6.61963 5.34702 6.70202 5.19439 6.74439L4.65945 4.81726ZM4.1829 5.09818C4.04748 5.23623 3.94825 5.41287 3.90418 5.612L5.85693 6.04417C5.81776 6.22116 5.72975 6.37731 5.61066 6.49872L4.1829 5.09818ZM3.90905 5.59107C3.74541 6.2618 3.76612 6.96115 3.96863 7.62143L5.88072 7.03499C5.78359 6.71832 5.77394 6.38534 5.85206 6.0651L3.90905 5.59107ZM3.96863 7.62143C4.17101 8.28128 4.54651 8.87506 5.0529 9.35017L6.42135 7.89162C6.16157 7.64789 5.97797 7.35209 5.88072 7.03499L3.96863 7.62143ZM5.0529 9.35017C5.55893 9.82493 6.17959 10.1664 6.85427 10.3486L7.37557 8.41772C7.00898 8.31875 6.68149 8.13569 6.42135 7.89162L5.0529 9.35017ZM6.85427 10.3486C7.52883 10.5307 8.24033 10.549 8.92379 10.4023L8.50385 8.44684C8.13109 8.52689 7.74229 8.51673 7.37557 8.41772L6.85427 10.3486ZM8.90504 10.4061C9.08324 10.3714 9.25464 10.2908 9.39896 10.1662L8.09186 8.65245C8.21844 8.54315 8.368 8.47312 8.5226 8.443L8.90504 10.4061ZM9.39896 10.1662C9.54377 10.0412 9.65692 9.87516 9.7179 9.68178L7.81048 9.08032C7.86462 8.90863 7.96479 8.76217 8.09186 8.65245L9.39896 10.1662ZM9.7179 9.68178C9.77905 9.48786 9.78317 9.28022 9.72931 9.08356L7.80036 9.61191C7.75249 9.43716 7.75617 9.25255 7.81048 9.08032L9.7179 9.68178ZM9.72931 9.08356C9.67558 8.88741 9.5683 8.71664 9.42746 8.58591L8.06684 10.0518C7.94314 9.93695 7.84808 9.78615 7.80036 9.61191L9.72931 9.08356ZM9.43137 8.58957L5.67744 5.06754L4.309 6.52609L8.06293 10.0481L9.43137 8.58957Z" fill="#000000" mask="url(#path-1-inside-1_3518_17554)"/>
</svg>
