<svg width="28" height="17" viewBox="0 0 28 17" fill="none" xmlns="http://www.w3.org/2000/svg">
<path d="M18.1304 1.95886H9.90967V14.6115H18.1304V1.95886Z" fill="#FF5F00"/>
<path d="M10.7558 8.28532C10.7548 7.06698 11.0479 5.86438 11.6129 4.76855C12.1779 3.67271 13.0001 2.71234 14.0171 1.96011C12.7575 1.02725 11.2447 0.447158 9.65172 0.286136C8.05876 0.125114 6.44985 0.389658 5.00889 1.04953C3.56792 1.70941 2.35304 2.73799 1.50308 4.01773C0.653128 5.29747 0.202393 6.77672 0.202393 8.28643C0.202393 9.79614 0.653128 11.2754 1.50308 12.5551C2.35304 13.8349 3.56792 14.8635 5.00889 15.5233C6.44985 16.1832 8.05876 16.4478 9.65172 16.2867C11.2447 16.1257 12.7575 15.5456 14.0171 14.6128C12.9997 13.8603 12.1774 12.8996 11.6124 11.8033C11.0474 10.7071 10.7544 9.50403 10.7558 8.28532Z" fill="#EB001B"/>
<path d="M27.8335 8.28628C27.8335 9.79611 27.3826 11.2755 26.5325 12.5552C25.6824 13.835 24.4673 14.8636 23.0262 15.5234C21.5851 16.1831 19.976 16.4475 18.383 16.2863C16.7899 16.125 15.2771 15.5446 14.0176 14.6115C15.0342 13.8586 15.8561 12.898 16.4213 11.8021C16.9864 10.7062 17.2801 9.50362 17.2801 8.28517C17.2801 7.06671 16.9864 5.86417 16.4213 4.76827C15.8561 3.67237 15.0342 2.71174 14.0176 1.95885C15.2771 1.02569 16.7899 0.445317 18.383 0.284064C19.976 0.122811 21.5851 0.387185 23.0262 1.04697C24.4673 1.70675 25.6824 2.73532 26.5325 4.0151C27.3826 5.29487 27.8335 6.77423 27.8335 8.28405V8.28628Z" fill="#F79E1B"/>
</svg>
