<svg width="61" height="16" viewBox="0 0 61 16" fill="none" xmlns="http://www.w3.org/2000/svg">
<path d="M7.40918 0.477173H2.7009C2.37871 0.477173 2.1047 0.692765 2.05445 0.985717L0.150206 12.1058C0.112342 12.3252 0.296845 12.5231 0.538489 12.5231H2.78626C3.10846 12.5231 3.38246 12.3075 3.43272 12.0139L3.9463 9.01463C3.99587 8.72104 4.27056 8.50545 4.59206 8.50545H6.08254C9.18399 8.50545 10.974 7.12312 11.4414 4.38383C11.6521 3.18539 11.4504 2.24376 10.8411 1.5843C10.1719 0.860166 8.98503 0.477173 7.40918 0.477173ZM7.95236 4.53855C7.69488 6.09462 6.40405 6.09462 5.1559 6.09462H4.44542L4.94386 3.18856C4.97346 3.01292 5.13869 2.88356 5.33145 2.88356H5.65708C6.50732 2.88356 7.30935 2.88356 7.7238 3.32997C7.97095 3.59629 8.04668 3.99196 7.95236 4.53855Z" fill="#253B80"/>
<path d="M21.4823 4.48827H19.2277C19.0356 4.48827 18.8697 4.61762 18.8401 4.79327L18.7403 5.3741L18.5826 5.16358C18.0945 4.5111 17.0061 4.29297 15.9197 4.29297C13.4282 4.29297 11.3003 6.03102 10.8858 8.46912C10.6703 9.68531 10.9767 10.8482 11.7257 11.6592C12.4128 12.4049 13.3959 12.7156 14.5655 12.7156C16.573 12.7156 17.6863 11.5267 17.6863 11.5267L17.5857 12.1037C17.5479 12.3244 17.7324 12.5223 17.9727 12.5223H20.0036C20.3264 12.5223 20.5991 12.3067 20.65 12.0131L21.8686 4.9055C21.9071 4.68674 21.7233 4.48827 21.4823 4.48827ZM18.3396 8.52999C18.122 9.71638 17.0997 10.5128 15.7958 10.5128C15.1411 10.5128 14.6179 10.3194 14.2819 9.9529C13.9487 9.58893 13.822 9.07087 13.928 8.49385C14.1311 7.3176 15.1707 6.49518 16.4546 6.49518C17.0949 6.49518 17.6154 6.69112 17.9582 7.06079C18.3017 7.43427 18.438 7.9555 18.3396 8.52999Z" fill="#253B80"/>
<path d="M33.4901 4.4884H31.2244C31.0083 4.4884 30.8052 4.58732 30.6826 4.75282L27.5578 8.99238L26.2332 4.91832C26.1499 4.66341 25.8945 4.4884 25.6053 4.4884H23.3789C23.1083 4.4884 22.9204 4.7319 23.0064 4.96651L25.5021 11.712L23.1558 14.7626C22.9713 15.003 23.1572 15.3333 23.476 15.3333H25.7389C25.9537 15.3333 26.1547 15.2369 26.2766 15.0746L33.8123 5.05592C33.9927 4.81623 33.8075 4.4884 33.4901 4.4884Z" fill="#253B80"/>
<path d="M40.9919 0.477295H36.283C35.9615 0.477295 35.6875 0.692887 35.6372 0.985839L33.733 12.106C33.6951 12.3254 33.8796 12.5232 34.1199 12.5232H36.5363C36.7608 12.5232 36.9528 12.3723 36.9879 12.1668L37.5284 9.01475C37.5779 8.72116 37.8526 8.50557 38.1741 8.50557H39.6639C42.7661 8.50557 44.5553 7.12324 45.0235 4.38395C45.2348 3.18551 45.0317 2.24388 44.4225 1.58442C43.754 0.860288 42.5678 0.477295 40.9919 0.477295ZM41.5351 4.53867C41.2783 6.09474 39.9875 6.09474 38.7387 6.09474H38.0289L38.528 3.18868C38.5576 3.01304 38.7214 2.88368 38.9149 2.88368H39.2405C40.0901 2.88368 40.8928 2.88368 41.3072 3.33009C41.5544 3.59641 41.6294 3.99208 41.5351 4.53867Z" fill="#179BD7"/>
<path d="M55.0656 4.48827H52.8123C52.6189 4.48827 52.4543 4.61762 52.4254 4.79327L52.3256 5.3741L52.1672 5.16358C51.6791 4.5111 50.5914 4.29297 49.505 4.29297C47.0135 4.29297 44.8862 6.03102 44.4718 8.46912C44.257 9.68531 44.562 10.8482 45.311 11.6592C45.9995 12.4049 46.9812 12.7156 48.1509 12.7156C50.1584 12.7156 51.2716 11.5267 51.2716 11.5267L51.1711 12.1037C51.1332 12.3244 51.3177 12.5223 51.5594 12.5223H53.5896C53.9111 12.5223 54.1851 12.3067 54.2353 12.0131L55.4546 4.9055C55.4918 4.68674 55.3073 4.48827 55.0656 4.48827ZM51.9229 8.52999C51.7067 9.71638 50.683 10.5128 49.379 10.5128C48.7257 10.5128 48.2011 10.3194 47.8651 9.9529C47.5319 9.58893 47.4066 9.07087 47.5113 8.49385C47.7158 7.3176 48.7539 6.49518 50.0379 6.49518C50.6781 6.49518 51.1986 6.69112 51.5415 7.06079C51.8864 7.43427 52.0227 7.9555 51.9229 8.52999Z" fill="#179BD7"/>
<path d="M57.7223 0.78183L55.7899 12.1055C55.752 12.3249 55.9365 12.5227 56.1768 12.5227H58.1196C58.4424 12.5227 58.7164 12.3071 58.766 12.0136L60.6716 0.894065C60.7095 0.674668 60.525 0.476196 60.2847 0.476196H58.1092C57.9172 0.47683 57.7519 0.606186 57.7223 0.78183Z" fill="#179BD7"/>
</svg>
