<svg width="46" height="13" viewBox="0 0 46 13" fill="none" xmlns="http://www.w3.org/2000/svg">
<path d="M19.9928 12.6786H16.4126L18.6519 0.693481H22.2319L19.9928 12.6786Z" fill="#00579F"/>
<path d="M32.9723 0.986449C32.2661 0.743948 31.1461 0.476196 29.7612 0.476196C26.2256 0.476196 23.7359 2.10812 23.7206 4.44129C23.6912 6.16269 25.5032 7.1188 26.8583 7.69277C28.2435 8.27928 28.7143 8.6621 28.7143 9.18489C28.7002 9.9878 27.5951 10.3579 26.5643 10.3579C25.1349 10.3579 24.369 10.1671 23.2051 9.72039L22.7337 9.5289L22.2327 12.2193C23.0724 12.5504 24.6194 12.8443 26.2256 12.8571C29.9822 12.8571 32.4279 11.2505 32.4568 8.76411C32.4711 7.39977 31.5144 6.35435 29.4516 5.50009C28.1994 4.95171 27.4326 4.58194 27.4326 4.02085C27.4472 3.51077 28.0812 2.98831 29.4947 2.98831C30.6586 2.96272 31.5138 3.20489 32.1616 3.44722L32.4854 3.57448L32.9723 0.986449Z" fill="#00579F"/>
<path d="M37.7303 8.43268C38.0252 7.74415 39.1597 5.07935 39.1597 5.07935C39.1448 5.10494 39.454 4.37811 39.6307 3.93192L39.8809 4.96462C39.8809 4.96462 40.5589 7.83346 40.7062 8.43268C40.1466 8.43268 38.4375 8.43268 37.7303 8.43268ZM42.1496 0.693481H39.3803C38.5264 0.693481 37.8775 0.910055 37.5091 1.68789L32.1912 12.6784H35.9478C35.9478 12.6784 36.5662 11.1992 36.6992 10.8806C37.1113 10.8806 40.7657 10.8806 41.2958 10.8806C41.3986 11.3013 41.723 12.6784 41.723 12.6784H45.0379L42.1496 0.693481Z" fill="#00579F"/>
<path d="M13.4218 0.693481L9.91555 8.86616L9.5324 7.20865C8.88418 5.29609 6.85121 3.21814 4.58252 2.18492L7.79408 12.6659H11.5801L17.2075 0.693481H13.4218Z" fill="#00579F"/>
<path d="M6.66019 0.691162H0.899994L0.841064 0.933324C5.33438 1.9279 8.31021 4.32529 9.53285 7.20684L8.28065 1.69862C8.0745 0.933155 7.44096 0.716412 6.66019 0.691162Z" fill="#FAA61A"/>
</svg>
