<svg width="14" height="14" viewBox="0 0 14 14" xmlns="http://www.w3.org/2000/svg" id="question">
<path d="M6.99999 12.8334C3.77824 12.8334 1.16666 10.2218 1.16666 7.00002C1.16666 3.77827 3.77824 1.16669 6.99999 1.16669C10.2217 1.16669 12.8333 3.77827 12.8333 7.00002C12.8333 10.2218 10.2217 12.8334 6.99999 12.8334ZM6.99999 11.6667C8.23767 11.6667 9.42465 11.175 10.2998 10.2999C11.175 9.42468 11.6667 8.2377 11.6667 7.00002C11.6667 5.76234 11.175 4.57536 10.2998 3.70019C9.42465 2.82502 8.23767 2.33335 6.99999 2.33335C5.76231 2.33335 4.57533 2.82502 3.70016 3.70019C2.82499 4.57536 2.33332 5.76234 2.33332 7.00002C2.33332 8.2377 2.82499 9.42468 3.70016 10.2999C4.57533 11.175 5.76231 11.6667 6.99999 11.6667V11.6667ZM6.41666 8.75002H7.58332V9.91669H6.41666V8.75002ZM7.58332 7.79044V8.16669H6.41666V7.29169C6.41666 7.13698 6.47812 6.9886 6.58751 6.87921C6.69691 6.76981 6.84528 6.70835 6.99999 6.70835C7.1657 6.70834 7.32801 6.66128 7.46801 6.57263C7.60802 6.48398 7.71998 6.3574 7.79086 6.20761C7.86174 6.05782 7.88862 5.89098 7.86839 5.72651C7.84815 5.56204 7.78163 5.40669 7.67656 5.27855C7.57149 5.15041 7.43219 5.05474 7.27487 5.00267C7.11755 4.9506 6.94868 4.94428 6.7879 4.98443C6.62713 5.02459 6.48107 5.10957 6.3667 5.2295C6.25234 5.34942 6.17439 5.49936 6.14191 5.66185L4.99741 5.4326C5.06836 5.07799 5.2322 4.74857 5.47219 4.47803C5.71218 4.20749 6.01971 4.00553 6.36333 3.89279C6.70696 3.78005 7.07436 3.76059 7.42797 3.83638C7.78159 3.91217 8.10873 4.0805 8.37597 4.32417C8.6432 4.56783 8.84094 4.87809 8.94897 5.22322C9.057 5.56836 9.07145 5.93599 8.99083 6.28853C8.91021 6.64108 8.73742 6.96589 8.49013 7.22977C8.24283 7.49365 7.9299 7.68714 7.58332 7.79044V7.79044Z" />
</svg>
