<svg width="16" height="16" viewBox="0 0 16 16" fill="none" xmlns="http://www.w3.org/2000/svg" id="submissions">
<path d="M1.33325 5.99601C1.3329 5.47081 1.43615 4.9507 1.6371 4.46546C1.83804 3.98023 2.13273 3.53939 2.50429 3.16821C2.87584 2.79702 3.31697 2.50278 3.80241 2.30232C4.28784 2.10186 4.80806 1.99913 5.33325 2.00001H10.6666C12.8753 2.00001 14.6666 3.79667 14.6666 5.99601V14H5.33325C3.12459 14 1.33325 12.2033 1.33325 10.004V5.99601ZM13.3333 12.6667V5.99601C13.3315 5.28967 13.0498 4.61283 12.55 4.11375C12.0502 3.61467 11.3729 3.33404 10.6666 3.33334H5.33325C4.98315 3.33246 4.63632 3.4007 4.31265 3.53416C3.98898 3.66761 3.69484 3.86364 3.44709 4.11102C3.19935 4.35839 3.00287 4.65224 2.86894 4.97571C2.735 5.29918 2.66623 5.6459 2.66659 5.99601V10.004C2.66835 10.7103 2.95 11.3872 3.44982 11.8863C3.94965 12.3853 4.62692 12.666 5.33325 12.6667H13.3333ZM9.33325 7.33334H10.6666V8.66667H9.33325V7.33334ZM5.33325 7.33334H6.66659V8.66667H5.33325V7.33334Z" fill="#333333"/>
</svg>
