<svg width="16" height="12" viewBox="0 0 16 12" fill="none" xmlns="http://www.w3.org/2000/svg" id="icon-password-open">
<path d="M15.8983 5.66432C15.7554 5.4534 12.3497 0.5 7.99993 0.5C3.6502 0.5 0.244313 5.4534 0.101532 5.66411C-0.0338438 5.86421 -0.0338438 6.13559 0.101532 6.33568C0.244313 6.5466 3.6502 11.5 7.99993 11.5C12.3497 11.5 15.7554 6.54656 15.8983 6.33585C16.0339 6.13579 16.0339 5.86421 15.8983 5.66432ZM7.99993 10.3621C4.79589 10.3621 2.02085 7.0744 1.19938 5.99961C2.01979 4.92388 4.78901 1.63793 7.99993 1.63793C11.2038 1.63793 13.9787 4.92502 14.8005 6.00039C13.9801 7.07609 11.2108 10.3621 7.99993 10.3621Z" fill="#000000"/>
<path d="M7.99981 2.58597C6.25474 2.58597 4.83496 4.11744 4.83496 5.99978C4.83496 7.88212 6.25474 9.41359 7.99981 9.41359C9.74487 9.41359 11.1647 7.88212 11.1647 5.99978C11.1647 4.11744 9.74487 2.58597 7.99981 2.58597ZM7.99981 8.27563C6.83637 8.27563 5.88993 7.25471 5.88993 5.99978C5.88993 4.74485 6.8364 3.72393 7.99981 3.72393C9.16321 3.72393 10.1097 4.74485 10.1097 5.99978C10.1097 7.25471 9.16324 8.27563 7.99981 8.27563Z" fill="#000000"/>
</svg>
