<svg width="13" height="12" viewBox="0 0 13 12" fill="none" xmlns="http://www.w3.org/2000/svg">
    <path d="M1.50531 8.08021L0.23951 5.87964H2.7711L1.50531 8.08021Z" fill="black" />
    <path
    d="M1.50527 8.35534L0 5.74216H3.01054L1.50527 8.35534ZM0.444739 6.01723L1.50527 7.83958L2.5658 6.01723H0.444739Z"
    fill="black"
    />
    <path
    d="M8.51807 7.83951C8.41544 7.83951 8.31281 7.80513 8.24438 7.77075L6.60227 6.70484C6.46543 6.60169 6.3628 6.42977 6.3628 6.25785V3.43837C6.3628 3.1633 6.60227 2.92261 6.87596 2.92261C7.14964 2.92261 7.38912 3.1633 7.38912 3.43837V5.98278L8.79176 6.87676C9.03123 7.04868 9.09965 7.35814 8.96281 7.59883C8.86018 7.73636 8.68912 7.83951 8.51807 7.83951Z"
    fill="black"
    />
    <path
    d="M6.97892 12C6.70523 12 6.46576 11.7593 6.46576 11.4842C6.46576 11.2092 6.70523 10.9685 6.97892 10.9685C9.71577 10.9685 11.9395 8.73352 11.9395 6.01719C11.9395 3.26647 9.71577 1.0659 6.97892 1.0659C4.24206 1.0659 2.01837 3.30086 2.01837 6.01719C2.01837 6.29226 1.77889 6.53295 1.50521 6.53295C1.23152 6.53295 0.992046 6.29226 0.992046 6.01719C0.992046 2.71633 3.69469 0 7.01313 0C10.3316 0 13 2.68195 13 5.98281C13 9.28367 10.2974 12 6.97892 12Z"
    fill="black"
    />
    <path
    d="M5.33688 11.828C5.62029 11.828 5.85004 11.5971 5.85004 11.3123C5.85004 11.0274 5.62029 10.7965 5.33688 10.7965C5.05346 10.7965 4.82372 11.0274 4.82372 11.3123C4.82372 11.5971 5.05346 11.828 5.33688 11.828Z"
    fill="black"
    />
    <path
    d="M5.3368 11.8624C5.0289 11.8624 4.75521 11.6217 4.75521 11.2779C4.75521 10.934 4.99469 10.6934 5.3368 10.6934C5.6789 10.6934 5.91838 10.934 5.91838 11.2779C5.91838 11.6217 5.6789 11.8624 5.3368 11.8624ZM5.3368 10.8653C5.09732 10.8653 4.89206 11.0716 4.89206 11.3123C4.89206 11.553 5.09732 11.7593 5.3368 11.7593C5.57627 11.7593 5.78154 11.553 5.78154 11.3123C5.78154 11.0716 5.61048 10.8653 5.3368 10.8653Z"
    fill="black"
    />
    <path
    d="M3.66031 11.0373C3.94372 11.0373 4.17347 10.8063 4.17347 10.5215C4.17347 10.2367 3.94372 10.0057 3.66031 10.0057C3.3769 10.0057 3.14715 10.2367 3.14715 10.5215C3.14715 10.8063 3.3769 11.0373 3.66031 11.0373Z"
    fill="black"
    />
    <path
    d="M3.66071 11.0716C3.35282 11.0716 3.07913 10.831 3.07913 10.4871C3.07913 10.1777 3.31861 9.90259 3.66071 9.90259C4.00282 9.90259 4.2423 10.1433 4.2423 10.4871C4.20809 10.831 3.96861 11.0716 3.66071 11.0716ZM3.66071 10.0745C3.42124 10.0745 3.21598 10.2808 3.21598 10.5215C3.21598 10.7622 3.42124 10.9685 3.66071 10.9685C3.90019 10.9685 4.10545 10.7622 4.10545 10.5215C4.10545 10.2464 3.90019 10.0745 3.66071 10.0745Z"
    fill="black"
    />
    <path
    d="M2.36025 9.73074C2.64366 9.73074 2.87341 9.49982 2.87341 9.21498C2.87341 8.93013 2.64366 8.69922 2.36025 8.69922C2.07684 8.69922 1.84709 8.93013 1.84709 9.21498C1.84709 9.49982 2.07684 9.73074 2.36025 9.73074Z"
    fill="black"
    />
    <path
    d="M2.36066 9.765C2.05276 9.765 1.77908 9.52431 1.77908 9.18048C1.77908 8.83664 2.01855 8.59595 2.36066 8.59595C2.70276 8.59595 2.94224 8.83664 2.94224 9.18048C2.94224 9.52431 2.66855 9.765 2.36066 9.765ZM2.36066 8.76787C2.12118 8.76787 1.91592 8.97417 1.91592 9.21486C1.91592 9.45555 2.12118 9.66185 2.36066 9.66185C2.60013 9.66185 2.8054 9.45555 2.8054 9.21486C2.8054 8.97417 2.60013 8.76787 2.36066 8.76787Z"
    fill="black"
    />
</svg>