<svg width="90" height="24" viewBox="0 0 90 24" fill="none" xmlns="http://www.w3.org/2000/svg">
<path d="M34.6125 9.17341C33.4666 9.17341 32.8997 10.0752 32.6396 10.6569C32.4943 10.9816 32.4536 11.2384 32.3358 11.2384C32.1697 11.2384 32.2887 11.0152 32.1528 10.5203C31.974 9.86904 31.435 9.17341 30.2899 9.17341C29.086 9.17341 28.5705 10.1906 28.3261 10.7495C28.1589 11.1316 28.1587 11.2384 28.0302 11.2384C27.8439 11.2384 27.9982 10.9349 28.082 10.5781C28.2471 9.8755 28.1216 9.3386 28.1216 9.3386H26.2131V16.5149H28.8181C28.8181 16.5149 28.8181 13.5158 28.8181 12.9444C28.8181 12.2401 29.1127 11.3465 29.6177 11.3465C30.2011 11.3465 30.3179 11.7945 30.3179 12.6243C30.3179 13.3765 30.3179 16.5164 30.3179 16.5164H32.9333C32.9333 16.5164 32.9333 13.4991 32.9333 12.9444C32.9333 12.3175 33.1891 11.3465 33.7367 11.3465C34.3283 11.3465 34.433 11.976 34.433 12.6243C34.433 13.2726 34.433 16.5149 34.433 16.5149H37.0014C37.0014 16.5149 37.0014 13.6714 37.0014 12.2948C37.0014 10.422 36.3413 9.17341 34.6125 9.17341Z" fill="#100F0D"/>
<path d="M78.8282 9.17341C77.6822 9.17341 77.1153 10.0752 76.8551 10.6569C76.7098 10.9816 76.6693 11.2384 76.5513 11.2384C76.3852 11.2384 76.4964 10.9549 76.3684 10.5203C76.1775 9.87246 75.7026 9.17341 74.5055 9.17341C73.3015 9.17341 72.786 10.1906 72.5416 10.7495C72.3745 11.1316 72.3743 11.2384 72.2457 11.2384C72.0595 11.2384 72.2137 10.9349 72.2976 10.5781C72.4627 9.8755 72.3372 9.3386 72.3372 9.3386H70.4286V16.5149H73.0337C73.0337 16.5149 73.0337 13.5158 73.0337 12.9444C73.0337 12.2401 73.3283 11.3465 73.8333 11.3465C74.4166 11.3465 74.5334 11.7945 74.5334 12.6243C74.5334 13.3765 74.5334 16.5164 74.5334 16.5164H77.1489C77.1489 16.5164 77.1489 13.4991 77.1489 12.9444C77.1489 12.3175 77.4048 11.3465 77.9524 11.3465C78.5439 11.3465 78.6487 11.976 78.6487 12.6243C78.6487 13.2726 78.6487 16.5149 78.6487 16.5149H81.2171C81.2171 16.5149 81.2171 13.6714 81.2171 12.2948C81.2171 10.422 80.557 9.17341 78.8282 9.17341Z" fill="#100F0D"/>
<path d="M40.8153 14.8376C40.1924 14.9815 39.8694 14.7896 39.8694 14.3768C39.8694 13.8112 40.4545 13.5846 41.2895 13.5846C41.6576 13.5846 42.0037 13.6165 42.0037 13.6165C42.0037 13.8586 41.4782 14.6847 40.8153 14.8376ZM41.4495 9.17498C39.454 9.17498 38.0222 9.90862 38.0222 9.90862V12.065C38.0222 12.065 39.6034 11.1559 40.8861 11.1559C41.91 11.1559 42.0358 11.7081 41.9891 12.1665C41.9891 12.1665 41.6939 12.0883 40.7928 12.0883C38.6696 12.0883 37.5978 13.0532 37.5978 14.6005C37.5978 16.0682 38.8024 16.6817 39.8172 16.6817C41.2981 16.6817 41.9491 15.6866 42.1491 15.2144C42.288 14.8869 42.3132 14.6662 42.438 14.6662C42.58 14.6662 42.5322 14.8245 42.5254 15.1505C42.5133 15.7214 42.5402 16.1529 42.6307 16.5164H44.5941V12.9847C44.5941 10.7797 43.8139 9.17498 41.4495 9.17498Z" fill="#100F0D"/>
<path d="M48.885 16.5164H51.4901V7.16609H48.885V16.5164Z" fill="#100F0D"/>
<path d="M54.3573 12.9283C54.3573 12.283 54.9568 11.696 56.0573 11.696C57.2565 11.696 58.221 12.2733 58.4373 12.4044V9.90862C58.4373 9.90862 57.6753 9.17498 55.8025 9.17498C53.8283 9.17498 52.1842 10.3302 52.1842 12.8166C52.1842 15.303 53.6762 16.6817 55.7972 16.6817C57.4539 16.6817 58.4415 15.7715 58.4415 15.7715V13.4008C58.129 13.5757 57.2584 14.1798 56.0693 14.1798C54.8101 14.1798 54.3573 13.6006 54.3573 12.9283Z" fill="#100F0D"/>
<path d="M63.7143 9.17497C62.2063 9.17497 61.6327 10.604 61.5169 10.8522C61.401 11.1003 61.3438 11.243 61.2489 11.24C61.0843 11.2346 61.1991 10.9354 61.2632 10.7416C61.3845 10.3756 61.6415 9.41511 61.6415 8.23471C61.6415 7.43406 61.5333 7.16609 61.5333 7.16609H59.2844V16.5164H61.8895C61.8895 16.5164 61.8895 13.5275 61.8895 12.946C61.8895 12.3644 62.1216 11.3481 62.7779 11.3481C63.3214 11.3481 63.4916 11.7508 63.4916 12.5619C63.4916 13.3728 63.4916 16.5164 63.4916 16.5164H66.0967C66.0967 16.5164 66.0967 14.3293 66.0967 12.7179C66.0967 10.8758 65.7913 9.17497 63.7143 9.17497Z" fill="#100F0D"/>
<path d="M66.9431 9.34839V16.5164H69.5482V9.34839C69.5482 9.34839 69.1103 9.60449 68.2483 9.60449C67.3865 9.60449 66.9431 9.34839 66.9431 9.34839Z" fill="#100F0D"/>
<path d="M68.2381 7.09349C67.3574 7.09349 66.6434 7.55946 66.6434 8.13428C66.6434 8.709 67.3574 9.17497 68.2381 9.17497C69.1187 9.17497 69.8327 8.709 69.8327 8.13428C69.8327 7.55946 69.1187 7.09349 68.2381 7.09349Z" fill="#100F0D"/>
<path d="M45.4371 9.34839V16.5164H48.042V9.34839C48.042 9.34839 47.6042 9.60449 46.7422 9.60449C45.8804 9.60449 45.4371 9.34839 45.4371 9.34839Z" fill="#100F0D"/>
<path d="M46.7319 7.09349C45.8513 7.09349 45.1373 7.55946 45.1373 8.13428C45.1373 8.709 45.8513 9.17497 46.7319 9.17497C47.6126 9.17497 48.3265 8.709 48.3265 8.13428C48.3265 7.55946 47.6126 7.09349 46.7319 7.09349Z" fill="#100F0D"/>
<path d="M85.6778 14.9743C85.0802 14.9743 84.6407 14.2167 84.6407 13.161C84.6407 12.1358 85.0921 11.3481 85.6571 11.3481C86.3821 11.3481 86.691 12.0128 86.691 13.161C86.691 14.3554 86.4062 14.9743 85.6778 14.9743ZM86.3928 9.17342C85.0536 9.17342 84.4399 10.1776 84.1731 10.7495C83.9968 11.1275 84.0058 11.2384 83.8771 11.2384C83.6909 11.2384 83.8453 10.9349 83.9292 10.5781C84.0942 9.87551 83.9686 9.3386 83.9686 9.3386H82.0601V18.4968H84.6652C84.6652 18.4968 84.6652 16.9982 84.6652 15.5932C84.9734 16.1161 85.5444 16.6749 86.4247 16.6749C88.3084 16.6749 89.2565 15.0811 89.2565 12.9277C89.2565 10.4871 88.1216 9.17342 86.3928 9.17342Z" fill="#100F0D"/>
<path d="M17.0102 11.341C17.1854 11.3201 17.3532 11.3192 17.5074 11.341C17.5967 11.1363 17.6121 10.7834 17.5317 10.3992C17.4124 9.82798 17.2509 9.48233 16.9171 9.53612C16.5834 9.5899 16.5711 10.0038 16.6904 10.5749C16.7575 10.8962 16.8771 11.1708 17.0102 11.341Z" fill="#231F20"/>
<path d="M14.1448 11.793C14.3836 11.8978 14.5304 11.9673 14.5878 11.9065C14.6247 11.8687 14.6138 11.7965 14.5567 11.7033C14.4389 11.5109 14.1964 11.3158 13.9392 11.2062C13.4132 10.9798 12.7858 11.0551 12.3018 11.4028C12.1421 11.5199 11.9907 11.6821 12.0123 11.7805C12.0194 11.8124 12.0433 11.8364 12.0993 11.8442C12.2311 11.8593 12.6914 11.6265 13.2216 11.5941C13.5959 11.5712 13.906 11.6882 14.1448 11.793Z" fill="#231F20"/>
<path d="M13.6645 12.0671C13.3534 12.1162 13.1819 12.2188 13.0717 12.3141C12.9778 12.3962 12.9197 12.487 12.9202 12.5509C12.9204 12.5813 12.9336 12.5988 12.944 12.6076C12.9582 12.6201 12.9749 12.627 12.9951 12.627C13.0654 12.627 13.2227 12.5639 13.2227 12.5639C13.6556 12.409 13.9411 12.4278 14.224 12.46C14.3804 12.4775 14.4543 12.4872 14.4886 12.4336C14.4988 12.4183 14.511 12.3849 14.4798 12.3342C14.4069 12.216 14.0928 12.0163 13.6645 12.0671Z" fill="#231F20"/>
<path d="M16.0426 13.0733C16.2538 13.1771 16.4863 13.1363 16.562 12.9823C16.6377 12.8284 16.5278 12.6194 16.3166 12.5156C16.1054 12.4119 15.873 12.4526 15.7972 12.6066C15.7216 12.7606 15.8314 12.9695 16.0426 13.0733Z" fill="#231F20"/>
<path d="M17.4003 11.8869C17.2288 11.884 17.0865 12.0724 17.0825 12.3076C17.0785 12.543 17.2144 12.736 17.3859 12.7389C17.5575 12.7419 17.6998 12.5535 17.7037 12.3182C17.7078 12.0829 17.5719 11.8898 17.4003 11.8869Z" fill="#231F20"/>
<path d="M5.87666 16.1292C5.83398 16.0757 5.76387 16.092 5.69597 16.1078C5.64855 16.1189 5.59482 16.1313 5.53592 16.1303C5.40974 16.1279 5.30289 16.074 5.24288 15.9818C5.16472 15.8618 5.16924 15.6828 5.25554 15.478C5.26714 15.4503 5.28088 15.4196 5.2958 15.3862C5.43335 15.0775 5.66367 14.5608 5.40511 14.0685C5.21049 13.6979 4.89311 13.4671 4.51151 13.4187C4.14517 13.3722 3.76801 13.508 3.52743 13.7735C3.14789 14.1922 3.08857 14.762 3.16197 14.9634C3.18888 15.037 3.23094 15.0574 3.26152 15.0616C3.32608 15.0703 3.42157 15.0233 3.48139 14.8624C3.48567 14.8508 3.49137 14.8329 3.4985 14.8101C3.52518 14.725 3.57481 14.5666 3.6561 14.4396C3.75411 14.2865 3.90678 14.181 4.08597 14.1426C4.26852 14.1035 4.4551 14.1384 4.61128 14.2407C4.87719 14.4146 4.97957 14.7404 4.86605 15.0512C4.80739 15.212 4.71205 15.5194 4.7331 15.772C4.77558 16.2832 5.09001 16.4886 5.37254 16.5104C5.64722 16.5207 5.83918 16.3666 5.88775 16.2538C5.91642 16.1872 5.89222 16.1466 5.87666 16.1292Z" fill="#231F20"/>
<path d="M8.48793 6.73971C9.38378 5.7045 10.4867 4.8045 11.4745 4.29914C11.5087 4.28161 11.545 4.31874 11.5265 4.35225C11.448 4.49431 11.297 4.79852 11.2491 5.02925C11.2417 5.06521 11.2807 5.09225 11.3111 5.07158C11.9257 4.65264 12.9949 4.20372 13.9327 4.14601C13.973 4.14356 13.9925 4.19519 13.9605 4.21978C13.8178 4.32922 13.6618 4.48059 13.5479 4.63373C13.5285 4.65979 13.5467 4.69732 13.5792 4.69751C14.2377 4.70221 15.166 4.93265 15.7711 5.27204C15.8121 5.29497 15.7829 5.37423 15.7371 5.36374C14.8217 5.15398 13.3231 4.99477 11.7665 5.37442C10.3768 5.71342 9.31616 6.2367 8.54239 6.79947C8.50327 6.82798 8.45631 6.77635 8.48793 6.73971ZM12.9498 16.7698C12.9499 16.77 12.9499 16.7702 12.95 16.7704C12.9502 16.7708 12.9503 16.7712 12.9505 16.7716C12.9502 16.771 12.95 16.7704 12.9498 16.7698ZM16.6442 17.2059C16.6707 17.1947 16.6891 17.1645 16.6859 17.1344C16.6822 17.0973 16.6492 17.0704 16.6122 17.0742C16.6122 17.0742 14.7003 17.3572 12.8942 16.6961C13.0909 16.0567 13.614 16.2875 14.4047 16.3514C15.8298 16.4363 17.107 16.2281 18.051 15.9571C18.869 15.7225 19.9433 15.2596 20.7778 14.601C21.0592 15.2193 21.1586 15.8996 21.1586 15.8996C21.1586 15.8996 21.3765 15.8607 21.5585 15.9727C21.7306 16.0786 21.8568 16.2987 21.7705 16.8677C21.5951 17.9308 21.1432 18.7936 20.3838 19.5874C19.9215 20.085 19.3603 20.5177 18.7181 20.8323C18.3771 21.0114 18.014 21.1664 17.6304 21.2916C14.7674 22.2266 11.8369 21.1987 10.8922 18.9911C10.8168 18.8251 10.7531 18.6514 10.7028 18.4697C10.3002 17.0149 10.6419 15.2696 11.7103 14.171C11.7104 14.1709 11.7102 14.1705 11.7103 14.1704C11.7761 14.1005 11.8433 14.0181 11.8433 13.9144C11.8433 13.8277 11.7883 13.7362 11.7404 13.6714C11.3667 13.1293 10.072 12.2054 10.3319 10.4177C10.5185 9.13334 11.6417 8.22883 12.6889 8.28242C12.7774 8.28703 12.8661 8.29242 12.9544 8.29761C13.4082 8.32455 13.8041 8.38275 14.1777 8.39833C14.803 8.42537 15.3652 8.33445 16.0312 7.77961C16.2558 7.59238 16.4359 7.43014 16.7407 7.3785C16.7727 7.37302 16.8524 7.34441 17.0117 7.35195C17.1742 7.36058 17.329 7.40525 17.4681 7.49784C18.002 7.8531 18.0777 8.71352 18.1054 9.34301C18.1212 9.70228 18.1647 10.5716 18.1795 10.8212C18.2135 11.3918 18.3635 11.4722 18.6669 11.5721C18.8376 11.6284 18.996 11.6702 19.2295 11.7358C19.9362 11.9342 20.3552 12.1355 20.6192 12.3941C20.7768 12.5556 20.8501 12.7274 20.8727 12.8911C20.956 13.499 20.4007 14.25 18.9306 14.9324C17.3237 15.6782 15.3741 15.8671 14.0272 15.7171C13.9239 15.7056 13.5565 15.664 13.5552 15.6638C12.4778 15.5187 11.8632 16.9111 12.5098 17.8651C12.9266 18.4799 14.0618 18.88 15.1975 18.8802C17.8016 18.8806 19.8031 17.7685 20.5476 16.8081C20.57 16.7794 20.5721 16.7763 20.6072 16.7232C20.6438 16.668 20.6137 16.6375 20.568 16.6688C19.9597 17.085 17.2578 18.7375 14.3677 18.2403C14.3677 18.2403 14.0166 18.1826 13.696 18.0579C13.4413 17.9588 12.9081 17.7135 12.8434 17.1665C15.1756 17.8878 16.6442 17.2059 16.6442 17.2059ZM3.83373 11.6632C3.0226 11.8209 2.30769 12.2806 1.87055 12.9156C1.60923 12.6977 1.12245 12.2758 1.0365 12.1114C0.338539 10.7862 1.79818 8.20953 2.81784 6.7544C5.3378 3.15832 9.28458 0.436374 11.1116 0.930268C11.4087 1.01433 12.3924 2.15486 12.3924 2.15486C12.3924 2.15486 10.5661 3.16822 8.8724 4.58072C6.59031 6.33791 4.86644 8.89183 3.83373 11.6632ZM5.19673 17.7445C5.07395 17.7654 4.94873 17.7738 4.82243 17.7707C3.602 17.738 2.28369 16.6392 2.15269 15.3362C2.0079 13.896 2.74379 12.7876 4.04674 12.5248C4.20251 12.4934 4.39076 12.4753 4.59376 12.4859C5.32379 12.5258 6.39961 13.0863 6.64538 14.6768C6.86307 16.0853 6.51732 17.5192 5.19673 17.7445ZM21.7293 15.1942C21.7188 15.1572 21.6507 14.9083 21.5572 14.6083C21.4636 14.3082 21.3667 14.0971 21.3667 14.0971C21.742 13.5351 21.7487 13.0326 21.6988 12.7478C21.6455 12.395 21.4987 12.0943 21.2026 11.7836C20.9065 11.4728 20.301 11.1545 19.45 10.9155C19.3527 10.8882 19.0318 10.8001 19.0035 10.7916C19.0014 10.7732 18.98 9.73892 18.9607 9.295C18.9466 8.97403 18.9191 8.47299 18.7636 7.97948C18.5783 7.31149 18.2555 6.72697 17.8526 6.353C18.9645 5.20042 19.6587 3.93066 19.657 2.84137C19.6538 0.746563 17.0812 0.112662 13.9108 1.42553C13.9075 1.4269 13.2439 1.70829 13.2391 1.71064C13.236 1.7078 12.0247 0.519162 12.0064 0.503291C8.39178 -2.64955 -2.90979 9.91244 0.703535 12.9634L1.49319 13.6324C1.28836 14.163 1.20788 14.7709 1.27363 15.4247C1.35801 16.2644 1.79113 17.0693 2.49315 17.6911C3.15957 18.2816 4.03576 18.6553 4.88604 18.6546C6.29214 21.8949 9.50492 23.8827 13.2719 23.9946C17.3127 24.1146 20.7047 22.2185 22.126 18.8126C22.219 18.5736 22.6135 17.4965 22.6135 16.5458C22.6135 15.5902 22.0733 15.1942 21.7293 15.1942Z" fill="#231F20"/>
</svg>
