<svg width="57" height="26" viewBox="0 0 57 26" fill="none" xmlns="http://www.w3.org/2000/svg">
<path d="M34.0649 11.2754H32.6499C32.6208 11.1596 32.5991 11.0253 32.5847 10.8728C32.5559 10.576 32.5559 10.2771 32.5847 9.98037C32.5991 9.82823 32.6208 9.69403 32.6499 9.57754H36.1763V20.7443C35.9998 20.775 35.8218 20.7966 35.643 20.8092C35.4655 20.8228 35.2875 20.83 35.1094 20.8308C34.9388 20.8297 34.7683 20.8225 34.5983 20.8092C34.4196 20.7965 34.2417 20.7747 34.0652 20.7439V11.2749V11.2751L34.0649 11.2754ZM46.3413 14.0836C46.3413 13.6771 46.2868 13.2891 46.1783 12.9187C46.0693 12.5489 45.9092 12.2261 45.6994 11.9502C45.4885 11.6748 45.2202 11.4533 44.8937 11.2865C44.5673 11.1196 44.179 11.036 43.7292 11.036C42.844 11.036 42.1655 11.3049 41.694 11.8416C41.2224 12.3784 40.9359 13.1257 40.8342 14.0836H46.3414H46.3413ZM40.8125 15.6942C40.8416 16.9132 41.1572 17.8058 41.7594 18.3714C42.3614 18.9373 43.2504 19.2207 44.4258 19.2207C45.4558 19.2207 46.4354 19.039 47.3642 18.6763C47.48 18.8939 47.5742 19.1588 47.6469 19.4708C47.7182 19.7746 47.7619 20.0842 47.7774 20.3958C47.2989 20.5995 46.7724 20.7512 46.1996 20.853C45.626 20.9543 44.9912 21.0054 44.2951 21.0054C43.279 21.0054 42.4082 20.8635 41.683 20.5808C40.9573 20.2975 40.3587 19.8984 39.8871 19.3835C39.4155 18.8685 39.0707 18.2589 38.8531 17.555C38.6355 16.8514 38.5264 16.0786 38.5264 15.2369C38.5264 14.4098 38.6316 13.6369 38.8421 12.9185C39.0521 12.2006 39.3757 11.5765 39.8105 11.0468C40.2461 10.5169 40.7938 10.0963 41.4541 9.78429C42.1141 9.47229 42.894 9.31606 43.7941 9.31606C44.5631 9.31606 45.2378 9.44686 45.8185 9.70799C46.3986 9.96913 46.8849 10.3284 47.2769 10.7855C47.6686 11.2427 47.966 11.7869 48.1693 12.4178C48.3723 13.0493 48.4742 13.7348 48.4742 14.4751C48.4742 14.6783 48.4665 14.8922 48.4521 15.117C48.4402 15.3095 48.4257 15.5017 48.4087 15.6938H40.812L40.8123 15.6941L40.8125 15.6942ZM50.848 9.57754C50.9995 9.55004 51.152 9.5283 51.3051 9.51237C51.4499 9.49818 51.6026 9.4908 51.7622 9.4908C51.9219 9.4908 52.0813 9.49818 52.2411 9.51237C52.4007 9.52713 52.5459 9.54893 52.6766 9.57754C52.7197 9.7953 52.7633 10.0822 52.8067 10.4374C52.8502 10.793 52.8723 11.0938 52.8723 11.3407C53.1769 10.8475 53.5796 10.4191 54.0801 10.0562C54.5808 9.69369 55.2229 9.51203 56.0064 9.51203C56.1224 9.51203 56.2421 9.51589 56.3655 9.52315C56.4711 9.52883 56.5767 9.5395 56.6811 9.55551C56.71 9.68631 56.7322 9.82437 56.7465 9.96924C56.7608 10.1142 56.7681 10.2667 56.7681 10.4262C56.7681 10.6005 56.7573 10.7821 56.7356 10.9703C56.7147 11.1522 56.6893 11.3337 56.6596 11.5144C56.542 11.4854 56.4213 11.4708 56.3002 11.4709H56.0062C55.6145 11.4709 55.2407 11.5254 54.8852 11.634C54.5294 11.743 54.2103 11.9354 53.9274 12.2108C53.6447 12.4867 53.4196 12.8641 53.253 13.343C53.0858 13.8219 53.0025 14.4386 53.0025 15.1931V20.7439C52.826 20.7746 52.648 20.7965 52.4691 20.8091C52.2735 20.8236 52.0956 20.8307 51.9361 20.8307C51.7581 20.83 51.5802 20.8228 51.4027 20.8091C51.2167 20.7956 51.0315 20.7739 50.8475 20.744V9.57765L50.848 9.57754ZM35.5712 3.61502C35.5712 3.87556 35.5242 4.13395 35.4323 4.37777C35.1884 4.46961 34.93 4.51668 34.6693 4.51673H34.6662C34.4056 4.51677 34.1471 4.46973 33.9032 4.37788C33.8112 4.13402 33.7641 3.87554 33.7641 3.61491V3.6115C33.7641 3.34299 33.8134 3.08583 33.9026 2.84853C34.1466 2.75656 34.4051 2.70951 34.6658 2.70968H34.6688C34.9374 2.70968 35.1945 2.75895 35.4318 2.84853C35.5237 3.0924 35.5707 3.35089 35.5706 3.6115V3.61491H35.5709L35.5712 3.61502ZM38.2309 3.011H36.1218L37.613 1.51969C37.3785 1.19038 37.0907 0.90257 36.7613 0.668166L35.2698 2.15948V0.050297C35.0715 0.0169381 34.8708 0.000114626 34.6697 0H34.6658C34.4612 0 34.2608 0.0174847 34.0656 0.050297V2.15948L32.5738 0.668052C32.4095 0.784981 32.2553 0.915476 32.1128 1.05817L32.1122 1.05885C31.9697 1.20143 31.8393 1.35562 31.7224 1.51981L33.2141 3.011H31.1046C31.1046 3.011 31.0544 3.40725 31.0544 3.61207V3.61457C31.0544 3.81939 31.0718 4.02012 31.1047 4.21552H33.2143L31.7223 5.7066C31.9569 6.03588 32.2448 6.32374 32.5741 6.55836L34.0657 5.06716V7.17646C34.2607 7.20915 34.4608 7.22641 34.6651 7.22664H34.6703C34.8711 7.22645 35.0716 7.20967 35.2697 7.17646V5.06716L36.7614 6.5587C36.9257 6.44166 37.08 6.31118 37.2227 6.16859H37.223C37.3654 6.02585 37.4958 5.87155 37.6127 5.70728L36.1215 4.21563H38.231C38.2637 4.02035 38.281 3.8203 38.281 3.61593V3.61071C38.281 3.40975 38.2642 3.20935 38.231 3.01123V3.011H38.2309ZM0 20.4396L5.87713 11.2972H0.696437C0.653065 11.036 0.63138 10.7461 0.63138 10.4267C0.63138 10.1221 0.653406 9.83879 0.696891 9.57743H9.07706L9.18606 9.86093L3.26544 19.0247H8.81582C8.8593 19.3151 8.88121 19.6123 8.88121 19.9169C8.88121 20.2076 8.85941 20.4831 8.81593 20.7443H0.108996L0 20.4393V20.4396ZM16.9563 15.4982C16.7387 15.4694 16.4629 15.4407 16.1292 15.4113C15.7954 15.3826 15.5125 15.3678 15.2806 15.3678C14.3807 15.3678 13.6951 15.5347 13.2238 15.8685C12.7518 16.2025 12.5164 16.7102 12.5164 17.3922C12.5164 17.8275 12.5959 18.1686 12.7557 18.4152C12.9151 18.6622 13.1148 18.8505 13.3542 18.9811C13.5938 19.1117 13.8583 19.1916 14.1484 19.2207C14.4385 19.2497 14.7144 19.2641 14.9755 19.2641C15.3093 19.2641 15.6539 19.2459 16.0095 19.2096C16.3649 19.1736 16.6805 19.119 16.9564 19.0464V15.4982H16.9563ZM16.9563 13.3871C16.9563 12.5305 16.7387 11.9356 16.3035 11.6018C15.8679 11.268 15.2368 11.1011 14.4097 11.1011C13.9014 11.1011 13.4264 11.1413 12.984 11.221C12.5461 11.2996 12.1135 11.4049 11.6885 11.5363C11.4126 11.0574 11.2753 10.4846 11.2753 9.81665C11.768 9.65724 12.3121 9.53394 12.9074 9.44686C13.5023 9.35966 14.0754 9.31606 14.6271 9.31606C16.0781 9.31606 17.1809 9.64646 17.9356 10.3067C18.6899 10.9675 19.0675 12.023 19.0675 13.4739V20.4612C18.5593 20.5772 17.9428 20.6969 17.2173 20.8203C16.4838 20.9442 15.7411 21.0061 14.9971 21.0054C14.2861 21.0054 13.6438 20.9403 13.0708 20.8097C12.4975 20.6787 12.0113 20.4688 11.6123 20.1782C11.2129 19.8882 10.905 19.5181 10.687 19.0683C10.4695 18.6184 10.3606 18.0743 10.3606 17.4357C10.3606 16.8119 10.4875 16.264 10.7415 15.7921C10.9911 15.3259 11.345 14.9237 11.7756 14.6168C12.2109 14.3052 12.7115 14.0727 13.2775 13.9206C13.8436 13.7681 14.4383 13.6918 15.0623 13.6918C15.5267 13.6918 15.9076 13.7029 16.2052 13.7247C16.5024 13.7463 16.7529 13.7717 16.9561 13.8008V13.3872L16.9563 13.3871ZM23.5733 18.9154C23.8481 19.0169 24.1326 19.0899 24.4223 19.1332C24.7125 19.1769 25.0894 19.1986 25.5543 19.1986C26.0765 19.1986 26.5552 19.1153 26.9905 18.9484C27.426 18.7819 27.7996 18.524 28.1116 18.1756C28.4236 17.8275 28.6702 17.3888 28.8516 16.8586C29.0329 16.3293 29.1239 15.7018 29.1239 14.9759C29.1239 13.8151 28.9095 12.8936 28.4817 12.2115C28.0533 11.5296 27.3531 11.1885 26.3813 11.1885C26.0185 11.1885 25.6699 11.2537 25.3367 11.3845C25.0025 11.5151 24.7052 11.711 24.444 11.9722C24.1828 12.2333 23.9725 12.5637 23.8129 12.9626C23.6528 13.3621 23.5734 13.8369 23.5734 14.3884V18.9157V18.9155L23.5733 18.9154ZM21.4183 9.57731C21.5659 9.54825 21.7147 9.52656 21.8645 9.51214C22.0201 9.49774 22.1763 9.49054 22.3326 9.49057C22.4773 9.49057 22.6295 9.49806 22.7895 9.51214C22.9489 9.5269 23.1013 9.54881 23.2466 9.57743C23.2609 9.60695 23.2793 9.69721 23.3011 9.84969C23.3227 10.0022 23.3445 10.1653 23.3664 10.3393C23.3882 10.5135 23.4099 10.6808 23.4317 10.84C23.4535 10.9998 23.4644 11.1014 23.4644 11.1449C23.6091 10.913 23.7834 10.6878 23.9866 10.4702C24.1899 10.2524 24.4332 10.0566 24.7161 9.88261C24.9991 9.70833 25.3181 9.57061 25.6738 9.46888C26.0292 9.36738 26.4246 9.31618 26.86 9.31618C27.5129 9.31618 28.1188 9.42517 28.6778 9.64294C29.2361 9.86093 29.7147 10.1978 30.114 10.655C30.5129 11.1122 30.8248 11.6927 31.0499 12.3963C31.2747 13.1007 31.3871 13.9313 31.3871 14.8889C31.3871 16.8043 30.8682 18.303 29.8305 19.3839C28.7928 20.4651 27.324 21.0054 25.423 21.0054C25.1036 21.0054 24.7773 20.9836 24.4435 20.9401C24.1095 20.8964 23.8195 20.8383 23.5727 20.7661V25.8814C23.3888 25.9113 23.2037 25.9331 23.0179 25.9466C22.8219 25.9608 22.644 25.9682 22.4843 25.9682C22.3064 25.9674 22.1286 25.9603 21.9512 25.9466C21.7724 25.934 21.5945 25.9122 21.418 25.8814V9.57743L21.4183 9.57731Z" fill="#FF4A00"/>
</svg>
