<svg width="18" height="14" viewBox="0 0 18 14" fill="none" xmlns="http://www.w3.org/2000/svg">
<path fill-rule="evenodd" clip-rule="evenodd" d="M9 1.2H7.8C7.46864 1.2 7.2 0.93136 7.2 0.6C7.2 0.26864 7.46864 0 7.8 0H9C10.8102 0 12.4822 0.192801 13.6987 1.06176C14.9646 1.96592 15.598 3.48952 15.5999 5.78912C15.6189 6.33392 15.6187 8.23632 15.6141 9.98736C15.6122 10.6918 15.6096 11.3758 15.6071 11.9443L16.9758 10.5758C17.2101 10.3414 17.5899 10.3414 17.8243 10.5758C18.0586 10.8101 18.0586 11.19 17.8243 11.4242L15.4242 13.8242C15.3117 13.9368 15.1591 14 14.9999 14C14.8408 14 14.6882 13.9368 14.5757 13.8242L12.1758 11.4242C11.9414 11.1899 11.9414 10.8101 12.1758 10.5758C12.4101 10.3414 12.7899 10.3414 13.0242 10.5758L14.4071 11.9586C14.4095 11.3866 14.4122 10.6958 14.4141 9.98424C14.4188 8.20456 14.4187 6.3212 14.4003 5.822C14.4001 5.81464 14.3999 5.80736 14.3999 5.8C14.4 3.70568 13.8334 2.63264 13.0013 2.03824C12.1178 1.4072 10.7898 1.2 9 1.2ZM2.57567 0.17576C2.80999 -0.0585601 3.18983 -0.0585601 3.42415 0.17576L5.82423 2.57576C6.05855 2.81008 6.05855 3.18992 5.82423 3.42424C5.58991 3.65856 5.21007 3.65856 4.97575 3.42424L3.59279 2.04144C3.59031 2.61328 3.58767 3.30424 3.58575 4.01584C3.58103 5.79544 3.58127 7.67888 3.59951 8.17808C3.59975 8.18536 3.59991 8.19272 3.59991 8.2C3.59991 10.2943 4.16647 11.3674 4.99871 11.9618C5.88215 12.5928 7.21016 12.8 9 12.8H10.2C10.5314 12.8 10.8 13.0686 10.8 13.4C10.8 13.7314 10.5314 14 10.2 14H9C7.18984 14 5.51775 13.8072 4.30119 12.9382C3.03543 12.0341 2.40191 10.5105 2.39991 8.21088C2.38095 7.666 2.38111 5.76368 2.38575 4.01264C2.38767 3.30824 2.39031 2.62432 2.39279 2.05576L1.02422 3.42424C0.789902 3.65856 0.410061 3.65856 0.17574 3.42424C-0.0585801 3.19 -0.0585801 2.81008 0.17574 2.57576L2.57567 0.17576Z" fill="black"/>
</svg>
