<svg width="95" height="20" viewBox="0 0 95 20" fill="none" xmlns="http://www.w3.org/2000/svg">
<path d="M43.4341 5.9214V15.7998H39.9728V14.458C39.6876 14.9247 39.2728 15.2942 38.7283 15.5664C38.1838 15.8257 37.5875 15.9553 36.9393 15.9553C36.0967 15.9553 35.3448 15.7479 34.6836 15.3331C34.0225 14.9182 33.5039 14.3284 33.128 13.5635C32.765 12.7857 32.5835 11.8912 32.5835 10.88C32.5835 9.85589 32.7715 8.94843 33.1474 8.15764C33.5234 7.36686 34.0419 6.75108 34.7031 6.31031C35.3642 5.86955 36.1096 5.64916 36.9393 5.64916C37.5875 5.64916 38.1773 5.79176 38.7089 6.07697C39.2533 6.3492 39.6746 6.71867 39.9728 7.18536V5.9214H43.4341ZM38.0283 13.3302C38.6505 13.3302 39.1302 13.1163 39.4672 12.6885C39.8043 12.2607 39.9728 11.6449 39.9728 10.8411C39.9728 10.0244 39.8043 9.40216 39.4672 8.97436C39.1302 8.53359 38.6505 8.31321 38.0283 8.31321C37.419 8.31321 36.9393 8.54007 36.5893 8.9938C36.2393 9.43457 36.0643 10.0633 36.0643 10.88C36.0643 11.6708 36.2328 12.2801 36.5698 12.7079C36.9069 13.1227 37.393 13.3302 38.0283 13.3302Z" fill="black"/>
<path d="M46.1094 15.7998V5.9214H49.6291V15.7998H46.1094ZM46.0122 1.07945H49.6874V4.24908H46.0122V1.07945Z" fill="black"/>
<path d="M58.5558 5.68805C59.0355 5.68805 59.4049 5.75935 59.6642 5.90196V9.11048C59.1068 8.8512 58.5688 8.72156 58.0502 8.72156C56.5723 8.72156 55.8334 9.42809 55.8334 10.8411V15.7998H52.3138V8.76046C52.3138 7.69743 52.2619 6.75108 52.1582 5.9214H55.4639L55.6779 7.57428C55.9112 6.96498 56.2871 6.49829 56.8057 6.17419C57.3242 5.8501 57.9076 5.68805 58.5558 5.68805Z" fill="black"/>
<path d="M68.1308 13.1163C68.3641 13.1163 68.6752 13.0774 69.0642 12.9996V15.6636C68.5845 15.8581 67.9752 15.9553 67.2363 15.9553C65.901 15.9553 64.8834 15.5794 64.1833 14.8275C63.4962 14.0756 63.1527 13.032 63.1527 11.6967V8.50766H61.3054V5.9214H63.1527V3.68516L66.6723 2.55732V5.9214H69.0447V8.50766H66.6723V11.6967C66.6723 12.1634 66.8085 12.5199 67.0807 12.7662C67.3659 12.9996 67.7159 13.1163 68.1308 13.1163Z" fill="black"/>
<path d="M81.3735 5.9214V15.7998H77.9122V14.458C77.627 14.9247 77.2122 15.2942 76.6677 15.5664C76.1232 15.8257 75.5269 15.9553 74.8787 15.9553C74.036 15.9553 73.2841 15.7479 72.623 15.3331C71.9618 14.9182 71.4433 14.3284 71.0674 13.5635C70.7044 12.7857 70.5229 11.8912 70.5229 10.88C70.5229 9.85589 70.7108 8.94843 71.0868 8.15764C71.4627 7.36686 71.9813 6.75108 72.6424 6.31031C73.3036 5.86955 74.049 5.64916 74.8787 5.64916C75.5269 5.64916 76.1167 5.79176 76.6482 6.07697C77.1927 6.3492 77.614 6.71867 77.9122 7.18536V5.9214H81.3735ZM75.9676 13.3302C76.5899 13.3302 77.0696 13.1163 77.4066 12.6885C77.7437 12.2607 77.9122 11.6449 77.9122 10.8411C77.9122 10.0244 77.7437 9.40216 77.4066 8.97436C77.0696 8.53359 76.5899 8.31321 75.9676 8.31321C75.3583 8.31321 74.8787 8.54007 74.5287 8.9938C74.1786 9.43457 74.0036 10.0633 74.0036 10.88C74.0036 11.6708 74.1722 12.2801 74.5092 12.7079C74.8463 13.1227 75.3324 13.3302 75.9676 13.3302Z" fill="black"/>
<path d="M90.5631 5.64916C91.4057 5.64916 92.1576 5.86955 92.8187 6.31031C93.4799 6.75108 93.9984 7.36686 94.3744 8.15764C94.7503 8.94843 94.9383 9.85589 94.9383 10.88C94.9383 11.8912 94.7503 12.7857 94.3744 13.5635C94.0114 14.3284 93.4993 14.9182 92.8382 15.3331C92.177 15.7479 91.4187 15.9553 90.5631 15.9553C89.9149 15.9553 89.325 15.8322 88.7935 15.5859C88.262 15.3266 87.8536 14.9701 87.5684 14.5163V20H84.0488V8.76046C84.0488 7.69743 83.9969 6.75108 83.8932 5.9214H87.199L87.3934 7.4576C87.6397 6.91313 88.0481 6.47884 88.6185 6.15475C89.1889 5.81769 89.8371 5.64916 90.5631 5.64916ZM89.4936 13.3302C90.1288 13.3302 90.6084 13.1227 90.9325 12.7079C91.2566 12.2931 91.4187 11.6838 91.4187 10.88C91.4187 10.0633 91.2501 9.43457 90.9131 8.9938C90.589 8.54007 90.1158 8.31321 89.4936 8.31321C88.8583 8.31321 88.3722 8.52711 88.0351 8.95491C87.6981 9.38271 87.5296 10.0115 87.5296 10.8411C87.5296 11.6449 87.6981 12.2607 88.0351 12.6885C88.3722 13.1163 88.8583 13.3302 89.4936 13.3302Z" fill="black"/>
<path d="M7.09078 19.035C11.0069 19.035 14.1816 15.863 14.1816 11.95C14.1816 8.03709 11.0069 4.86503 7.09078 4.86503C3.17465 4.86503 0 8.03709 0 11.95C0 15.863 3.17465 19.035 7.09078 19.035Z" fill="#173BEF"/>
<path fill-rule="evenodd" clip-rule="evenodd" d="M14.606 0L22.8607 12.69H6.35022L14.606 0Z" fill="#ADBBFF"/>
</svg>
