<svg width="19" height="13" viewBox="0 0 19 13" fill="none" xmlns="http://www.w3.org/2000/svg">
    <path d="M17.3812 1.1286C17.3812 0.98039 17.352 0.833632 17.2953 0.696703C17.2386 0.559775 17.1554 0.435359 17.0506 0.330559C16.9458 0.225759 16.8214 0.142627 16.6845 0.0859093C16.5475 0.0291918 16.4008 0 16.2526 0H2.74738C2.44806 0 2.16099 0.118905 1.94934 0.330559C1.73769 0.542213 1.61878 0.829276 1.61878 1.1286V10.3455H17.3888V1.1286H17.3812ZM16.0645 9.0288H2.93548V1.3167H16.0645V9.0288Z"
          fill="black"/>
    <path d="M11.1473 10.7217C11.1773 10.7806 11.1929 10.8457 11.1929 10.9117C11.1929 11.0241 11.1483 11.1319 11.0688 11.2113C10.9893 11.2908 10.8816 11.3354 10.7692 11.3354H8.2308C8.11843 11.3354 8.01066 11.2908 7.9312 11.2113C7.85174 11.1319 7.8071 11.0241 7.8071 10.9117C7.80708 10.8457 7.8227 10.7806 7.8527 10.7217H0C0 11.5786 0.7714 12.274 1.7233 12.274H17.2767C18.2267 12.274 19 11.5786 19 10.7217H11.1473Z"
          fill="black"/>
</svg>
