<svg class="upload_icon" width="15" height="14" viewBox="0 0 15 14" fill="none" xmlns="http://www.w3.org/2000/svg">
<path d="M12.1993 3.62122C12.0389 2.66811 11.5669 1.79827 10.8452 1.13819C10.0432 0.404072 9.00062 0 7.91487 0C7.07588 0 6.25848 0.240592 5.5583 0.694016C4.97532 1.07033 4.49106 1.57927 4.14867 2.17767C4.00062 2.14991 3.84639 2.13448 3.69217 2.13448C2.38125 2.13448 1.314 3.20173 1.314 4.51265C1.314 4.68229 1.33251 4.84577 1.36336 5.00617C0.515114 5.62307 0 6.61629 0 7.67427C0 8.52869 0.317705 9.35842 0.897594 10.0154C1.49291 10.6878 2.27946 11.0857 3.11845 11.132C3.1277 11.132 3.13387 11.132 3.14312 11.132H5.7958C6.02714 11.132 6.21221 10.9469 6.21221 10.7156C6.21221 10.4843 6.02714 10.2992 5.7958 10.2992H3.15546C1.89389 10.2221 0.832819 9.02221 0.832819 7.67119C0.832819 6.79827 1.30167 5.98396 2.05737 5.54287C2.23319 5.44109 2.30722 5.22825 2.23936 5.03701C2.17767 4.87045 2.14682 4.69463 2.14682 4.50648C2.14682 3.65515 2.84084 2.96113 3.69217 2.96113C3.87415 2.96113 4.05305 2.99198 4.21962 3.05367C4.4232 3.1277 4.64837 3.03516 4.7409 2.84084C5.31771 1.61629 6.56385 0.82665 7.91795 0.82665C9.73782 0.82665 11.24 2.19001 11.4127 3.99753C11.4312 4.18569 11.5731 4.33683 11.7582 4.36767C13.1308 4.6021 14.1672 5.86983 14.1672 7.31647C14.1672 8.84947 12.9611 10.182 11.4744 10.2961H9.20111C8.96977 10.2961 8.7847 10.4812 8.7847 10.7125C8.7847 10.9439 8.96977 11.1289 9.20111 11.1289H11.4898C11.4991 11.1289 11.5083 11.1289 11.5207 11.1289C12.4614 11.0611 13.3405 10.6292 13.9944 9.90746C14.6453 9.19186 15 8.27267 15 7.31647C14.9969 5.58606 13.8155 4.04688 12.1993 3.62122Z" fill="#2F80ED"/>
<path d="M9.99929 8.06907C10.1628 7.90559 10.1628 7.64341 9.99929 7.47993L7.79386 5.2745C7.71674 5.19739 7.60879 5.15112 7.50083 5.15112C7.39287 5.15112 7.28491 5.19431 7.2078 5.2745L5.00237 7.47993C4.83889 7.64341 4.83889 7.90559 5.00237 8.06907C5.08257 8.14927 5.19053 8.19245 5.2954 8.19245C5.40027 8.19245 5.50823 8.15236 5.58843 8.06907L7.08442 6.57308V13.4485C7.08442 13.6798 7.26949 13.8649 7.50083 13.8649C7.73217 13.8649 7.91724 13.6798 7.91724 13.4485V6.57308L9.41323 8.06907C9.57362 8.23255 9.83581 8.23255 9.99929 8.06907Z" fill="#2F80ED"/>
</svg>
