<svg xmlns="http://www.w3.org/2000/svg" width="7" height="12" viewBox="0 0 7 12" fill="none">
    <path
        d="M5.9034 4.95597C5.84172 5.01765 5.7565 5.0559 5.66234 5.05555C5.47401 5.05555 5.32135 4.90288 5.32135 4.71456V3.00148C5.32423 2.38276 5.08382 1.8003 4.64349 1.35996C3.73839 0.454871 2.26567 0.454871 1.36058 1.35996C0.920242 1.8003 0.679476 2.38241 0.68236 2.99983L0.682419 4.71426C0.682419 4.90259 0.529755 5.05525 0.341369 5.05531C0.152982 5.05525 0.000318335 4.90259 0.000318327 4.71426L0.000377104 3.00112C-0.00386031 2.20238 0.308588 1.44771 0.878103 0.878197C2.04903 -0.292732 3.95432 -0.292732 5.12525 0.878197C5.69512 1.44807 6.00722 2.20308 6.00333 3.00336L6.00304 4.71485C6.00304 4.80937 5.96514 4.89423 5.9034 4.95597Z"
        fill="black"
    />
    <path
        d="M5.12526 10.7732C3.95433 11.9441 2.04904 11.9441 0.878114 10.7732C0.308245 10.2033 -0.00379065 9.44834 3.47602e-05 8.64801L0.000387875 6.93646C0.000387875 6.74813 0.153051 6.59547 0.341379 6.59547C0.529707 6.59547 0.682371 6.74813 0.682371 6.93646L0.682429 8.6496C0.678839 9.26831 0.919605 9.85042 1.36023 10.2911C2.26533 11.1961 3.73805 11.1961 4.64314 10.2911C5.08348 9.85072 5.32424 9.26861 5.32136 8.65119V6.93681C5.32136 6.74849 5.47402 6.59582 5.66235 6.59582C5.85074 6.59576 6.0034 6.74843 6.00334 6.93681L6.0034 8.64995C6.00723 9.44899 5.69484 10.2036 5.12526 10.7732Z"
        fill="black"
    />
    <path
        d="M3.24274 8.63801C3.18106 8.69969 3.09584 8.73794 3.00174 8.73765C2.81335 8.73759 2.66069 8.58493 2.66069 8.3966L2.66063 3.25401C2.66069 3.06562 2.81335 2.91296 3.00168 2.91296C3.19007 2.91302 3.34273 3.06568 3.34273 3.25401L3.34273 8.39666C3.34267 8.49112 3.30448 8.57628 3.24274 8.63801Z"
        fill="black"
    />
</svg>