<svg width="10" height="10" viewBox="0 0 10 10" xmlns="http://www.w3.org/2000/svg" id="close">
<path d="M9.48938 1.57989C9.47817 1.30766 9.37691 1.03766 9.16836 0.829891C8.96064 0.622126 8.6906 0.520166 8.41836 0.508872C8.11538 0.496127 7.80864 0.598126 7.57766 0.829891L4.99915 3.40915L2.42064 0.829891C2.18891 0.598126 1.88291 0.496872 1.57989 0.508872C1.30766 0.520127 1.03766 0.621381 0.829892 0.829891C0.622166 1.03766 0.520166 1.30766 0.508872 1.57989C0.496127 1.88291 0.598127 2.18887 0.829892 2.42064L3.4084 4.99989L0.829892 7.5784C0.598127 7.81013 0.496872 8.11617 0.508872 8.41911C0.520127 8.69134 0.621382 8.96138 0.829892 9.16911C1.03766 9.37687 1.30766 9.47887 1.57989 9.49013C1.88291 9.50287 2.18891 9.40091 2.42064 9.16911L4.99915 6.59064L7.5784 9.16989C7.81017 9.40162 8.11617 9.50287 8.41915 9.49091C8.69138 9.47966 8.96138 9.3784 9.16915 9.16989C9.37691 8.96213 9.47887 8.69213 9.49017 8.41989C9.50291 8.11687 9.40091 7.81091 9.16915 7.57915L6.58989 4.99989L9.16836 2.42138C9.40017 2.18966 9.50213 1.88366 9.48938 1.57989Z"/>
</svg>
