<svg width="24" height="25" viewBox="0 0 24 25" fill="none" xmlns="http://www.w3.org/2000/svg" id="delete-file">
<path d="M16.8 7.02344H14.4V6.64258C14.4 6.01256 13.8617 5.5 13.2 5.5H10.8C10.1383 5.5 9.6 6.01256 9.6 6.64258V7.02344H7.2C6.53832 7.02344 6 7.536 6 8.16602V8.92773C6 9.13807 6.17909 9.30859 6.4 9.30859H6.83155L7.5352 17.4576L7.53549 17.4609C7.59208 18.0533 8.10587 18.5 8.73056 18.5H15.2694C15.8941 18.5 16.4079 18.0533 16.4645 17.4609L16.4648 17.4576L17.1685 9.30859H17.6C17.8209 9.30859 18 9.13807 18 8.92773V8.16602C18 7.536 17.4617 7.02344 16.8 7.02344ZM10.4 6.64258C10.4 6.43257 10.5794 6.26172 10.8 6.26172H13.2C13.4206 6.26172 13.6 6.43257 13.6 6.64258V7.02344H10.4V6.64258ZM15.6677 17.3932C15.6482 17.59 15.4772 17.7383 15.2694 17.7383H8.73056C8.52277 17.7383 8.35179 17.59 8.33232 17.3932L7.63424 9.30859H16.3658L15.6677 17.3932ZM17.2 8.54688H6.8V8.16602C6.8 7.95601 6.97944 7.78516 7.2 7.78516H16.8C17.0206 7.78516 17.2 7.95601 17.2 8.16602V8.54688Z" fill="#F46363"/>
<path d="M11.9996 10.0703C11.7787 10.0703 11.5996 10.2408 11.5996 10.4512V15.834C11.5996 16.0443 11.7787 16.2148 11.9996 16.2148C12.2205 16.2148 12.3996 16.0443 12.3996 15.834V10.4512C12.3996 10.2408 12.2205 10.0703 11.9996 10.0703Z" fill="#F46363"/>
<path d="M14.6248 10.0788C14.4045 10.0626 14.2134 10.2196 14.198 10.4293L13.8037 15.7977C13.7883 16.0074 13.9544 16.1906 14.1748 16.2068C14.3951 16.223 14.5862 16.066 14.6016 15.8563L14.9958 10.4879C15.0112 10.2781 14.8451 10.095 14.6248 10.0788Z" fill="#F46363"/>
<path d="M9.37595 10.0788C9.15564 10.0949 8.9895 10.2781 9.0049 10.4879L9.39879 15.8562C9.41418 16.066 9.60527 16.223 9.82559 16.2068C10.0459 16.1906 10.212 16.0075 10.1966 15.7977L9.80275 10.4294C9.78736 10.2196 9.59627 10.0626 9.37595 10.0788Z" fill="#F46363"/>
</svg>
