<svg width="138" height="170" viewBox="0 0 138 170" fill="none" xmlns="http://www.w3.org/2000/svg">
<path d="M61.156 89.2215C61.7375 87.711 64.7018 87.4911 66.0634 87.094C66.6308 86.9167 69.3256 86.0019 69.0065 85.08C69.4532 86.3636 71.5098 85.7891 71.056 84.5126C70.9551 84.1039 70.7229 83.7396 70.3949 83.4756C70.0669 83.2117 69.6613 83.0628 69.2405 83.0518C67.8222 83.0518 66.9712 84.4701 65.7798 84.9594C63.2906 85.9168 60.2128 85.8317 59.1065 88.6896C58.6101 89.9661 60.6667 90.5193 61.156 89.257V89.2215Z" fill="#ADBBFF"/>
<path d="M41.8733 75.066C42.4548 73.3995 43.7455 71.2011 45.7028 70.9103L44.5043 70.421C45.2134 71.6407 42.8022 75.9454 42.2775 77.2503L44.0575 76.7822L44.1284 74.7398L42.781 73.7115C42.9518 74.6718 42.8256 75.6614 42.4193 76.5481L44.4688 77.1155C44.7412 75.8957 45.2841 74.7526 46.0574 73.7707C46.8307 72.7887 47.8146 71.993 48.9366 71.4422L47.4828 69.9884L43.6603 75.0873C43.58 75.2284 43.5328 75.386 43.5223 75.548C43.5117 75.7101 43.5382 75.8724 43.5997 76.0227C43.6612 76.173 43.7561 76.3074 43.8772 76.4156C43.9983 76.5238 44.1424 76.6031 44.2986 76.6474C45.2772 76.7893 45.4333 76.6049 46.1992 75.9808C47.1353 75.2149 47.9224 73.7895 48.816 72.8747C50.0181 71.6596 51.3258 70.5537 52.7235 69.57C52.9219 69.4494 53.0757 69.2675 53.1617 69.0519C53.2478 68.8363 53.2614 68.5986 53.2006 68.3745C53.1398 68.1505 53.0078 67.9522 52.8245 67.8097C52.6413 67.6672 52.4166 67.5881 52.1845 67.5843C49.6102 67.3148 47.0076 69.4281 44.8376 70.5841L46.2914 72.0379C47.7806 69.492 50.6315 69.2509 52.61 67.5418C53.5556 67.5418 53.8062 67.3243 53.3617 66.8893C53.1726 66.4165 52.7991 66.3007 52.2413 66.5418C51.7762 66.6222 51.3294 66.7855 50.9222 67.024C49.8088 67.4992 50.6031 69.3076 51.7448 68.9672C53.5958 68.414 55.7233 67.4708 57.7018 67.8254C59.5315 68.1587 61.3611 69.4707 63.049 70.2153C65.5098 71.3074 68.1762 72.13 70.8923 71.6336C73.2326 71.2081 75.7076 69.8607 77.828 68.8395C79.3527 68.1303 80.5299 67.1943 81.0405 65.5419C82.7567 59.9891 77.9769 60.8189 74.1403 60.8827C72.4288 60.9485 70.715 60.9248 69.006 60.8117C65.0417 60.4643 67.7436 60.4997 65.8431 59.4856C64.2475 58.6346 63.5454 58.3013 61.5881 58.5991C60.6591 58.741 60.5953 60.1239 61.3328 60.5423C63.0812 61.5996 65.1773 61.9208 67.1621 61.4358C67.3405 61.3846 67.5025 61.2879 67.6322 61.1552C67.762 61.0225 67.855 60.8584 67.9022 60.6789C67.9494 60.4994 67.9492 60.3108 67.9015 60.1314C67.8538 59.9521 67.7603 59.7882 67.6302 59.6558C67.3228 59.3439 66.9545 59.0985 66.5483 58.935C66.142 58.7715 65.7064 58.6934 65.2687 58.7055C64.0347 58.5992 63.8503 60.4501 64.985 60.7976C65.7934 61.0529 67.0487 61.3365 67.1692 61.6202C67.1692 61.6202 66.8288 62.3294 66.8146 62.3648C66.7488 62.6335 66.7902 62.9174 66.9301 63.1561C67.07 63.3947 67.2974 63.5695 67.564 63.6433C67.8306 63.7172 68.1155 63.6842 68.3583 63.5514C68.601 63.4186 68.7825 63.1965 68.8641 62.9322C68.9351 62.684 69.708 62.0741 69.5166 61.1805C69.1832 59.6133 66.7863 59.1381 65.5452 58.7481L65.2616 60.8401L66.1197 61.1663L66.5877 59.3864C65.8815 59.5978 65.1362 59.6439 64.4094 59.5209C63.6825 59.3979 62.9938 59.1092 62.3965 58.6772L62.1412 60.6203C64.907 60.1877 63.978 61.6557 65.4247 62.2585C66.9877 62.7661 68.6253 63.0059 70.2683 62.9676C72.3958 63.0598 74.58 62.7407 76.7075 62.9038C81.7426 63.2938 76.7075 66.8113 74.1687 67.9389C71.6299 69.0665 69.6726 69.96 66.8005 69.2792C64.4389 68.719 62.3752 67.3999 60.1626 66.4425C56.8367 65.0242 54.4893 65.861 51.1562 66.861L51.9789 68.8041C53.3972 68.2013 55.241 69.3359 56.2339 67.641C56.3585 67.433 56.4409 67.2024 56.4763 66.9624C56.5116 66.7225 56.4993 66.4779 56.44 66.2427C56.3808 66.0075 56.2757 65.7864 56.1308 65.5919C55.9859 65.3974 55.804 65.2334 55.5956 65.1093C52.3973 63.3081 45.9652 68.336 44.4688 70.8961C44.3574 71.0993 44.3149 71.3331 44.3477 71.5624C44.3805 71.7918 44.4867 72.0043 44.6506 72.1681C44.8144 72.332 45.0269 72.4382 45.2563 72.471C45.4856 72.5038 45.7194 72.4613 45.9226 72.3499C47.5679 71.4705 50.2272 69.4352 52.1916 69.6409L51.6526 67.6552C50.2647 68.6235 48.9536 69.6976 47.731 70.8678C47.3906 71.2011 44.7737 74.5129 44.8943 74.5199L45.5326 76.0801L49.3195 70.9458C50.0287 70.0309 48.7238 69.0381 47.8657 69.492C46.4969 70.1762 45.2979 71.157 44.3557 72.3628C43.4136 73.5687 42.7521 74.9694 42.4193 76.4631C42.3534 76.7318 42.3948 77.0156 42.5347 77.2543C42.6746 77.493 42.902 77.6678 43.1687 77.7416C43.4353 77.8154 43.7202 77.7824 43.9629 77.6496C44.2057 77.5168 44.3871 77.2948 44.4688 77.0304C44.8509 75.9437 45.0007 74.7888 44.9085 73.6406C44.8659 73.0236 44.2489 72.3357 43.5611 72.6123C41.0151 73.6406 40.1996 76.3638 42.547 78.2076C42.681 78.3338 42.8449 78.4238 43.0233 78.4692C43.2017 78.5146 43.3887 78.5138 43.5667 78.467C43.7447 78.4202 43.9079 78.3289 44.0409 78.2016C44.1739 78.0744 44.2724 77.9154 44.327 77.7396C45.2205 75.527 47.7877 71.6549 46.341 69.2721C46.2172 69.0758 46.0351 68.9231 45.8202 68.8354C45.6053 68.7476 45.3684 68.7293 45.1425 68.7828C42.4689 69.1799 40.6393 72.1017 39.8309 74.4561C39.377 75.7539 41.4336 76.3071 41.8803 75.0235L41.8733 75.066Z" fill="#ADBBFF"/>
<path d="M58.6308 57.7406C53.2558 60.7389 48.1055 64.1234 43.2206 67.8675C41.8023 68.9312 39.9372 69.9595 39.1217 71.5693C38.3061 73.1791 38.5827 75.8243 38.7174 77.5831C38.9585 80.7034 41.3768 81.9161 44.0362 80.1502C48.2415 77.3632 50.0428 70.1084 55.3828 68.9454C58.4252 68.2859 61.0562 70.6474 63.6021 71.7821C65.328 72.6013 67.2525 72.9089 69.1478 72.6685C73.1191 72.2005 78.14 71.0091 80.8065 67.7753C82.6928 65.4847 83.5226 61.5346 81.2958 59.1518C79.7853 57.5349 77.75 58.237 75.7785 58.4427C71.9064 58.8043 68.7648 57.847 65.0062 57.2584C59.3755 56.3719 55.0779 60.4354 50.8725 63.6409C46.3622 67.1158 42.3058 71.0233 39.6039 76.0867C39.5132 76.2494 39.4662 76.4327 39.4674 76.6189C39.4687 76.8051 39.5181 76.9877 39.611 77.1491C39.7038 77.3105 39.8369 77.4451 39.9972 77.5398C40.1575 77.6345 40.3396 77.6861 40.5258 77.6895C43.9652 78.0724 45.6814 74.4698 47.6175 72.2005C50.5916 68.7378 54.0167 65.6896 57.8011 63.1373L56.2409 61.9388L54.1134 64.4209C53.0709 64.7968 53.1277 66.6761 54.3971 66.513C55.3548 66.3018 56.347 66.3018 57.3047 66.513C57.9666 66.773 58.6261 67.0425 59.2833 67.3214C59.5389 67.3416 59.796 67.3106 60.0396 67.2302C60.2831 67.1499 60.5082 67.0217 60.7016 66.8534C61.1601 66.4922 61.5044 66.0061 61.6931 65.4538C61.8819 64.9015 61.9069 64.3064 61.7653 63.7401C60.9427 60.9744 57.6096 61.719 56.6948 63.9033L58.255 63.265L59.5386 64.9528H61.6661C61.5951 63.6196 62.2121 64.7755 61.4179 66.2293L63.361 66.4846C62.7659 65.0849 62.6367 63.531 62.9922 62.0523L61.432 62.6906C59.678 64.1373 59.5882 64.3902 61.1625 63.4494C62.3823 62.3667 63.1506 62.8631 63.4673 64.9386C64.0772 65.6478 65.2332 65.4634 64.0205 67.3143H65.8572L65.3537 66.5059L66.2685 64.4635C65.1339 66.2175 64.4814 66.4681 64.3112 65.2152C63.8999 64.5438 64.1552 64.0711 65.0772 63.7969C66.0558 62.6575 66.2922 62.6788 65.7863 63.8607C65.2804 65.0426 65.4932 65.0568 66.4246 63.9033C67.0675 62.7639 67.5403 62.7899 67.8429 63.9813C68.2365 64.5088 68.4947 65.1248 68.5946 65.7754C69.3747 68.9312 67.9989 65.4492 68.7081 64.8677H72.2539L71.7433 65.5769L70.3675 67.2505C70.1217 62.5984 70.8072 61.2651 72.4241 63.2508C72.6227 63.4706 74.3318 66.9881 74.7431 66.4988L76.0338 66.3357L76.6011 66.1087L77.8918 65.9457C75.8707 64.4919 74.3459 63.343 73.6368 60.8822L72.3248 62.1941C73.6935 62.6622 75.3175 63.265 76.7855 62.9884C77.1968 62.9104 77.9343 62.9884 77.9272 62.5133C77.9272 62.3573 75.1686 63.5416 74.6367 63.655C72.3816 64.1373 69.9278 63.3217 67.6089 63.1231C64.8318 62.877 62.0382 62.8818 59.262 63.1373C57.9075 63.2579 57.8933 65.3854 59.262 65.2648C63.7723 64.8535 67.8925 65.3996 72.3603 65.8818C75.2466 66.1938 77.3812 64.7826 79.9271 63.5487C80.0891 63.456 80.2232 63.3216 80.3155 63.1595C80.4078 62.9973 80.4549 62.8133 80.4519 62.6268C80.3881 61.024 79.0335 59.1377 77.2819 60.2652C75.9841 61.0949 76.126 63.3856 77.7216 63.8111C78.0278 63.8769 78.346 63.861 78.6442 63.765C78.9424 63.6691 79.2101 63.4965 79.4206 63.2645C79.6311 63.0325 79.7768 62.7493 79.8433 62.4432C79.9098 62.137 79.8947 61.8188 79.7994 61.5204C79.5796 60.7262 79.147 60.5418 78.452 60.2723C78.2109 60.1801 77.9698 60.3503 77.7429 60.329C75.3813 60.0879 74.7856 60.7546 72.7432 60.0525C72.5616 60.0037 72.3703 60.0036 72.1886 60.0522C72.0069 60.1008 71.8413 60.1965 71.7083 60.3295C71.5753 60.4625 71.4796 60.6281 71.431 60.8098C71.3824 60.9915 71.3825 61.1828 71.4313 61.3644C72.1404 63.6267 73.6439 66.2222 76.0267 67.0378C76.4159 67.2037 76.8378 67.2785 77.2604 67.2567C77.6829 67.2348 78.0949 67.1168 78.4649 66.9116C78.8349 66.7064 79.1532 66.4195 79.3956 66.0727C79.6379 65.7258 79.7978 65.3283 79.8633 64.9103C80.3313 60.8113 73.9276 61.5133 75.3813 65.4776C76.8351 69.4418 82.9765 65.4776 79.4732 62.4849C76.1827 59.6483 73.19 65.1726 76.7004 67.6973C76.9032 67.8167 77.14 67.8656 77.3736 67.836C77.6071 67.8065 77.8243 67.7004 77.9911 67.5342C79.5087 65.6194 78.53 61.9176 75.5586 62.3998C72.5872 62.8821 72.8283 66.7257 74.8495 68.0732C75.0523 68.1926 75.2891 68.2414 75.5226 68.2119C75.7562 68.1824 75.9734 68.0762 76.1401 67.91C78.3527 65.2932 75.7572 61.6339 72.495 61.9317C69.6584 62.187 68.084 65.7187 70.3108 67.8108C72.6723 70.0305 75.7217 67.4065 75.509 64.6691C75.2962 61.9317 70.8852 58.1165 68.1053 60.0099C65.4885 61.7899 66.6089 66.7754 69.8073 67.1016C72.2043 67.3711 74.3105 64.1089 72.3106 62.3005C69.4101 59.6766 66.9706 64.3429 67.7933 66.8392C68.7294 69.6758 72.2894 71.392 73.6793 67.832C74.5091 65.7045 72.7007 60.0312 69.8428 62.8679C67.6727 64.9954 68.9208 70.0446 72.2043 70.0872C75.8352 70.1368 75.5941 65.2294 73.6226 63.3075C73.014 62.718 72.2572 62.3041 71.4325 62.1099C70.6078 61.9156 69.7458 61.9481 68.9381 62.204C68.1304 62.4599 67.407 62.9297 66.8446 63.5634C66.2822 64.1972 65.9018 64.9714 65.7438 65.8038C65.2686 68.1086 67.9138 72.087 70.2044 69.4276C72.3319 66.9668 69.786 61.3573 67.0486 60.3858C63.205 59.0171 61.9994 62.9104 63.6375 65.74C65.0559 68.2433 68.9208 69.2078 69.6513 65.5911C70.2895 62.4495 65.4743 58.8114 62.7156 60.6766C59.8293 62.6197 62.7156 70.4205 66.1622 70.1936C70.1761 69.9241 69.5307 63.3217 66.7862 61.7687C66.2241 61.471 65.5757 61.379 64.9529 61.5084C64.3301 61.6379 63.7721 61.9808 63.3751 62.4778C61.7582 64.3004 62.8362 66.5555 63.9283 68.3213C64.0247 68.4783 64.1598 68.6079 64.3206 68.6978C64.4813 68.7877 64.6625 68.8349 64.8467 68.8349C65.0309 68.8349 65.212 68.7877 65.3728 68.6978C65.5335 68.6079 65.6686 68.4783 65.765 68.3213C67.0628 66.3357 67.5947 62.1019 64.6942 60.9885C62.1057 59.9886 60.8009 63.4139 61.0491 65.4067C61.2689 67.1725 63.1766 69.5908 65.0488 67.8391C67.0912 65.9315 64.5807 61.797 62.8433 60.6553C56.326 56.4003 56.1913 68.6405 62.1341 66.9385C62.6487 66.7669 63.1115 66.4678 63.4794 66.0691C63.8472 65.6703 64.108 65.1849 64.2376 64.6582C64.3672 64.1314 64.3612 63.5804 64.2203 63.0565C64.0795 62.5327 63.8082 62.053 63.4319 61.6623C63.0313 61.2932 62.5453 61.0294 62.0176 60.8944C61.4898 60.7594 60.9369 60.7576 60.4082 60.889C59.8796 61.0205 59.3919 61.2811 58.9889 61.6475C58.5858 62.014 58.28 62.4747 58.0989 62.9884C57.177 65.8251 60.1768 68.1724 62.7298 67.0236C65.6232 65.7258 65.0133 62.0098 62.4391 60.79C62.2977 60.711 62.1403 60.6649 61.9786 60.6551C61.817 60.6453 61.6552 60.6721 61.5053 60.7334C61.3554 60.7947 61.2212 60.889 61.1128 61.0093C61.0043 61.1296 60.9244 61.2728 60.8789 61.4283C60.406 63.2759 60.5352 65.2261 61.2476 66.9952C61.3085 67.1924 61.4246 67.3681 61.5823 67.5012C61.74 67.6343 61.9327 67.7194 62.1373 67.7463C62.3419 67.7732 62.55 67.7408 62.7367 67.6529C62.9235 67.565 63.0811 67.4253 63.1908 67.2505C64.1127 65.5698 65.4743 61.5063 62.6518 60.79C60.113 60.1447 59.3754 63.0451 59.4747 64.9032C59.5456 66.2648 61.6022 66.2789 61.6022 64.9032C61.5526 62.6693 60.1839 59.5064 57.3047 60.5205C56.8428 60.6805 56.4399 60.9759 56.1484 61.3682C55.8569 61.7605 55.6903 62.2316 55.6704 62.7199C55.6505 63.2083 55.7782 63.6913 56.0368 64.106C56.2955 64.5208 56.673 64.848 57.1203 65.045C57.262 65.1226 57.4192 65.1676 57.5804 65.1768C57.7417 65.1859 57.903 65.1588 58.0525 65.0977C58.202 65.0365 58.336 64.9427 58.4446 64.8232C58.5532 64.7037 58.6338 64.5614 58.6805 64.4067C59.1958 64.8417 59.2454 64.9504 58.8294 64.733C58.3373 64.5186 57.8164 64.3776 57.2834 64.3145C56.3087 64.1569 55.315 64.1569 54.3404 64.3145L54.624 66.4066C55.5332 66.1412 56.3521 65.6311 56.9911 64.932C57.6302 64.2329 58.0649 63.3717 58.2479 62.4424C58.4464 61.6056 57.4891 60.6907 56.6877 61.2439C54.0386 63.0347 51.5496 65.0515 49.2486 67.2718C47.3834 69.0944 43.2135 75.8385 40.5045 75.5407L41.4264 77.1434C43.8873 72.5267 47.5111 68.9383 51.5888 65.7329C53.6454 64.116 55.7658 62.5062 57.9713 61.0737C61.2618 58.9462 63.9425 59.1518 67.5521 59.9886C69.7944 60.5514 72.1082 60.7761 74.4169 60.6553C75.3742 60.5985 77.5939 59.9887 78.5088 60.2298C80.6859 60.8042 80.7781 62.9033 80.2037 64.577C78.4946 69.5837 68.9279 71.7466 64.5666 69.8531C61.3966 68.4773 58.5103 65.9953 54.8297 66.8676C51.1491 67.7398 48.7592 71.3495 46.5395 74.1081C45.9155 74.8811 44.9297 76.5548 44.1142 77.115C43.684 77.9991 43.0268 78.1173 42.1427 77.4696C40.9087 77.6114 40.4643 77.1387 40.8095 76.0513C39.7457 72.5905 43.5398 70.2007 45.7736 68.5128C50.2174 65.2394 54.87 62.2593 59.7017 59.5915C60.8931 58.9249 59.8222 57.081 58.6308 57.7547V57.7406Z" fill="#ADBBFF"/>
<path d="M62.5596 91.0718L64.9211 92.2632L65.7438 90.3201C64.0459 90.0903 62.3975 89.5823 60.8647 88.8167V90.6534C61.9894 90.1072 63.261 89.9405 64.4885 90.1783C64.7572 90.2442 65.041 90.2027 65.2797 90.0628C65.5184 89.9229 65.6932 89.6955 65.767 89.4289C65.8408 89.1623 65.8078 88.8774 65.6751 88.6346C65.5423 88.3919 65.3202 88.2105 65.0559 88.1288L63.0205 87.3133L63.4886 89.0932C64.1978 88.3841 65.0133 89.0932 65.1197 89.8024L66.148 88.455L66.7791 89.4124L68.5591 88.377L68.7861 87.3984L67.3323 87.0154L67.4812 88.1004L69.0414 87.4622L69.1903 86.8168L67.7365 86.4339L67.8074 87.4693L69.2612 87.0863C69.63 87.3274 70.7788 86.1927 70.9632 85.9516C71.2677 85.5427 71.4251 85.0429 71.41 84.5333L69.3179 84.817C69.434 85.1566 69.4763 85.5172 69.4421 85.8745C69.4078 86.2318 69.2977 86.5776 69.1192 86.889C68.9407 87.2004 68.6978 87.4702 68.4068 87.6803C68.1158 87.8904 67.7833 88.0361 67.4316 88.1075C65.8217 88.5259 64.0843 87.5473 62.8787 86.5899C61.815 85.7531 60.2974 87.2494 61.3753 88.0933C63.4177 89.7031 66.1409 91.0222 68.7364 89.8946C69.8165 89.4638 70.6909 88.6361 71.1801 87.5811C71.6693 86.5262 71.7364 85.324 71.3674 84.2213C71.2918 83.9801 71.1333 83.7734 70.92 83.6378C70.7067 83.5022 70.4522 83.4464 70.2017 83.4804C69.9512 83.5144 69.7208 83.6359 69.5513 83.8234C69.3818 84.0109 69.284 84.2523 69.2754 84.5049C69.2754 84.9517 68.2471 85.3772 67.9634 85.7034C67.6588 86.0413 67.4399 86.4475 67.3252 86.8877C67.2186 87.273 67.2454 87.6831 67.4011 88.0513C67.5569 88.4194 67.8325 88.7241 68.1833 88.9159C68.4273 89.0559 68.7166 89.0942 68.9887 89.0225C69.2607 88.9509 69.4936 88.775 69.6371 88.533C69.9262 88.0494 70.0729 87.494 70.0604 86.9307C70.0478 86.3674 69.8765 85.8191 69.5662 85.3489C69.419 85.111 69.1861 84.9387 68.9156 84.8674C68.6451 84.7962 68.3576 84.8314 68.1124 84.9659C67.7151 85.1624 67.3785 85.4627 67.1382 85.8351C66.898 86.2074 66.763 86.6379 66.7478 87.0808C66.7325 87.5237 66.8374 87.9625 67.0515 88.3505C67.2655 88.7386 67.5807 89.0614 67.9634 89.2847C68.1048 89.3637 68.2622 89.4098 68.4239 89.4196C68.5855 89.4294 68.7473 89.4027 68.8972 89.3413C69.0471 89.28 69.1813 89.1857 69.2897 89.0654C69.3982 88.9451 69.4781 88.8019 69.5236 88.6465C69.7128 88.2014 69.7785 87.7135 69.7136 87.2342C69.6487 86.7549 69.4556 86.302 69.1548 85.9233C69.0065 85.6867 68.7736 85.5155 68.5036 85.4444C68.2336 85.3733 67.9467 85.4076 67.701 85.5403C67.3192 85.7327 66.9889 86.0137 66.7377 86.3598C66.4866 86.7058 66.3218 87.1069 66.2573 87.5296C66.1927 87.9523 66.2302 88.3843 66.3667 88.7896C66.5031 89.1948 66.7345 89.5615 67.0415 89.8591C67.2093 90.0204 67.425 90.1226 67.656 90.1503C67.8871 90.178 68.1209 90.1297 68.322 90.0127C68.5231 89.8957 68.6807 89.7164 68.7708 89.5019C68.8609 89.2874 68.8788 89.0493 68.8215 88.8237C68.318 87.1998 66.1054 85.4765 64.7155 87.2991C64.4897 87.5851 64.3458 87.9271 64.2991 88.2885C64.2524 88.6498 64.3046 89.0171 64.4501 89.3512C64.5957 89.6853 64.8292 89.9736 65.1257 90.1854C65.4222 90.3973 65.7706 90.5247 66.1338 90.5541C66.8926 90.625 67.2543 89.845 67.1621 89.2067C66.7933 86.753 63.6659 85.9374 61.971 87.5898C61.8429 87.723 61.7511 87.8869 61.7046 88.0658C61.6581 88.2447 61.6584 88.4325 61.7054 88.6112C61.7524 88.79 61.8445 88.9536 61.973 89.0864C62.1015 89.2193 62.262 89.3169 62.439 89.3698L64.4743 90.1854L65.0417 88.1359C63.2556 87.7709 61.3986 88.0208 59.7726 88.845C59.6139 88.9402 59.4827 89.0747 59.3915 89.2357C59.3004 89.3966 59.2524 89.5784 59.2524 89.7634C59.2524 89.9484 59.3004 90.1302 59.3915 90.2911C59.4827 90.4521 59.6139 90.5867 59.7726 90.6818C61.4616 91.55 63.2828 92.1323 65.1622 92.4051C66.2685 92.6107 67.1337 91.0435 65.9849 90.462L63.6233 89.2705C62.4036 88.6536 61.3256 90.4903 62.5525 91.1073L62.5596 91.0718Z" fill="#ADBBFF"/>
<path d="M37.6892 97.9721C36.4553 94.2986 34.342 91.0436 32.9307 87.4481C32.1405 85.4647 31.7673 83.3398 31.8344 81.2058C31.9015 79.0719 32.4075 76.9746 33.3208 75.0448C33.8243 73.9385 35.9234 69.5133 37.0652 69.5062C39.4905 69.5062 38.1431 73.7045 37.6963 75.2363C36.8808 78.0304 36.1078 80.5763 36.6468 83.5264C37.1857 86.4765 38.5119 89.1572 39.7033 91.8095C41.3309 95.4687 42.7375 99.2222 43.9157 103.05L48.348 117.233C49.894 122.197 52.4824 127.729 50.9648 132.92C50.899 133.189 50.9404 133.472 51.0803 133.711C51.2202 133.95 51.4476 134.125 51.7142 134.198C51.9808 134.272 52.2657 134.239 52.5085 134.106C52.7512 133.974 52.9327 133.752 53.0143 133.487C54.5532 128.204 52.3903 123.048 50.8159 118.02L45.327 100.49C43.9796 96.185 42.0861 92.2421 40.3628 88.0863C39.4905 85.9588 38.5757 83.7533 38.5402 81.4344C38.4977 78.9948 39.5544 76.8815 40.1004 74.5625C40.5897 72.4989 41.2138 67.4283 38.3133 66.7617C35.4128 66.0951 32.4485 71.9315 31.4698 74.0236C29.9757 77.106 29.3762 80.5457 29.7395 83.9519C30.4061 89.2565 33.9448 93.6462 35.6185 98.6104C36.0511 99.9011 38.1076 99.3195 37.668 98.043L37.6892 97.9721Z" fill="black"/>
<path d="M36.2146 67.4426C35.9849 67.013 35.6723 66.6332 35.2949 66.3252C34.9176 66.0171 34.4829 65.7869 34.0161 65.6477C33.5492 65.5086 33.0595 65.4634 32.575 65.5146C32.0906 65.5658 31.6211 65.7125 31.1937 65.9462C30.4328 66.3266 29.8211 66.9507 29.4563 67.7191C29.1426 68.5305 28.9121 69.3716 28.7684 70.2296C28.3712 71.577 27.5699 72.5911 26.9884 73.8534C23.4425 81.5124 28.3074 89.1076 30.8817 96.2134C31.3426 97.4899 33.3992 96.9226 32.9312 95.6461C31.2008 90.8663 28.35 86.1787 27.9032 81.0373C27.6195 77.8247 28.7684 75.4916 30.0945 72.6691C30.676 71.4281 32.3851 64.8683 34.3495 68.5205C35.0019 69.7261 36.8458 68.6481 36.1862 67.4497L36.2146 67.4426Z" fill="black"/>
<path d="M30.896 132.963C41.9195 137.453 51.8391 144.278 59.9719 152.969C60.9151 153.968 62.4114 152.465 61.4753 151.465C53.0769 142.519 42.8373 135.503 31.4634 130.899C30.194 130.382 29.6408 132.438 30.896 132.949V132.963Z" fill="black"/>
<path d="M32.5341 132.636C33.8725 130.04 34.5779 127.164 34.5927 124.243C34.6075 121.322 33.9313 118.439 32.6192 115.829C30.7754 112.283 27.8111 109.447 26.2367 105.695C24.6624 101.944 24.1092 97.7666 23.4001 93.7598C21.8399 85.1718 20.2301 76.5979 18.7125 68.0028C18.6416 67.6057 17.7551 64.2726 18.3437 64.0031C19.3791 63.528 20.3507 65.1307 20.7478 65.7264C21.457 66.7831 21.769 68.3078 22.1661 69.5063C23.101 72.1116 23.8684 74.7741 24.4638 77.4773C24.7404 78.8176 26.7899 78.2503 26.5133 76.91C25.8192 73.7577 24.8972 70.66 23.7547 67.6412C23.0455 65.6697 22.1732 62.3082 20.0032 61.4076C13.3299 58.6418 17.6204 73.896 17.9182 75.5271L20.7053 90.8451C21.5775 95.6462 22.1236 100.674 23.7972 105.291C25.2155 109.319 28.0522 112.234 30.1797 115.85C31.5845 118.215 32.3687 120.896 32.4592 123.645C32.5497 126.394 31.9436 129.121 30.6974 131.573C30.0946 132.799 31.9314 133.877 32.5341 132.643V132.636Z" fill="black"/>
<path d="M29.7113 132.424C25.3428 138.579 24.3571 146.316 20.3007 152.635C19.5915 153.791 21.3999 154.855 22.1374 153.706C26.2009 147.387 27.1867 139.643 31.5481 133.494C32.3423 132.374 30.4985 131.31 29.7113 132.424Z" fill="black"/>
<path d="M60.1917 152.784C59.0482 158.35 56.8842 163.657 53.8092 168.435C53.1001 169.591 54.9084 170.655 55.646 169.506C58.8294 164.572 61.0748 159.093 62.2696 153.344C62.5461 152.011 60.4967 151.437 60.2201 152.777L60.1917 152.784Z" fill="black"/>
<path d="M52.6525 153.33C52.0937 153.256 51.5252 153.314 50.9931 153.5C50.6013 153.825 50.2885 154.235 50.0782 154.699C49.4874 155.576 49.1511 156.599 49.1067 157.656C49.1067 159.72 50.8087 161.407 52.922 160.861C53.9282 160.57 54.8165 159.968 55.4597 159.141C56.103 158.315 56.4683 157.306 56.5033 156.259C56.507 155.77 56.4141 155.285 56.2298 154.832C56.0455 154.38 55.7736 153.968 55.4296 153.62C55.0855 153.273 54.6762 152.997 54.2252 152.809C53.7742 152.62 53.2903 152.522 52.8015 152.521C51.4328 152.521 51.4328 154.649 52.8015 154.649C55.2055 154.592 54.3616 157.755 52.9575 158.556C51.9646 159.124 51.1775 158.649 51.2271 157.5C51.2697 156.564 51.9363 155.706 52.4398 154.961L51.5179 155.486H52.6383C54.007 155.486 54.007 153.358 52.6383 153.358L52.6525 153.33Z" fill="black"/>
<path d="M98.2103 84.4916C97.3451 78.6267 98.5507 72.4357 96.3168 66.812C94.8014 63.1489 92.3778 59.9322 89.2748 57.4652C87.8565 56.288 82.1831 51.416 80.5379 54.6782C79.1195 57.5149 82.3817 61.6493 84.0482 63.6633C87.7075 68.0885 88.8776 72.0386 89.2606 77.7474C89.564 82.8309 90.1226 87.896 90.9342 92.9236L94.1184 111.972C94.9765 117.113 95.6289 122.248 99.0826 126.375C99.9619 127.424 101.458 125.914 100.586 124.872C97.1749 120.78 96.799 115.099 95.948 110.043L93.4447 95.0511C92.5555 90.3356 91.9281 85.5746 91.5654 80.7897C91.3739 77.2935 91.3314 73.6129 90.4165 70.2089C89.5443 66.9751 87.6437 64.6136 85.5517 62.089C84.7858 61.16 81.2967 56.8341 83.2327 56.0398C84.1971 55.6498 88.5231 59.5289 88.9628 59.9331C92.0797 62.6834 94.2509 66.3459 95.168 70.4004C96.1466 75.1944 95.4374 80.1869 96.1537 85.0234C96.3523 86.3708 98.4018 85.7964 98.2032 84.4561L98.2103 84.4916Z" fill="black"/>
<path d="M85.3814 53.9825C87.1921 52.654 88.4356 52.8124 89.1116 54.4576C89.3149 54.765 89.5324 55.0652 89.7641 55.3583C90.6496 56.2497 91.5976 57.0767 92.6007 57.8333C94.815 59.8289 96.4286 62.4028 97.2599 65.2653C98.7776 70.2295 98.5719 75.4915 99.2314 80.5692C99.4016 81.9095 101.536 81.9237 101.359 80.5692C100.373 72.9385 101.082 64.3789 95.8274 58.0957C94.3453 56.3228 92.4022 55.1243 90.9484 53.3513C90.0903 52.3089 89.4733 51.0962 88.1117 50.614C87.5704 50.397 86.9839 50.3168 86.4041 50.3807C85.8244 50.4446 85.2694 50.6504 84.7883 50.9801C84.3072 51.3097 83.9148 51.7529 83.6459 52.2705C83.377 52.788 83.2399 53.3638 83.2468 53.947C83.2468 54.2291 83.3589 54.4997 83.5584 54.6992C83.7579 54.8987 84.0285 55.0108 84.3106 55.0108C84.5927 55.0108 84.8633 54.8987 85.0627 54.6992C85.2622 54.4997 85.3743 54.2291 85.3743 53.947L85.3814 53.9825Z" fill="black"/>
<path d="M116.932 115.559C108.862 124.845 103.039 135.864 99.9124 147.763C99.8466 148.031 99.888 148.315 100.028 148.554C100.168 148.793 100.395 148.967 100.662 149.041C100.928 149.115 101.213 149.082 101.456 148.949C101.699 148.816 101.88 148.594 101.962 148.33C104.976 136.77 110.616 126.06 118.443 117.034C119.344 116.006 117.847 114.496 116.94 115.531L116.932 115.559Z" fill="black"/>
<path d="M118.158 115.915C114.306 112.585 111.829 107.942 111.208 102.887C110.62 97.5403 112.563 92.335 111.918 86.9453C111.301 82.0237 109.662 77.2368 108.315 72.4854L103.663 56.0966C103.174 54.3733 99.6207 35.9988 94.8338 41.6721C93.1886 43.6223 94.1956 47.5795 94.4934 49.8133C94.89 53.1407 95.494 56.44 96.3018 59.6921C96.3835 59.9564 96.5649 60.1785 96.8077 60.3113C97.0504 60.444 97.3353 60.477 97.6019 60.4032C97.8686 60.3294 98.096 60.1546 98.2359 59.9159C98.3758 59.6772 98.4172 59.3934 98.3513 59.1247C97.7075 56.5536 97.2032 53.9495 96.8408 51.3239C96.5855 49.6219 96.3444 47.9128 96.2238 46.2037C96.1131 45.7106 96.0843 45.2027 96.1387 44.7003L97.862 44.0336C98.185 44.7158 98.4392 45.4285 98.6208 46.1611C101.457 55.0186 103.713 64.096 106.244 73.0386C107.45 77.2936 108.89 81.5486 109.613 85.9312C110.4 90.6543 109.251 94.9802 109.003 99.6607C108.873 103 109.494 106.327 110.82 109.395C112.145 112.463 114.142 115.195 116.662 117.39C117.683 118.298 119.194 116.794 118.165 115.886L118.158 115.915Z" fill="black"/>
<path d="M118.123 118.028C124.953 122.524 129.25 129.8 135.853 134.572C136.966 135.374 138.03 133.53 136.923 132.736C130.307 127.963 126.031 120.68 119.194 116.191C118.045 115.439 116.982 117.276 118.123 118.028Z" fill="black"/>
<path d="M99.9899 149.621C103.706 154.931 108.287 159.58 113.542 163.372C114.655 164.174 115.719 162.33 114.613 161.535C109.664 157.949 105.349 153.56 101.848 148.551C101.068 147.437 99.2169 148.501 100.011 149.621H99.9899Z" fill="black"/>
<path d="M109.394 148.111L110.394 147.699L109.571 147.593C110.493 148.11 111.267 148.855 111.819 149.756C112.294 150.763 112.025 151.685 110.777 151.415C110.313 151.309 109.876 151.109 109.493 150.827C109.11 150.545 108.789 150.188 108.55 149.777C108.188 149.132 107.94 147.72 108.855 147.359C110.11 146.855 109.564 144.799 108.287 145.309C106.287 146.104 105.642 148.359 106.436 150.273C106.857 151.258 107.558 152.097 108.452 152.686C109.346 153.275 110.394 153.588 111.464 153.585C113.762 153.465 114.62 151.21 113.897 149.238C113.451 148.164 112.714 147.236 111.769 146.557C111.398 146.21 110.977 145.918 110.521 145.692C109.918 145.472 109.379 145.827 108.826 146.054C107.578 146.565 108.117 148.628 109.394 148.103V148.111Z" fill="black"/>
<path d="M61.0709 41.1961C63.9785 38.4729 67.0847 38.792 70.7511 38.3594C74.0827 37.9409 77.2289 36.5915 79.8284 34.4661C80.8993 33.6434 79.8284 31.7925 78.7576 32.6293C74.9281 35.5724 71.4744 36.0759 66.8436 36.4943C64.1198 36.6578 61.5442 37.7897 59.5817 39.6855C58.5818 40.6216 60.0852 42.1251 61.0851 41.189L61.0709 41.1961Z" fill="black"/>
<path d="M44.2704 43.203C41.4337 42.4442 38.8666 43.203 36.3136 44.522C33.5691 45.9404 30.4842 48.8763 27.2504 48.7345C25.8817 48.6707 25.8817 50.7982 27.2504 50.862C33.3138 51.1315 37.3915 43.5576 43.7102 45.2525C43.9789 45.3184 44.2627 45.277 44.5014 45.1371C44.74 44.9972 44.9148 44.7698 44.9886 44.5031C45.0625 44.2365 45.0295 43.9516 44.8967 43.7088C44.7639 43.4661 44.5418 43.2847 44.2775 43.203H44.2704Z" fill="black"/>
<path d="M72.7932 52.8413C71.8642 52.5506 71.3749 51.1323 71.5948 50.2742C71.8892 49.5154 72.3784 48.8476 73.0131 48.3382C74.2022 47.4063 75.4942 46.6139 76.8639 45.9766L84.7853 41.5514C85.9837 40.8848 84.9058 39.0481 83.7144 39.7147L75.793 44.1399C73.8854 45.2036 71.6657 46.2674 70.375 48.0899C68.7085 50.4727 69.3325 53.9618 72.2614 54.8908C73.5662 55.3022 74.1265 53.2527 72.8287 52.8413H72.7932Z" fill="black"/>
<path d="M73.8788 47.3167C74.588 50.0966 76.8218 52.8482 79.9989 52.2808C82.4881 51.8128 84.0624 48.8555 82.4881 46.6713C81.6938 45.5721 79.85 46.6288 80.6514 47.7422C81.6016 49.0541 80.3039 50.3873 78.8784 50.1959C77.1481 49.9618 76.3113 48.3024 75.9283 46.7777C75.595 45.4515 73.5455 46.0118 73.8788 47.345V47.3167Z" fill="black"/>
<path d="M50.1927 62.3796C50.2154 60.8125 49.7789 59.2731 48.9371 57.9512C48.0953 56.6292 46.885 55.5826 45.4554 54.9404C41.6189 53.0328 37.1369 54.0114 33.1727 54.9404C31.8394 55.2454 32.3997 57.2949 33.74 56.9899C38.5056 55.912 48.3488 54.6851 48.0723 62.415C48.0226 63.7837 50.1501 63.7837 50.1998 62.415L50.1927 62.3796Z" fill="black"/>
<path d="M36.4843 56.5005C35.9099 58.7344 36.3425 61.8476 38.8387 62.7341C40.8811 63.4433 43.427 62.1951 43.4909 59.8974C43.5263 58.5287 41.3988 58.5287 41.3634 59.8974C41.3634 60.8477 39.9025 61.0037 39.2784 60.6066C38.1863 59.8974 38.2572 58.1812 38.5692 57.0608C38.9096 55.7346 36.8601 55.1673 36.5197 56.4934L36.4843 56.5005Z" fill="black"/>
<path d="M59.1983 74.5488C56.4396 73.8396 56.6098 69.9037 58.2409 68.6201C58.2055 68.6201 60.184 68.0173 60.2833 67.911C60.8025 67.5453 61.2445 67.081 61.584 66.5443C61.9236 66.0077 62.1539 65.4093 62.2619 64.7836C63.0987 60.6562 60.0564 56.2735 57.1559 53.6922C56.1347 52.7844 54.6242 54.2879 55.6525 55.1956C57.6949 57.004 60.7301 60.564 60.262 63.5993C59.794 66.6345 56.2907 66.0884 55.2979 68.4996C54.0852 71.4994 55.3404 75.7614 58.6097 76.5699C59.9358 76.8961 60.5032 74.8466 59.177 74.5204L59.1983 74.5488Z" fill="black"/>
<path d="M38.1863 88.6691C45.1858 95.2927 53.2774 103.71 63.3617 104.718C69.0781 105.278 74.818 103.915 79.6726 100.845C85.7076 96.9876 88.8279 90.7753 91.6787 84.4283C92.2319 83.1872 90.4022 82.1093 89.842 83.3574C87.0904 89.4917 84.1332 95.6543 78.1762 99.2853C73.2452 102.282 67.3883 103.372 61.7094 102.349C53.0646 100.725 45.7886 92.924 39.6897 87.1443C38.6969 86.2011 37.1864 87.7046 38.1863 88.6478V88.6691Z" fill="black"/>
<path d="M60.5606 87.6612C61.4825 85.3422 65.3971 87.6612 66.8155 85.6471C67.709 84.3706 66.936 83.5196 69.411 83.704C70.6733 83.7962 71.3541 84.1154 72.6235 83.7608C72.8879 83.6791 73.11 83.4976 73.2428 83.2549C73.3755 83.0122 73.4085 82.7273 73.3347 82.4607C73.2609 82.194 73.0861 81.9666 72.8474 81.8267C72.6087 81.6868 72.3249 81.6454 72.0562 81.7113C70.4039 82.1651 68.787 81.0021 67.1346 81.5623C65.7163 82.0375 65.929 82.8956 65.1986 83.8671C64.3618 84.9876 62.1066 84.2572 60.745 84.7749C60.2194 84.9664 59.7441 85.2746 59.3547 85.6763C58.9654 86.0779 58.6721 86.5626 58.497 87.0939C57.9934 88.3633 60.05 88.9164 60.5464 87.6612H60.5606Z" fill="black"/>
<path d="M63.9432 91.1786C64.5417 91.4909 65.1992 91.6737 65.8731 91.715C66.5469 91.7563 67.2218 91.6553 67.854 91.4185C68.4862 91.1817 69.0614 90.8143 69.5423 90.3405C70.0231 89.8666 70.3987 89.2969 70.6448 88.6682C71.1554 87.3988 69.0988 86.8457 68.5953 88.1009C68.4444 88.4156 68.2329 88.6974 67.9728 88.9302C67.7128 89.1629 67.4094 89.3421 67.08 89.4574C66.7506 89.5727 66.4016 89.6218 66.0532 89.602C65.7048 89.5822 65.3637 89.4938 65.0495 89.3419C63.8439 88.6966 62.7659 90.5333 63.9786 91.1786H63.9432Z" fill="black"/>
<path d="M55.6101 82.5555C58.1489 83.9738 58.4467 90.6684 55.3264 91.4272C53.9932 91.7463 54.5605 93.8029 55.8937 93.4767C58.6666 92.803 59.787 90.1577 59.631 87.5055C59.4963 85.0588 58.9999 82.0236 56.688 80.7187C56.4452 80.5887 56.1614 80.558 55.8963 80.6329C55.6313 80.7079 55.4056 80.8828 55.2669 81.1208C55.1281 81.3587 55.0871 81.6412 55.1524 81.9088C55.2178 82.1764 55.3844 82.4082 55.6171 82.5555H55.6101Z" fill="black"/>
<path d="M30.5696 67.3367C26.1302 59.2806 22.9602 49.9693 22.8113 40.6934C22.6482 31.0061 27.584 23.1486 35.6614 18.0497C43.3559 13.1919 52.497 11.5041 61.3332 10.0432C66.7016 9.15673 71.6161 8.45465 76.5519 11.2133C80.3176 13.3408 83.3174 16.6384 86.1895 19.7942C87.1114 20.8083 88.6149 19.2978 87.6929 18.2908C84.452 14.745 81.0339 11.0644 76.6796 8.87307C72.6161 6.82357 68.4391 6.8023 64.021 7.45473C53.6317 9.0149 42.5758 10.8091 33.6899 16.7944C26.3075 21.7586 21.2653 29.1339 20.7334 38.1545C20.1165 48.5722 23.7758 59.387 28.7399 68.4005C29.3994 69.599 31.2362 68.5281 30.5767 67.3296L30.5696 67.3367Z" fill="black"/>
<path d="M96.8479 32.0699C99.2118 30.3868 100.755 30.4412 101.479 32.233C101.819 32.876 102.148 33.526 102.465 34.1832C103.216 35.6866 103.954 37.19 104.691 38.6935C105.429 40.1969 106.152 41.5301 106.819 43.0123C107.266 44.0335 110.365 52.4017 104.854 50.3522C103.571 49.877 103.018 51.9336 104.287 52.4017C106.961 53.3945 109.506 51.6429 110.123 48.9409C111.031 44.9696 107.911 40.3884 106.266 37.0553C104.847 34.2186 103.379 28.907 99.8831 27.8361C97.0465 26.971 94.8055 29.3467 94.7346 32.0486C94.6991 33.4173 96.8266 33.4173 96.8621 32.0486L96.8479 32.0699Z" fill="black"/>
<path d="M104.472 47.0689C104.754 47.0689 105.025 46.9568 105.224 46.7573C105.424 46.5579 105.536 46.2873 105.536 46.0052C105.536 45.723 105.424 45.4525 105.224 45.253C105.025 45.0535 104.754 44.9414 104.472 44.9414C104.19 44.9414 103.919 45.0535 103.72 45.253C103.521 45.4525 103.408 45.723 103.408 46.0052C103.408 46.2873 103.521 46.5579 103.72 46.7573C103.919 46.9568 104.19 47.0689 104.472 47.0689Z" fill="black"/>
<path d="M18.5207 59.5924C5.75568 51.0824 15.762 34.5021 22.1516 25.4744C29.6972 14.837 39.6893 4.398 53.1777 2.1854C60.0708 1.05073 66.8575 2.80947 73.3605 5.02207C79.5889 7.05445 85.6279 9.62669 91.4088 12.7094C96.8094 15.5764 101.801 19.154 106.252 23.3469C108.649 25.6588 111.131 28.1905 112.542 31.2471C114.365 35.1971 113.67 41.5158 108.287 41.9838C106.932 42.1044 106.918 44.2319 108.287 44.1113C112.365 43.7568 115.216 40.5229 115.669 36.4949C116.286 31.013 112.209 26.2616 108.578 22.652C100.068 14.0852 89.0331 8.46862 77.7786 4.32C65.8788 -0.048468 54.2627 -2.35325 42.4409 3.55411C31.0446 9.22744 22.8182 19.9429 16.2017 30.5024C10.3936 39.7996 6.4223 54.0964 17.4357 61.4221C18.5774 62.1809 19.6483 60.3441 18.5065 59.5853L18.5207 59.5924Z" fill="black"/>
<path d="M53.7946 13.6808C52.6812 16.0706 52.9791 18.8506 55.2839 20.4533C58.929 22.985 64.1555 20.354 68.134 21.9709C69.0207 22.2937 69.8091 22.84 70.4229 23.5569C71.0366 24.2737 71.4549 25.1369 71.6373 26.0628C71.8784 27.162 71.1124 28.4456 71.3748 29.6086C71.4445 30.0802 71.6164 30.5309 71.8786 30.929C72.1407 31.3271 72.4868 31.6631 72.8925 31.9134C74.4597 32.7573 76.722 31.8709 78.4098 32.346C82.0762 33.3743 83.9129 36.7641 83.7285 40.4021C83.6576 41.7708 85.7851 41.7637 85.856 40.4021C86.0009 38.7941 85.7451 37.1752 85.1115 35.6902C84.4779 34.2052 83.4862 32.9003 82.2251 31.8921C80.9638 30.9268 79.482 30.2907 77.9134 30.0412C77.2042 29.9277 76.0624 30.1618 75.4738 29.9632C72.5946 29.02 73.7789 27.6371 73.7648 26.0203C73.7648 23.1836 71.5947 20.9994 69.0984 19.9711C67.3361 19.3491 65.4687 19.0792 63.6024 19.1768C61.1274 19.1768 52.9649 20.3824 55.6314 14.709C56.2058 13.4751 54.369 12.3901 53.7946 13.6382V13.6808Z" fill="black"/>
<path d="M84.1965 38.7712C82.9626 40.3597 83.4377 42.2602 84.8206 43.6218C86.3524 45.1395 88.8061 45.1253 90.2316 46.7493C91.1393 47.7776 92.6356 46.2741 91.735 45.2458C90.7967 44.3021 89.6395 43.6054 88.3664 43.2176C87.6772 43.006 87.0295 42.6774 86.4517 42.2461C86.012 41.8631 85.2248 40.8986 85.7 40.2746C86.5297 39.2037 85.0334 37.6861 84.1965 38.7712Z" fill="black"/>
<path d="M54.7666 12.597C56.0147 18.6037 65.5459 13.4906 69.2265 15.2068C70.9852 16.0294 71.354 17.9299 73.4815 18.4973C75.2473 18.9724 75.609 18.5753 77.1053 20.1425C78.9492 22.0431 77.8641 22.8374 78.0273 25.0713C78.1336 26.4896 78.6655 27.9079 79.9917 28.5462C80.8923 28.9859 81.644 28.6667 82.5517 28.7731C84.4736 28.9859 85.1615 29.4823 86.0196 31.3261C88.1471 35.8648 92.09 35.262 96.0188 33.1699C97.2315 32.5246 96.1536 30.6879 94.948 31.3332C92.9339 32.404 91.466 33.2834 89.4803 31.9147C88.0052 30.9006 88.062 30.0567 87.1755 28.7093C86.6947 27.7726 85.8836 27.0474 84.8991 26.674C84.0906 26.4187 83.3035 26.8016 82.5588 26.674C79.4172 26.0499 80.1477 24.9578 80.3888 22.6246C80.5448 21.107 80.6654 19.5965 79.6796 18.3342C78.9681 17.542 78.0025 17.0228 76.9493 16.8662C75.7012 16.5825 74.9779 16.7031 73.7865 16.0223C72.3681 15.1926 72.666 14.8593 71.659 13.7742C69.1343 11.0227 57.5323 15.3911 56.8445 12.0651C56.5679 10.7248 54.5113 11.2921 54.795 12.6325L54.7666 12.597Z" fill="black"/>
<path d="M55.7167 9.8936C52.7028 8.62419 50.7526 12.1346 49.9299 14.5599C49.5541 15.6662 49.6604 17.2831 49.1286 18.2901C48.2563 19.9496 46.6181 19.7084 45.1643 20.0063C44.6497 20.0741 44.1563 20.254 43.7188 20.5334C43.2813 20.8128 42.9105 21.1848 42.6326 21.6232C41.6965 23.0983 42.3702 24.7152 41.7745 26.2328C40.6895 29.0056 38.2287 28.4028 36.1012 29.424C32.8036 30.9984 32.1582 34.7215 31.7753 38.012C31.6192 39.3666 33.7467 39.3595 33.9028 38.012C34.1793 35.6789 34.5623 32.7642 36.7962 31.4239C38.1436 30.6154 39.9236 30.7502 41.3277 30.0055C43.1503 29.0765 43.7389 27.6015 43.9871 25.6442C44.0651 25.0059 43.902 23.9989 44.1857 23.4387C45.2069 21.4104 46.4976 22.2685 47.9939 22.0203C48.7082 21.9191 49.378 21.6138 49.9228 21.141C51.483 19.7794 52.0503 10.6098 55.1636 11.9218C56.4259 12.4537 56.972 10.3971 55.7309 9.87232L55.7167 9.8936Z" fill="black"/>
<path d="M48.1567 10.1075C45.7243 9.7884 44.2492 12.5754 42.8664 14.6036C41.159 17.0922 38.6594 18.9294 35.7747 19.816C34.6542 20.1564 33.4274 20.3763 32.5622 21.1634C30.1581 23.3477 32.3778 27.4608 31.3282 30.5386L28.7043 31.0421C27.5555 33.432 25.6407 35.361 24.1585 37.5665C22.0387 40.8135 20.8486 44.5791 20.7174 48.4546C20.5861 52.3301 21.5187 56.1676 23.4139 59.5506C24.6124 61.6143 26.1655 63.4865 27.059 65.6991C27.9526 67.9117 28.0377 70.6633 26.4421 72.4646C24.7649 66.7358 21.5027 61.5977 17.0314 57.643C15.145 55.9835 13.0175 54.5013 11.7056 52.3597C10.3936 50.218 10.1667 47.126 12.0034 45.4098C12.1079 47.429 12.6459 49.402 13.5808 51.1947C14.5157 52.9874 15.8256 54.5578 17.4215 55.7991C14.2302 51.6363 13.053 46.1403 13.5423 40.9066C14.0316 35.673 16.0882 30.7017 18.8043 26.2056C26.0749 14.3014 37.7364 5.73482 51.27 2.35634C54.2275 1.57353 57.2821 1.22005 60.3402 1.30677C65.1129 1.5337 69.6729 3.23571 74.1406 4.92352L89.877 10.8592C91.6355 11.5932 93.4655 12.1423 95.3376 12.4974C97.3871 12.8094 99.4862 12.6605 101.522 13.0648C105.11 13.7739 108.117 16.1142 110.982 18.3835C111.609 18.7387 112.129 19.2543 112.491 19.8775C112.852 20.5007 113.041 21.2089 113.038 21.9293L114.038 31.5527C114.272 33.7937 114.485 36.1552 113.549 38.2118C112.613 40.2684 110.095 41.7576 108.067 40.7932C106.039 39.8287 105.642 37.1764 105.131 34.9851C104.578 32.5739 103.465 30.1202 101.358 28.8082C99.2522 27.4963 96.0184 27.8509 94.8483 30.0351C94.6273 30.6422 94.306 31.2079 93.898 31.7087C92.8697 32.6519 91.1606 31.8789 90.2741 30.801C89.3877 29.7231 88.7778 28.3331 87.5438 27.6736C85.5653 26.6169 82.8066 27.9147 81.0195 26.5602C79.5657 25.461 79.6012 23.3051 79.6367 21.4826C79.6721 19.66 79.0551 17.3907 77.2609 17.0503C76.4738 16.9014 75.6228 17.185 74.8852 16.8801C73.864 16.4546 73.5875 15.1781 72.9634 14.2632C71.2259 11.7173 67.9425 12.5116 65.4178 12.8095C61.4678 13.2704 59.5814 12.4052 55.8441 11.462C50.9863 10.2423 47.8589 11.9301 44.0507 14.7809C40.2424 17.6318 32.7536 20.3195 32.6331 25.1915C32.5764 27.6027 34.0514 29.4465 32.0941 31.4889C30.7892 32.9072 28.0802 32.1201 27.1299 34.0632C26.5484 35.2475 27.2292 36.7367 26.7683 37.9778C26.0591 39.9634 22.804 40.2967 22.3998 42.3746C22.18 43.5235 22.7686 45.1616 21.6906 45.6013" fill="black"/>
<path d="M48.1567 9.04249C45.7314 9.09213 44.3556 10.5601 43.0153 12.4607C41.6749 14.3612 40.441 16.1483 38.3915 17.4248C36.9094 18.3609 35.2499 18.6801 33.6543 19.3325C32.726 19.6484 31.9146 20.2371 31.3263 21.0215C30.7379 21.806 30.4 22.7497 30.3566 23.7293C30.229 25.1051 31.0658 27.5305 30.5481 28.7573C30.0304 29.9842 28.6759 29.7431 27.7753 30.4877C26.6477 31.4167 25.4989 33.9484 24.5769 35.1753C23.4234 36.6367 22.4341 38.2206 21.6268 39.8983C20.3316 42.7556 19.6503 45.8528 19.6269 48.9898C19.6063 52.3142 20.3334 55.6007 21.7544 58.6061C23.655 62.6271 28.8461 67.2792 25.5414 71.9172L27.4845 72.1725C26.1962 67.9073 24.0832 63.9366 21.2651 60.4854C18.5278 57.1665 8.44341 51.2663 12.7551 46.1603L10.9326 45.4085C11.0826 47.5622 11.6729 49.6621 12.667 51.5784C13.6612 53.4948 15.038 55.1867 16.7123 56.5496C17.5633 57.2587 19.1376 56.3155 18.3859 55.2589C11.2375 45.2809 15.3152 32.7003 21.8608 23.5662C27.9824 15.0582 36.5184 8.58513 46.3625 4.98605C51.965 2.96493 58 1.70261 63.9286 2.85856C69.8572 4.0145 75.488 6.60295 81.0833 8.70918C85.8631 10.5105 90.8627 13.0635 95.9758 13.6733C99.1954 14.0563 102.089 13.957 105.06 15.5456C107.344 16.7653 110.301 18.524 111.443 20.843C112.741 23.4598 112.549 27.3106 112.861 30.2324C112.982 31.438 113.166 32.6577 113.187 33.8704C113.271 34.8964 113.184 35.929 112.932 36.9269L111.691 39.0544L107.33 38.5864C106.174 37.4943 106.138 34.1399 105.571 32.6719C105.009 31.0774 104.047 29.6538 102.777 28.5375C100.585 26.7291 97.1034 26.3462 94.8908 28.3744C94.444 28.7857 94.1816 29.6367 93.7632 29.9558C92.5647 30.8706 90.9266 29.4381 89.9125 28.4524C88.7069 27.2681 87.9481 26.488 86.2177 26.2398C84.1328 25.949 84.0902 26.5234 82.2676 24.7789C80.4451 23.0343 80.9415 22.9351 80.7075 20.687C80.6539 19.3965 80.1948 18.1558 79.3955 17.1412C78.3105 15.9711 77.4808 16.3682 76.0979 15.9852C74.2257 15.4746 73.8711 13.0777 72.1833 12.1274C68.7793 10.2126 64.1201 12.3401 60.3969 11.5671C56.1419 10.6807 52.5323 9.19141 48.2631 11.0069C46.1782 11.8933 44.4549 13.3258 42.5898 14.5527C40.7247 15.7796 38.7036 16.8079 36.8455 18.0985C33.9238 20.0771 31.4275 22.4741 31.6686 26.2398C31.7892 28.112 32.4274 28.5446 31.0233 30.1898C29.7751 31.6507 29.4134 31.289 27.9597 32.0266C26.6548 32.6932 26.2506 33.5229 25.896 34.9058C25.3854 36.8986 25.7613 38.0048 23.9671 39.2672C23.3714 39.6114 22.8191 40.0257 22.3218 40.5011C21.3431 41.6287 21.8537 44.1604 20.9815 44.8979C19.9319 45.7773 21.4424 47.2807 22.4849 46.4014C23.6834 45.3944 23.109 44.4937 23.4565 43.1605C24.0451 40.9053 26.8463 40.6004 27.7115 38.5651C27.8977 37.9119 27.9978 37.2372 28.0093 36.5581C28.3568 34.4306 28.5979 34.1186 30.5127 33.4804C31.931 33.0194 33.0515 32.4946 33.7323 31.0763C34.5478 29.3743 33.8741 27.8283 33.8174 26.0696C33.7039 22.8074 36.1576 21.0487 38.6823 19.4318C40.5403 18.2475 42.4976 17.2263 44.306 15.971C46.8306 14.2194 49.2701 12.2976 52.5252 12.177C55.3619 12.0706 58.0283 13.3826 60.787 13.8223C63.1556 14.1981 65.3398 13.8223 67.6872 13.645C69.8147 13.5102 71.077 13.7797 72.5024 15.581C72.9634 16.1696 73.1336 16.9071 73.7435 17.3894C74.1025 17.6497 74.4996 17.8531 74.9207 17.9922C75.7575 18.3468 77.3602 18.1695 78.0694 18.9495C78.7785 19.7296 78.5587 21.1905 78.6083 21.999C78.8353 25.6937 79.6366 28.1049 83.7498 28.3815C84.4101 28.3174 85.0751 28.3174 85.7355 28.3815C86.7708 28.6793 88.3381 30.2678 89.0827 31.0054C89.4814 31.5147 89.9227 31.9892 90.4018 32.4237C91.6003 33.2747 93.2385 33.6647 94.4795 32.7286C95.0256 32.3244 95.1887 31.6294 95.6071 31.1188C96.9332 29.4027 98.8125 28.6722 100.869 29.8353C103.883 31.5373 103.89 35.4731 104.904 38.3453C105.918 41.2174 108.315 43.1463 111.365 41.8911C116.017 39.948 115.421 34.3952 115.003 30.3175C114.528 25.6937 115.194 20.5523 111.343 17.4177C107.493 14.2832 103.585 12.1415 98.4792 11.8153C91.9407 11.3898 85.7851 8.2695 79.7146 6.00726C73.8853 3.80884 67.9496 1.08565 61.6805 0.475766C56.149 -0.0632005 50.4757 1.30547 45.3201 3.22731C34.7967 7.15963 25.7444 14.2455 19.4 23.5166C12.8473 33.1542 9.20931 46.2099 16.5634 56.4574L18.237 55.1667C16.7425 53.99 15.5101 52.5143 14.6186 50.834C13.7272 49.1537 13.1963 47.3058 13.0601 45.4085C12.9892 44.5859 11.897 43.8909 11.2446 44.6568C8.04627 48.4367 10.1809 52.9541 13.3721 55.9255C18.7901 60.9251 23.1302 65.4992 25.3783 72.7398C25.4391 72.937 25.5553 73.1127 25.713 73.2458C25.8707 73.3789 26.0633 73.464 26.2679 73.4909C26.4726 73.5178 26.6806 73.4854 26.8674 73.3975C27.0541 73.3096 27.2117 73.17 27.3214 72.9951C31.8601 66.6126 23.8678 60.1379 22.3572 54.1667C21.3204 50.0429 21.5905 45.6987 23.1302 41.7351C24.428 38.4374 27.9455 32.2464 31.5835 31.5514C31.7518 31.5024 31.905 31.4117 32.029 31.2877C32.1529 31.1638 32.2436 31.0106 32.2927 30.8423C32.782 28.8353 32.2572 27.0624 32.4061 25.0767C32.5551 23.0911 33.2855 21.7295 35.1435 21.1054C35.9874 20.8218 36.8313 20.5948 37.654 20.2331C39.418 19.4568 41.0075 18.3329 42.3274 16.9284C44.0081 15.1271 45.2988 11.2551 48.1142 11.1913C49.4829 11.1913 49.4829 9.06376 48.1142 9.06376L48.1567 9.04249Z" fill="black"/>
<path d="M93.8413 10.5321C94.2668 7.69548 96.5716 5.44032 99.1955 4.31274C100.669 3.67723 102.251 3.33287 103.855 3.29864C107.542 3.22063 111.117 4.81627 114.045 7.05723C116.974 9.2982 119.35 12.1774 121.669 15.0495C123.243 16.9997 124.867 19.0847 125.257 21.5597C125.419 22.8026 125.297 24.066 124.9 25.2549C124.503 26.4439 123.842 27.5275 122.967 28.4244C121.185 30.2093 118.839 31.3199 116.329 31.566" fill="black"/>
<path d="M94.8627 10.8162C95.891 6.27046 100.593 4.12169 104.954 4.39117C109.479 4.66775 113.429 7.56824 116.478 10.6886C119.045 13.3125 122.251 16.5179 123.619 19.9645C125.832 25.5456 121.215 29.7297 116.038 30.5523C114.691 30.7651 115.265 32.8146 116.606 32.6018C121.336 31.8501 125.74 28.7581 126.336 23.6947C126.988 18.1065 121.542 12.8161 117.989 9.18514C114.131 5.24927 108.996 1.88072 103.259 2.28495C98.4866 2.61825 93.9195 5.40528 92.8132 10.2631C92.5083 11.5963 94.5649 12.1636 94.8627 10.8304V10.8162Z" fill="black"/>
<path d="M22.3856 21.7082C19.634 19.7509 15.6981 20.226 12.8331 22.0131C9.96805 23.8002 7.95402 26.6581 6.14565 29.5161C4.33727 32.374 2.74873 35.1469 2.03957 38.3239C1.19766 42.1567 1.77203 46.1647 3.65647 49.6068C4.14503 50.6743 4.98654 51.5409 6.03928 52.0605C7.45761 52.6207 9.10288 52.0179 10.6276 52.2661" fill="black"/>
<path d="M22.9034 20.7941C13.6843 15.2697 5.82669 26.6305 2.50779 33.7789C0.44412 38.2254 -0.0735798 43.1186 1.63551 47.7778C2.2383 49.4089 3.05384 51.3237 4.51473 52.3945C6.33019 53.7703 8.49317 53.2313 10.6065 53.3306C11.9752 53.3944 11.9752 51.2669 10.6065 51.2031C8.26624 51.0897 5.91889 51.4301 4.5502 49.0756C3.50539 47.1957 2.88793 45.1084 2.74181 42.9626C2.45814 39.2607 3.68502 35.8709 5.46503 32.6868C8.52154 27.2262 14.4856 18.234 21.8326 22.6379C22.0754 22.7679 22.3592 22.7987 22.6243 22.7237C22.8893 22.6487 23.115 22.4739 23.2537 22.2359C23.3924 21.9979 23.4335 21.7154 23.3681 21.4478C23.3028 21.1802 23.1362 20.9484 22.9034 20.8011V20.7941Z" fill="black"/>
<path d="M51.7025 116.325C53.83 114.439 54.6526 112.177 56.383 110.078C57.3546 108.901 55.9221 108.617 57.5744 109.723C58.8013 110.546 59.8154 111.851 60.9997 112.73C65.4462 116.141 70.1408 116.276 75.566 115.673C76.9134 115.524 76.9276 113.397 75.566 113.546C71.6655 113.978 67.7084 114.361 64.1484 112.326C61.8649 111.021 59.8934 107.773 57.4822 106.901C56.4043 106.511 55.837 106.794 55.1207 107.567C54.4044 108.34 54.1704 109.943 53.5747 110.943C52.6649 112.404 51.5305 113.714 50.2133 114.822C49.185 115.73 50.6955 117.226 51.7167 116.325H51.7025Z" fill="black"/>
<path d="M75.3812 115.538C74.7572 123.304 70.1121 130.112 70.3319 138.012L71.9347 137.09C65.9208 133.935 60.1489 130.339 54.6665 126.332C53.5602 125.523 52.4964 127.367 53.5956 128.169C59.0781 132.176 64.85 135.772 70.8638 138.927C71.0264 139.017 71.2098 139.064 71.396 139.063C71.5822 139.062 71.7649 139.012 71.9263 138.92C72.0877 138.827 72.2223 138.694 72.317 138.533C72.4116 138.373 72.4632 138.191 72.4665 138.005C72.2467 130.161 76.8917 123.275 77.5158 115.531C77.6222 114.17 75.4947 114.177 75.3883 115.531L75.3812 115.538Z" fill="black"/>
<path d="M76.9918 116.254C82.4012 121.003 86.5442 127.022 89.0477 133.771C89.1085 133.968 89.2247 134.144 89.3824 134.277C89.5401 134.41 89.7327 134.495 89.9373 134.522C90.1419 134.549 90.35 134.516 90.5368 134.429C90.7235 134.341 90.8811 134.201 90.9908 134.026L96.9832 122.999C97.6357 121.793 95.7989 120.722 95.1465 121.928L89.154 132.955L91.0972 133.211C88.4892 126.113 84.1559 119.777 78.4882 114.772C77.467 113.865 75.9565 115.368 76.9847 116.276L76.9918 116.254Z" fill="black"/>
<path d="M78.7295 114.964C84.664 111.384 89.5738 106.332 92.9837 100.298C93.1137 100.055 93.1445 99.7717 93.0695 99.5066C92.9945 99.2416 92.8197 99.0159 92.5817 98.8772C92.3437 98.7384 92.0612 98.6975 91.7936 98.7628C91.526 98.8281 91.2942 98.9947 91.1469 99.2275C87.9302 104.946 83.2883 109.734 77.6728 113.127C76.5027 113.836 77.5735 115.673 78.7436 114.964H78.7295Z" fill="black"/>
<path d="M76.2821 47.2468C76.4407 47.7315 76.695 48.1794 77.0299 48.5639C77.3649 48.9485 77.7737 49.2618 78.2321 49.4854C78.6904 49.7089 79.189 49.8382 79.6982 49.8654C80.2075 49.8926 80.717 49.8172 81.1966 49.6438C81.4581 49.5543 81.6763 49.3696 81.8077 49.1265C81.9391 48.8834 81.9741 48.5996 81.9057 48.3318C81.8222 48.0663 81.6384 47.8437 81.3935 47.7113C81.1486 47.5789 80.8618 47.5471 80.5938 47.6227C80.3844 47.7213 80.157 47.7761 79.9257 47.7835C79.6943 47.7909 79.4639 47.7509 79.2486 47.6658C79.0333 47.5808 78.8377 47.4525 78.6739 47.289C78.5101 47.1254 78.3815 46.9301 78.2961 46.7149C77.8635 45.4243 75.814 46.0058 76.2466 47.2823L76.2821 47.2468Z" fill="black"/>
<path d="M38.4273 59.592C38.4034 59.9836 38.4957 60.3734 38.6925 60.7128C38.8893 61.0521 39.1819 61.3259 39.5336 61.4997C39.7392 61.6091 39.9737 61.6522 40.2048 61.623C40.4359 61.5938 40.6523 61.4937 40.8243 61.3366C41.3462 60.8961 41.7815 60.3622 42.1079 59.7622C42.2379 59.5194 42.2686 59.2356 42.1937 58.9705C42.1187 58.7055 41.9438 58.4798 41.7059 58.3411C41.4679 58.2023 41.1854 58.1613 40.9178 58.2266C40.6502 58.292 40.4184 58.4586 40.2711 58.6913C40.0385 59.1348 39.7147 59.5239 39.3208 59.8331L40.6115 59.67C40.6115 59.67 40.4484 59.5778 40.4413 59.5849C40.4342 59.592 40.6115 59.7835 40.5335 59.6558C40.4555 59.5282 40.5335 59.7409 40.5335 59.7409C40.5335 59.7409 40.5335 59.8048 40.5335 59.7409C40.5282 59.6938 40.5282 59.6462 40.5335 59.5991C40.5316 59.3175 40.419 59.048 40.2199 58.8489C40.0208 58.6498 39.7513 58.5372 39.4698 58.5353C39.1899 58.5425 38.9235 58.6569 38.7255 58.8549C38.5276 59.0528 38.4132 59.3192 38.406 59.5991L38.4273 59.592Z" fill="black"/>
<path d="M40.1996 60.4362C40.3842 60.3007 40.576 60.1752 40.774 60.0603C40.8662 60.0107 41.0719 59.9681 41.1357 59.9114C41.1995 59.8547 41.1924 59.9114 41.1924 59.9114C41.1924 59.9114 41.1924 59.5426 41.1924 59.9114C41.1943 60.193 41.307 60.4624 41.5061 60.6615C41.7052 60.8606 41.9746 60.9733 42.2562 60.9752C42.5366 60.9697 42.804 60.8559 43.0024 60.6575C43.2007 60.4592 43.3145 60.1918 43.3199 59.9114C43.3319 59.4473 43.1831 58.9933 42.8988 58.6263C42.6145 58.2593 42.2121 58.0018 41.7598 57.8974C41.2941 57.8223 40.8175 57.8508 40.364 57.9807C39.9105 58.1106 39.4912 58.3388 39.1359 58.6491C38.898 58.7962 38.7257 59.0291 38.6544 59.2996C38.5832 59.5701 38.6184 59.8576 38.7529 60.1028C38.8964 60.3448 39.1293 60.5207 39.4013 60.5923C39.6733 60.664 39.9627 60.6258 40.2067 60.4858L40.1996 60.4362Z" fill="black"/>
<path d="M75.4804 47.2539C76.1896 48.2893 76.1896 49.6155 77.381 50.3743C77.9133 50.6855 78.5104 50.8693 79.1256 50.9111C79.7408 50.953 80.3573 50.8517 80.9268 50.6154C82.2033 50.1473 81.636 48.0908 80.3595 48.5659C79.7496 48.7928 78.8419 49.0056 78.3526 48.4099C77.8633 47.8142 77.7994 46.8426 77.3243 46.176C76.5371 45.0697 74.6862 46.1335 75.4875 47.2469L75.4804 47.2539Z" fill="black"/>
<path d="M20.1092 52.09C20.5135 54.2758 21.2652 56.3827 22.336 58.3306C22.9317 59.4157 24.5415 58.6569 24.2791 57.508C23.779 55.353 23.0786 53.2495 22.1871 51.2248C21.641 49.9696 19.8114 51.0546 20.3503 52.2957C21.1521 54.1576 21.7788 56.0901 22.2225 58.0682L24.1656 57.2456C23.1911 55.4561 22.5111 53.5213 22.1516 51.5156C21.9034 50.1681 19.8539 50.7426 20.1021 52.0829L20.1092 52.09Z" fill="black"/>
<path d="M27.1013 70.9892C27.4468 71.0946 27.8186 71.0716 28.1484 70.9243C28.4782 70.777 28.7435 70.5154 28.8955 70.1878C29.0601 69.8775 29.1477 69.5321 29.1508 69.1808C29.1689 69.0491 29.1689 68.9155 29.1508 68.7837C29.0657 68.5071 29.3139 68.6064 28.9735 68.7837L27.5197 68.4007C27.6894 68.7912 27.7769 69.2125 27.7769 69.6382C27.7769 70.064 27.6894 70.4852 27.5197 70.8757C27.4442 71.1437 27.476 71.4306 27.6084 71.6755C27.7408 71.9204 27.9634 72.1041 28.2289 72.1877C28.4968 72.2578 28.7812 72.2236 29.0248 72.0919C29.2684 71.9603 29.4528 71.741 29.5409 71.4785C29.7911 70.8146 29.9026 70.1065 29.8684 69.3978C29.8343 68.6892 29.6552 67.995 29.3423 67.3583C29.1976 67.1177 28.9647 66.943 28.6932 66.8715C28.4217 66.8 28.133 66.8372 27.8885 66.9753C27.6635 67.0992 27.4706 67.274 27.3253 67.4858C27.18 67.6976 27.0863 67.9406 27.0517 68.1951C27.0075 68.4508 27.0075 68.7123 27.0517 68.968C27.1013 69.2304 27.0021 69.1808 27.151 69.1099L27.69 68.968C26.3993 68.5142 25.839 70.5637 27.1226 71.0175L27.1013 70.9892Z" fill="black"/>
<path d="M87.8774 29.3319C87.6611 29.9048 87.6131 30.5276 87.739 31.1269C87.8649 31.7262 88.1595 32.277 88.588 32.7144C89.0165 33.1519 89.5611 33.4577 90.1577 33.596C90.7542 33.7342 91.3779 33.6991 91.9551 33.4947C92.2176 33.4067 92.4368 33.2222 92.5685 32.9787C92.7001 32.7351 92.7344 32.4506 92.6643 32.1828C92.5807 31.9172 92.3969 31.6947 92.152 31.5623C91.9071 31.4299 91.6203 31.3981 91.3523 31.4736C91.139 31.5842 90.8954 31.6222 90.6586 31.5821C90.4217 31.542 90.2043 31.4258 90.0392 31.2512C89.8742 31.0765 89.7705 30.8529 89.7439 30.6141C89.7172 30.3754 89.769 30.1344 89.8914 29.9276C89.967 29.6597 89.9352 29.3728 89.8028 29.1279C89.6704 28.883 89.4478 28.6993 89.1823 28.6157C88.9144 28.5456 88.63 28.5798 88.3864 28.7114C88.1428 28.8431 87.9584 29.0624 87.8703 29.3248L87.8774 29.3319Z" fill="black"/>
<path d="M115.953 28.1193C115.45 28.2143 114.983 28.4488 114.607 28.7962C114.231 29.1435 113.96 29.5897 113.825 30.0837C113.783 30.2418 113.778 30.4075 113.809 30.5681C113.841 30.7286 113.909 30.8798 114.009 31.0099C114.108 31.14 114.236 31.2456 114.382 31.3187C114.529 31.3917 114.69 31.4301 114.854 31.4311L115.726 31.3318L115.442 29.2398C115.01 29.3333 114.612 29.5424 114.29 29.8447C113.968 30.1469 113.734 30.531 113.613 30.9559C113.208 32.2679 115.265 32.8281 115.662 31.5233C115.662 31.5233 115.74 31.3744 115.662 31.4524C115.584 31.5304 115.747 31.3389 115.698 31.3956C115.747 31.3389 115.797 31.3247 115.974 31.2963C116.225 31.23 116.443 31.0743 116.587 30.8586C116.731 30.6429 116.791 30.3821 116.756 30.1251C116.721 29.8681 116.594 29.6326 116.398 29.4631C116.201 29.2935 115.95 29.2015 115.691 29.2043L114.818 29.3036L115.847 30.651C115.896 30.4666 115.847 30.651 115.917 30.4808C115.988 30.3106 115.981 30.3744 116.024 30.3461C115.925 30.4099 116.3 30.1971 116.187 30.2468L116.506 30.1758C116.772 30.0923 116.994 29.9085 117.127 29.6636C117.259 29.4187 117.291 29.1319 117.215 28.8639C117.127 28.6014 116.943 28.3822 116.699 28.2505C116.456 28.1189 116.171 28.0846 115.903 28.1547L115.953 28.1193Z" fill="black"/>
</svg>
