<svg width="24" height="24" viewBox="0 0 24 24" fill="none" xmlns="http://www.w3.org/2000/svg" id="file">
<path d="M6.10001 18.2958H6.10002V18.2951V9.24001L10.0449 5.1H17.332C17.6405 5.1 17.9 5.36941 17.9 5.6944V18.3055C17.8998 18.4648 17.8394 18.6165 17.7335 18.7277C17.6277 18.8386 17.4853 18.9 17.338 18.9H6.66238C6.58878 18.8994 6.51588 18.8836 6.44779 18.8534C6.37957 18.8232 6.31737 18.779 6.26487 18.7231C6.21236 18.6671 6.17062 18.6007 6.14224 18.5273C6.11387 18.4539 6.09948 18.3752 6.10001 18.2958ZM10.6667 6.3H10.5667V6.4V9.8H7.33335H7.23335V9.9V17.6V17.7H7.33335H16.6667H16.7667V17.6V6.4V6.3H16.6667H10.6667Z" fill="black" stroke="white" stroke-width="0.2"/>
</svg>
