<svg width="22" height="23" viewBox="0 0 22 23" fill="none" xmlns="http://www.w3.org/2000/svg" id="help">
<g filter="url(#filter0_d_3384_36045)">
<path fill-rule="evenodd" clip-rule="evenodd" d="M4 8C4 4.13528 7.13528 1 11 1C14.8647 1 18 4.13528 18 8C18 11.8647 14.8647 15 11 15C7.13528 15 4 11.8647 4 8ZM4.92139 8C4.92139 11.3528 7.64717 14.0786 11 14.0786C14.3528 14.0786 17.0786 11.3528 17.0786 8C17.0786 4.64717 14.3528 1.92139 11 1.92139C7.64717 1.92139 4.92139 4.64717 4.92139 8ZM10.2066 5.56855L10.2067 5.56891C10.2323 5.61997 10.2578 5.67101 10.2833 5.70931C10.2961 5.72851 10.3122 5.74772 10.3282 5.76692C10.3441 5.78611 10.3601 5.8053 10.3729 5.82449L10.3729 5.82449C10.4113 5.86288 10.4497 5.90127 10.5009 5.93966L10.5137 5.94827C10.5504 5.97318 10.5973 6.00502 10.6545 6.01644C10.7056 6.04204 10.7568 6.05483 10.8208 6.06763C10.8848 6.08043 10.936 6.08043 10.9872 6.08043C11.0384 6.08043 11.1024 6.08043 11.1535 6.06763L11.1536 6.06761C11.2048 6.05482 11.2559 6.04203 11.2943 6.01644H11.3071C11.3583 5.99085 11.4095 5.96526 11.4607 5.92686C11.4991 5.90127 11.5375 5.86288 11.5758 5.82449L11.5886 5.81169C11.627 5.77333 11.6526 5.73497 11.6782 5.69662L11.6782 5.69652L11.6782 5.6965C11.7038 5.65811 11.7294 5.61972 11.7422 5.56855C11.7422 5.56311 11.7422 5.55998 11.7432 5.5572C11.7445 5.55344 11.7476 5.55031 11.755 5.54295C11.7764 5.50007 11.7889 5.44822 11.7999 5.40242L11.7999 5.40242L11.8062 5.37659C11.819 5.3254 11.819 5.26142 11.819 5.21023C11.819 5.15904 11.819 5.09505 11.8062 5.04387L11.8062 5.04386C11.7934 4.99267 11.7806 4.94148 11.755 4.8775C11.7166 4.78792 11.6654 4.71114 11.6014 4.64716L11.5758 4.62156C11.5455 4.59118 11.5151 4.56882 11.4784 4.5418L11.4784 4.54179L11.4479 4.51919C11.4223 4.50639 11.3999 4.49359 11.3775 4.4808L11.3775 4.48079C11.3551 4.468 11.3327 4.4552 11.3071 4.4424C11.2559 4.41681 11.2047 4.40401 11.1535 4.39122C11.0896 4.37842 11.0384 4.37842 10.9872 4.37842C10.936 4.37842 10.872 4.37842 10.8208 4.39122C10.7696 4.40401 10.7184 4.41681 10.6673 4.4424H10.6545L10.6542 4.44251L10.6542 4.44252C10.6031 4.46808 10.552 4.49363 10.5137 4.51919L10.4831 4.54185C10.4464 4.56885 10.4161 4.5912 10.3857 4.62156C10.3473 4.65995 10.3089 4.69835 10.2833 4.73674C10.2578 4.77504 10.2323 4.82607 10.2067 4.87713L10.2067 4.87714L10.2066 4.8775C10.181 4.92869 10.1682 4.97988 10.1554 5.03107C10.1426 5.09505 10.1426 5.14623 10.1426 5.19742V5.19743V5.19743C10.1426 5.24862 10.1426 5.3126 10.1554 5.36379C10.1643 5.43515 10.1794 5.48164 10.1921 5.5206L10.1921 5.52061L10.1921 5.52062C10.1976 5.53755 10.2027 5.55305 10.2066 5.56855ZM11.9851 10.2522H11.6908V7.1169C11.6908 6.93774 11.55 6.78418 11.3581 6.78418H10.0144C9.83521 6.78418 9.68164 6.92495 9.68164 7.1169V7.80795C9.68164 7.9871 9.82241 8.14067 10.0144 8.14067H10.2831V10.265H10.0144C9.83521 10.265 9.68164 10.4057 9.68164 10.5977V11.2887C9.68164 11.4679 9.82241 11.6215 10.0144 11.6215H11.9851C12.1643 11.6215 12.3178 11.4807 12.3178 11.2887V10.5977C12.3178 10.4057 12.1643 10.2522 11.9851 10.2522Z" fill="#333333"/>
</g>
<defs>
<filter id="filter0_d_3384_36045" x="-1" y="0" width="24" height="24" filterUnits="userSpaceOnUse" color-interpolation-filters="sRGB">
<feFlood flood-opacity="0" result="BackgroundImageFix"/>
<feColorMatrix in="SourceAlpha" type="matrix" values="0 0 0 0 0 0 0 0 0 0 0 0 0 0 0 0 0 0 127 0" result="hardAlpha"/>
<feOffset dy="4"/>
<feGaussianBlur stdDeviation="2"/>
<feComposite in2="hardAlpha" operator="out"/>
<feColorMatrix type="matrix" values="0 0 0 0 0 0 0 0 0 0 0 0 0 0 0 0 0 0 0.25 0"/>
<feBlend mode="normal" in2="BackgroundImageFix" result="effect1_dropShadow_3384_36045"/>
<feBlend mode="normal" in="SourceGraphic" in2="effect1_dropShadow_3384_36045" result="shape"/>
</filter>
</defs>
</svg>
