<svg width="24" height="25" viewBox="0 0 24 25" fill="none" xmlns="http://www.w3.org/2000/svg" id="home-2-fill">
<mask id="path-1-inside-1_5062_43028" fill="white">
<path fill-rule="evenodd" clip-rule="evenodd" d="M19.7071 21.2075C19.8946 21.02 20 20.7656 20 20.5004V11.5004H23L12.673 2.11241C12.4889 1.94489 12.2489 1.85205 12 1.85205C11.7511 1.85205 11.5111 1.94489 11.327 2.11241L1 11.5004H4V20.5004C4 20.7656 4.10536 21.02 4.29289 21.2075C4.48043 21.3951 4.73478 21.5004 5 21.5004H19C19.2652 21.5004 19.5196 21.3951 19.7071 21.2075ZM14 14.5002H10V21.5002H14V14.5002Z"/>
</mask>
<path d="M20 11.5004V10.5004H19V11.5004H20ZM23 11.5004V12.5004H25.5866L23.6727 10.7605L23 11.5004ZM12.673 2.11241L12 2.85205L12.0003 2.85235L12.673 2.11241ZM11.327 2.11241L11.9997 2.85235L12 2.85205L11.327 2.11241ZM1 11.5004L0.327334 10.7605L-1.58664 12.5004H1V11.5004ZM4 11.5004H5V10.5004H4V11.5004ZM10 14.5002V13.5002H9V14.5002H10ZM14 14.5002H15V13.5002H14V14.5002ZM10 21.5002H9V22.5002H10V21.5002ZM14 21.5002V22.5002H15V21.5002H14ZM19 20.5004L20.4142 21.9146C20.7893 21.5395 21 21.0308 21 20.5004H19ZM19 11.5004V20.5004H21V11.5004H19ZM23 10.5004H20V12.5004H23V10.5004ZM12.0003 2.85235L22.3273 12.2404L23.6727 10.7605L13.3457 1.37246L12.0003 2.85235ZM12 2.85205V2.85205L13.346 1.37277C12.9778 1.03772 12.4978 0.852051 12 0.852051V2.85205ZM12 2.85205V2.85205V0.852051C11.5022 0.852051 11.0222 1.03772 10.654 1.37277L12 2.85205ZM1.67267 12.2404L11.9997 2.85235L10.6543 1.37246L0.327334 10.7605L1.67267 12.2404ZM4 10.5004H1V12.5004H4V10.5004ZM5 20.5004V11.5004H3V20.5004H5ZM5 20.5004H5H3C3 21.0308 3.21071 21.5395 3.58579 21.9146L5 20.5004ZM5 20.5004H5L3.58579 21.9146C3.96086 22.2897 4.46957 22.5004 5 22.5004V20.5004ZM19 20.5004H5V22.5004H19V20.5004ZM19 20.5004V22.5004C19.5304 22.5004 20.0391 22.2897 20.4142 21.9146L19 20.5004ZM10 15.5002H14V13.5002H10V15.5002ZM11 21.5002V14.5002H9V21.5002H11ZM14 20.5002H10V22.5002H14V20.5002ZM13 14.5002V21.5002H15V14.5002H13Z" fill="#173BEF" mask="url(#path-1-inside-1_5062_43028)"/>
</svg>
