<svg width="24" height="24" viewBox="0 0 24 24" fill="none" xmlns="http://www.w3.org/2000/svg" id="mailchimp">
<path fill-rule="evenodd" clip-rule="evenodd" d="M17.9733 13.5055C18.0339 13.6961 18.0686 13.8173 18.0686 13.852C18.2938 13.852 18.6143 14.0686 18.5624 14.649C18.5624 15.2207 18.3371 15.8531 18.2765 15.983C17.4535 17.9495 15.4611 19.0583 13.1135 18.9976C10.9305 18.9283 9.05937 17.7935 8.23641 15.8877C7.72531 15.8877 7.22287 15.6625 6.84171 15.316C6.46921 14.9348 6.20933 14.4584 6.14869 13.9819C6.12271 13.6008 6.14869 13.2543 6.27864 12.9337L5.83684 12.5526C3.74912 10.7767 10.3068 3.45673 12.3599 5.29323C12.3945 5.29323 13.0875 5.98625 13.0875 5.98625L13.4687 5.83032C15.3398 5.068 16.8298 5.44916 16.8298 6.65327C16.8298 7.28565 16.414 8.04797 15.7816 8.715C16.0328 8.94023 16.2234 9.28674 16.3187 9.6679C16.414 9.95377 16.4487 10.2396 16.4487 10.4302C16.4833 10.6814 16.4833 11.2878 16.4833 11.2878L16.7345 11.3485C17.211 11.4784 17.5921 11.669 17.7481 11.8596C17.904 12.0501 17.9993 12.2407 18.0339 12.4313C18.0686 12.5872 18.0686 12.8991 17.8434 13.2196L17.9733 13.5055ZM8.37098 15.3489C8.39467 15.3453 8.41683 15.342 8.43565 15.342C9.23262 15.212 9.41454 14.3891 9.29326 13.5228C9.13733 12.6046 8.50495 12.2927 8.08914 12.258H8.08914C7.9592 12.258 7.86391 12.258 7.76862 12.2927C7.0063 12.4573 6.59916 13.0897 6.65979 13.9126C6.72043 14.6749 7.5174 15.3073 8.21042 15.342C8.25821 15.3659 8.31836 15.3568 8.37098 15.3489ZM6.50387 12.5179C6.76375 12.1368 7.17089 11.8856 7.64734 11.7903C8.24507 10.1703 9.25861 8.68035 10.5927 7.6928C11.5802 6.86984 12.6544 6.26345 12.6544 6.26345C12.6544 6.26345 12.0827 5.59642 11.8921 5.53579C10.8439 5.25858 8.53094 6.84386 7.0756 8.93157C6.46922 9.76319 5.61161 11.2792 6.02742 12.0415C6.06207 12.1368 6.34794 12.388 6.50387 12.5179ZM15.1579 14.9868L15.1233 15.0215C15.1233 15.0215 14.2657 15.4373 12.845 15.0215C12.9143 15.342 13.2001 15.4719 13.3561 15.5326C13.5466 15.5932 13.7372 15.6278 13.7372 15.6278C15.4178 15.9137 17.0031 14.9608 17.3496 14.7096C17.3842 14.6836 17.4189 14.7096 17.3842 14.7442L17.3496 14.8049C16.9338 15.3766 15.7643 16.009 14.2397 16.009C13.6073 16.009 12.9403 15.7491 12.689 15.4026C12.3165 14.8655 12.6631 14.0426 13.2954 14.1379L13.5813 14.1725C14.3696 14.2678 15.4784 14.1725 16.4313 13.7307C17.2889 13.3149 17.6354 12.8731 17.5748 12.5266C17.5488 12.4313 17.5142 12.336 17.4189 12.2407C17.263 12.0848 17.0117 11.9895 16.5959 11.8596C16.466 11.8249 16.3707 11.7989 16.2754 11.7643C16.0848 11.7036 16.0242 11.643 15.9895 11.3225C15.9895 11.2664 15.9831 11.1409 15.9757 10.9982C15.9661 10.8104 15.9549 10.5929 15.9549 10.4649C15.9532 10.4461 15.9515 10.4272 15.9498 10.408C15.917 10.0383 15.8785 9.60484 15.5737 9.39069C15.5131 9.33005 15.4178 9.2954 15.3225 9.2954C15.2549 9.27083 15.2222 9.2811 15.1965 9.28916C15.186 9.29247 15.1767 9.2954 15.1666 9.2954C15.0076 9.32431 14.9149 9.39541 14.8131 9.47351C14.7929 9.48903 14.7723 9.50483 14.7508 9.52063C14.3696 9.83249 14.0231 9.86714 13.6766 9.86714C13.593 9.86714 13.4928 9.85432 13.3847 9.84047C13.2575 9.8242 13.1193 9.8065 12.9836 9.8065H12.8276C12.2299 9.78051 11.5629 10.283 11.4676 11.0453C11.3421 11.889 11.806 12.4016 12.1091 12.7366C12.1826 12.8178 12.2466 12.8886 12.2906 12.9511C12.2941 12.9558 12.2978 12.9605 12.3015 12.9653C12.3253 12.9956 12.3512 13.0286 12.3512 13.081C12.3512 13.1416 12.3252 13.2023 12.2906 13.2369C11.6495 13.8693 11.4589 14.8828 11.6842 15.7405C11.6842 15.8372 11.7178 15.9147 11.7492 15.9873C11.76 16.0122 11.7706 16.0366 11.7795 16.061C12.3165 17.3604 14.0231 17.9321 15.7383 17.395C15.9549 17.3344 16.1801 17.2391 16.3707 17.1438C16.7432 16.9532 17.0984 16.702 17.3496 16.4162C17.7567 15.9397 18.0426 15.4633 18.1379 14.8309C18.1639 14.5104 18.1032 14.3804 18.0079 14.3198C17.9127 14.2505 17.7827 14.2851 17.7827 14.2851C17.7827 14.2851 17.7134 13.8693 17.5575 13.5228C17.081 13.8953 16.4487 14.1812 15.9722 14.3111C15.4351 14.4757 14.6728 14.597 13.8498 14.5363C13.7703 14.526 13.696 14.5137 13.6268 14.5022C13.2893 14.4463 13.0741 14.4106 12.9662 14.7269C14.0144 15.1081 15.1233 14.9522 15.1233 14.9522C15.1233 14.9522 15.1579 14.9522 15.1579 14.9868ZM12.1086 7.51088C11.5369 7.79675 10.8785 8.33384 10.3674 8.94023C10.3449 8.96274 10.3614 8.96575 10.3944 8.97178C10.3995 8.97272 10.4049 8.97372 10.4107 8.97488C10.8525 8.66302 11.4589 8.3425 12.2819 8.15193C13.2001 7.92669 14.0577 8.02198 14.5948 8.15193C14.6295 8.15193 14.6641 8.09128 14.6295 8.09128C14.283 7.87472 13.7459 7.74478 13.3647 7.74478C13.3301 7.74478 13.3301 7.71013 13.3301 7.71013C13.3632 7.67696 13.3922 7.6438 13.4199 7.6121C13.4718 7.55271 13.5192 7.49844 13.5813 7.45891C13.5813 7.45891 13.5813 7.42426 13.5466 7.42426C13.0009 7.45024 12.3685 7.71013 12.022 7.96134C12.022 7.96134 11.9874 7.96134 11.9874 7.92669C12.0041 7.84307 12.0495 7.74868 12.089 7.66662C12.1109 7.62117 12.1309 7.5795 12.1433 7.54554C12.1433 7.51088 12.1433 7.51088 12.1086 7.51088ZM15.6344 11.5997H15.3485C15.2532 11.5044 15.1839 11.3485 15.1579 11.1579C15.0973 10.8374 15.0973 10.5862 15.2879 10.5515C15.4784 10.5256 15.5737 10.7421 15.6344 11.0626C15.695 11.2792 15.695 11.4698 15.6344 11.5997ZM13.9191 11.9463C13.8931 11.9809 13.7979 11.9463 13.6679 11.8857C13.623 11.8647 13.5707 11.8427 13.5138 11.8232C13.5223 11.8967 13.525 11.971 13.5218 12.0393C13.7011 12.0528 13.8257 12.1295 13.8327 12.2061V12.2668C13.8173 12.2872 13.799 12.2835 13.7669 12.2771C13.7446 12.2726 13.7158 12.2668 13.6767 12.2668C13.6161 12.2533 13.5543 12.2451 13.4865 12.2456C13.4837 12.2531 13.4807 12.2602 13.4776 12.2669C13.3972 12.3693 13.3168 12.4346 13.1947 12.2962C13.166 12.3052 13.1362 12.3156 13.105 12.3274C13.105 12.3274 13.0097 12.362 12.975 12.362H12.9404V12.3274C12.9404 12.2927 12.975 12.2581 13.0357 12.1975L13.0357 12.1975C13.0541 12.179 13.0758 12.1606 13.1023 12.1429C13.0948 12.1257 13.0862 12.1076 13.0769 12.0881C13.0416 12.0139 12.9971 11.9205 12.9724 11.7901C12.8324 11.8172 12.7082 11.8569 12.6193 11.8854L12.6193 11.8854L12.6193 11.8854L12.6193 11.8854C12.5557 11.9057 12.5101 11.9203 12.4898 11.9203C12.4638 11.9203 12.4291 11.9203 12.4291 11.8857C12.3945 11.8164 12.4898 11.7211 12.5851 11.6604C12.6937 11.5749 12.811 11.5168 12.9324 11.4848C12.9215 11.2833 12.9604 11.1482 13.0965 11.1234C13.2877 11.1234 13.3852 11.2608 13.4474 11.4984C13.4778 11.5076 13.508 11.5183 13.538 11.5305C13.6593 11.5911 13.8238 11.6864 13.8845 11.8164C13.8934 11.8342 13.9023 11.8492 13.9101 11.8621C13.9324 11.8996 13.9449 11.9206 13.9191 11.9463ZM14.7769 12.6133C14.9068 12.6739 15.0281 12.6479 15.0974 12.5526C15.132 12.4573 15.0627 12.3274 14.9415 12.2668C14.8115 12.2061 14.6902 12.2321 14.6209 12.3274C14.5516 12.4227 14.6469 12.5526 14.7769 12.6133ZM15.374 12.1714C15.374 12.0155 15.4693 11.9202 15.5646 11.9202C15.6599 11.9202 15.7292 12.0414 15.7552 12.1714C15.7552 12.3273 15.6599 12.4226 15.5646 12.4226C15.4347 12.4226 15.374 12.3013 15.374 12.1714ZM8.85165 14.3891C8.817 14.3545 8.79101 14.3545 8.75636 14.3891H8.66107C8.60043 14.3891 8.53113 14.3545 8.50514 14.2938C8.47915 14.2332 8.47049 14.1379 8.50514 14.0079L8.53979 13.9473C8.63508 13.7567 8.76502 13.4709 8.60043 13.185C8.47049 12.9598 8.31456 12.8385 8.08933 12.8038C7.8641 12.7692 7.64753 12.8645 7.51759 13.0291C7.29236 13.2803 7.26637 13.6008 7.29236 13.7221C7.29236 13.7567 7.32701 13.7827 7.353 13.7827C7.38765 13.7827 7.44829 13.7481 7.48294 13.6528V13.6181C7.48294 13.5575 7.51759 13.4882 7.57823 13.3929C7.63887 13.2976 7.73416 13.237 7.82945 13.237C7.92474 13.2023 8.05468 13.237 8.14997 13.2976C8.3059 13.3929 8.3752 13.5835 8.3059 13.7741C8.21061 13.8693 8.17596 14.0253 8.17596 14.1899C8.21061 14.4757 8.40119 14.6057 8.55712 14.6317C8.71305 14.6317 8.84299 14.5364 8.84299 14.4757C8.86632 14.4407 8.86216 14.4293 8.85695 14.415C8.85442 14.4081 8.85165 14.4004 8.85165 14.3891Z" fill="black"/>
</svg>
