<svg width="16" height="16" viewBox="0 0 16 16" fill="none" xmlns="http://www.w3.org/2000/svg" id="publish-page">
<path d="M8 1C4.12313 1 1 4.12313 1 8C1 11.8769 4.12313 15 8 15C11.8769 15 15 11.8769 15 8C15 4.12313 11.8769 1 8 1ZM2.0771 8C2.0771 7.13846 2.29243 6.27693 2.61559 5.5231C3.10023 5.68468 3.58487 5.84614 4.12325 5.95388C4.01552 6.59997 3.96166 7.30006 3.96166 8.00003C3.96166 8.7 4.01552 9.40006 4.12325 10.0462C3.58475 10.1539 3.10023 10.3154 2.61559 10.477C2.29243 9.72313 2.0771 8.86159 2.0771 8.00006V8ZM5.03841 8C5.03841 7.35391 5.09227 6.76154 5.19999 6.1693C5.95381 6.27703 6.70764 6.33089 7.46144 6.38463V9.6693C6.70761 9.6693 5.95379 9.77702 5.19999 9.88463C5.09227 9.23854 5.03841 8.64616 5.03841 8.00008V8ZM10.5846 5.09235C9.93849 5.20007 9.23841 5.25393 8.53844 5.25393V2.18474C9.39997 2.5079 10.1538 3.63863 10.5846 5.09239V5.09235ZM7.46145 2.1847V5.25388C6.76148 5.25388 6.11528 5.20002 5.4153 5.0923C5.84609 3.63862 6.59988 2.50789 7.46145 2.18465V2.1847ZM7.46145 10.7461V13.8153C6.59991 13.4923 5.84609 12.3615 5.4153 10.9077C6.11539 10.8 6.76148 10.7462 7.46145 10.7462V10.7461ZM8.53844 13.8153V10.7461C9.23841 10.7461 9.88461 10.8 10.5846 10.9077C10.1538 12.3614 9.4 13.4921 8.53844 13.8154V13.8153ZM8.53844 9.6693V6.38464C9.29226 6.38464 10.0461 6.27692 10.7999 6.16931C10.9076 6.76166 10.9615 7.35389 10.9615 8.00001C10.9615 8.64612 10.9076 9.23847 10.7999 9.8307C10.0461 9.72309 9.29223 9.66923 8.53844 9.66923V9.6693ZM11.8768 5.95397C12.4152 5.84625 12.8998 5.68478 13.3844 5.52319C13.7074 6.27701 13.9229 7.0847 13.9229 8.00009C13.9229 8.86162 13.7076 9.72316 13.3844 10.477C12.8998 10.3154 12.4151 10.1539 11.8768 10.0462C11.9845 9.40012 12.0383 8.70003 12.0383 8.00006C12.0383 7.30009 11.9845 6.60003 11.8768 5.95391V5.95397ZM12.846 4.55406C12.4691 4.66178 12.0383 4.76938 11.6615 4.8771C11.4461 4.06942 11.123 3.31559 10.6922 2.72325C11.5537 3.15403 12.2537 3.80012 12.846 4.55406ZM5.30777 2.72325C4.93087 3.31559 4.6078 4.06942 4.33849 4.8771C3.96159 4.82324 3.58467 4.71552 3.15391 4.55406C3.74626 3.80012 4.44623 3.15403 5.30777 2.72325ZM3.15391 11.4462C3.53081 11.3385 3.96159 11.2309 4.33849 11.1232C4.55382 11.9308 4.87699 12.6847 5.30777 13.277C4.44623 12.8462 3.74626 12.2001 3.15391 11.4462ZM10.6922 13.277C11.0691 12.6847 11.3921 11.9308 11.6615 11.1232C12.0922 11.2309 12.4691 11.3385 12.846 11.4462C12.2537 12.2001 11.5537 12.8462 10.6922 13.277Z" fill="white"/>
</svg>
