<svg width="16" height="16" viewBox="0 0 16 16" fill="none" xmlns="http://www.w3.org/2000/svg" id="submit-feedback">
<path d="M7.2951 9.49325V9.56072H8.31073V9.49325C8.31546 9.221 8.34624 8.99254 8.40306 8.80788C8.45988 8.62322 8.54984 8.46342 8.67295 8.32848C8.79842 8.19353 8.96177 8.06333 9.163 7.93785C9.37607 7.81001 9.55836 7.66323 9.70988 7.49751C9.86376 7.33179 9.98213 7.14358 10.065 6.93288C10.1479 6.71981 10.1893 6.4807 10.1893 6.21555C10.1893 5.82966 10.0981 5.4923 9.91584 5.20348C9.73592 4.91228 9.4826 4.6862 9.1559 4.52521C8.8292 4.36186 8.44804 4.28018 8.01243 4.28018C7.61471 4.28018 7.25131 4.35594 6.92224 4.50745C6.59553 4.65897 6.33275 4.88269 6.13388 5.17862C5.93502 5.47218 5.8273 5.83203 5.81073 6.25816H6.89028C6.90685 6.00722 6.96958 5.80244 7.07849 5.64382C7.18739 5.48283 7.3247 5.36446 7.49042 5.2887C7.65614 5.21295 7.83014 5.17507 8.01243 5.17507C8.21367 5.17507 8.39596 5.21768 8.55931 5.30291C8.72503 5.38577 8.8576 5.50414 8.95704 5.65802C9.05647 5.81191 9.10618 5.9942 9.10618 6.2049C9.10618 6.38009 9.07304 6.53989 9.00675 6.6843C8.94046 6.82871 8.8505 6.95656 8.73687 7.06782C8.62323 7.17909 8.49539 7.27971 8.35334 7.36967C8.13317 7.50225 7.94496 7.64903 7.78871 7.81001C7.63246 7.971 7.51172 8.1817 7.4265 8.44211C7.34364 8.70253 7.29984 9.05291 7.2951 9.49325Z" fill="white"/>
<path d="M7.33062 11.5138C7.47029 11.6512 7.6372 11.7198 7.83133 11.7198C7.96153 11.7198 8.07991 11.6879 8.18644 11.6239C8.29297 11.56 8.3782 11.4748 8.44212 11.3682C8.50841 11.2593 8.54155 11.1398 8.54155 11.0096C8.54155 10.8155 8.47053 10.6497 8.32849 10.5124C8.18881 10.3727 8.02309 10.3029 7.83133 10.3029C7.6372 10.3029 7.47029 10.3727 7.33062 10.5124C7.19094 10.6497 7.1211 10.8155 7.1211 11.0096C7.1211 11.2061 7.19094 11.3742 7.33062 11.5138Z" fill="white"/>
<path fill-rule="evenodd" clip-rule="evenodd" d="M14 8C14 11.3137 11.3137 14 8 14C4.68629 14 2 11.3137 2 8C2 4.68629 4.68629 2 8 2C11.3137 2 14 4.68629 14 8ZM13 8C13 10.7614 10.7614 13 8 13C5.23858 13 3 10.7614 3 8C3 5.23858 5.23858 3 8 3C10.7614 3 13 5.23858 13 8Z" fill="white"/>
</svg>
