<svg width="24" height="24" viewBox="0 0 24 24" fill="none" xmlns="http://www.w3.org/2000/svg" id="telegram">
<path d="M12 19C15.866 19 19 15.866 19 12C19 8.13401 15.866 5 12 5C8.13401 5 5 8.13401 5 12C5 15.866 8.13401 19 12 19Z" fill="url(#paint0_linear_5358_56534)"/>
<path fill-rule="evenodd" clip-rule="evenodd" d="M8.16496 11.9241C10.2049 11.0381 11.563 10.4495 12.2449 10.1639C14.1858 9.35372 14.5938 9.21384 14.8561 9.20801C14.9143 9.20801 15.0426 9.21966 15.13 9.28961C15.1999 9.34789 15.2174 9.42366 15.2291 9.48195C15.2407 9.54023 15.2524 9.66263 15.2407 9.75588C15.1358 10.8633 14.6812 13.5502 14.4481 14.7859C14.349 15.3104 14.1566 15.4853 13.9701 15.5028C13.5621 15.5377 13.2532 15.2347 12.8627 14.9782C12.2449 14.576 11.901 14.3254 11.3007 13.9291C10.6071 13.4745 11.0559 13.2238 11.4522 12.8158C11.5571 12.7109 13.3465 11.0789 13.3815 10.9332C13.3873 10.9158 13.3873 10.8458 13.3465 10.8108C13.3057 10.7759 13.2474 10.7875 13.2008 10.7992C13.1367 10.8108 12.1575 11.4636 10.2516 12.7517C9.97179 12.9441 9.72117 13.0373 9.49386 13.0315C9.24323 13.0257 8.7653 12.8916 8.40393 12.775C7.9668 12.6352 7.61709 12.5594 7.64623 12.3146C7.66371 12.1864 7.83857 12.0581 8.16496 11.9241Z" fill="white"/>
<defs>
<linearGradient id="paint0_linear_5358_56534" x1="11.9942" y1="5" x2="11.9942" y2="18.8893" gradientUnits="userSpaceOnUse">
<stop stop-color="#2AABEE"/>
<stop offset="1" stop-color="#229ED9"/>
</linearGradient>
</defs>
</svg>
