<svg width="79" height="21" viewBox="0 0 79 21" fill="none" xmlns="http://www.w3.org/2000/svg" id="logo_white">
<path d="M6.281 19C9.7499 19 12.562 16.1879 12.562 12.719C12.562 9.25009 9.7499 6.43799 6.281 6.43799C2.8121 6.43799 0 9.25009 0 12.719C0 16.1879 2.8121 19 6.281 19Z" fill="#173BEF"/>
<path fill-rule="evenodd" clip-rule="evenodd" d="M13.951 1L21.685 12.79H6.216L13.951 1Z" fill="#ADBBFF"/>
<path d="M35.424 7.872V16H32.576V14.896C32.3413 15.28 32 15.584 31.552 15.808C31.104 16.0213 30.6133 16.128 30.08 16.128C29.3867 16.128 28.768 15.9573 28.224 15.616C27.68 15.2747 27.2533 14.7893 26.944 14.16C26.6453 13.52 26.496 12.784 26.496 11.952C26.496 11.1093 26.6507 10.3627 26.96 9.712C27.2693 9.06133 27.696 8.55467 28.24 8.192C28.784 7.82933 29.3973 7.648 30.08 7.648C30.6133 7.648 31.0987 7.76533 31.536 8C31.984 8.224 32.3307 8.528 32.576 8.912V7.872H35.424ZM30.976 13.968C31.488 13.968 31.8827 13.792 32.16 13.44C32.4373 13.088 32.576 12.5813 32.576 11.92C32.576 11.248 32.4373 10.736 32.16 10.384C31.8827 10.0213 31.488 9.84 30.976 9.84C30.4747 9.84 30.08 10.0267 29.792 10.4C29.504 10.7627 29.36 11.28 29.36 11.952C29.36 12.6027 29.4987 13.104 29.776 13.456C30.0533 13.7973 30.4533 13.968 30.976 13.968ZM37.6252 7.872H40.5212V16H37.6252V7.872ZM40.5692 3.888V6.496H37.5452V3.888H40.5692ZM47.8663 7.68C48.2609 7.68 48.5649 7.73867 48.7783 7.856V10.496C48.3196 10.2827 47.8769 10.176 47.4503 10.176C46.2343 10.176 45.6263 10.7573 45.6263 11.92V16H42.7303V10.208C42.7303 9.33333 42.6876 8.55467 42.6023 7.872H45.3223L45.4983 9.232C45.6903 8.73067 45.9996 8.34667 46.4263 8.08C46.8529 7.81333 47.3329 7.68 47.8663 7.68ZM55.7446 13.792C55.9366 13.792 56.1926 13.76 56.5126 13.696V15.888C56.118 16.048 55.6166 16.128 55.0086 16.128C53.91 16.128 53.0726 15.8187 52.4966 15.2C51.9313 14.5813 51.6486 13.7227 51.6486 12.624V10H50.1286V7.872H51.6486V6.032L54.5446 5.104V7.872H56.4966V10H54.5446V12.624C54.5446 13.008 54.6566 13.3013 54.8806 13.504C55.1153 13.696 55.4033 13.792 55.7446 13.792ZM66.6409 7.872V16H63.7929V14.896C63.5582 15.28 63.2169 15.584 62.7689 15.808C62.3209 16.0213 61.8302 16.128 61.2969 16.128C60.6035 16.128 59.9849 15.9573 59.4409 15.616C58.8969 15.2747 58.4702 14.7893 58.1609 14.16C57.8622 13.52 57.7129 12.784 57.7129 11.952C57.7129 11.1093 57.8675 10.3627 58.1769 9.712C58.4862 9.06133 58.9129 8.55467 59.4569 8.192C60.0009 7.82933 60.6142 7.648 61.2969 7.648C61.8302 7.648 62.3155 7.76533 62.7529 8C63.2009 8.224 63.5475 8.528 63.7929 8.912V7.872H66.6409ZM62.1929 13.968C62.7049 13.968 63.0995 13.792 63.3769 13.44C63.6542 13.088 63.7929 12.5813 63.7929 11.92C63.7929 11.248 63.6542 10.736 63.3769 10.384C63.0995 10.0213 62.7049 9.84 62.1929 9.84C61.6915 9.84 61.2969 10.0267 61.0089 10.4C60.7209 10.7627 60.5769 11.28 60.5769 11.952C60.5769 12.6027 60.7155 13.104 60.9929 13.456C61.2702 13.7973 61.6702 13.968 62.1929 13.968ZM74.2021 7.648C74.8955 7.648 75.5141 7.82933 76.0581 8.192C76.6021 8.55467 77.0288 9.06133 77.3381 9.712C77.6475 10.3627 77.8021 11.1093 77.8021 11.952C77.8021 12.784 77.6475 13.52 77.3381 14.16C77.0395 14.7893 76.6181 15.2747 76.0741 15.616C75.5301 15.9573 74.9061 16.128 74.2021 16.128C73.6688 16.128 73.1835 16.0267 72.7461 15.824C72.3088 15.6107 71.9728 15.3173 71.7381 14.944V19.456H68.8421V10.208C68.8421 9.33333 68.7995 8.55467 68.7141 7.872H71.4341L71.5941 9.136C71.7968 8.688 72.1328 8.33067 72.6021 8.064C73.0715 7.78667 73.6048 7.648 74.2021 7.648ZM73.3221 13.968C73.8448 13.968 74.2395 13.7973 74.5061 13.456C74.7728 13.1147 74.9061 12.6133 74.9061 11.952C74.9061 11.28 74.7675 10.7627 74.4901 10.4C74.2235 10.0267 73.8341 9.84 73.3221 9.84C72.7995 9.84 72.3995 10.016 72.1221 10.368C71.8448 10.72 71.7061 11.2373 71.7061 11.92C71.7061 12.5813 71.8448 13.088 72.1221 13.44C72.3995 13.792 72.7995 13.968 73.3221 13.968Z" fill="white"/>
</svg>
