<svg width="78" height="21" viewBox="0 0 78 21" fill="none" xmlns="http://www.w3.org/2000/svg" id="logo_black">
<path d="M34.424 7.872V16H31.576V14.896C31.3413 15.28 31 15.584 30.552 15.808C30.104 16.0213 29.6133 16.128 29.08 16.128C28.3867 16.128 27.768 15.9573 27.224 15.616C26.68 15.2747 26.2533 14.7893 25.944 14.16C25.6453 13.52 25.496 12.784 25.496 11.952C25.496 11.1093 25.6507 10.3627 25.96 9.712C26.2693 9.06133 26.696 8.55467 27.24 8.192C27.784 7.82933 28.3973 7.648 29.08 7.648C29.6133 7.648 30.0987 7.76533 30.536 8C30.984 8.224 31.3307 8.528 31.576 8.912V7.872H34.424ZM29.976 13.968C30.488 13.968 30.8827 13.792 31.16 13.44C31.4373 13.088 31.576 12.5813 31.576 11.92C31.576 11.248 31.4373 10.736 31.16 10.384C30.8827 10.0213 30.488 9.84 29.976 9.84C29.4747 9.84 29.08 10.0267 28.792 10.4C28.504 10.7627 28.36 11.28 28.36 11.952C28.36 12.6027 28.4987 13.104 28.776 13.456C29.0533 13.7973 29.4533 13.968 29.976 13.968ZM36.6252 16V7.872H39.5212V16H36.6252ZM36.5452 3.888H39.5692V6.496H36.5452V3.888ZM46.8662 7.68C47.2609 7.68 47.5649 7.73867 47.7782 7.856V10.496C47.3196 10.2827 46.8769 10.176 46.4502 10.176C45.2342 10.176 44.6262 10.7573 44.6262 11.92V16H41.7302V10.208C41.7302 9.33333 41.6876 8.55467 41.6022 7.872H44.3222L44.4982 9.232C44.6902 8.73067 44.9996 8.34667 45.4262 8.08C45.8529 7.81333 46.3329 7.68 46.8662 7.68ZM54.7446 13.792C54.9366 13.792 55.1926 13.76 55.5126 13.696V15.888C55.118 16.048 54.6166 16.128 54.0086 16.128C52.91 16.128 52.0726 15.8187 51.4966 15.2C50.9313 14.5813 50.6486 13.7227 50.6486 12.624V10H49.1286V7.872H50.6486V6.032L53.5446 5.104V7.872H55.4966V10H53.5446V12.624C53.5446 13.008 53.6566 13.3013 53.8806 13.504C54.1153 13.696 54.4033 13.792 54.7446 13.792ZM65.6409 7.872V16H62.7929V14.896C62.5582 15.28 62.2169 15.584 61.7689 15.808C61.3209 16.0213 60.8302 16.128 60.2969 16.128C59.6035 16.128 58.9849 15.9573 58.4409 15.616C57.8969 15.2747 57.4702 14.7893 57.1609 14.16C56.8622 13.52 56.7129 12.784 56.7129 11.952C56.7129 11.1093 56.8675 10.3627 57.1769 9.712C57.4862 9.06133 57.9129 8.55467 58.4569 8.192C59.0009 7.82933 59.6142 7.648 60.2969 7.648C60.8302 7.648 61.3155 7.76533 61.7529 8C62.2009 8.224 62.5475 8.528 62.7929 8.912V7.872H65.6409ZM61.1929 13.968C61.7049 13.968 62.0995 13.792 62.3769 13.44C62.6542 13.088 62.7929 12.5813 62.7929 11.92C62.7929 11.248 62.6542 10.736 62.3769 10.384C62.0995 10.0213 61.7049 9.84 61.1929 9.84C60.6915 9.84 60.2969 10.0267 60.0089 10.4C59.7209 10.7627 59.5769 11.28 59.5769 11.952C59.5769 12.6027 59.7155 13.104 59.9929 13.456C60.2702 13.7973 60.6702 13.968 61.1929 13.968ZM73.2021 7.648C73.8955 7.648 74.5141 7.82933 75.0581 8.192C75.6021 8.55467 76.0288 9.06133 76.3381 9.712C76.6475 10.3627 76.8021 11.1093 76.8021 11.952C76.8021 12.784 76.6475 13.52 76.3381 14.16C76.0395 14.7893 75.6181 15.2747 75.0741 15.616C74.5301 15.9573 73.9061 16.128 73.2021 16.128C72.6688 16.128 72.1835 16.0267 71.7461 15.824C71.3088 15.6107 70.9728 15.3173 70.7381 14.944V19.456H67.8421V10.208C67.8421 9.33333 67.7995 8.55467 67.7141 7.872H70.4341L70.5941 9.136C70.7968 8.688 71.1328 8.33067 71.6021 8.064C72.0715 7.78667 72.6048 7.648 73.2021 7.648ZM72.3221 13.968C72.8448 13.968 73.2395 13.7973 73.5061 13.456C73.7728 13.1147 73.9061 12.6133 73.9061 11.952C73.9061 11.28 73.7675 10.7627 73.4901 10.4C73.2235 10.0267 72.8341 9.84 72.3221 9.84C71.7995 9.84 71.3995 10.016 71.1221 10.368C70.8448 10.72 70.7061 11.2373 70.7061 11.92C70.7061 12.5813 70.8448 13.088 71.1221 13.44C71.3995 13.792 71.7995 13.968 72.3221 13.968Z" fill="black"/>
<path d="M5.58312 18.0002C8.66659 18.0002 11.1662 15.5006 11.1662 12.4171C11.1662 9.33363 8.66659 6.83398 5.58312 6.83398C2.49965 6.83398 0 9.33363 0 12.4171C0 15.5006 2.49965 18.0002 5.58312 18.0002Z" fill="#173BEF"/>
<path fill-rule="evenodd" clip-rule="evenodd" d="M11.5004 3L18 13H5L11.5004 3Z" fill="#ADBBFF"/>
</svg>
