<svg width="18" height="14" viewBox="0 0 18 14" fill="none" xmlns="http://www.w3.org/2000/svg">
<path fill-rule="evenodd" clip-rule="evenodd" d="M5.09091 12.7273C7.19963 12.7273 8.90909 11.0178 8.90909 8.90909C8.90909 6.80037 7.19963 5.09091 5.09091 5.09091C2.98219 5.09091 1.27273 6.80037 1.27273 8.90909C1.27273 11.0178 2.98219 12.7273 5.09091 12.7273ZM10.1818 8.90909C10.1818 11.7207 7.90254 14 5.09091 14C2.27928 14 0 11.7207 0 8.90909C0 6.09746 2.27928 3.81818 5.09091 3.81818C7.90254 3.81818 10.1818 6.09746 10.1818 8.90909Z" fill="#333333"/>
<path fill-rule="evenodd" clip-rule="evenodd" d="M11.455 0L5.09091 10.1818H17.8182L11.455 0ZM11.4549 2.40138L7.3873 8.90909H15.5219L11.4549 2.40138Z" fill="#333333"/>
</svg>
