<svg width="20" height="20" viewBox="0 0 20 20" fill="none" xmlns="http://www.w3.org/2000/svg">
<path d="M5.82222 6.31811C5.82798 6.59419 6.05645 6.81334 6.33253 6.80758C6.60861 6.80183 6.82776 6.57336 6.82201 6.29728L5.82222 6.31811ZM6.30769 5.61538L5.80755 5.61396L5.8078 5.6258L6.30769 5.61538ZM7.92308 4V3.5L7.92165 3.5L7.92308 4ZM14.1538 4L14.1553 3.5H14.1538V4ZM16 5.84615H16.5L16.5 5.84468L16 5.84615ZM16 12.0769L16.5 12.0783V12.0769H16ZM14.3846 13.6923V14.1923L14.386 14.1923L14.3846 13.6923ZM13.6923 13.1923C13.4162 13.1923 13.1923 13.4162 13.1923 13.6923C13.1923 13.9685 13.4162 14.1923 13.6923 14.1923V13.1923ZM12.0481 5.80769H5.64423V6.80769H12.0481V5.80769ZM5.64423 5.80769C4.46001 5.80769 3.5 6.7677 3.5 7.95192H4.5C4.5 7.31998 5.01229 6.80769 5.64423 6.80769V5.80769ZM3.5 7.95192V14.3558H4.5V7.95192H3.5ZM3.5 14.3558C3.5 15.54 4.46001 16.5 5.64423 16.5V15.5C5.01229 15.5 4.5 14.9877 4.5 14.3558H3.5ZM5.64423 16.5H12.0481V15.5H5.64423V16.5ZM12.0481 16.5C13.2323 16.5 14.1923 15.54 14.1923 14.3558H13.1923C13.1923 14.9877 12.68 15.5 12.0481 15.5V16.5ZM14.1923 14.3558V7.95192H13.1923V14.3558H14.1923ZM14.1923 7.95192C14.1923 6.7677 13.2323 5.80769 12.0481 5.80769V6.80769C12.68 6.80769 13.1923 7.31998 13.1923 7.95192H14.1923ZM6.82201 6.29728L6.80758 5.60497L5.8078 5.6258L5.82222 6.31811L6.82201 6.29728ZM6.80769 5.61681C6.80853 5.32087 6.92647 5.03729 7.13573 4.82803L6.42862 4.12093C6.03252 4.51703 5.80929 5.05379 5.80769 5.61396L6.80769 5.61681ZM7.13573 4.82803C7.34499 4.61877 7.62856 4.50084 7.9245 4.5L7.92165 3.5C7.36149 3.5016 6.82472 3.72483 6.42862 4.12093L7.13573 4.82803ZM7.92308 4.5H14.1538V3.5H7.92308V4.5ZM14.1524 4.5C14.5095 4.50105 14.8516 4.64337 15.1041 4.89588L15.8112 4.18877C15.3719 3.74946 14.7766 3.50184 14.1553 3.5L14.1524 4.5ZM15.1041 4.89588C15.3566 5.14838 15.4989 5.49054 15.5 5.84763L16.5 5.84468C16.4982 5.22339 16.2505 4.62808 15.8112 4.18877L15.1041 4.89588ZM15.5 5.84615V12.0769H16.5V5.84615H15.5ZM15.5 12.0755C15.4992 12.3714 15.3812 12.655 15.172 12.8643L15.8791 13.5714C16.2752 13.1753 16.4984 12.6385 16.5 12.0783L15.5 12.0755ZM15.172 12.8643C14.9627 13.0735 14.6791 13.1915 14.3832 13.1923L14.386 14.1923C14.9462 14.1907 15.483 13.9675 15.8791 13.5714L15.172 12.8643ZM14.3846 13.1923H13.6923V14.1923H14.3846V13.1923Z" fill="#949CAD"/>
</svg>
