<svg width="14" height="14" viewBox="0 0 14 14" fill="none" xmlns="http://www.w3.org/2000/svg">
<path d="M6.99956 0C3.13425 0.000875 0.000875 3.13425 0 6.99956C0.000875 10.8662 3.13425 13.9996 6.99956 14C10.8662 13.9991 13.9996 10.8662 14 6.99956C13.9996 3.13425 10.8662 0.000875 6.99956 0ZM5.04481 1.20138C4.57319 1.74563 4.067 2.50338 3.682 3.50044H1.98056C2.723 2.43819 3.79269 1.62444 5.04481 1.20138ZM1.47481 4.375H3.395C3.22263 5.01944 3.11106 5.74963 3.08 6.5625H0.89775C0.954188 5.78331 1.155 5.04612 1.47481 4.375ZM0.89775 7.43794H3.08C3.11106 8.25081 3.22263 8.98056 3.395 9.625H1.47569C1.15587 8.95387 0.954625 8.21756 0.89775 7.43794ZM1.98188 10.5H3.68244C4.067 11.4953 4.57231 12.2531 5.04394 12.7969C3.79269 12.3743 2.72388 11.5614 1.98188 10.5ZM6.5625 13.0327C6.15125 12.7247 5.25394 11.9394 4.62306 10.5H6.5625V13.0327ZM6.5625 9.62456H4.30062C4.11338 8.99588 3.98825 8.26656 3.95281 7.4375H6.5625V9.62456ZM6.5625 6.5625H3.955C3.99044 5.7295 4.11863 5.00369 4.30719 4.375H6.5625V6.5625ZM6.5625 3.50044H4.62088C4.85188 2.97413 5.11831 2.53444 5.38344 2.1735C5.74219 1.68613 6.10006 1.34181 6.36387 1.12175C6.44 1.05875 6.50475 1.00888 6.5625 0.966V3.50044ZM13.1009 6.5625H10.92C10.8889 5.74919 10.7774 5.01944 10.6041 4.375H12.5243C12.8437 5.04612 13.0454 5.78331 13.1009 6.5625ZM12.0194 3.50044H10.318C9.93256 2.50294 9.42681 1.74519 8.95475 1.20138C10.2078 1.62444 11.2774 2.43819 12.0194 3.50044ZM7.4375 3.50087V0.96775C7.84919 1.27619 8.74606 2.06194 9.37737 3.50131L7.4375 3.50087ZM7.4375 4.375H9.69894C9.88663 5.00369 10.0113 5.73344 10.0468 6.5625H7.4375V4.375ZM7.4375 7.4375H10.0446C10.0091 8.26962 9.88094 8.99588 9.69238 9.62456H7.4375V7.4375ZM7.63569 12.8783C7.55956 12.9413 7.49481 12.9903 7.4375 13.0336V10.5004H9.37912C9.14856 11.0263 8.88125 11.4656 8.61613 11.8265C8.25781 12.3134 7.89994 12.6586 7.63569 12.8783ZM8.95606 12.7969C9.42725 12.2531 9.93256 11.4953 10.3176 10.5H12.0186C11.2757 11.5614 10.2073 12.3743 8.95606 12.7969ZM12.5239 9.62456H10.605C10.7769 8.98056 10.8885 8.25081 10.92 7.4375H13.1009C13.0445 8.21669 12.8437 8.95344 12.5239 9.62456Z" fill="black"/>
</svg>
