<svg width="7" height="10" viewBox="0 0 7 10" fill="none" xmlns="http://www.w3.org/2000/svg">
<path d="M1 8C1.55228 8 2 8.44771 2 9C2 9.55228 1.55228 10 1 10C0.447715 10 -1.95703e-08 9.55228 -4.37114e-08 9C-6.78526e-08 8.44771 0.447715 8 1 8Z" fill="#949CAD"/>
<path d="M1 4C1.55228 4 2 4.44772 2 5C2 5.55228 1.55228 6 1 6C0.447715 6 -1.94416e-07 5.55228 -2.18557e-07 5C-2.42698e-07 4.44772 0.447715 4 1 4Z" fill="#949CAD"/>
<path d="M1 9.09963e-07C1.55228 8.85822e-07 2 0.447716 2 1C2 1.55229 1.55228 2 1 2C0.447715 2 -3.69261e-07 1.55229 -3.93402e-07 1C-4.17544e-07 0.447716 0.447715 9.34104e-07 1 9.09963e-07Z" fill="#949CAD"/>
<path d="M5.5 8C6.05229 8 6.5 8.44771 6.5 9C6.5 9.55228 6.05229 10 5.5 10C4.94772 10 4.5 9.55228 4.5 9C4.5 8.44772 4.94772 8 5.5 8Z" fill="#949CAD"/>
<path d="M5.5 4C6.05228 4 6.5 4.44772 6.5 5C6.5 5.55228 6.05229 6 5.5 6C4.94772 6 4.5 5.55228 4.5 5C4.5 4.44772 4.94772 4 5.5 4Z" fill="#949CAD"/>
<path d="M5.5 -2.40413e-07C6.05228 -2.64554e-07 6.5 0.447715 6.5 1C6.5 1.55228 6.05228 2 5.5 2C4.94772 2 4.5 1.55228 4.5 1C4.5 0.447715 4.94772 -2.16272e-07 5.5 -2.40413e-07Z" fill="#949CAD"/>
</svg>
