<svg xmlns="http://www.w3.org/2000/svg" width="14" height="14" viewBox="0 0 14 14" fill="none">
    <path fill-rule="evenodd" clip-rule="evenodd"
          d="M12.4574 5.222H12.621C12.9849 5.228 13.3321 5.37497 13.5895 5.63186C13.8468 5.88874 13.994 6.23543 14 6.59867V7.40133C13.9941 7.76221 13.8488 8.10686 13.5945 8.36337C13.3402 8.61988 12.9965 8.76842 12.6351 8.778H12.4715C12.3796 8.78629 12.2917 8.81954 12.2175 8.87416C12.1432 8.92877 12.0853 9.00266 12.0502 9.08779C12.015 9.17292 12.0039 9.26605 12.018 9.35706C12.0321 9.44806 12.0709 9.53347 12.1302 9.604L12.2331 9.716C12.4872 9.97727 12.6294 10.3271 12.6294 10.6913C12.6294 11.0555 12.4872 11.4054 12.2331 11.6667L11.6861 12.236C11.4244 12.4897 11.074 12.6316 10.7092 12.6316C10.3444 12.6316 9.99393 12.4897 9.73222 12.236L9.62003 12.1193C9.55235 12.056 9.46732 12.0141 9.37575 11.9992C9.28418 11.9842 9.19022 11.9968 9.10584 12.0353C9.01684 12.0663 8.9393 12.1235 8.8834 12.1993C8.82751 12.2751 8.79588 12.3659 8.79265 12.46V12.6233C8.78664 12.9866 8.63942 13.3333 8.38211 13.5901C8.1248 13.847 7.77754 13.994 7.41369 14H6.60968C6.24177 14.0001 5.88858 13.8558 5.62625 13.5982C5.36393 13.3407 5.21348 12.9906 5.20735 12.6233V12.46C5.19904 12.3683 5.16573 12.2806 5.11103 12.2064C5.05632 12.1323 4.98231 12.0745 4.89704 12.0394C4.81176 12.0043 4.71848 11.9932 4.62732 12.0073C4.53617 12.0214 4.45062 12.0601 4.37997 12.1193L4.26778 12.236C4.00607 12.4897 3.65562 12.6316 3.29082 12.6316C2.92601 12.6316 2.57557 12.4897 2.31386 12.236L1.72955 11.6667C1.4754 11.4054 1.33324 11.0555 1.33324 10.6913C1.33324 10.3271 1.4754 9.97727 1.72955 9.716L1.84641 9.604C1.90762 9.54002 1.94934 9.45998 1.96672 9.37322C1.9841 9.28647 1.97642 9.19656 1.94457 9.114C1.91352 9.02514 1.85628 8.94773 1.78037 8.89193C1.70445 8.83613 1.61341 8.80455 1.5192 8.80133H1.40234C1.03443 8.80138 0.681235 8.65709 0.418908 8.39957C0.15658 8.14204 0.00613185 7.79191 1.35333e-08 7.42467V6.622C-5.1064e-05 6.2547 0.144482 5.9021 0.402438 5.64021C0.660393 5.37832 1.01111 5.22812 1.37896 5.222H1.5192C1.6115 5.21859 1.70071 5.18796 1.77559 5.13397C1.85046 5.07998 1.90764 5.00506 1.9399 4.91867C1.98115 4.83374 1.99564 4.73833 1.98145 4.64502C1.96726 4.5517 1.92507 4.46488 1.86043 4.396L1.74357 4.284C1.48942 4.02273 1.34727 3.67286 1.34727 3.30867C1.34727 2.94447 1.48942 2.59461 1.74357 2.33333L2.31386 1.764C2.57374 1.50839 2.92317 1.36395 3.28797 1.36134C3.65278 1.35872 4.00425 1.49814 4.26778 1.75L4.37997 1.86667C4.44976 1.91944 4.5321 1.95318 4.6189 1.96459C4.7057 1.97599 4.79398 1.96466 4.87507 1.93172C4.95616 1.89877 5.02728 1.84533 5.08143 1.77666C5.13559 1.70798 5.17093 1.62643 5.18397 1.54V1.4C5.18397 1.0287 5.33172 0.672601 5.59471 0.410051C5.8577 0.1475 6.21439 0 6.58631 0H7.39032C7.75817 0.00612159 8.10889 0.156319 8.36685 0.41821C8.6248 0.6801 8.76933 1.0327 8.76928 1.4V1.526C8.7727 1.61814 8.80338 1.70721 8.85746 1.78196C8.91154 1.85671 8.98658 1.91379 9.07312 1.946C9.15819 1.98718 9.25376 2.00164 9.34723 1.98748C9.4407 1.97332 9.52767 1.93119 9.59666 1.86667L9.70885 1.764C9.97056 1.51028 10.321 1.36835 10.6858 1.36835C11.0506 1.36835 11.4011 1.51028 11.6628 1.764L12.2331 2.33333C12.4872 2.59461 12.6294 2.94447 12.6294 3.30867C12.6294 3.67286 12.4872 4.02273 12.2331 4.284L12.1162 4.396C12.0527 4.46357 12.0108 4.54846 11.9958 4.63988C11.9809 4.73129 11.9935 4.82509 12.0321 4.90933C12.0631 4.99819 12.1203 5.0756 12.1963 5.1314C12.2722 5.1872 12.3632 5.21878 12.4574 5.222ZM12.9288 7.70854C13.0108 7.62659 13.0594 7.51709 13.0651 7.40133V6.61733C13.0653 6.4975 13.0192 6.38221 12.9366 6.29533C12.8539 6.20846 12.7409 6.15666 12.621 6.15067H12.4574C12.1802 6.14354 11.9109 6.05635 11.6822 5.89964C11.4536 5.74294 11.2753 5.52343 11.1689 5.26769C11.0626 5.01194 11.0328 4.73091 11.0831 4.4586C11.1334 4.1863 11.2617 3.93438 11.4524 3.73333L11.5693 3.62133C11.6108 3.58051 11.6438 3.53184 11.6664 3.47816C11.6889 3.42448 11.7005 3.36687 11.7005 3.30867C11.7005 3.25047 11.6889 3.19285 11.6664 3.13917C11.6438 3.08549 11.6108 3.03682 11.5693 2.996L11.0037 2.42667C10.9178 2.34927 10.8062 2.30644 10.6905 2.30644C10.5748 2.30644 10.4632 2.34927 10.3773 2.42667L10.2604 2.54333C10.0584 2.72784 9.80771 2.8508 9.53796 2.89768C9.2682 2.94457 8.99064 2.91343 8.73804 2.80795C8.48543 2.70246 8.26833 2.52703 8.11235 2.30236C7.95637 2.07769 7.86804 1.81316 7.85776 1.54V1.4C7.85791 1.28017 7.81189 1.16488 7.72922 1.078C7.64655 0.991124 7.53357 0.939325 7.41369 0.933333H6.60968C6.48571 0.933333 6.36681 0.9825 6.27915 1.07002C6.19149 1.15753 6.14224 1.27623 6.14224 1.4V1.54C6.13592 1.81773 6.04885 2.08764 5.89164 2.31687C5.73443 2.54609 5.51386 2.72473 5.25677 2.83106C4.99969 2.93738 4.71719 2.96679 4.44366 2.9157C4.17014 2.86462 3.91739 2.73524 3.71619 2.54333L3.60401 2.42667C3.51811 2.34927 3.40652 2.30644 3.29082 2.30644C3.17511 2.30644 3.06352 2.34927 2.97763 2.42667L2.40735 2.996C2.36579 3.03682 2.33279 3.08549 2.31027 3.13917C2.28774 3.19285 2.27614 3.25047 2.27614 3.30867C2.27614 3.36687 2.28774 3.42448 2.31027 3.47816C2.33279 3.53184 2.36579 3.58051 2.40735 3.62133L2.52421 3.73333C2.71351 3.92962 2.84132 4.1768 2.89197 4.44454C2.94262 4.71229 2.91391 4.98897 2.80935 5.24067C2.70779 5.5007 2.5307 5.72449 2.30082 5.88332C2.07093 6.04214 1.79874 6.12874 1.5192 6.132H1.37896C1.25499 6.132 1.13609 6.18117 1.04843 6.26868C0.960768 6.3562 0.911519 6.4749 0.911519 6.59867V7.40133C0.917521 7.52101 0.969406 7.6338 1.05643 7.71633C1.14345 7.79887 1.25894 7.84482 1.37896 7.84467H1.5192C1.7974 7.85098 2.06776 7.9379 2.29736 8.09484C2.52697 8.25179 2.70591 8.472 2.81241 8.72866C2.91891 8.98531 2.94837 9.26734 2.8972 9.54041C2.84603 9.81348 2.71644 10.0658 2.52421 10.2667L2.40735 10.3787C2.36579 10.4195 2.33279 10.4682 2.31027 10.5218C2.28774 10.5755 2.27614 10.6331 2.27614 10.6913C2.27614 10.7495 2.28774 10.8072 2.31027 10.8608C2.33279 10.9145 2.36579 10.9632 2.40735 11.004L2.97295 11.5733C3.05885 11.6507 3.17044 11.6936 3.28614 11.6936C3.40185 11.6936 3.51344 11.6507 3.59933 11.5733L3.71619 11.4567C3.97001 11.2052 4.31224 11.0629 4.66978 11.06C4.86076 11.0606 5.04976 11.0987 5.22604 11.172C5.48651 11.2734 5.71068 11.4502 5.86976 11.6797C6.02885 11.9092 6.1156 12.1809 6.11886 12.46V12.6233C6.12487 12.743 6.17675 12.8558 6.26377 12.9383C6.35079 13.0209 6.46628 13.0668 6.58631 13.0667H7.39499C7.51094 13.061 7.62063 13.0125 7.70271 12.9305C7.78479 12.8486 7.8334 12.7391 7.83907 12.6233V12.46C7.8462 12.1832 7.93354 11.9144 8.09051 11.6861C8.24748 11.4578 8.46735 11.2798 8.72352 11.1737C8.97969 11.0675 9.26119 11.0377 9.53395 11.088C9.80671 11.1382 10.0591 11.2663 10.2604 11.4567L10.3726 11.5733C10.4585 11.6507 10.5701 11.6936 10.6858 11.6936C10.8015 11.6936 10.9131 11.6507 10.999 11.5733L11.5693 11.0087C11.6108 10.9678 11.6438 10.9192 11.6664 10.8655C11.6889 10.8118 11.7005 10.7542 11.7005 10.696C11.7005 10.6378 11.6889 10.5802 11.6664 10.5265C11.6438 10.4728 11.6108 10.4242 11.5693 10.3833L11.4524 10.2667C11.2602 10.0658 11.1306 9.81348 11.0794 9.54041C11.0283 9.26734 11.0577 8.98531 11.1642 8.72866C11.2707 8.472 11.4497 8.25179 11.6793 8.09484C11.9089 7.9379 12.1792 7.85098 12.4574 7.84467H12.621C12.737 7.83901 12.8467 7.79049 12.9288 7.70854ZM8 7C8 7.55228 7.55228 8 7 8C6.44772 8 6 7.55228 6 7C6 6.44772 6.44772 6 7 6C7.55228 6 8 6.44772 8 7ZM9 7C9 8.10457 8.10457 9 7 9C5.89543 9 5 8.10457 5 7C5 5.89543 5.89543 5 7 5C8.10457 5 9 5.89543 9 7Z"
          fill="#333333"/>
</svg>
