<svg width="12" height="12" viewBox="0 0 12 12" fill="none" xmlns="http://www.w3.org/2000/svg">
<path fill-rule="evenodd" clip-rule="evenodd" d="M6.163 0.0587664L11.9111 4.77919C12.0889 4.92578 11.9704 5.21898 11.7334 5.21898H10.4V10.9363C10.4 11.0829 10.2815 11.2001 10.1334 11.2001H7.34819C7.20004 11.2001 7.08152 11.0829 7.08152 10.9363V7.62317C7.08152 7.47657 6.99263 7.35929 6.84448 7.35929H5.15559C5.00744 7.35929 4.88893 7.47657 4.88893 7.62317V10.9363C4.88893 11.0829 4.80004 11.2001 4.65189 11.2001H1.8667C1.71856 11.2001 1.60004 11.0829 1.60004 10.9363V5.21898H0.237075C0.029668 5.21898 -0.0888505 4.92578 0.0889272 4.77919L5.83707 0.0587664C5.92596 -0.0291917 6.07411 -0.0291917 6.163 0.0587664Z" fill="#949CAD"/>
</svg>
