<svg xmlns="http://www.w3.org/2000/svg" viewBox="0 0 14 11"><path d="M12 8L9.2 5.2a.6.6 0 0 0-.8 0l-1 1L6 4a.6.6 0 0 0-.5-.3c-.2 0-.4 0-.5.2L2 8c-.2.3-.2.5 0 .7 0 .2.2.4.4.4h9.1c.2 0 .5-.2.5-.4V8zM12.1 3.1c0 .7-.5 1.2-1.1 1.2-.6 0-1.2-.5-1.2-1.2 0-.6.6-1.1 1.2-1.1S12 2.5 12 3zM.4 3.3A.4.4 0 0 1 0 3V.5C0 .2.2 0 .4 0h2.4c.2 0 .4.2.4.5 0 .2-.2.4-.4.4h-2v2c0 .2-.1.4-.4.4zM13.6 3.3A.4.4 0 0 1 13 3v-2h-1.9a.4.4 0 0 1-.4-.4c0-.3.2-.5.4-.5h2.4c.2 0 .4.2.4.5v2.4c0 .2-.2.4-.4.4zM2.8 10.9H.4a.4.4 0 0 1-.4-.5V8c0-.2.2-.4.4-.4.3 0 .5.2.5.4v2h1.9c.2 0 .4.2.4.4 0 .3-.2.5-.4.5zM13.6 10.9h-2.4a.4.4 0 0 1-.4-.5c0-.2.2-.4.4-.4h2V8c0-.2.1-.4.4-.4.2 0 .4.2.4.4v2.4c0 .3-.2.5-.4.5z" clip-rule="evenodd"/></svg>