<svg xmlns="http://www.w3.org/2000/svg" viewBox="0 0 12 12"><path d="M6 0a42.6 42.6 0 0 0-4 .3A3 3 0 0 0 1 1a3 3 0 0 0-.7 1L0 3.6A42.6 42.6 0 0 0 .3 10c.2.4.4.8.7 1 .3.4.7.6 1 .8l1.5.3a42.6 42.6 0 0 0 6.4-.3 3 3 0 0 0 1-.7c.4-.3.6-.7.8-1l.3-1.5a42.6 42.6 0 0 0-.3-6.4 3 3 0 0 0-.7-1 3 3 0 0 0-1-.8L8.4 0H6zm0 1a41.6 41.6 0 0 1 3.5.3l.7.5.5.7.2 1a41.6 41.6 0 0 1-.2 6l-.5.7-.7.5-1 .2a41.6 41.6 0 0 1-6-.2l-.7-.5-.5-.7-.2-1a41.6 41.6 0 0 1 .2-6l.5-.7.7-.5 1-.2H6zm0 2a3 3 0 1 0 0 6 3 3 0 0 0 0-6zm0 5a2 2 0 1 1 0-4 2 2 0 0 1 0 4zm4-5.2a.7.7 0 1 1-1.5 0 .7.7 0 0 1 1.4 0z" clip-rule="evenodd"/></svg>