<svg width="20" height="20" viewBox="0 0 20 20" fill="none" xmlns="http://www.w3.org/2000/svg">
<path d="M11.3921 17.3926L8.61426 14.6115L14.5814 8.5835L17.4104 11.4119L11.3921 17.3926Z" fill="#8AB4F8"/>
<path d="M11.4123 5.41499L8.58393 2.58594L2.58636 8.58351C1.80509 9.36414 1.80444 10.6293 2.58507 11.4106C2.58572 11.4113 2.58636 11.4119 2.58636 11.4119L8.58393 17.4095L11.3586 14.6219L6.82638 10.0016L11.4123 5.41499Z" fill="#4285F4"/>
<path d="M17.4097 8.58353L11.4121 2.58596C10.6308 1.80468 9.36431 1.80468 8.58303 2.58596C7.80175 3.36724 7.80175 4.63374 8.58303 5.41437L14.5839 11.4119C15.3652 12.1932 16.6317 12.1932 17.4123 11.4119C18.1936 10.6307 18.1936 9.36416 17.4123 8.58353H17.4097Z" fill="#8AB4F8"/>
<path d="M9.97597 18.0009C11.0708 18.0009 11.9583 17.1134 11.9583 16.0185C11.9583 14.9237 11.0708 14.0361 9.97597 14.0361C8.88117 14.0361 7.99365 14.9237 7.99365 16.0185C7.99365 17.1134 8.88117 18.0009 9.97597 18.0009Z" fill="#246FDB"/>
</svg>
