<svg xmlns="http://www.w3.org/2000/svg" viewBox="0 0 67 20"><path d="M11.66 5.12v10.44H7.94v-1.42c-.3.5-.75.89-1.34 1.17-.58.28-1.22.41-1.92.41-.9 0-1.71-.21-2.42-.65A4.5 4.5 0 0 1 .59 13.2 6.55 6.55 0 0 1 0 10.36c0-1.08.2-2.04.6-2.88.41-.83.97-1.48 1.68-1.95.7-.47 1.5-.7 2.4-.7a4 4 0 0 1 3.26 1.62V5.12h3.72zm-5.81 7.83c.67 0 1.18-.23 1.55-.68.36-.45.54-1.1.54-1.95a3.1 3.1 0 0 0-.54-1.97c-.37-.47-.88-.7-1.55-.7-.65 0-1.17.24-1.55.72a3.1 3.1 0 0 0-.56 1.99c0 .84.18 1.48.54 1.93.37.44.89.66 1.57.66zM14.53 15.56V5.12h3.79v10.44h-3.79zM14.43 0h3.95v3.35h-3.95V0zM27.9 4.87c.52 0 .92.08 1.2.23v3.39a4.16 4.16 0 0 0-1.74-.41c-1.58 0-2.38.74-2.38 2.24v5.24H21.2V8.12c0-1.12-.06-2.12-.17-3h3.55l.23 1.75c.26-.65.66-1.14 1.22-1.48a3.52 3.52 0 0 1 1.88-.52zM38.2 12.72c.25 0 .58-.04 1-.12v2.82c-.52.2-1.17.3-1.97.3-1.43 0-2.52-.4-3.28-1.19-.73-.8-1.1-1.9-1.1-3.3V7.84h-1.99V5.12h1.99V2.75l3.78-1.19v3.56h2.55v2.73h-2.55v3.37c0 .5.14.87.44 1.13.3.25.68.37 1.13.37zM52.42 5.12v10.44h-3.71v-1.42c-.31.5-.76.89-1.34 1.17-.59.28-1.23.41-1.92.41-.9 0-1.72-.21-2.43-.65a4.5 4.5 0 0 1-1.67-1.87 6.55 6.55 0 0 1-.58-2.84c0-1.08.2-2.04.6-2.88.4-.83.96-1.48 1.67-1.95s1.51-.7 2.4-.7a4 4 0 0 1 3.27 1.62V5.12h3.71zm-5.8 7.83c.66 0 1.18-.23 1.54-.68.36-.45.55-1.1.55-1.95a3.1 3.1 0 0 0-.55-1.97c-.36-.47-.88-.7-1.54-.7s-1.17.24-1.55.72a3.1 3.1 0 0 0-.56 1.99c0 .84.18 1.48.54 1.93.36.44.88.66 1.57.66zM62.3 4.83c.9 0 1.71.23 2.42.7a4.74 4.74 0 0 1 1.67 1.95c.4.84.61 1.8.61 2.88 0 1.07-.2 2.01-.6 2.84a4.37 4.37 0 0 1-4.1 2.52c-.7 0-1.33-.13-1.9-.39a3.11 3.11 0 0 1-1.32-1.13V20H55.3V8.12c0-1.12-.06-2.12-.17-3h3.55l.21 1.62a3 3 0 0 1 1.32-1.38c.61-.35 1.3-.53 2.09-.53zm-1.15 8.12c.68 0 1.2-.22 1.55-.66.34-.44.52-1.08.52-1.93 0-.86-.18-1.53-.55-2a1.77 1.77 0 0 0-1.52-.71c-.68 0-1.2.22-1.57.67-.36.46-.54 1.12-.54 2 0 .85.18 1.5.54 1.95.36.45.89.68 1.57.68z"/></svg>