<svg width="6" height="5" viewBox="0 0 6 5" fill="none" xmlns="http://www.w3.org/2000/svg">
<path d="M5.95456 2.26111C5.92395 2.18485 5.88016 2.11547 5.82435 2.05734L4.02472 0.182825C3.7901 -0.0609417 3.41084 -0.0609417 3.17622 0.182825C2.9416 0.427207 2.9416 0.822859 3.17622 1.06663L3.95212 1.87481H0.600066C0.268234 1.87481 0 2.15482 0 2.49984C0 2.84486 0.268234 3.12487 0.600066 3.12487H3.95209L3.17619 3.93305C2.94157 4.17743 2.94157 4.57309 3.17619 4.81685C3.2932 4.93935 3.44681 5 3.60045 5C3.75409 5 3.9077 4.93938 4.02472 4.81685L5.82435 2.94234C5.88016 2.88483 5.92395 2.81545 5.95456 2.73857C6.01515 2.58612 6.01515 2.41361 5.95456 2.26111Z" fill="white"/>
</svg>
