<svg width="11" height="11" viewBox="0 0 11 11" fill="none" xmlns="http://www.w3.org/2000/svg">
<path d="M9.99267 5.6929C9.99267 6.04106 9.99267 6.38796 9.99267 6.73611C9.99267 7.26149 9.99267 7.78686 9.99267 8.31224C9.99267 8.48694 9.9977 8.66165 9.97508 8.8351C9.98136 8.79111 9.98765 8.74586 9.99267 8.70187C9.96879 8.87029 9.9248 9.03243 9.85945 9.18954C9.87579 9.14932 9.89338 9.1091 9.90972 9.06888C9.84436 9.22096 9.76141 9.36424 9.66086 9.49496C9.68725 9.46102 9.71365 9.42709 9.74004 9.39315C9.63949 9.52261 9.5226 9.6395 9.39315 9.74005C9.42708 9.71366 9.46102 9.68726 9.49496 9.66087C9.36298 9.76142 9.22096 9.84563 9.06888 9.90973C9.10909 9.89339 9.14931 9.87579 9.18953 9.85945C9.03368 9.92481 8.87029 9.9688 8.70187 9.99268C8.74586 9.9864 8.79111 9.98011 8.8351 9.97509C8.57241 10.009 8.29841 9.99268 8.03447 9.99268C7.53298 9.99268 7.03275 9.99268 6.53125 9.99268C5.91664 9.99268 5.30078 9.99268 4.68617 9.99268C4.16205 9.99268 3.63668 9.99268 3.11257 9.99268C2.88382 9.99268 2.65507 9.99394 2.42757 9.99268C2.33959 9.99268 2.25287 9.9864 2.16615 9.97509C2.21014 9.98137 2.25538 9.98765 2.29937 9.99268C2.13095 9.9688 1.96882 9.92481 1.81171 9.85945C1.85193 9.87579 1.89215 9.89339 1.93237 9.90973C1.78029 9.84437 1.637 9.76142 1.50629 9.66087C1.54022 9.68726 1.57416 9.71366 1.6081 9.74005C1.47864 9.6395 1.36175 9.52261 1.2612 9.39315C1.28759 9.42709 1.31399 9.46102 1.34038 9.49496C1.23983 9.36299 1.15562 9.22096 1.09152 9.06888C1.10786 9.1091 1.12546 9.14932 1.1418 9.18954C1.07644 9.03368 1.03245 8.87029 1.00857 8.70187C1.01485 8.74586 1.02114 8.79111 1.02616 8.8351C0.992229 8.57241 1.00857 8.29841 1.00857 8.03447C1.00857 7.53297 1.00857 7.03273 1.00857 6.53124C1.00857 5.91663 1.00857 5.30076 1.00857 4.68614C1.00857 4.16203 1.00857 3.63665 1.00857 3.11253C1.00857 2.88378 1.00731 2.65503 1.00857 2.42753C1.00857 2.33955 1.01485 2.25283 1.02616 2.1661C1.01988 2.21009 1.0136 2.25534 1.00857 2.29933C1.03245 2.13091 1.07644 1.96877 1.1418 1.81166C1.12546 1.85188 1.10786 1.8921 1.09152 1.93232C1.15688 1.78024 1.23983 1.63696 1.34038 1.50624C1.31399 1.54018 1.28759 1.57411 1.2612 1.60805C1.36175 1.47859 1.47864 1.3617 1.6081 1.26115C1.57416 1.28755 1.54022 1.31394 1.50629 1.34033C1.63826 1.23978 1.78029 1.15557 1.93237 1.09147C1.89215 1.10781 1.85193 1.12541 1.81171 1.14175C1.96756 1.07639 2.13095 1.0324 2.29937 1.00852C2.25538 1.0148 2.21014 1.02109 2.16615 1.02611C2.31823 1.006 2.47156 1.00852 2.6249 1.00852C2.84737 1.00852 3.06983 1.00852 3.2923 1.00852C3.83527 1.00852 4.37949 1.00852 4.92246 1.00852C5.05066 1.00852 5.18012 1.00852 5.30832 1.00852C5.57101 1.00852 5.82364 0.777253 5.81107 0.505767C5.7985 0.233025 5.58986 0.00301601 5.30832 0.00301601C4.99033 0.00301601 4.67234 0.00301601 4.35561 0.00301601C3.84155 0.00301601 3.32749 0.00301601 2.81343 0.00301601C2.689 0.00301601 2.56332 0.00301601 2.43889 0.00301601C2.04926 0.00301601 1.67597 0.096025 1.32781 0.26696C0.517132 0.66162 0.00432922 1.53138 0.000558609 2.42502C-0.000698261 2.60098 0.000558609 2.77695 0.000558609 2.95417C0.000558609 3.38653 0.000558609 3.8189 0.000558609 4.25126C0.000558609 4.79549 0.000558609 5.33846 0.000558609 5.88269C0.000558609 6.39298 0.000558609 6.90328 0.000558609 7.41357C0.000558609 7.74538 0.000558609 8.07846 0.000558609 8.41027C0.000558609 8.46432 0.000558609 8.51836 0.000558609 8.57367C0.00181548 8.99598 0.11242 9.41703 0.323574 9.78404C0.752167 10.5306 1.56913 10.9957 2.42757 10.9994C2.62239 11.0007 2.8172 10.9994 3.01202 10.9994C3.45444 10.9994 3.89686 10.9994 4.33927 10.9994C4.88476 10.9994 5.43024 10.9994 5.97572 10.9994C6.47972 10.9994 6.98373 10.9994 7.48773 10.9994C7.80572 10.9994 8.12371 10.9994 8.4417 10.9994C8.497 10.9994 8.55356 11.0007 8.60886 10.9994C9.05756 10.9906 9.51381 10.8612 9.88835 10.6123C10.2528 10.371 10.5671 10.0367 10.7518 9.63824C10.9102 9.29637 10.9982 8.93816 10.9982 8.55984C10.9982 8.18655 10.9982 7.81451 10.9982 7.44122C10.9982 6.94601 10.9982 6.45206 10.9982 5.95685C10.9982 5.86887 10.9982 5.78214 10.9982 5.69416C10.9982 5.43147 10.7669 5.17884 10.4954 5.19141C10.2227 5.20272 9.99267 5.41136 9.99267 5.6929Z" fill="#949CAD"/>
<path d="M7.70524 1.00595C8.01945 1.00595 8.33492 1.00595 8.64914 1.00595C9.15062 1.00595 9.65085 1.00595 10.1523 1.00595C10.2667 1.00595 10.3811 1.00595 10.4955 1.00595C10.7581 1.00595 11.0108 0.774682 10.9982 0.503198C10.9856 0.230457 10.777 0.000450221 10.4955 0.000450221C10.1812 0.000450221 9.86578 0.000450221 9.55156 0.000450221C9.05008 0.000450221 8.54985 0.000450221 8.04836 0.000450221C7.93398 0.000450221 7.81961 0.000450221 7.70524 0.000450221C7.44255 0.000450221 7.18992 0.231714 7.20249 0.503198C7.21506 0.775939 7.4237 1.00595 7.70524 1.00595Z" fill="#949CAD"/>
<path d="M10.9982 3.29356C10.9982 2.97934 10.9982 2.66386 10.9982 2.34964C10.9982 1.84814 10.9982 1.34791 10.9982 0.84641C10.9982 0.732033 10.9982 0.617575 10.9982 0.503198C10.9982 0.24051 10.7669 -0.0121186 10.4955 0.000450221C10.2227 0.013019 9.99267 0.221739 9.99267 0.503281C9.99267 0.817501 9.99267 1.13298 9.99267 1.4472C9.99267 1.9487 9.99267 2.44893 9.99267 2.95043C9.99267 3.06481 9.99267 3.17918 9.99267 3.29356C9.99267 3.55625 10.2239 3.80888 10.4954 3.79631C10.7682 3.78374 10.9982 3.5751 10.9982 3.29356Z" fill="#949CAD"/>
<path d="M5.86514 5.84485C6.03105 5.67895 6.19821 5.51178 6.36412 5.34588C6.76003 4.94997 7.1572 4.5528 7.55311 4.15689C8.03197 3.67802 8.51084 3.19916 8.99096 2.71904C9.40698 2.30301 9.82175 1.88825 10.2378 1.47223C10.4389 1.27113 10.6437 1.07129 10.8423 0.867677C10.8448 0.865163 10.8473 0.862649 10.8511 0.858879C11.0371 0.672863 11.051 0.330996 10.8511 0.147494C10.65 -0.0372643 10.3383 -0.0510898 10.1397 0.147494C9.97383 0.3134 9.80667 0.480563 9.64076 0.646469C9.24485 1.04238 8.84768 1.43955 8.45177 1.83546C7.9729 2.31433 7.49404 2.79319 7.01392 3.27331C6.59789 3.68933 6.18313 4.1041 5.76711 4.52012C5.56601 4.72122 5.36114 4.92106 5.16256 5.12467C5.16004 5.12718 5.15753 5.1297 5.15376 5.13347C4.96774 5.31948 4.95392 5.66135 5.15376 5.84485C5.35486 6.02836 5.66656 6.04344 5.86514 5.84485Z" fill="#949CAD"/>
</svg>
