<svg width="9" height="12" viewBox="0 0 9 12" fill="none" xmlns="http://www.w3.org/2000/svg">
<path fill-rule="evenodd" clip-rule="evenodd" d="M7.04221 1.95571L2.79988 6.20303C2.60489 6.39802 2.28741 6.39802 2.09241 6.20303C1.89742 6.00804 1.89742 5.69055 2.09241 5.49556L6.33474 1.24824C6.52973 1.05324 6.84721 1.05324 7.04221 1.24824C7.1397 1.34573 7.1897 1.47323 7.1897 1.60072C7.1897 1.73072 7.1397 1.85821 7.04221 1.95571ZM8.63485 1.42557L7.57239 0.36561C7.08491 -0.12187 6.29245 -0.12187 5.80497 0.36561L1.25016 4.92792C1.10766 5.06791 1.00267 5.24291 0.94017 5.4354L0.0252086 8.35028C-0.0972863 8.73526 0.265199 9.09774 0.650182 8.97775L3.57006 8.06029C3.76005 8.00029 3.93504 7.89529 4.07754 7.7528L8.63485 3.19049C9.12233 2.70301 9.12233 1.91304 8.63485 1.42557Z" fill="black"/>
<path fill-rule="evenodd" clip-rule="evenodd" d="M8.37465 11.9999H0.624974C0.279738 11.9999 0 11.7202 0 11.3749C0 11.0297 0.279738 10.75 0.624974 10.75H8.37465C8.71988 10.75 8.99962 11.0297 8.99962 11.3749C8.99962 11.7202 8.71988 11.9999 8.37465 11.9999Z" fill="black"/>
</svg>
