<svg width="6" height="10" viewBox="0 0 6 10" fill="none" xmlns="http://www.w3.org/2000/svg">
<path d="M0.874778 4.99854C0.874517 4.84791 0.932796 4.70574 1.03896 4.59949L1.039 4.59945L4.59906 1.03945M0.874778 4.99854C0.874516 5.14876 0.932836 5.29097 1.03893 5.39723L1.039 5.3973L4.60238 8.96055C4.60239 8.96056 4.60241 8.96057 4.60242 8.96059C4.70836 9.06659 4.85013 9.125 5.00027 9.125C5.15043 9.125 5.29212 9.06657 5.39809 8.96061C5.3981 8.9606 5.39811 8.96059 5.39811 8.96058L5.66027 8.69856L5.66036 8.69847C5.76617 8.59249 5.82471 8.45084 5.82471 8.30056C5.82471 8.15039 5.76616 8.00873 5.66033 7.90281L5.66029 7.90277L2.75586 4.99834L5.65696 2.09724C5.87643 1.87785 5.87634 1.52114 5.65702 1.30158L5.65696 1.30152L5.39483 1.03945C5.39482 1.03944 5.3948 1.03942 5.39479 1.0394C5.28885 0.933407 5.14707 0.875 4.99695 0.875C4.8468 0.875 4.70501 0.933424 4.59906 1.03945M0.874778 4.99854C0.874778 4.99863 0.874778 4.99872 0.874778 4.99881L0.999778 4.99854M0.874778 4.99854C0.874778 4.99844 0.874778 4.99835 0.874778 4.99826L0.999778 4.99854M4.59906 1.03945L4.68749 1.1278M4.59906 1.03945L4.5991 1.03941L4.68749 1.1278M4.68749 1.1278L1.12739 4.68784M4.68749 1.1278C4.76983 1.0454 4.87975 1 4.99695 1C5.11415 1 5.22407 1.0454 5.30641 1.1278L1.12739 4.68784M1.12739 4.68784C1.04485 4.77044 0.999518 4.88075 0.999778 4.99854M1.12739 4.68784V5.30891C1.04485 5.22624 0.999518 5.11587 0.999778 4.99854" fill="#BDBDBD" stroke="#BDBDBD" stroke-width="0.25"/>
</svg>
