<svg width="11" height="14" viewBox="0 0 11 14" fill="none" xmlns="http://www.w3.org/2000/svg">
<path fill-rule="evenodd" clip-rule="evenodd" d="M9.77774 12.833H1.83329C1.49626 12.833 1.22218 12.5717 1.22218 12.2497V3.20801H2.74996V6.17951C2.74996 6.4073 2.88899 6.61438 3.10562 6.70947C3.32287 6.80484 3.5774 6.77072 3.7589 6.62255L4.43051 6.07276L5.10212 6.62255C5.21518 6.71472 5.35696 6.76284 5.49996 6.76284C5.58674 6.76284 5.67351 6.74534 5.7554 6.70947C5.97204 6.61438 6.11107 6.4073 6.11107 6.17951V3.20801H9.77774V12.833ZM1.22218 1.75033C1.22218 1.42862 1.49626 1.16699 1.83329 1.16699H8.55551V2.04199H1.22218V1.75033ZM10.3889 2.04167H9.77778V0.583333C9.77778 0.261333 9.504 0 9.16667 0H1.83333C0.82225 0 0 0.785167 0 1.75V12.25C0 13.2151 0.82225 14 1.83333 14H10.3889C10.7262 14 11 13.739 11 13.4167V2.625C11 2.303 10.7262 2.04167 10.3889 2.04167Z" fill="#333333"/>
</svg>
