<svg width="12" height="12" viewBox="0 0 12 12" fill="none" xmlns="http://www.w3.org/2000/svg">
<path d="M11.8724 3.55656C11.9783 3.68894 12.018 3.8478 11.9916 4.03314L11.4885 6.91914C11.4709 7.06922 11.4024 7.19274 11.2833 7.28982C11.1642 7.3869 11.0296 7.43544 10.8796 7.43544H3.54545L3.39983 8.25623H10.3898C10.5574 8.25623 10.703 8.3158 10.8266 8.43494C10.9502 8.55409 11.0119 8.70192 11.0119 8.87843C11.0119 9.05494 10.9502 9.20277 10.8266 9.32192C10.703 9.44107 10.5574 9.50064 10.3898 9.50064H2.65848C2.47314 9.50064 2.31428 9.42562 2.18189 9.27565C2.05834 9.12557 2.00979 8.95345 2.03627 8.75935L2.36723 6.95892L1.86417 1.90179L0.434419 1.45169C0.266732 1.39873 0.14538 1.29722 0.0703619 1.1472C-0.00465594 0.997144 -0.0201008 0.838305 0.0240274 0.670618C0.0769811 0.502931 0.180682 0.381578 0.335131 0.30656C0.489579 0.231542 0.646234 0.216098 0.805096 0.260226L2.632 0.842717C2.74673 0.87802 2.84161 0.944212 2.91663 1.04129C2.99165 1.13838 3.03798 1.24872 3.05563 1.37228L3.16154 2.3784L11.4488 3.30509C11.6341 3.3315 11.7754 3.41535 11.8724 3.55656ZM3.59843 9.84484C3.8632 9.84484 4.08825 9.93751 4.27359 10.1229C4.45893 10.3082 4.5516 10.5333 4.5516 10.798C4.5516 11.0628 4.45893 11.2901 4.27359 11.4798C4.08825 11.6696 3.8632 11.7645 3.59843 11.7645C3.33366 11.7645 3.10861 11.6696 2.92327 11.4798C2.73793 11.2901 2.64526 11.0628 2.64526 10.798C2.64526 10.5333 2.73793 10.3082 2.92327 10.1229C3.10859 9.93751 3.33364 9.84484 3.59843 9.84484ZM9.25122 9.84484C9.51595 9.84484 9.74107 9.93751 9.92641 10.1229C10.1117 10.3082 10.2044 10.5333 10.2044 10.798C10.2044 11.0628 10.1117 11.2901 9.92641 11.4798C9.74107 11.6696 9.51595 11.7645 9.25122 11.7645C8.98645 11.7645 8.76136 11.6696 8.57608 11.4798C8.39075 11.2901 8.29801 11.0628 8.29801 10.798C8.29801 10.5333 8.3907 10.3082 8.57608 10.1229C8.7614 9.93751 8.98645 9.84484 9.25122 9.84484Z" fill="white"/>
</svg>
