<svg width="14" height="11" viewBox="0 0 14 11" fill="none" xmlns="http://www.w3.org/2000/svg">
<path fill-rule="evenodd" clip-rule="evenodd" d="M11.9237 8.11756L9.27588 5.2558C9.05234 5.01441 8.68491 5.00739 8.45319 5.2393L7.43614 6.25708L6.05575 4.12588C5.95185 3.96547 5.78171 3.86616 5.59669 3.85822C5.40933 3.85272 5.23423 3.93461 5.11807 4.08585L1.98607 8.15973C1.84541 8.34305 1.81739 8.59452 1.91428 8.80688C2.01146 9.01893 2.21604 9.15398 2.44076 9.15398H11.5044C11.7387 9.15398 11.9506 9.00731 12.0419 8.78121C12.1333 8.55541 12.0866 8.29386 11.9237 8.11756Z" fill="#333333"/>
<path fill-rule="evenodd" clip-rule="evenodd" d="M12.1032 3.1683C12.1032 3.82095 11.5977 4.35046 10.9741 4.35046C10.3507 4.35046 9.84497 3.82095 9.84497 3.1683C9.84497 2.51534 10.3507 1.98583 10.9741 1.98583C11.5977 1.98583 12.1032 2.51534 12.1032 3.1683Z" fill="#333333"/>
<path fill-rule="evenodd" clip-rule="evenodd" d="M0.437756 3.36103C0.195823 3.36103 0 3.15601 0 2.90271V0.458322C0 0.205328 0.195823 0 0.437756 0H2.77129C3.01322 0 3.20905 0.205328 3.20905 0.458322C3.20905 0.711621 3.01322 0.916644 2.77129 0.916644H0.875513V2.90271C0.875513 3.15601 0.679398 3.36103 0.437756 3.36103Z" fill="#333333"/>
<path fill-rule="evenodd" clip-rule="evenodd" d="M13.5623 3.36103C13.3207 3.36103 13.1245 3.15601 13.1245 2.90271V0.916644H11.2288C10.9871 0.916644 10.791 0.711621 10.791 0.458322C10.791 0.205328 10.9871 0 11.2288 0H13.5623C13.8042 0 14.0001 0.205328 14.0001 0.458322V2.90271C14.0001 3.15601 13.8042 3.36103 13.5623 3.36103Z" fill="#333333"/>
<path fill-rule="evenodd" clip-rule="evenodd" d="M2.77129 10.9998H0.437756C0.195823 10.9998 0 10.7947 0 10.5414V8.09705C0 7.84405 0.195823 7.63872 0.437756 7.63872C0.679398 7.63872 0.875513 7.84405 0.875513 8.09705V10.0831H2.77129C3.01322 10.0831 3.20905 10.2884 3.20905 10.5414C3.20905 10.7947 3.01322 10.9998 2.77129 10.9998Z" fill="#333333"/>
<path fill-rule="evenodd" clip-rule="evenodd" d="M13.5623 11H11.2288C10.9871 11 10.791 10.795 10.791 10.5417C10.791 10.2887 10.9871 10.0834 11.2288 10.0834H13.1245V8.09729C13.1245 7.8443 13.3207 7.63897 13.5623 7.63897C13.8042 7.63897 14.0001 7.8443 14.0001 8.09729V10.5417C14.0001 10.795 13.8042 11 13.5623 11Z" fill="#333333"/>
</svg>
