<svg width="15" height="14" viewBox="0 0 15 14" fill="none" xmlns="http://www.w3.org/2000/svg">
<path fill-rule="evenodd" clip-rule="evenodd" d="M7.49998 10.5949C7.60005 10.5949 7.6998 10.6184 7.79079 10.6651L10.9178 12.2718L10.3209 8.86902C10.2858 8.67101 10.3534 8.46842 10.5007 8.32816L13.0304 5.91847L9.53441 5.42192C9.33053 5.3929 9.15448 5.26792 9.06349 5.08763L7.49998 1.99194L5.93648 5.08763C5.84517 5.26792 5.66912 5.3929 5.46555 5.42192L1.96925 5.91847L4.49931 8.32816C4.64659 8.46842 4.71382 8.67101 4.67911 8.86902L4.08185 12.2718L7.20886 10.6651C7.30017 10.6184 7.39992 10.5949 7.49998 10.5949ZM11.7487 13.9998C11.649 13.9998 11.5492 13.9769 11.4576 13.9298L7.50007 11.8966L3.54253 13.9298C3.33177 14.038 3.0763 14.02 2.88367 13.8834C2.69105 13.7465 2.59474 13.5149 2.63508 13.2857L3.39087 8.97906L0.188818 5.92921C0.0183958 5.76695 -0.0428935 5.52403 0.0305912 5.3028C0.104389 5.08157 0.299826 4.92053 0.535603 4.88692L4.96032 4.25868L6.93909 0.340401C7.04447 0.132005 7.26211 0 7.50007 0C7.73804 0 7.95536 0.132005 8.06074 0.340401L10.0395 4.25868L14.4645 4.88692C14.7 4.92053 14.8958 5.08157 14.9696 5.3028C15.0427 5.52403 14.9817 5.76695 14.811 5.92921L11.6093 8.97906L12.3651 13.2857C12.4054 13.5149 12.3088 13.7465 12.1165 13.8834C12.0073 13.9607 11.8782 13.9998 11.7487 13.9998Z" fill="#DD936C"/>
</svg>
