<svg xmlns="http://www.w3.org/2000/svg" viewBox="0 0 15 14">
    <path d="M12.2 3.62A4.33 4.33 0 0 0 5.56.7c-.58.38-1.07.89-1.41 1.49A2.38 2.38 0 0 0 1.36 5 3.3 3.3 0 0 0 0 7.67c0 .86.32 1.69.9 2.35a3.2 3.2 0 0 0 2.22 1.11H5.8c.23 0 .41-.18.41-.41a.41.41 0 0 0-.41-.42H3.16C1.89 10.22.83 9.02.83 7.67c0-.87.47-1.69 1.23-2.13.17-.1.25-.31.18-.5a1.55 1.55 0 0 1 1.98-1.98c.2.07.43-.02.52-.22A3.52 3.52 0 0 1 7.92.83 3.5 3.5 0 0 1 11.42 4c.01.19.15.34.34.37 1.37.23 2.4 1.5 2.4 2.95a3 3 0 0 1-2.69 2.98H9.2a.41.41 0 0 0-.42.41c0 .23.19.42.42.42h2.32a3.84 3.84 0 0 0 .68-7.5z"/>
    <path d="M10 8.07a.42.42 0 0 0 0-.59l-2.2-2.2a.4.4 0 0 0-.59 0L5 7.47a.42.42 0 1 0 .3.71.4.4 0 0 0 .28-.12l1.5-1.5v6.88c0 .23.18.41.41.41.23 0 .42-.18.42-.41V6.57l1.5 1.5c.15.16.42.16.58 0z"/>
</svg>