<svg width="110" height="187" viewBox="0 0 110 187" fill="none" xmlns="http://www.w3.org/2000/svg">
<path d="M8.26004 29.4671C7.55674 42.2258 7.07684 56.2752 15.4916 66.8413C18.4899 70.7661 22.6374 73.6584 27.3566 75.1154C30.6084 76.0338 34.4724 75.6698 37.3766 77.5976C41.0421 80.0137 41.6047 85.0443 42.035 89.0324C42.2004 90.6045 44.6909 90.621 44.5172 89.0324C44.0207 84.4734 43.334 79.2442 39.5527 76.1496C36.9381 73.9984 33.6864 73.8494 30.4512 73.2702C27.4793 72.7741 24.6538 71.627 22.1771 69.911C9.38533 60.8094 9.96449 43.4338 10.7257 29.4919C10.8085 27.895 8.32622 27.9033 8.24348 29.4919L8.26004 29.4671Z" fill="black"/>
<path d="M59.1046 88.2131C57.877 81.8987 58.0238 75.3939 59.5349 69.1413C60.8256 63.9286 62.0171 59.6757 61.8434 54.2479C61.8434 52.651 59.3611 52.6427 59.3611 54.2479C59.5474 57.3205 59.2994 60.404 58.6247 63.4073C57.7973 66.5846 56.7713 69.5633 56.2914 72.8233C55.5374 78.1628 55.68 83.5907 56.7134 88.8833C57.003 90.4554 59.3942 89.7852 59.1046 88.2214V88.2131Z" fill="black"/>
<path d="M54.8024 37.253C55.8449 34.1998 58.5837 38.7175 58.9395 39.7352C59.3344 40.9496 59.6114 42.1993 59.7669 43.4668C60.1806 46.5944 58.9394 52.0057 54.488 50.2681C52.9986 49.6807 52.3533 52.0802 53.8261 52.6593C55.0666 53.1097 56.4207 53.1407 57.6806 52.7476C58.9405 52.3546 60.0367 51.5591 60.8011 50.4833C62.9193 47.7611 62.5387 44.0956 61.8188 40.9432C61.2479 38.461 60.3791 35.1513 57.6818 34.175C57.1809 33.9771 56.6451 33.8829 56.1067 33.8981C55.5684 33.9133 55.0388 34.0376 54.5499 34.2634C54.061 34.4893 53.623 34.8121 53.2625 35.2122C52.902 35.6122 52.6265 36.0813 52.4525 36.591C51.9395 38.1052 54.3308 38.7589 54.852 37.253H54.8024Z" fill="black"/>
<path d="M22.0117 40.2232C22.2268 42.8213 22.475 45.5104 21.5649 48.0174C20.9029 49.8377 19.7446 51.4595 19.91 53.4866C20.1169 56.2833 22.7315 58.1118 25.2717 56.639C25.5559 56.4723 25.7622 56.1994 25.8452 55.8806C25.9282 55.5617 25.8811 55.2229 25.7143 54.9387C25.5476 54.6545 25.2747 54.4482 24.9559 54.3652C24.637 54.2822 24.2982 54.3293 24.014 54.4961C22.4668 53.2632 22.1689 51.9559 23.1866 50.5824C23.3631 50.2183 23.5286 49.8543 23.683 49.4902C24.0483 48.5925 24.3254 47.6614 24.5104 46.7101C24.7959 44.5572 24.7959 42.3761 24.5104 40.2232C24.3698 38.6429 21.8875 38.6263 22.0282 40.2232H22.0117Z" fill="black"/>
<path d="M32.1062 34.936C31.7502 37.253 32.0157 39.6229 32.8757 41.8036C33.4632 43.2681 35.8626 42.631 35.2669 41.1499C34.5307 39.3951 34.2655 37.4785 34.4974 35.5897C34.7125 34.0342 32.3214 33.3557 32.1062 34.936Z" fill="black"/>
<path d="M14.6558 37.7411C14.5599 40.3441 15.344 42.9034 16.8816 45.0058C17.8165 46.28 19.9761 45.0058 19.0246 43.7481C17.7196 42.0244 17.0528 39.9014 17.138 37.7411C17.1877 36.1442 14.7055 36.1442 14.6558 37.7411Z" fill="black"/>
<path d="M32.4456 64.6154C33.7241 64.5488 34.9446 64.0603 35.9162 63.2265C36.8878 62.3927 37.5556 61.2604 37.8154 60.0067C38.1133 58.4429 35.7221 57.7727 35.4242 59.3448C35.3106 60.0755 34.9556 60.7472 34.4157 61.2526C33.8758 61.758 33.1822 62.068 32.4456 62.1332C30.8569 62.2407 30.8487 64.723 32.4456 64.6154Z" fill="black"/>
<path d="M8.65769 34.6465C3.9249 26.8689 5.76176 17.0723 12.0253 10.7095C17.8171 4.79352 26.3808 2.07962 34.5805 2.51815C42.5019 2.95052 50.0271 6.12089 55.8698 11.4873C58.8663 14.1625 61.2197 17.4803 62.7538 21.1928C64.7065 26.2731 63.664 32.9751 57.5163 34.3073C55.9608 34.6382 56.6227 37.0377 58.1782 36.6985C68.5291 34.4645 67.0729 22.1774 62.489 15.4009C56.8875 7.12683 47.5956 1.69902 37.7164 0.333794C27.8371 -1.03143 17.329 1.78177 10.2712 8.94714C3.21334 16.1125 1.1696 27.1502 6.51468 35.8959C7.34209 37.2611 9.49338 36.0117 8.65769 34.6382V34.6465Z" fill="black"/>
<path d="M8.78174 34.9774C20.3076 30.4184 34.6879 21.5486 46.0897 30.7659C46.2661 30.9316 46.4865 31.043 46.7246 31.0865C46.9627 31.13 47.2083 31.1039 47.4319 31.0113C47.6556 30.9187 47.8477 30.7635 47.9853 30.5644C48.123 30.3654 48.2002 30.1308 48.2078 29.8889C48.7969 25.0884 47.8835 20.2234 45.5932 15.9635C44.8568 14.5487 42.7138 15.8063 43.4502 17.2212C45.5095 21.1037 46.305 25.5324 45.7256 29.8889L47.8438 29.0118C35.3499 18.9174 20.9033 27.5225 8.12806 32.5862C6.66354 33.1654 7.30063 35.5732 8.78997 34.9774H8.78174Z" fill="black"/>
<path d="M47.5375 18.9011C50.0197 22.8064 50.599 26.5629 50.6072 31.1054C50.5036 31.8996 50.6665 32.7057 51.0706 33.3973C51.898 34.5805 53.3294 34.3819 54.2974 35.3169C55.4558 36.4256 57.2099 34.6715 56.0598 33.5628C55.3979 32.9257 54.4464 32.8512 53.8341 32.3134C52.5351 31.1964 53.2218 28.3583 53.0067 26.7945C52.6019 23.5273 51.4526 20.3965 49.6474 17.6434C48.82 16.303 46.6439 17.5441 47.5044 18.9011H47.5375Z" fill="black"/>
<path d="M7.20939 31.5355C7.21016 31.0799 7.33347 30.6329 7.56639 30.2413C7.7993 29.8497 8.13323 29.5279 8.53323 29.3098C8.25486 29.3586 7.96905 29.3431 7.69759 29.2644C7.42613 29.1858 7.17623 29.0461 6.96704 28.8561C6.75785 28.6661 6.59488 28.4307 6.49061 28.168C6.38634 27.9053 6.34351 27.6223 6.36542 27.3405L7.70582 28.7471L8.23538 27.6715C7.69756 28.7637 9.06281 29.9965 10.2708 29.9055C11.4788 29.8145 12.4883 28.954 13.4977 28.2507C14.5071 27.5474 15.831 27.0179 16.9232 27.564C15.7271 27.4414 14.5234 27.7087 13.4916 28.326C12.4598 28.9433 11.6551 29.8775 11.1975 30.9894L29.3426 26.2566C33.5873 25.1479 38.2125 24.064 42.2585 25.785C43.1935 26.1822 44.476 26.6124 45.0469 25.785C45.174 25.5784 45.2558 25.3471 45.2869 25.1065C45.9819 21.5404 44.6415 17.908 43.119 14.615C41.3153 10.7096 39.0482 6.7463 35.3331 4.57848C31.9886 2.78679 28.0912 2.32288 24.4195 3.27944C20.7812 4.24788 17.3646 5.9112 14.3582 8.1777C11.1479 10.4448 8.11126 13.1422 6.42334 16.7083C5.55273 18.5577 5.07394 20.5671 5.01699 22.6104C4.96003 24.6537 5.32617 26.6866 6.09241 28.5817" fill="black"/>
<path d="M8.36764 31.8665L9.36878 30.2117C10.2624 29.4918 9.46807 28.1349 8.49172 28.0935L7.51539 26.9848L5.44686 28.1928L6.78726 29.5994C6.92277 29.7314 7.08635 29.8311 7.26576 29.8912C7.44517 29.9512 7.63581 29.97 7.82349 29.9461C8.01117 29.9223 8.19103 29.8564 8.34971 29.7534C8.5084 29.6504 8.64176 29.5129 8.73994 29.3511L9.26121 28.2672L6.95275 27.6467C6.83624 28.351 6.97802 29.0737 7.35201 29.6818C7.726 30.29 8.30705 30.7425 8.9882 30.9563C11.9421 32.0237 13.721 28.2507 16.5507 28.7885L16.8817 26.3477C15.4739 26.2612 14.0728 26.601 12.861 27.3227C11.6492 28.0445 10.6831 29.1146 10.0886 30.3937C9.97348 30.6072 9.92261 30.8495 9.94207 31.0914C9.96152 31.3332 10.0505 31.5643 10.1983 31.7567C10.3461 31.9491 10.5464 32.0946 10.775 32.1758C11.0037 32.2569 11.2509 32.2702 11.4869 32.214C17.5353 30.6336 23.5672 29.0119 29.6238 27.4812C33.1569 26.5876 36.8802 25.5947 40.5208 26.5297C41.9026 26.8855 43.4002 27.9032 44.8647 27.3571C48.0337 26.1491 46.5196 20.473 45.808 18.1563C44.4759 13.9117 42.2667 9.33609 39.1887 6.12574C32.3377 -0.923805 22.2433 1.48395 14.8876 6.34913C7.05206 11.537 1.45875 19.2981 4.89251 28.954C5.42205 30.4433 7.82155 29.7814 7.28374 28.2921C3.8748 18.6858 10.5934 11.4211 18.5448 7.01105C27.0175 2.30308 35.697 3.53593 40.587 12.3727C41.6544 14.3088 45.8659 21.6149 44.2193 23.8075C43.003 25.4127 40.9593 24.0061 39.4866 23.8075C37.932 23.6268 36.3605 23.649 34.8117 23.8737C26.7692 24.8914 18.7103 27.7873 10.8747 29.8311L12.273 31.6514C12.6719 30.7666 13.3301 30.0239 14.1605 29.5216C14.9908 29.0192 15.9542 28.7809 16.923 28.8381C18.2883 28.8381 18.6441 26.6703 17.254 26.4056C16.2757 26.0889 15.2182 26.1181 14.2588 26.4883C14.052 26.5545 9.29431 29.558 9.47634 27.6881C9.47194 27.4172 9.37967 27.1552 9.21339 26.9414C9.0471 26.7275 8.8158 26.5735 8.5544 26.5026C8.29299 26.4316 8.01563 26.4475 7.76405 26.5479C7.51248 26.6483 7.30033 26.8278 7.1596 27.0592L6.63833 28.1349L8.58273 27.8866L7.24233 26.48C6.2908 25.4872 5.00836 26.5628 5.16557 27.6881C5.43034 29.5911 6.68796 30.493 8.53308 30.5674L7.65603 28.4493C7.20367 28.7719 6.82311 29.1848 6.53829 29.6618C6.25347 30.1389 6.07058 30.6698 6.00121 31.2211C5.71989 32.7849 8.11112 33.4551 8.39244 31.883L8.36764 31.8665Z" fill="black"/>
<path d="M45.2704 28.6395C45.5996 28.6395 45.9153 28.5087 46.148 28.276C46.3808 28.0432 46.5115 27.7275 46.5115 27.3983C46.5115 27.0692 46.3808 26.7535 46.148 26.5207C45.9153 26.288 45.5996 26.1572 45.2704 26.1572C44.9412 26.1572 44.6256 26.288 44.3928 26.5207C44.16 26.7535 44.0293 27.0692 44.0293 27.3983C44.0293 27.7275 44.16 28.0432 44.3928 28.276C44.6256 28.5087 44.9412 28.6395 45.2704 28.6395Z" fill="black"/>
<path d="M34.911 3.7509C38.878 6.26773 42.6207 9.12183 46.0976 12.2815L46.9746 10.155C45.4608 10.0463 43.973 9.70291 42.5645 9.13732C41.2737 8.64915 40.6863 10.3619 41.3565 11.2141C42.2147 12.313 43.273 13.2394 44.4758 13.9446L45.4274 11.6775L43.3009 11.0486C41.9771 10.6598 41.0834 12.6621 42.3494 13.3158C43.5482 13.8502 44.6412 14.5957 45.5763 15.5167L46.1224 13.4399L44.964 13.6053C44.6505 13.5285 44.3194 13.5768 44.0409 13.74C43.7624 13.9033 43.5585 14.1686 43.4724 14.4797C43.3863 14.7908 43.4247 15.1232 43.5796 15.4064C43.7345 15.6896 43.9937 15.9013 44.3021 15.9966L46.9167 16.9398L47.2477 14.5072L45.3777 14.6148V17.097L47.4545 17.6597L48.4143 15.3925L46.2961 14.8051C45.9826 14.7282 45.6515 14.7765 45.373 14.9398C45.0945 15.103 44.8906 15.3683 44.8045 15.6794C44.7184 15.9905 44.7568 16.3229 44.9118 16.6061C45.0667 16.8893 45.3258 17.101 45.6342 17.1963L46.9995 17.6348C48.3151 18.0651 49.25 15.98 47.9592 15.3677C45.0744 14.0748 42.5826 12.0425 40.736 9.47656L39.6603 11.3465C41.7846 11.4483 43.8424 12.1199 45.6177 13.2909C45.8555 13.4232 46.13 13.4742 46.3995 13.4362C46.6689 13.3982 46.9186 13.2733 47.1106 13.0804C47.3025 12.8875 47.4263 12.6372 47.463 12.3675C47.4997 12.0979 47.4473 11.8237 47.3138 11.5865C46.3648 10.0944 45.1167 8.81537 43.6484 7.83002C42.4238 7.00261 41.2655 8.77326 42.1425 9.7827C43.2584 11.0724 44.5002 12.2477 45.8494 13.2909C47.0905 14.2507 48.8611 12.5297 47.6035 11.5368L42.7879 7.72246L41.282 9.67513L45.568 12.4801C46.7264 13.2413 48.1661 11.4375 47.0656 10.5274L42.2501 6.54752L40.7442 8.49194C44.1697 11.1121 47.5235 13.8177 50.8055 16.6088C51.0221 16.8112 51.3035 16.9299 51.5995 16.9439C51.8955 16.9579 52.1869 16.8663 52.4215 16.6853C52.6562 16.5043 52.8188 16.2458 52.8805 15.956C52.9422 15.6661 52.8989 15.3638 52.7582 15.103C52.2336 13.9117 51.2663 12.9711 50.0608 12.4801C49.8467 12.3663 49.6045 12.3164 49.3629 12.3363C49.1212 12.3562 48.8904 12.4451 48.6978 12.5923C48.5052 12.7396 48.3589 12.9391 48.2764 13.1671C48.1939 13.3951 48.1786 13.642 48.2323 13.8784C48.4827 15.1304 48.9503 16.329 49.6141 17.4197C49.7669 17.6774 50.0077 17.8712 50.2922 17.9652C50.5767 18.0592 50.8856 18.0471 51.1619 17.9311C51.4382 17.8152 51.6632 17.6032 51.7954 17.3343C51.9276 17.0654 51.9581 16.7578 51.8812 16.4682L50.7393 15.7897L52.1377 16.3606L51.484 15.0699C50.8635 13.837 48.7288 14.6975 49.2169 16.0297C49.4554 16.8084 49.8187 17.5434 50.2925 18.2058C51.1696 19.5296 53.2547 18.3464 52.4355 16.9564C51.1351 14.6997 49.4813 12.6661 47.5373 10.9328C47.3207 10.7305 47.0393 10.6117 46.7433 10.5977C46.4473 10.5837 46.1559 10.6754 45.9213 10.8564C45.6866 11.0373 45.5239 11.2958 45.4623 11.5857C45.4006 11.8755 45.4439 12.1779 45.5846 12.4387C46.5557 14.1254 47.6891 15.7132 48.9687 17.1798C49.9616 18.3381 51.4509 16.8653 50.9131 15.6821C48.4699 10.1295 44.7909 5.20823 40.1568 1.29348L38.6509 3.24616C41.2407 4.9589 44.1614 5.93526 46.834 7.49907C49.4911 9.14996 51.882 11.1949 53.9249 13.564C55.9399 15.6462 57.7905 17.8814 59.4603 20.2494C60.4532 21.7636 61.4626 23.6005 61.446 25.4787C61.4421 26.3935 61.2344 27.2959 60.8379 28.1203C60.4415 28.9447 59.8663 29.6704 59.1541 30.2446C58.0895 31.7836 56.6581 32.1283 54.8599 31.2788L53.4533 33.0992C56.6636 33.8438 59.2452 35.8544 62.0501 32.9502C64.4496 30.468 64.16 26.3971 63.5477 23.3026C62.7452 19.5426 60.9897 16.0519 58.4498 13.1657C55.9098 10.2795 52.6707 8.09452 49.0431 6.82058C48.8591 6.77102 48.6661 6.76453 48.4791 6.80159C48.2921 6.83866 48.1162 6.91828 47.965 7.0343C47.8138 7.15033 47.6913 7.29964 47.607 7.47063C47.5228 7.64163 47.4791 7.8297 47.4793 8.02031C47.4556 10.092 48.1881 12.1012 49.5396 13.6715C50.4746 14.863 52.0218 13.3406 51.4923 12.1656C50.4771 9.90877 48.8881 7.95743 46.8836 6.50616C46.6704 6.38705 46.427 6.33304 46.1834 6.3508C45.9398 6.36855 45.7068 6.4573 45.5131 6.60608C45.3194 6.75485 45.1736 6.95711 45.0937 7.18788C45.0137 7.41864 45.0032 7.66779 45.0633 7.90449C45.8085 9.91702 47.0059 11.7316 48.5632 13.2082C49.2748 13.8949 50.7972 13.4564 50.6814 12.3311C50.6364 11.3735 50.4019 10.4343 49.9915 9.56797C49.581 8.70161 49.0028 7.92528 48.2902 7.28393C47.3139 6.34068 45.5184 7.59835 46.3458 8.78982L51.6826 16.4847C51.842 16.7321 52.0836 16.9152 52.3649 17.0019C52.6461 17.0886 52.9489 17.0732 53.2198 16.9584C53.4908 16.8437 53.7126 16.637 53.8462 16.3748C53.9797 16.1125 54.0163 15.8116 53.9497 15.5249C53.8634 14.8392 53.6256 14.1812 53.2535 13.5988C52.8814 13.0163 52.3844 12.5239 51.7984 12.1574C51.0455 11.5782 49.9037 12.3725 49.9368 13.233C50.0093 16.2177 50.508 19.1766 51.4178 22.0201L53.809 21.3582L52.6176 18.5367C52.1129 17.3287 50.1353 17.3452 50.185 18.8677C50.301 21.9763 50.904 25.0475 51.9722 27.9692C52.0524 28.2245 52.2121 28.4476 52.4279 28.6059C52.6437 28.7642 52.9043 28.8496 53.1719 28.8496C53.4396 28.8496 53.7002 28.7642 53.916 28.6059C54.1318 28.4476 54.2914 28.2245 54.3717 27.9692C54.8124 26.1371 54.8827 24.2355 54.5785 22.3759C54.3634 20.9776 52.0963 21.3416 52.0963 22.7069C52.1117 25.7683 52.5431 28.8135 53.3788 31.7587C53.6932 32.8592 55.5714 33.0247 55.7783 31.7587C56.1488 29.6771 56.0612 27.5397 55.5218 25.4953L53.4533 26.7033C54.5649 28.0581 55.8533 29.2575 57.2842 30.2694C58.2274 30.9479 59.3113 29.8226 59.1044 28.8628C58.57 26.276 57.5112 23.8261 55.9934 21.6643C55.834 21.417 55.5924 21.2338 55.3111 21.1472C55.0299 21.0605 54.7271 21.0759 54.4561 21.1906C54.1851 21.3054 53.9634 21.5121 53.8299 21.7743C53.6963 22.0365 53.6596 22.3375 53.7263 22.6241C54.0609 25.1199 54.84 27.5354 56.0265 29.7564L58.1695 28.507C57.3389 27.3498 56.3341 26.3283 55.1908 25.4787C55.0262 25.3849 54.8424 25.3298 54.6533 25.3176C54.4642 25.3053 54.2748 25.3362 54.0994 25.408C53.9241 25.4797 53.7673 25.5904 53.641 25.7317C53.5147 25.8729 53.4222 26.0411 53.3705 26.2234C53.0482 27.1176 53.0146 28.0904 53.2744 29.0048C53.5341 29.9191 54.0742 30.729 54.8185 31.3202C55.5466 31.9904 57.0276 31.5767 56.9366 30.4432C56.9171 29.4806 56.7411 28.5276 56.4154 27.6217L54.1897 28.6394L56.3078 31.6843C56.8539 32.462 58.3764 32.5117 58.5749 31.3864C59.4023 26.3558 55.6459 20.5308 53.8173 15.9717L51.5419 16.9315L57.9047 29.2351C58.0305 29.4423 58.2138 29.6084 58.4323 29.7132C58.6508 29.818 58.8951 29.857 59.1354 29.8254C59.3757 29.7938 59.6016 29.6931 59.7856 29.5354C59.9696 29.3777 60.1038 29.1699 60.1718 28.9373C60.7014 27.0508 59.8409 25.7683 59.0714 23.9728L55.0088 14.5403C54.4627 13.2578 52.2701 14.1763 52.7417 15.5001C54.2472 19.6979 56.0699 23.775 58.1943 27.6961C58.3537 27.9435 58.5954 28.1267 58.8766 28.2133C59.1578 28.3 59.4606 28.2846 59.7316 28.1699C60.0026 28.0551 60.2244 27.8484 60.3579 27.5862C60.4914 27.3239 60.5281 27.023 60.4614 26.7364C59.0412 22.0197 57.116 17.4702 54.7192 13.1668L52.5679 14.4245L58.2605 24.3534C58.4199 24.6008 58.6616 24.7839 58.9428 24.8706C59.224 24.9572 59.5268 24.9418 59.7978 24.8271C60.0688 24.7124 60.2906 24.5057 60.4241 24.2435C60.5576 23.9812 60.5943 23.6803 60.5276 23.3936C58.8904 18.1843 56.1534 13.3875 52.5017 9.32764C51.5585 8.26855 49.8209 9.63378 50.549 10.8252L57.9957 23.0296L60.1387 21.7719C58.0702 18.705 56.1203 15.5691 54.289 12.3642L52.3362 13.8619C55.1531 16.9205 57.4682 20.4056 59.1955 24.1879C59.3235 24.3919 59.5073 24.5548 59.7252 24.6574C59.9431 24.7599 60.1858 24.7978 60.4246 24.7664C60.6633 24.735 60.8881 24.6358 61.0721 24.4804C61.2561 24.3251 61.3916 24.1202 61.4626 23.8901L61.7357 22.3759L59.6671 22.922L59.3775 26.7364L61.2061 27.481L60.9744 25.7517L58.6659 26.3806L59.2782 28.8132H61.7605L61.8763 26.3806L59.4437 26.7115L59.6919 28.689C59.634 30.2859 62.1162 30.2777 62.1742 28.689C62.2869 27.7947 62.1701 26.8864 61.8349 26.0496C61.791 25.7204 61.6182 25.4222 61.3544 25.2205C61.0906 25.0188 60.7575 24.9301 60.4283 24.974C60.0992 25.0179 59.8009 25.1907 59.5992 25.4545C59.3975 25.7183 59.3088 26.0514 59.3527 26.3806L59.2369 28.8132C59.1624 30.4101 61.6281 30.3935 61.7191 28.8132C61.8533 27.5115 61.5156 26.2049 60.7675 25.1312C60.6272 24.9003 60.4158 24.7211 60.165 24.6205C59.9142 24.5199 59.6376 24.5033 59.3766 24.5732C59.1156 24.6431 58.8843 24.7958 58.7174 25.0082C58.5505 25.2207 58.4569 25.4816 58.4508 25.7517C58.3386 26.5626 58.4473 27.3887 58.7652 28.143C58.819 28.3248 58.9131 28.4921 59.0406 28.6324C59.1681 28.7727 59.3257 28.8823 59.5015 28.9531C59.6774 29.024 59.867 29.0541 60.0561 29.0413C60.2453 29.0286 60.4291 28.9732 60.5938 28.8794C61.2431 28.4968 61.7939 27.9677 62.2023 27.3344C62.6106 26.701 62.8652 25.9809 62.9456 25.2316C63.026 24.4823 62.93 23.7245 62.6653 23.019C62.4007 22.3134 61.9746 21.6795 61.4212 21.1679C61.2668 21.0161 61.0756 20.907 60.8664 20.8514C60.6571 20.7957 60.4369 20.7954 60.2275 20.8505C60.0181 20.9055 59.8266 21.0141 59.6718 21.1655C59.517 21.3168 59.4042 21.5059 59.3444 21.714L59.0714 23.2281L61.3385 22.9303C59.5217 18.9604 57.0896 15.3023 54.1317 12.0912C53.1637 11.0404 51.4923 12.3891 52.179 13.5971C54.0269 16.8074 55.9796 19.9461 58.0371 23.013C58.9142 24.3203 61.0241 23.1371 60.1801 21.7553L52.7334 9.55931L50.789 11.0652C54.1576 14.8135 56.6778 19.2444 58.1777 24.0555L60.4449 23.0957L54.7605 13.1668C54.5817 12.9071 54.3112 12.7246 54.0034 12.656C53.6956 12.5874 53.3733 12.6378 53.1011 12.7969C52.8288 12.9561 52.6268 13.2123 52.5356 13.5142C52.4444 13.816 52.4707 14.1412 52.6093 14.4245C54.909 18.5365 56.754 22.8867 58.1116 27.3983L60.3787 26.4468C58.3569 22.721 56.6172 18.8489 55.1742 14.863L52.9071 15.8228L55.3894 21.6147C56.0348 23.1206 58.2605 26.6619 57.8055 28.3002L60.0725 28.0023L53.7098 15.6904C53.0809 14.4659 50.9131 15.3264 51.4427 16.6502L54.1731 23.4515C55.075 25.669 56.6553 28.2671 56.2085 30.741L58.4757 30.4432L56.3575 27.4066C55.5963 26.3144 53.6435 26.9349 54.0903 28.3581L54.5206 30.5176L56.6388 29.6406L55.8114 26.9598L53.9828 27.6961L56.0761 29.8309C56.248 30.1025 56.5184 30.2968 56.8306 30.3731C57.1428 30.4493 57.4725 30.4014 57.7501 30.2396C58.0277 30.0777 58.2318 29.8144 58.3193 29.5052C58.4067 29.1959 58.3709 28.8648 58.2192 28.5815C57.1399 26.544 56.4444 24.3256 56.1671 22.0367L53.9 22.9882C55.2862 24.9816 56.2596 27.2322 56.7629 29.6075L58.5832 28.2092C57.3385 27.3081 56.2246 26.2389 55.2736 25.0319C54.4462 24.0225 52.9154 25.1229 53.1968 26.2399C53.7385 27.8397 53.8245 29.5586 53.445 31.2044H55.8445C55.0699 28.4742 54.6664 25.6522 54.6447 22.8144L52.2039 23.1454C52.5002 24.5629 52.429 26.0326 51.997 27.4148H54.3717C53.8504 25.9338 54.2641 25.2056 53.9166 23.9563C53.3126 21.7802 52.6672 21.3334 52.6672 18.9918L50.185 19.3145L51.3765 22.1442C51.9722 23.5674 54.2641 23.0544 53.7677 21.4823C52.9125 18.8466 52.4389 16.1021 52.3611 13.3323L50.4911 14.3997L51.5006 16.2862L53.7677 15.3346L48.4309 7.63971L46.4782 9.14561L48.133 12.4552L50.2512 11.5782C48.9887 10.4139 48.0094 8.97612 47.3883 7.37493L45.5597 8.77326C47.1988 10.0098 48.483 11.6565 49.2831 13.5474L51.2275 12.0415L49.8954 8.14444L48.3233 9.34418C53.2264 11.1095 57.2462 14.7197 59.5264 19.4055C60.6757 21.6574 61.3142 24.135 61.3964 26.6619C61.3964 29.8971 60.9496 32.0897 56.4816 31.6677C55.657 31.4341 54.845 31.1579 54.049 30.8403C53.8123 30.7802 53.5631 30.7908 53.3324 30.8707C53.1016 30.9506 52.8994 31.0965 52.7506 31.2901C52.6018 31.4838 52.5131 31.7168 52.4953 31.9604C52.4776 32.204 52.5315 32.4474 52.6506 32.6606C54.3055 35.8048 57.4745 34.9112 59.8491 32.9998C63.5228 30.0625 64.8136 25.9917 62.9188 21.6064C61.0241 17.2211 57.127 13.2827 53.8173 10.0227C49.6803 5.92698 44.5834 4.33834 39.8258 1.20246C38.6674 0.432964 37.2443 2.23673 38.3199 3.15516C42.7957 6.92643 46.348 11.6731 48.7039 17.0308L50.6566 15.5249C49.5176 14.2177 48.514 12.7983 47.6614 11.2886L45.7169 12.7862C47.5023 14.3759 49.0244 16.2386 50.2263 18.305L52.3694 17.0557L51.5419 15.467L49.2748 16.4268L49.9285 17.7093C50.0653 17.9461 50.2769 18.1306 50.53 18.234C50.7831 18.3373 51.0634 18.3536 51.3268 18.2802C52.932 17.6514 53.5277 16.4682 52.6093 14.9044C52.5012 14.7154 52.3444 14.5589 52.1552 14.4512C51.966 14.3435 51.7513 14.2886 51.5337 14.2921C49.8292 14.4907 48.9273 15.467 49.4238 17.2294L51.6909 16.2696C51.071 15.3965 50.6838 14.38 50.5656 13.3158L48.737 14.7223L50.549 16.4516L52.4934 14.9458C49.0845 11.9395 45.5735 9.07389 41.9605 6.34895C40.8518 5.52154 39.3707 7.40805 40.4546 8.30166L45.2784 12.2815L46.7843 10.3371L42.5066 7.53214C41.3482 6.77093 39.8837 8.59952 41.0007 9.48485L45.8162 13.2909L47.5704 11.5368C46.2231 10.4913 44.9816 9.31631 43.8636 8.0286L42.3577 9.97302C43.524 10.6647 44.484 11.6561 45.1378 12.8441L46.7926 11.1479C44.6386 9.75427 42.1494 8.96552 39.5859 8.86429C39.3686 8.86559 39.1556 8.92388 38.9679 9.03334C38.7803 9.14281 38.6246 9.2996 38.5166 9.48805C38.4085 9.67651 38.3519 9.89004 38.3522 10.1073C38.3525 10.3245 38.4099 10.5378 38.5185 10.726C40.5759 13.6661 43.3769 16.0074 46.6354 17.5107L47.5869 15.2436L46.2217 14.8051L45.5597 17.1963L47.6779 17.7838C47.9645 17.8504 48.2655 17.8138 48.5277 17.6802C48.79 17.5467 48.9967 17.3249 49.1114 17.0539C49.2262 16.7829 49.2415 16.4802 49.1549 16.1989C49.0682 15.9177 48.8851 15.6761 48.6377 15.5167C48.1734 15.1545 47.6416 14.8883 47.0735 14.7335C46.5053 14.5786 45.912 14.5383 45.3281 14.6148C43.756 14.7472 43.7229 17.188 45.3281 17.097L47.198 16.9895C47.4928 16.9794 47.7745 16.8653 47.9932 16.6675C48.212 16.4697 48.3538 16.2009 48.3934 15.9087C48.433 15.6164 48.368 15.3196 48.2098 15.0707C48.0516 14.8217 47.8104 14.6368 47.529 14.5486L44.9144 13.6053L44.2525 15.9966C45.0761 16.2038 45.9438 16.1489 46.7347 15.8394C46.9419 15.7786 47.13 15.6655 47.2809 15.5109C47.4317 15.3563 47.5402 15.1655 47.5959 14.9568C47.6516 14.7482 47.6527 14.5287 47.5989 14.3195C47.5452 14.1103 47.4384 13.9185 47.289 13.7625C46.1595 12.7452 44.9056 11.875 43.5574 11.1728L42.6059 13.4399L44.7323 14.0687C45.0219 14.1456 45.3296 14.1151 45.5985 13.9829C45.8674 13.8507 46.0793 13.6257 46.1953 13.3495C46.3112 13.0732 46.3233 12.7643 46.2293 12.4798C46.1353 12.1953 45.9416 11.9544 45.6839 11.8016C44.6209 11.2655 43.7188 10.4577 43.0693 9.46002L41.8612 11.5286C43.4879 12.1465 45.1971 12.5201 46.9333 12.6373C47.1768 12.6333 47.4139 12.5581 47.6153 12.4211C47.8168 12.284 47.9738 12.0911 48.067 11.866C48.1602 11.6409 48.1855 11.3935 48.1399 11.1542C48.0943 10.9149 47.9798 10.6942 47.8103 10.5191C44.1902 7.22312 40.2955 4.2419 36.1686 1.60788C34.82 0.780468 33.5706 2.89866 34.9192 3.7509H34.911Z" fill="black"/>
<path d="M49.2334 16.8158C51.7926 19.4595 53.9579 22.4579 55.6624 25.7188L57.6151 24.2129L50.7889 15.9388C49.9615 14.9211 48.4556 16.0381 48.7121 17.1468C49.0114 18.4799 49.6896 19.6982 50.6649 20.655C51.6329 21.6397 53.3953 20.3489 52.6092 19.1491L51.7818 17.8749C51.61 17.6033 51.3396 17.409 51.0273 17.3327C50.7151 17.2565 50.3855 17.3044 50.1079 17.4662C49.8302 17.6281 49.6262 17.8914 49.5387 18.2006C49.4512 18.5099 49.4872 18.841 49.6389 19.1243C51.2002 22.0486 52.9931 24.8431 55.0005 27.4812C55.6045 28.2672 56.3409 29.5911 57.3255 29.9634C58.3101 30.3357 58.9803 29.4835 59.0796 31.0887C59.1789 32.6938 61.6529 32.6856 61.5618 31.0887C61.4212 28.6809 60.7344 28.0024 58.6328 27.4398C58.4269 27.4556 58.2267 27.5149 58.0453 27.6136L57.5241 26.7117C56.6315 25.7033 55.8338 24.6148 55.1411 23.4599C53.9266 21.6569 52.8054 19.7928 51.7818 17.8749L49.6389 19.1243L50.4663 20.3985L52.419 18.9009C51.6858 18.2961 51.2169 17.4295 51.1116 16.4849L49.0348 17.6929L55.8527 25.967C56.7877 27.1006 58.4342 25.6526 57.8054 24.4611C55.9934 21.0159 53.6974 17.8479 50.9875 15.0534C49.8788 13.9033 48.1247 15.6657 49.2334 16.8158Z" fill="black"/>
<path d="M33.6864 3.47786C33.7194 3.56588 33.7194 3.6629 33.6864 3.75092C33.6864 3.61853 33.6864 3.62681 33.6864 3.75092C33.7609 3.63508 33.7526 3.63508 33.6864 3.75092C33.7857 3.65715 33.7857 3.65715 33.6864 3.75092L33.8602 3.65161C33.7113 3.7178 33.7113 3.72608 33.8602 3.65161C33.77 3.6884 33.669 3.6884 33.5788 3.65161C33.7112 3.69298 33.703 3.65161 33.5788 3.65161C33.7196 3.73419 33.8751 3.78824 34.0367 3.81069C34.1983 3.83313 34.3628 3.82354 34.5207 3.78243C34.6786 3.74133 34.8268 3.66953 34.957 3.57113C35.0871 3.47274 35.1966 3.34968 35.2792 3.20897C35.3618 3.06825 35.4158 2.91265 35.4383 2.75105C35.4607 2.58944 35.4511 2.42501 35.41 2.26712C35.3689 2.10923 35.2971 1.96098 35.1987 1.83084C35.1003 1.7007 34.9772 1.5912 34.8365 1.50862C34.4412 1.30236 33.9954 1.21244 33.551 1.24927C33.1066 1.2861 32.6818 1.44816 32.3258 1.71668C31.9698 1.9852 31.6972 2.34918 31.5397 2.76635C31.3822 3.18352 31.3462 3.63679 31.4359 4.0736C31.4754 4.2349 31.5469 4.38664 31.6462 4.5198C31.7454 4.65296 31.8704 4.76483 32.0137 4.84881C32.1569 4.9328 32.3156 4.98716 32.4803 5.0087C32.645 5.03024 32.8123 5.01852 32.9724 4.97421C33.1324 4.9299 33.282 4.85392 33.4121 4.75077C33.5423 4.64761 33.6505 4.51938 33.7302 4.37367C33.8099 4.22797 33.8595 4.06774 33.8761 3.9025C33.8928 3.73725 33.8761 3.57036 33.8271 3.41168L33.6864 3.47786Z" fill="black"/>
<path d="M14.1514 20.6799C15.2599 17.48 17.2227 14.6444 19.8274 12.4802L17.7092 11.6032L18.2553 19.7118C18.3298 20.8454 19.9846 21.5238 20.5721 20.3406C21.915 17.6043 23.6734 15.0924 25.7848 12.8939C26.8852 11.7356 25.1311 9.98146 24.0224 11.1398C21.7611 13.4939 19.8747 16.1812 18.4291 19.1078L20.7375 19.7284L20.1915 11.6197C20.1839 11.3778 20.1066 11.1432 19.969 10.9441C19.8313 10.745 19.6392 10.5899 19.4156 10.4973C19.192 10.4047 18.9463 10.3786 18.7083 10.4221C18.4702 10.4656 18.2497 10.5769 18.0733 10.7427C15.1607 13.2061 12.9775 16.4193 11.7602 20.0345C11.2389 21.5487 13.6384 22.2023 14.1514 20.6964V20.6799Z" fill="white"/>
<path d="M1.45896 45.4938C0.0440849 49.7632 3.58539 53.561 7.75554 53.9168C12.2318 54.2974 18.1975 51.6331 19.6951 47.1734C20.2081 45.6592 17.8086 45.0056 17.3039 46.5197C15.4505 52.0137 1.36796 53.6355 3.85847 46.1557C4.36319 44.6333 1.96368 43.9879 1.45896 45.4938Z" fill="black"/>
<path d="M26.1488 47.3306C28.7717 49.697 34.1251 49.5729 37.294 48.4973C41.3235 47.1238 42.8625 43.1936 43.814 39.3958C44.1947 37.8485 41.8035 37.1866 41.4146 38.7338C40.6782 41.6794 39.7597 44.898 36.6321 46.1061C34.5967 46.9335 29.6571 47.1652 27.903 45.5765C26.728 44.5092 24.9656 46.2633 26.1488 47.3389V47.3306Z" fill="black"/>
<path d="M43.4086 40.8603C46.7646 39.2031 50.2584 37.8411 53.8505 36.7895C54.1589 36.6942 54.4181 36.4825 54.573 36.1993C54.7279 35.9161 54.7664 35.5837 54.6803 35.2726C54.5941 34.9615 54.3902 34.6962 54.1117 34.5329C53.8332 34.3697 53.5021 34.3214 53.1886 34.3982C49.3917 35.5169 45.6987 36.962 42.1509 38.7173C40.7195 39.4289 41.9772 41.5719 43.4086 40.8603Z" fill="black"/>
<path d="M3.48614 46.0153V45.1879C3.48614 44.8587 3.35539 44.543 3.12263 44.3103C2.88988 44.0775 2.57419 43.9468 2.24502 43.9468C1.91586 43.9468 1.60017 44.0775 1.36741 44.3103C1.13466 44.543 1.00391 44.8587 1.00391 45.1879V46.0153C1.00391 46.3445 1.13466 46.6602 1.36741 46.8929C1.60017 47.1257 1.91586 47.2564 2.24502 47.2564C2.57419 47.2564 2.88988 47.1257 3.12263 46.8929C3.35539 46.6602 3.48614 46.3445 3.48614 46.0153Z" fill="black"/>
<path d="M3.77556 45.4939C5.4566 43.6176 7.63813 42.2599 10.0639 41.5802C10.3723 41.485 10.6315 41.2732 10.7864 40.99C10.9413 40.7068 10.9798 40.3744 10.8936 40.0633C10.8075 39.7522 10.6036 39.4869 10.3251 39.3237C10.0466 39.1605 9.71551 39.1122 9.402 39.189C6.5606 39.9766 4.00117 41.5547 2.02145 43.7398C0.94582 44.923 2.69993 46.6854 3.77556 45.4939Z" fill="black"/>
<path d="M38.3281 36.9136C38.9505 37.2982 39.4491 37.8538 39.7645 38.514C40.0799 39.1741 40.1988 39.9111 40.107 40.6369C39.9581 42.2256 42.4403 42.2173 42.5893 40.6369C42.6819 39.4756 42.4502 38.3114 41.9199 37.2741C41.3895 36.2368 40.5814 35.3672 39.5858 34.7623C38.2205 33.9349 36.9711 36.0696 38.3281 36.9136Z" fill="black"/>
<path d="M43.21 85.458C48.1863 85.0927 53.0298 83.6831 57.4249 81.321C58.8398 80.568 57.5821 78.425 56.1755 79.178C52.1676 81.3371 47.7499 82.6282 43.21 82.9675C41.6297 83.0833 41.6131 85.5656 43.21 85.4497V85.458Z" fill="black"/>
<path d="M46.4536 83.1742C44.3768 85.6564 44.1451 88.3703 44.7988 91.4979C45.891 97.025 47.008 101.956 46.4536 107.641C46.2881 109.229 48.7786 109.213 48.9358 107.641C49.2974 104.365 49.2446 101.057 48.7786 97.7946C48.1912 93.823 45.3118 88.4862 48.2739 84.9283C49.2916 83.712 47.5458 81.9413 46.5198 83.1742H46.4536Z" fill="black"/>
<path d="M48.58 90.2815C48.9091 90.2815 49.2248 90.1508 49.4576 89.918C49.6903 89.6853 49.8211 89.3696 49.8211 89.0404C49.8211 88.7113 49.6903 88.3956 49.4576 88.1628C49.2248 87.9301 48.9091 87.7993 48.58 87.7993C48.2508 87.7993 47.9351 87.9301 47.7024 88.1628C47.4696 88.3956 47.3389 88.7113 47.3389 89.0404C47.3389 89.3696 47.4696 89.6853 47.7024 89.918C47.9351 90.1508 48.2508 90.2815 48.58 90.2815Z" fill="black"/>
<path d="M50.6488 96.4871C50.978 96.4871 51.2937 96.3564 51.5264 96.1236C51.7592 95.8909 51.8899 95.5752 51.8899 95.246C51.8899 94.9168 51.7592 94.6011 51.5264 94.3684C51.2937 94.1356 50.978 94.0049 50.6488 94.0049C50.3197 94.0049 50.004 94.1356 49.7712 94.3684C49.5385 94.6011 49.4077 94.9168 49.4077 95.246C49.4077 95.5752 49.5385 95.8909 49.7712 96.1236C50.004 96.3564 50.3197 96.4871 50.6488 96.4871Z" fill="black"/>
<path d="M41.6792 91.1339C40.3719 95.2709 35.7384 96.2804 38.2868 100.93C39.7348 103.578 42.0019 105.945 43.8222 108.377C44.8317 109.718 45.8907 111.521 47.5786 112.084C50.9876 113.217 53.0727 108.874 54.5703 106.59C57.5017 102.052 59.953 97.2216 61.8846 92.1764C62.4638 90.687 60.0643 90.0417 59.4851 91.5145C58.1386 95.0072 56.5345 98.3951 54.6861 101.65C53.8587 103.106 52.9568 104.538 52.0218 105.936C51.6247 106.54 51.1944 107.136 50.7973 107.715C48.5467 109.778 46.9361 109.58 45.9652 107.119C44.3104 105.001 39.106 100.07 40.3967 97.1905C40.6698 96.5865 41.8364 95.9411 42.2584 95.4199C43.0975 94.3402 43.716 93.106 44.0787 91.7875C44.5669 90.2568 42.1674 89.6032 41.6792 91.1256V91.1339Z" fill="black"/>
<path d="M61.8186 93.2769L78.3668 92.1682C79.9472 92.0607 79.9637 89.5785 78.3668 89.686L61.8186 90.7947C60.23 90.9023 60.2217 93.3845 61.8186 93.2769Z" fill="black"/>
<path d="M36.0694 98.0923L28.0683 102.817C27.7967 102.989 27.6024 103.259 27.5261 103.571C27.4499 103.884 27.4978 104.213 27.6596 104.491C27.8215 104.768 28.0848 104.972 28.394 105.06C28.7033 105.147 29.0344 105.111 29.3177 104.96L37.3271 100.235C37.6112 100.069 37.8175 99.7956 37.9005 99.4768C37.9835 99.1579 37.9365 98.8191 37.7697 98.5349C37.6029 98.2507 37.3301 98.0445 37.0112 97.9615C36.6923 97.8785 36.3536 97.9255 36.0694 98.0923Z" fill="black"/>
<path d="M20.961 128.756C21.1679 132.765 21.7216 136.749 22.6158 140.663C22.9716 142.218 25.3628 141.564 25.0071 140.009C24.164 136.31 23.6408 132.545 23.4432 128.756C23.3605 127.167 20.8783 127.159 20.961 128.756Z" fill="black"/>
<path d="M23.6996 165.841C25.9385 161.524 28.7925 157.555 32.1723 154.058C32.9997 153.231 36.8968 148.846 38.0552 148.937C39.437 149.052 40.8849 153.247 41.4972 154.431C43.152 157.641 43.152 159.809 41.5799 163.069L38.411 169.647L31.0139 185.02C30.3272 186.451 32.4619 187.709 33.1569 186.269L43.7312 164.335C44.8482 162.018 46.3293 159.941 45.6591 157.31C44.9889 154.679 42.9287 151.7 41.6131 149.251C39.0895 144.576 36.8886 146.496 33.339 149.532C28.4979 153.78 24.491 158.892 21.5235 164.608C20.7788 166.023 22.9219 167.272 23.6665 165.857L23.6996 165.841Z" fill="black"/>
<path d="M27.7044 102.444C16.9481 105.506 10.6432 115.186 7.63969 125.422C3.50264 139.405 2.31942 154.563 0.0192187 168.927C-0.237279 170.491 2.15395 171.169 2.41045 169.589C4.4376 156.954 6.00968 144.138 8.65739 131.619C11.0403 120.358 16.3192 108.278 28.3663 104.836C28.6747 104.74 28.9339 104.529 29.0888 104.245C29.2437 103.962 29.2822 103.63 29.1961 103.319C29.1099 103.008 28.906 102.742 28.6275 102.579C28.349 102.416 28.0179 102.368 27.7044 102.444Z" fill="black"/>
<path d="M22.4752 139.926C22.8176 146.736 23.787 153.5 25.3711 160.132C25.7434 161.687 28.1347 161.034 27.7623 159.478C26.2294 153.061 25.2904 146.516 24.9574 139.926C24.8747 138.338 22.3924 138.329 22.4752 139.926Z" fill="black"/>
<path d="M57.1602 149.5C57.607 153.165 58.2524 156.797 58.8895 160.438C59.3281 162.962 59.7748 165.493 60.0892 168.042C60.2878 169.63 61.0987 172.874 60.2134 174.173C58.4841 176.73 50.8471 177.723 47.9925 178.393C43.963 179.336 39.917 180.147 35.9371 181.272C35.6445 181.381 35.4033 181.596 35.2613 181.874C35.1192 182.153 35.0864 182.474 35.1695 182.775C35.2526 183.076 35.4454 183.335 35.71 183.501C35.9746 183.667 36.2918 183.728 36.5991 183.672C45.2704 181.189 54.2312 180.081 62.4474 176.167C62.6358 176.058 62.7918 175.901 62.8994 175.712C63.007 175.523 63.0623 175.309 63.0597 175.091C62.919 166.437 60.6933 158.047 59.6425 149.5C59.4439 147.936 56.9616 147.911 57.1602 149.5Z" fill="black"/>
<path d="M40.1074 148.705C42.5896 146.992 43.3674 143.385 44.2444 140.663C45.6676 136.211 46.7928 131.785 49.5481 127.921C50.4748 126.621 48.3236 125.38 47.4051 126.671C45.5332 129.419 44.1088 132.446 43.1853 135.64C42.2503 138.578 41.4809 144.742 38.858 146.554C37.5589 147.464 38.8001 149.623 40.1157 148.705H40.1074Z" fill="black"/>
<path d="M45.0305 155.275C48.0837 151.742 52.2787 149.706 55.7372 146.653C59.4606 143.343 61.8766 138.726 64.5326 134.614C65.4014 133.266 63.2501 132.024 62.3896 133.365C59.5185 137.808 56.9535 142.64 52.7089 145.925C49.482 148.407 45.9738 150.393 43.2764 153.521C42.2339 154.72 43.9797 156.483 45.0305 155.275Z" fill="black"/>
<path d="M53.7182 131.834C54.8191 129.285 56.3563 126.947 58.2607 124.925C59.3529 123.759 57.6071 122.005 56.5066 123.171C54.4303 125.345 52.7502 127.865 51.5422 130.618C50.905 132.066 53.0397 133.332 53.6851 131.867L53.7182 131.834Z" fill="black"/>
<path d="M58.0206 124.462C58.9644 124.127 59.9901 124.101 60.9497 124.388C62.4887 124.843 63.1423 122.443 61.6116 121.996C60.2208 121.578 58.734 121.604 57.3587 122.071C55.8611 122.584 56.5313 124.983 58.0206 124.462Z" fill="black"/>
<path d="M56.7961 133.944C57.7724 132.885 58.7653 131.834 59.7996 130.825C60.3705 130.262 60.9497 129.708 61.5371 129.17C62.257 128.5 62.5383 127.755 63.374 128.343C64.3586 129.004 65.1281 130.775 65.7073 131.76C66.452 133.034 67.1221 134.35 67.751 135.69C68.3798 137.03 70.5642 135.872 69.894 134.432C68.9049 132.286 67.7456 130.222 66.4271 128.26C65.7073 127.192 64.913 125.703 63.5478 125.389C62.1825 125.074 61.4048 125.984 60.4946 126.787C58.5815 128.495 56.7613 130.304 55.042 132.207C53.9663 133.381 55.7204 135.144 56.7961 133.961V133.944Z" fill="black"/>
<path d="M62.4473 136.286C62.8778 137.751 63.8599 138.993 65.1871 139.749C66.5142 140.505 68.0828 140.717 69.563 140.34C69.8652 140.24 70.1176 140.029 70.2681 139.748C70.4186 139.468 70.4557 139.141 70.3719 138.834C70.288 138.527 70.0895 138.264 69.8173 138.099C69.5452 137.935 69.2202 137.881 68.9094 137.949C68.062 138.16 67.166 138.036 66.4077 137.603C65.6495 137.17 65.0874 136.461 64.8385 135.624C64.7433 135.315 64.5315 135.056 64.2483 134.901C63.9651 134.746 63.6327 134.708 63.3216 134.794C63.0105 134.88 62.7452 135.084 62.582 135.363C62.4188 135.641 62.3705 135.972 62.4473 136.286Z" fill="black"/>
<path d="M51.84 123.999L53.3541 122.617C53.7016 122.294 54.1815 121.649 54.62 121.467C55.5219 121.078 56.4321 122.782 57.1023 123.32C58.302 124.371 60.0644 122.617 58.8564 121.566C57.6484 120.515 56.6389 118.62 54.6449 118.844C52.8825 119.034 51.3352 121.136 50.1189 122.244C48.9026 123.353 50.6981 125.082 51.8813 123.999H51.84Z" fill="black"/>
<path d="M49.1342 127.242C49.4633 127.242 49.779 127.111 50.0118 126.878C50.2445 126.646 50.3753 126.33 50.3753 126.001C50.3753 125.672 50.2445 125.356 50.0118 125.123C49.779 124.891 49.4633 124.76 49.1342 124.76C48.805 124.76 48.4893 124.891 48.2566 125.123C48.0238 125.356 47.8931 125.672 47.8931 126.001C47.8931 126.33 48.0238 126.646 48.2566 126.878C48.4893 127.111 48.805 127.242 49.1342 127.242Z" fill="black"/>
<path d="M49.6806 125.86C50.0097 125.86 50.3254 125.729 50.5582 125.497C50.7909 125.264 50.9217 124.948 50.9217 124.619C50.9217 124.29 50.7909 123.974 50.5582 123.741C50.3254 123.509 50.0097 123.378 49.6806 123.378C49.3514 123.378 49.0357 123.509 48.803 123.741C48.5702 123.974 48.4395 124.29 48.4395 124.619C48.4395 124.948 48.5702 125.264 48.803 125.497C49.0357 125.729 49.3514 125.86 49.6806 125.86Z" fill="black"/>
<path d="M50.2348 124.76C50.5639 124.76 50.8796 124.629 51.1124 124.396C51.3451 124.164 51.4759 123.848 51.4759 123.519C51.4759 123.19 51.3451 122.874 51.1124 122.641C50.8796 122.408 50.5639 122.278 50.2348 122.278C49.9056 122.278 49.5899 122.408 49.3572 122.641C49.1244 122.874 48.9937 123.19 48.9937 123.519C48.9937 123.848 49.1244 124.164 49.3572 124.396C49.5899 124.629 49.9056 124.76 50.2348 124.76Z" fill="black"/>
<path d="M22.161 128.574L37.1454 124.437L43.5248 122.658C44.708 122.336 48.9609 121.905 49.5732 121.003C48.6465 122.311 50.7977 123.552 51.7161 122.261C51.9059 122.026 52.0458 121.754 52.1272 121.463C52.2085 121.172 52.2297 120.867 52.1895 120.568C52.1492 120.268 52.0483 119.98 51.893 119.72C51.7376 119.461 51.5311 119.236 51.2859 119.059C49.6311 117.826 47.0909 119.059 45.4444 119.514L21.4991 126.133C21.2065 126.243 20.9654 126.457 20.8233 126.736C20.6812 127.014 20.6484 127.335 20.7315 127.636C20.8146 127.937 21.0074 128.196 21.272 128.362C21.5366 128.528 21.8538 128.589 22.161 128.533V128.574Z" fill="black"/>
<path d="M27.4229 132.066L28.2503 138.445C28.4489 139.993 28.3331 142.26 28.9454 143.724C30.0458 146.347 33.6864 144.072 35.424 143.468C36.9216 142.946 36.2514 140.547 34.762 141.076C33.7112 141.441 32.6522 141.904 31.5765 142.185C30.5009 142.467 31.2538 142.483 31.1876 142.094C31.0552 141.35 30.9974 140.572 30.9063 139.819L29.9052 132.066C29.7066 130.502 27.2243 130.477 27.4229 132.066Z" fill="black"/>
<path d="M29.0201 132.893C29.7151 132.827 30.3108 132.521 30.9728 132.43C32.6276 132.198 32.5614 133.928 32.8676 135.194L34.3817 141.523C34.7541 143.079 37.1535 142.417 36.7729 140.861L35.6146 136.021C35.3575 134.434 34.9729 132.871 34.4645 131.346C33.2647 128.549 31.1548 130.221 29.0201 130.411C27.4397 130.552 27.4232 133.034 29.0201 132.893Z" fill="black"/>
<path d="M35.6478 130.775C36.68 133.273 37.346 135.906 37.6253 138.594C37.8239 140.15 38.6844 141.474 40.3971 141.358C41.9858 141.25 41.994 138.768 40.3971 138.876C40.0331 138.876 39.5697 134.887 39.4704 134.374C39.0732 132.71 38.5191 131.086 37.8156 129.526C37.1785 128.061 35.0356 129.327 35.6727 130.775H35.6478Z" fill="black"/>
<path d="M40.1074 129.931C40.5873 132.397 41.001 134.879 41.3486 137.378C41.572 138.958 43.9631 138.288 43.748 136.724C43.4005 134.236 42.9841 131.754 42.4987 129.278C42.1925 127.714 39.793 128.376 40.1074 129.931Z" fill="black"/>
<path d="M43.7563 127.656V129.029C43.7563 129.358 43.8871 129.674 44.1199 129.907C44.3526 130.14 44.6683 130.27 44.9975 130.27C45.3266 130.27 45.6423 130.14 45.8751 129.907C46.1078 129.674 46.2386 129.358 46.2386 129.029V127.656C46.2386 127.327 46.1078 127.011 45.8751 126.778C45.6423 126.545 45.3266 126.415 44.9975 126.415C44.6683 126.415 44.3526 126.545 44.1199 126.778C43.8871 127.011 43.7563 127.327 43.7563 127.656Z" fill="black"/>
<path d="M48.0587 174.016C50.4355 173.133 52.9836 172.81 55.5054 173.072C57.094 173.23 57.0775 170.739 55.5054 170.59C52.7699 170.313 50.0073 170.667 47.4298 171.624C45.9405 172.162 46.6024 174.562 48.0918 174.016H48.0587Z" fill="black"/>
<path d="M79.1942 92.9541C89.3962 92.8135 93.9552 107.136 97.6372 114.723C101.824 123.337 105.465 132.165 107.566 141.54C107.922 143.095 110.313 142.433 109.966 140.878C107.483 129.832 102.858 119.531 97.7944 109.436C93.8725 101.625 89.6362 90.3147 79.1942 90.4554C78.8651 90.4554 78.5494 90.5862 78.3166 90.8189C78.0839 91.0517 77.9531 91.3674 77.9531 91.6965C77.9531 92.0257 78.0839 92.3413 78.3166 92.5741C78.5494 92.8068 78.8651 92.9376 79.1942 92.9376V92.9541Z" fill="black"/>
<path d="M80.8488 132.579C84.3239 139.844 87.4295 147.26 90.1655 154.828C90.7033 156.317 93.1028 155.655 92.5567 154.166C89.7545 146.394 86.5662 138.779 82.9918 131.321C82.3051 129.882 80.1621 131.139 80.8488 132.579Z" fill="black"/>
</svg>
